<?xml version="1.0" encoding="UTF-8" standalone="no"?>
<!DOCTYPE svg PUBLIC "-//W3C//DTD SVG 1.1//EN"
 "http://www.w3.org/Graphics/SVG/1.1/DTD/svg11.dtd">
<!-- Generated by graphviz version 12.2.1 (20241206.2353)
 -->
<!-- Title: src/core/Actions.h Pages: 1 -->
<svg width="372pt" height="196pt"
 viewBox="0.00 0.00 371.50 196.00" xmlns="http://www.w3.org/2000/svg" xmlns:xlink="http://www.w3.org/1999/xlink">
<g id="graph0" class="graph" transform="scale(1 1) rotate(0) translate(4 192)">
<title>src/core/Actions.h</title>
<!-- Node1 -->
<g id="node1" class="node">
<title>Node1</title>
<g id="a_node1"><a xlink:title=" ">
<polygon fill="#999999" stroke="#666666" points="177.75,-188 82.25,-188 82.25,-168 177.75,-168 177.75,-188"/>
<text text-anchor="middle" x="130" y="-174.5" font-family="Helvetica,sans-Serif" font-size="10.00">src/core/Actions.h</text>
</a>
</g>
</g>
<!-- Node2 -->
<g id="node2" class="node">
<title>Node2</title>
<g id="a_node2"><a xlink:href="Actions_8cpp.html" target="_top" xlink:title=" ">
<polygon fill="white" stroke="#666666" points="106,-132 0,-132 0,-112 106,-112 106,-132"/>
<text text-anchor="middle" x="53" y="-118.5" font-family="Helvetica,sans-Serif" font-size="10.00">src/core/Actions.cpp</text>
</a>
</g>
</g>
<!-- Node1&#45;&gt;Node2 -->
<g id="edge1" class="edge">
<title>Node1&#45;&gt;Node2</title>
<path fill="none" stroke="#63b8ff" d="M107.18,-161C93.95,-151.72 77.74,-140.35 66.52,-132.48"/>
<polygon fill="#63b8ff" stroke="#63b8ff" points="105.15,-163.85 115.35,-166.72 109.17,-158.12 105.15,-163.85"/>
</g>
<!-- Node3 -->
<g id="node3" class="node">
<title>Node3</title>
<g id="a_node3"><a xlink:href="SceneApprenticeship_8h.html" target="_top" xlink:title=" ">
<polygon fill="white" stroke="#666666" points="291.75,-132 124.25,-132 124.25,-112 291.75,-112 291.75,-132"/>
<text text-anchor="middle" x="208" y="-118.5" font-family="Helvetica,sans-Serif" font-size="10.00">src/scenes/SceneApprenticeship.h</text>
</a>
</g>
</g>
<!-- Node1&#45;&gt;Node3 -->
<g id="edge2" class="edge">
<title>Node1&#45;&gt;Node3</title>
<path fill="none" stroke="#63b8ff" d="M152.72,-161.27C166.19,-151.94 182.83,-140.43 194.31,-132.48"/>
<polygon fill="#63b8ff" stroke="#63b8ff" points="151.06,-158.16 144.83,-166.73 155.05,-163.92 151.06,-158.16"/>
</g>
<!-- Node4 -->
<g id="node4" class="node">
<title>Node4</title>
<g id="a_node4"><a xlink:href="SceneApprenticeship_8cpp.html" target="_top" xlink:title=" ">
<polygon fill="white" stroke="#666666" points="180,-76 2,-76 2,-56 180,-56 180,-76"/>
<text text-anchor="middle" x="91" y="-62.5" font-family="Helvetica,sans-Serif" font-size="10.00">src/scenes/SceneApprenticeship.cpp</text>
</a>
</g>
</g>
<!-- Node3&#45;&gt;Node4 -->
<g id="edge3" class="edge">
<title>Node3&#45;&gt;Node4</title>
<path fill="none" stroke="#63b8ff" d="M177.4,-106.88C156.64,-97.3 129.76,-84.89 111.54,-76.48"/>
<polygon fill="#63b8ff" stroke="#63b8ff" points="175.7,-109.95 186.25,-110.96 178.63,-103.59 175.7,-109.95"/>
</g>
<!-- Node5 -->
<g id="node5" class="node">
<title>Node5</title>
<g id="a_node5"><a xlink:href="SceneMenu_8cpp.html" target="_top" xlink:title=" ">
<polygon fill="white" stroke="#666666" points="322.75,-20 185.25,-20 185.25,0 322.75,0 322.75,-20"/>
<text text-anchor="middle" x="254" y="-6.5" font-family="Helvetica,sans-Serif" font-size="10.00">src/scenes/SceneMenu.cpp</text>
</a>
</g>
</g>
<!-- Node3&#45;&gt;Node5 -->
<g id="edge4" class="edge">
<title>Node3&#45;&gt;Node5</title>
<path fill="none" stroke="#63b8ff" d="M213.04,-100.48C216.54,-87.47 221.71,-70.43 228,-56 233.63,-43.1 242.05,-29.21 247.77,-20.33"/>
<polygon fill="#63b8ff" stroke="#63b8ff" points="209.68,-99.48 210.58,-110.04 216.46,-101.22 209.68,-99.48"/>
</g>
<!-- Node6 -->
<g id="node6" class="node">
<title>Node6</title>
<g id="a_node6"><a xlink:href="SceneMenu_8h.html" target="_top" xlink:title=" ">
<polygon fill="white" stroke="#666666" points="363.5,-76 236.5,-76 236.5,-56 363.5,-56 363.5,-76"/>
<text text-anchor="middle" x="300" y="-62.5" font-family="Helvetica,sans-Serif" font-size="10.00">src/scenes/SceneMenu.h</text>
</a>
</g>
</g>
<!-- Node3&#45;&gt;Node6 -->
<g id="edge5" class="edge">
<title>Node3&#45;&gt;Node6</title>
<path fill="none" stroke="#63b8ff" d="M233.88,-105.81C249.93,-96.39 270.04,-84.58 283.85,-76.48"/>
<polygon fill="#63b8ff" stroke="#63b8ff" points="232.18,-102.75 225.33,-110.83 235.73,-108.78 232.18,-102.75"/>
</g>
<!-- Node6&#45;&gt;Node5 -->
<g id="edge6" class="edge">
<title>Node6&#45;&gt;Node5</title>
<path fill="none" stroke="#63b8ff" d="M284.67,-47C277.05,-38.06 268.16,-27.62 261.92,-20.3"/>
<polygon fill="#63b8ff" stroke="#63b8ff" points="281.86,-49.1 291.01,-54.44 287.19,-44.56 281.86,-49.1"/>
</g>
</g>
</svg>
