<?xml version="1.0" encoding="UTF-8" standalone="no"?>
<!DOCTYPE svg PUBLIC "-//W3C//DTD SVG 1.1//EN"
 "http://www.w3.org/Graphics/SVG/1.1/DTD/svg11.dtd">
<!-- Generated by graphviz version 12.2.1 (20241206.2353)
 -->
<!-- Title: src/core/Actions.cpp Pages: 1 -->
<svg width="134pt" height="140pt"
 viewBox="0.00 0.00 134.25 140.00" xmlns="http://www.w3.org/2000/svg" xmlns:xlink="http://www.w3.org/1999/xlink">
<g id="graph0" class="graph" transform="scale(1 1) rotate(0) translate(4 136)">
<title>src/core/Actions.cpp</title>
<!-- Node1 -->
<g id="node1" class="node">
<title>Node1</title>
<g id="a_node1"><a xlink:title=" ">
<polygon fill="#999999" stroke="#666666" points="117.62,-132 11.62,-132 11.62,-112 117.62,-112 117.62,-132"/>
<text text-anchor="middle" x="64.62" y="-118.5" font-family="Helvetica,sans-Serif" font-size="10.00">src/core/Actions.cpp</text>
</a>
</g>
</g>
<!-- Node2 -->
<g id="node2" class="node">
<title>Node2</title>
<g id="a_node2"><a xlink:href="Actions_8h.html" target="_top" xlink:title=" ">
<polygon fill="white" stroke="#666666" points="57.25,-76 0,-76 0,-56 57.25,-56 57.25,-76"/>
<text text-anchor="middle" x="28.62" y="-62.5" font-family="Helvetica,sans-Serif" font-size="10.00">Actions.h</text>
</a>
</g>
</g>
<!-- Node1&#45;&gt;Node2 -->
<g id="edge1" class="edge">
<title>Node1&#45;&gt;Node2</title>
<path fill="none" stroke="#63b8ff" d="M58.35,-111.59C53.61,-104.47 46.93,-94.45 41.1,-85.72"/>
<polygon fill="#63b8ff" stroke="#63b8ff" points="44.12,-83.94 35.66,-77.56 38.3,-87.82 44.12,-83.94"/>
</g>
<!-- Node4 -->
<g id="node4" class="node">
<title>Node4</title>
<g id="a_node4"><a xlink:title=" ">
<polygon fill="#e0e0e0" stroke="#999999" points="126.25,-76 75,-76 75,-56 126.25,-56 126.25,-76"/>
<text text-anchor="middle" x="100.62" y="-62.5" font-family="Helvetica,sans-Serif" font-size="10.00">sstream</text>
</a>
</g>
</g>
<!-- Node1&#45;&gt;Node4 -->
<g id="edge3" class="edge">
<title>Node1&#45;&gt;Node4</title>
<path fill="none" stroke="#63b8ff" d="M70.9,-111.59C75.64,-104.47 82.32,-94.45 88.15,-85.72"/>
<polygon fill="#63b8ff" stroke="#63b8ff" points="90.95,-87.82 93.59,-77.56 85.13,-83.94 90.95,-87.82"/>
</g>
<!-- Node3 -->
<g id="node3" class="node">
<title>Node3</title>
<g id="a_node3"><a xlink:title=" ">
<polygon fill="#e0e0e0" stroke="#999999" points="48.62,-20 8.62,-20 8.62,0 48.62,0 48.62,-20"/>
<text text-anchor="middle" x="28.62" y="-6.5" font-family="Helvetica,sans-Serif" font-size="10.00">string</text>
</a>
</g>
</g>
<!-- Node2&#45;&gt;Node3 -->
<g id="edge2" class="edge">
<title>Node2&#45;&gt;Node3</title>
<path fill="none" stroke="#63b8ff" d="M28.62,-55.59C28.62,-49.01 28.62,-39.96 28.62,-31.73"/>
<polygon fill="#63b8ff" stroke="#63b8ff" points="32.13,-31.81 28.63,-21.81 25.13,-31.81 32.13,-31.81"/>
</g>
</g>
</svg>
