<?xml version="1.0" encoding="UTF-8" standalone="no"?>
<!DOCTYPE svg PUBLIC "-//W3C//DTD SVG 1.1//EN"
 "http://www.w3.org/Graphics/SVG/1.1/DTD/svg11.dtd">
<!-- Generated by graphviz version 12.2.1 (20241206.2353)
 -->
<!-- Title: basic_json::at Pages: 1 -->
<svg width="337pt" height="66pt"
 viewBox="0.00 0.00 337.25 66.00" xmlns="http://www.w3.org/2000/svg" xmlns:xlink="http://www.w3.org/1999/xlink">
<g id="graph0" class="graph" transform="scale(1 1) rotate(0) translate(4 62)">
<title>basic_json::at</title>
<!-- Node1 -->
<g id="node1" class="node">
<title>Node1</title>
<g id="a_node1"><a xlink:title="access specified array element with bounds checking">
<polygon fill="#999999" stroke="#666666" points="76.75,-39 0,-39 0,-19 76.75,-19 76.75,-39"/>
<text text-anchor="middle" x="38.38" y="-25.5" font-family="Helvetica,sans-Serif" font-size="10.00">basic_json::at</text>
</a>
</g>
</g>
<!-- Node2 -->
<g id="node2" class="node">
<title>Node2</title>
<g id="a_node2"><a xlink:href="namespacedetail.html#a266fb3d4bf633ad6c506434cc91164da" target="_top" xlink:title=" ">
<polygon fill="white" stroke="#666666" points="187.25,-39 112.75,-39 112.75,-19 187.25,-19 187.25,-39"/>
<text text-anchor="middle" x="150" y="-25.5" font-family="Helvetica,sans-Serif" font-size="10.00">detail::concat</text>
</a>
</g>
</g>
<!-- Node1&#45;&gt;Node2 -->
<g id="edge1" class="edge">
<title>Node1&#45;&gt;Node2</title>
<path fill="none" stroke="#63b8ff" d="M77.1,-29C84.76,-29 92.91,-29 100.87,-29"/>
<polygon fill="#63b8ff" stroke="#63b8ff" points="100.8,-32.5 110.8,-29 100.8,-25.5 100.8,-32.5"/>
</g>
<!-- Node3 -->
<g id="node3" class="node">
<title>Node3</title>
<g id="a_node3"><a xlink:href="namespacedetail.html#a89f967b745cf8df11ba9d59f93d97753" target="_top" xlink:title=" ">
<polygon fill="white" stroke="#666666" points="324,-58 228.5,-58 228.5,-38 324,-38 324,-58"/>
<text text-anchor="middle" x="276.25" y="-44.5" font-family="Helvetica,sans-Serif" font-size="10.00">detail::concat_into</text>
</a>
</g>
</g>
<!-- Node2&#45;&gt;Node3 -->
<g id="edge2" class="edge">
<title>Node2&#45;&gt;Node3</title>
<path fill="none" stroke="#63b8ff" d="M187.61,-34.6C196.86,-36.01 207.04,-37.57 217.07,-39.1"/>
<polygon fill="#63b8ff" stroke="#63b8ff" points="216.38,-42.54 226.79,-40.59 217.44,-35.62 216.38,-42.54"/>
</g>
<!-- Node4 -->
<g id="node4" class="node">
<title>Node4</title>
<g id="a_node4"><a xlink:href="namespacedetail.html#ac185140ed8c8fcc07a302a890b714b0d" target="_top" xlink:title=" ">
<polygon fill="white" stroke="#666666" points="329.25,-20 223.25,-20 223.25,0 329.25,0 329.25,-20"/>
<text text-anchor="middle" x="276.25" y="-6.5" font-family="Helvetica,sans-Serif" font-size="10.00">detail::concat_length</text>
</a>
</g>
</g>
<!-- Node2&#45;&gt;Node4 -->
<g id="edge3" class="edge">
<title>Node2&#45;&gt;Node4</title>
<path fill="none" stroke="#63b8ff" d="M187.61,-23.4C195.19,-22.24 203.38,-20.99 211.61,-19.73"/>
<polygon fill="#63b8ff" stroke="#63b8ff" points="211.94,-23.22 221.3,-18.25 210.88,-16.3 211.94,-23.22"/>
</g>
</g>
</svg>
