<?xml version="1.0" encoding="UTF-8" standalone="no"?>
<!DOCTYPE svg PUBLIC "-//W3C//DTD SVG 1.1//EN"
 "http://www.w3.org/Graphics/SVG/1.1/DTD/svg11.dtd">
<!-- Generated by graphviz version 12.2.1 (20241206.2353)
 -->
<!-- Title: detail::parse_error Pages: 1 -->
<svg width="102pt" height="323pt"
 viewBox="0.00 0.00 102.00 323.00" xmlns="http://www.w3.org/2000/svg" xmlns:xlink="http://www.w3.org/1999/xlink">
<g id="graph0" class="graph" transform="scale(1 1) rotate(0) translate(4 319)">
<title>detail::parse_error</title>
<!-- Node1 -->
<g id="node1" class="node">
<title>Node1</title>
<g id="a_node1"><a xlink:title="exception indicating a parse error">
<polygon fill="#999999" stroke="#666666" points="0,-0.5 0,-72.5 94,-72.5 94,-0.5 0,-0.5"/>
<text text-anchor="middle" x="47" y="-59" font-family="Helvetica,sans-Serif" font-size="10.00">detail::parse_error</text>
<polyline fill="none" stroke="#666666" points="0,-52.5 94,-52.5"/>
<text text-anchor="start" x="8" y="-39" font-family="Helvetica,sans-Serif" font-size="10.00">+ byte</text>
<polyline fill="none" stroke="#666666" points="0,-32.5 94,-32.5"/>
<text text-anchor="start" x="8" y="-19" font-family="Helvetica,sans-Serif" font-size="10.00">+ create()</text>
<text text-anchor="start" x="8" y="-7" font-family="Helvetica,sans-Serif" font-size="10.00">+ create()</text>
</a>
</g>
</g>
<!-- Node2 -->
<g id="node2" class="node">
<title>Node2</title>
<g id="a_node2"><a xlink:href="classdetail_1_1exception.html" target="_top" xlink:title="general exception of the basic_json class">
<polygon fill="white" stroke="#666666" points="3.38,-109.5 3.38,-217.5 90.62,-217.5 90.62,-109.5 3.38,-109.5"/>
<text text-anchor="middle" x="47" y="-204" font-family="Helvetica,sans-Serif" font-size="10.00">detail::exception</text>
<polyline fill="none" stroke="#666666" points="3.38,-197.5 90.62,-197.5"/>
<text text-anchor="start" x="11.38" y="-184" font-family="Helvetica,sans-Serif" font-size="10.00">+ id</text>
<polyline fill="none" stroke="#666666" points="3.38,-177.5 90.62,-177.5"/>
<text text-anchor="start" x="11.38" y="-164" font-family="Helvetica,sans-Serif" font-size="10.00">+ what()</text>
<text text-anchor="start" x="11.38" y="-152" font-family="Helvetica,sans-Serif" font-size="10.00"># exception()</text>
<text text-anchor="start" x="11.38" y="-140" font-family="Helvetica,sans-Serif" font-size="10.00"># name()</text>
<text text-anchor="start" x="11.38" y="-128" font-family="Helvetica,sans-Serif" font-size="10.00"># diagnostics()</text>
<text text-anchor="start" x="11.38" y="-116" font-family="Helvetica,sans-Serif" font-size="10.00"># diagnostics()</text>
</a>
</g>
</g>
<!-- Node2&#45;&gt;Node1 -->
<g id="edge1" class="edge">
<title>Node2&#45;&gt;Node1</title>
<path fill="none" stroke="#63b8ff" d="M47,-97.89C47,-89.32 47,-80.81 47,-72.99"/>
<polygon fill="none" stroke="#63b8ff" points="43.5,-97.61 47,-107.61 50.5,-97.61 43.5,-97.61"/>
</g>
<!-- Node3 -->
<g id="node3" class="node">
<title>Node3</title>
<g id="a_node3"><a xlink:title=" ">
<polygon fill="white" stroke="#666666" points="8.25,-254.5 8.25,-314.5 85.75,-314.5 85.75,-254.5 8.25,-254.5"/>
<text text-anchor="middle" x="47" y="-301" font-family="Helvetica,sans-Serif" font-size="10.00">std::exception</text>
<polyline fill="none" stroke="#666666" points="8.25,-294.5 85.75,-294.5"/>
<text text-anchor="middle" x="47" y="-281" font-family="Helvetica,sans-Serif" font-size="10.00"> </text>
<polyline fill="none" stroke="#666666" points="8.25,-274.5 85.75,-274.5"/>
<text text-anchor="middle" x="47" y="-261" font-family="Helvetica,sans-Serif" font-size="10.00"> </text>
</a>
</g>
</g>
<!-- Node3&#45;&gt;Node2 -->
<g id="edge2" class="edge">
<title>Node3&#45;&gt;Node2</title>
<path fill="none" stroke="#63b8ff" d="M47,-242.72C47,-234.66 47,-226.09 47,-217.69"/>
<polygon fill="none" stroke="#63b8ff" points="43.5,-242.57 47,-252.57 50.5,-242.57 43.5,-242.57"/>
</g>
</g>
</svg>
