<?xml version="1.0" encoding="UTF-8" standalone="no"?>
<!DOCTYPE svg PUBLIC "-//W3C//DTD SVG 1.1//EN"
 "http://www.w3.org/Graphics/SVG/1.1/DTD/svg11.dtd">
<!-- Generated by graphviz version 12.2.1 (20241206.2353)
 -->
<!-- Title: StageManager::onBuildingCaptured Pages: 1 -->
<svg width="1045pt" height="90pt"
 viewBox="0.00 0.00 1044.50 90.00" xmlns="http://www.w3.org/2000/svg" xmlns:xlink="http://www.w3.org/1999/xlink">
<g id="graph0" class="graph" transform="scale(1 1) rotate(0) translate(4 86)">
<title>StageManager::onBuildingCaptured</title>
<!-- Node1 -->
<g id="node1" class="node">
<title>Node1</title>
<g id="a_node1"><a xlink:title=" ">
<polygon fill="#999999" stroke="#666666" points="130,-57 0,-57 0,-25 130,-25 130,-57"/>
<text text-anchor="start" x="8" y="-43.5" font-family="Helvetica,sans-Serif" font-size="10.00">StageManager::onBuilding</text>
<text text-anchor="middle" x="65" y="-31.5" font-family="Helvetica,sans-Serif" font-size="10.00">Captured</text>
</a>
</g>
</g>
<!-- Node2 -->
<g id="node2" class="node">
<title>Node2</title>
<g id="a_node2"><a xlink:href="classStageManager.html#aa50a207b4bb002e91b994673d7110be7" target="_top" xlink:title=" ">
<polygon fill="white" stroke="#666666" points="338,-57 166,-57 166,-25 338,-25 338,-57"/>
<text text-anchor="start" x="174" y="-43.5" font-family="Helvetica,sans-Serif" font-size="10.00">StageManager::incrementControlled</text>
<text text-anchor="middle" x="252" y="-31.5" font-family="Helvetica,sans-Serif" font-size="10.00">Buildings</text>
</a>
</g>
</g>
<!-- Node1&#45;&gt;Node2 -->
<g id="edge1" class="edge">
<title>Node1&#45;&gt;Node2</title>
<path fill="none" stroke="#63b8ff" d="M130.44,-41C138.17,-41 146.18,-41 154.24,-41"/>
<polygon fill="#63b8ff" stroke="#63b8ff" points="154.12,-44.5 164.12,-41 154.12,-37.5 154.12,-44.5"/>
</g>
<!-- Node3 -->
<g id="node3" class="node">
<title>Node3</title>
<g id="a_node3"><a xlink:href="classStageManager.html#a022eba9080a05e9803c94017c30e62b9" target="_top" xlink:title=" ">
<polygon fill="white" stroke="#666666" points="513.75,-57 374,-57 374,-25 513.75,-25 513.75,-57"/>
<text text-anchor="start" x="382" y="-43.5" font-family="Helvetica,sans-Serif" font-size="10.00">StageManager::updateStage</text>
<text text-anchor="middle" x="443.88" y="-31.5" font-family="Helvetica,sans-Serif" font-size="10.00">Progress</text>
</a>
</g>
</g>
<!-- Node2&#45;&gt;Node3 -->
<g id="edge2" class="edge">
<title>Node2&#45;&gt;Node3</title>
<path fill="none" stroke="#63b8ff" d="M338.49,-41C346.43,-41 354.46,-41 362.35,-41"/>
<polygon fill="#63b8ff" stroke="#63b8ff" points="362.27,-44.5 372.27,-41 362.27,-37.5 362.27,-44.5"/>
</g>
<!-- Node4 -->
<g id="node4" class="node">
<title>Node4</title>
<g id="a_node4"><a xlink:href="classStageManager.html#afb140761eee14fdbb97386d747bf2be9" target="_top" xlink:title=" ">
<polygon fill="white" stroke="#666666" points="703,-82 549.75,-82 549.75,-50 703,-50 703,-82"/>
<text text-anchor="start" x="557.75" y="-68.5" font-family="Helvetica,sans-Serif" font-size="10.00">StageManager::advanceToNext</text>
<text text-anchor="middle" x="626.38" y="-56.5" font-family="Helvetica,sans-Serif" font-size="10.00">Stage</text>
</a>
</g>
</g>
<!-- Node3&#45;&gt;Node4 -->
<g id="edge3" class="edge">
<title>Node3&#45;&gt;Node4</title>
<path fill="none" stroke="#63b8ff" d="M514.14,-50.59C521.98,-51.68 530.05,-52.8 538.08,-53.91"/>
<polygon fill="#63b8ff" stroke="#63b8ff" points="537.5,-57.36 547.88,-55.27 538.46,-50.43 537.5,-57.36"/>
</g>
<!-- Node7 -->
<g id="node7" class="node">
<title>Node7</title>
<g id="a_node7"><a xlink:href="classStageManager.html#aaa19b5d58ad75bc7ba9e5d44dd406e0d" target="_top" xlink:title=" ">
<polygon fill="white" stroke="#666666" points="694.75,-32 558,-32 558,0 694.75,0 694.75,-32"/>
<text text-anchor="start" x="566" y="-18.5" font-family="Helvetica,sans-Serif" font-size="10.00">StageManager::checkStage</text>
<text text-anchor="middle" x="626.38" y="-6.5" font-family="Helvetica,sans-Serif" font-size="10.00">Completion</text>
</a>
</g>
</g>
<!-- Node3&#45;&gt;Node7 -->
<g id="edge6" class="edge">
<title>Node3&#45;&gt;Node7</title>
<path fill="none" stroke="#63b8ff" d="M514.14,-31.41C524.77,-29.93 535.81,-28.41 546.62,-26.91"/>
<polygon fill="#63b8ff" stroke="#63b8ff" points="546.85,-30.41 556.28,-25.57 545.89,-23.48 546.85,-30.41"/>
</g>
<!-- Node5 -->
<g id="node5" class="node">
<title>Node5</title>
<g id="a_node5"><a xlink:href="classStageManager.html#aa791077a0a66151f565eb33fbe43a7bd" target="_top" xlink:title=" ">
<polygon fill="white" stroke="#666666" points="869.75,-82 739,-82 739,-50 869.75,-50 869.75,-82"/>
<text text-anchor="start" x="747" y="-68.5" font-family="Helvetica,sans-Serif" font-size="10.00">StageManager::getCurrent</text>
<text text-anchor="middle" x="804.38" y="-56.5" font-family="Helvetica,sans-Serif" font-size="10.00">StageName</text>
</a>
</g>
</g>
<!-- Node4&#45;&gt;Node5 -->
<g id="edge4" class="edge">
<title>Node4&#45;&gt;Node5</title>
<path fill="none" stroke="#63b8ff" d="M703.29,-66C711.23,-66 719.3,-66 727.24,-66"/>
<polygon fill="#63b8ff" stroke="#63b8ff" points="727.24,-69.5 737.24,-66 727.24,-62.5 727.24,-69.5"/>
</g>
<!-- Node6 -->
<g id="node6" class="node">
<title>Node6</title>
<g id="a_node6"><a xlink:href="classStageManager.html#ae2213154056ba26e326de04c69a962d8" target="_top" xlink:title=" ">
<polygon fill="white" stroke="#666666" points="1036.5,-82 905.75,-82 905.75,-50 1036.5,-50 1036.5,-82"/>
<text text-anchor="start" x="913.75" y="-68.5" font-family="Helvetica,sans-Serif" font-size="10.00">StageManager::getCurrent</text>
<text text-anchor="middle" x="971.12" y="-56.5" font-family="Helvetica,sans-Serif" font-size="10.00">StageData</text>
</a>
</g>
</g>
<!-- Node5&#45;&gt;Node6 -->
<g id="edge5" class="edge">
<title>Node5&#45;&gt;Node6</title>
<path fill="none" stroke="#63b8ff" d="M870.02,-66C877.92,-66 886.05,-66 894.1,-66"/>
<polygon fill="#63b8ff" stroke="#63b8ff" points="893.89,-69.5 903.89,-66 893.89,-62.5 893.89,-69.5"/>
</g>
</g>
</svg>
