<?xml version="1.0" encoding="UTF-8" standalone="no"?>
<!DOCTYPE svg PUBLIC "-//W3C//DTD SVG 1.1//EN"
 "http://www.w3.org/Graphics/SVG/1.1/DTD/svg11.dtd">
<!-- Generated by graphviz version 12.2.1 (20241206.2353)
 -->
<!-- Title: detail::exception Pages: 1 -->
<svg width="565pt" height="323pt"
 viewBox="0.00 0.00 564.50 323.00" xmlns="http://www.w3.org/2000/svg" xmlns:xlink="http://www.w3.org/1999/xlink">
<g id="graph0" class="graph" transform="scale(1 1) rotate(0) translate(4 319)">
<title>detail::exception</title>
<!-- Node1 -->
<g id="node1" class="node">
<title>Node1</title>
<g id="a_node1"><a xlink:title="general exception of the basic_json class">
<polygon fill="#999999" stroke="#666666" points="243.5,-109.5 243.5,-217.5 330.75,-217.5 330.75,-109.5 243.5,-109.5"/>
<text text-anchor="middle" x="287.12" y="-204" font-family="Helvetica,sans-Serif" font-size="10.00">detail::exception</text>
<polyline fill="none" stroke="#666666" points="243.5,-197.5 330.75,-197.5"/>
<text text-anchor="start" x="251.5" y="-184" font-family="Helvetica,sans-Serif" font-size="10.00">+ id</text>
<polyline fill="none" stroke="#666666" points="243.5,-177.5 330.75,-177.5"/>
<text text-anchor="start" x="251.5" y="-164" font-family="Helvetica,sans-Serif" font-size="10.00">+ what()</text>
<text text-anchor="start" x="251.5" y="-152" font-family="Helvetica,sans-Serif" font-size="10.00"># exception()</text>
<text text-anchor="start" x="251.5" y="-140" font-family="Helvetica,sans-Serif" font-size="10.00"># name()</text>
<text text-anchor="start" x="251.5" y="-128" font-family="Helvetica,sans-Serif" font-size="10.00"># diagnostics()</text>
<text text-anchor="start" x="251.5" y="-116" font-family="Helvetica,sans-Serif" font-size="10.00"># diagnostics()</text>
</a>
</g>
</g>
<!-- Node3 -->
<g id="node3" class="node">
<title>Node3</title>
<g id="a_node3"><a xlink:href="classdetail_1_1invalid__iterator.html" target="_top" xlink:title="exception indicating errors with iterators">
<polygon fill="white" stroke="#666666" points="0,-6.5 0,-66.5 108.25,-66.5 108.25,-6.5 0,-6.5"/>
<text text-anchor="middle" x="54.12" y="-53" font-family="Helvetica,sans-Serif" font-size="10.00">detail::invalid_iterator</text>
<polyline fill="none" stroke="#666666" points="0,-46.5 108.25,-46.5"/>
<text text-anchor="middle" x="54.12" y="-33" font-family="Helvetica,sans-Serif" font-size="10.00"> </text>
<polyline fill="none" stroke="#666666" points="0,-26.5 108.25,-26.5"/>
<text text-anchor="start" x="8" y="-13" font-family="Helvetica,sans-Serif" font-size="10.00">+ create()</text>
</a>
</g>
</g>
<!-- Node1&#45;&gt;Node3 -->
<g id="edge2" class="edge">
<title>Node1&#45;&gt;Node3</title>
<path fill="none" stroke="#63b8ff" d="M233.21,-134.62C199.68,-117.15 155.75,-94.04 117.12,-73 113.49,-71.02 109.74,-68.96 105.97,-66.87"/>
<polygon fill="none" stroke="#63b8ff" points="231.44,-137.64 241.92,-139.15 234.67,-131.43 231.44,-137.64"/>
</g>
<!-- Node4 -->
<g id="node4" class="node">
<title>Node4</title>
<g id="a_node4"><a xlink:href="classdetail_1_1other__error.html" target="_top" xlink:title="exception indicating other library errors">
<polygon fill="white" stroke="#666666" points="126.25,-6.5 126.25,-66.5 218,-66.5 218,-6.5 126.25,-6.5"/>
<text text-anchor="middle" x="172.12" y="-53" font-family="Helvetica,sans-Serif" font-size="10.00">detail::other_error</text>
<polyline fill="none" stroke="#666666" points="126.25,-46.5 218,-46.5"/>
<text text-anchor="middle" x="172.12" y="-33" font-family="Helvetica,sans-Serif" font-size="10.00"> </text>
<polyline fill="none" stroke="#666666" points="126.25,-26.5 218,-26.5"/>
<text text-anchor="start" x="134.25" y="-13" font-family="Helvetica,sans-Serif" font-size="10.00">+ create()</text>
</a>
</g>
</g>
<!-- Node1&#45;&gt;Node4 -->
<g id="edge3" class="edge">
<title>Node1&#45;&gt;Node4</title>
<path fill="none" stroke="#63b8ff" d="M235.57,-106.46C223,-92.8 210.06,-78.73 199.16,-66.89"/>
<polygon fill="none" stroke="#63b8ff" points="232.95,-108.78 242.3,-113.77 238.1,-104.04 232.95,-108.78"/>
</g>
<!-- Node5 -->
<g id="node5" class="node">
<title>Node5</title>
<g id="a_node5"><a xlink:href="classdetail_1_1out__of__range.html" target="_top" xlink:title="exception indicating access out of the defined range">
<polygon fill="white" stroke="#666666" points="236.38,-6.5 236.38,-66.5 337.88,-66.5 337.88,-6.5 236.38,-6.5"/>
<text text-anchor="middle" x="287.12" y="-53" font-family="Helvetica,sans-Serif" font-size="10.00">detail::out_of_range</text>
<polyline fill="none" stroke="#666666" points="236.38,-46.5 337.88,-46.5"/>
<text text-anchor="middle" x="287.12" y="-33" font-family="Helvetica,sans-Serif" font-size="10.00"> </text>
<polyline fill="none" stroke="#666666" points="236.38,-26.5 337.88,-26.5"/>
<text text-anchor="start" x="244.38" y="-13" font-family="Helvetica,sans-Serif" font-size="10.00">+ create()</text>
</a>
</g>
</g>
<!-- Node1&#45;&gt;Node5 -->
<g id="edge4" class="edge">
<title>Node1&#45;&gt;Node5</title>
<path fill="none" stroke="#63b8ff" d="M287.12,-97.86C287.12,-87.03 287.12,-76.28 287.12,-66.92"/>
<polygon fill="none" stroke="#63b8ff" points="283.63,-97.61 287.13,-107.61 290.63,-97.61 283.63,-97.61"/>
</g>
<!-- Node6 -->
<g id="node6" class="node">
<title>Node6</title>
<g id="a_node6"><a xlink:href="classdetail_1_1parse__error.html" target="_top" xlink:title="exception indicating a parse error">
<polygon fill="white" stroke="#666666" points="356.12,-0.5 356.12,-72.5 450.12,-72.5 450.12,-0.5 356.12,-0.5"/>
<text text-anchor="middle" x="403.12" y="-59" font-family="Helvetica,sans-Serif" font-size="10.00">detail::parse_error</text>
<polyline fill="none" stroke="#666666" points="356.12,-52.5 450.12,-52.5"/>
<text text-anchor="start" x="364.12" y="-39" font-family="Helvetica,sans-Serif" font-size="10.00">+ byte</text>
<polyline fill="none" stroke="#666666" points="356.12,-32.5 450.12,-32.5"/>
<text text-anchor="start" x="364.12" y="-19" font-family="Helvetica,sans-Serif" font-size="10.00">+ create()</text>
<text text-anchor="start" x="364.12" y="-7" font-family="Helvetica,sans-Serif" font-size="10.00">+ create()</text>
</a>
</g>
</g>
<!-- Node1&#45;&gt;Node6 -->
<g id="edge5" class="edge">
<title>Node1&#45;&gt;Node6</title>
<path fill="none" stroke="#63b8ff" d="M338.74,-106.88C349.51,-95.28 360.57,-83.36 370.42,-72.74"/>
<polygon fill="none" stroke="#63b8ff" points="336.25,-104.42 332.01,-114.13 341.38,-109.18 336.25,-104.42"/>
</g>
<!-- Node7 -->
<g id="node7" class="node">
<title>Node7</title>
<g id="a_node7"><a xlink:href="classdetail_1_1type__error.html" target="_top" xlink:title="exception indicating executing a member function with a wrong type">
<polygon fill="white" stroke="#666666" points="467.75,-6.5 467.75,-66.5 556.5,-66.5 556.5,-6.5 467.75,-6.5"/>
<text text-anchor="middle" x="512.12" y="-53" font-family="Helvetica,sans-Serif" font-size="10.00">detail::type_error</text>
<polyline fill="none" stroke="#666666" points="467.75,-46.5 556.5,-46.5"/>
<text text-anchor="middle" x="512.12" y="-33" font-family="Helvetica,sans-Serif" font-size="10.00"> </text>
<polyline fill="none" stroke="#666666" points="467.75,-26.5 556.5,-26.5"/>
<text text-anchor="start" x="475.75" y="-13" font-family="Helvetica,sans-Serif" font-size="10.00">+ create()</text>
</a>
</g>
</g>
<!-- Node1&#45;&gt;Node7 -->
<g id="edge6" class="edge">
<title>Node1&#45;&gt;Node7</title>
<path fill="none" stroke="#63b8ff" d="M341.25,-136.26C375.54,-119.17 420.55,-95.86 459.12,-73 462.36,-71.08 465.68,-69.04 468.99,-66.96"/>
<polygon fill="none" stroke="#63b8ff" points="339.72,-133.11 332.32,-140.69 342.84,-139.38 339.72,-133.11"/>
</g>
<!-- Node2 -->
<g id="node2" class="node">
<title>Node2</title>
<g id="a_node2"><a xlink:title=" ">
<polygon fill="white" stroke="#666666" points="248.38,-254.5 248.38,-314.5 325.88,-314.5 325.88,-254.5 248.38,-254.5"/>
<text text-anchor="middle" x="287.12" y="-301" font-family="Helvetica,sans-Serif" font-size="10.00">std::exception</text>
<polyline fill="none" stroke="#666666" points="248.38,-294.5 325.88,-294.5"/>
<text text-anchor="middle" x="287.12" y="-281" font-family="Helvetica,sans-Serif" font-size="10.00"> </text>
<polyline fill="none" stroke="#666666" points="248.38,-274.5 325.88,-274.5"/>
<text text-anchor="middle" x="287.12" y="-261" font-family="Helvetica,sans-Serif" font-size="10.00"> </text>
</a>
</g>
</g>
<!-- Node2&#45;&gt;Node1 -->
<g id="edge1" class="edge">
<title>Node2&#45;&gt;Node1</title>
<path fill="none" stroke="#63b8ff" d="M287.12,-242.72C287.12,-234.66 287.12,-226.09 287.12,-217.69"/>
<polygon fill="none" stroke="#63b8ff" points="283.63,-242.57 287.13,-252.57 290.63,-242.57 283.63,-242.57"/>
</g>
</g>
</svg>
