<?xml version="1.0" encoding="UTF-8" standalone="no"?>
<!DOCTYPE svg PUBLIC "-//W3C//DTD SVG 1.1//EN"
 "http://www.w3.org/Graphics/SVG/1.1/DTD/svg11.dtd">
<!-- Generated by graphviz version 12.2.1 (20241206.2353)
 -->
<!-- Title: detail::parse_error::create Pages: 1 -->
<svg width="242pt" height="90pt"
 viewBox="0.00 0.00 241.75 90.00" xmlns="http://www.w3.org/2000/svg" xmlns:xlink="http://www.w3.org/1999/xlink">
<g id="graph0" class="graph" transform="scale(1 1) rotate(0) translate(4 86)">
<title>detail::parse_error::create</title>
<!-- Node1 -->
<g id="node1" class="node">
<title>Node1</title>
<g id="a_node1"><a xlink:title="create a parse error exception">
<polygon fill="#999999" stroke="#666666" points="233.75,-51 139.75,-51 139.75,-19 233.75,-19 233.75,-51"/>
<text text-anchor="start" x="147.75" y="-37.5" font-family="Helvetica,sans-Serif" font-size="10.00">detail::parse_error</text>
<text text-anchor="middle" x="186.75" y="-25.5" font-family="Helvetica,sans-Serif" font-size="10.00">::create</text>
</a>
</g>
</g>
<!-- Node2 -->
<g id="node2" class="node">
<title>Node2</title>
<g id="a_node2"><a xlink:href="classdetail_1_1wide__string__input__adapter.html#a12c464bdf348096f8ac250fb8f415a42" target="_top" xlink:title=" ">
<polygon fill="white" stroke="#666666" points="101.5,-82 2.25,-82 2.25,-38 101.5,-38 101.5,-82"/>
<text text-anchor="start" x="10.25" y="-68.5" font-family="Helvetica,sans-Serif" font-size="10.00">detail::wide_string</text>
<text text-anchor="start" x="10.25" y="-56.5" font-family="Helvetica,sans-Serif" font-size="10.00">_input_adapter::get</text>
<text text-anchor="middle" x="51.88" y="-44.5" font-family="Helvetica,sans-Serif" font-size="10.00">_elements</text>
</a>
</g>
</g>
<!-- Node1&#45;&gt;Node2 -->
<g id="edge1" class="edge">
<title>Node1&#45;&gt;Node2</title>
<path fill="none" stroke="#63b8ff" d="M127.97,-45.87C119.25,-47.51 110.32,-49.19 101.8,-50.79"/>
<polygon fill="#63b8ff" stroke="#63b8ff" points="128.61,-49.31 137.79,-44.02 127.31,-42.43 128.61,-49.31"/>
</g>
<!-- Node3 -->
<g id="node3" class="node">
<title>Node3</title>
<g id="a_node3"><a xlink:href="namespacedetail.html#aa7b34bd54868366a47c9adad778867bc" target="_top" xlink:title=" ">
<polygon fill="white" stroke="#666666" points="103.75,-20 0,-20 0,0 103.75,0 103.75,-20"/>
<text text-anchor="middle" x="51.88" y="-6.5" font-family="Helvetica,sans-Serif" font-size="10.00">detail::input_adapter</text>
</a>
</g>
</g>
<!-- Node1&#45;&gt;Node3 -->
<g id="edge2" class="edge">
<title>Node1&#45;&gt;Node3</title>
<path fill="none" stroke="#63b8ff" d="M128.13,-24.16C120.13,-22.65 111.95,-21.12 104.08,-19.63"/>
<polygon fill="#63b8ff" stroke="#63b8ff" points="127.31,-27.57 137.79,-25.98 128.61,-20.69 127.31,-27.57"/>
</g>
</g>
</svg>
