<?xml version="1.0" encoding="UTF-8" standalone="no"?>
<!DOCTYPE svg PUBLIC "-//W3C//DTD SVG 1.1//EN"
 "http://www.w3.org/Graphics/SVG/1.1/DTD/svg11.dtd">
<!-- Generated by graphviz version 12.2.1 (20241206.2353)
 -->
<!-- Title: json_pointer::pop_back Pages: 1 -->
<svg width="418pt" height="78pt"
 viewBox="0.00 0.00 417.50 78.00" xmlns="http://www.w3.org/2000/svg" xmlns:xlink="http://www.w3.org/1999/xlink">
<g id="graph0" class="graph" transform="scale(1 1) rotate(0) translate(4 74)">
<title>json_pointer::pop_back</title>
<!-- Node1 -->
<g id="node1" class="node">
<title>Node1</title>
<g id="a_node1"><a xlink:title="remove last reference token">
<polygon fill="#999999" stroke="#666666" points="409.5,-42 293,-42 293,-22 409.5,-22 409.5,-42"/>
<text text-anchor="middle" x="351.25" y="-28.5" font-family="Helvetica,sans-Serif" font-size="10.00">json_pointer::pop_back</text>
</a>
</g>
</g>
<!-- Node2 -->
<g id="node2" class="node">
<title>Node2</title>
<g id="a_node2"><a xlink:href="classjson__pointer.html#aa03c0c1206e171342d27a4583258858b" target="_top" xlink:title="returns the parent of this JSON pointer">
<polygon fill="white" stroke="#666666" points="243.5,-70 142,-70 142,-38 243.5,-38 243.5,-70"/>
<text text-anchor="start" x="150" y="-56.5" font-family="Helvetica,sans-Serif" font-size="10.00">json_pointer::parent</text>
<text text-anchor="middle" x="192.75" y="-44.5" font-family="Helvetica,sans-Serif" font-size="10.00">_pointer</text>
</a>
</g>
</g>
<!-- Node1&#45;&gt;Node2 -->
<g id="edge1" class="edge">
<title>Node1&#45;&gt;Node2</title>
<path fill="none" stroke="#63b8ff" d="M281.79,-41.62C269.05,-43.41 255.96,-45.25 243.9,-46.95"/>
<polygon fill="#63b8ff" stroke="#63b8ff" points="281.95,-45.14 291.37,-40.28 280.98,-38.2 281.95,-45.14"/>
</g>
<!-- Node3 -->
<g id="node3" class="node">
<title>Node3</title>
<g id="a_node3"><a xlink:href="classbasic__json.html#a693812b31e106dec9166e93d8f6dd7d7" target="_top" xlink:title="applies a JSON patch in&#45;place without copying the object">
<polygon fill="white" stroke="#666666" points="257,-20 128.5,-20 128.5,0 257,0 257,-20"/>
<text text-anchor="middle" x="192.75" y="-6.5" font-family="Helvetica,sans-Serif" font-size="10.00">basic_json::patch_inplace</text>
</a>
</g>
</g>
<!-- Node1&#45;&gt;Node3 -->
<g id="edge2" class="edge">
<title>Node1&#45;&gt;Node3</title>
<path fill="none" stroke="#63b8ff" d="M281.63,-22.35C273.6,-21.23 265.43,-20.08 257.47,-18.96"/>
<polygon fill="#63b8ff" stroke="#63b8ff" points="280.98,-25.8 291.37,-23.72 281.95,-18.86 280.98,-25.8"/>
</g>
<!-- Node4 -->
<g id="node4" class="node">
<title>Node4</title>
<g id="a_node4"><a xlink:href="classbasic__json.html#a145a004c0a2fa5be84b260ecc98ab5d9" target="_top" xlink:title="applies a JSON patch to a copy of the current object">
<polygon fill="white" stroke="#666666" points="92.5,-20 0,-20 0,0 92.5,0 92.5,-20"/>
<text text-anchor="middle" x="46.25" y="-6.5" font-family="Helvetica,sans-Serif" font-size="10.00">basic_json::patch</text>
</a>
</g>
</g>
<!-- Node3&#45;&gt;Node4 -->
<g id="edge3" class="edge">
<title>Node3&#45;&gt;Node4</title>
<path fill="none" stroke="#63b8ff" d="M117.08,-10C108.79,-10 100.55,-10 92.78,-10"/>
<polygon fill="#63b8ff" stroke="#63b8ff" points="116.86,-13.5 126.86,-10 116.86,-6.5 116.86,-13.5"/>
</g>
</g>
</svg>
