<?xml version="1.0" encoding="UTF-8" standalone="no"?>
<!DOCTYPE svg PUBLIC "-//W3C//DTD SVG 1.1//EN"
 "http://www.w3.org/Graphics/SVG/1.1/DTD/svg11.dtd">
<!-- Generated by graphviz version 12.2.1 (20241206.2353)
 -->
<!-- Title: GameEngine::run Pages: 1 -->
<svg width="258pt" height="66pt"
 viewBox="0.00 0.00 257.50 66.00" xmlns="http://www.w3.org/2000/svg" xmlns:xlink="http://www.w3.org/1999/xlink">
<g id="graph0" class="graph" transform="scale(1 1) rotate(0) translate(4 62)">
<title>GameEngine::run</title>
<!-- Node1 -->
<g id="node1" class="node">
<title>Node1</title>
<g id="a_node1"><a xlink:title=" ">
<polygon fill="#999999" stroke="#666666" points="91.75,-39 0,-39 0,-19 91.75,-19 91.75,-39"/>
<text text-anchor="middle" x="45.88" y="-25.5" font-family="Helvetica,sans-Serif" font-size="10.00">GameEngine::run</text>
</a>
</g>
</g>
<!-- Node2 -->
<g id="node2" class="node">
<title>Node2</title>
<g id="a_node2"><a xlink:href="classGameEngine.html#ac7fe66907626424cd391f7b4692ba68e" target="_top" xlink:title=" ">
<polygon fill="white" stroke="#666666" points="249.5,-58 127.75,-58 127.75,-38 249.5,-38 249.5,-58"/>
<text text-anchor="middle" x="188.62" y="-44.5" font-family="Helvetica,sans-Serif" font-size="10.00">GameEngine::isRunning</text>
</a>
</g>
</g>
<!-- Node1&#45;&gt;Node2 -->
<g id="edge1" class="edge">
<title>Node1&#45;&gt;Node2</title>
<path fill="none" stroke="#63b8ff" d="M92.18,-35.12C99.78,-36.14 107.82,-37.23 115.88,-38.32"/>
<polygon fill="#63b8ff" stroke="#63b8ff" points="115.37,-41.78 125.75,-39.65 116.31,-34.84 115.37,-41.78"/>
</g>
<!-- Node3 -->
<g id="node3" class="node">
<title>Node3</title>
<g id="a_node3"><a xlink:href="classGameEngine.html#a28f41c8e2ee04b818b7458fd75d02e63" target="_top" xlink:title=" ">
<polygon fill="white" stroke="#666666" points="246.12,-20 131.12,-20 131.12,0 246.12,0 246.12,-20"/>
<text text-anchor="middle" x="188.62" y="-6.5" font-family="Helvetica,sans-Serif" font-size="10.00">GameEngine::sRender</text>
</a>
</g>
</g>
<!-- Node1&#45;&gt;Node3 -->
<g id="edge2" class="edge">
<title>Node1&#45;&gt;Node3</title>
<path fill="none" stroke="#63b8ff" d="M92.18,-22.88C100.93,-21.7 110.26,-20.44 119.54,-19.19"/>
<polygon fill="#63b8ff" stroke="#63b8ff" points="119.85,-22.68 129.29,-17.87 118.92,-15.74 119.85,-22.68"/>
</g>
</g>
</svg>
