<?xml version="1.0" encoding="UTF-8" standalone="no"?>
<!DOCTYPE svg PUBLIC "-//W3C//DTD SVG 1.1//EN"
 "http://www.w3.org/Graphics/SVG/1.1/DTD/svg11.dtd">
<!-- Generated by graphviz version 12.2.1 (20241206.2353)
 -->
<!-- Title: SceneCombat::update Pages: 1 -->
<svg width="501pt" height="116pt"
 viewBox="0.00 0.00 500.75 116.00" xmlns="http://www.w3.org/2000/svg" xmlns:xlink="http://www.w3.org/1999/xlink">
<g id="graph0" class="graph" transform="scale(1 1) rotate(0) translate(4 112)">
<title>SceneCombat::update</title>
<!-- Node1 -->
<g id="node1" class="node">
<title>Node1</title>
<g id="a_node1"><a xlink:title=" ">
<polygon fill="#999999" stroke="#666666" points="113.5,-70 0,-70 0,-50 113.5,-50 113.5,-70"/>
<text text-anchor="middle" x="56.75" y="-56.5" font-family="Helvetica,sans-Serif" font-size="10.00">SceneCombat::update</text>
</a>
</g>
</g>
<!-- Node2 -->
<g id="node2" class="node">
<title>Node2</title>
<g id="a_node2"><a xlink:href="classSceneCombat.html#aa06cefcde7733735ed69989f0eac95fb" target="_top" xlink:title=" ">
<polygon fill="white" stroke="#666666" points="305,-70 149.5,-70 149.5,-50 305,-50 305,-70"/>
<text text-anchor="middle" x="227.25" y="-56.5" font-family="Helvetica,sans-Serif" font-size="10.00">SceneCombat::sCombatUpdate</text>
</a>
</g>
</g>
<!-- Node1&#45;&gt;Node2 -->
<g id="edge1" class="edge">
<title>Node1&#45;&gt;Node2</title>
<path fill="none" stroke="#63b8ff" d="M113.86,-60C121.54,-60 129.57,-60 137.65,-60"/>
<polygon fill="#63b8ff" stroke="#63b8ff" points="137.57,-63.5 147.57,-60 137.57,-56.5 137.57,-63.5"/>
</g>
<!-- Node3 -->
<g id="node3" class="node">
<title>Node3</title>
<g id="a_node3"><a xlink:href="classSceneCombat.html#a465c5aa967a785e6ecaf11b57f865de5" target="_top" xlink:title=" ">
<polygon fill="white" stroke="#666666" points="492.38,-108 341.38,-108 341.38,-88 492.38,-88 492.38,-108"/>
<text text-anchor="middle" x="416.88" y="-94.5" font-family="Helvetica,sans-Serif" font-size="10.00">SceneCombat::sApplyDamage</text>
</a>
</g>
</g>
<!-- Node2&#45;&gt;Node3 -->
<g id="edge2" class="edge">
<title>Node2&#45;&gt;Node3</title>
<path fill="none" stroke="#63b8ff" d="M280.02,-70.48C302.68,-75.07 329.46,-80.5 353.24,-85.31"/>
<polygon fill="#63b8ff" stroke="#63b8ff" points="352.3,-88.69 362.79,-87.25 353.69,-81.83 352.3,-88.69"/>
</g>
<!-- Node4 -->
<g id="node4" class="node">
<title>Node4</title>
<g id="a_node4"><a xlink:href="classSceneCombat.html#af0b3bef84d34d470709b0a050771c44e" target="_top" xlink:title=" ">
<polygon fill="white" stroke="#666666" points="487.5,-70 346.25,-70 346.25,-50 487.5,-50 487.5,-70"/>
<text text-anchor="middle" x="416.88" y="-56.5" font-family="Helvetica,sans-Serif" font-size="10.00">SceneCombat::sEndCombat</text>
</a>
</g>
</g>
<!-- Node2&#45;&gt;Node4 -->
<g id="edge3" class="edge">
<title>Node2&#45;&gt;Node4</title>
<path fill="none" stroke="#63b8ff" d="M305.38,-60C315.04,-60 324.94,-60 334.67,-60"/>
<polygon fill="#63b8ff" stroke="#63b8ff" points="334.46,-63.5 344.46,-60 334.46,-56.5 334.46,-63.5"/>
</g>
<!-- Node5 -->
<g id="node5" class="node">
<title>Node5</title>
<g id="a_node5"><a xlink:href="classSceneCombat.html#aed515cf302c3f9f5dab23b2597ddc086" target="_top" xlink:title=" ">
<polygon fill="white" stroke="#666666" points="492.75,-32 341,-32 341,0 492.75,0 492.75,-32"/>
<text text-anchor="start" x="349" y="-18.5" font-family="Helvetica,sans-Serif" font-size="10.00">SceneCombat::sGenerateWord</text>
<text text-anchor="middle" x="416.88" y="-6.5" font-family="Helvetica,sans-Serif" font-size="10.00">Challenge</text>
</a>
</g>
</g>
<!-- Node2&#45;&gt;Node5 -->
<g id="edge4" class="edge">
<title>Node2&#45;&gt;Node5</title>
<path fill="none" stroke="#63b8ff" d="M272.71,-49.57C291.26,-45.22 313.41,-40.03 334.67,-35.04"/>
<polygon fill="#63b8ff" stroke="#63b8ff" points="335.28,-38.5 344.22,-32.8 333.68,-31.68 335.28,-38.5"/>
</g>
</g>
</svg>
