<?xml version="1.0" encoding="UTF-8" standalone="no"?>
<!DOCTYPE svg PUBLIC "-//W3C//DTD SVG 1.1//EN"
 "http://www.w3.org/Graphics/SVG/1.1/DTD/svg11.dtd">
<!-- Generated by graphviz version 12.2.1 (20241206.2353)
 -->
<!-- Title: TurnManager::advanceToNextPhase Pages: 1 -->
<svg width="630pt" height="134pt"
 viewBox="0.00 0.00 630.00 134.00" xmlns="http://www.w3.org/2000/svg" xmlns:xlink="http://www.w3.org/1999/xlink">
<g id="graph0" class="graph" transform="scale(1 1) rotate(0) translate(4 130)">
<title>TurnManager::advanceToNextPhase</title>
<!-- Node1 -->
<g id="node1" class="node">
<title>Node1</title>
<g id="a_node1"><a xlink:title=" ">
<polygon fill="#999999" stroke="#666666" points="147.25,-54 0,-54 0,-22 147.25,-22 147.25,-54"/>
<text text-anchor="start" x="8" y="-40.5" font-family="Helvetica,sans-Serif" font-size="10.00">TurnManager::advanceToNext</text>
<text text-anchor="middle" x="73.62" y="-28.5" font-family="Helvetica,sans-Serif" font-size="10.00">Phase</text>
</a>
</g>
</g>
<!-- Node2 -->
<g id="node2" class="node">
<title>Node2</title>
<g id="a_node2"><a xlink:href="classTurnManager.html#ade74a1914a24f832b30252cff34668bf" target="_top" xlink:title=" ">
<polygon fill="white" stroke="#666666" points="297.5,-68 183.25,-68 183.25,-48 297.5,-48 297.5,-68"/>
<text text-anchor="middle" x="240.38" y="-54.5" font-family="Helvetica,sans-Serif" font-size="10.00">TurnManager::endTurn</text>
</a>
</g>
</g>
<!-- Node1&#45;&gt;Node2 -->
<g id="edge1" class="edge">
<title>Node1&#45;&gt;Node2</title>
<path fill="none" stroke="#63b8ff" d="M147.37,-46.83C155.45,-47.81 163.66,-48.81 171.68,-49.78"/>
<polygon fill="#63b8ff" stroke="#63b8ff" points="171.01,-53.23 181.35,-50.96 171.85,-46.28 171.01,-53.23"/>
</g>
<!-- Node5 -->
<g id="node5" class="node">
<title>Node5</title>
<g id="a_node5"><a xlink:href="classTurnManager.html#af1bba901d1410ce5418213270b5388cd" target="_top" xlink:title=" ">
<polygon fill="white" stroke="#666666" points="454.88,-26 336.88,-26 336.88,-6 454.88,-6 454.88,-26"/>
<text text-anchor="middle" x="395.88" y="-12.5" font-family="Helvetica,sans-Serif" font-size="10.00">TurnManager::startTurn</text>
</a>
</g>
</g>
<!-- Node1&#45;&gt;Node5 -->
<g id="edge6" class="edge">
<title>Node1&#45;&gt;Node5</title>
<path fill="none" stroke="#63b8ff" d="M147.7,-32.98C201.01,-29.32 272.83,-24.38 325.31,-20.78"/>
<polygon fill="#63b8ff" stroke="#63b8ff" points="325.29,-24.29 335.02,-20.11 324.81,-17.31 325.29,-24.29"/>
</g>
<!-- Node3 -->
<g id="node3" class="node">
<title>Node3</title>
<g id="a_node3"><a xlink:href="classActionFormationManager.html#ab6c97337bf2f94a7c2f16957b4b04b63" target="_top" xlink:title=" ">
<polygon fill="white" stroke="#666666" points="458.25,-126 333.5,-126 333.5,-94 458.25,-94 458.25,-126"/>
<text text-anchor="start" x="341.5" y="-112.5" font-family="Helvetica,sans-Serif" font-size="10.00">ActionFormationManager</text>
<text text-anchor="middle" x="395.88" y="-100.5" font-family="Helvetica,sans-Serif" font-size="10.00">::cancelFormation</text>
</a>
</g>
</g>
<!-- Node2&#45;&gt;Node3 -->
<g id="edge2" class="edge">
<title>Node2&#45;&gt;Node3</title>
<path fill="none" stroke="#63b8ff" d="M272.07,-68.4C290.26,-74.56 313.92,-82.58 335.61,-89.92"/>
<polygon fill="#63b8ff" stroke="#63b8ff" points="334.38,-93.2 344.97,-93.09 336.62,-86.57 334.38,-93.2"/>
</g>
<!-- Node4 -->
<g id="node4" class="node">
<title>Node4</title>
<g id="a_node4"><a xlink:href="classActionFormationManager.html#a496649a3ab5ac5f173239d18857b6065" target="_top" xlink:title=" ">
<polygon fill="white" stroke="#666666" points="458.25,-76 333.5,-76 333.5,-44 458.25,-44 458.25,-76"/>
<text text-anchor="start" x="341.5" y="-62.5" font-family="Helvetica,sans-Serif" font-size="10.00">ActionFormationManager</text>
<text text-anchor="middle" x="395.88" y="-50.5" font-family="Helvetica,sans-Serif" font-size="10.00">::isFormationInProgress</text>
</a>
</g>
</g>
<!-- Node2&#45;&gt;Node4 -->
<g id="edge3" class="edge">
<title>Node2&#45;&gt;Node4</title>
<path fill="none" stroke="#63b8ff" d="M297.66,-58.73C305.51,-58.84 313.67,-58.94 321.78,-59.05"/>
<polygon fill="#63b8ff" stroke="#63b8ff" points="321.6,-62.55 331.65,-59.18 321.69,-55.55 321.6,-62.55"/>
</g>
<!-- Node2&#45;&gt;Node5 -->
<g id="edge4" class="edge">
<title>Node2&#45;&gt;Node5</title>
<path fill="none" stroke="#63b8ff" d="M279.71,-47.51C299.75,-42.03 324.5,-35.26 345.91,-29.4"/>
<polygon fill="#63b8ff" stroke="#63b8ff" points="346.58,-32.84 355.3,-26.83 344.73,-26.09 346.58,-32.84"/>
</g>
<!-- Node6 -->
<g id="node6" class="node">
<title>Node6</title>
<g id="a_node6"><a xlink:href="classActionResolutionManager.html#ab0df536666191614ab0d1b1fd4c87610" target="_top" xlink:title=" ">
<polygon fill="white" stroke="#666666" points="622,-32 494.25,-32 494.25,0 622,0 622,-32"/>
<text text-anchor="start" x="502.25" y="-18.5" font-family="Helvetica,sans-Serif" font-size="10.00">ActionResolutionManager</text>
<text text-anchor="middle" x="558.12" y="-6.5" font-family="Helvetica,sans-Serif" font-size="10.00">::processFutureActions</text>
</a>
</g>
</g>
<!-- Node5&#45;&gt;Node6 -->
<g id="edge5" class="edge">
<title>Node5&#45;&gt;Node6</title>
<path fill="none" stroke="#63b8ff" d="M455.18,-16C464.15,-16 473.52,-16 482.78,-16"/>
<polygon fill="#63b8ff" stroke="#63b8ff" points="482.48,-19.5 492.48,-16 482.48,-12.5 482.48,-19.5"/>
</g>
</g>
</svg>
