<?xml version="1.0" encoding="UTF-8" standalone="no"?>
<!DOCTYPE svg PUBLIC "-//W3C//DTD SVG 1.1//EN"
 "http://www.w3.org/Graphics/SVG/1.1/DTD/svg11.dtd">
<!-- Generated by graphviz version 12.2.1 (20241206.2353)
 -->
<!-- Title: basic_json::from_bjdata Pages: 1 -->
<svg width="669pt" height="91pt"
 viewBox="0.00 0.00 669.25 91.00" xmlns="http://www.w3.org/2000/svg" xmlns:xlink="http://www.w3.org/1999/xlink">
<g id="graph0" class="graph" transform="scale(1 1) rotate(0) translate(4 87)">
<title>basic_json::from_bjdata</title>
<!-- Node1 -->
<g id="node1" class="node">
<title>Node1</title>
<g id="a_node1"><a xlink:title="create a JSON value from an input in BJData format">
<polygon fill="#999999" stroke="#666666" points="119.5,-64 0,-64 0,-44 119.5,-44 119.5,-64"/>
<text text-anchor="middle" x="59.75" y="-50.5" font-family="Helvetica,sans-Serif" font-size="10.00">basic_json::from_bjdata</text>
</a>
</g>
</g>
<!-- Node2 -->
<g id="node2" class="node">
<title>Node2</title>
<g id="a_node2"><a xlink:href="namespacedetail.html#aada1510d1b55ad2faf4a71c70cffb374" target="_top" xlink:title=" ">
<polygon fill="white" stroke="#666666" points="408.75,-83 305,-83 305,-63 408.75,-63 408.75,-83"/>
<text text-anchor="middle" x="356.88" y="-69.5" font-family="Helvetica,sans-Serif" font-size="10.00">detail::input_adapter</text>
</a>
</g>
</g>
<!-- Node1&#45;&gt;Node2 -->
<g id="edge1" class="edge">
<title>Node1&#45;&gt;Node2</title>
<path fill="none" stroke="#63b8ff" d="M119.76,-57.8C170.12,-61.04 242.31,-65.69 293.58,-68.99"/>
<polygon fill="#63b8ff" stroke="#63b8ff" points="293.12,-72.47 303.33,-69.62 293.57,-65.48 293.12,-72.47"/>
</g>
<!-- Node3 -->
<g id="node3" class="node">
<title>Node3</title>
<g id="a_node3"><a xlink:href="classbasic__json.html#a602b1c389d92f2c7db21f89bb6fb9817" target="_top" xlink:title=" ">
<polygon fill="white" stroke="#666666" points="269,-45 155.5,-45 155.5,-25 269,-25 269,-45"/>
<text text-anchor="middle" x="212.25" y="-31.5" font-family="Helvetica,sans-Serif" font-size="10.00">basic_json::sax_parse</text>
</a>
</g>
</g>
<!-- Node1&#45;&gt;Node3 -->
<g id="edge2" class="edge">
<title>Node1&#45;&gt;Node3</title>
<path fill="none" stroke="#63b8ff" d="M119.8,-46.55C127.75,-45.54 135.95,-44.51 144.03,-43.49"/>
<polygon fill="#63b8ff" stroke="#63b8ff" points="144.34,-46.98 153.82,-42.25 143.46,-40.03 144.34,-46.98"/>
</g>
<!-- Node3&#45;&gt;Node2 -->
<g id="edge3" class="edge">
<title>Node3&#45;&gt;Node2</title>
<path fill="none" stroke="#63b8ff" d="M252.6,-45.48C268.97,-49.85 288.17,-54.96 305.55,-59.59"/>
<polygon fill="#63b8ff" stroke="#63b8ff" points="304.63,-62.97 315.19,-62.16 306.43,-56.2 304.63,-62.97"/>
</g>
<!-- Node4 -->
<g id="node4" class="node">
<title>Node4</title>
<g id="a_node4"><a xlink:href="classdetail_1_1binary__reader.html#a8e1b5452ae426e1d7b48761859e7f52d" target="_top" xlink:title=" ">
<polygon fill="white" stroke="#666666" points="408.75,-45 305,-45 305,-13 408.75,-13 408.75,-45"/>
<text text-anchor="start" x="313" y="-31.5" font-family="Helvetica,sans-Serif" font-size="10.00">detail::binary_reader</text>
<text text-anchor="middle" x="356.88" y="-19.5" font-family="Helvetica,sans-Serif" font-size="10.00">::sax_parse</text>
</a>
</g>
</g>
<!-- Node3&#45;&gt;Node4 -->
<g id="edge4" class="edge">
<title>Node3&#45;&gt;Node4</title>
<path fill="none" stroke="#63b8ff" d="M269.21,-32.65C277.17,-32.31 285.39,-31.97 293.46,-31.63"/>
<polygon fill="#63b8ff" stroke="#63b8ff" points="293.37,-35.13 303.21,-31.22 293.07,-28.14 293.37,-35.13"/>
</g>
<!-- Node5 -->
<g id="node5" class="node">
<title>Node5</title>
<g id="a_node5"><a xlink:href="namespacedetail.html#a266fb3d4bf633ad6c506434cc91164da" target="_top" xlink:title=" ">
<polygon fill="white" stroke="#666666" points="519.25,-58 444.75,-58 444.75,-38 519.25,-38 519.25,-58"/>
<text text-anchor="middle" x="482" y="-44.5" font-family="Helvetica,sans-Serif" font-size="10.00">detail::concat</text>
</a>
</g>
</g>
<!-- Node4&#45;&gt;Node5 -->
<g id="edge5" class="edge">
<title>Node4&#45;&gt;Node5</title>
<path fill="none" stroke="#63b8ff" d="M409.02,-36.89C417.01,-38.13 425.24,-39.4 433.16,-40.62"/>
<polygon fill="#63b8ff" stroke="#63b8ff" points="432.54,-44.06 442.96,-42.13 433.61,-37.15 432.54,-44.06"/>
</g>
<!-- Node8 -->
<g id="node8" class="node">
<title>Node8</title>
<g id="a_node8"><a xlink:href="namespacedetail.html#a7116703ea757fe9821bf2e903b91c160" target="_top" xlink:title=" ">
<polygon fill="white" stroke="#666666" points="511.38,-20 452.62,-20 452.62,0 511.38,0 511.38,-20"/>
<text text-anchor="middle" x="482" y="-6.5" font-family="Helvetica,sans-Serif" font-size="10.00">detail::get</text>
</a>
</g>
</g>
<!-- Node4&#45;&gt;Node8 -->
<g id="edge8" class="edge">
<title>Node4&#45;&gt;Node8</title>
<path fill="none" stroke="#63b8ff" d="M409.02,-21.11C419.77,-19.45 430.96,-17.72 441.23,-16.14"/>
<polygon fill="#63b8ff" stroke="#63b8ff" points="441.5,-19.64 450.85,-14.65 440.43,-12.72 441.5,-19.64"/>
</g>
<!-- Node6 -->
<g id="node6" class="node">
<title>Node6</title>
<g id="a_node6"><a xlink:href="namespacedetail.html#a89f967b745cf8df11ba9d59f93d97753" target="_top" xlink:title=" ">
<polygon fill="white" stroke="#666666" points="656,-77 560.5,-77 560.5,-57 656,-57 656,-77"/>
<text text-anchor="middle" x="608.25" y="-63.5" font-family="Helvetica,sans-Serif" font-size="10.00">detail::concat_into</text>
</a>
</g>
</g>
<!-- Node5&#45;&gt;Node6 -->
<g id="edge6" class="edge">
<title>Node5&#45;&gt;Node6</title>
<path fill="none" stroke="#63b8ff" d="M519.61,-53.6C528.86,-55.01 539.04,-56.57 549.07,-58.1"/>
<polygon fill="#63b8ff" stroke="#63b8ff" points="548.38,-61.54 558.79,-59.59 549.44,-54.62 548.38,-61.54"/>
</g>
<!-- Node7 -->
<g id="node7" class="node">
<title>Node7</title>
<g id="a_node7"><a xlink:href="namespacedetail.html#ac185140ed8c8fcc07a302a890b714b0d" target="_top" xlink:title=" ">
<polygon fill="white" stroke="#666666" points="661.25,-39 555.25,-39 555.25,-19 661.25,-19 661.25,-39"/>
<text text-anchor="middle" x="608.25" y="-25.5" font-family="Helvetica,sans-Serif" font-size="10.00">detail::concat_length</text>
</a>
</g>
</g>
<!-- Node5&#45;&gt;Node7 -->
<g id="edge7" class="edge">
<title>Node5&#45;&gt;Node7</title>
<path fill="none" stroke="#63b8ff" d="M519.61,-42.4C527.19,-41.24 535.38,-39.99 543.61,-38.73"/>
<polygon fill="#63b8ff" stroke="#63b8ff" points="543.94,-42.22 553.3,-37.25 542.88,-35.3 543.94,-42.22"/>
</g>
</g>
</svg>
