<?xml version="1.0" encoding="UTF-8" standalone="no"?>
<!DOCTYPE svg PUBLIC "-//W3C//DTD SVG 1.1//EN"
 "http://www.w3.org/Graphics/SVG/1.1/DTD/svg11.dtd">
<!-- Generated by graphviz version 12.2.1 (20241206.2353)
 -->
<!-- Title: detail::out_of_range::create Pages: 1 -->
<svg width="515pt" height="93pt"
 viewBox="0.00 0.00 515.25 93.16" xmlns="http://www.w3.org/2000/svg" xmlns:xlink="http://www.w3.org/1999/xlink">
<g id="graph0" class="graph" transform="scale(1 1) rotate(0) translate(4 89.16)">
<title>detail::out_of_range::create</title>
<!-- Node1 -->
<g id="node1" class="node">
<title>Node1</title>
<g id="a_node1"><a xlink:title=" ">
<polygon fill="#999999" stroke="#666666" points="101.5,-70 0,-70 0,-38 101.5,-38 101.5,-70"/>
<text text-anchor="start" x="8" y="-56.5" font-family="Helvetica,sans-Serif" font-size="10.00">detail::out_of_range</text>
<text text-anchor="middle" x="50.75" y="-44.5" font-family="Helvetica,sans-Serif" font-size="10.00">::create</text>
</a>
</g>
</g>
<!-- Node2 -->
<g id="node2" class="node">
<title>Node2</title>
<g id="a_node2"><a xlink:href="namespacedetail.html#a266fb3d4bf633ad6c506434cc91164da" target="_top" xlink:title=" ">
<polygon fill="white" stroke="#666666" points="365.25,-64 290.75,-64 290.75,-44 365.25,-44 365.25,-64"/>
<text text-anchor="middle" x="328" y="-50.5" font-family="Helvetica,sans-Serif" font-size="10.00">detail::concat</text>
</a>
</g>
</g>
<!-- Node1&#45;&gt;Node2 -->
<g id="edge1" class="edge">
<title>Node1&#45;&gt;Node2</title>
<path fill="none" stroke="#63b8ff" d="M99.3,-70.46C111.59,-73.99 124.91,-77.2 137.5,-79 189.09,-86.37 203.36,-87.64 254.75,-79 267.45,-76.87 280.89,-72.76 292.7,-68.48"/>
<polygon fill="#63b8ff" stroke="#63b8ff" points="293.93,-71.76 302.03,-64.93 291.44,-65.22 293.93,-71.76"/>
</g>
<!-- Node5 -->
<g id="node5" class="node">
<title>Node5</title>
<g id="a_node5"><a xlink:href="classdetail_1_1exception.html#a6b4a786b5c1c25dd3edaceb1bf2d5120" target="_top" xlink:title=" ">
<polygon fill="white" stroke="#666666" points="242.75,-70 149.5,-70 149.5,-38 242.75,-38 242.75,-70"/>
<text text-anchor="start" x="157.5" y="-56.5" font-family="Helvetica,sans-Serif" font-size="10.00">detail::exception::</text>
<text text-anchor="middle" x="196.12" y="-44.5" font-family="Helvetica,sans-Serif" font-size="10.00">diagnostics</text>
</a>
</g>
</g>
<!-- Node1&#45;&gt;Node5 -->
<g id="edge4" class="edge">
<title>Node1&#45;&gt;Node5</title>
<path fill="none" stroke="#63b8ff" d="M101.9,-54C113.52,-54 125.98,-54 137.89,-54"/>
<polygon fill="#63b8ff" stroke="#63b8ff" points="137.57,-57.5 147.57,-54 137.57,-50.5 137.57,-57.5"/>
</g>
<!-- Node6 -->
<g id="node6" class="node">
<title>Node6</title>
<g id="a_node6"><a xlink:href="classdetail_1_1exception.html#a8f1eb56b9964c8dd84d89d0da98d883b" target="_top" xlink:title=" ">
<polygon fill="white" stroke="#666666" points="254.75,-20 137.5,-20 137.5,0 254.75,0 254.75,-20"/>
<text text-anchor="middle" x="196.12" y="-6.5" font-family="Helvetica,sans-Serif" font-size="10.00">detail::exception::name</text>
</a>
</g>
</g>
<!-- Node1&#45;&gt;Node6 -->
<g id="edge5" class="edge">
<title>Node1&#45;&gt;Node6</title>
<path fill="none" stroke="#63b8ff" d="M101.9,-38.61C117.62,-33.79 134.87,-28.49 150.21,-23.78"/>
<polygon fill="#63b8ff" stroke="#63b8ff" points="151.01,-27.2 159.55,-20.92 148.96,-20.51 151.01,-27.2"/>
</g>
<!-- Node3 -->
<g id="node3" class="node">
<title>Node3</title>
<g id="a_node3"><a xlink:href="namespacedetail.html#a89f967b745cf8df11ba9d59f93d97753" target="_top" xlink:title=" ">
<polygon fill="white" stroke="#666666" points="502,-83 406.5,-83 406.5,-63 502,-63 502,-83"/>
<text text-anchor="middle" x="454.25" y="-69.5" font-family="Helvetica,sans-Serif" font-size="10.00">detail::concat_into</text>
</a>
</g>
</g>
<!-- Node2&#45;&gt;Node3 -->
<g id="edge2" class="edge">
<title>Node2&#45;&gt;Node3</title>
<path fill="none" stroke="#63b8ff" d="M365.61,-59.6C374.86,-61.01 385.04,-62.57 395.07,-64.1"/>
<polygon fill="#63b8ff" stroke="#63b8ff" points="394.38,-67.54 404.79,-65.59 395.44,-60.62 394.38,-67.54"/>
</g>
<!-- Node4 -->
<g id="node4" class="node">
<title>Node4</title>
<g id="a_node4"><a xlink:href="namespacedetail.html#ac185140ed8c8fcc07a302a890b714b0d" target="_top" xlink:title=" ">
<polygon fill="white" stroke="#666666" points="507.25,-45 401.25,-45 401.25,-25 507.25,-25 507.25,-45"/>
<text text-anchor="middle" x="454.25" y="-31.5" font-family="Helvetica,sans-Serif" font-size="10.00">detail::concat_length</text>
</a>
</g>
</g>
<!-- Node2&#45;&gt;Node4 -->
<g id="edge3" class="edge">
<title>Node2&#45;&gt;Node4</title>
<path fill="none" stroke="#63b8ff" d="M365.61,-48.4C373.19,-47.24 381.38,-45.99 389.61,-44.73"/>
<polygon fill="#63b8ff" stroke="#63b8ff" points="389.94,-48.22 399.3,-43.25 388.88,-41.3 389.94,-48.22"/>
</g>
<!-- Node6&#45;&gt;Node2 -->
<g id="edge6" class="edge">
<title>Node6&#45;&gt;Node2</title>
<path fill="none" stroke="#63b8ff" d="M229.16,-20.47C237.5,-23.22 246.47,-26.2 254.75,-29 265,-32.46 276.05,-36.26 286.35,-39.82"/>
<polygon fill="#63b8ff" stroke="#63b8ff" points="285.13,-43.1 295.72,-43.07 287.42,-36.48 285.13,-43.1"/>
</g>
</g>
</svg>
