<?xml version="1.0" encoding="UTF-8" standalone="no"?>
<!DOCTYPE svg PUBLIC "-//W3C//DTD SVG 1.1//EN"
 "http://www.w3.org/Graphics/SVG/1.1/DTD/svg11.dtd">
<!-- Generated by graphviz version 12.2.1 (20241206.2353)
 -->
<!-- Title: TurnManager::processTurnPhase Pages: 1 -->
<svg width="998pt" height="193pt"
 viewBox="0.00 0.00 998.00 193.00" xmlns="http://www.w3.org/2000/svg" xmlns:xlink="http://www.w3.org/1999/xlink">
<g id="graph0" class="graph" transform="scale(1 1) rotate(0) translate(4 189)">
<title>TurnManager::processTurnPhase</title>
<!-- Node1 -->
<g id="node1" class="node">
<title>Node1</title>
<g id="a_node1"><a xlink:title=" ">
<polygon fill="#999999" stroke="#666666" points="133,-95 0,-95 0,-63 133,-63 133,-95"/>
<text text-anchor="start" x="8" y="-81.5" font-family="Helvetica,sans-Serif" font-size="10.00">TurnManager::processTurn</text>
<text text-anchor="middle" x="66.5" y="-69.5" font-family="Helvetica,sans-Serif" font-size="10.00">Phase</text>
</a>
</g>
</g>
<!-- Node2 -->
<g id="node2" class="node">
<title>Node2</title>
<g id="a_node2"><a xlink:href="classTurnManager.html#a885f4d5c2429682587a09c1e0f2bfa93" target="_top" xlink:title=" ">
<polygon fill="white" stroke="#666666" points="320,-158 181,-158 181,-126 320,-126 320,-158"/>
<text text-anchor="start" x="189" y="-144.5" font-family="Helvetica,sans-Serif" font-size="10.00">TurnManager::processEvent</text>
<text text-anchor="middle" x="250.5" y="-132.5" font-family="Helvetica,sans-Serif" font-size="10.00">Phase</text>
</a>
</g>
</g>
<!-- Node1&#45;&gt;Node2 -->
<g id="edge1" class="edge">
<title>Node1&#45;&gt;Node2</title>
<path fill="none" stroke="#63b8ff" d="M109.78,-95.44C127.92,-102.34 149.42,-110.3 169,-117 174.01,-118.72 179.22,-120.45 184.47,-122.15"/>
<polygon fill="#63b8ff" stroke="#63b8ff" points="183.2,-125.42 193.79,-125.15 185.34,-118.76 183.2,-125.42"/>
</g>
<!-- Node9 -->
<g id="node9" class="node">
<title>Node9</title>
<g id="a_node9"><a xlink:href="classTurnManager.html#ab74f700bc39ef5e4865c4f5a3a8ca941" target="_top" xlink:title=" ">
<polygon fill="white" stroke="#666666" points="332,-108 169,-108 169,-88 332,-88 332,-108"/>
<text text-anchor="middle" x="250.5" y="-94.5" font-family="Helvetica,sans-Serif" font-size="10.00">TurnManager::processNPCPhase</text>
</a>
</g>
</g>
<!-- Node1&#45;&gt;Node9 -->
<g id="edge9" class="edge">
<title>Node1&#45;&gt;Node9</title>
<path fill="none" stroke="#63b8ff" d="M133.46,-85.89C141.21,-86.69 149.21,-87.53 157.23,-88.37"/>
<polygon fill="#63b8ff" stroke="#63b8ff" points="156.74,-91.84 167.05,-89.39 157.47,-84.87 156.74,-91.84"/>
</g>
<!-- Node10 -->
<g id="node10" class="node">
<title>Node10</title>
<g id="a_node10"><a xlink:href="classTurnManager.html#a7f43e317f4994897b0ca27fd5353fd70" target="_top" xlink:title=" ">
<polygon fill="white" stroke="#666666" points="321.12,-32 179.88,-32 179.88,0 321.12,0 321.12,-32"/>
<text text-anchor="start" x="187.88" y="-18.5" font-family="Helvetica,sans-Serif" font-size="10.00">TurnManager::processPlayer</text>
<text text-anchor="middle" x="250.5" y="-6.5" font-family="Helvetica,sans-Serif" font-size="10.00">Phase</text>
</a>
</g>
</g>
<!-- Node1&#45;&gt;Node10 -->
<g id="edge11" class="edge">
<title>Node1&#45;&gt;Node10</title>
<path fill="none" stroke="#63b8ff" d="M109.78,-62.56C127.92,-55.66 149.42,-47.7 169,-41 174.01,-39.28 179.22,-37.55 184.47,-35.85"/>
<polygon fill="#63b8ff" stroke="#63b8ff" points="185.34,-39.24 193.79,-32.85 183.2,-32.58 185.34,-39.24"/>
</g>
<!-- Node12 -->
<g id="node12" class="node">
<title>Node12</title>
<g id="a_node12"><a xlink:href="classTurnManager.html#a95f1823f759af13f972a0a139af343e4" target="_top" xlink:title=" ">
<polygon fill="white" stroke="#666666" points="325.62,-70 175.38,-70 175.38,-50 325.62,-50 325.62,-70"/>
<text text-anchor="middle" x="250.5" y="-56.5" font-family="Helvetica,sans-Serif" font-size="10.00">TurnManager::processTurnEnd</text>
</a>
</g>
</g>
<!-- Node1&#45;&gt;Node12 -->
<g id="edge13" class="edge">
<title>Node1&#45;&gt;Node12</title>
<path fill="none" stroke="#63b8ff" d="M133.46,-72.11C143.29,-71.09 153.55,-70.02 163.71,-68.96"/>
<polygon fill="#63b8ff" stroke="#63b8ff" points="164.04,-72.44 173.62,-67.92 163.31,-65.48 164.04,-72.44"/>
</g>
<!-- Node3 -->
<g id="node3" class="node">
<title>Node3</title>
<g id="a_node3"><a xlink:href="classTurnManager.html#af0af68eda36f0eb00ab1c0a497dea311" target="_top" xlink:title=" ">
<polygon fill="white" stroke="#666666" points="515.25,-114 368,-114 368,-82 515.25,-82 515.25,-114"/>
<text text-anchor="start" x="376" y="-100.5" font-family="Helvetica,sans-Serif" font-size="10.00">TurnManager::advanceToNext</text>
<text text-anchor="middle" x="441.62" y="-88.5" font-family="Helvetica,sans-Serif" font-size="10.00">Phase</text>
</a>
</g>
</g>
<!-- Node2&#45;&gt;Node3 -->
<g id="edge2" class="edge">
<title>Node2&#45;&gt;Node3</title>
<path fill="none" stroke="#63b8ff" d="M320.31,-125.99C332.81,-123.08 345.96,-120.02 358.79,-117.04"/>
<polygon fill="#63b8ff" stroke="#63b8ff" points="359.54,-120.46 368.48,-114.78 357.95,-113.64 359.54,-120.46"/>
</g>
<!-- Node4 -->
<g id="node4" class="node">
<title>Node4</title>
<g id="a_node4"><a xlink:href="classTurnManager.html#ade74a1914a24f832b30252cff34668bf" target="_top" xlink:title=" ">
<polygon fill="white" stroke="#666666" points="665.5,-127 551.25,-127 551.25,-107 665.5,-107 665.5,-127"/>
<text text-anchor="middle" x="608.38" y="-113.5" font-family="Helvetica,sans-Serif" font-size="10.00">TurnManager::endTurn</text>
</a>
</g>
</g>
<!-- Node3&#45;&gt;Node4 -->
<g id="edge3" class="edge">
<title>Node3&#45;&gt;Node4</title>
<path fill="none" stroke="#63b8ff" d="M515.37,-106.39C523.45,-107.32 531.66,-108.27 539.68,-109.19"/>
<polygon fill="#63b8ff" stroke="#63b8ff" points="539.02,-112.64 549.35,-110.31 539.82,-105.69 539.02,-112.64"/>
</g>
<!-- Node7 -->
<g id="node7" class="node">
<title>Node7</title>
<g id="a_node7"><a xlink:href="classTurnManager.html#af1bba901d1410ce5418213270b5388cd" target="_top" xlink:title=" ">
<polygon fill="white" stroke="#666666" points="822.88,-85 704.88,-85 704.88,-65 822.88,-65 822.88,-85"/>
<text text-anchor="middle" x="763.88" y="-71.5" font-family="Helvetica,sans-Serif" font-size="10.00">TurnManager::startTurn</text>
</a>
</g>
</g>
<!-- Node3&#45;&gt;Node7 -->
<g id="edge8" class="edge">
<title>Node3&#45;&gt;Node7</title>
<path fill="none" stroke="#63b8ff" d="M515.7,-92.75C569.01,-88.92 640.83,-83.77 693.31,-80"/>
<polygon fill="#63b8ff" stroke="#63b8ff" points="693.3,-83.51 703.02,-79.3 692.8,-76.52 693.3,-83.51"/>
</g>
<!-- Node5 -->
<g id="node5" class="node">
<title>Node5</title>
<g id="a_node5"><a xlink:href="classActionFormationManager.html#ab6c97337bf2f94a7c2f16957b4b04b63" target="_top" xlink:title=" ">
<polygon fill="white" stroke="#666666" points="826.25,-185 701.5,-185 701.5,-153 826.25,-153 826.25,-185"/>
<text text-anchor="start" x="709.5" y="-171.5" font-family="Helvetica,sans-Serif" font-size="10.00">ActionFormationManager</text>
<text text-anchor="middle" x="763.88" y="-159.5" font-family="Helvetica,sans-Serif" font-size="10.00">::cancelFormation</text>
</a>
</g>
</g>
<!-- Node4&#45;&gt;Node5 -->
<g id="edge4" class="edge">
<title>Node4&#45;&gt;Node5</title>
<path fill="none" stroke="#63b8ff" d="M640.07,-127.4C658.26,-133.56 681.92,-141.58 703.61,-148.92"/>
<polygon fill="#63b8ff" stroke="#63b8ff" points="702.38,-152.2 712.97,-152.09 704.62,-145.57 702.38,-152.2"/>
</g>
<!-- Node6 -->
<g id="node6" class="node">
<title>Node6</title>
<g id="a_node6"><a xlink:href="classActionFormationManager.html#a496649a3ab5ac5f173239d18857b6065" target="_top" xlink:title=" ">
<polygon fill="white" stroke="#666666" points="826.25,-135 701.5,-135 701.5,-103 826.25,-103 826.25,-135"/>
<text text-anchor="start" x="709.5" y="-121.5" font-family="Helvetica,sans-Serif" font-size="10.00">ActionFormationManager</text>
<text text-anchor="middle" x="763.88" y="-109.5" font-family="Helvetica,sans-Serif" font-size="10.00">::isFormationInProgress</text>
</a>
</g>
</g>
<!-- Node4&#45;&gt;Node6 -->
<g id="edge5" class="edge">
<title>Node4&#45;&gt;Node6</title>
<path fill="none" stroke="#63b8ff" d="M665.66,-117.73C673.51,-117.84 681.67,-117.94 689.78,-118.05"/>
<polygon fill="#63b8ff" stroke="#63b8ff" points="689.6,-121.55 699.65,-118.18 689.69,-114.55 689.6,-121.55"/>
</g>
<!-- Node4&#45;&gt;Node7 -->
<g id="edge6" class="edge">
<title>Node4&#45;&gt;Node7</title>
<path fill="none" stroke="#63b8ff" d="M647.71,-106.51C667.75,-101.03 692.5,-94.26 713.91,-88.4"/>
<polygon fill="#63b8ff" stroke="#63b8ff" points="714.58,-91.84 723.3,-85.83 712.73,-85.09 714.58,-91.84"/>
</g>
<!-- Node8 -->
<g id="node8" class="node">
<title>Node8</title>
<g id="a_node8"><a xlink:href="classActionResolutionManager.html#ab0df536666191614ab0d1b1fd4c87610" target="_top" xlink:title=" ">
<polygon fill="white" stroke="#666666" points="990,-91 862.25,-91 862.25,-59 990,-59 990,-91"/>
<text text-anchor="start" x="870.25" y="-77.5" font-family="Helvetica,sans-Serif" font-size="10.00">ActionResolutionManager</text>
<text text-anchor="middle" x="926.12" y="-65.5" font-family="Helvetica,sans-Serif" font-size="10.00">::processFutureActions</text>
</a>
</g>
</g>
<!-- Node7&#45;&gt;Node8 -->
<g id="edge7" class="edge">
<title>Node7&#45;&gt;Node8</title>
<path fill="none" stroke="#63b8ff" d="M823.18,-75C832.15,-75 841.52,-75 850.78,-75"/>
<polygon fill="#63b8ff" stroke="#63b8ff" points="850.48,-78.5 860.48,-75 850.48,-71.5 850.48,-78.5"/>
</g>
<!-- Node9&#45;&gt;Node3 -->
<g id="edge10" class="edge">
<title>Node9&#45;&gt;Node3</title>
<path fill="none" stroke="#63b8ff" d="M332.25,-98C340.24,-98 348.36,-98 356.37,-98"/>
<polygon fill="#63b8ff" stroke="#63b8ff" points="356.11,-101.5 366.11,-98 356.11,-94.5 356.11,-101.5"/>
</g>
<!-- Node11 -->
<g id="node11" class="node">
<title>Node11</title>
<g id="a_node11"><a xlink:href="classActionResolutionManager.html#a91eaee9a2e2980c8da4f7f544832fd12" target="_top" xlink:title=" ">
<polygon fill="white" stroke="#666666" points="505.5,-32 377.75,-32 377.75,0 505.5,0 505.5,-32"/>
<text text-anchor="start" x="385.75" y="-18.5" font-family="Helvetica,sans-Serif" font-size="10.00">ActionResolutionManager</text>
<text text-anchor="middle" x="441.62" y="-6.5" font-family="Helvetica,sans-Serif" font-size="10.00">::processOngoingActions</text>
</a>
</g>
</g>
<!-- Node10&#45;&gt;Node11 -->
<g id="edge12" class="edge">
<title>Node10&#45;&gt;Node11</title>
<path fill="none" stroke="#63b8ff" d="M321.39,-16C335.98,-16 351.41,-16 366.16,-16"/>
<polygon fill="#63b8ff" stroke="#63b8ff" points="365.76,-19.5 375.76,-16 365.76,-12.5 365.76,-19.5"/>
</g>
<!-- Node12&#45;&gt;Node3 -->
<g id="edge14" class="edge">
<title>Node12&#45;&gt;Node3</title>
<path fill="none" stroke="#63b8ff" d="M303.68,-70.48C320.07,-73.78 338.6,-77.5 356.61,-81.12"/>
<polygon fill="#63b8ff" stroke="#63b8ff" points="355.76,-84.52 366.25,-83.06 357.14,-77.66 355.76,-84.52"/>
</g>
</g>
</svg>
