<?xml version="1.0" encoding="UTF-8" standalone="no"?>
<!DOCTYPE svg PUBLIC "-//W3C//DTD SVG 1.1//EN"
 "http://www.w3.org/Graphics/SVG/1.1/DTD/svg11.dtd">
<!-- Generated by graphviz version 12.2.1 (20241206.2353)
 -->
<!-- Title: basic_json::begin Pages: 1 -->
<svg width="393pt" height="142pt"
 viewBox="0.00 0.00 392.75 142.00" xmlns="http://www.w3.org/2000/svg" xmlns:xlink="http://www.w3.org/1999/xlink">
<g id="graph0" class="graph" transform="scale(1 1) rotate(0) translate(4 138)">
<title>basic_json::begin</title>
<!-- Node1 -->
<g id="node1" class="node">
<title>Node1</title>
<g id="a_node1"><a xlink:title="returns an iterator to the first element">
<polygon fill="#999999" stroke="#666666" points="384.75,-77 293,-77 293,-57 384.75,-57 384.75,-77"/>
<text text-anchor="middle" x="338.88" y="-63.5" font-family="Helvetica,sans-Serif" font-size="10.00">basic_json::begin</text>
</a>
</g>
</g>
<!-- Node2 -->
<g id="node2" class="node">
<title>Node2</title>
<g id="a_node2"><a xlink:href="classbasic__json.html#a940e724a2e8d5400ab772eb22af0387c" target="_top" xlink:title="creates a diff as a JSON patch">
<polygon fill="white" stroke="#666666" points="233.75,-134 151.75,-134 151.75,-114 233.75,-114 233.75,-134"/>
<text text-anchor="middle" x="192.75" y="-120.5" font-family="Helvetica,sans-Serif" font-size="10.00">basic_json::diff</text>
</a>
</g>
</g>
<!-- Node1&#45;&gt;Node2 -->
<g id="edge1" class="edge">
<title>Node1&#45;&gt;Node2</title>
<path fill="none" stroke="#63b8ff" d="M307.72,-82.46C292.71,-89.83 274.14,-98.44 257,-105 248.97,-108.07 240.21,-110.98 231.85,-113.55"/>
<polygon fill="#63b8ff" stroke="#63b8ff" points="309.21,-85.63 316.6,-78.04 306.09,-79.37 309.21,-85.63"/>
</g>
<!-- Node3 -->
<g id="node3" class="node">
<title>Node3</title>
<g id="a_node3"><a xlink:href="classbasic__json.html#a8676ac2433fe299b8d420f00a0741395" target="_top" xlink:title="applies a JSON Merge Patch">
<polygon fill="white" stroke="#666666" points="255.12,-96 130.38,-96 130.38,-76 255.12,-76 255.12,-96"/>
<text text-anchor="middle" x="192.75" y="-82.5" font-family="Helvetica,sans-Serif" font-size="10.00">basic_json::merge_patch</text>
</a>
</g>
</g>
<!-- Node1&#45;&gt;Node3 -->
<g id="edge2" class="edge">
<title>Node1&#45;&gt;Node3</title>
<path fill="none" stroke="#63b8ff" d="M281.32,-74.46C272.83,-75.58 264.03,-76.74 255.43,-77.87"/>
<polygon fill="#63b8ff" stroke="#63b8ff" points="281.71,-77.93 291.17,-73.16 280.8,-70.99 281.71,-77.93"/>
</g>
<!-- Node4 -->
<g id="node4" class="node">
<title>Node4</title>
<g id="a_node4"><a xlink:href="classbasic__json.html#a693812b31e106dec9166e93d8f6dd7d7" target="_top" xlink:title="applies a JSON patch in&#45;place without copying the object">
<polygon fill="white" stroke="#666666" points="257,-58 128.5,-58 128.5,-38 257,-38 257,-58"/>
<text text-anchor="middle" x="192.75" y="-44.5" font-family="Helvetica,sans-Serif" font-size="10.00">basic_json::patch_inplace</text>
</a>
</g>
</g>
<!-- Node1&#45;&gt;Node4 -->
<g id="edge3" class="edge">
<title>Node1&#45;&gt;Node4</title>
<path fill="none" stroke="#63b8ff" d="M281.34,-59.55C273.44,-58.51 265.29,-57.43 257.27,-56.37"/>
<polygon fill="#63b8ff" stroke="#63b8ff" points="280.8,-63.01 291.17,-60.84 281.71,-56.07 280.8,-63.01"/>
</g>
<!-- Node6 -->
<g id="node6" class="node">
<title>Node6</title>
<g id="a_node6"><a xlink:href="classbasic__json.html#a3819f393e82396782ccc22785575b01d" target="_top" xlink:title="updates a JSON object from another object, overwriting existing keys">
<polygon fill="white" stroke="#666666" points="241.62,-20 143.88,-20 143.88,0 241.62,0 241.62,-20"/>
<text text-anchor="middle" x="192.75" y="-6.5" font-family="Helvetica,sans-Serif" font-size="10.00">basic_json::update</text>
</a>
</g>
</g>
<!-- Node1&#45;&gt;Node6 -->
<g id="edge5" class="edge">
<title>Node1&#45;&gt;Node6</title>
<path fill="none" stroke="#63b8ff" d="M307.72,-51.54C292.71,-44.17 274.14,-35.56 257,-29 248.97,-25.93 240.21,-23.02 231.85,-20.45"/>
<polygon fill="#63b8ff" stroke="#63b8ff" points="306.09,-54.63 316.6,-55.96 309.21,-48.37 306.09,-54.63"/>
</g>
<!-- Node5 -->
<g id="node5" class="node">
<title>Node5</title>
<g id="a_node5"><a xlink:href="classbasic__json.html#a145a004c0a2fa5be84b260ecc98ab5d9" target="_top" xlink:title="applies a JSON patch to a copy of the current object">
<polygon fill="white" stroke="#666666" points="92.5,-58 0,-58 0,-38 92.5,-38 92.5,-58"/>
<text text-anchor="middle" x="46.25" y="-44.5" font-family="Helvetica,sans-Serif" font-size="10.00">basic_json::patch</text>
</a>
</g>
</g>
<!-- Node4&#45;&gt;Node5 -->
<g id="edge4" class="edge">
<title>Node4&#45;&gt;Node5</title>
<path fill="none" stroke="#63b8ff" d="M117.08,-48C108.79,-48 100.55,-48 92.78,-48"/>
<polygon fill="#63b8ff" stroke="#63b8ff" points="116.86,-51.5 126.86,-48 116.86,-44.5 116.86,-51.5"/>
</g>
</g>
</svg>
