<?xml version="1.0" encoding="UTF-8" standalone="no"?>
<!DOCTYPE svg PUBLIC "-//W3C//DTD SVG 1.1//EN"
 "http://www.w3.org/Graphics/SVG/1.1/DTD/svg11.dtd">
<!-- Generated by graphviz version 12.2.1 (20241206.2353)
 -->
<!-- Title: basic_json::swap Pages: 1 -->
<svg width="352pt" height="103pt"
 viewBox="0.00 0.00 352.25 103.00" xmlns="http://www.w3.org/2000/svg" xmlns:xlink="http://www.w3.org/1999/xlink">
<g id="graph0" class="graph" transform="scale(1 1) rotate(0) translate(4 99)">
<title>basic_json::swap</title>
<!-- Node1 -->
<g id="node1" class="node">
<title>Node1</title>
<g id="a_node1"><a xlink:title="exchanges the values">
<polygon fill="#999999" stroke="#666666" points="91.75,-48 0,-48 0,-28 91.75,-28 91.75,-48"/>
<text text-anchor="middle" x="45.88" y="-34.5" font-family="Helvetica,sans-Serif" font-size="10.00">basic_json::swap</text>
</a>
</g>
</g>
<!-- Node2 -->
<g id="node2" class="node">
<title>Node2</title>
<g id="a_node2"><a xlink:href="namespacedetail.html#a266fb3d4bf633ad6c506434cc91164da" target="_top" xlink:title=" ">
<polygon fill="white" stroke="#666666" points="202.25,-76 127.75,-76 127.75,-56 202.25,-56 202.25,-76"/>
<text text-anchor="middle" x="165" y="-62.5" font-family="Helvetica,sans-Serif" font-size="10.00">detail::concat</text>
</a>
</g>
</g>
<!-- Node1&#45;&gt;Node2 -->
<g id="edge1" class="edge">
<title>Node1&#45;&gt;Node2</title>
<path fill="none" stroke="#63b8ff" d="M90.49,-48.43C98.9,-50.44 107.75,-52.55 116.29,-54.59"/>
<polygon fill="#63b8ff" stroke="#63b8ff" points="115.25,-57.94 125.79,-56.86 116.87,-51.14 115.25,-57.94"/>
</g>
<!-- Node5 -->
<g id="node5" class="node">
<title>Node5</title>
<g id="a_node5"><a xlink:href="namespacestd.html#a4874fd00297ff5aef2872379cb521783" target="_top" xlink:title="exchanges the values of two JSON objects">
<polygon fill="white" stroke="#666666" points="194.38,-20 135.62,-20 135.62,0 194.38,0 194.38,-20"/>
<text text-anchor="middle" x="165" y="-6.5" font-family="Helvetica,sans-Serif" font-size="10.00">std::swap</text>
</a>
</g>
</g>
<!-- Node1&#45;&gt;Node5 -->
<g id="edge4" class="edge">
<title>Node1&#45;&gt;Node5</title>
<path fill="none" stroke="#63b8ff" d="M90.49,-27.57C101.59,-24.92 113.46,-22.08 124.35,-19.48"/>
<polygon fill="#63b8ff" stroke="#63b8ff" points="124.89,-22.95 133.81,-17.22 123.27,-16.14 124.89,-22.95"/>
</g>
<!-- Node3 -->
<g id="node3" class="node">
<title>Node3</title>
<g id="a_node3"><a xlink:href="namespacedetail.html#a89f967b745cf8df11ba9d59f93d97753" target="_top" xlink:title=" ">
<polygon fill="white" stroke="#666666" points="339,-95 243.5,-95 243.5,-75 339,-75 339,-95"/>
<text text-anchor="middle" x="291.25" y="-81.5" font-family="Helvetica,sans-Serif" font-size="10.00">detail::concat_into</text>
</a>
</g>
</g>
<!-- Node2&#45;&gt;Node3 -->
<g id="edge2" class="edge">
<title>Node2&#45;&gt;Node3</title>
<path fill="none" stroke="#63b8ff" d="M202.61,-71.6C211.86,-73.01 222.04,-74.57 232.07,-76.1"/>
<polygon fill="#63b8ff" stroke="#63b8ff" points="231.38,-79.54 241.79,-77.59 232.44,-72.62 231.38,-79.54"/>
</g>
<!-- Node4 -->
<g id="node4" class="node">
<title>Node4</title>
<g id="a_node4"><a xlink:href="namespacedetail.html#ac185140ed8c8fcc07a302a890b714b0d" target="_top" xlink:title=" ">
<polygon fill="white" stroke="#666666" points="344.25,-57 238.25,-57 238.25,-37 344.25,-37 344.25,-57"/>
<text text-anchor="middle" x="291.25" y="-43.5" font-family="Helvetica,sans-Serif" font-size="10.00">detail::concat_length</text>
</a>
</g>
</g>
<!-- Node2&#45;&gt;Node4 -->
<g id="edge3" class="edge">
<title>Node2&#45;&gt;Node4</title>
<path fill="none" stroke="#63b8ff" d="M202.61,-60.4C210.19,-59.24 218.38,-57.99 226.61,-56.73"/>
<polygon fill="#63b8ff" stroke="#63b8ff" points="226.94,-60.22 236.3,-55.25 225.88,-53.3 226.94,-60.22"/>
</g>
<!-- Node5&#45;&gt;Node5 -->
<g id="edge5" class="edge">
<title>Node5&#45;&gt;Node5</title>
<path fill="none" stroke="#63b8ff" d="M146.07,-20.34C137.98,-28.98 144.29,-38 165,-38 176.32,-38 183.34,-35.3 186.05,-31.44"/>
<polygon fill="#63b8ff" stroke="#63b8ff" points="189.53,-30.99 184.21,-21.83 182.66,-32.31 189.53,-30.99"/>
</g>
</g>
</svg>
