<?xml version="1.0" encoding="UTF-8" standalone="no"?>
<!DOCTYPE svg PUBLIC "-//W3C//DTD SVG 1.1//EN"
 "http://www.w3.org/Graphics/SVG/1.1/DTD/svg11.dtd">
<!-- Generated by graphviz version 12.2.1 (20241206.2353)
 -->
<!-- Title: StageManager::updateStageProgress Pages: 1 -->
<svg width="522pt" height="228pt"
 viewBox="0.00 0.00 521.75 228.00" xmlns="http://www.w3.org/2000/svg" xmlns:xlink="http://www.w3.org/1999/xlink">
<g id="graph0" class="graph" transform="scale(1 1) rotate(0) translate(4 224)">
<title>StageManager::updateStageProgress</title>
<!-- Node1 -->
<g id="node1" class="node">
<title>Node1</title>
<g id="a_node1"><a xlink:title=" ">
<polygon fill="#999999" stroke="#666666" points="513.75,-120 374,-120 374,-88 513.75,-88 513.75,-120"/>
<text text-anchor="start" x="382" y="-106.5" font-family="Helvetica,sans-Serif" font-size="10.00">StageManager::updateStage</text>
<text text-anchor="middle" x="443.88" y="-94.5" font-family="Helvetica,sans-Serif" font-size="10.00">Progress</text>
</a>
</g>
</g>
<!-- Node2 -->
<g id="node2" class="node">
<title>Node2</title>
<g id="a_node2"><a xlink:href="classStageManager.html#aa50a207b4bb002e91b994673d7110be7" target="_top" xlink:title=" ">
<polygon fill="white" stroke="#666666" points="338,-220 166,-220 166,-188 338,-188 338,-220"/>
<text text-anchor="start" x="174" y="-206.5" font-family="Helvetica,sans-Serif" font-size="10.00">StageManager::incrementControlled</text>
<text text-anchor="middle" x="252" y="-194.5" font-family="Helvetica,sans-Serif" font-size="10.00">Buildings</text>
</a>
</g>
</g>
<!-- Node1&#45;&gt;Node2 -->
<g id="edge1" class="edge">
<title>Node1&#45;&gt;Node2</title>
<path fill="none" stroke="#63b8ff" d="M415.35,-127.62C395.09,-143.98 366.27,-165.22 338,-179 331.5,-182.17 324.52,-185.01 317.46,-187.55"/>
<polygon fill="#63b8ff" stroke="#63b8ff" points="417.35,-130.5 422.86,-121.45 412.91,-125.09 417.35,-130.5"/>
</g>
<!-- Node4 -->
<g id="node4" class="node">
<title>Node4</title>
<g id="a_node4"><a xlink:href="classStageManager.html#a46169ed08b6eb895734162126b0ee70e" target="_top" xlink:title=" ">
<polygon fill="white" stroke="#666666" points="336.88,-170 167.12,-170 167.12,-138 336.88,-138 336.88,-170"/>
<text text-anchor="start" x="175.12" y="-156.5" font-family="Helvetica,sans-Serif" font-size="10.00">StageManager::incrementRecruited</text>
<text text-anchor="middle" x="252" y="-144.5" font-family="Helvetica,sans-Serif" font-size="10.00">Civilians</text>
</a>
</g>
</g>
<!-- Node1&#45;&gt;Node4 -->
<g id="edge3" class="edge">
<title>Node1&#45;&gt;Node4</title>
<path fill="none" stroke="#63b8ff" d="M369.5,-123.32C351.66,-128.02 332.75,-133 315.47,-137.55"/>
<polygon fill="#63b8ff" stroke="#63b8ff" points="370.2,-126.76 378.98,-120.83 368.41,-119.99 370.2,-126.76"/>
</g>
<!-- Node6 -->
<g id="node6" class="node">
<title>Node6</title>
<g id="a_node6"><a xlink:href="classStageManager.html#ac9fcac19a624a0611dbd1c8133182c4a" target="_top" xlink:title=" ">
<polygon fill="white" stroke="#666666" points="324.88,-120 179.12,-120 179.12,-88 324.88,-88 324.88,-120"/>
<text text-anchor="start" x="187.12" y="-106.5" font-family="Helvetica,sans-Serif" font-size="10.00">StageManager::onWordAdded</text>
<text text-anchor="middle" x="252" y="-94.5" font-family="Helvetica,sans-Serif" font-size="10.00">ToDictionary</text>
</a>
</g>
</g>
<!-- Node1&#45;&gt;Node6 -->
<g id="edge5" class="edge">
<title>Node1&#45;&gt;Node6</title>
<path fill="none" stroke="#63b8ff" d="M362.35,-104C350.07,-104 337.45,-104 325.36,-104"/>
<polygon fill="#63b8ff" stroke="#63b8ff" points="362.01,-107.5 372.01,-104 362.01,-100.5 362.01,-107.5"/>
</g>
<!-- Node7 -->
<g id="node7" class="node">
<title>Node7</title>
<g id="a_node7"><a xlink:href="classStageManager.html#ab58f9153087ad978de72d17e37157612" target="_top" xlink:title=" ">
<polygon fill="white" stroke="#666666" points="330.12,-70 173.88,-70 173.88,-38 330.12,-38 330.12,-70"/>
<text text-anchor="start" x="181.88" y="-56.5" font-family="Helvetica,sans-Serif" font-size="10.00">StageManager::updateLanguage</text>
<text text-anchor="middle" x="252" y="-44.5" font-family="Helvetica,sans-Serif" font-size="10.00">Prestige</text>
</a>
</g>
</g>
<!-- Node1&#45;&gt;Node7 -->
<g id="edge6" class="edge">
<title>Node1&#45;&gt;Node7</title>
<path fill="none" stroke="#63b8ff" d="M369.5,-84.68C351.66,-79.98 332.75,-75 315.47,-70.45"/>
<polygon fill="#63b8ff" stroke="#63b8ff" points="368.41,-88.01 378.98,-87.17 370.2,-81.24 368.41,-88.01"/>
</g>
<!-- Node8 -->
<g id="node8" class="node">
<title>Node8</title>
<g id="a_node8"><a xlink:href="classStageManager.html#ae43a9ae3325c6cb437d3db0303100ffb" target="_top" xlink:title=" ">
<polygon fill="white" stroke="#666666" points="336.88,-20 167.12,-20 167.12,0 336.88,0 336.88,-20"/>
<text text-anchor="middle" x="252" y="-6.5" font-family="Helvetica,sans-Serif" font-size="10.00">StageManager::updateLiteracyRate</text>
</a>
</g>
</g>
<!-- Node1&#45;&gt;Node8 -->
<g id="edge7" class="edge">
<title>Node1&#45;&gt;Node8</title>
<path fill="none" stroke="#63b8ff" d="M416.36,-80.42C396.2,-63.7 367.06,-41.99 338,-29 330.41,-25.61 322.15,-22.79 313.87,-20.47"/>
<polygon fill="#63b8ff" stroke="#63b8ff" points="413.91,-82.93 423.81,-86.73 418.44,-77.59 413.91,-82.93"/>
</g>
<!-- Node3 -->
<g id="node3" class="node">
<title>Node3</title>
<g id="a_node3"><a xlink:href="classStageManager.html#a3fcec7d9fd645c2442fa96eed565ed97" target="_top" xlink:title=" ">
<polygon fill="white" stroke="#666666" points="130,-220 0,-220 0,-188 130,-188 130,-220"/>
<text text-anchor="start" x="8" y="-206.5" font-family="Helvetica,sans-Serif" font-size="10.00">StageManager::onBuilding</text>
<text text-anchor="middle" x="65" y="-194.5" font-family="Helvetica,sans-Serif" font-size="10.00">Captured</text>
</a>
</g>
</g>
<!-- Node2&#45;&gt;Node3 -->
<g id="edge2" class="edge">
<title>Node2&#45;&gt;Node3</title>
<path fill="none" stroke="#63b8ff" d="M154.15,-204C146.09,-204 138.08,-204 130.35,-204"/>
<polygon fill="#63b8ff" stroke="#63b8ff" points="154.03,-207.5 164.03,-204 154.03,-200.5 154.03,-207.5"/>
</g>
<!-- Node5 -->
<g id="node5" class="node">
<title>Node5</title>
<g id="a_node5"><a xlink:href="classStageManager.html#a29a9f4b7e5fb02ceb8da2fbd58add3ab" target="_top" xlink:title=" ">
<polygon fill="white" stroke="#666666" points="128.88,-170 1.12,-170 1.12,-138 128.88,-138 128.88,-170"/>
<text text-anchor="start" x="9.12" y="-156.5" font-family="Helvetica,sans-Serif" font-size="10.00">StageManager::onCivilian</text>
<text text-anchor="middle" x="65" y="-144.5" font-family="Helvetica,sans-Serif" font-size="10.00">Recruited</text>
</a>
</g>
</g>
<!-- Node4&#45;&gt;Node5 -->
<g id="edge4" class="edge">
<title>Node4&#45;&gt;Node5</title>
<path fill="none" stroke="#63b8ff" d="M155.55,-154C146.6,-154 137.68,-154 129.14,-154"/>
<polygon fill="#63b8ff" stroke="#63b8ff" points="155.38,-157.5 165.38,-154 155.38,-150.5 155.38,-157.5"/>
</g>
</g>
</svg>
