<?xml version="1.0" encoding="UTF-8" standalone="no"?>
<!DOCTYPE svg PUBLIC "-//W3C//DTD SVG 1.1//EN"
 "http://www.w3.org/Graphics/SVG/1.1/DTD/svg11.dtd">
<!-- Generated by graphviz version 12.2.1 (20241206.2353)
 -->
<!-- Title: TurnManager::endTurn Pages: 1 -->
<svg width="447pt" height="134pt"
 viewBox="0.00 0.00 446.75 134.00" xmlns="http://www.w3.org/2000/svg" xmlns:xlink="http://www.w3.org/1999/xlink">
<g id="graph0" class="graph" transform="scale(1 1) rotate(0) translate(4 130)">
<title>TurnManager::endTurn</title>
<!-- Node1 -->
<g id="node1" class="node">
<title>Node1</title>
<g id="a_node1"><a xlink:title=" ">
<polygon fill="#999999" stroke="#666666" points="114.25,-70 0,-70 0,-50 114.25,-50 114.25,-70"/>
<text text-anchor="middle" x="57.12" y="-56.5" font-family="Helvetica,sans-Serif" font-size="10.00">TurnManager::endTurn</text>
</a>
</g>
</g>
<!-- Node2 -->
<g id="node2" class="node">
<title>Node2</title>
<g id="a_node2"><a xlink:href="classActionFormationManager.html#ab6c97337bf2f94a7c2f16957b4b04b63" target="_top" xlink:title=" ">
<polygon fill="white" stroke="#666666" points="275,-126 150.25,-126 150.25,-94 275,-94 275,-126"/>
<text text-anchor="start" x="158.25" y="-112.5" font-family="Helvetica,sans-Serif" font-size="10.00">ActionFormationManager</text>
<text text-anchor="middle" x="212.62" y="-100.5" font-family="Helvetica,sans-Serif" font-size="10.00">::cancelFormation</text>
</a>
</g>
</g>
<!-- Node1&#45;&gt;Node2 -->
<g id="edge1" class="edge">
<title>Node1&#45;&gt;Node2</title>
<path fill="none" stroke="#63b8ff" d="M90.3,-70.48C107.67,-76.14 129.69,-83.31 150.19,-89.99"/>
<polygon fill="#63b8ff" stroke="#63b8ff" points="149.03,-93.29 159.62,-93.06 151.2,-86.63 149.03,-93.29"/>
</g>
<!-- Node3 -->
<g id="node3" class="node">
<title>Node3</title>
<g id="a_node3"><a xlink:href="classActionFormationManager.html#a496649a3ab5ac5f173239d18857b6065" target="_top" xlink:title=" ">
<polygon fill="white" stroke="#666666" points="275,-76 150.25,-76 150.25,-44 275,-44 275,-76"/>
<text text-anchor="start" x="158.25" y="-62.5" font-family="Helvetica,sans-Serif" font-size="10.00">ActionFormationManager</text>
<text text-anchor="middle" x="212.62" y="-50.5" font-family="Helvetica,sans-Serif" font-size="10.00">::isFormationInProgress</text>
</a>
</g>
</g>
<!-- Node1&#45;&gt;Node3 -->
<g id="edge2" class="edge">
<title>Node1&#45;&gt;Node3</title>
<path fill="none" stroke="#63b8ff" d="M114.41,-60C122.26,-60 130.42,-60 138.53,-60"/>
<polygon fill="#63b8ff" stroke="#63b8ff" points="138.4,-63.5 148.4,-60 138.4,-56.5 138.4,-63.5"/>
</g>
<!-- Node4 -->
<g id="node4" class="node">
<title>Node4</title>
<g id="a_node4"><a xlink:href="classTurnManager.html#af1bba901d1410ce5418213270b5388cd" target="_top" xlink:title=" ">
<polygon fill="white" stroke="#666666" points="271.62,-26 153.62,-26 153.62,-6 271.62,-6 271.62,-26"/>
<text text-anchor="middle" x="212.62" y="-12.5" font-family="Helvetica,sans-Serif" font-size="10.00">TurnManager::startTurn</text>
</a>
</g>
</g>
<!-- Node1&#45;&gt;Node4 -->
<g id="edge3" class="edge">
<title>Node1&#45;&gt;Node4</title>
<path fill="none" stroke="#63b8ff" d="M94.5,-49.57C115.36,-43.59 141.78,-36.02 164.24,-29.58"/>
<polygon fill="#63b8ff" stroke="#63b8ff" points="165.14,-32.97 173.79,-26.85 163.21,-26.24 165.14,-32.97"/>
</g>
<!-- Node5 -->
<g id="node5" class="node">
<title>Node5</title>
<g id="a_node5"><a xlink:href="classActionResolutionManager.html#ab0df536666191614ab0d1b1fd4c87610" target="_top" xlink:title=" ">
<polygon fill="white" stroke="#666666" points="438.75,-32 311,-32 311,0 438.75,0 438.75,-32"/>
<text text-anchor="start" x="319" y="-18.5" font-family="Helvetica,sans-Serif" font-size="10.00">ActionResolutionManager</text>
<text text-anchor="middle" x="374.88" y="-6.5" font-family="Helvetica,sans-Serif" font-size="10.00">::processFutureActions</text>
</a>
</g>
</g>
<!-- Node4&#45;&gt;Node5 -->
<g id="edge4" class="edge">
<title>Node4&#45;&gt;Node5</title>
<path fill="none" stroke="#63b8ff" d="M271.93,-16C280.9,-16 290.27,-16 299.53,-16"/>
<polygon fill="#63b8ff" stroke="#63b8ff" points="299.23,-19.5 309.23,-16 299.23,-12.5 299.23,-19.5"/>
</g>
</g>
</svg>
