<?xml version="1.0" encoding="UTF-8" standalone="no"?>
<!DOCTYPE svg PUBLIC "-//W3C//DTD SVG 1.1//EN"
 "http://www.w3.org/Graphics/SVG/1.1/DTD/svg11.dtd">
<!-- Generated by graphviz version 12.2.1 (20241206.2353)
 -->
<!-- Title: basic_json::from_ubjson Pages: 1 -->
<svg width="672pt" height="91pt"
 viewBox="0.00 0.00 671.50 91.00" xmlns="http://www.w3.org/2000/svg" xmlns:xlink="http://www.w3.org/1999/xlink">
<g id="graph0" class="graph" transform="scale(1 1) rotate(0) translate(4 87)">
<title>basic_json::from_ubjson</title>
<!-- Node1 -->
<g id="node1" class="node">
<title>Node1</title>
<g id="a_node1"><a xlink:title="create a JSON value from an input in UBJSON format">
<polygon fill="#999999" stroke="#666666" points="121.75,-64 0,-64 0,-44 121.75,-44 121.75,-64"/>
<text text-anchor="middle" x="60.88" y="-50.5" font-family="Helvetica,sans-Serif" font-size="10.00">basic_json::from_ubjson</text>
</a>
</g>
</g>
<!-- Node2 -->
<g id="node2" class="node">
<title>Node2</title>
<g id="a_node2"><a xlink:href="namespacedetail.html#aada1510d1b55ad2faf4a71c70cffb374" target="_top" xlink:title=" ">
<polygon fill="white" stroke="#666666" points="411,-83 307.25,-83 307.25,-63 411,-63 411,-83"/>
<text text-anchor="middle" x="359.12" y="-69.5" font-family="Helvetica,sans-Serif" font-size="10.00">detail::input_adapter</text>
</a>
</g>
</g>
<!-- Node1&#45;&gt;Node2 -->
<g id="edge1" class="edge">
<title>Node1&#45;&gt;Node2</title>
<path fill="none" stroke="#63b8ff" d="M122.18,-57.87C172.67,-61.11 244.46,-65.71 295.57,-68.99"/>
<polygon fill="#63b8ff" stroke="#63b8ff" points="295.08,-72.46 305.28,-69.61 295.53,-65.48 295.08,-72.46"/>
</g>
<!-- Node3 -->
<g id="node3" class="node">
<title>Node3</title>
<g id="a_node3"><a xlink:href="classbasic__json.html#a602b1c389d92f2c7db21f89bb6fb9817" target="_top" xlink:title=" ">
<polygon fill="white" stroke="#666666" points="271.25,-45 157.75,-45 157.75,-25 271.25,-25 271.25,-45"/>
<text text-anchor="middle" x="214.5" y="-31.5" font-family="Helvetica,sans-Serif" font-size="10.00">basic_json::sax_parse</text>
</a>
</g>
</g>
<!-- Node1&#45;&gt;Node3 -->
<g id="edge2" class="edge">
<title>Node1&#45;&gt;Node3</title>
<path fill="none" stroke="#63b8ff" d="M122.24,-46.44C130.01,-45.46 138,-44.46 145.87,-43.47"/>
<polygon fill="#63b8ff" stroke="#63b8ff" points="146.3,-46.95 155.78,-42.23 145.43,-40 146.3,-46.95"/>
</g>
<!-- Node3&#45;&gt;Node2 -->
<g id="edge3" class="edge">
<title>Node3&#45;&gt;Node2</title>
<path fill="none" stroke="#63b8ff" d="M254.85,-45.48C271.22,-49.85 290.42,-54.96 307.8,-59.59"/>
<polygon fill="#63b8ff" stroke="#63b8ff" points="306.88,-62.97 317.44,-62.16 308.68,-56.2 306.88,-62.97"/>
</g>
<!-- Node4 -->
<g id="node4" class="node">
<title>Node4</title>
<g id="a_node4"><a xlink:href="classdetail_1_1binary__reader.html#a8e1b5452ae426e1d7b48761859e7f52d" target="_top" xlink:title=" ">
<polygon fill="white" stroke="#666666" points="411,-45 307.25,-45 307.25,-13 411,-13 411,-45"/>
<text text-anchor="start" x="315.25" y="-31.5" font-family="Helvetica,sans-Serif" font-size="10.00">detail::binary_reader</text>
<text text-anchor="middle" x="359.12" y="-19.5" font-family="Helvetica,sans-Serif" font-size="10.00">::sax_parse</text>
</a>
</g>
</g>
<!-- Node3&#45;&gt;Node4 -->
<g id="edge4" class="edge">
<title>Node3&#45;&gt;Node4</title>
<path fill="none" stroke="#63b8ff" d="M271.46,-32.65C279.42,-32.31 287.64,-31.97 295.71,-31.63"/>
<polygon fill="#63b8ff" stroke="#63b8ff" points="295.62,-35.13 305.46,-31.22 295.32,-28.14 295.62,-35.13"/>
</g>
<!-- Node5 -->
<g id="node5" class="node">
<title>Node5</title>
<g id="a_node5"><a xlink:href="namespacedetail.html#a266fb3d4bf633ad6c506434cc91164da" target="_top" xlink:title=" ">
<polygon fill="white" stroke="#666666" points="521.5,-58 447,-58 447,-38 521.5,-38 521.5,-58"/>
<text text-anchor="middle" x="484.25" y="-44.5" font-family="Helvetica,sans-Serif" font-size="10.00">detail::concat</text>
</a>
</g>
</g>
<!-- Node4&#45;&gt;Node5 -->
<g id="edge5" class="edge">
<title>Node4&#45;&gt;Node5</title>
<path fill="none" stroke="#63b8ff" d="M411.27,-36.89C419.26,-38.13 427.49,-39.4 435.41,-40.62"/>
<polygon fill="#63b8ff" stroke="#63b8ff" points="434.79,-44.06 445.21,-42.13 435.86,-37.15 434.79,-44.06"/>
</g>
<!-- Node8 -->
<g id="node8" class="node">
<title>Node8</title>
<g id="a_node8"><a xlink:href="namespacedetail.html#a7116703ea757fe9821bf2e903b91c160" target="_top" xlink:title=" ">
<polygon fill="white" stroke="#666666" points="513.62,-20 454.88,-20 454.88,0 513.62,0 513.62,-20"/>
<text text-anchor="middle" x="484.25" y="-6.5" font-family="Helvetica,sans-Serif" font-size="10.00">detail::get</text>
</a>
</g>
</g>
<!-- Node4&#45;&gt;Node8 -->
<g id="edge8" class="edge">
<title>Node4&#45;&gt;Node8</title>
<path fill="none" stroke="#63b8ff" d="M411.27,-21.11C422.02,-19.45 433.21,-17.72 443.48,-16.14"/>
<polygon fill="#63b8ff" stroke="#63b8ff" points="443.75,-19.64 453.1,-14.65 442.68,-12.72 443.75,-19.64"/>
</g>
<!-- Node6 -->
<g id="node6" class="node">
<title>Node6</title>
<g id="a_node6"><a xlink:href="namespacedetail.html#a89f967b745cf8df11ba9d59f93d97753" target="_top" xlink:title=" ">
<polygon fill="white" stroke="#666666" points="658.25,-77 562.75,-77 562.75,-57 658.25,-57 658.25,-77"/>
<text text-anchor="middle" x="610.5" y="-63.5" font-family="Helvetica,sans-Serif" font-size="10.00">detail::concat_into</text>
</a>
</g>
</g>
<!-- Node5&#45;&gt;Node6 -->
<g id="edge6" class="edge">
<title>Node5&#45;&gt;Node6</title>
<path fill="none" stroke="#63b8ff" d="M521.86,-53.6C531.11,-55.01 541.29,-56.57 551.32,-58.1"/>
<polygon fill="#63b8ff" stroke="#63b8ff" points="550.63,-61.54 561.04,-59.59 551.69,-54.62 550.63,-61.54"/>
</g>
<!-- Node7 -->
<g id="node7" class="node">
<title>Node7</title>
<g id="a_node7"><a xlink:href="namespacedetail.html#ac185140ed8c8fcc07a302a890b714b0d" target="_top" xlink:title=" ">
<polygon fill="white" stroke="#666666" points="663.5,-39 557.5,-39 557.5,-19 663.5,-19 663.5,-39"/>
<text text-anchor="middle" x="610.5" y="-25.5" font-family="Helvetica,sans-Serif" font-size="10.00">detail::concat_length</text>
</a>
</g>
</g>
<!-- Node5&#45;&gt;Node7 -->
<g id="edge7" class="edge">
<title>Node5&#45;&gt;Node7</title>
<path fill="none" stroke="#63b8ff" d="M521.86,-42.4C529.44,-41.24 537.63,-39.99 545.86,-38.73"/>
<polygon fill="#63b8ff" stroke="#63b8ff" points="546.19,-42.22 555.55,-37.25 545.13,-35.3 546.19,-42.22"/>
</g>
</g>
</svg>
