<?xml version="1.0" encoding="UTF-8" standalone="no"?>
<!DOCTYPE svg PUBLIC "-//W3C//DTD SVG 1.1//EN"
 "http://www.w3.org/Graphics/SVG/1.1/DTD/svg11.dtd">
<!-- Generated by graphviz version 12.2.1 (20241206.2353)
 -->
<!-- Title: SceneCombat::sValidateSemanticChain Pages: 1 -->
<svg width="541pt" height="40pt"
 viewBox="0.00 0.00 540.50 40.00" xmlns="http://www.w3.org/2000/svg" xmlns:xlink="http://www.w3.org/1999/xlink">
<g id="graph0" class="graph" transform="scale(1 1) rotate(0) translate(4 36)">
<title>SceneCombat::sValidateSemanticChain</title>
<!-- Node1 -->
<g id="node1" class="node">
<title>Node1</title>
<g id="a_node1"><a xlink:title=" ">
<polygon fill="#999999" stroke="#666666" points="532.5,-32 367.25,-32 367.25,0 532.5,0 532.5,-32"/>
<text text-anchor="start" x="375.25" y="-18.5" font-family="Helvetica,sans-Serif" font-size="10.00">SceneCombat::sValidateSemantic</text>
<text text-anchor="middle" x="449.88" y="-6.5" font-family="Helvetica,sans-Serif" font-size="10.00">Chain</text>
</a>
</g>
</g>
<!-- Node2 -->
<g id="node2" class="node">
<title>Node2</title>
<g id="a_node2"><a xlink:href="classSceneCombat.html#a76d841c8792a343487dfb6d19d82b0b1" target="_top" xlink:title=" ">
<polygon fill="white" stroke="#666666" points="331.25,-26 166,-26 166,-6 331.25,-6 331.25,-26"/>
<text text-anchor="middle" x="248.62" y="-12.5" font-family="Helvetica,sans-Serif" font-size="10.00">SceneCombat::sAddWordToChain</text>
</a>
</g>
</g>
<!-- Node1&#45;&gt;Node2 -->
<g id="edge1" class="edge">
<title>Node1&#45;&gt;Node2</title>
<path fill="none" stroke="#63b8ff" d="M355.65,-16C347.59,-16 339.49,-16 331.53,-16"/>
<polygon fill="#63b8ff" stroke="#63b8ff" points="355.46,-19.5 365.46,-16 355.46,-12.5 355.46,-19.5"/>
</g>
<!-- Node3 -->
<g id="node3" class="node">
<title>Node3</title>
<g id="a_node3"><a xlink:href="classSceneCombat.html#a37f6cbef92fa92fc1532dafd265aefc5" target="_top" xlink:title=" ">
<polygon fill="white" stroke="#666666" points="130,-26 0,-26 0,-6 130,-6 130,-26"/>
<text text-anchor="middle" x="65" y="-12.5" font-family="Helvetica,sans-Serif" font-size="10.00">SceneCombat::sDoAction</text>
</a>
</g>
</g>
<!-- Node2&#45;&gt;Node3 -->
<g id="edge2" class="edge">
<title>Node2&#45;&gt;Node3</title>
<path fill="none" stroke="#63b8ff" d="M154.16,-16C146.08,-16 138.03,-16 130.26,-16"/>
<polygon fill="#63b8ff" stroke="#63b8ff" points="154.07,-19.5 164.07,-16 154.07,-12.5 154.07,-19.5"/>
</g>
</g>
</svg>
