<?xml version="1.0" encoding="UTF-8" standalone="no"?>
<!DOCTYPE svg PUBLIC "-//W3C//DTD SVG 1.1//EN"
 "http://www.w3.org/Graphics/SVG/1.1/DTD/svg11.dtd">
<!-- Generated by graphviz version 12.2.1 (20241206.2353)
 -->
<!-- Title: detail::binary_reader::sax_parse Pages: 1 -->
<svg width="364pt" height="85pt"
 viewBox="0.00 0.00 364.25 85.00" xmlns="http://www.w3.org/2000/svg" xmlns:xlink="http://www.w3.org/1999/xlink">
<g id="graph0" class="graph" transform="scale(1 1) rotate(0) translate(4 81)">
<title>detail::binary_reader::sax_parse</title>
<!-- Node1 -->
<g id="node1" class="node">
<title>Node1</title>
<g id="a_node1"><a xlink:title=" ">
<polygon fill="#999999" stroke="#666666" points="103.75,-45 0,-45 0,-13 103.75,-13 103.75,-45"/>
<text text-anchor="start" x="8" y="-31.5" font-family="Helvetica,sans-Serif" font-size="10.00">detail::binary_reader</text>
<text text-anchor="middle" x="51.88" y="-19.5" font-family="Helvetica,sans-Serif" font-size="10.00">::sax_parse</text>
</a>
</g>
</g>
<!-- Node2 -->
<g id="node2" class="node">
<title>Node2</title>
<g id="a_node2"><a xlink:href="namespacedetail.html#a266fb3d4bf633ad6c506434cc91164da" target="_top" xlink:title=" ">
<polygon fill="white" stroke="#666666" points="214.25,-58 139.75,-58 139.75,-38 214.25,-38 214.25,-58"/>
<text text-anchor="middle" x="177" y="-44.5" font-family="Helvetica,sans-Serif" font-size="10.00">detail::concat</text>
</a>
</g>
</g>
<!-- Node1&#45;&gt;Node2 -->
<g id="edge1" class="edge">
<title>Node1&#45;&gt;Node2</title>
<path fill="none" stroke="#63b8ff" d="M104.02,-36.89C112.01,-38.13 120.24,-39.4 128.16,-40.62"/>
<polygon fill="#63b8ff" stroke="#63b8ff" points="127.54,-44.06 137.96,-42.13 128.61,-37.15 127.54,-44.06"/>
</g>
<!-- Node5 -->
<g id="node5" class="node">
<title>Node5</title>
<g id="a_node5"><a xlink:href="namespacedetail.html#a7116703ea757fe9821bf2e903b91c160" target="_top" xlink:title=" ">
<polygon fill="white" stroke="#666666" points="206.38,-20 147.62,-20 147.62,0 206.38,0 206.38,-20"/>
<text text-anchor="middle" x="177" y="-6.5" font-family="Helvetica,sans-Serif" font-size="10.00">detail::get</text>
</a>
</g>
</g>
<!-- Node1&#45;&gt;Node5 -->
<g id="edge4" class="edge">
<title>Node1&#45;&gt;Node5</title>
<path fill="none" stroke="#63b8ff" d="M104.02,-21.11C114.77,-19.45 125.96,-17.72 136.23,-16.14"/>
<polygon fill="#63b8ff" stroke="#63b8ff" points="136.5,-19.64 145.85,-14.65 135.43,-12.72 136.5,-19.64"/>
</g>
<!-- Node3 -->
<g id="node3" class="node">
<title>Node3</title>
<g id="a_node3"><a xlink:href="namespacedetail.html#a89f967b745cf8df11ba9d59f93d97753" target="_top" xlink:title=" ">
<polygon fill="white" stroke="#666666" points="351,-77 255.5,-77 255.5,-57 351,-57 351,-77"/>
<text text-anchor="middle" x="303.25" y="-63.5" font-family="Helvetica,sans-Serif" font-size="10.00">detail::concat_into</text>
</a>
</g>
</g>
<!-- Node2&#45;&gt;Node3 -->
<g id="edge2" class="edge">
<title>Node2&#45;&gt;Node3</title>
<path fill="none" stroke="#63b8ff" d="M214.61,-53.6C223.86,-55.01 234.04,-56.57 244.07,-58.1"/>
<polygon fill="#63b8ff" stroke="#63b8ff" points="243.38,-61.54 253.79,-59.59 244.44,-54.62 243.38,-61.54"/>
</g>
<!-- Node4 -->
<g id="node4" class="node">
<title>Node4</title>
<g id="a_node4"><a xlink:href="namespacedetail.html#ac185140ed8c8fcc07a302a890b714b0d" target="_top" xlink:title=" ">
<polygon fill="white" stroke="#666666" points="356.25,-39 250.25,-39 250.25,-19 356.25,-19 356.25,-39"/>
<text text-anchor="middle" x="303.25" y="-25.5" font-family="Helvetica,sans-Serif" font-size="10.00">detail::concat_length</text>
</a>
</g>
</g>
<!-- Node2&#45;&gt;Node4 -->
<g id="edge3" class="edge">
<title>Node2&#45;&gt;Node4</title>
<path fill="none" stroke="#63b8ff" d="M214.61,-42.4C222.19,-41.24 230.38,-39.99 238.61,-38.73"/>
<polygon fill="#63b8ff" stroke="#63b8ff" points="238.94,-42.22 248.3,-37.25 237.88,-35.3 238.94,-42.22"/>
</g>
</g>
</svg>
