<?xml version="1.0" encoding="UTF-8" standalone="no"?>
<!DOCTYPE svg PUBLIC "-//W3C//DTD SVG 1.1//EN"
 "http://www.w3.org/Graphics/SVG/1.1/DTD/svg11.dtd">
<!-- Generated by graphviz version 12.2.1 (20241206.2353)
 -->
<!-- Title: StageManager::onWordAddedToDictionary Pages: 1 -->
<svg width="852pt" height="90pt"
 viewBox="0.00 0.00 852.25 90.00" xmlns="http://www.w3.org/2000/svg" xmlns:xlink="http://www.w3.org/1999/xlink">
<g id="graph0" class="graph" transform="scale(1 1) rotate(0) translate(4 86)">
<title>StageManager::onWordAddedToDictionary</title>
<!-- Node1 -->
<g id="node1" class="node">
<title>Node1</title>
<g id="a_node1"><a xlink:title=" ">
<polygon fill="#999999" stroke="#666666" points="145.75,-57 0,-57 0,-25 145.75,-25 145.75,-57"/>
<text text-anchor="start" x="8" y="-43.5" font-family="Helvetica,sans-Serif" font-size="10.00">StageManager::onWordAdded</text>
<text text-anchor="middle" x="72.88" y="-31.5" font-family="Helvetica,sans-Serif" font-size="10.00">ToDictionary</text>
</a>
</g>
</g>
<!-- Node2 -->
<g id="node2" class="node">
<title>Node2</title>
<g id="a_node2"><a xlink:href="classStageManager.html#a022eba9080a05e9803c94017c30e62b9" target="_top" xlink:title=" ">
<polygon fill="white" stroke="#666666" points="321.5,-57 181.75,-57 181.75,-25 321.5,-25 321.5,-57"/>
<text text-anchor="start" x="189.75" y="-43.5" font-family="Helvetica,sans-Serif" font-size="10.00">StageManager::updateStage</text>
<text text-anchor="middle" x="251.62" y="-31.5" font-family="Helvetica,sans-Serif" font-size="10.00">Progress</text>
</a>
</g>
</g>
<!-- Node1&#45;&gt;Node2 -->
<g id="edge1" class="edge">
<title>Node1&#45;&gt;Node2</title>
<path fill="none" stroke="#63b8ff" d="M146.02,-41C153.94,-41 162.03,-41 170.04,-41"/>
<polygon fill="#63b8ff" stroke="#63b8ff" points="169.77,-44.5 179.77,-41 169.77,-37.5 169.77,-44.5"/>
</g>
<!-- Node3 -->
<g id="node3" class="node">
<title>Node3</title>
<g id="a_node3"><a xlink:href="classStageManager.html#afb140761eee14fdbb97386d747bf2be9" target="_top" xlink:title=" ">
<polygon fill="white" stroke="#666666" points="510.75,-82 357.5,-82 357.5,-50 510.75,-50 510.75,-82"/>
<text text-anchor="start" x="365.5" y="-68.5" font-family="Helvetica,sans-Serif" font-size="10.00">StageManager::advanceToNext</text>
<text text-anchor="middle" x="434.12" y="-56.5" font-family="Helvetica,sans-Serif" font-size="10.00">Stage</text>
</a>
</g>
</g>
<!-- Node2&#45;&gt;Node3 -->
<g id="edge2" class="edge">
<title>Node2&#45;&gt;Node3</title>
<path fill="none" stroke="#63b8ff" d="M321.89,-50.59C329.73,-51.68 337.8,-52.8 345.83,-53.91"/>
<polygon fill="#63b8ff" stroke="#63b8ff" points="345.25,-57.36 355.63,-55.27 346.21,-50.43 345.25,-57.36"/>
</g>
<!-- Node6 -->
<g id="node6" class="node">
<title>Node6</title>
<g id="a_node6"><a xlink:href="classStageManager.html#aaa19b5d58ad75bc7ba9e5d44dd406e0d" target="_top" xlink:title=" ">
<polygon fill="white" stroke="#666666" points="502.5,-32 365.75,-32 365.75,0 502.5,0 502.5,-32"/>
<text text-anchor="start" x="373.75" y="-18.5" font-family="Helvetica,sans-Serif" font-size="10.00">StageManager::checkStage</text>
<text text-anchor="middle" x="434.12" y="-6.5" font-family="Helvetica,sans-Serif" font-size="10.00">Completion</text>
</a>
</g>
</g>
<!-- Node2&#45;&gt;Node6 -->
<g id="edge5" class="edge">
<title>Node2&#45;&gt;Node6</title>
<path fill="none" stroke="#63b8ff" d="M321.89,-31.41C332.52,-29.93 343.56,-28.41 354.37,-26.91"/>
<polygon fill="#63b8ff" stroke="#63b8ff" points="354.6,-30.41 364.03,-25.57 353.64,-23.48 354.6,-30.41"/>
</g>
<!-- Node4 -->
<g id="node4" class="node">
<title>Node4</title>
<g id="a_node4"><a xlink:href="classStageManager.html#aa791077a0a66151f565eb33fbe43a7bd" target="_top" xlink:title=" ">
<polygon fill="white" stroke="#666666" points="677.5,-82 546.75,-82 546.75,-50 677.5,-50 677.5,-82"/>
<text text-anchor="start" x="554.75" y="-68.5" font-family="Helvetica,sans-Serif" font-size="10.00">StageManager::getCurrent</text>
<text text-anchor="middle" x="612.12" y="-56.5" font-family="Helvetica,sans-Serif" font-size="10.00">StageName</text>
</a>
</g>
</g>
<!-- Node3&#45;&gt;Node4 -->
<g id="edge3" class="edge">
<title>Node3&#45;&gt;Node4</title>
<path fill="none" stroke="#63b8ff" d="M511.04,-66C518.98,-66 527.05,-66 534.99,-66"/>
<polygon fill="#63b8ff" stroke="#63b8ff" points="534.99,-69.5 544.99,-66 534.99,-62.5 534.99,-69.5"/>
</g>
<!-- Node5 -->
<g id="node5" class="node">
<title>Node5</title>
<g id="a_node5"><a xlink:href="classStageManager.html#ae2213154056ba26e326de04c69a962d8" target="_top" xlink:title=" ">
<polygon fill="white" stroke="#666666" points="844.25,-82 713.5,-82 713.5,-50 844.25,-50 844.25,-82"/>
<text text-anchor="start" x="721.5" y="-68.5" font-family="Helvetica,sans-Serif" font-size="10.00">StageManager::getCurrent</text>
<text text-anchor="middle" x="778.88" y="-56.5" font-family="Helvetica,sans-Serif" font-size="10.00">StageData</text>
</a>
</g>
</g>
<!-- Node4&#45;&gt;Node5 -->
<g id="edge4" class="edge">
<title>Node4&#45;&gt;Node5</title>
<path fill="none" stroke="#63b8ff" d="M677.77,-66C685.67,-66 693.8,-66 701.85,-66"/>
<polygon fill="#63b8ff" stroke="#63b8ff" points="701.64,-69.5 711.64,-66 701.64,-62.5 701.64,-69.5"/>
</g>
</g>
</svg>
