<?xml version="1.0" encoding="UTF-8" standalone="no"?>
<!DOCTYPE svg PUBLIC "-//W3C//DTD SVG 1.1//EN"
 "http://www.w3.org/Graphics/SVG/1.1/DTD/svg11.dtd">
<!-- Generated by graphviz version 12.2.1 (20241206.2353)
 -->
<!-- Title: detail::binary_reader::sax_parse Pages: 1 -->
<svg width="430pt" height="180pt"
 viewBox="0.00 0.00 430.25 180.00" xmlns="http://www.w3.org/2000/svg" xmlns:xlink="http://www.w3.org/1999/xlink">
<g id="graph0" class="graph" transform="scale(1 1) rotate(0) translate(4 176)">
<title>detail::binary_reader::sax_parse</title>
<!-- Node1 -->
<g id="node1" class="node">
<title>Node1</title>
<g id="a_node1"><a xlink:title=" ">
<polygon fill="#999999" stroke="#666666" points="422.25,-102 318.5,-102 318.5,-70 422.25,-70 422.25,-102"/>
<text text-anchor="start" x="326.5" y="-88.5" font-family="Helvetica,sans-Serif" font-size="10.00">detail::binary_reader</text>
<text text-anchor="middle" x="370.38" y="-76.5" font-family="Helvetica,sans-Serif" font-size="10.00">::sax_parse</text>
</a>
</g>
</g>
<!-- Node2 -->
<g id="node2" class="node">
<title>Node2</title>
<g id="a_node2"><a xlink:href="classbasic__json.html#a602b1c389d92f2c7db21f89bb6fb9817" target="_top" xlink:title=" ">
<polygon fill="white" stroke="#666666" points="282.5,-96 169,-96 169,-76 282.5,-76 282.5,-96"/>
<text text-anchor="middle" x="225.75" y="-82.5" font-family="Helvetica,sans-Serif" font-size="10.00">basic_json::sax_parse</text>
</a>
</g>
</g>
<!-- Node1&#45;&gt;Node2 -->
<g id="edge1" class="edge">
<title>Node1&#45;&gt;Node2</title>
<path fill="none" stroke="#63b8ff" d="M307.03,-86C298.97,-86 290.75,-86 282.8,-86"/>
<polygon fill="#63b8ff" stroke="#63b8ff" points="306.77,-89.5 316.77,-86 306.77,-82.5 306.77,-89.5"/>
</g>
<!-- Node3 -->
<g id="node3" class="node">
<title>Node3</title>
<g id="a_node3"><a xlink:href="classbasic__json.html#a59327f708c0555e2928487bcddf71293" target="_top" xlink:title="create a JSON value from an input in BJData format">
<polygon fill="white" stroke="#666666" points="126.25,-172 6.75,-172 6.75,-152 126.25,-152 126.25,-172"/>
<text text-anchor="middle" x="66.5" y="-158.5" font-family="Helvetica,sans-Serif" font-size="10.00">basic_json::from_bjdata</text>
</a>
</g>
</g>
<!-- Node2&#45;&gt;Node3 -->
<g id="edge2" class="edge">
<title>Node2&#45;&gt;Node3</title>
<path fill="none" stroke="#63b8ff" d="M201.45,-102.97C183.47,-115.44 157.6,-132.04 133,-143 125.75,-146.23 117.81,-149.07 110.04,-151.5"/>
<polygon fill="#63b8ff" stroke="#63b8ff" points="203.43,-105.86 209.57,-97.24 199.39,-100.15 203.43,-105.86"/>
</g>
<!-- Node4 -->
<g id="node4" class="node">
<title>Node4</title>
<g id="a_node4"><a xlink:href="classbasic__json.html#a4b0dfca88b11ea59a2568707767622d8" target="_top" xlink:title="create a JSON value from an input in BSON format">
<polygon fill="white" stroke="#666666" points="123.62,-134 9.37,-134 9.37,-114 123.62,-114 123.62,-134"/>
<text text-anchor="middle" x="66.5" y="-120.5" font-family="Helvetica,sans-Serif" font-size="10.00">basic_json::from_bson</text>
</a>
</g>
</g>
<!-- Node2&#45;&gt;Node4 -->
<g id="edge3" class="edge">
<title>Node2&#45;&gt;Node4</title>
<path fill="none" stroke="#63b8ff" d="M170.2,-99.18C150.75,-103.88 129.12,-109.11 110.74,-113.55"/>
<polygon fill="#63b8ff" stroke="#63b8ff" points="171,-102.59 179.89,-96.84 169.35,-95.79 171,-102.59"/>
</g>
<!-- Node5 -->
<g id="node5" class="node">
<title>Node5</title>
<g id="a_node5"><a xlink:href="classbasic__json.html#a5bc3c67eaf6e9b22c8b446f9695249e9" target="_top" xlink:title="create a JSON value from an input in CBOR format">
<polygon fill="white" stroke="#666666" points="122.5,-96 10.5,-96 10.5,-76 122.5,-76 122.5,-96"/>
<text text-anchor="middle" x="66.5" y="-82.5" font-family="Helvetica,sans-Serif" font-size="10.00">basic_json::from_cbor</text>
</a>
</g>
</g>
<!-- Node2&#45;&gt;Node5 -->
<g id="edge4" class="edge">
<title>Node2&#45;&gt;Node5</title>
<path fill="none" stroke="#63b8ff" d="M157.49,-86C145.97,-86 134.11,-86 122.94,-86"/>
<polygon fill="#63b8ff" stroke="#63b8ff" points="157.35,-89.5 167.35,-86 157.35,-82.5 157.35,-89.5"/>
</g>
<!-- Node6 -->
<g id="node6" class="node">
<title>Node6</title>
<g id="a_node6"><a xlink:href="classbasic__json.html#ab0c025488572f913ca5529a2ef62d066" target="_top" xlink:title="create a JSON value from an input in MessagePack format">
<polygon fill="white" stroke="#666666" points="133,-58 0,-58 0,-38 133,-38 133,-58"/>
<text text-anchor="middle" x="66.5" y="-44.5" font-family="Helvetica,sans-Serif" font-size="10.00">basic_json::from_msgpack</text>
</a>
</g>
</g>
<!-- Node2&#45;&gt;Node6 -->
<g id="edge5" class="edge">
<title>Node2&#45;&gt;Node6</title>
<path fill="none" stroke="#63b8ff" d="M170.2,-72.82C150.75,-68.12 129.12,-62.89 110.74,-58.45"/>
<polygon fill="#63b8ff" stroke="#63b8ff" points="169.35,-76.21 179.89,-75.16 171,-69.41 169.35,-76.21"/>
</g>
<!-- Node7 -->
<g id="node7" class="node">
<title>Node7</title>
<g id="a_node7"><a xlink:href="classbasic__json.html#a4588941095d03624ada4f0023d93944a" target="_top" xlink:title="create a JSON value from an input in UBJSON format">
<polygon fill="white" stroke="#666666" points="127.38,-20 5.62,-20 5.62,0 127.38,0 127.38,-20"/>
<text text-anchor="middle" x="66.5" y="-6.5" font-family="Helvetica,sans-Serif" font-size="10.00">basic_json::from_ubjson</text>
</a>
</g>
</g>
<!-- Node2&#45;&gt;Node7 -->
<g id="edge6" class="edge">
<title>Node2&#45;&gt;Node7</title>
<path fill="none" stroke="#63b8ff" d="M201.45,-69.03C183.47,-56.56 157.6,-39.96 133,-29 125.75,-25.77 117.81,-22.93 110.04,-20.5"/>
<polygon fill="#63b8ff" stroke="#63b8ff" points="199.39,-71.85 209.57,-74.76 203.43,-66.14 199.39,-71.85"/>
</g>
</g>
</svg>
