<?xml version="1.0" encoding="UTF-8" standalone="no"?>
<!DOCTYPE svg PUBLIC "-//W3C//DTD SVG 1.1//EN"
 "http://www.w3.org/Graphics/SVG/1.1/DTD/svg11.dtd">
<!-- Generated by graphviz version 12.2.1 (20241206.2353)
 -->
<!-- Title: basic_json::from_msgpack Pages: 1 -->
<svg width="683pt" height="91pt"
 viewBox="0.00 0.00 682.75 91.00" xmlns="http://www.w3.org/2000/svg" xmlns:xlink="http://www.w3.org/1999/xlink">
<g id="graph0" class="graph" transform="scale(1 1) rotate(0) translate(4 87)">
<title>basic_json::from_msgpack</title>
<!-- Node1 -->
<g id="node1" class="node">
<title>Node1</title>
<g id="a_node1"><a xlink:title="create a JSON value from an input in MessagePack format">
<polygon fill="#999999" stroke="#666666" points="133,-64 0,-64 0,-44 133,-44 133,-64"/>
<text text-anchor="middle" x="66.5" y="-50.5" font-family="Helvetica,sans-Serif" font-size="10.00">basic_json::from_msgpack</text>
</a>
</g>
</g>
<!-- Node2 -->
<g id="node2" class="node">
<title>Node2</title>
<g id="a_node2"><a xlink:href="namespacedetail.html#aada1510d1b55ad2faf4a71c70cffb374" target="_top" xlink:title=" ">
<polygon fill="white" stroke="#666666" points="422.25,-83 318.5,-83 318.5,-63 422.25,-63 422.25,-83"/>
<text text-anchor="middle" x="370.38" y="-69.5" font-family="Helvetica,sans-Serif" font-size="10.00">detail::input_adapter</text>
</a>
</g>
</g>
<!-- Node1&#45;&gt;Node2 -->
<g id="edge1" class="edge">
<title>Node1&#45;&gt;Node2</title>
<path fill="none" stroke="#63b8ff" d="M133.37,-58.15C184.88,-61.39 256,-65.86 306.67,-69.05"/>
<polygon fill="#63b8ff" stroke="#63b8ff" points="306.41,-72.54 316.61,-69.68 306.85,-65.56 306.41,-72.54"/>
</g>
<!-- Node3 -->
<g id="node3" class="node">
<title>Node3</title>
<g id="a_node3"><a xlink:href="classbasic__json.html#a602b1c389d92f2c7db21f89bb6fb9817" target="_top" xlink:title=" ">
<polygon fill="white" stroke="#666666" points="282.5,-45 169,-45 169,-25 282.5,-25 282.5,-45"/>
<text text-anchor="middle" x="225.75" y="-31.5" font-family="Helvetica,sans-Serif" font-size="10.00">basic_json::sax_parse</text>
</a>
</g>
</g>
<!-- Node1&#45;&gt;Node3 -->
<g id="edge2" class="edge">
<title>Node1&#45;&gt;Node3</title>
<path fill="none" stroke="#63b8ff" d="M133.28,-46.05C141.29,-45.08 149.48,-44.1 157.51,-43.12"/>
<polygon fill="#63b8ff" stroke="#63b8ff" points="157.7,-46.63 167.21,-41.95 156.86,-39.68 157.7,-46.63"/>
</g>
<!-- Node3&#45;&gt;Node2 -->
<g id="edge3" class="edge">
<title>Node3&#45;&gt;Node2</title>
<path fill="none" stroke="#63b8ff" d="M266.1,-45.48C282.47,-49.85 301.67,-54.96 319.05,-59.59"/>
<polygon fill="#63b8ff" stroke="#63b8ff" points="318.13,-62.97 328.69,-62.16 319.93,-56.2 318.13,-62.97"/>
</g>
<!-- Node4 -->
<g id="node4" class="node">
<title>Node4</title>
<g id="a_node4"><a xlink:href="classdetail_1_1binary__reader.html#a8e1b5452ae426e1d7b48761859e7f52d" target="_top" xlink:title=" ">
<polygon fill="white" stroke="#666666" points="422.25,-45 318.5,-45 318.5,-13 422.25,-13 422.25,-45"/>
<text text-anchor="start" x="326.5" y="-31.5" font-family="Helvetica,sans-Serif" font-size="10.00">detail::binary_reader</text>
<text text-anchor="middle" x="370.38" y="-19.5" font-family="Helvetica,sans-Serif" font-size="10.00">::sax_parse</text>
</a>
</g>
</g>
<!-- Node3&#45;&gt;Node4 -->
<g id="edge4" class="edge">
<title>Node3&#45;&gt;Node4</title>
<path fill="none" stroke="#63b8ff" d="M282.71,-32.65C290.67,-32.31 298.89,-31.97 306.96,-31.63"/>
<polygon fill="#63b8ff" stroke="#63b8ff" points="306.87,-35.13 316.71,-31.22 306.57,-28.14 306.87,-35.13"/>
</g>
<!-- Node5 -->
<g id="node5" class="node">
<title>Node5</title>
<g id="a_node5"><a xlink:href="namespacedetail.html#a266fb3d4bf633ad6c506434cc91164da" target="_top" xlink:title=" ">
<polygon fill="white" stroke="#666666" points="532.75,-58 458.25,-58 458.25,-38 532.75,-38 532.75,-58"/>
<text text-anchor="middle" x="495.5" y="-44.5" font-family="Helvetica,sans-Serif" font-size="10.00">detail::concat</text>
</a>
</g>
</g>
<!-- Node4&#45;&gt;Node5 -->
<g id="edge5" class="edge">
<title>Node4&#45;&gt;Node5</title>
<path fill="none" stroke="#63b8ff" d="M422.52,-36.89C430.51,-38.13 438.74,-39.4 446.66,-40.62"/>
<polygon fill="#63b8ff" stroke="#63b8ff" points="446.04,-44.06 456.46,-42.13 447.11,-37.15 446.04,-44.06"/>
</g>
<!-- Node8 -->
<g id="node8" class="node">
<title>Node8</title>
<g id="a_node8"><a xlink:href="namespacedetail.html#a7116703ea757fe9821bf2e903b91c160" target="_top" xlink:title=" ">
<polygon fill="white" stroke="#666666" points="524.88,-20 466.12,-20 466.12,0 524.88,0 524.88,-20"/>
<text text-anchor="middle" x="495.5" y="-6.5" font-family="Helvetica,sans-Serif" font-size="10.00">detail::get</text>
</a>
</g>
</g>
<!-- Node4&#45;&gt;Node8 -->
<g id="edge8" class="edge">
<title>Node4&#45;&gt;Node8</title>
<path fill="none" stroke="#63b8ff" d="M422.52,-21.11C433.27,-19.45 444.46,-17.72 454.73,-16.14"/>
<polygon fill="#63b8ff" stroke="#63b8ff" points="455,-19.64 464.35,-14.65 453.93,-12.72 455,-19.64"/>
</g>
<!-- Node6 -->
<g id="node6" class="node">
<title>Node6</title>
<g id="a_node6"><a xlink:href="namespacedetail.html#a89f967b745cf8df11ba9d59f93d97753" target="_top" xlink:title=" ">
<polygon fill="white" stroke="#666666" points="669.5,-77 574,-77 574,-57 669.5,-57 669.5,-77"/>
<text text-anchor="middle" x="621.75" y="-63.5" font-family="Helvetica,sans-Serif" font-size="10.00">detail::concat_into</text>
</a>
</g>
</g>
<!-- Node5&#45;&gt;Node6 -->
<g id="edge6" class="edge">
<title>Node5&#45;&gt;Node6</title>
<path fill="none" stroke="#63b8ff" d="M533.11,-53.6C542.36,-55.01 552.54,-56.57 562.57,-58.1"/>
<polygon fill="#63b8ff" stroke="#63b8ff" points="561.88,-61.54 572.29,-59.59 562.94,-54.62 561.88,-61.54"/>
</g>
<!-- Node7 -->
<g id="node7" class="node">
<title>Node7</title>
<g id="a_node7"><a xlink:href="namespacedetail.html#ac185140ed8c8fcc07a302a890b714b0d" target="_top" xlink:title=" ">
<polygon fill="white" stroke="#666666" points="674.75,-39 568.75,-39 568.75,-19 674.75,-19 674.75,-39"/>
<text text-anchor="middle" x="621.75" y="-25.5" font-family="Helvetica,sans-Serif" font-size="10.00">detail::concat_length</text>
</a>
</g>
</g>
<!-- Node5&#45;&gt;Node7 -->
<g id="edge7" class="edge">
<title>Node5&#45;&gt;Node7</title>
<path fill="none" stroke="#63b8ff" d="M533.11,-42.4C540.69,-41.24 548.88,-39.99 557.11,-38.73"/>
<polygon fill="#63b8ff" stroke="#63b8ff" points="557.44,-42.22 566.8,-37.25 556.38,-35.3 557.44,-42.22"/>
</g>
</g>
</svg>
