<?xml version="1.0" encoding="UTF-8" standalone="no"?>
<!DOCTYPE svg PUBLIC "-//W3C//DTD SVG 1.1//EN"
 "http://www.w3.org/Graphics/SVG/1.1/DTD/svg11.dtd">
<!-- Generated by graphviz version 12.2.1 (20241206.2353)
 -->
<!-- Title: SceneApprenticeship::sDoAction Pages: 1 -->
<svg width="261pt" height="78pt"
 viewBox="0.00 0.00 260.50 78.00" xmlns="http://www.w3.org/2000/svg" xmlns:xlink="http://www.w3.org/1999/xlink">
<g id="graph0" class="graph" transform="scale(1 1) rotate(0) translate(4 74)">
<title>SceneApprenticeship::sDoAction</title>
<!-- Node1 -->
<g id="node1" class="node">
<title>Node1</title>
<g id="a_node1"><a xlink:title=" ">
<polygon fill="#999999" stroke="#666666" points="108.25,-54 0,-54 0,-22 108.25,-22 108.25,-54"/>
<text text-anchor="start" x="8" y="-40.5" font-family="Helvetica,sans-Serif" font-size="10.00">SceneApprenticeship</text>
<text text-anchor="middle" x="54.12" y="-28.5" font-family="Helvetica,sans-Serif" font-size="10.00">::sDoAction</text>
</a>
</g>
</g>
<!-- Node2 -->
<g id="node2" class="node">
<title>Node2</title>
<g id="a_node2"><a xlink:href="classAction.html#a23800f6ef38781f10e6823f09ad6d62c" target="_top" xlink:title=" ">
<polygon fill="white" stroke="#666666" points="235.25,-70 161.5,-70 161.5,-50 235.25,-50 235.25,-70"/>
<text text-anchor="middle" x="198.38" y="-56.5" font-family="Helvetica,sans-Serif" font-size="10.00">Action::name</text>
</a>
</g>
</g>
<!-- Node1&#45;&gt;Node2 -->
<g id="edge1" class="edge">
<title>Node1&#45;&gt;Node2</title>
<path fill="none" stroke="#63b8ff" d="M108.5,-46.25C122.16,-48.37 136.75,-50.62 150.08,-52.69"/>
<polygon fill="#63b8ff" stroke="#63b8ff" points="149.5,-56.14 159.91,-54.21 150.57,-49.22 149.5,-56.14"/>
</g>
<!-- Node3 -->
<g id="node3" class="node">
<title>Node3</title>
<g id="a_node3"><a xlink:href="classSceneApprenticeship.html#a8fc49c70350606d877441a7fdbd5456c" target="_top" xlink:title=" ">
<polygon fill="white" stroke="#666666" points="252.5,-32 144.25,-32 144.25,0 252.5,0 252.5,-32"/>
<text text-anchor="start" x="152.25" y="-18.5" font-family="Helvetica,sans-Serif" font-size="10.00">SceneApprenticeship</text>
<text text-anchor="middle" x="198.38" y="-6.5" font-family="Helvetica,sans-Serif" font-size="10.00">::stringToGift</text>
</a>
</g>
</g>
<!-- Node1&#45;&gt;Node3 -->
<g id="edge2" class="edge">
<title>Node1&#45;&gt;Node3</title>
<path fill="none" stroke="#63b8ff" d="M108.5,-29.75C116.43,-28.52 124.67,-27.24 132.8,-25.99"/>
<polygon fill="#63b8ff" stroke="#63b8ff" points="133.33,-29.45 142.68,-24.46 132.26,-22.53 133.33,-29.45"/>
</g>
</g>
</svg>
