<?xml version="1.0" encoding="UTF-8" standalone="no"?>
<!DOCTYPE svg PUBLIC "-//W3C//DTD SVG 1.1//EN"
 "http://www.w3.org/Graphics/SVG/1.1/DTD/svg11.dtd">
<!-- Generated by graphviz version 12.2.1 (20241206.2353)
 -->
<!-- Title: SceneApprenticeship::loadDialogue Pages: 1 -->
<svg width="411pt" height="40pt"
 viewBox="0.00 0.00 410.75 40.00" xmlns="http://www.w3.org/2000/svg" xmlns:xlink="http://www.w3.org/1999/xlink">
<g id="graph0" class="graph" transform="scale(1 1) rotate(0) translate(4 36)">
<title>SceneApprenticeship::loadDialogue</title>
<!-- Node1 -->
<g id="node1" class="node">
<title>Node1</title>
<g id="a_node1"><a xlink:title=" ">
<polygon fill="#999999" stroke="#666666" points="402.75,-32 294.5,-32 294.5,0 402.75,0 402.75,-32"/>
<text text-anchor="start" x="302.5" y="-18.5" font-family="Helvetica,sans-Serif" font-size="10.00">SceneApprenticeship</text>
<text text-anchor="middle" x="348.62" y="-6.5" font-family="Helvetica,sans-Serif" font-size="10.00">::loadDialogue</text>
</a>
</g>
</g>
<!-- Node2 -->
<g id="node2" class="node">
<title>Node2</title>
<g id="a_node2"><a xlink:href="classSceneApprenticeship.html#a026d86301a2ac94f24da3b0f8a1cbaeb" target="_top" xlink:title=" ">
<polygon fill="white" stroke="#666666" points="258.5,-32 150.25,-32 150.25,0 258.5,0 258.5,-32"/>
<text text-anchor="start" x="158.25" y="-18.5" font-family="Helvetica,sans-Serif" font-size="10.00">SceneApprenticeship</text>
<text text-anchor="middle" x="204.38" y="-6.5" font-family="Helvetica,sans-Serif" font-size="10.00">::init</text>
</a>
</g>
</g>
<!-- Node1&#45;&gt;Node2 -->
<g id="edge1" class="edge">
<title>Node1&#45;&gt;Node2</title>
<path fill="none" stroke="#63b8ff" d="M282.88,-16C274.74,-16 266.5,-16 258.57,-16"/>
<polygon fill="#63b8ff" stroke="#63b8ff" points="282.74,-19.5 292.74,-16 282.74,-12.5 282.74,-19.5"/>
</g>
<!-- Node3 -->
<g id="node3" class="node">
<title>Node3</title>
<g id="a_node3"><a xlink:href="classSceneApprenticeship.html#a7c462ee9273d7cec66890a2f6d449cd2" target="_top" xlink:title=" ">
<polygon fill="white" stroke="#666666" points="114.25,-32 0,-32 0,0 114.25,0 114.25,-32"/>
<text text-anchor="start" x="8" y="-18.5" font-family="Helvetica,sans-Serif" font-size="10.00">SceneApprenticeship</text>
<text text-anchor="middle" x="57.13" y="-6.5" font-family="Helvetica,sans-Serif" font-size="10.00">::SceneApprenticeship</text>
</a>
</g>
</g>
<!-- Node2&#45;&gt;Node3 -->
<g id="edge2" class="edge">
<title>Node2&#45;&gt;Node3</title>
<path fill="none" stroke="#63b8ff" d="M138.73,-16C130.59,-16 122.31,-16 114.31,-16"/>
<polygon fill="#63b8ff" stroke="#63b8ff" points="138.6,-19.5 148.6,-16 138.6,-12.5 138.6,-19.5"/>
</g>
</g>
</svg>
