<?xml version="1.0" encoding="UTF-8" standalone="no"?>
<!DOCTYPE svg PUBLIC "-//W3C//DTD SVG 1.1//EN"
 "http://www.w3.org/Graphics/SVG/1.1/DTD/svg11.dtd">
<!-- Generated by graphviz version 12.2.1 (20241206.2353)
 -->
<!-- Title: detail::json_sax_dom_parser::start_array Pages: 1 -->
<svg width="402pt" height="103pt"
 viewBox="0.00 0.00 401.75 103.00" xmlns="http://www.w3.org/2000/svg" xmlns:xlink="http://www.w3.org/1999/xlink">
<g id="graph0" class="graph" transform="scale(1 1) rotate(0) translate(4 99)">
<title>detail::json_sax_dom_parser::start_array</title>
<!-- Node1 -->
<g id="node1" class="node">
<title>Node1</title>
<g id="a_node1"><a xlink:title=" ">
<polygon fill="#999999" stroke="#666666" points="108.25,-54 0,-54 0,-22 108.25,-22 108.25,-54"/>
<text text-anchor="start" x="8" y="-40.5" font-family="Helvetica,sans-Serif" font-size="10.00">detail::json_sax_dom</text>
<text text-anchor="middle" x="54.12" y="-28.5" font-family="Helvetica,sans-Serif" font-size="10.00">_parser::start_array</text>
</a>
</g>
</g>
<!-- Node2 -->
<g id="node2" class="node">
<title>Node2</title>
<g id="a_node2"><a xlink:href="namespacedetail.html#a266fb3d4bf633ad6c506434cc91164da" target="_top" xlink:title=" ">
<polygon fill="white" stroke="#666666" points="235.25,-76 160.75,-76 160.75,-56 235.25,-56 235.25,-76"/>
<text text-anchor="middle" x="198" y="-62.5" font-family="Helvetica,sans-Serif" font-size="10.00">detail::concat</text>
</a>
</g>
</g>
<!-- Node1&#45;&gt;Node2 -->
<g id="edge1" class="edge">
<title>Node1&#45;&gt;Node2</title>
<path fill="none" stroke="#63b8ff" d="M108.36,-48.51C121.74,-51.15 136.01,-53.96 149.11,-56.55"/>
<polygon fill="#63b8ff" stroke="#63b8ff" points="148.3,-59.96 158.79,-58.46 149.65,-53.09 148.3,-59.96"/>
</g>
<!-- Node5 -->
<g id="node5" class="node">
<title>Node5</title>
<g id="a_node5"><a xlink:href="namespacedetail.html#a93d9378fbe8786072ec07745cbb4cc0b" target="_top" xlink:title=" ">
<polygon fill="white" stroke="#666666" points="251.75,-20 144.25,-20 144.25,0 251.75,0 251.75,-20"/>
<text text-anchor="middle" x="198" y="-6.5" font-family="Helvetica,sans-Serif" font-size="10.00">detail::unknown_size</text>
</a>
</g>
</g>
<!-- Node1&#45;&gt;Node5 -->
<g id="edge4" class="edge">
<title>Node1&#45;&gt;Node5</title>
<path fill="none" stroke="#63b8ff" d="M108.36,-27.49C116.36,-25.92 124.68,-24.27 132.88,-22.65"/>
<polygon fill="#63b8ff" stroke="#63b8ff" points="133.32,-26.13 142.46,-20.76 131.97,-19.27 133.32,-26.13"/>
</g>
<!-- Node3 -->
<g id="node3" class="node">
<title>Node3</title>
<g id="a_node3"><a xlink:href="namespacedetail.html#a89f967b745cf8df11ba9d59f93d97753" target="_top" xlink:title=" ">
<polygon fill="white" stroke="#666666" points="388.5,-95 293,-95 293,-75 388.5,-75 388.5,-95"/>
<text text-anchor="middle" x="340.75" y="-81.5" font-family="Helvetica,sans-Serif" font-size="10.00">detail::concat_into</text>
</a>
</g>
</g>
<!-- Node2&#45;&gt;Node3 -->
<g id="edge2" class="edge">
<title>Node2&#45;&gt;Node3</title>
<path fill="none" stroke="#63b8ff" d="M235.61,-70.94C249.64,-72.84 266.01,-75.05 281.56,-77.15"/>
<polygon fill="#63b8ff" stroke="#63b8ff" points="280.82,-80.58 291.2,-78.45 281.76,-73.64 280.82,-80.58"/>
</g>
<!-- Node4 -->
<g id="node4" class="node">
<title>Node4</title>
<g id="a_node4"><a xlink:href="namespacedetail.html#ac185140ed8c8fcc07a302a890b714b0d" target="_top" xlink:title=" ">
<polygon fill="white" stroke="#666666" points="393.75,-57 287.75,-57 287.75,-37 393.75,-37 393.75,-57"/>
<text text-anchor="middle" x="340.75" y="-43.5" font-family="Helvetica,sans-Serif" font-size="10.00">detail::concat_length</text>
</a>
</g>
</g>
<!-- Node2&#45;&gt;Node4 -->
<g id="edge3" class="edge">
<title>Node2&#45;&gt;Node4</title>
<path fill="none" stroke="#63b8ff" d="M235.61,-61.06C248.08,-59.37 262.4,-57.44 276.36,-55.56"/>
<polygon fill="#63b8ff" stroke="#63b8ff" points="276.48,-59.07 285.92,-54.27 275.54,-52.14 276.48,-59.07"/>
</g>
<!-- Node5&#45;&gt;Node5 -->
<g id="edge5" class="edge">
<title>Node5&#45;&gt;Node5</title>
<path fill="none" stroke="#63b8ff" d="M175.32,-20.34C165.63,-28.98 173.19,-38 198,-38 211.57,-38 219.98,-35.3 223.23,-31.44"/>
<polygon fill="#63b8ff" stroke="#63b8ff" points="226.67,-30.78 221.02,-21.81 219.85,-32.34 226.67,-30.78"/>
</g>
</g>
</svg>
