<?xml version="1.0" encoding="UTF-8" standalone="no"?>
<!DOCTYPE svg PUBLIC "-//W3C//DTD SVG 1.1//EN"
 "http://www.w3.org/Graphics/SVG/1.1/DTD/svg11.dtd">
<!-- Generated by graphviz version 12.2.1 (20241206.2353)
 -->
<!-- Title: basic_json::from_cbor Pages: 1 -->
<svg width="662pt" height="107pt"
 viewBox="0.00 0.00 661.75 107.00" xmlns="http://www.w3.org/2000/svg" xmlns:xlink="http://www.w3.org/1999/xlink">
<g id="graph0" class="graph" transform="scale(1 1) rotate(0) translate(4 103)">
<title>basic_json::from_cbor</title>
<!-- Node1 -->
<g id="node1" class="node">
<title>Node1</title>
<g id="a_node1"><a xlink:title=" ">
<polygon fill="#999999" stroke="#666666" points="112,-80 0,-80 0,-60 112,-60 112,-80"/>
<text text-anchor="middle" x="56" y="-66.5" font-family="Helvetica,sans-Serif" font-size="10.00">basic_json::from_cbor</text>
</a>
</g>
</g>
<!-- Node2 -->
<g id="node2" class="node">
<title>Node2</title>
<g id="a_node2"><a xlink:href="classbasic__json.html#a0ab31c7fdbab38898070bca01637f886" target="_top" xlink:title="get a (pointer) value (explicit)">
<polygon fill="white" stroke="#666666" points="245.75,-99 163.75,-99 163.75,-79 245.75,-79 245.75,-99"/>
<text text-anchor="middle" x="204.75" y="-85.5" font-family="Helvetica,sans-Serif" font-size="10.00">basic_json::get</text>
</a>
</g>
</g>
<!-- Node1&#45;&gt;Node2 -->
<g id="edge1" class="edge">
<title>Node1&#45;&gt;Node2</title>
<path fill="none" stroke="#63b8ff" d="M112.48,-77.18C125.41,-78.86 139.12,-80.63 151.88,-82.28"/>
<polygon fill="#63b8ff" stroke="#63b8ff" points="151.42,-85.75 161.78,-83.57 152.32,-78.81 151.42,-85.75"/>
</g>
<!-- Node3 -->
<g id="node3" class="node">
<title>Node3</title>
<g id="a_node3"><a xlink:href="classbasic__json.html#a602b1c389d92f2c7db21f89bb6fb9817" target="_top" xlink:title=" ">
<polygon fill="white" stroke="#666666" points="261.5,-61 148,-61 148,-41 261.5,-41 261.5,-61"/>
<text text-anchor="middle" x="204.75" y="-47.5" font-family="Helvetica,sans-Serif" font-size="10.00">basic_json::sax_parse</text>
</a>
</g>
</g>
<!-- Node1&#45;&gt;Node3 -->
<g id="edge2" class="edge">
<title>Node1&#45;&gt;Node3</title>
<path fill="none" stroke="#63b8ff" d="M112.48,-62.82C120.31,-61.8 128.44,-60.75 136.46,-59.71"/>
<polygon fill="#63b8ff" stroke="#63b8ff" points="136.74,-63.21 146.2,-58.45 135.84,-56.26 136.74,-63.21"/>
</g>
<!-- Node4 -->
<g id="node4" class="node">
<title>Node4</title>
<g id="a_node4"><a xlink:href="namespacedetail.html#aada1510d1b55ad2faf4a71c70cffb374" target="_top" xlink:title=" ">
<polygon fill="white" stroke="#666666" points="401.25,-83 297.5,-83 297.5,-63 401.25,-63 401.25,-83"/>
<text text-anchor="middle" x="349.38" y="-69.5" font-family="Helvetica,sans-Serif" font-size="10.00">detail::input_adapter</text>
</a>
</g>
</g>
<!-- Node3&#45;&gt;Node4 -->
<g id="edge3" class="edge">
<title>Node3&#45;&gt;Node4</title>
<path fill="none" stroke="#63b8ff" d="M261.71,-59.63C269.67,-60.86 277.89,-62.13 285.96,-63.37"/>
<polygon fill="#63b8ff" stroke="#63b8ff" points="285.31,-66.81 295.73,-64.88 286.38,-59.9 285.31,-66.81"/>
</g>
<!-- Node5 -->
<g id="node5" class="node">
<title>Node5</title>
<g id="a_node5"><a xlink:href="classdetail_1_1binary__reader.html#a8e1b5452ae426e1d7b48761859e7f52d" target="_top" xlink:title=" ">
<polygon fill="white" stroke="#666666" points="401.25,-45 297.5,-45 297.5,-13 401.25,-13 401.25,-45"/>
<text text-anchor="start" x="305.5" y="-31.5" font-family="Helvetica,sans-Serif" font-size="10.00">detail::binary_reader</text>
<text text-anchor="middle" x="349.38" y="-19.5" font-family="Helvetica,sans-Serif" font-size="10.00">::sax_parse</text>
</a>
</g>
</g>
<!-- Node3&#45;&gt;Node5 -->
<g id="edge4" class="edge">
<title>Node3&#45;&gt;Node5</title>
<path fill="none" stroke="#63b8ff" d="M261.71,-42.37C269.67,-41.14 277.89,-39.87 285.96,-38.63"/>
<polygon fill="#63b8ff" stroke="#63b8ff" points="286.38,-42.1 295.73,-37.12 285.31,-35.19 286.38,-42.1"/>
</g>
<!-- Node6 -->
<g id="node6" class="node">
<title>Node6</title>
<g id="a_node6"><a xlink:href="namespacedetail.html#a266fb3d4bf633ad6c506434cc91164da" target="_top" xlink:title=" ">
<polygon fill="white" stroke="#666666" points="511.75,-58 437.25,-58 437.25,-38 511.75,-38 511.75,-58"/>
<text text-anchor="middle" x="474.5" y="-44.5" font-family="Helvetica,sans-Serif" font-size="10.00">detail::concat</text>
</a>
</g>
</g>
<!-- Node5&#45;&gt;Node6 -->
<g id="edge5" class="edge">
<title>Node5&#45;&gt;Node6</title>
<path fill="none" stroke="#63b8ff" d="M401.52,-36.89C409.51,-38.13 417.74,-39.4 425.66,-40.62"/>
<polygon fill="#63b8ff" stroke="#63b8ff" points="425.04,-44.06 435.46,-42.13 426.11,-37.15 425.04,-44.06"/>
</g>
<!-- Node9 -->
<g id="node9" class="node">
<title>Node9</title>
<g id="a_node9"><a xlink:href="namespacedetail.html#a7116703ea757fe9821bf2e903b91c160" target="_top" xlink:title=" ">
<polygon fill="white" stroke="#666666" points="503.88,-20 445.12,-20 445.12,0 503.88,0 503.88,-20"/>
<text text-anchor="middle" x="474.5" y="-6.5" font-family="Helvetica,sans-Serif" font-size="10.00">detail::get</text>
</a>
</g>
</g>
<!-- Node5&#45;&gt;Node9 -->
<g id="edge8" class="edge">
<title>Node5&#45;&gt;Node9</title>
<path fill="none" stroke="#63b8ff" d="M401.52,-21.11C412.27,-19.45 423.46,-17.72 433.73,-16.14"/>
<polygon fill="#63b8ff" stroke="#63b8ff" points="434,-19.64 443.35,-14.65 432.93,-12.72 434,-19.64"/>
</g>
<!-- Node7 -->
<g id="node7" class="node">
<title>Node7</title>
<g id="a_node7"><a xlink:href="namespacedetail.html#a89f967b745cf8df11ba9d59f93d97753" target="_top" xlink:title=" ">
<polygon fill="white" stroke="#666666" points="648.5,-77 553,-77 553,-57 648.5,-57 648.5,-77"/>
<text text-anchor="middle" x="600.75" y="-63.5" font-family="Helvetica,sans-Serif" font-size="10.00">detail::concat_into</text>
</a>
</g>
</g>
<!-- Node6&#45;&gt;Node7 -->
<g id="edge6" class="edge">
<title>Node6&#45;&gt;Node7</title>
<path fill="none" stroke="#63b8ff" d="M512.11,-53.6C521.36,-55.01 531.54,-56.57 541.57,-58.1"/>
<polygon fill="#63b8ff" stroke="#63b8ff" points="540.88,-61.54 551.29,-59.59 541.94,-54.62 540.88,-61.54"/>
</g>
<!-- Node8 -->
<g id="node8" class="node">
<title>Node8</title>
<g id="a_node8"><a xlink:href="namespacedetail.html#ac185140ed8c8fcc07a302a890b714b0d" target="_top" xlink:title=" ">
<polygon fill="white" stroke="#666666" points="653.75,-39 547.75,-39 547.75,-19 653.75,-19 653.75,-39"/>
<text text-anchor="middle" x="600.75" y="-25.5" font-family="Helvetica,sans-Serif" font-size="10.00">detail::concat_length</text>
</a>
</g>
</g>
<!-- Node6&#45;&gt;Node8 -->
<g id="edge7" class="edge">
<title>Node6&#45;&gt;Node8</title>
<path fill="none" stroke="#63b8ff" d="M512.11,-42.4C519.69,-41.24 527.88,-39.99 536.11,-38.73"/>
<polygon fill="#63b8ff" stroke="#63b8ff" points="536.44,-42.22 545.8,-37.25 535.38,-35.3 536.44,-42.22"/>
</g>
</g>
</svg>
