<?xml version="1.0" encoding="UTF-8" standalone="no"?>
<!DOCTYPE svg PUBLIC "-//W3C//DTD SVG 1.1//EN"
 "http://www.w3.org/Graphics/SVG/1.1/DTD/svg11.dtd">
<!-- Generated by graphviz version 12.2.1 (20241206.2353)
 -->
<!-- Title: SceneApprenticeship::init Pages: 1 -->
<svg width="422pt" height="140pt"
 viewBox="0.00 0.00 422.00 140.00" xmlns="http://www.w3.org/2000/svg" xmlns:xlink="http://www.w3.org/1999/xlink">
<g id="graph0" class="graph" transform="scale(1 1) rotate(0) translate(4 136)">
<title>SceneApprenticeship::init</title>
<!-- Node1 -->
<g id="node1" class="node">
<title>Node1</title>
<g id="a_node1"><a xlink:title=" ">
<polygon fill="#999999" stroke="#666666" points="108.25,-82 0,-82 0,-50 108.25,-50 108.25,-82"/>
<text text-anchor="start" x="8" y="-68.5" font-family="Helvetica,sans-Serif" font-size="10.00">SceneApprenticeship</text>
<text text-anchor="middle" x="54.12" y="-56.5" font-family="Helvetica,sans-Serif" font-size="10.00">::init</text>
</a>
</g>
</g>
<!-- Node2 -->
<g id="node2" class="node">
<title>Node2</title>
<g id="a_node2"><a xlink:href="classSceneApprenticeship.html#ad830b3cf5344cbb9ef03f5a22af0fec6" target="_top" xlink:title=" ">
<polygon fill="white" stroke="#666666" points="274.25,-132 166,-132 166,-100 274.25,-100 274.25,-132"/>
<text text-anchor="start" x="174" y="-118.5" font-family="Helvetica,sans-Serif" font-size="10.00">SceneApprenticeship</text>
<text text-anchor="middle" x="220.12" y="-106.5" font-family="Helvetica,sans-Serif" font-size="10.00">::loadDialogue</text>
</a>
</g>
</g>
<!-- Node1&#45;&gt;Node2 -->
<g id="edge1" class="edge">
<title>Node1&#45;&gt;Node2</title>
<path fill="none" stroke="#63b8ff" d="M108.37,-82.23C123.12,-86.73 139.3,-91.66 154.61,-96.33"/>
<polygon fill="#63b8ff" stroke="#63b8ff" points="153.55,-99.67 164.14,-99.24 155.59,-92.97 153.55,-99.67"/>
</g>
<!-- Node4 -->
<g id="node4" class="node">
<title>Node4</title>
<g id="a_node4"><a xlink:href="classSceneApprenticeship.html#ad8bf82e2c510a4f2182a1cdcaf4843e2" target="_top" xlink:title=" ">
<polygon fill="white" stroke="#666666" points="296,-82 144.25,-82 144.25,-50 296,-50 296,-82"/>
<text text-anchor="start" x="152.25" y="-68.5" font-family="Helvetica,sans-Serif" font-size="10.00">SceneApprenticeship</text>
<text text-anchor="middle" x="220.12" y="-56.5" font-family="Helvetica,sans-Serif" font-size="10.00">::registerApprenticeshipActions</text>
</a>
</g>
</g>
<!-- Node1&#45;&gt;Node4 -->
<g id="edge3" class="edge">
<title>Node1&#45;&gt;Node4</title>
<path fill="none" stroke="#63b8ff" d="M108.37,-66C116.15,-66 124.33,-66 132.56,-66"/>
<polygon fill="#63b8ff" stroke="#63b8ff" points="132.29,-69.5 142.29,-66 132.29,-62.5 132.29,-69.5"/>
</g>
<!-- Node5 -->
<g id="node5" class="node">
<title>Node5</title>
<g id="a_node5"><a xlink:href="classSceneApprenticeship.html#a565bf72d142adc5e3b19c7d28e87a094" target="_top" xlink:title=" ">
<polygon fill="white" stroke="#666666" points="274.25,-32 166,-32 166,0 274.25,0 274.25,-32"/>
<text text-anchor="start" x="174" y="-18.5" font-family="Helvetica,sans-Serif" font-size="10.00">SceneApprenticeship</text>
<text text-anchor="middle" x="220.12" y="-6.5" font-family="Helvetica,sans-Serif" font-size="10.00">::spawnPlayer</text>
</a>
</g>
</g>
<!-- Node1&#45;&gt;Node5 -->
<g id="edge4" class="edge">
<title>Node1&#45;&gt;Node5</title>
<path fill="none" stroke="#63b8ff" d="M108.37,-49.77C123.12,-45.27 139.3,-40.34 154.61,-35.67"/>
<polygon fill="#63b8ff" stroke="#63b8ff" points="155.59,-39.03 164.14,-32.76 153.55,-32.33 155.59,-39.03"/>
</g>
<!-- Node3 -->
<g id="node3" class="node">
<title>Node3</title>
<g id="a_node3"><a xlink:href="classbasic__json.html#a0ab31c7fdbab38898070bca01637f886" target="_top" xlink:title="get a (pointer) value (explicit)">
<polygon fill="white" stroke="#666666" points="414,-126 332,-126 332,-106 414,-106 414,-126"/>
<text text-anchor="middle" x="373" y="-112.5" font-family="Helvetica,sans-Serif" font-size="10.00">basic_json::get</text>
</a>
</g>
</g>
<!-- Node2&#45;&gt;Node3 -->
<g id="edge2" class="edge">
<title>Node2&#45;&gt;Node3</title>
<path fill="none" stroke="#63b8ff" d="M274.74,-116C289.58,-116 305.65,-116 320.37,-116"/>
<polygon fill="#63b8ff" stroke="#63b8ff" points="320.32,-119.5 330.32,-116 320.32,-112.5 320.32,-119.5"/>
</g>
</g>
</svg>
