<?xml version="1.0" encoding="UTF-8" standalone="no"?>
<!DOCTYPE svg PUBLIC "-//W3C//DTD SVG 1.1//EN"
 "http://www.w3.org/Graphics/SVG/1.1/DTD/svg11.dtd">
<!-- Generated by graphviz version 12.2.1 (20241206.2353)
 -->
<!-- Title: basic_json::merge_patch Pages: 1 -->
<svg width="276pt" height="104pt"
 viewBox="0.00 0.00 276.25 104.00" xmlns="http://www.w3.org/2000/svg" xmlns:xlink="http://www.w3.org/1999/xlink">
<g id="graph0" class="graph" transform="scale(1 1) rotate(0) translate(4 100)">
<title>basic_json::merge_patch</title>
<!-- Node1 -->
<g id="node1" class="node">
<title>Node1</title>
<g id="a_node1"><a xlink:title="applies a JSON Merge Patch">
<polygon fill="#999999" stroke="#666666" points="124.75,-58 0,-58 0,-38 124.75,-38 124.75,-58"/>
<text text-anchor="middle" x="62.38" y="-44.5" font-family="Helvetica,sans-Serif" font-size="10.00">basic_json::merge_patch</text>
</a>
</g>
</g>
<!-- Node2 -->
<g id="node2" class="node">
<title>Node2</title>
<g id="a_node2"><a xlink:href="classbasic__json.html#a5251a08382864af52c854fca1bdba61c" target="_top" xlink:title="returns an iterator to the first element">
<polygon fill="white" stroke="#666666" points="260.38,-96 168.62,-96 168.62,-76 260.38,-76 260.38,-96"/>
<text text-anchor="middle" x="214.5" y="-82.5" font-family="Helvetica,sans-Serif" font-size="10.00">basic_json::begin</text>
</a>
</g>
</g>
<!-- Node1&#45;&gt;Node2 -->
<g id="edge1" class="edge">
<title>Node1&#45;&gt;Node2</title>
<path fill="none" stroke="#63b8ff" d="M104.79,-58.48C122.27,-62.91 142.81,-68.11 161.31,-72.79"/>
<polygon fill="#63b8ff" stroke="#63b8ff" points="160.2,-76.12 170.75,-75.18 161.91,-69.33 160.2,-76.12"/>
</g>
<!-- Node3 -->
<g id="node3" class="node">
<title>Node3</title>
<g id="a_node3"><a xlink:href="classbasic__json.html#a4dbc83213b31a171aa8ba65ff00fa954" target="_top" xlink:title="returns an iterator to one past the last element">
<polygon fill="white" stroke="#666666" points="256.62,-58 172.38,-58 172.38,-38 256.62,-38 256.62,-58"/>
<text text-anchor="middle" x="214.5" y="-44.5" font-family="Helvetica,sans-Serif" font-size="10.00">basic_json::end</text>
</a>
</g>
</g>
<!-- Node1&#45;&gt;Node3 -->
<g id="edge2" class="edge">
<title>Node1&#45;&gt;Node3</title>
<path fill="none" stroke="#63b8ff" d="M124.87,-48C136.77,-48 149.15,-48 160.74,-48"/>
<polygon fill="#63b8ff" stroke="#63b8ff" points="160.51,-51.5 170.51,-48 160.51,-44.5 160.51,-51.5"/>
</g>
<!-- Node4 -->
<g id="node4" class="node">
<title>Node4</title>
<g id="a_node4"><a xlink:href="classbasic__json.html#af355a2b131068acf3d623eb6d80a711c" target="_top" xlink:title="return whether value is an object">
<polygon fill="white" stroke="#666666" points="268.25,-20 160.75,-20 160.75,0 268.25,0 268.25,-20"/>
<text text-anchor="middle" x="214.5" y="-6.5" font-family="Helvetica,sans-Serif" font-size="10.00">basic_json::is_object</text>
</a>
</g>
</g>
<!-- Node1&#45;&gt;Node4 -->
<g id="edge3" class="edge">
<title>Node1&#45;&gt;Node4</title>
<path fill="none" stroke="#63b8ff" d="M104.79,-37.52C122.27,-33.09 142.81,-27.89 161.31,-23.21"/>
<polygon fill="#63b8ff" stroke="#63b8ff" points="161.91,-26.67 170.75,-20.82 160.2,-19.88 161.91,-26.67"/>
</g>
</g>
</svg>
