<?xml version="1.0" encoding="UTF-8" standalone="no"?>
<!DOCTYPE svg PUBLIC "-//W3C//DTD SVG 1.1//EN"
 "http://www.w3.org/Graphics/SVG/1.1/DTD/svg11.dtd">
<!-- Generated by graphviz version 12.2.1 (20241206.2353)
 -->
<!-- Title: detail::serializer::for Pages: 1 -->
<svg width="388pt" height="97pt"
 viewBox="0.00 0.00 388.25 97.00" xmlns="http://www.w3.org/2000/svg" xmlns:xlink="http://www.w3.org/1999/xlink">
<g id="graph0" class="graph" transform="scale(1 1) rotate(0) translate(4 93)">
<title>detail::serializer::for</title>
<!-- Node1 -->
<g id="node1" class="node">
<title>Node1</title>
<g id="a_node1"><a xlink:title=" ">
<polygon fill="#999999" stroke="#666666" points="101.5,-48 0,-48 0,-28 101.5,-28 101.5,-48"/>
<text text-anchor="middle" x="50.75" y="-34.5" font-family="Helvetica,sans-Serif" font-size="10.00">detail::serializer::for</text>
</a>
</g>
</g>
<!-- Node2 -->
<g id="node2" class="node">
<title>Node2</title>
<g id="a_node2"><a xlink:href="namespacedetail.html#a266fb3d4bf633ad6c506434cc91164da" target="_top" xlink:title=" ">
<polygon fill="white" stroke="#666666" points="225.12,-70 150.62,-70 150.62,-50 225.12,-50 225.12,-70"/>
<text text-anchor="middle" x="187.88" y="-56.5" font-family="Helvetica,sans-Serif" font-size="10.00">detail::concat</text>
</a>
</g>
</g>
<!-- Node1&#45;&gt;Node2 -->
<g id="edge1" class="edge">
<title>Node1&#45;&gt;Node2</title>
<path fill="none" stroke="#63b8ff" d="M101.68,-46.13C113.87,-48.11 126.89,-50.23 138.98,-52.2"/>
<polygon fill="#63b8ff" stroke="#63b8ff" points="138.31,-55.64 148.75,-53.79 139.44,-48.73 138.31,-55.64"/>
</g>
<!-- Node5 -->
<g id="node5" class="node">
<title>Node5</title>
<g id="a_node5"><a xlink:href="classdetail_1_1binary__writer.html#a2822d4a58bbb0dc2198686da430e8906" target="_top" xlink:title=" ">
<polygon fill="white" stroke="#666666" points="238.25,-32 137.5,-32 137.5,0 238.25,0 238.25,-32"/>
<text text-anchor="start" x="145.5" y="-18.5" font-family="Helvetica,sans-Serif" font-size="10.00">detail::binary_writer</text>
<text text-anchor="middle" x="187.88" y="-6.5" font-family="Helvetica,sans-Serif" font-size="10.00">::to_char_type</text>
</a>
</g>
</g>
<!-- Node1&#45;&gt;Node5 -->
<g id="edge4" class="edge">
<title>Node1&#45;&gt;Node5</title>
<path fill="none" stroke="#63b8ff" d="M101.68,-29.87C109.55,-28.59 117.76,-27.25 125.85,-25.94"/>
<polygon fill="#63b8ff" stroke="#63b8ff" points="126.35,-29.4 135.65,-24.34 125.22,-22.49 126.35,-29.4"/>
</g>
<!-- Node3 -->
<g id="node3" class="node">
<title>Node3</title>
<g id="a_node3"><a xlink:href="namespacedetail.html#a89f967b745cf8df11ba9d59f93d97753" target="_top" xlink:title=" ">
<polygon fill="white" stroke="#666666" points="375,-89 279.5,-89 279.5,-69 375,-69 375,-89"/>
<text text-anchor="middle" x="327.25" y="-75.5" font-family="Helvetica,sans-Serif" font-size="10.00">detail::concat_into</text>
</a>
</g>
</g>
<!-- Node2&#45;&gt;Node3 -->
<g id="edge2" class="edge">
<title>Node2&#45;&gt;Node3</title>
<path fill="none" stroke="#63b8ff" d="M225.33,-65.04C238.37,-66.85 253.43,-68.93 267.86,-70.92"/>
<polygon fill="#63b8ff" stroke="#63b8ff" points="267.37,-74.39 277.75,-72.29 268.32,-67.46 267.37,-74.39"/>
</g>
<!-- Node4 -->
<g id="node4" class="node">
<title>Node4</title>
<g id="a_node4"><a xlink:href="namespacedetail.html#ac185140ed8c8fcc07a302a890b714b0d" target="_top" xlink:title=" ">
<polygon fill="white" stroke="#666666" points="380.25,-51 274.25,-51 274.25,-31 380.25,-31 380.25,-51"/>
<text text-anchor="middle" x="327.25" y="-37.5" font-family="Helvetica,sans-Serif" font-size="10.00">detail::concat_length</text>
</a>
</g>
</g>
<!-- Node2&#45;&gt;Node4 -->
<g id="edge3" class="edge">
<title>Node2&#45;&gt;Node4</title>
<path fill="none" stroke="#63b8ff" d="M225.33,-54.96C236.82,-53.37 249.88,-51.56 262.69,-49.79"/>
<polygon fill="#63b8ff" stroke="#63b8ff" points="262.92,-53.29 272.35,-48.45 261.97,-46.36 262.92,-53.29"/>
</g>
</g>
</svg>
