<?xml version="1.0" encoding="UTF-8" standalone="no"?>
<!DOCTYPE svg PUBLIC "-//W3C//DTD SVG 1.1//EN"
 "http://www.w3.org/Graphics/SVG/1.1/DTD/svg11.dtd">
<!-- Generated by graphviz version 12.2.1 (20241206.2353)
 -->
<!-- Title: detail::wide_string_input_adapter::get_elements Pages: 1 -->
<svg width="643pt" height="93pt"
 viewBox="0.00 0.00 643.00 93.24" xmlns="http://www.w3.org/2000/svg" xmlns:xlink="http://www.w3.org/1999/xlink">
<g id="graph0" class="graph" transform="scale(1 1) rotate(0) translate(4 89.24)">
<title>detail::wide_string_input_adapter::get_elements</title>
<!-- Node1 -->
<g id="node1" class="node">
<title>Node1</title>
<g id="a_node1"><a xlink:title=" ">
<polygon fill="#999999" stroke="#666666" points="99.25,-76 0,-76 0,-32 99.25,-32 99.25,-76"/>
<text text-anchor="start" x="8" y="-62.5" font-family="Helvetica,sans-Serif" font-size="10.00">detail::wide_string</text>
<text text-anchor="start" x="8" y="-50.5" font-family="Helvetica,sans-Serif" font-size="10.00">_input_adapter::get</text>
<text text-anchor="middle" x="49.62" y="-38.5" font-family="Helvetica,sans-Serif" font-size="10.00">_elements</text>
</a>
</g>
</g>
<!-- Node2 -->
<g id="node2" class="node">
<title>Node2</title>
<g id="a_node2"><a xlink:href="classdetail_1_1parse__error.html#a07046ea9f33d28f120af188ed674d6df" target="_top" xlink:title="create a parse error exception">
<polygon fill="white" stroke="#666666" points="229.25,-70 135.25,-70 135.25,-38 229.25,-38 229.25,-70"/>
<text text-anchor="start" x="143.25" y="-56.5" font-family="Helvetica,sans-Serif" font-size="10.00">detail::parse_error</text>
<text text-anchor="middle" x="182.25" y="-44.5" font-family="Helvetica,sans-Serif" font-size="10.00">::create</text>
</a>
</g>
</g>
<!-- Node1&#45;&gt;Node2 -->
<g id="edge1" class="edge">
<title>Node1&#45;&gt;Node2</title>
<path fill="none" stroke="#63b8ff" d="M99.64,-54C107.42,-54 115.53,-54 123.49,-54"/>
<polygon fill="#63b8ff" stroke="#63b8ff" points="123.48,-57.5 133.48,-54 123.48,-50.5 123.48,-57.5"/>
</g>
<!-- Node3 -->
<g id="node3" class="node">
<title>Node3</title>
<g id="a_node3"><a xlink:href="namespacedetail.html#a266fb3d4bf633ad6c506434cc91164da" target="_top" xlink:title=" ">
<polygon fill="white" stroke="#666666" points="493,-64 418.5,-64 418.5,-44 493,-44 493,-64"/>
<text text-anchor="middle" x="455.75" y="-50.5" font-family="Helvetica,sans-Serif" font-size="10.00">detail::concat</text>
</a>
</g>
</g>
<!-- Node2&#45;&gt;Node3 -->
<g id="edge2" class="edge">
<title>Node2&#45;&gt;Node3</title>
<path fill="none" stroke="#63b8ff" d="M228.67,-70.45C240.43,-73.99 253.18,-77.2 265.25,-79 316.79,-86.68 331.11,-87.64 382.5,-79 395.2,-76.87 408.64,-72.76 420.45,-68.48"/>
<polygon fill="#63b8ff" stroke="#63b8ff" points="421.68,-71.76 429.78,-64.93 419.19,-65.22 421.68,-71.76"/>
</g>
<!-- Node6 -->
<g id="node6" class="node">
<title>Node6</title>
<g id="a_node6"><a xlink:href="classdetail_1_1exception.html#a6b4a786b5c1c25dd3edaceb1bf2d5120" target="_top" xlink:title=" ">
<polygon fill="white" stroke="#666666" points="370.5,-70 277.25,-70 277.25,-38 370.5,-38 370.5,-70"/>
<text text-anchor="start" x="285.25" y="-56.5" font-family="Helvetica,sans-Serif" font-size="10.00">detail::exception::</text>
<text text-anchor="middle" x="323.88" y="-44.5" font-family="Helvetica,sans-Serif" font-size="10.00">diagnostics</text>
</a>
</g>
</g>
<!-- Node2&#45;&gt;Node6 -->
<g id="edge5" class="edge">
<title>Node2&#45;&gt;Node6</title>
<path fill="none" stroke="#63b8ff" d="M229.74,-54C241.29,-54 253.79,-54 265.77,-54"/>
<polygon fill="#63b8ff" stroke="#63b8ff" points="265.55,-57.5 275.55,-54 265.55,-50.5 265.55,-57.5"/>
</g>
<!-- Node7 -->
<g id="node7" class="node">
<title>Node7</title>
<g id="a_node7"><a xlink:href="classdetail_1_1exception.html#a8f1eb56b9964c8dd84d89d0da98d883b" target="_top" xlink:title=" ">
<polygon fill="white" stroke="#666666" points="382.5,-20 265.25,-20 265.25,0 382.5,0 382.5,-20"/>
<text text-anchor="middle" x="323.88" y="-6.5" font-family="Helvetica,sans-Serif" font-size="10.00">detail::exception::name</text>
</a>
</g>
</g>
<!-- Node2&#45;&gt;Node7 -->
<g id="edge6" class="edge">
<title>Node2&#45;&gt;Node7</title>
<path fill="none" stroke="#63b8ff" d="M229.74,-39.35C245.57,-34.36 263.21,-28.8 278.85,-23.88"/>
<polygon fill="#63b8ff" stroke="#63b8ff" points="279.89,-27.22 288.38,-20.87 277.79,-20.54 279.89,-27.22"/>
</g>
<!-- Node4 -->
<g id="node4" class="node">
<title>Node4</title>
<g id="a_node4"><a xlink:href="namespacedetail.html#a89f967b745cf8df11ba9d59f93d97753" target="_top" xlink:title=" ">
<polygon fill="white" stroke="#666666" points="629.75,-83 534.25,-83 534.25,-63 629.75,-63 629.75,-83"/>
<text text-anchor="middle" x="582" y="-69.5" font-family="Helvetica,sans-Serif" font-size="10.00">detail::concat_into</text>
</a>
</g>
</g>
<!-- Node3&#45;&gt;Node4 -->
<g id="edge3" class="edge">
<title>Node3&#45;&gt;Node4</title>
<path fill="none" stroke="#63b8ff" d="M493.36,-59.6C502.61,-61.01 512.79,-62.57 522.82,-64.1"/>
<polygon fill="#63b8ff" stroke="#63b8ff" points="522.13,-67.54 532.54,-65.59 523.19,-60.62 522.13,-67.54"/>
</g>
<!-- Node5 -->
<g id="node5" class="node">
<title>Node5</title>
<g id="a_node5"><a xlink:href="namespacedetail.html#ac185140ed8c8fcc07a302a890b714b0d" target="_top" xlink:title=" ">
<polygon fill="white" stroke="#666666" points="635,-45 529,-45 529,-25 635,-25 635,-45"/>
<text text-anchor="middle" x="582" y="-31.5" font-family="Helvetica,sans-Serif" font-size="10.00">detail::concat_length</text>
</a>
</g>
</g>
<!-- Node3&#45;&gt;Node5 -->
<g id="edge4" class="edge">
<title>Node3&#45;&gt;Node5</title>
<path fill="none" stroke="#63b8ff" d="M493.36,-48.4C500.94,-47.24 509.13,-45.99 517.36,-44.73"/>
<polygon fill="#63b8ff" stroke="#63b8ff" points="517.69,-48.22 527.05,-43.25 516.63,-41.3 517.69,-48.22"/>
</g>
<!-- Node7&#45;&gt;Node3 -->
<g id="edge7" class="edge">
<title>Node7&#45;&gt;Node3</title>
<path fill="none" stroke="#63b8ff" d="M356.91,-20.47C365.25,-23.22 374.22,-26.2 382.5,-29 392.75,-32.46 403.8,-36.26 414.1,-39.82"/>
<polygon fill="#63b8ff" stroke="#63b8ff" points="412.88,-43.1 423.47,-43.07 415.17,-36.48 412.88,-43.1"/>
</g>
</g>
</svg>
