<?xml version="1.0" encoding="UTF-8" standalone="no"?>
<!DOCTYPE svg PUBLIC "-//W3C//DTD SVG 1.1//EN"
 "http://www.w3.org/Graphics/SVG/1.1/DTD/svg11.dtd">
<!-- Generated by graphviz version 12.2.1 (20241206.2353)
 -->
<!-- Title: detail::json_sax_dom_callback_parser::start_array Pages: 1 -->
<svg width="436pt" height="103pt"
 viewBox="0.00 0.00 435.50 103.00" xmlns="http://www.w3.org/2000/svg" xmlns:xlink="http://www.w3.org/1999/xlink">
<g id="graph0" class="graph" transform="scale(1 1) rotate(0) translate(4 99)">
<title>detail::json_sax_dom_callback_parser::start_array</title>
<!-- Node1 -->
<g id="node1" class="node">
<title>Node1</title>
<g id="a_node1"><a xlink:title=" ">
<polygon fill="#999999" stroke="#666666" points="142,-54 0,-54 0,-22 142,-22 142,-54"/>
<text text-anchor="start" x="8" y="-40.5" font-family="Helvetica,sans-Serif" font-size="10.00">detail::json_sax_dom</text>
<text text-anchor="middle" x="71" y="-28.5" font-family="Helvetica,sans-Serif" font-size="10.00">_callback_parser::start_array</text>
</a>
</g>
</g>
<!-- Node2 -->
<g id="node2" class="node">
<title>Node2</title>
<g id="a_node2"><a xlink:href="namespacedetail.html#a266fb3d4bf633ad6c506434cc91164da" target="_top" xlink:title=" ">
<polygon fill="white" stroke="#666666" points="269,-76 194.5,-76 194.5,-56 269,-56 269,-76"/>
<text text-anchor="middle" x="231.75" y="-62.5" font-family="Helvetica,sans-Serif" font-size="10.00">detail::concat</text>
</a>
</g>
</g>
<!-- Node1&#45;&gt;Node2 -->
<g id="edge1" class="edge">
<title>Node1&#45;&gt;Node2</title>
<path fill="none" stroke="#63b8ff" d="M142.09,-50.36C155.97,-52.81 170.23,-55.33 183.14,-57.6"/>
<polygon fill="#63b8ff" stroke="#63b8ff" points="182.16,-60.98 192.61,-59.27 183.37,-54.09 182.16,-60.98"/>
</g>
<!-- Node5 -->
<g id="node5" class="node">
<title>Node5</title>
<g id="a_node5"><a xlink:href="namespacedetail.html#a93d9378fbe8786072ec07745cbb4cc0b" target="_top" xlink:title=" ">
<polygon fill="white" stroke="#666666" points="285.5,-20 178,-20 178,0 285.5,0 285.5,-20"/>
<text text-anchor="middle" x="231.75" y="-6.5" font-family="Helvetica,sans-Serif" font-size="10.00">detail::unknown_size</text>
</a>
</g>
</g>
<!-- Node1&#45;&gt;Node5 -->
<g id="edge4" class="edge">
<title>Node1&#45;&gt;Node5</title>
<path fill="none" stroke="#63b8ff" d="M142.09,-25.64C150.22,-24.2 158.48,-22.75 166.53,-21.33"/>
<polygon fill="#63b8ff" stroke="#63b8ff" points="166.99,-24.8 176.23,-19.62 165.78,-17.91 166.99,-24.8"/>
</g>
<!-- Node3 -->
<g id="node3" class="node">
<title>Node3</title>
<g id="a_node3"><a xlink:href="namespacedetail.html#a89f967b745cf8df11ba9d59f93d97753" target="_top" xlink:title=" ">
<polygon fill="white" stroke="#666666" points="422.25,-95 326.75,-95 326.75,-75 422.25,-75 422.25,-95"/>
<text text-anchor="middle" x="374.5" y="-81.5" font-family="Helvetica,sans-Serif" font-size="10.00">detail::concat_into</text>
</a>
</g>
</g>
<!-- Node2&#45;&gt;Node3 -->
<g id="edge2" class="edge">
<title>Node2&#45;&gt;Node3</title>
<path fill="none" stroke="#63b8ff" d="M269.36,-70.94C283.39,-72.84 299.76,-75.05 315.31,-77.15"/>
<polygon fill="#63b8ff" stroke="#63b8ff" points="314.57,-80.58 324.95,-78.45 315.51,-73.64 314.57,-80.58"/>
</g>
<!-- Node4 -->
<g id="node4" class="node">
<title>Node4</title>
<g id="a_node4"><a xlink:href="namespacedetail.html#ac185140ed8c8fcc07a302a890b714b0d" target="_top" xlink:title=" ">
<polygon fill="white" stroke="#666666" points="427.5,-57 321.5,-57 321.5,-37 427.5,-37 427.5,-57"/>
<text text-anchor="middle" x="374.5" y="-43.5" font-family="Helvetica,sans-Serif" font-size="10.00">detail::concat_length</text>
</a>
</g>
</g>
<!-- Node2&#45;&gt;Node4 -->
<g id="edge3" class="edge">
<title>Node2&#45;&gt;Node4</title>
<path fill="none" stroke="#63b8ff" d="M269.36,-61.06C281.83,-59.37 296.15,-57.44 310.11,-55.56"/>
<polygon fill="#63b8ff" stroke="#63b8ff" points="310.23,-59.07 319.67,-54.27 309.29,-52.14 310.23,-59.07"/>
</g>
<!-- Node5&#45;&gt;Node5 -->
<g id="edge5" class="edge">
<title>Node5&#45;&gt;Node5</title>
<path fill="none" stroke="#63b8ff" d="M209.07,-20.34C199.38,-28.98 206.94,-38 231.75,-38 245.32,-38 253.73,-35.3 256.98,-31.44"/>
<polygon fill="#63b8ff" stroke="#63b8ff" points="260.42,-30.78 254.77,-21.81 253.6,-32.34 260.42,-30.78"/>
</g>
</g>
</svg>
