<?xml version="1.0" encoding="UTF-8" standalone="no"?>
<!DOCTYPE svg PUBLIC "-//W3C//DTD SVG 1.1//EN"
 "http://www.w3.org/Graphics/SVG/1.1/DTD/svg11.dtd">
<!-- Generated by graphviz version 12.2.1 (20241206.2353)
 -->
<!-- Title: basic_json::meta Pages: 1 -->
<svg width="351pt" height="66pt"
 viewBox="0.00 0.00 350.75 66.00" xmlns="http://www.w3.org/2000/svg" xmlns:xlink="http://www.w3.org/1999/xlink">
<g id="graph0" class="graph" transform="scale(1 1) rotate(0) translate(4 62)">
<title>basic_json::meta</title>
<!-- Node1 -->
<g id="node1" class="node">
<title>Node1</title>
<g id="a_node1"><a xlink:title="returns version information on the library">
<polygon fill="#999999" stroke="#666666" points="90.25,-39 0,-39 0,-19 90.25,-19 90.25,-39"/>
<text text-anchor="middle" x="45.12" y="-25.5" font-family="Helvetica,sans-Serif" font-size="10.00">basic_json::meta</text>
</a>
</g>
</g>
<!-- Node2 -->
<g id="node2" class="node">
<title>Node2</title>
<g id="a_node2"><a xlink:href="namespacedetail.html#a266fb3d4bf633ad6c506434cc91164da" target="_top" xlink:title=" ">
<polygon fill="white" stroke="#666666" points="200.75,-39 126.25,-39 126.25,-19 200.75,-19 200.75,-39"/>
<text text-anchor="middle" x="163.5" y="-25.5" font-family="Helvetica,sans-Serif" font-size="10.00">detail::concat</text>
</a>
</g>
</g>
<!-- Node1&#45;&gt;Node2 -->
<g id="edge1" class="edge">
<title>Node1&#45;&gt;Node2</title>
<path fill="none" stroke="#63b8ff" d="M90.45,-29C98.31,-29 106.52,-29 114.47,-29"/>
<polygon fill="#63b8ff" stroke="#63b8ff" points="114.35,-32.5 124.35,-29 114.35,-25.5 114.35,-32.5"/>
</g>
<!-- Node3 -->
<g id="node3" class="node">
<title>Node3</title>
<g id="a_node3"><a xlink:href="namespacedetail.html#a89f967b745cf8df11ba9d59f93d97753" target="_top" xlink:title=" ">
<polygon fill="white" stroke="#666666" points="337.5,-58 242,-58 242,-38 337.5,-38 337.5,-58"/>
<text text-anchor="middle" x="289.75" y="-44.5" font-family="Helvetica,sans-Serif" font-size="10.00">detail::concat_into</text>
</a>
</g>
</g>
<!-- Node2&#45;&gt;Node3 -->
<g id="edge2" class="edge">
<title>Node2&#45;&gt;Node3</title>
<path fill="none" stroke="#63b8ff" d="M201.11,-34.6C210.36,-36.01 220.54,-37.57 230.57,-39.1"/>
<polygon fill="#63b8ff" stroke="#63b8ff" points="229.88,-42.54 240.29,-40.59 230.94,-35.62 229.88,-42.54"/>
</g>
<!-- Node4 -->
<g id="node4" class="node">
<title>Node4</title>
<g id="a_node4"><a xlink:href="namespacedetail.html#ac185140ed8c8fcc07a302a890b714b0d" target="_top" xlink:title=" ">
<polygon fill="white" stroke="#666666" points="342.75,-20 236.75,-20 236.75,0 342.75,0 342.75,-20"/>
<text text-anchor="middle" x="289.75" y="-6.5" font-family="Helvetica,sans-Serif" font-size="10.00">detail::concat_length</text>
</a>
</g>
</g>
<!-- Node2&#45;&gt;Node4 -->
<g id="edge3" class="edge">
<title>Node2&#45;&gt;Node4</title>
<path fill="none" stroke="#63b8ff" d="M201.11,-23.4C208.69,-22.24 216.88,-20.99 225.11,-19.73"/>
<polygon fill="#63b8ff" stroke="#63b8ff" points="225.44,-23.22 234.8,-18.25 224.38,-16.3 225.44,-23.22"/>
</g>
</g>
</svg>
