<?xml version="1.0" encoding="UTF-8" standalone="no"?>
<!DOCTYPE svg PUBLIC "-//W3C//DTD SVG 1.1//EN"
 "http://www.w3.org/Graphics/SVG/1.1/DTD/svg11.dtd">
<!-- Generated by graphviz version 12.2.1 (20241206.2353)
 -->
<!-- Title: std::tuple_size&lt;::nlohmann::detail::iteration_proxy_value&lt; IteratorType &gt; &gt; Pages: 1 -->
<svg width="142pt" height="202pt"
 viewBox="0.00 0.00 141.75 202.00" xmlns="http://www.w3.org/2000/svg" xmlns:xlink="http://www.w3.org/1999/xlink">
<g id="graph0" class="graph" transform="scale(1 1) rotate(0) translate(4 198)">
<title>std::tuple_size&lt;::nlohmann::detail::iteration_proxy_value&lt; IteratorType &gt; &gt;</title>
<!-- Node1 -->
<g id="node1" class="node">
<title>Node1</title>
<g id="a_node1"><a xlink:title=" ">
<polygon fill="#999999" stroke="#666666" points="0,-0.5 0,-84.5 133.75,-84.5 133.75,-0.5 0,-0.5"/>
<text text-anchor="start" x="8" y="-71" font-family="Helvetica,sans-Serif" font-size="10.00">std::tuple_size&lt;::nlohmann</text>
<text text-anchor="start" x="8" y="-59" font-family="Helvetica,sans-Serif" font-size="10.00">::detail::iteration_proxy</text>
<text text-anchor="middle" x="66.88" y="-47" font-family="Helvetica,sans-Serif" font-size="10.00">_value&lt; IteratorType &gt; &gt;</text>
<polyline fill="none" stroke="#666666" points="0,-40.5 133.75,-40.5"/>
<text text-anchor="middle" x="66.88" y="-27" font-family="Helvetica,sans-Serif" font-size="10.00"> </text>
<polyline fill="none" stroke="#666666" points="0,-20.5 133.75,-20.5"/>
<text text-anchor="middle" x="66.88" y="-7" font-family="Helvetica,sans-Serif" font-size="10.00"> </text>
</a>
</g>
</g>
<!-- Node2 -->
<g id="node2" class="node">
<title>Node2</title>
<g id="a_node2"><a xlink:title=" ">
<polygon fill="white" stroke="#666666" points="12,-121.5 12,-193.5 121.75,-193.5 121.75,-121.5 12,-121.5"/>
<text text-anchor="start" x="20" y="-180" font-family="Helvetica,sans-Serif" font-size="10.00">std::integral_constant</text>
<text text-anchor="middle" x="66.88" y="-168" font-family="Helvetica,sans-Serif" font-size="10.00">&lt; std::size_t, 2 &gt;</text>
<polyline fill="none" stroke="#666666" points="12,-161.5 121.75,-161.5"/>
<text text-anchor="middle" x="66.88" y="-148" font-family="Helvetica,sans-Serif" font-size="10.00"> </text>
<polyline fill="none" stroke="#666666" points="12,-141.5 121.75,-141.5"/>
<text text-anchor="middle" x="66.88" y="-128" font-family="Helvetica,sans-Serif" font-size="10.00"> </text>
</a>
</g>
</g>
<!-- Node2&#45;&gt;Node1 -->
<g id="edge1" class="edge">
<title>Node2&#45;&gt;Node1</title>
<path fill="none" stroke="#63b8ff" d="M66.88,-109.64C66.88,-101.38 66.88,-92.84 66.88,-84.74"/>
<polygon fill="none" stroke="#63b8ff" points="63.38,-109.54 66.88,-119.54 70.38,-109.54 63.38,-109.54"/>
</g>
</g>
</svg>
