<?xml version="1.0" encoding="UTF-8" standalone="no"?>
<!DOCTYPE svg PUBLIC "-//W3C//DTD SVG 1.1//EN"
 "http://www.w3.org/Graphics/SVG/1.1/DTD/svg11.dtd">
<!-- Generated by graphviz version 12.2.1 (20241206.2353)
 -->
<!-- Title: basic_json::insert Pages: 1 -->
<svg width="394pt" height="66pt"
 viewBox="0.00 0.00 393.50 66.00" xmlns="http://www.w3.org/2000/svg" xmlns:xlink="http://www.w3.org/1999/xlink">
<g id="graph0" class="graph" transform="scale(1 1) rotate(0) translate(4 62)">
<title>basic_json::insert</title>
<!-- Node1 -->
<g id="node1" class="node">
<title>Node1</title>
<g id="a_node1"><a xlink:title="inserts element into array">
<polygon fill="#999999" stroke="#666666" points="385.5,-39 293,-39 293,-19 385.5,-19 385.5,-39"/>
<text text-anchor="middle" x="339.25" y="-25.5" font-family="Helvetica,sans-Serif" font-size="10.00">basic_json::insert</text>
</a>
</g>
</g>
<!-- Node2 -->
<g id="node2" class="node">
<title>Node2</title>
<g id="a_node2"><a xlink:href="classbasic__json.html#a940e724a2e8d5400ab772eb22af0387c" target="_top" xlink:title="creates a diff as a JSON patch">
<polygon fill="white" stroke="#666666" points="233.75,-58 151.75,-58 151.75,-38 233.75,-38 233.75,-58"/>
<text text-anchor="middle" x="192.75" y="-44.5" font-family="Helvetica,sans-Serif" font-size="10.00">basic_json::diff</text>
</a>
</g>
</g>
<!-- Node1&#45;&gt;Node2 -->
<g id="edge1" class="edge">
<title>Node1&#45;&gt;Node2</title>
<path fill="none" stroke="#63b8ff" d="M281.21,-36.5C265.35,-38.59 248.47,-40.81 233.81,-42.73"/>
<polygon fill="#63b8ff" stroke="#63b8ff" points="281.57,-39.98 291.03,-35.21 280.66,-33.04 281.57,-39.98"/>
</g>
<!-- Node3 -->
<g id="node3" class="node">
<title>Node3</title>
<g id="a_node3"><a xlink:href="classbasic__json.html#a693812b31e106dec9166e93d8f6dd7d7" target="_top" xlink:title="applies a JSON patch in&#45;place without copying the object">
<polygon fill="white" stroke="#666666" points="257,-20 128.5,-20 128.5,0 257,0 257,-20"/>
<text text-anchor="middle" x="192.75" y="-6.5" font-family="Helvetica,sans-Serif" font-size="10.00">basic_json::patch_inplace</text>
</a>
</g>
</g>
<!-- Node1&#45;&gt;Node3 -->
<g id="edge2" class="edge">
<title>Node1&#45;&gt;Node3</title>
<path fill="none" stroke="#63b8ff" d="M281.27,-21.51C273.43,-20.48 265.34,-19.41 257.39,-18.37"/>
<polygon fill="#63b8ff" stroke="#63b8ff" points="280.66,-24.96 291.03,-22.79 281.57,-18.02 280.66,-24.96"/>
</g>
<!-- Node4 -->
<g id="node4" class="node">
<title>Node4</title>
<g id="a_node4"><a xlink:href="classbasic__json.html#a145a004c0a2fa5be84b260ecc98ab5d9" target="_top" xlink:title="applies a JSON patch to a copy of the current object">
<polygon fill="white" stroke="#666666" points="92.5,-20 0,-20 0,0 92.5,0 92.5,-20"/>
<text text-anchor="middle" x="46.25" y="-6.5" font-family="Helvetica,sans-Serif" font-size="10.00">basic_json::patch</text>
</a>
</g>
</g>
<!-- Node3&#45;&gt;Node4 -->
<g id="edge3" class="edge">
<title>Node3&#45;&gt;Node4</title>
<path fill="none" stroke="#63b8ff" d="M117.08,-10C108.79,-10 100.55,-10 92.78,-10"/>
<polygon fill="#63b8ff" stroke="#63b8ff" points="116.86,-13.5 126.86,-10 116.86,-6.5 116.86,-13.5"/>
</g>
</g>
</svg>
