<?xml version="1.0" encoding="UTF-8" standalone="no"?>
<!DOCTYPE svg PUBLIC "-//W3C//DTD SVG 1.1//EN"
 "http://www.w3.org/Graphics/SVG/1.1/DTD/svg11.dtd">
<!-- Generated by graphviz version 12.2.1 (20241206.2353)
 -->
<!-- Title: json_pointer::parent_pointer Pages: 1 -->
<svg width="805pt" height="93pt"
 viewBox="0.00 0.00 805.25 93.16" xmlns="http://www.w3.org/2000/svg" xmlns:xlink="http://www.w3.org/1999/xlink">
<g id="graph0" class="graph" transform="scale(1 1) rotate(0) translate(4 89.16)">
<title>json_pointer::parent_pointer</title>
<!-- Node1 -->
<g id="node1" class="node">
<title>Node1</title>
<g id="a_node1"><a xlink:title="returns the parent of this JSON pointer">
<polygon fill="#999999" stroke="#666666" points="101.5,-70 0,-70 0,-38 101.5,-38 101.5,-70"/>
<text text-anchor="start" x="8" y="-56.5" font-family="Helvetica,sans-Serif" font-size="10.00">json_pointer::parent</text>
<text text-anchor="middle" x="50.75" y="-44.5" font-family="Helvetica,sans-Serif" font-size="10.00">_pointer</text>
</a>
</g>
</g>
<!-- Node2 -->
<g id="node2" class="node">
<title>Node2</title>
<g id="a_node2"><a xlink:href="classjson__pointer.html#a662118b470c87a1b564946c2602c49ce" target="_top" xlink:title="remove last reference token">
<polygon fill="white" stroke="#666666" points="254,-64 137.5,-64 137.5,-44 254,-44 254,-64"/>
<text text-anchor="middle" x="195.75" y="-50.5" font-family="Helvetica,sans-Serif" font-size="10.00">json_pointer::pop_back</text>
</a>
</g>
</g>
<!-- Node1&#45;&gt;Node2 -->
<g id="edge1" class="edge">
<title>Node1&#45;&gt;Node2</title>
<path fill="none" stroke="#63b8ff" d="M101.76,-54C109.54,-54 117.68,-54 125.79,-54"/>
<polygon fill="#63b8ff" stroke="#63b8ff" points="125.66,-57.5 135.66,-54 125.66,-50.5 125.66,-57.5"/>
</g>
<!-- Node3 -->
<g id="node3" class="node">
<title>Node3</title>
<g id="a_node3"><a xlink:href="classdetail_1_1out__of__range.html#a79ea0d3ec02a853629dc827e045ecff5" target="_top" xlink:title=" ">
<polygon fill="white" stroke="#666666" points="391.5,-70 290,-70 290,-38 391.5,-38 391.5,-70"/>
<text text-anchor="start" x="298" y="-56.5" font-family="Helvetica,sans-Serif" font-size="10.00">detail::out_of_range</text>
<text text-anchor="middle" x="340.75" y="-44.5" font-family="Helvetica,sans-Serif" font-size="10.00">::create</text>
</a>
</g>
</g>
<!-- Node2&#45;&gt;Node3 -->
<g id="edge2" class="edge">
<title>Node2&#45;&gt;Node3</title>
<path fill="none" stroke="#63b8ff" d="M254.09,-54C262.12,-54 270.39,-54 278.49,-54"/>
<polygon fill="#63b8ff" stroke="#63b8ff" points="278.26,-57.5 288.26,-54 278.26,-50.5 278.26,-57.5"/>
</g>
<!-- Node4 -->
<g id="node4" class="node">
<title>Node4</title>
<g id="a_node4"><a xlink:href="namespacedetail.html#a266fb3d4bf633ad6c506434cc91164da" target="_top" xlink:title=" ">
<polygon fill="white" stroke="#666666" points="655.25,-64 580.75,-64 580.75,-44 655.25,-44 655.25,-64"/>
<text text-anchor="middle" x="618" y="-50.5" font-family="Helvetica,sans-Serif" font-size="10.00">detail::concat</text>
</a>
</g>
</g>
<!-- Node3&#45;&gt;Node4 -->
<g id="edge3" class="edge">
<title>Node3&#45;&gt;Node4</title>
<path fill="none" stroke="#63b8ff" d="M389.3,-70.46C401.59,-73.99 414.91,-77.2 427.5,-79 479.09,-86.37 493.36,-87.64 544.75,-79 557.45,-76.87 570.89,-72.76 582.7,-68.48"/>
<polygon fill="#63b8ff" stroke="#63b8ff" points="583.93,-71.76 592.03,-64.93 581.44,-65.22 583.93,-71.76"/>
</g>
<!-- Node7 -->
<g id="node7" class="node">
<title>Node7</title>
<g id="a_node7"><a xlink:href="classdetail_1_1exception.html#a6b4a786b5c1c25dd3edaceb1bf2d5120" target="_top" xlink:title=" ">
<polygon fill="white" stroke="#666666" points="532.75,-70 439.5,-70 439.5,-38 532.75,-38 532.75,-70"/>
<text text-anchor="start" x="447.5" y="-56.5" font-family="Helvetica,sans-Serif" font-size="10.00">detail::exception::</text>
<text text-anchor="middle" x="486.12" y="-44.5" font-family="Helvetica,sans-Serif" font-size="10.00">diagnostics</text>
</a>
</g>
</g>
<!-- Node3&#45;&gt;Node7 -->
<g id="edge6" class="edge">
<title>Node3&#45;&gt;Node7</title>
<path fill="none" stroke="#63b8ff" d="M391.9,-54C403.52,-54 415.98,-54 427.89,-54"/>
<polygon fill="#63b8ff" stroke="#63b8ff" points="427.57,-57.5 437.57,-54 427.57,-50.5 427.57,-57.5"/>
</g>
<!-- Node8 -->
<g id="node8" class="node">
<title>Node8</title>
<g id="a_node8"><a xlink:href="classdetail_1_1exception.html#a8f1eb56b9964c8dd84d89d0da98d883b" target="_top" xlink:title=" ">
<polygon fill="white" stroke="#666666" points="544.75,-20 427.5,-20 427.5,0 544.75,0 544.75,-20"/>
<text text-anchor="middle" x="486.12" y="-6.5" font-family="Helvetica,sans-Serif" font-size="10.00">detail::exception::name</text>
</a>
</g>
</g>
<!-- Node3&#45;&gt;Node8 -->
<g id="edge7" class="edge">
<title>Node3&#45;&gt;Node8</title>
<path fill="none" stroke="#63b8ff" d="M391.9,-38.61C407.62,-33.79 424.87,-28.49 440.21,-23.78"/>
<polygon fill="#63b8ff" stroke="#63b8ff" points="441.01,-27.2 449.55,-20.92 438.96,-20.51 441.01,-27.2"/>
</g>
<!-- Node5 -->
<g id="node5" class="node">
<title>Node5</title>
<g id="a_node5"><a xlink:href="namespacedetail.html#a89f967b745cf8df11ba9d59f93d97753" target="_top" xlink:title=" ">
<polygon fill="white" stroke="#666666" points="792,-83 696.5,-83 696.5,-63 792,-63 792,-83"/>
<text text-anchor="middle" x="744.25" y="-69.5" font-family="Helvetica,sans-Serif" font-size="10.00">detail::concat_into</text>
</a>
</g>
</g>
<!-- Node4&#45;&gt;Node5 -->
<g id="edge4" class="edge">
<title>Node4&#45;&gt;Node5</title>
<path fill="none" stroke="#63b8ff" d="M655.61,-59.6C664.86,-61.01 675.04,-62.57 685.07,-64.1"/>
<polygon fill="#63b8ff" stroke="#63b8ff" points="684.38,-67.54 694.79,-65.59 685.44,-60.62 684.38,-67.54"/>
</g>
<!-- Node6 -->
<g id="node6" class="node">
<title>Node6</title>
<g id="a_node6"><a xlink:href="namespacedetail.html#ac185140ed8c8fcc07a302a890b714b0d" target="_top" xlink:title=" ">
<polygon fill="white" stroke="#666666" points="797.25,-45 691.25,-45 691.25,-25 797.25,-25 797.25,-45"/>
<text text-anchor="middle" x="744.25" y="-31.5" font-family="Helvetica,sans-Serif" font-size="10.00">detail::concat_length</text>
</a>
</g>
</g>
<!-- Node4&#45;&gt;Node6 -->
<g id="edge5" class="edge">
<title>Node4&#45;&gt;Node6</title>
<path fill="none" stroke="#63b8ff" d="M655.61,-48.4C663.19,-47.24 671.38,-45.99 679.61,-44.73"/>
<polygon fill="#63b8ff" stroke="#63b8ff" points="679.94,-48.22 689.3,-43.25 678.88,-41.3 679.94,-48.22"/>
</g>
<!-- Node8&#45;&gt;Node4 -->
<g id="edge8" class="edge">
<title>Node8&#45;&gt;Node4</title>
<path fill="none" stroke="#63b8ff" d="M519.16,-20.47C527.5,-23.22 536.47,-26.2 544.75,-29 555,-32.46 566.05,-36.26 576.35,-39.82"/>
<polygon fill="#63b8ff" stroke="#63b8ff" points="575.13,-43.1 585.72,-43.07 577.42,-36.48 575.13,-43.1"/>
</g>
</g>
</svg>
