<?xml version="1.0" encoding="UTF-8" standalone="no"?>
<!DOCTYPE svg PUBLIC "-//W3C//DTD SVG 1.1//EN"
 "http://www.w3.org/Graphics/SVG/1.1/DTD/svg11.dtd">
<!-- Generated by graphviz version 12.2.1 (20241206.2353)
 -->
<!-- Title: detail::parse_error::create Pages: 1 -->
<svg width="508pt" height="93pt"
 viewBox="0.00 0.00 507.75 93.24" xmlns="http://www.w3.org/2000/svg" xmlns:xlink="http://www.w3.org/1999/xlink">
<g id="graph0" class="graph" transform="scale(1 1) rotate(0) translate(4 89.24)">
<title>detail::parse_error::create</title>
<!-- Node1 -->
<g id="node1" class="node">
<title>Node1</title>
<g id="a_node1"><a xlink:title=" ">
<polygon fill="#999999" stroke="#666666" points="94,-70 0,-70 0,-38 94,-38 94,-70"/>
<text text-anchor="start" x="8" y="-56.5" font-family="Helvetica,sans-Serif" font-size="10.00">detail::parse_error</text>
<text text-anchor="middle" x="47" y="-44.5" font-family="Helvetica,sans-Serif" font-size="10.00">::create</text>
</a>
</g>
</g>
<!-- Node2 -->
<g id="node2" class="node">
<title>Node2</title>
<g id="a_node2"><a xlink:href="namespacedetail.html#a266fb3d4bf633ad6c506434cc91164da" target="_top" xlink:title=" ">
<polygon fill="white" stroke="#666666" points="357.75,-64 283.25,-64 283.25,-44 357.75,-44 357.75,-64"/>
<text text-anchor="middle" x="320.5" y="-50.5" font-family="Helvetica,sans-Serif" font-size="10.00">detail::concat</text>
</a>
</g>
</g>
<!-- Node1&#45;&gt;Node2 -->
<g id="edge1" class="edge">
<title>Node1&#45;&gt;Node2</title>
<path fill="none" stroke="#63b8ff" d="M93.42,-70.45C105.18,-73.99 117.93,-77.2 130,-79 181.54,-86.68 195.86,-87.64 247.25,-79 259.95,-76.87 273.39,-72.76 285.2,-68.48"/>
<polygon fill="#63b8ff" stroke="#63b8ff" points="286.43,-71.76 294.53,-64.93 283.94,-65.22 286.43,-71.76"/>
</g>
<!-- Node5 -->
<g id="node5" class="node">
<title>Node5</title>
<g id="a_node5"><a xlink:href="classdetail_1_1exception.html#a6b4a786b5c1c25dd3edaceb1bf2d5120" target="_top" xlink:title=" ">
<polygon fill="white" stroke="#666666" points="235.25,-70 142,-70 142,-38 235.25,-38 235.25,-70"/>
<text text-anchor="start" x="150" y="-56.5" font-family="Helvetica,sans-Serif" font-size="10.00">detail::exception::</text>
<text text-anchor="middle" x="188.62" y="-44.5" font-family="Helvetica,sans-Serif" font-size="10.00">diagnostics</text>
</a>
</g>
</g>
<!-- Node1&#45;&gt;Node5 -->
<g id="edge4" class="edge">
<title>Node1&#45;&gt;Node5</title>
<path fill="none" stroke="#63b8ff" d="M94.49,-54C106.04,-54 118.54,-54 130.52,-54"/>
<polygon fill="#63b8ff" stroke="#63b8ff" points="130.3,-57.5 140.3,-54 130.3,-50.5 130.3,-57.5"/>
</g>
<!-- Node6 -->
<g id="node6" class="node">
<title>Node6</title>
<g id="a_node6"><a xlink:href="classdetail_1_1exception.html#a8f1eb56b9964c8dd84d89d0da98d883b" target="_top" xlink:title=" ">
<polygon fill="white" stroke="#666666" points="247.25,-20 130,-20 130,0 247.25,0 247.25,-20"/>
<text text-anchor="middle" x="188.62" y="-6.5" font-family="Helvetica,sans-Serif" font-size="10.00">detail::exception::name</text>
</a>
</g>
</g>
<!-- Node1&#45;&gt;Node6 -->
<g id="edge5" class="edge">
<title>Node1&#45;&gt;Node6</title>
<path fill="none" stroke="#63b8ff" d="M94.49,-39.35C110.32,-34.36 127.96,-28.8 143.6,-23.88"/>
<polygon fill="#63b8ff" stroke="#63b8ff" points="144.64,-27.22 153.13,-20.87 142.54,-20.54 144.64,-27.22"/>
</g>
<!-- Node3 -->
<g id="node3" class="node">
<title>Node3</title>
<g id="a_node3"><a xlink:href="namespacedetail.html#a89f967b745cf8df11ba9d59f93d97753" target="_top" xlink:title=" ">
<polygon fill="white" stroke="#666666" points="494.5,-83 399,-83 399,-63 494.5,-63 494.5,-83"/>
<text text-anchor="middle" x="446.75" y="-69.5" font-family="Helvetica,sans-Serif" font-size="10.00">detail::concat_into</text>
</a>
</g>
</g>
<!-- Node2&#45;&gt;Node3 -->
<g id="edge2" class="edge">
<title>Node2&#45;&gt;Node3</title>
<path fill="none" stroke="#63b8ff" d="M358.11,-59.6C367.36,-61.01 377.54,-62.57 387.57,-64.1"/>
<polygon fill="#63b8ff" stroke="#63b8ff" points="386.88,-67.54 397.29,-65.59 387.94,-60.62 386.88,-67.54"/>
</g>
<!-- Node4 -->
<g id="node4" class="node">
<title>Node4</title>
<g id="a_node4"><a xlink:href="namespacedetail.html#ac185140ed8c8fcc07a302a890b714b0d" target="_top" xlink:title=" ">
<polygon fill="white" stroke="#666666" points="499.75,-45 393.75,-45 393.75,-25 499.75,-25 499.75,-45"/>
<text text-anchor="middle" x="446.75" y="-31.5" font-family="Helvetica,sans-Serif" font-size="10.00">detail::concat_length</text>
</a>
</g>
</g>
<!-- Node2&#45;&gt;Node4 -->
<g id="edge3" class="edge">
<title>Node2&#45;&gt;Node4</title>
<path fill="none" stroke="#63b8ff" d="M358.11,-48.4C365.69,-47.24 373.88,-45.99 382.11,-44.73"/>
<polygon fill="#63b8ff" stroke="#63b8ff" points="382.44,-48.22 391.8,-43.25 381.38,-41.3 382.44,-48.22"/>
</g>
<!-- Node6&#45;&gt;Node2 -->
<g id="edge6" class="edge">
<title>Node6&#45;&gt;Node2</title>
<path fill="none" stroke="#63b8ff" d="M221.66,-20.47C230,-23.22 238.97,-26.2 247.25,-29 257.5,-32.46 268.55,-36.26 278.85,-39.82"/>
<polygon fill="#63b8ff" stroke="#63b8ff" points="277.63,-43.1 288.22,-43.07 279.92,-36.48 277.63,-43.1"/>
</g>
</g>
</svg>
