<?xml version="1.0" encoding="UTF-8" standalone="no"?>
<!DOCTYPE svg PUBLIC "-//W3C//DTD SVG 1.1//EN"
 "http://www.w3.org/Graphics/SVG/1.1/DTD/svg11.dtd">
<!-- Generated by graphviz version 12.2.1 (20241206.2353)
 -->
<!-- Title: basic_json::from_msgpack Pages: 1 -->
<svg width="683pt" height="107pt"
 viewBox="0.00 0.00 682.75 107.00" xmlns="http://www.w3.org/2000/svg" xmlns:xlink="http://www.w3.org/1999/xlink">
<g id="graph0" class="graph" transform="scale(1 1) rotate(0) translate(4 103)">
<title>basic_json::from_msgpack</title>
<!-- Node1 -->
<g id="node1" class="node">
<title>Node1</title>
<g id="a_node1"><a xlink:title=" ">
<polygon fill="#999999" stroke="#666666" points="133,-80 0,-80 0,-60 133,-60 133,-80"/>
<text text-anchor="middle" x="66.5" y="-66.5" font-family="Helvetica,sans-Serif" font-size="10.00">basic_json::from_msgpack</text>
</a>
</g>
</g>
<!-- Node2 -->
<g id="node2" class="node">
<title>Node2</title>
<g id="a_node2"><a xlink:href="classbasic__json.html#a0ab31c7fdbab38898070bca01637f886" target="_top" xlink:title="get a (pointer) value (explicit)">
<polygon fill="white" stroke="#666666" points="266.75,-99 184.75,-99 184.75,-79 266.75,-79 266.75,-99"/>
<text text-anchor="middle" x="225.75" y="-85.5" font-family="Helvetica,sans-Serif" font-size="10.00">basic_json::get</text>
</a>
</g>
</g>
<!-- Node1&#45;&gt;Node2 -->
<g id="edge1" class="edge">
<title>Node1&#45;&gt;Node2</title>
<path fill="none" stroke="#63b8ff" d="M133.28,-77.95C146.55,-79.55 160.33,-81.22 173.04,-82.75"/>
<polygon fill="#63b8ff" stroke="#63b8ff" points="172.51,-86.21 182.86,-83.94 173.35,-79.26 172.51,-86.21"/>
</g>
<!-- Node3 -->
<g id="node3" class="node">
<title>Node3</title>
<g id="a_node3"><a xlink:href="classbasic__json.html#a602b1c389d92f2c7db21f89bb6fb9817" target="_top" xlink:title=" ">
<polygon fill="white" stroke="#666666" points="282.5,-61 169,-61 169,-41 282.5,-41 282.5,-61"/>
<text text-anchor="middle" x="225.75" y="-47.5" font-family="Helvetica,sans-Serif" font-size="10.00">basic_json::sax_parse</text>
</a>
</g>
</g>
<!-- Node1&#45;&gt;Node3 -->
<g id="edge2" class="edge">
<title>Node1&#45;&gt;Node3</title>
<path fill="none" stroke="#63b8ff" d="M133.28,-62.05C141.29,-61.08 149.48,-60.1 157.51,-59.12"/>
<polygon fill="#63b8ff" stroke="#63b8ff" points="157.7,-62.63 167.21,-57.95 156.86,-55.68 157.7,-62.63"/>
</g>
<!-- Node4 -->
<g id="node4" class="node">
<title>Node4</title>
<g id="a_node4"><a xlink:href="namespacedetail.html#aada1510d1b55ad2faf4a71c70cffb374" target="_top" xlink:title=" ">
<polygon fill="white" stroke="#666666" points="422.25,-83 318.5,-83 318.5,-63 422.25,-63 422.25,-83"/>
<text text-anchor="middle" x="370.38" y="-69.5" font-family="Helvetica,sans-Serif" font-size="10.00">detail::input_adapter</text>
</a>
</g>
</g>
<!-- Node3&#45;&gt;Node4 -->
<g id="edge3" class="edge">
<title>Node3&#45;&gt;Node4</title>
<path fill="none" stroke="#63b8ff" d="M282.71,-59.63C290.67,-60.86 298.89,-62.13 306.96,-63.37"/>
<polygon fill="#63b8ff" stroke="#63b8ff" points="306.31,-66.81 316.73,-64.88 307.38,-59.9 306.31,-66.81"/>
</g>
<!-- Node5 -->
<g id="node5" class="node">
<title>Node5</title>
<g id="a_node5"><a xlink:href="classdetail_1_1binary__reader.html#a8e1b5452ae426e1d7b48761859e7f52d" target="_top" xlink:title=" ">
<polygon fill="white" stroke="#666666" points="422.25,-45 318.5,-45 318.5,-13 422.25,-13 422.25,-45"/>
<text text-anchor="start" x="326.5" y="-31.5" font-family="Helvetica,sans-Serif" font-size="10.00">detail::binary_reader</text>
<text text-anchor="middle" x="370.38" y="-19.5" font-family="Helvetica,sans-Serif" font-size="10.00">::sax_parse</text>
</a>
</g>
</g>
<!-- Node3&#45;&gt;Node5 -->
<g id="edge4" class="edge">
<title>Node3&#45;&gt;Node5</title>
<path fill="none" stroke="#63b8ff" d="M282.71,-42.37C290.67,-41.14 298.89,-39.87 306.96,-38.63"/>
<polygon fill="#63b8ff" stroke="#63b8ff" points="307.38,-42.1 316.73,-37.12 306.31,-35.19 307.38,-42.1"/>
</g>
<!-- Node6 -->
<g id="node6" class="node">
<title>Node6</title>
<g id="a_node6"><a xlink:href="namespacedetail.html#a266fb3d4bf633ad6c506434cc91164da" target="_top" xlink:title=" ">
<polygon fill="white" stroke="#666666" points="532.75,-58 458.25,-58 458.25,-38 532.75,-38 532.75,-58"/>
<text text-anchor="middle" x="495.5" y="-44.5" font-family="Helvetica,sans-Serif" font-size="10.00">detail::concat</text>
</a>
</g>
</g>
<!-- Node5&#45;&gt;Node6 -->
<g id="edge5" class="edge">
<title>Node5&#45;&gt;Node6</title>
<path fill="none" stroke="#63b8ff" d="M422.52,-36.89C430.51,-38.13 438.74,-39.4 446.66,-40.62"/>
<polygon fill="#63b8ff" stroke="#63b8ff" points="446.04,-44.06 456.46,-42.13 447.11,-37.15 446.04,-44.06"/>
</g>
<!-- Node9 -->
<g id="node9" class="node">
<title>Node9</title>
<g id="a_node9"><a xlink:href="namespacedetail.html#a7116703ea757fe9821bf2e903b91c160" target="_top" xlink:title=" ">
<polygon fill="white" stroke="#666666" points="524.88,-20 466.12,-20 466.12,0 524.88,0 524.88,-20"/>
<text text-anchor="middle" x="495.5" y="-6.5" font-family="Helvetica,sans-Serif" font-size="10.00">detail::get</text>
</a>
</g>
</g>
<!-- Node5&#45;&gt;Node9 -->
<g id="edge8" class="edge">
<title>Node5&#45;&gt;Node9</title>
<path fill="none" stroke="#63b8ff" d="M422.52,-21.11C433.27,-19.45 444.46,-17.72 454.73,-16.14"/>
<polygon fill="#63b8ff" stroke="#63b8ff" points="455,-19.64 464.35,-14.65 453.93,-12.72 455,-19.64"/>
</g>
<!-- Node7 -->
<g id="node7" class="node">
<title>Node7</title>
<g id="a_node7"><a xlink:href="namespacedetail.html#a89f967b745cf8df11ba9d59f93d97753" target="_top" xlink:title=" ">
<polygon fill="white" stroke="#666666" points="669.5,-77 574,-77 574,-57 669.5,-57 669.5,-77"/>
<text text-anchor="middle" x="621.75" y="-63.5" font-family="Helvetica,sans-Serif" font-size="10.00">detail::concat_into</text>
</a>
</g>
</g>
<!-- Node6&#45;&gt;Node7 -->
<g id="edge6" class="edge">
<title>Node6&#45;&gt;Node7</title>
<path fill="none" stroke="#63b8ff" d="M533.11,-53.6C542.36,-55.01 552.54,-56.57 562.57,-58.1"/>
<polygon fill="#63b8ff" stroke="#63b8ff" points="561.88,-61.54 572.29,-59.59 562.94,-54.62 561.88,-61.54"/>
</g>
<!-- Node8 -->
<g id="node8" class="node">
<title>Node8</title>
<g id="a_node8"><a xlink:href="namespacedetail.html#ac185140ed8c8fcc07a302a890b714b0d" target="_top" xlink:title=" ">
<polygon fill="white" stroke="#666666" points="674.75,-39 568.75,-39 568.75,-19 674.75,-19 674.75,-39"/>
<text text-anchor="middle" x="621.75" y="-25.5" font-family="Helvetica,sans-Serif" font-size="10.00">detail::concat_length</text>
</a>
</g>
</g>
<!-- Node6&#45;&gt;Node8 -->
<g id="edge7" class="edge">
<title>Node6&#45;&gt;Node8</title>
<path fill="none" stroke="#63b8ff" d="M533.11,-42.4C540.69,-41.24 548.88,-39.99 557.11,-38.73"/>
<polygon fill="#63b8ff" stroke="#63b8ff" points="557.44,-42.22 566.8,-37.25 556.38,-35.3 557.44,-42.22"/>
</g>
</g>
</svg>
