<?xml version="1.0" encoding="UTF-8" standalone="no"?>
<!DOCTYPE svg PUBLIC "-//W3C//DTD SVG 1.1//EN"
 "http://www.w3.org/Graphics/SVG/1.1/DTD/svg11.dtd">
<!-- Generated by graphviz version 12.2.1 (20241206.2353)
 -->
<!-- Title: basic_json::sax_parse Pages: 1 -->
<svg width="514pt" height="91pt"
 viewBox="0.00 0.00 513.75 91.00" xmlns="http://www.w3.org/2000/svg" xmlns:xlink="http://www.w3.org/1999/xlink">
<g id="graph0" class="graph" transform="scale(1 1) rotate(0) translate(4 87)">
<title>basic_json::sax_parse</title>
<!-- Node1 -->
<g id="node1" class="node">
<title>Node1</title>
<g id="a_node1"><a xlink:title="generate SAX events">
<polygon fill="#999999" stroke="#666666" points="113.5,-61 0,-61 0,-41 113.5,-41 113.5,-61"/>
<text text-anchor="middle" x="56.75" y="-47.5" font-family="Helvetica,sans-Serif" font-size="10.00">basic_json::sax_parse</text>
</a>
</g>
</g>
<!-- Node2 -->
<g id="node2" class="node">
<title>Node2</title>
<g id="a_node2"><a xlink:href="namespacedetail.html#aada1510d1b55ad2faf4a71c70cffb374" target="_top" xlink:title=" ">
<polygon fill="white" stroke="#666666" points="253.25,-83 149.5,-83 149.5,-63 253.25,-63 253.25,-83"/>
<text text-anchor="middle" x="201.38" y="-69.5" font-family="Helvetica,sans-Serif" font-size="10.00">detail::input_adapter</text>
</a>
</g>
</g>
<!-- Node1&#45;&gt;Node2 -->
<g id="edge1" class="edge">
<title>Node1&#45;&gt;Node2</title>
<path fill="none" stroke="#63b8ff" d="M113.71,-59.63C121.67,-60.86 129.89,-62.13 137.96,-63.37"/>
<polygon fill="#63b8ff" stroke="#63b8ff" points="137.31,-66.81 147.73,-64.88 138.38,-59.9 137.31,-66.81"/>
</g>
<!-- Node3 -->
<g id="node3" class="node">
<title>Node3</title>
<g id="a_node3"><a xlink:href="classdetail_1_1binary__reader.html#a8e1b5452ae426e1d7b48761859e7f52d" target="_top" xlink:title=" ">
<polygon fill="white" stroke="#666666" points="253.25,-45 149.5,-45 149.5,-13 253.25,-13 253.25,-45"/>
<text text-anchor="start" x="157.5" y="-31.5" font-family="Helvetica,sans-Serif" font-size="10.00">detail::binary_reader</text>
<text text-anchor="middle" x="201.38" y="-19.5" font-family="Helvetica,sans-Serif" font-size="10.00">::sax_parse</text>
</a>
</g>
</g>
<!-- Node1&#45;&gt;Node3 -->
<g id="edge2" class="edge">
<title>Node1&#45;&gt;Node3</title>
<path fill="none" stroke="#63b8ff" d="M113.71,-42.37C121.67,-41.14 129.89,-39.87 137.96,-38.63"/>
<polygon fill="#63b8ff" stroke="#63b8ff" points="138.38,-42.1 147.73,-37.12 137.31,-35.19 138.38,-42.1"/>
</g>
<!-- Node4 -->
<g id="node4" class="node">
<title>Node4</title>
<g id="a_node4"><a xlink:href="namespacedetail.html#a266fb3d4bf633ad6c506434cc91164da" target="_top" xlink:title=" ">
<polygon fill="white" stroke="#666666" points="363.75,-58 289.25,-58 289.25,-38 363.75,-38 363.75,-58"/>
<text text-anchor="middle" x="326.5" y="-44.5" font-family="Helvetica,sans-Serif" font-size="10.00">detail::concat</text>
</a>
</g>
</g>
<!-- Node3&#45;&gt;Node4 -->
<g id="edge3" class="edge">
<title>Node3&#45;&gt;Node4</title>
<path fill="none" stroke="#63b8ff" d="M253.52,-36.89C261.51,-38.13 269.74,-39.4 277.66,-40.62"/>
<polygon fill="#63b8ff" stroke="#63b8ff" points="277.04,-44.06 287.46,-42.13 278.11,-37.15 277.04,-44.06"/>
</g>
<!-- Node7 -->
<g id="node7" class="node">
<title>Node7</title>
<g id="a_node7"><a xlink:href="namespacedetail.html#a7116703ea757fe9821bf2e903b91c160" target="_top" xlink:title=" ">
<polygon fill="white" stroke="#666666" points="355.88,-20 297.12,-20 297.12,0 355.88,0 355.88,-20"/>
<text text-anchor="middle" x="326.5" y="-6.5" font-family="Helvetica,sans-Serif" font-size="10.00">detail::get</text>
</a>
</g>
</g>
<!-- Node3&#45;&gt;Node7 -->
<g id="edge6" class="edge">
<title>Node3&#45;&gt;Node7</title>
<path fill="none" stroke="#63b8ff" d="M253.52,-21.11C264.27,-19.45 275.46,-17.72 285.73,-16.14"/>
<polygon fill="#63b8ff" stroke="#63b8ff" points="286,-19.64 295.35,-14.65 284.93,-12.72 286,-19.64"/>
</g>
<!-- Node5 -->
<g id="node5" class="node">
<title>Node5</title>
<g id="a_node5"><a xlink:href="namespacedetail.html#a89f967b745cf8df11ba9d59f93d97753" target="_top" xlink:title=" ">
<polygon fill="white" stroke="#666666" points="500.5,-77 405,-77 405,-57 500.5,-57 500.5,-77"/>
<text text-anchor="middle" x="452.75" y="-63.5" font-family="Helvetica,sans-Serif" font-size="10.00">detail::concat_into</text>
</a>
</g>
</g>
<!-- Node4&#45;&gt;Node5 -->
<g id="edge4" class="edge">
<title>Node4&#45;&gt;Node5</title>
<path fill="none" stroke="#63b8ff" d="M364.11,-53.6C373.36,-55.01 383.54,-56.57 393.57,-58.1"/>
<polygon fill="#63b8ff" stroke="#63b8ff" points="392.88,-61.54 403.29,-59.59 393.94,-54.62 392.88,-61.54"/>
</g>
<!-- Node6 -->
<g id="node6" class="node">
<title>Node6</title>
<g id="a_node6"><a xlink:href="namespacedetail.html#ac185140ed8c8fcc07a302a890b714b0d" target="_top" xlink:title=" ">
<polygon fill="white" stroke="#666666" points="505.75,-39 399.75,-39 399.75,-19 505.75,-19 505.75,-39"/>
<text text-anchor="middle" x="452.75" y="-25.5" font-family="Helvetica,sans-Serif" font-size="10.00">detail::concat_length</text>
</a>
</g>
</g>
<!-- Node4&#45;&gt;Node6 -->
<g id="edge5" class="edge">
<title>Node4&#45;&gt;Node6</title>
<path fill="none" stroke="#63b8ff" d="M364.11,-42.4C371.69,-41.24 379.88,-39.99 388.11,-38.73"/>
<polygon fill="#63b8ff" stroke="#63b8ff" points="388.44,-42.22 397.8,-37.25 387.38,-35.3 388.44,-42.22"/>
</g>
</g>
</svg>
