<?xml version="1.0" encoding="UTF-8" standalone="no"?>
<!DOCTYPE svg PUBLIC "-//W3C//DTD SVG 1.1//EN"
 "http://www.w3.org/Graphics/SVG/1.1/DTD/svg11.dtd">
<!-- Generated by graphviz version 12.2.1 (20241206.2353)
 -->
<!-- Title: TurnManager::endTurn Pages: 1 -->
<svg width="674pt" height="116pt"
 viewBox="0.00 0.00 673.50 116.00" xmlns="http://www.w3.org/2000/svg" xmlns:xlink="http://www.w3.org/1999/xlink">
<g id="graph0" class="graph" transform="scale(1 1) rotate(0) translate(4 112)">
<title>TurnManager::endTurn</title>
<!-- Node1 -->
<g id="node1" class="node">
<title>Node1</title>
<g id="a_node1"><a xlink:title=" ">
<polygon fill="#999999" stroke="#666666" points="665.5,-58 551.25,-58 551.25,-38 665.5,-38 665.5,-58"/>
<text text-anchor="middle" x="608.38" y="-44.5" font-family="Helvetica,sans-Serif" font-size="10.00">TurnManager::endTurn</text>
</a>
</g>
</g>
<!-- Node2 -->
<g id="node2" class="node">
<title>Node2</title>
<g id="a_node2"><a xlink:href="classTurnManager.html#af0af68eda36f0eb00ab1c0a497dea311" target="_top" xlink:title=" ">
<polygon fill="white" stroke="#666666" points="515.25,-64 368,-64 368,-32 515.25,-32 515.25,-64"/>
<text text-anchor="start" x="376" y="-50.5" font-family="Helvetica,sans-Serif" font-size="10.00">TurnManager::advanceToNext</text>
<text text-anchor="middle" x="441.62" y="-38.5" font-family="Helvetica,sans-Serif" font-size="10.00">Phase</text>
</a>
</g>
</g>
<!-- Node1&#45;&gt;Node2 -->
<g id="edge1" class="edge">
<title>Node1&#45;&gt;Node2</title>
<path fill="none" stroke="#63b8ff" d="M539.64,-48C531.68,-48 523.53,-48 515.5,-48"/>
<polygon fill="#63b8ff" stroke="#63b8ff" points="539.62,-51.5 549.62,-48 539.62,-44.5 539.62,-51.5"/>
</g>
<!-- Node3 -->
<g id="node3" class="node">
<title>Node3</title>
<g id="a_node3"><a xlink:href="classTurnManager.html#a885f4d5c2429682587a09c1e0f2bfa93" target="_top" xlink:title=" ">
<polygon fill="white" stroke="#666666" points="320,-108 181,-108 181,-76 320,-76 320,-108"/>
<text text-anchor="start" x="189" y="-94.5" font-family="Helvetica,sans-Serif" font-size="10.00">TurnManager::processEvent</text>
<text text-anchor="middle" x="250.5" y="-82.5" font-family="Helvetica,sans-Serif" font-size="10.00">Phase</text>
</a>
</g>
</g>
<!-- Node2&#45;&gt;Node3 -->
<g id="edge2" class="edge">
<title>Node2&#45;&gt;Node3</title>
<path fill="none" stroke="#63b8ff" d="M358.75,-67.05C345.9,-70.04 332.74,-73.1 320.22,-76.01"/>
<polygon fill="#63b8ff" stroke="#63b8ff" points="359.51,-70.46 368.46,-64.79 357.93,-63.65 359.51,-70.46"/>
</g>
<!-- Node5 -->
<g id="node5" class="node">
<title>Node5</title>
<g id="a_node5"><a xlink:href="classTurnManager.html#ab74f700bc39ef5e4865c4f5a3a8ca941" target="_top" xlink:title=" ">
<polygon fill="white" stroke="#666666" points="332,-58 169,-58 169,-38 332,-38 332,-58"/>
<text text-anchor="middle" x="250.5" y="-44.5" font-family="Helvetica,sans-Serif" font-size="10.00">TurnManager::processNPCPhase</text>
</a>
</g>
</g>
<!-- Node2&#45;&gt;Node5 -->
<g id="edge4" class="edge">
<title>Node2&#45;&gt;Node5</title>
<path fill="none" stroke="#63b8ff" d="M356.03,-48C348.13,-48 340.14,-48 332.28,-48"/>
<polygon fill="#63b8ff" stroke="#63b8ff" points="355.99,-51.5 365.99,-48 355.99,-44.5 355.99,-51.5"/>
</g>
<!-- Node6 -->
<g id="node6" class="node">
<title>Node6</title>
<g id="a_node6"><a xlink:href="classTurnManager.html#a95f1823f759af13f972a0a139af343e4" target="_top" xlink:title=" ">
<polygon fill="white" stroke="#666666" points="325.62,-20 175.38,-20 175.38,0 325.62,0 325.62,-20"/>
<text text-anchor="middle" x="250.5" y="-6.5" font-family="Helvetica,sans-Serif" font-size="10.00">TurnManager::processTurnEnd</text>
</a>
</g>
</g>
<!-- Node2&#45;&gt;Node6 -->
<g id="edge6" class="edge">
<title>Node2&#45;&gt;Node6</title>
<path fill="none" stroke="#63b8ff" d="M356.4,-31.08C338.44,-27.47 319.96,-23.76 303.62,-20.47"/>
<polygon fill="#63b8ff" stroke="#63b8ff" points="355.53,-34.47 366.02,-33.01 356.91,-27.61 355.53,-34.47"/>
</g>
<!-- Node4 -->
<g id="node4" class="node">
<title>Node4</title>
<g id="a_node4"><a xlink:href="classTurnManager.html#a112365fd220e181148ac6313390bfefb" target="_top" xlink:title=" ">
<polygon fill="white" stroke="#666666" points="133,-64 0,-64 0,-32 133,-32 133,-64"/>
<text text-anchor="start" x="8" y="-50.5" font-family="Helvetica,sans-Serif" font-size="10.00">TurnManager::processTurn</text>
<text text-anchor="middle" x="66.5" y="-38.5" font-family="Helvetica,sans-Serif" font-size="10.00">Phase</text>
</a>
</g>
</g>
<!-- Node3&#45;&gt;Node4 -->
<g id="edge3" class="edge">
<title>Node3&#45;&gt;Node4</title>
<path fill="none" stroke="#63b8ff" d="M170.64,-72.93C158.19,-69.93 145.44,-66.84 133.33,-63.92"/>
<polygon fill="#63b8ff" stroke="#63b8ff" points="169.46,-76.25 180,-75.2 171.1,-69.45 169.46,-76.25"/>
</g>
<!-- Node5&#45;&gt;Node4 -->
<g id="edge5" class="edge">
<title>Node5&#45;&gt;Node4</title>
<path fill="none" stroke="#63b8ff" d="M157.26,-48C149.21,-48 141.18,-48 133.41,-48"/>
<polygon fill="#63b8ff" stroke="#63b8ff" points="157.1,-51.5 167.1,-48 157.1,-44.5 157.1,-51.5"/>
</g>
<!-- Node6&#45;&gt;Node4 -->
<g id="edge7" class="edge">
<title>Node6&#45;&gt;Node4</title>
<path fill="none" stroke="#63b8ff" d="M188.23,-22.79C170.55,-26.48 151.18,-30.53 133.24,-34.27"/>
<polygon fill="#63b8ff" stroke="#63b8ff" points="188.73,-26.26 197.8,-20.79 187.3,-19.41 188.73,-26.26"/>
</g>
</g>
</svg>
