<?xml version="1.0" encoding="UTF-8" standalone="no"?>
<!DOCTYPE svg PUBLIC "-//W3C//DTD SVG 1.1//EN"
 "http://www.w3.org/Graphics/SVG/1.1/DTD/svg11.dtd">
<!-- Generated by graphviz version 12.2.1 (20241206.2353)
 -->
<!-- Title: basic_json::operator[] Pages: 1 -->
<svg width="370pt" height="66pt"
 viewBox="0.00 0.00 370.25 66.00" xmlns="http://www.w3.org/2000/svg" xmlns:xlink="http://www.w3.org/1999/xlink">
<g id="graph0" class="graph" transform="scale(1 1) rotate(0) translate(4 62)">
<title>basic_json::operator[]</title>
<!-- Node1 -->
<g id="node1" class="node">
<title>Node1</title>
<g id="a_node1"><a xlink:title="access specified array element">
<polygon fill="#999999" stroke="#666666" points="109.75,-39 0,-39 0,-19 109.75,-19 109.75,-39"/>
<text text-anchor="middle" x="54.88" y="-25.5" font-family="Helvetica,sans-Serif" font-size="10.00">basic_json::operator[]</text>
</a>
</g>
</g>
<!-- Node2 -->
<g id="node2" class="node">
<title>Node2</title>
<g id="a_node2"><a xlink:href="namespacedetail.html#a266fb3d4bf633ad6c506434cc91164da" target="_top" xlink:title=" ">
<polygon fill="white" stroke="#666666" points="220.25,-39 145.75,-39 145.75,-19 220.25,-19 220.25,-39"/>
<text text-anchor="middle" x="183" y="-25.5" font-family="Helvetica,sans-Serif" font-size="10.00">detail::concat</text>
</a>
</g>
</g>
<!-- Node1&#45;&gt;Node2 -->
<g id="edge1" class="edge">
<title>Node1&#45;&gt;Node2</title>
<path fill="none" stroke="#63b8ff" d="M110.1,-29C117.99,-29 126.07,-29 133.83,-29"/>
<polygon fill="#63b8ff" stroke="#63b8ff" points="133.78,-32.5 143.78,-29 133.78,-25.5 133.78,-32.5"/>
</g>
<!-- Node3 -->
<g id="node3" class="node">
<title>Node3</title>
<g id="a_node3"><a xlink:href="namespacedetail.html#a89f967b745cf8df11ba9d59f93d97753" target="_top" xlink:title=" ">
<polygon fill="white" stroke="#666666" points="357,-58 261.5,-58 261.5,-38 357,-38 357,-58"/>
<text text-anchor="middle" x="309.25" y="-44.5" font-family="Helvetica,sans-Serif" font-size="10.00">detail::concat_into</text>
</a>
</g>
</g>
<!-- Node2&#45;&gt;Node3 -->
<g id="edge2" class="edge">
<title>Node2&#45;&gt;Node3</title>
<path fill="none" stroke="#63b8ff" d="M220.61,-34.6C229.86,-36.01 240.04,-37.57 250.07,-39.1"/>
<polygon fill="#63b8ff" stroke="#63b8ff" points="249.38,-42.54 259.79,-40.59 250.44,-35.62 249.38,-42.54"/>
</g>
<!-- Node4 -->
<g id="node4" class="node">
<title>Node4</title>
<g id="a_node4"><a xlink:href="namespacedetail.html#ac185140ed8c8fcc07a302a890b714b0d" target="_top" xlink:title=" ">
<polygon fill="white" stroke="#666666" points="362.25,-20 256.25,-20 256.25,0 362.25,0 362.25,-20"/>
<text text-anchor="middle" x="309.25" y="-6.5" font-family="Helvetica,sans-Serif" font-size="10.00">detail::concat_length</text>
</a>
</g>
</g>
<!-- Node2&#45;&gt;Node4 -->
<g id="edge3" class="edge">
<title>Node2&#45;&gt;Node4</title>
<path fill="none" stroke="#63b8ff" d="M220.61,-23.4C228.19,-22.24 236.38,-20.99 244.61,-19.73"/>
<polygon fill="#63b8ff" stroke="#63b8ff" points="244.94,-23.22 254.3,-18.25 243.88,-16.3 244.94,-23.22"/>
</g>
</g>
</svg>
