<?xml version="1.0" encoding="UTF-8" standalone="no"?>
<!DOCTYPE svg PUBLIC "-//W3C//DTD SVG 1.1//EN"
 "http://www.w3.org/Graphics/SVG/1.1/DTD/svg11.dtd">
<!-- Generated by graphviz version 12.2.1 (20241206.2353)
 -->
<!-- Title: ActionResolutionManager::processOngoingActions Pages: 1 -->
<svg width="482pt" height="40pt"
 viewBox="0.00 0.00 482.00 40.00" xmlns="http://www.w3.org/2000/svg" xmlns:xlink="http://www.w3.org/1999/xlink">
<g id="graph0" class="graph" transform="scale(1 1) rotate(0) translate(4 36)">
<title>ActionResolutionManager::processOngoingActions</title>
<!-- Node1 -->
<g id="node1" class="node">
<title>Node1</title>
<g id="a_node1"><a xlink:title=" ">
<polygon fill="#999999" stroke="#666666" points="474,-32 346.25,-32 346.25,0 474,0 474,-32"/>
<text text-anchor="start" x="354.25" y="-18.5" font-family="Helvetica,sans-Serif" font-size="10.00">ActionResolutionManager</text>
<text text-anchor="middle" x="410.12" y="-6.5" font-family="Helvetica,sans-Serif" font-size="10.00">::processOngoingActions</text>
</a>
</g>
</g>
<!-- Node2 -->
<g id="node2" class="node">
<title>Node2</title>
<g id="a_node2"><a xlink:href="classTurnManager.html#a7f43e317f4994897b0ca27fd5353fd70" target="_top" xlink:title=" ">
<polygon fill="white" stroke="#666666" points="310.25,-32 169,-32 169,0 310.25,0 310.25,-32"/>
<text text-anchor="start" x="177" y="-18.5" font-family="Helvetica,sans-Serif" font-size="10.00">TurnManager::processPlayer</text>
<text text-anchor="middle" x="239.62" y="-6.5" font-family="Helvetica,sans-Serif" font-size="10.00">Phase</text>
</a>
</g>
</g>
<!-- Node1&#45;&gt;Node2 -->
<g id="edge1" class="edge">
<title>Node1&#45;&gt;Node2</title>
<path fill="none" stroke="#63b8ff" d="M334.45,-16C326.55,-16 318.54,-16 310.7,-16"/>
<polygon fill="#63b8ff" stroke="#63b8ff" points="334.39,-19.5 344.39,-16 334.39,-12.5 334.39,-19.5"/>
</g>
<!-- Node3 -->
<g id="node3" class="node">
<title>Node3</title>
<g id="a_node3"><a xlink:href="classTurnManager.html#a112365fd220e181148ac6313390bfefb" target="_top" xlink:title=" ">
<polygon fill="white" stroke="#666666" points="133,-32 0,-32 0,0 133,0 133,-32"/>
<text text-anchor="start" x="8" y="-18.5" font-family="Helvetica,sans-Serif" font-size="10.00">TurnManager::processTurn</text>
<text text-anchor="middle" x="66.5" y="-6.5" font-family="Helvetica,sans-Serif" font-size="10.00">Phase</text>
</a>
</g>
</g>
<!-- Node2&#45;&gt;Node3 -->
<g id="edge2" class="edge">
<title>Node2&#45;&gt;Node3</title>
<path fill="none" stroke="#63b8ff" d="M157.26,-16C149.25,-16 141.18,-16 133.35,-16"/>
<polygon fill="#63b8ff" stroke="#63b8ff" points="157.01,-19.5 167.01,-16 157.01,-12.5 157.01,-19.5"/>
</g>
</g>
</svg>
