<?xml version="1.0" encoding="UTF-8" standalone="no"?>
<!DOCTYPE svg PUBLIC "-//W3C//DTD SVG 1.1//EN"
 "http://www.w3.org/Graphics/SVG/1.1/DTD/svg11.dtd">
<!-- Generated by graphviz version 12.2.1 (20241206.2353)
 -->
<!-- Title: detail::parser::parse Pages: 1 -->
<svg width="291pt" height="202pt"
 viewBox="0.00 0.00 290.50 202.00" xmlns="http://www.w3.org/2000/svg" xmlns:xlink="http://www.w3.org/1999/xlink">
<g id="graph0" class="graph" transform="scale(1 1) rotate(0) translate(4 198)">
<title>detail::parser::parse</title>
<!-- Node1 -->
<g id="node1" class="node">
<title>Node1</title>
<g id="a_node1"><a xlink:title="public parser interface">
<polygon fill="#999999" stroke="#666666" points="102.25,-104 0,-104 0,-84 102.25,-84 102.25,-104"/>
<text text-anchor="middle" x="51.12" y="-90.5" font-family="Helvetica,sans-Serif" font-size="10.00">detail::parser::parse</text>
</a>
</g>
</g>
<!-- Node2 -->
<g id="node2" class="node">
<title>Node2</title>
<g id="a_node2"><a xlink:href="classdetail_1_1json__sax__dom__parser.html#ae259ef999328a5342198d364676b1cbf" target="_top" xlink:title=" ">
<polygon fill="white" stroke="#666666" points="264.5,-194 156.25,-194 156.25,-162 264.5,-162 264.5,-194"/>
<text text-anchor="start" x="164.25" y="-180.5" font-family="Helvetica,sans-Serif" font-size="10.00">detail::json_sax_dom</text>
<text text-anchor="middle" x="210.38" y="-168.5" font-family="Helvetica,sans-Serif" font-size="10.00">_parser::is_errored</text>
</a>
</g>
</g>
<!-- Node1&#45;&gt;Node2 -->
<g id="edge1" class="edge">
<title>Node1&#45;&gt;Node2</title>
<path fill="none" stroke="#63b8ff" d="M64.88,-104.33C81.13,-117.11 110.45,-138.9 138.25,-153 141.1,-154.44 144.04,-155.84 147.05,-157.18"/>
<polygon fill="#63b8ff" stroke="#63b8ff" points="145.46,-160.31 156.03,-160.95 148.17,-153.85 145.46,-160.31"/>
</g>
<!-- Node3 -->
<g id="node3" class="node">
<title>Node3</title>
<g id="a_node3"><a xlink:href="classdetail_1_1json__sax__dom__callback__parser.html#a79ff296775dd21254de386fadee906a0" target="_top" xlink:title=" ">
<polygon fill="white" stroke="#666666" points="264.5,-144 156.25,-144 156.25,-100 264.5,-100 264.5,-144"/>
<text text-anchor="start" x="164.25" y="-130.5" font-family="Helvetica,sans-Serif" font-size="10.00">detail::json_sax_dom</text>
<text text-anchor="start" x="164.25" y="-118.5" font-family="Helvetica,sans-Serif" font-size="10.00">_callback_parser::is</text>
<text text-anchor="middle" x="210.38" y="-106.5" font-family="Helvetica,sans-Serif" font-size="10.00">_errored</text>
</a>
</g>
</g>
<!-- Node1&#45;&gt;Node3 -->
<g id="edge2" class="edge">
<title>Node1&#45;&gt;Node3</title>
<path fill="none" stroke="#63b8ff" d="M102.75,-103.01C116.14,-105.4 130.77,-108 144.79,-110.5"/>
<polygon fill="#63b8ff" stroke="#63b8ff" points="143.92,-113.9 154.38,-112.21 145.15,-107.01 143.92,-113.9"/>
</g>
<!-- Node4 -->
<g id="node4" class="node">
<title>Node4</title>
<g id="a_node4"><a xlink:href="classdetail_1_1json__sax__dom__parser.html#a9227facf2424614f060607ed83f96a7d" target="_top" xlink:title=" ">
<polygon fill="white" stroke="#666666" points="264.5,-82 156.25,-82 156.25,-50 264.5,-50 264.5,-82"/>
<text text-anchor="start" x="164.25" y="-68.5" font-family="Helvetica,sans-Serif" font-size="10.00">detail::json_sax_dom</text>
<text text-anchor="middle" x="210.38" y="-56.5" font-family="Helvetica,sans-Serif" font-size="10.00">_parser::parse_error</text>
</a>
</g>
</g>
<!-- Node1&#45;&gt;Node4 -->
<g id="edge3" class="edge">
<title>Node1&#45;&gt;Node4</title>
<path fill="none" stroke="#63b8ff" d="M102.75,-84.99C116.14,-82.6 130.77,-80 144.79,-77.5"/>
<polygon fill="#63b8ff" stroke="#63b8ff" points="145.15,-80.99 154.38,-75.79 143.92,-74.1 145.15,-80.99"/>
</g>
<!-- Node5 -->
<g id="node5" class="node">
<title>Node5</title>
<g id="a_node5"><a xlink:href="classdetail_1_1json__sax__dom__callback__parser.html#a28d8cede1155ef900a1064d23cb645b7" target="_top" xlink:title=" ">
<polygon fill="white" stroke="#666666" points="282.5,-32 138.25,-32 138.25,0 282.5,0 282.5,-32"/>
<text text-anchor="start" x="146.25" y="-18.5" font-family="Helvetica,sans-Serif" font-size="10.00">detail::json_sax_dom</text>
<text text-anchor="middle" x="210.38" y="-6.5" font-family="Helvetica,sans-Serif" font-size="10.00">_callback_parser::parse_error</text>
</a>
</g>
</g>
<!-- Node1&#45;&gt;Node5 -->
<g id="edge4" class="edge">
<title>Node1&#45;&gt;Node5</title>
<path fill="none" stroke="#63b8ff" d="M66.82,-83.6C83.54,-72.1 111.94,-53.54 138.25,-41 141.34,-39.53 144.54,-38.09 147.8,-36.71"/>
<polygon fill="#63b8ff" stroke="#63b8ff" points="148.96,-40.01 156.92,-33.02 146.34,-33.52 148.96,-40.01"/>
</g>
</g>
</svg>
