<?xml version="1.0" encoding="UTF-8" standalone="no"?>
<!DOCTYPE svg PUBLIC "-//W3C//DTD SVG 1.1//EN"
 "http://www.w3.org/Graphics/SVG/1.1/DTD/svg11.dtd">
<!-- Generated by graphviz version 12.2.1 (20241206.2353)
 -->
<!-- Title: StageManager::updateStageProgress Pages: 1 -->
<svg width="671pt" height="90pt"
 viewBox="0.00 0.00 670.50 90.00" xmlns="http://www.w3.org/2000/svg" xmlns:xlink="http://www.w3.org/1999/xlink">
<g id="graph0" class="graph" transform="scale(1 1) rotate(0) translate(4 86)">
<title>StageManager::updateStageProgress</title>
<!-- Node1 -->
<g id="node1" class="node">
<title>Node1</title>
<g id="a_node1"><a xlink:title=" ">
<polygon fill="#999999" stroke="#666666" points="139.75,-57 0,-57 0,-25 139.75,-25 139.75,-57"/>
<text text-anchor="start" x="8" y="-43.5" font-family="Helvetica,sans-Serif" font-size="10.00">StageManager::updateStage</text>
<text text-anchor="middle" x="69.88" y="-31.5" font-family="Helvetica,sans-Serif" font-size="10.00">Progress</text>
</a>
</g>
</g>
<!-- Node2 -->
<g id="node2" class="node">
<title>Node2</title>
<g id="a_node2"><a xlink:href="classStageManager.html#afb140761eee14fdbb97386d747bf2be9" target="_top" xlink:title=" ">
<polygon fill="white" stroke="#666666" points="329,-82 175.75,-82 175.75,-50 329,-50 329,-82"/>
<text text-anchor="start" x="183.75" y="-68.5" font-family="Helvetica,sans-Serif" font-size="10.00">StageManager::advanceToNext</text>
<text text-anchor="middle" x="252.38" y="-56.5" font-family="Helvetica,sans-Serif" font-size="10.00">Stage</text>
</a>
</g>
</g>
<!-- Node1&#45;&gt;Node2 -->
<g id="edge1" class="edge">
<title>Node1&#45;&gt;Node2</title>
<path fill="none" stroke="#63b8ff" d="M140.14,-50.59C147.98,-51.68 156.05,-52.8 164.08,-53.91"/>
<polygon fill="#63b8ff" stroke="#63b8ff" points="163.5,-57.36 173.88,-55.27 164.46,-50.43 163.5,-57.36"/>
</g>
<!-- Node5 -->
<g id="node5" class="node">
<title>Node5</title>
<g id="a_node5"><a xlink:href="classStageManager.html#aaa19b5d58ad75bc7ba9e5d44dd406e0d" target="_top" xlink:title=" ">
<polygon fill="white" stroke="#666666" points="320.75,-32 184,-32 184,0 320.75,0 320.75,-32"/>
<text text-anchor="start" x="192" y="-18.5" font-family="Helvetica,sans-Serif" font-size="10.00">StageManager::checkStage</text>
<text text-anchor="middle" x="252.38" y="-6.5" font-family="Helvetica,sans-Serif" font-size="10.00">Completion</text>
</a>
</g>
</g>
<!-- Node1&#45;&gt;Node5 -->
<g id="edge4" class="edge">
<title>Node1&#45;&gt;Node5</title>
<path fill="none" stroke="#63b8ff" d="M140.14,-31.41C150.77,-29.93 161.81,-28.41 172.62,-26.91"/>
<polygon fill="#63b8ff" stroke="#63b8ff" points="172.85,-30.41 182.28,-25.57 171.89,-23.48 172.85,-30.41"/>
</g>
<!-- Node3 -->
<g id="node3" class="node">
<title>Node3</title>
<g id="a_node3"><a xlink:href="classStageManager.html#aa791077a0a66151f565eb33fbe43a7bd" target="_top" xlink:title=" ">
<polygon fill="white" stroke="#666666" points="495.75,-82 365,-82 365,-50 495.75,-50 495.75,-82"/>
<text text-anchor="start" x="373" y="-68.5" font-family="Helvetica,sans-Serif" font-size="10.00">StageManager::getCurrent</text>
<text text-anchor="middle" x="430.38" y="-56.5" font-family="Helvetica,sans-Serif" font-size="10.00">StageName</text>
</a>
</g>
</g>
<!-- Node2&#45;&gt;Node3 -->
<g id="edge2" class="edge">
<title>Node2&#45;&gt;Node3</title>
<path fill="none" stroke="#63b8ff" d="M329.29,-66C337.23,-66 345.3,-66 353.24,-66"/>
<polygon fill="#63b8ff" stroke="#63b8ff" points="353.24,-69.5 363.24,-66 353.24,-62.5 353.24,-69.5"/>
</g>
<!-- Node4 -->
<g id="node4" class="node">
<title>Node4</title>
<g id="a_node4"><a xlink:href="classStageManager.html#ae2213154056ba26e326de04c69a962d8" target="_top" xlink:title=" ">
<polygon fill="white" stroke="#666666" points="662.5,-82 531.75,-82 531.75,-50 662.5,-50 662.5,-82"/>
<text text-anchor="start" x="539.75" y="-68.5" font-family="Helvetica,sans-Serif" font-size="10.00">StageManager::getCurrent</text>
<text text-anchor="middle" x="597.12" y="-56.5" font-family="Helvetica,sans-Serif" font-size="10.00">StageData</text>
</a>
</g>
</g>
<!-- Node3&#45;&gt;Node4 -->
<g id="edge3" class="edge">
<title>Node3&#45;&gt;Node4</title>
<path fill="none" stroke="#63b8ff" d="M496.02,-66C503.92,-66 512.05,-66 520.1,-66"/>
<polygon fill="#63b8ff" stroke="#63b8ff" points="519.89,-69.5 529.89,-66 519.89,-62.5 519.89,-69.5"/>
</g>
</g>
</svg>
