<?xml version="1.0" encoding="UTF-8" standalone="no"?>
<!DOCTYPE svg PUBLIC "-//W3C//DTD SVG 1.1//EN"
 "http://www.w3.org/Graphics/SVG/1.1/DTD/svg11.dtd">
<!-- Generated by graphviz version 12.2.1 (20241206.2353)
 -->
<!-- Title: SceneCombat::sGenerateWordChallenge Pages: 1 -->
<svg width="534pt" height="116pt"
 viewBox="0.00 0.00 533.75 116.00" xmlns="http://www.w3.org/2000/svg" xmlns:xlink="http://www.w3.org/1999/xlink">
<g id="graph0" class="graph" transform="scale(1 1) rotate(0) translate(4 112)">
<title>SceneCombat::sGenerateWordChallenge</title>
<!-- Node1 -->
<g id="node1" class="node">
<title>Node1</title>
<g id="a_node1"><a xlink:title=" ">
<polygon fill="#999999" stroke="#666666" points="525.75,-76 374,-76 374,-44 525.75,-44 525.75,-76"/>
<text text-anchor="start" x="382" y="-62.5" font-family="Helvetica,sans-Serif" font-size="10.00">SceneCombat::sGenerateWord</text>
<text text-anchor="middle" x="449.88" y="-50.5" font-family="Helvetica,sans-Serif" font-size="10.00">Challenge</text>
</a>
</g>
</g>
<!-- Node2 -->
<g id="node2" class="node">
<title>Node2</title>
<g id="a_node2"><a xlink:href="classSceneCombat.html#ae2d70c8aaf0342c04a50623fc5839b3d" target="_top" xlink:title=" ">
<polygon fill="white" stroke="#666666" points="308.75,-108 211.75,-108 211.75,-88 308.75,-88 308.75,-108"/>
<text text-anchor="middle" x="260.25" y="-94.5" font-family="Helvetica,sans-Serif" font-size="10.00">SceneCombat::init</text>
</a>
</g>
</g>
<!-- Node1&#45;&gt;Node2 -->
<g id="edge1" class="edge">
<title>Node1&#45;&gt;Node2</title>
<path fill="none" stroke="#63b8ff" d="M362.55,-77.48C344.13,-81.21 325.31,-85.03 308.98,-88.33"/>
<polygon fill="#63b8ff" stroke="#63b8ff" points="363.05,-80.95 372.16,-75.54 361.66,-74.09 363.05,-80.95"/>
</g>
<!-- Node4 -->
<g id="node4" class="node">
<title>Node4</title>
<g id="a_node4"><a xlink:href="classSceneCombat.html#aa06cefcde7733735ed69989f0eac95fb" target="_top" xlink:title=" ">
<polygon fill="white" stroke="#666666" points="338,-70 182.5,-70 182.5,-50 338,-50 338,-70"/>
<text text-anchor="middle" x="260.25" y="-56.5" font-family="Helvetica,sans-Serif" font-size="10.00">SceneCombat::sCombatUpdate</text>
</a>
</g>
</g>
<!-- Node1&#45;&gt;Node4 -->
<g id="edge3" class="edge">
<title>Node1&#45;&gt;Node4</title>
<path fill="none" stroke="#63b8ff" d="M362.38,-60C354.36,-60 346.27,-60 338.34,-60"/>
<polygon fill="#63b8ff" stroke="#63b8ff" points="362.13,-63.5 372.13,-60 362.13,-56.5 362.13,-63.5"/>
</g>
<!-- Node6 -->
<g id="node6" class="node">
<title>Node6</title>
<g id="a_node6"><a xlink:href="classSceneCombat.html#a0fed287dccccef9e9431e9085899ae38" target="_top" xlink:title=" ">
<polygon fill="white" stroke="#666666" points="336.88,-32 183.62,-32 183.62,0 336.88,0 336.88,-32"/>
<text text-anchor="start" x="191.62" y="-18.5" font-family="Helvetica,sans-Serif" font-size="10.00">SceneCombat::sProcessPlayer</text>
<text text-anchor="middle" x="260.25" y="-6.5" font-family="Helvetica,sans-Serif" font-size="10.00">Answer</text>
</a>
</g>
</g>
<!-- Node1&#45;&gt;Node6 -->
<g id="edge5" class="edge">
<title>Node1&#45;&gt;Node6</title>
<path fill="none" stroke="#63b8ff" d="M367.79,-40.98C355.74,-38.16 343.41,-35.27 331.61,-32.5"/>
<polygon fill="#63b8ff" stroke="#63b8ff" points="366.73,-44.33 377.27,-43.21 368.33,-37.52 366.73,-44.33"/>
</g>
<!-- Node3 -->
<g id="node3" class="node">
<title>Node3</title>
<g id="a_node3"><a xlink:href="classSceneCombat.html#a11322c5c131a823eeee0caea2caea587" target="_top" xlink:title=" ">
<polygon fill="white" stroke="#666666" points="146.5,-108 0,-108 0,-88 146.5,-88 146.5,-108"/>
<text text-anchor="middle" x="73.25" y="-94.5" font-family="Helvetica,sans-Serif" font-size="10.00">SceneCombat::SceneCombat</text>
</a>
</g>
</g>
<!-- Node2&#45;&gt;Node3 -->
<g id="edge2" class="edge">
<title>Node2&#45;&gt;Node3</title>
<path fill="none" stroke="#63b8ff" d="M200.18,-98C183.23,-98 164.55,-98 146.89,-98"/>
<polygon fill="#63b8ff" stroke="#63b8ff" points="200.09,-101.5 210.09,-98 200.09,-94.5 200.09,-101.5"/>
</g>
<!-- Node5 -->
<g id="node5" class="node">
<title>Node5</title>
<g id="a_node5"><a xlink:href="classSceneCombat.html#a886a09ed8afb275de6df2383a242783c" target="_top" xlink:title=" ">
<polygon fill="white" stroke="#666666" points="130,-70 16.5,-70 16.5,-50 130,-50 130,-70"/>
<text text-anchor="middle" x="73.25" y="-56.5" font-family="Helvetica,sans-Serif" font-size="10.00">SceneCombat::update</text>
</a>
</g>
</g>
<!-- Node4&#45;&gt;Node5 -->
<g id="edge4" class="edge">
<title>Node4&#45;&gt;Node5</title>
<path fill="none" stroke="#63b8ff" d="M170.67,-60C156.95,-60 143.12,-60 130.39,-60"/>
<polygon fill="#63b8ff" stroke="#63b8ff" points="170.62,-63.5 180.62,-60 170.62,-56.5 170.62,-63.5"/>
</g>
<!-- Node7 -->
<g id="node7" class="node">
<title>Node7</title>
<g id="a_node7"><a xlink:href="classSceneCombat.html#a37f6cbef92fa92fc1532dafd265aefc5" target="_top" xlink:title=" ">
<polygon fill="white" stroke="#666666" points="138.25,-26 8.25,-26 8.25,-6 138.25,-6 138.25,-26"/>
<text text-anchor="middle" x="73.25" y="-12.5" font-family="Helvetica,sans-Serif" font-size="10.00">SceneCombat::sDoAction</text>
</a>
</g>
</g>
<!-- Node6&#45;&gt;Node7 -->
<g id="edge6" class="edge">
<title>Node6&#45;&gt;Node7</title>
<path fill="none" stroke="#63b8ff" d="M171.98,-16C160.7,-16 149.31,-16 138.5,-16"/>
<polygon fill="#63b8ff" stroke="#63b8ff" points="171.69,-19.5 181.69,-16 171.69,-12.5 171.69,-19.5"/>
</g>
</g>
</svg>
