<?xml version="1.0" encoding="UTF-8" standalone="no"?>
<!DOCTYPE svg PUBLIC "-//W3C//DTD SVG 1.1//EN"
 "http://www.w3.org/Graphics/SVG/1.1/DTD/svg11.dtd">
<!-- Generated by graphviz version 12.2.1 (20241206.2353)
 -->
<!-- Title: StageManager::incrementControlledBuildings Pages: 1 -->
<svg width="879pt" height="90pt"
 viewBox="0.00 0.00 878.50 90.00" xmlns="http://www.w3.org/2000/svg" xmlns:xlink="http://www.w3.org/1999/xlink">
<g id="graph0" class="graph" transform="scale(1 1) rotate(0) translate(4 86)">
<title>StageManager::incrementControlledBuildings</title>
<!-- Node1 -->
<g id="node1" class="node">
<title>Node1</title>
<g id="a_node1"><a xlink:title=" ">
<polygon fill="#999999" stroke="#666666" points="172,-57 0,-57 0,-25 172,-25 172,-57"/>
<text text-anchor="start" x="8" y="-43.5" font-family="Helvetica,sans-Serif" font-size="10.00">StageManager::incrementControlled</text>
<text text-anchor="middle" x="86" y="-31.5" font-family="Helvetica,sans-Serif" font-size="10.00">Buildings</text>
</a>
</g>
</g>
<!-- Node2 -->
<g id="node2" class="node">
<title>Node2</title>
<g id="a_node2"><a xlink:href="classStageManager.html#a022eba9080a05e9803c94017c30e62b9" target="_top" xlink:title=" ">
<polygon fill="white" stroke="#666666" points="347.75,-57 208,-57 208,-25 347.75,-25 347.75,-57"/>
<text text-anchor="start" x="216" y="-43.5" font-family="Helvetica,sans-Serif" font-size="10.00">StageManager::updateStage</text>
<text text-anchor="middle" x="277.88" y="-31.5" font-family="Helvetica,sans-Serif" font-size="10.00">Progress</text>
</a>
</g>
</g>
<!-- Node1&#45;&gt;Node2 -->
<g id="edge1" class="edge">
<title>Node1&#45;&gt;Node2</title>
<path fill="none" stroke="#63b8ff" d="M172.49,-41C180.43,-41 188.46,-41 196.35,-41"/>
<polygon fill="#63b8ff" stroke="#63b8ff" points="196.27,-44.5 206.27,-41 196.27,-37.5 196.27,-44.5"/>
</g>
<!-- Node3 -->
<g id="node3" class="node">
<title>Node3</title>
<g id="a_node3"><a xlink:href="classStageManager.html#afb140761eee14fdbb97386d747bf2be9" target="_top" xlink:title=" ">
<polygon fill="white" stroke="#666666" points="537,-82 383.75,-82 383.75,-50 537,-50 537,-82"/>
<text text-anchor="start" x="391.75" y="-68.5" font-family="Helvetica,sans-Serif" font-size="10.00">StageManager::advanceToNext</text>
<text text-anchor="middle" x="460.38" y="-56.5" font-family="Helvetica,sans-Serif" font-size="10.00">Stage</text>
</a>
</g>
</g>
<!-- Node2&#45;&gt;Node3 -->
<g id="edge2" class="edge">
<title>Node2&#45;&gt;Node3</title>
<path fill="none" stroke="#63b8ff" d="M348.14,-50.59C355.98,-51.68 364.05,-52.8 372.08,-53.91"/>
<polygon fill="#63b8ff" stroke="#63b8ff" points="371.5,-57.36 381.88,-55.27 372.46,-50.43 371.5,-57.36"/>
</g>
<!-- Node6 -->
<g id="node6" class="node">
<title>Node6</title>
<g id="a_node6"><a xlink:href="classStageManager.html#aaa19b5d58ad75bc7ba9e5d44dd406e0d" target="_top" xlink:title=" ">
<polygon fill="white" stroke="#666666" points="528.75,-32 392,-32 392,0 528.75,0 528.75,-32"/>
<text text-anchor="start" x="400" y="-18.5" font-family="Helvetica,sans-Serif" font-size="10.00">StageManager::checkStage</text>
<text text-anchor="middle" x="460.38" y="-6.5" font-family="Helvetica,sans-Serif" font-size="10.00">Completion</text>
</a>
</g>
</g>
<!-- Node2&#45;&gt;Node6 -->
<g id="edge5" class="edge">
<title>Node2&#45;&gt;Node6</title>
<path fill="none" stroke="#63b8ff" d="M348.14,-31.41C358.77,-29.93 369.81,-28.41 380.62,-26.91"/>
<polygon fill="#63b8ff" stroke="#63b8ff" points="380.85,-30.41 390.28,-25.57 379.89,-23.48 380.85,-30.41"/>
</g>
<!-- Node4 -->
<g id="node4" class="node">
<title>Node4</title>
<g id="a_node4"><a xlink:href="classStageManager.html#aa791077a0a66151f565eb33fbe43a7bd" target="_top" xlink:title=" ">
<polygon fill="white" stroke="#666666" points="703.75,-82 573,-82 573,-50 703.75,-50 703.75,-82"/>
<text text-anchor="start" x="581" y="-68.5" font-family="Helvetica,sans-Serif" font-size="10.00">StageManager::getCurrent</text>
<text text-anchor="middle" x="638.38" y="-56.5" font-family="Helvetica,sans-Serif" font-size="10.00">StageName</text>
</a>
</g>
</g>
<!-- Node3&#45;&gt;Node4 -->
<g id="edge3" class="edge">
<title>Node3&#45;&gt;Node4</title>
<path fill="none" stroke="#63b8ff" d="M537.29,-66C545.23,-66 553.3,-66 561.24,-66"/>
<polygon fill="#63b8ff" stroke="#63b8ff" points="561.24,-69.5 571.24,-66 561.24,-62.5 561.24,-69.5"/>
</g>
<!-- Node5 -->
<g id="node5" class="node">
<title>Node5</title>
<g id="a_node5"><a xlink:href="classStageManager.html#ae2213154056ba26e326de04c69a962d8" target="_top" xlink:title=" ">
<polygon fill="white" stroke="#666666" points="870.5,-82 739.75,-82 739.75,-50 870.5,-50 870.5,-82"/>
<text text-anchor="start" x="747.75" y="-68.5" font-family="Helvetica,sans-Serif" font-size="10.00">StageManager::getCurrent</text>
<text text-anchor="middle" x="805.12" y="-56.5" font-family="Helvetica,sans-Serif" font-size="10.00">StageData</text>
</a>
</g>
</g>
<!-- Node4&#45;&gt;Node5 -->
<g id="edge4" class="edge">
<title>Node4&#45;&gt;Node5</title>
<path fill="none" stroke="#63b8ff" d="M704.02,-66C711.92,-66 720.05,-66 728.1,-66"/>
<polygon fill="#63b8ff" stroke="#63b8ff" points="727.89,-69.5 737.89,-66 727.89,-62.5 727.89,-69.5"/>
</g>
</g>
</svg>
