<?xml version="1.0" encoding="UTF-8" standalone="no"?>
<!DOCTYPE svg PUBLIC "-//W3C//DTD SVG 1.1//EN"
 "http://www.w3.org/Graphics/SVG/1.1/DTD/svg11.dtd">
<!-- Generated by graphviz version 12.2.1 (20241206.2353)
 -->
<!-- Title: basic_json::insert Pages: 1 -->
<svg width="353pt" height="66pt"
 viewBox="0.00 0.00 353.00 66.00" xmlns="http://www.w3.org/2000/svg" xmlns:xlink="http://www.w3.org/1999/xlink">
<g id="graph0" class="graph" transform="scale(1 1) rotate(0) translate(4 62)">
<title>basic_json::insert</title>
<!-- Node1 -->
<g id="node1" class="node">
<title>Node1</title>
<g id="a_node1"><a xlink:title="inserts copies of element into array">
<polygon fill="#999999" stroke="#666666" points="92.5,-39 0,-39 0,-19 92.5,-19 92.5,-39"/>
<text text-anchor="middle" x="46.25" y="-25.5" font-family="Helvetica,sans-Serif" font-size="10.00">basic_json::insert</text>
</a>
</g>
</g>
<!-- Node2 -->
<g id="node2" class="node">
<title>Node2</title>
<g id="a_node2"><a xlink:href="namespacedetail.html#a266fb3d4bf633ad6c506434cc91164da" target="_top" xlink:title=" ">
<polygon fill="white" stroke="#666666" points="203,-39 128.5,-39 128.5,-19 203,-19 203,-39"/>
<text text-anchor="middle" x="165.75" y="-25.5" font-family="Helvetica,sans-Serif" font-size="10.00">detail::concat</text>
</a>
</g>
</g>
<!-- Node1&#45;&gt;Node2 -->
<g id="edge1" class="edge">
<title>Node1&#45;&gt;Node2</title>
<path fill="none" stroke="#63b8ff" d="M92.68,-29C100.58,-29 108.81,-29 116.77,-29"/>
<polygon fill="#63b8ff" stroke="#63b8ff" points="116.66,-32.5 126.66,-29 116.66,-25.5 116.66,-32.5"/>
</g>
<!-- Node3 -->
<g id="node3" class="node">
<title>Node3</title>
<g id="a_node3"><a xlink:href="namespacedetail.html#a89f967b745cf8df11ba9d59f93d97753" target="_top" xlink:title=" ">
<polygon fill="white" stroke="#666666" points="339.75,-58 244.25,-58 244.25,-38 339.75,-38 339.75,-58"/>
<text text-anchor="middle" x="292" y="-44.5" font-family="Helvetica,sans-Serif" font-size="10.00">detail::concat_into</text>
</a>
</g>
</g>
<!-- Node2&#45;&gt;Node3 -->
<g id="edge2" class="edge">
<title>Node2&#45;&gt;Node3</title>
<path fill="none" stroke="#63b8ff" d="M203.36,-34.6C212.61,-36.01 222.79,-37.57 232.82,-39.1"/>
<polygon fill="#63b8ff" stroke="#63b8ff" points="232.13,-42.54 242.54,-40.59 233.19,-35.62 232.13,-42.54"/>
</g>
<!-- Node4 -->
<g id="node4" class="node">
<title>Node4</title>
<g id="a_node4"><a xlink:href="namespacedetail.html#ac185140ed8c8fcc07a302a890b714b0d" target="_top" xlink:title=" ">
<polygon fill="white" stroke="#666666" points="345,-20 239,-20 239,0 345,0 345,-20"/>
<text text-anchor="middle" x="292" y="-6.5" font-family="Helvetica,sans-Serif" font-size="10.00">detail::concat_length</text>
</a>
</g>
</g>
<!-- Node2&#45;&gt;Node4 -->
<g id="edge3" class="edge">
<title>Node2&#45;&gt;Node4</title>
<path fill="none" stroke="#63b8ff" d="M203.36,-23.4C210.94,-22.24 219.13,-20.99 227.36,-19.73"/>
<polygon fill="#63b8ff" stroke="#63b8ff" points="227.69,-23.22 237.05,-18.25 226.63,-16.3 227.69,-23.22"/>
</g>
</g>
</svg>
