<?xml version="1.0" encoding="UTF-8" standalone="no"?>
<!DOCTYPE svg PUBLIC "-//W3C//DTD SVG 1.1//EN"
 "http://www.w3.org/Graphics/SVG/1.1/DTD/svg11.dtd">
<!-- Generated by graphviz version 12.2.1 (20241206.2353)
 -->
<!-- Title: detail::other_error::create Pages: 1 -->
<svg width="506pt" height="93pt"
 viewBox="0.00 0.00 505.50 93.27" xmlns="http://www.w3.org/2000/svg" xmlns:xlink="http://www.w3.org/1999/xlink">
<g id="graph0" class="graph" transform="scale(1 1) rotate(0) translate(4 89.27)">
<title>detail::other_error::create</title>
<!-- Node1 -->
<g id="node1" class="node">
<title>Node1</title>
<g id="a_node1"><a xlink:title=" ">
<polygon fill="#999999" stroke="#666666" points="91.75,-70 0,-70 0,-38 91.75,-38 91.75,-70"/>
<text text-anchor="start" x="8" y="-56.5" font-family="Helvetica,sans-Serif" font-size="10.00">detail::other_error</text>
<text text-anchor="middle" x="45.88" y="-44.5" font-family="Helvetica,sans-Serif" font-size="10.00">::create</text>
</a>
</g>
</g>
<!-- Node2 -->
<g id="node2" class="node">
<title>Node2</title>
<g id="a_node2"><a xlink:href="namespacedetail.html#a266fb3d4bf633ad6c506434cc91164da" target="_top" xlink:title=" ">
<polygon fill="white" stroke="#666666" points="355.5,-64 281,-64 281,-44 355.5,-44 355.5,-64"/>
<text text-anchor="middle" x="318.25" y="-50.5" font-family="Helvetica,sans-Serif" font-size="10.00">detail::concat</text>
</a>
</g>
</g>
<!-- Node1&#45;&gt;Node2 -->
<g id="edge1" class="edge">
<title>Node1&#45;&gt;Node2</title>
<path fill="none" stroke="#63b8ff" d="M91.66,-70.45C103.25,-73.99 115.83,-77.2 127.75,-79 179.28,-86.78 193.61,-87.64 245,-79 257.7,-76.87 271.14,-72.76 282.95,-68.48"/>
<polygon fill="#63b8ff" stroke="#63b8ff" points="284.18,-71.76 292.28,-64.93 281.69,-65.22 284.18,-71.76"/>
</g>
<!-- Node5 -->
<g id="node5" class="node">
<title>Node5</title>
<g id="a_node5"><a xlink:href="classdetail_1_1exception.html#a6b4a786b5c1c25dd3edaceb1bf2d5120" target="_top" xlink:title=" ">
<polygon fill="white" stroke="#666666" points="233,-70 139.75,-70 139.75,-38 233,-38 233,-70"/>
<text text-anchor="start" x="147.75" y="-56.5" font-family="Helvetica,sans-Serif" font-size="10.00">detail::exception::</text>
<text text-anchor="middle" x="186.38" y="-44.5" font-family="Helvetica,sans-Serif" font-size="10.00">diagnostics</text>
</a>
</g>
</g>
<!-- Node1&#45;&gt;Node5 -->
<g id="edge4" class="edge">
<title>Node1&#45;&gt;Node5</title>
<path fill="none" stroke="#63b8ff" d="M92.23,-54C103.7,-54 116.18,-54 128.16,-54"/>
<polygon fill="#63b8ff" stroke="#63b8ff" points="127.94,-57.5 137.94,-54 127.94,-50.5 127.94,-57.5"/>
</g>
<!-- Node6 -->
<g id="node6" class="node">
<title>Node6</title>
<g id="a_node6"><a xlink:href="classdetail_1_1exception.html#a8f1eb56b9964c8dd84d89d0da98d883b" target="_top" xlink:title=" ">
<polygon fill="white" stroke="#666666" points="245,-20 127.75,-20 127.75,0 245,0 245,-20"/>
<text text-anchor="middle" x="186.38" y="-6.5" font-family="Helvetica,sans-Serif" font-size="10.00">detail::exception::name</text>
</a>
</g>
</g>
<!-- Node1&#45;&gt;Node6 -->
<g id="edge5" class="edge">
<title>Node1&#45;&gt;Node6</title>
<path fill="none" stroke="#63b8ff" d="M92.23,-39.59C108.25,-34.5 126.22,-28.79 142.07,-23.76"/>
<polygon fill="#63b8ff" stroke="#63b8ff" points="142.74,-27.22 151.21,-20.85 140.62,-20.54 142.74,-27.22"/>
</g>
<!-- Node3 -->
<g id="node3" class="node">
<title>Node3</title>
<g id="a_node3"><a xlink:href="namespacedetail.html#a89f967b745cf8df11ba9d59f93d97753" target="_top" xlink:title=" ">
<polygon fill="white" stroke="#666666" points="492.25,-83 396.75,-83 396.75,-63 492.25,-63 492.25,-83"/>
<text text-anchor="middle" x="444.5" y="-69.5" font-family="Helvetica,sans-Serif" font-size="10.00">detail::concat_into</text>
</a>
</g>
</g>
<!-- Node2&#45;&gt;Node3 -->
<g id="edge2" class="edge">
<title>Node2&#45;&gt;Node3</title>
<path fill="none" stroke="#63b8ff" d="M355.86,-59.6C365.11,-61.01 375.29,-62.57 385.32,-64.1"/>
<polygon fill="#63b8ff" stroke="#63b8ff" points="384.63,-67.54 395.04,-65.59 385.69,-60.62 384.63,-67.54"/>
</g>
<!-- Node4 -->
<g id="node4" class="node">
<title>Node4</title>
<g id="a_node4"><a xlink:href="namespacedetail.html#ac185140ed8c8fcc07a302a890b714b0d" target="_top" xlink:title=" ">
<polygon fill="white" stroke="#666666" points="497.5,-45 391.5,-45 391.5,-25 497.5,-25 497.5,-45"/>
<text text-anchor="middle" x="444.5" y="-31.5" font-family="Helvetica,sans-Serif" font-size="10.00">detail::concat_length</text>
</a>
</g>
</g>
<!-- Node2&#45;&gt;Node4 -->
<g id="edge3" class="edge">
<title>Node2&#45;&gt;Node4</title>
<path fill="none" stroke="#63b8ff" d="M355.86,-48.4C363.44,-47.24 371.63,-45.99 379.86,-44.73"/>
<polygon fill="#63b8ff" stroke="#63b8ff" points="380.19,-48.22 389.55,-43.25 379.13,-41.3 380.19,-48.22"/>
</g>
<!-- Node6&#45;&gt;Node2 -->
<g id="edge6" class="edge">
<title>Node6&#45;&gt;Node2</title>
<path fill="none" stroke="#63b8ff" d="M219.41,-20.47C227.75,-23.22 236.72,-26.2 245,-29 255.25,-32.46 266.3,-36.26 276.6,-39.82"/>
<polygon fill="#63b8ff" stroke="#63b8ff" points="275.38,-43.1 285.97,-43.07 277.67,-36.48 275.38,-43.1"/>
</g>
</g>
</svg>
