<?xml version="1.0" encoding="UTF-8" standalone="no"?>
<!DOCTYPE svg PUBLIC "-//W3C//DTD SVG 1.1//EN"
 "http://www.w3.org/Graphics/SVG/1.1/DTD/svg11.dtd">
<!-- Generated by graphviz version 12.2.1 (20241206.2353)
 -->
<!-- Title: basic_json::from_bson Pages: 1 -->
<svg width="664pt" height="107pt"
 viewBox="0.00 0.00 664.00 107.00" xmlns="http://www.w3.org/2000/svg" xmlns:xlink="http://www.w3.org/1999/xlink">
<g id="graph0" class="graph" transform="scale(1 1) rotate(0) translate(4 103)">
<title>basic_json::from_bson</title>
<!-- Node1 -->
<g id="node1" class="node">
<title>Node1</title>
<g id="a_node1"><a xlink:title=" ">
<polygon fill="#999999" stroke="#666666" points="114.25,-80 0,-80 0,-60 114.25,-60 114.25,-80"/>
<text text-anchor="middle" x="57.12" y="-66.5" font-family="Helvetica,sans-Serif" font-size="10.00">basic_json::from_bson</text>
</a>
</g>
</g>
<!-- Node2 -->
<g id="node2" class="node">
<title>Node2</title>
<g id="a_node2"><a xlink:href="classbasic__json.html#a0ab31c7fdbab38898070bca01637f886" target="_top" xlink:title="get a (pointer) value (explicit)">
<polygon fill="white" stroke="#666666" points="248,-99 166,-99 166,-79 248,-79 248,-99"/>
<text text-anchor="middle" x="207" y="-85.5" font-family="Helvetica,sans-Serif" font-size="10.00">basic_json::get</text>
</a>
</g>
</g>
<!-- Node1&#45;&gt;Node2 -->
<g id="edge1" class="edge">
<title>Node1&#45;&gt;Node2</title>
<path fill="none" stroke="#63b8ff" d="M114.45,-77.24C127.71,-78.94 141.77,-80.75 154.79,-82.42"/>
<polygon fill="#63b8ff" stroke="#63b8ff" points="154.05,-85.85 164.41,-83.66 154.94,-78.91 154.05,-85.85"/>
</g>
<!-- Node3 -->
<g id="node3" class="node">
<title>Node3</title>
<g id="a_node3"><a xlink:href="classbasic__json.html#a602b1c389d92f2c7db21f89bb6fb9817" target="_top" xlink:title=" ">
<polygon fill="white" stroke="#666666" points="263.75,-61 150.25,-61 150.25,-41 263.75,-41 263.75,-61"/>
<text text-anchor="middle" x="207" y="-47.5" font-family="Helvetica,sans-Serif" font-size="10.00">basic_json::sax_parse</text>
</a>
</g>
</g>
<!-- Node1&#45;&gt;Node3 -->
<g id="edge2" class="edge">
<title>Node1&#45;&gt;Node3</title>
<path fill="none" stroke="#63b8ff" d="M114.45,-62.76C122.33,-61.75 130.49,-60.7 138.55,-59.67"/>
<polygon fill="#63b8ff" stroke="#63b8ff" points="138.86,-63.16 148.33,-58.41 137.96,-56.21 138.86,-63.16"/>
</g>
<!-- Node4 -->
<g id="node4" class="node">
<title>Node4</title>
<g id="a_node4"><a xlink:href="namespacedetail.html#aada1510d1b55ad2faf4a71c70cffb374" target="_top" xlink:title=" ">
<polygon fill="white" stroke="#666666" points="403.5,-83 299.75,-83 299.75,-63 403.5,-63 403.5,-83"/>
<text text-anchor="middle" x="351.62" y="-69.5" font-family="Helvetica,sans-Serif" font-size="10.00">detail::input_adapter</text>
</a>
</g>
</g>
<!-- Node3&#45;&gt;Node4 -->
<g id="edge3" class="edge">
<title>Node3&#45;&gt;Node4</title>
<path fill="none" stroke="#63b8ff" d="M263.96,-59.63C271.92,-60.86 280.14,-62.13 288.21,-63.37"/>
<polygon fill="#63b8ff" stroke="#63b8ff" points="287.56,-66.81 297.98,-64.88 288.63,-59.9 287.56,-66.81"/>
</g>
<!-- Node5 -->
<g id="node5" class="node">
<title>Node5</title>
<g id="a_node5"><a xlink:href="classdetail_1_1binary__reader.html#a8e1b5452ae426e1d7b48761859e7f52d" target="_top" xlink:title=" ">
<polygon fill="white" stroke="#666666" points="403.5,-45 299.75,-45 299.75,-13 403.5,-13 403.5,-45"/>
<text text-anchor="start" x="307.75" y="-31.5" font-family="Helvetica,sans-Serif" font-size="10.00">detail::binary_reader</text>
<text text-anchor="middle" x="351.62" y="-19.5" font-family="Helvetica,sans-Serif" font-size="10.00">::sax_parse</text>
</a>
</g>
</g>
<!-- Node3&#45;&gt;Node5 -->
<g id="edge4" class="edge">
<title>Node3&#45;&gt;Node5</title>
<path fill="none" stroke="#63b8ff" d="M263.96,-42.37C271.92,-41.14 280.14,-39.87 288.21,-38.63"/>
<polygon fill="#63b8ff" stroke="#63b8ff" points="288.63,-42.1 297.98,-37.12 287.56,-35.19 288.63,-42.1"/>
</g>
<!-- Node6 -->
<g id="node6" class="node">
<title>Node6</title>
<g id="a_node6"><a xlink:href="namespacedetail.html#a266fb3d4bf633ad6c506434cc91164da" target="_top" xlink:title=" ">
<polygon fill="white" stroke="#666666" points="514,-58 439.5,-58 439.5,-38 514,-38 514,-58"/>
<text text-anchor="middle" x="476.75" y="-44.5" font-family="Helvetica,sans-Serif" font-size="10.00">detail::concat</text>
</a>
</g>
</g>
<!-- Node5&#45;&gt;Node6 -->
<g id="edge5" class="edge">
<title>Node5&#45;&gt;Node6</title>
<path fill="none" stroke="#63b8ff" d="M403.77,-36.89C411.76,-38.13 419.99,-39.4 427.91,-40.62"/>
<polygon fill="#63b8ff" stroke="#63b8ff" points="427.29,-44.06 437.71,-42.13 428.36,-37.15 427.29,-44.06"/>
</g>
<!-- Node9 -->
<g id="node9" class="node">
<title>Node9</title>
<g id="a_node9"><a xlink:href="namespacedetail.html#a7116703ea757fe9821bf2e903b91c160" target="_top" xlink:title=" ">
<polygon fill="white" stroke="#666666" points="506.12,-20 447.38,-20 447.38,0 506.12,0 506.12,-20"/>
<text text-anchor="middle" x="476.75" y="-6.5" font-family="Helvetica,sans-Serif" font-size="10.00">detail::get</text>
</a>
</g>
</g>
<!-- Node5&#45;&gt;Node9 -->
<g id="edge8" class="edge">
<title>Node5&#45;&gt;Node9</title>
<path fill="none" stroke="#63b8ff" d="M403.77,-21.11C414.52,-19.45 425.71,-17.72 435.98,-16.14"/>
<polygon fill="#63b8ff" stroke="#63b8ff" points="436.25,-19.64 445.6,-14.65 435.18,-12.72 436.25,-19.64"/>
</g>
<!-- Node7 -->
<g id="node7" class="node">
<title>Node7</title>
<g id="a_node7"><a xlink:href="namespacedetail.html#a89f967b745cf8df11ba9d59f93d97753" target="_top" xlink:title=" ">
<polygon fill="white" stroke="#666666" points="650.75,-77 555.25,-77 555.25,-57 650.75,-57 650.75,-77"/>
<text text-anchor="middle" x="603" y="-63.5" font-family="Helvetica,sans-Serif" font-size="10.00">detail::concat_into</text>
</a>
</g>
</g>
<!-- Node6&#45;&gt;Node7 -->
<g id="edge6" class="edge">
<title>Node6&#45;&gt;Node7</title>
<path fill="none" stroke="#63b8ff" d="M514.36,-53.6C523.61,-55.01 533.79,-56.57 543.82,-58.1"/>
<polygon fill="#63b8ff" stroke="#63b8ff" points="543.13,-61.54 553.54,-59.59 544.19,-54.62 543.13,-61.54"/>
</g>
<!-- Node8 -->
<g id="node8" class="node">
<title>Node8</title>
<g id="a_node8"><a xlink:href="namespacedetail.html#ac185140ed8c8fcc07a302a890b714b0d" target="_top" xlink:title=" ">
<polygon fill="white" stroke="#666666" points="656,-39 550,-39 550,-19 656,-19 656,-39"/>
<text text-anchor="middle" x="603" y="-25.5" font-family="Helvetica,sans-Serif" font-size="10.00">detail::concat_length</text>
</a>
</g>
</g>
<!-- Node6&#45;&gt;Node8 -->
<g id="edge7" class="edge">
<title>Node6&#45;&gt;Node8</title>
<path fill="none" stroke="#63b8ff" d="M514.36,-42.4C521.94,-41.24 530.13,-39.99 538.36,-38.73"/>
<polygon fill="#63b8ff" stroke="#63b8ff" points="538.69,-42.22 548.05,-37.25 537.63,-35.3 538.69,-42.22"/>
</g>
</g>
</svg>
