<?xml version="1.0" encoding="UTF-8" standalone="no"?>
<!DOCTYPE svg PUBLIC "-//W3C//DTD SVG 1.1//EN"
 "http://www.w3.org/Graphics/SVG/1.1/DTD/svg11.dtd">
<!-- Generated by graphviz version 12.2.1 (20241206.2353)
 -->
<!-- Title: detail::type_error Pages: 1 -->
<svg width="97pt" height="311pt"
 viewBox="0.00 0.00 96.75 311.00" xmlns="http://www.w3.org/2000/svg" xmlns:xlink="http://www.w3.org/1999/xlink">
<g id="graph0" class="graph" transform="scale(1 1) rotate(0) translate(4 307)">
<title>detail::type_error</title>
<!-- Node1 -->
<g id="node1" class="node">
<title>Node1</title>
<g id="a_node1"><a xlink:title="exception indicating executing a member function with a wrong type">
<polygon fill="#999999" stroke="#666666" points="0,-0.5 0,-60.5 88.75,-60.5 88.75,-0.5 0,-0.5"/>
<text text-anchor="middle" x="44.38" y="-47" font-family="Helvetica,sans-Serif" font-size="10.00">detail::type_error</text>
<polyline fill="none" stroke="#666666" points="0,-40.5 88.75,-40.5"/>
<text text-anchor="middle" x="44.38" y="-27" font-family="Helvetica,sans-Serif" font-size="10.00"> </text>
<polyline fill="none" stroke="#666666" points="0,-20.5 88.75,-20.5"/>
<text text-anchor="start" x="8" y="-7" font-family="Helvetica,sans-Serif" font-size="10.00">+ create()</text>
</a>
</g>
</g>
<!-- Node2 -->
<g id="node2" class="node">
<title>Node2</title>
<g id="a_node2"><a xlink:href="classdetail_1_1exception.html" target="_top" xlink:title="general exception of the basic_json class">
<polygon fill="white" stroke="#666666" points="0.75,-97.5 0.75,-205.5 88,-205.5 88,-97.5 0.75,-97.5"/>
<text text-anchor="middle" x="44.38" y="-192" font-family="Helvetica,sans-Serif" font-size="10.00">detail::exception</text>
<polyline fill="none" stroke="#666666" points="0.75,-185.5 88,-185.5"/>
<text text-anchor="start" x="8.75" y="-172" font-family="Helvetica,sans-Serif" font-size="10.00">+ id</text>
<polyline fill="none" stroke="#666666" points="0.75,-165.5 88,-165.5"/>
<text text-anchor="start" x="8.75" y="-152" font-family="Helvetica,sans-Serif" font-size="10.00">+ what()</text>
<text text-anchor="start" x="8.75" y="-140" font-family="Helvetica,sans-Serif" font-size="10.00"># exception()</text>
<text text-anchor="start" x="8.75" y="-128" font-family="Helvetica,sans-Serif" font-size="10.00"># name()</text>
<text text-anchor="start" x="8.75" y="-116" font-family="Helvetica,sans-Serif" font-size="10.00"># diagnostics()</text>
<text text-anchor="start" x="8.75" y="-104" font-family="Helvetica,sans-Serif" font-size="10.00"># diagnostics()</text>
</a>
</g>
</g>
<!-- Node2&#45;&gt;Node1 -->
<g id="edge1" class="edge">
<title>Node2&#45;&gt;Node1</title>
<path fill="none" stroke="#63b8ff" d="M44.38,-85.8C44.38,-77.09 44.38,-68.54 44.38,-60.88"/>
<polygon fill="none" stroke="#63b8ff" points="40.88,-85.75 44.38,-95.75 47.88,-85.75 40.88,-85.75"/>
</g>
<!-- Node3 -->
<g id="node3" class="node">
<title>Node3</title>
<g id="a_node3"><a xlink:title=" ">
<polygon fill="white" stroke="#666666" points="5.62,-242.5 5.62,-302.5 83.12,-302.5 83.12,-242.5 5.62,-242.5"/>
<text text-anchor="middle" x="44.38" y="-289" font-family="Helvetica,sans-Serif" font-size="10.00">std::exception</text>
<polyline fill="none" stroke="#666666" points="5.62,-282.5 83.12,-282.5"/>
<text text-anchor="middle" x="44.38" y="-269" font-family="Helvetica,sans-Serif" font-size="10.00"> </text>
<polyline fill="none" stroke="#666666" points="5.62,-262.5 83.12,-262.5"/>
<text text-anchor="middle" x="44.38" y="-249" font-family="Helvetica,sans-Serif" font-size="10.00"> </text>
</a>
</g>
</g>
<!-- Node3&#45;&gt;Node2 -->
<g id="edge2" class="edge">
<title>Node3&#45;&gt;Node2</title>
<path fill="none" stroke="#63b8ff" d="M44.38,-230.72C44.38,-222.66 44.38,-214.09 44.38,-205.69"/>
<polygon fill="none" stroke="#63b8ff" points="40.88,-230.57 44.38,-240.57 47.88,-230.57 40.88,-230.57"/>
</g>
</g>
</svg>
