<?xml version="1.0" encoding="UTF-8" standalone="no"?>
<!DOCTYPE svg PUBLIC "-//W3C//DTD SVG 1.1//EN"
 "http://www.w3.org/Graphics/SVG/1.1/DTD/svg11.dtd">
<!-- Generated by graphviz version 12.2.1 (20241206.2353)
 -->
<!-- Title: LexiconManager::getWordData Pages: 1 -->
<svg width="505pt" height="90pt"
 viewBox="0.00 0.00 505.25 90.00" xmlns="http://www.w3.org/2000/svg" xmlns:xlink="http://www.w3.org/1999/xlink">
<g id="graph0" class="graph" transform="scale(1 1) rotate(0) translate(4 86)">
<title>LexiconManager::getWordData</title>
<!-- Node1 -->
<g id="node1" class="node">
<title>Node1</title>
<g id="a_node1"><a xlink:title=" ">
<polygon fill="#999999" stroke="#666666" points="497.25,-51 347,-51 347,-31 497.25,-31 497.25,-51"/>
<text text-anchor="middle" x="422.12" y="-37.5" font-family="Helvetica,sans-Serif" font-size="10.00">LexiconManager::getWordData</text>
</a>
</g>
</g>
<!-- Node2 -->
<g id="node2" class="node">
<title>Node2</title>
<g id="a_node2"><a xlink:href="classLexiconManager.html#a222afdedae83a4625513fa2e9367dac9" target="_top" xlink:title=" ">
<polygon fill="white" stroke="#666666" points="311,-82 170.5,-82 170.5,-50 311,-50 311,-82"/>
<text text-anchor="start" x="178.5" y="-68.5" font-family="Helvetica,sans-Serif" font-size="10.00">LexiconManager::getRelated</text>
<text text-anchor="middle" x="240.75" y="-56.5" font-family="Helvetica,sans-Serif" font-size="10.00">Words</text>
</a>
</g>
</g>
<!-- Node1&#45;&gt;Node2 -->
<g id="edge1" class="edge">
<title>Node1&#45;&gt;Node2</title>
<path fill="none" stroke="#63b8ff" d="M335.34,-52.96C327.33,-54.07 319.27,-55.2 311.43,-56.29"/>
<polygon fill="#63b8ff" stroke="#63b8ff" points="335.69,-56.44 345.11,-51.59 334.73,-49.51 335.69,-56.44"/>
</g>
<!-- Node4 -->
<g id="node4" class="node">
<title>Node4</title>
<g id="a_node4"><a xlink:href="classLexiconManager.html#abb9443b4d0b834592a2edc12c81ee97c" target="_top" xlink:title=" ">
<polygon fill="white" stroke="#666666" points="311,-32 170.5,-32 170.5,0 311,0 311,-32"/>
<text text-anchor="start" x="178.5" y="-18.5" font-family="Helvetica,sans-Serif" font-size="10.00">LexiconManager::getSystem</text>
<text text-anchor="middle" x="240.75" y="-6.5" font-family="Helvetica,sans-Serif" font-size="10.00">Triggers</text>
</a>
</g>
</g>
<!-- Node1&#45;&gt;Node4 -->
<g id="edge3" class="edge">
<title>Node1&#45;&gt;Node4</title>
<path fill="none" stroke="#63b8ff" d="M335.34,-29.04C327.33,-27.93 319.27,-26.8 311.43,-25.71"/>
<polygon fill="#63b8ff" stroke="#63b8ff" points="334.73,-32.49 345.11,-30.41 335.69,-25.56 334.73,-32.49"/>
</g>
<!-- Node3 -->
<g id="node3" class="node">
<title>Node3</title>
<g id="a_node3"><a xlink:href="classLexiconManager.html#a0ff52ca3c3a647d51cbc54fd4d6e3c24" target="_top" xlink:title=" ">
<polygon fill="white" stroke="#666666" points="134.5,-82 0,-82 0,-50 134.5,-50 134.5,-82"/>
<text text-anchor="start" x="8" y="-68.5" font-family="Helvetica,sans-Serif" font-size="10.00">LexiconManager::areWords</text>
<text text-anchor="middle" x="67.25" y="-56.5" font-family="Helvetica,sans-Serif" font-size="10.00">Related</text>
</a>
</g>
</g>
<!-- Node2&#45;&gt;Node3 -->
<g id="edge2" class="edge">
<title>Node2&#45;&gt;Node3</title>
<path fill="none" stroke="#63b8ff" d="M159.13,-66C151.05,-66 142.9,-66 134.99,-66"/>
<polygon fill="#63b8ff" stroke="#63b8ff" points="158.98,-69.5 168.98,-66 158.98,-62.5 158.98,-69.5"/>
</g>
</g>
</svg>
