<?xml version="1.0" encoding="UTF-8" standalone="no"?>
<!DOCTYPE svg PUBLIC "-//W3C//DTD SVG 1.1//EN"
 "http://www.w3.org/Graphics/SVG/1.1/DTD/svg11.dtd">
<!-- Generated by graphviz version 12.2.1 (20241206.2353)
 -->
<!-- Title: json_pointer::pop_back Pages: 1 -->
<svg width="668pt" height="93pt"
 viewBox="0.00 0.00 667.75 93.16" xmlns="http://www.w3.org/2000/svg" xmlns:xlink="http://www.w3.org/1999/xlink">
<g id="graph0" class="graph" transform="scale(1 1) rotate(0) translate(4 89.16)">
<title>json_pointer::pop_back</title>
<!-- Node1 -->
<g id="node1" class="node">
<title>Node1</title>
<g id="a_node1"><a xlink:title="remove last reference token">
<polygon fill="#999999" stroke="#666666" points="116.5,-64 0,-64 0,-44 116.5,-44 116.5,-64"/>
<text text-anchor="middle" x="58.25" y="-50.5" font-family="Helvetica,sans-Serif" font-size="10.00">json_pointer::pop_back</text>
</a>
</g>
</g>
<!-- Node2 -->
<g id="node2" class="node">
<title>Node2</title>
<g id="a_node2"><a xlink:href="classdetail_1_1out__of__range.html#a79ea0d3ec02a853629dc827e045ecff5" target="_top" xlink:title=" ">
<polygon fill="white" stroke="#666666" points="254,-70 152.5,-70 152.5,-38 254,-38 254,-70"/>
<text text-anchor="start" x="160.5" y="-56.5" font-family="Helvetica,sans-Serif" font-size="10.00">detail::out_of_range</text>
<text text-anchor="middle" x="203.25" y="-44.5" font-family="Helvetica,sans-Serif" font-size="10.00">::create</text>
</a>
</g>
</g>
<!-- Node1&#45;&gt;Node2 -->
<g id="edge1" class="edge">
<title>Node1&#45;&gt;Node2</title>
<path fill="none" stroke="#63b8ff" d="M116.59,-54C124.62,-54 132.89,-54 140.99,-54"/>
<polygon fill="#63b8ff" stroke="#63b8ff" points="140.76,-57.5 150.76,-54 140.76,-50.5 140.76,-57.5"/>
</g>
<!-- Node3 -->
<g id="node3" class="node">
<title>Node3</title>
<g id="a_node3"><a xlink:href="namespacedetail.html#a266fb3d4bf633ad6c506434cc91164da" target="_top" xlink:title=" ">
<polygon fill="white" stroke="#666666" points="517.75,-64 443.25,-64 443.25,-44 517.75,-44 517.75,-64"/>
<text text-anchor="middle" x="480.5" y="-50.5" font-family="Helvetica,sans-Serif" font-size="10.00">detail::concat</text>
</a>
</g>
</g>
<!-- Node2&#45;&gt;Node3 -->
<g id="edge2" class="edge">
<title>Node2&#45;&gt;Node3</title>
<path fill="none" stroke="#63b8ff" d="M251.8,-70.46C264.09,-73.99 277.41,-77.2 290,-79 341.59,-86.37 355.86,-87.64 407.25,-79 419.95,-76.87 433.39,-72.76 445.2,-68.48"/>
<polygon fill="#63b8ff" stroke="#63b8ff" points="446.43,-71.76 454.53,-64.93 443.94,-65.22 446.43,-71.76"/>
</g>
<!-- Node6 -->
<g id="node6" class="node">
<title>Node6</title>
<g id="a_node6"><a xlink:href="classdetail_1_1exception.html#a6b4a786b5c1c25dd3edaceb1bf2d5120" target="_top" xlink:title=" ">
<polygon fill="white" stroke="#666666" points="395.25,-70 302,-70 302,-38 395.25,-38 395.25,-70"/>
<text text-anchor="start" x="310" y="-56.5" font-family="Helvetica,sans-Serif" font-size="10.00">detail::exception::</text>
<text text-anchor="middle" x="348.62" y="-44.5" font-family="Helvetica,sans-Serif" font-size="10.00">diagnostics</text>
</a>
</g>
</g>
<!-- Node2&#45;&gt;Node6 -->
<g id="edge5" class="edge">
<title>Node2&#45;&gt;Node6</title>
<path fill="none" stroke="#63b8ff" d="M254.4,-54C266.02,-54 278.48,-54 290.39,-54"/>
<polygon fill="#63b8ff" stroke="#63b8ff" points="290.07,-57.5 300.07,-54 290.07,-50.5 290.07,-57.5"/>
</g>
<!-- Node7 -->
<g id="node7" class="node">
<title>Node7</title>
<g id="a_node7"><a xlink:href="classdetail_1_1exception.html#a8f1eb56b9964c8dd84d89d0da98d883b" target="_top" xlink:title=" ">
<polygon fill="white" stroke="#666666" points="407.25,-20 290,-20 290,0 407.25,0 407.25,-20"/>
<text text-anchor="middle" x="348.62" y="-6.5" font-family="Helvetica,sans-Serif" font-size="10.00">detail::exception::name</text>
</a>
</g>
</g>
<!-- Node2&#45;&gt;Node7 -->
<g id="edge6" class="edge">
<title>Node2&#45;&gt;Node7</title>
<path fill="none" stroke="#63b8ff" d="M254.4,-38.61C270.12,-33.79 287.37,-28.49 302.71,-23.78"/>
<polygon fill="#63b8ff" stroke="#63b8ff" points="303.51,-27.2 312.05,-20.92 301.46,-20.51 303.51,-27.2"/>
</g>
<!-- Node4 -->
<g id="node4" class="node">
<title>Node4</title>
<g id="a_node4"><a xlink:href="namespacedetail.html#a89f967b745cf8df11ba9d59f93d97753" target="_top" xlink:title=" ">
<polygon fill="white" stroke="#666666" points="654.5,-83 559,-83 559,-63 654.5,-63 654.5,-83"/>
<text text-anchor="middle" x="606.75" y="-69.5" font-family="Helvetica,sans-Serif" font-size="10.00">detail::concat_into</text>
</a>
</g>
</g>
<!-- Node3&#45;&gt;Node4 -->
<g id="edge3" class="edge">
<title>Node3&#45;&gt;Node4</title>
<path fill="none" stroke="#63b8ff" d="M518.11,-59.6C527.36,-61.01 537.54,-62.57 547.57,-64.1"/>
<polygon fill="#63b8ff" stroke="#63b8ff" points="546.88,-67.54 557.29,-65.59 547.94,-60.62 546.88,-67.54"/>
</g>
<!-- Node5 -->
<g id="node5" class="node">
<title>Node5</title>
<g id="a_node5"><a xlink:href="namespacedetail.html#ac185140ed8c8fcc07a302a890b714b0d" target="_top" xlink:title=" ">
<polygon fill="white" stroke="#666666" points="659.75,-45 553.75,-45 553.75,-25 659.75,-25 659.75,-45"/>
<text text-anchor="middle" x="606.75" y="-31.5" font-family="Helvetica,sans-Serif" font-size="10.00">detail::concat_length</text>
</a>
</g>
</g>
<!-- Node3&#45;&gt;Node5 -->
<g id="edge4" class="edge">
<title>Node3&#45;&gt;Node5</title>
<path fill="none" stroke="#63b8ff" d="M518.11,-48.4C525.69,-47.24 533.88,-45.99 542.11,-44.73"/>
<polygon fill="#63b8ff" stroke="#63b8ff" points="542.44,-48.22 551.8,-43.25 541.38,-41.3 542.44,-48.22"/>
</g>
<!-- Node7&#45;&gt;Node3 -->
<g id="edge7" class="edge">
<title>Node7&#45;&gt;Node3</title>
<path fill="none" stroke="#63b8ff" d="M381.66,-20.47C390,-23.22 398.97,-26.2 407.25,-29 417.5,-32.46 428.55,-36.26 438.85,-39.82"/>
<polygon fill="#63b8ff" stroke="#63b8ff" points="437.63,-43.1 448.22,-43.07 439.92,-36.48 437.63,-43.1"/>
</g>
</g>
</svg>
