<?xml version="1.0" encoding="UTF-8" standalone="no"?>
<!DOCTYPE svg PUBLIC "-//W3C//DTD SVG 1.1//EN"
 "http://www.w3.org/Graphics/SVG/1.1/DTD/svg11.dtd">
<!-- Generated by graphviz version 12.2.1 (20241206.2353)
 -->
<!-- Title: detail::invalid_iterator Pages: 1 -->
<svg width="116pt" height="311pt"
 viewBox="0.00 0.00 116.25 311.00" xmlns="http://www.w3.org/2000/svg" xmlns:xlink="http://www.w3.org/1999/xlink">
<g id="graph0" class="graph" transform="scale(1 1) rotate(0) translate(4 307)">
<title>detail::invalid_iterator</title>
<!-- Node1 -->
<g id="node1" class="node">
<title>Node1</title>
<g id="a_node1"><a xlink:title="exception indicating errors with iterators">
<polygon fill="#999999" stroke="#666666" points="0,-0.5 0,-60.5 108.25,-60.5 108.25,-0.5 0,-0.5"/>
<text text-anchor="middle" x="54.12" y="-47" font-family="Helvetica,sans-Serif" font-size="10.00">detail::invalid_iterator</text>
<polyline fill="none" stroke="#666666" points="0,-40.5 108.25,-40.5"/>
<text text-anchor="middle" x="54.12" y="-27" font-family="Helvetica,sans-Serif" font-size="10.00"> </text>
<polyline fill="none" stroke="#666666" points="0,-20.5 108.25,-20.5"/>
<text text-anchor="start" x="8" y="-7" font-family="Helvetica,sans-Serif" font-size="10.00">+ create()</text>
</a>
</g>
</g>
<!-- Node2 -->
<g id="node2" class="node">
<title>Node2</title>
<g id="a_node2"><a xlink:href="classdetail_1_1exception.html" target="_top" xlink:title="general exception of the basic_json class">
<polygon fill="white" stroke="#666666" points="10.5,-97.5 10.5,-205.5 97.75,-205.5 97.75,-97.5 10.5,-97.5"/>
<text text-anchor="middle" x="54.12" y="-192" font-family="Helvetica,sans-Serif" font-size="10.00">detail::exception</text>
<polyline fill="none" stroke="#666666" points="10.5,-185.5 97.75,-185.5"/>
<text text-anchor="start" x="18.5" y="-172" font-family="Helvetica,sans-Serif" font-size="10.00">+ id</text>
<polyline fill="none" stroke="#666666" points="10.5,-165.5 97.75,-165.5"/>
<text text-anchor="start" x="18.5" y="-152" font-family="Helvetica,sans-Serif" font-size="10.00">+ what()</text>
<text text-anchor="start" x="18.5" y="-140" font-family="Helvetica,sans-Serif" font-size="10.00"># exception()</text>
<text text-anchor="start" x="18.5" y="-128" font-family="Helvetica,sans-Serif" font-size="10.00"># name()</text>
<text text-anchor="start" x="18.5" y="-116" font-family="Helvetica,sans-Serif" font-size="10.00"># diagnostics()</text>
<text text-anchor="start" x="18.5" y="-104" font-family="Helvetica,sans-Serif" font-size="10.00"># diagnostics()</text>
</a>
</g>
</g>
<!-- Node2&#45;&gt;Node1 -->
<g id="edge1" class="edge">
<title>Node2&#45;&gt;Node1</title>
<path fill="none" stroke="#63b8ff" d="M54.12,-85.8C54.12,-77.09 54.12,-68.54 54.12,-60.88"/>
<polygon fill="none" stroke="#63b8ff" points="50.63,-85.75 54.13,-95.75 57.63,-85.75 50.63,-85.75"/>
</g>
<!-- Node3 -->
<g id="node3" class="node">
<title>Node3</title>
<g id="a_node3"><a xlink:title=" ">
<polygon fill="white" stroke="#666666" points="15.38,-242.5 15.38,-302.5 92.88,-302.5 92.88,-242.5 15.38,-242.5"/>
<text text-anchor="middle" x="54.12" y="-289" font-family="Helvetica,sans-Serif" font-size="10.00">std::exception</text>
<polyline fill="none" stroke="#666666" points="15.38,-282.5 92.88,-282.5"/>
<text text-anchor="middle" x="54.12" y="-269" font-family="Helvetica,sans-Serif" font-size="10.00"> </text>
<polyline fill="none" stroke="#666666" points="15.38,-262.5 92.88,-262.5"/>
<text text-anchor="middle" x="54.12" y="-249" font-family="Helvetica,sans-Serif" font-size="10.00"> </text>
</a>
</g>
</g>
<!-- Node3&#45;&gt;Node2 -->
<g id="edge2" class="edge">
<title>Node3&#45;&gt;Node2</title>
<path fill="none" stroke="#63b8ff" d="M54.12,-230.72C54.12,-222.66 54.12,-214.09 54.12,-205.69"/>
<polygon fill="none" stroke="#63b8ff" points="50.63,-230.57 54.13,-240.57 57.63,-230.57 50.63,-230.57"/>
</g>
</g>
</svg>
