<?xml version="1.0" encoding="UTF-8" standalone="no"?>
<!DOCTYPE svg PUBLIC "-//W3C//DTD SVG 1.1//EN"
 "http://www.w3.org/Graphics/SVG/1.1/DTD/svg11.dtd">
<!-- Generated by graphviz version 12.2.1 (20241206.2353)
 -->
<!-- Title: SceneCombat::sRender Pages: 1 -->
<svg width="335pt" height="104pt"
 viewBox="0.00 0.00 334.75 104.00" xmlns="http://www.w3.org/2000/svg" xmlns:xlink="http://www.w3.org/1999/xlink">
<g id="graph0" class="graph" transform="scale(1 1) rotate(0) translate(4 100)">
<title>SceneCombat::sRender</title>
<!-- Node1 -->
<g id="node1" class="node">
<title>Node1</title>
<g id="a_node1"><a xlink:title=" ">
<polygon fill="#999999" stroke="#666666" points="121,-58 0,-58 0,-38 121,-38 121,-58"/>
<text text-anchor="middle" x="60.5" y="-44.5" font-family="Helvetica,sans-Serif" font-size="10.00">SceneCombat::sRender</text>
</a>
</g>
</g>
<!-- Node2 -->
<g id="node2" class="node">
<title>Node2</title>
<g id="a_node2"><a xlink:href="classSceneCombat.html#a2fc2dd39fbf50f70f18261aec17e8458" target="_top" xlink:title=" ">
<polygon fill="white" stroke="#666666" points="320.38,-96 163.38,-96 163.38,-76 320.38,-76 320.38,-96"/>
<text text-anchor="middle" x="241.88" y="-82.5" font-family="Helvetica,sans-Serif" font-size="10.00">SceneCombat::sRenderChainUI</text>
</a>
</g>
</g>
<!-- Node1&#45;&gt;Node2 -->
<g id="edge1" class="edge">
<title>Node1&#45;&gt;Node2</title>
<path fill="none" stroke="#63b8ff" d="M110.99,-58.48C132.46,-63.03 157.8,-68.4 180.37,-73.18"/>
<polygon fill="#63b8ff" stroke="#63b8ff" points="179.56,-76.59 190.07,-75.24 181.01,-69.74 179.56,-76.59"/>
</g>
<!-- Node3 -->
<g id="node3" class="node">
<title>Node3</title>
<g id="a_node3"><a xlink:href="classSceneCombat.html#a48f5e446a93b78ddff16b5ff5ba277e6" target="_top" xlink:title=" ">
<polygon fill="white" stroke="#666666" points="324.88,-58 158.88,-58 158.88,-38 324.88,-38 324.88,-58"/>
<text text-anchor="middle" x="241.88" y="-44.5" font-family="Helvetica,sans-Serif" font-size="10.00">SceneCombat::sRenderCombatUI</text>
</a>
</g>
</g>
<!-- Node1&#45;&gt;Node3 -->
<g id="edge2" class="edge">
<title>Node1&#45;&gt;Node3</title>
<path fill="none" stroke="#63b8ff" d="M121.23,-48C129.52,-48 138.2,-48 146.93,-48"/>
<polygon fill="#63b8ff" stroke="#63b8ff" points="146.89,-51.5 156.89,-48 146.89,-44.5 146.89,-51.5"/>
</g>
<!-- Node4 -->
<g id="node4" class="node">
<title>Node4</title>
<g id="a_node4"><a xlink:href="classSceneCombat.html#a2dde7bc9ed6127c5317f7f6fe3900257" target="_top" xlink:title=" ">
<polygon fill="white" stroke="#666666" points="326.75,-20 157,-20 157,0 326.75,0 326.75,-20"/>
<text text-anchor="middle" x="241.88" y="-6.5" font-family="Helvetica,sans-Serif" font-size="10.00">SceneCombat::sRenderHealthBars</text>
</a>
</g>
</g>
<!-- Node1&#45;&gt;Node4 -->
<g id="edge3" class="edge">
<title>Node1&#45;&gt;Node4</title>
<path fill="none" stroke="#63b8ff" d="M110.99,-37.52C132.46,-32.97 157.8,-27.6 180.37,-22.82"/>
<polygon fill="#63b8ff" stroke="#63b8ff" points="181.01,-26.26 190.07,-20.76 179.56,-19.41 181.01,-26.26"/>
</g>
</g>
</svg>
