<?xml version="1.0" encoding="UTF-8" standalone="no"?>
<!DOCTYPE svg PUBLIC "-//W3C//DTD SVG 1.1//EN"
 "http://www.w3.org/Graphics/SVG/1.1/DTD/svg11.dtd">
<!-- Generated by graphviz version 12.2.1 (20241206.2353)
 -->
<!-- Title: StageManager::onCivilianRecruited Pages: 1 -->
<svg width="1040pt" height="90pt"
 viewBox="0.00 0.00 1040.00 90.00" xmlns="http://www.w3.org/2000/svg" xmlns:xlink="http://www.w3.org/1999/xlink">
<g id="graph0" class="graph" transform="scale(1 1) rotate(0) translate(4 86)">
<title>StageManager::onCivilianRecruited</title>
<!-- Node1 -->
<g id="node1" class="node">
<title>Node1</title>
<g id="a_node1"><a xlink:title=" ">
<polygon fill="#999999" stroke="#666666" points="127.75,-57 0,-57 0,-25 127.75,-25 127.75,-57"/>
<text text-anchor="start" x="8" y="-43.5" font-family="Helvetica,sans-Serif" font-size="10.00">StageManager::onCivilian</text>
<text text-anchor="middle" x="63.88" y="-31.5" font-family="Helvetica,sans-Serif" font-size="10.00">Recruited</text>
</a>
</g>
</g>
<!-- Node2 -->
<g id="node2" class="node">
<title>Node2</title>
<g id="a_node2"><a xlink:href="classStageManager.html#a46169ed08b6eb895734162126b0ee70e" target="_top" xlink:title=" ">
<polygon fill="white" stroke="#666666" points="333.5,-57 163.75,-57 163.75,-25 333.5,-25 333.5,-57"/>
<text text-anchor="start" x="171.75" y="-43.5" font-family="Helvetica,sans-Serif" font-size="10.00">StageManager::incrementRecruited</text>
<text text-anchor="middle" x="248.62" y="-31.5" font-family="Helvetica,sans-Serif" font-size="10.00">Civilians</text>
</a>
</g>
</g>
<!-- Node1&#45;&gt;Node2 -->
<g id="edge1" class="edge">
<title>Node1&#45;&gt;Node2</title>
<path fill="none" stroke="#63b8ff" d="M128.02,-41C135.81,-41 143.89,-41 152.02,-41"/>
<polygon fill="#63b8ff" stroke="#63b8ff" points="152.01,-44.5 162.01,-41 152.01,-37.5 152.01,-44.5"/>
</g>
<!-- Node3 -->
<g id="node3" class="node">
<title>Node3</title>
<g id="a_node3"><a xlink:href="classStageManager.html#a022eba9080a05e9803c94017c30e62b9" target="_top" xlink:title=" ">
<polygon fill="white" stroke="#666666" points="509.25,-57 369.5,-57 369.5,-25 509.25,-25 509.25,-57"/>
<text text-anchor="start" x="377.5" y="-43.5" font-family="Helvetica,sans-Serif" font-size="10.00">StageManager::updateStage</text>
<text text-anchor="middle" x="439.38" y="-31.5" font-family="Helvetica,sans-Serif" font-size="10.00">Progress</text>
</a>
</g>
</g>
<!-- Node2&#45;&gt;Node3 -->
<g id="edge2" class="edge">
<title>Node2&#45;&gt;Node3</title>
<path fill="none" stroke="#63b8ff" d="M333.79,-41C341.71,-41 349.74,-41 357.63,-41"/>
<polygon fill="#63b8ff" stroke="#63b8ff" points="357.56,-44.5 367.56,-41 357.56,-37.5 357.56,-44.5"/>
</g>
<!-- Node4 -->
<g id="node4" class="node">
<title>Node4</title>
<g id="a_node4"><a xlink:href="classStageManager.html#afb140761eee14fdbb97386d747bf2be9" target="_top" xlink:title=" ">
<polygon fill="white" stroke="#666666" points="698.5,-82 545.25,-82 545.25,-50 698.5,-50 698.5,-82"/>
<text text-anchor="start" x="553.25" y="-68.5" font-family="Helvetica,sans-Serif" font-size="10.00">StageManager::advanceToNext</text>
<text text-anchor="middle" x="621.88" y="-56.5" font-family="Helvetica,sans-Serif" font-size="10.00">Stage</text>
</a>
</g>
</g>
<!-- Node3&#45;&gt;Node4 -->
<g id="edge3" class="edge">
<title>Node3&#45;&gt;Node4</title>
<path fill="none" stroke="#63b8ff" d="M509.64,-50.59C517.48,-51.68 525.55,-52.8 533.58,-53.91"/>
<polygon fill="#63b8ff" stroke="#63b8ff" points="533,-57.36 543.38,-55.27 533.96,-50.43 533,-57.36"/>
</g>
<!-- Node7 -->
<g id="node7" class="node">
<title>Node7</title>
<g id="a_node7"><a xlink:href="classStageManager.html#aaa19b5d58ad75bc7ba9e5d44dd406e0d" target="_top" xlink:title=" ">
<polygon fill="white" stroke="#666666" points="690.25,-32 553.5,-32 553.5,0 690.25,0 690.25,-32"/>
<text text-anchor="start" x="561.5" y="-18.5" font-family="Helvetica,sans-Serif" font-size="10.00">StageManager::checkStage</text>
<text text-anchor="middle" x="621.88" y="-6.5" font-family="Helvetica,sans-Serif" font-size="10.00">Completion</text>
</a>
</g>
</g>
<!-- Node3&#45;&gt;Node7 -->
<g id="edge6" class="edge">
<title>Node3&#45;&gt;Node7</title>
<path fill="none" stroke="#63b8ff" d="M509.64,-31.41C520.27,-29.93 531.31,-28.41 542.12,-26.91"/>
<polygon fill="#63b8ff" stroke="#63b8ff" points="542.35,-30.41 551.78,-25.57 541.39,-23.48 542.35,-30.41"/>
</g>
<!-- Node5 -->
<g id="node5" class="node">
<title>Node5</title>
<g id="a_node5"><a xlink:href="classStageManager.html#aa791077a0a66151f565eb33fbe43a7bd" target="_top" xlink:title=" ">
<polygon fill="white" stroke="#666666" points="865.25,-82 734.5,-82 734.5,-50 865.25,-50 865.25,-82"/>
<text text-anchor="start" x="742.5" y="-68.5" font-family="Helvetica,sans-Serif" font-size="10.00">StageManager::getCurrent</text>
<text text-anchor="middle" x="799.88" y="-56.5" font-family="Helvetica,sans-Serif" font-size="10.00">StageName</text>
</a>
</g>
</g>
<!-- Node4&#45;&gt;Node5 -->
<g id="edge4" class="edge">
<title>Node4&#45;&gt;Node5</title>
<path fill="none" stroke="#63b8ff" d="M698.79,-66C706.73,-66 714.8,-66 722.74,-66"/>
<polygon fill="#63b8ff" stroke="#63b8ff" points="722.74,-69.5 732.74,-66 722.74,-62.5 722.74,-69.5"/>
</g>
<!-- Node6 -->
<g id="node6" class="node">
<title>Node6</title>
<g id="a_node6"><a xlink:href="classStageManager.html#ae2213154056ba26e326de04c69a962d8" target="_top" xlink:title=" ">
<polygon fill="white" stroke="#666666" points="1032,-82 901.25,-82 901.25,-50 1032,-50 1032,-82"/>
<text text-anchor="start" x="909.25" y="-68.5" font-family="Helvetica,sans-Serif" font-size="10.00">StageManager::getCurrent</text>
<text text-anchor="middle" x="966.62" y="-56.5" font-family="Helvetica,sans-Serif" font-size="10.00">StageData</text>
</a>
</g>
</g>
<!-- Node5&#45;&gt;Node6 -->
<g id="edge5" class="edge">
<title>Node5&#45;&gt;Node6</title>
<path fill="none" stroke="#63b8ff" d="M865.52,-66C873.42,-66 881.55,-66 889.6,-66"/>
<polygon fill="#63b8ff" stroke="#63b8ff" points="889.39,-69.5 899.39,-66 889.39,-62.5 889.39,-69.5"/>
</g>
</g>
</svg>
