<?xml version="1.0" encoding="UTF-8" standalone="no"?>
<!DOCTYPE svg PUBLIC "-//W3C//DTD SVG 1.1//EN"
 "http://www.w3.org/Graphics/SVG/1.1/DTD/svg11.dtd">
<!-- Generated by graphviz version 12.2.1 (20241206.2353)
 -->
<!-- Title: TurnManager::processEventPhase Pages: 1 -->
<svg width="805pt" height="134pt"
 viewBox="0.00 0.00 805.00 134.00" xmlns="http://www.w3.org/2000/svg" xmlns:xlink="http://www.w3.org/1999/xlink">
<g id="graph0" class="graph" transform="scale(1 1) rotate(0) translate(4 130)">
<title>TurnManager::processEventPhase</title>
<!-- Node1 -->
<g id="node1" class="node">
<title>Node1</title>
<g id="a_node1"><a xlink:title=" ">
<polygon fill="#999999" stroke="#666666" points="139,-54 0,-54 0,-22 139,-22 139,-54"/>
<text text-anchor="start" x="8" y="-40.5" font-family="Helvetica,sans-Serif" font-size="10.00">TurnManager::processEvent</text>
<text text-anchor="middle" x="69.5" y="-28.5" font-family="Helvetica,sans-Serif" font-size="10.00">Phase</text>
</a>
</g>
</g>
<!-- Node2 -->
<g id="node2" class="node">
<title>Node2</title>
<g id="a_node2"><a xlink:href="classTurnManager.html#af0af68eda36f0eb00ab1c0a497dea311" target="_top" xlink:title=" ">
<polygon fill="white" stroke="#666666" points="322.25,-54 175,-54 175,-22 322.25,-22 322.25,-54"/>
<text text-anchor="start" x="183" y="-40.5" font-family="Helvetica,sans-Serif" font-size="10.00">TurnManager::advanceToNext</text>
<text text-anchor="middle" x="248.62" y="-28.5" font-family="Helvetica,sans-Serif" font-size="10.00">Phase</text>
</a>
</g>
</g>
<!-- Node1&#45;&gt;Node2 -->
<g id="edge1" class="edge">
<title>Node1&#45;&gt;Node2</title>
<path fill="none" stroke="#63b8ff" d="M139.49,-38C147.34,-38 155.42,-38 163.44,-38"/>
<polygon fill="#63b8ff" stroke="#63b8ff" points="163.22,-41.5 173.22,-38 163.22,-34.5 163.22,-41.5"/>
</g>
<!-- Node3 -->
<g id="node3" class="node">
<title>Node3</title>
<g id="a_node3"><a xlink:href="classTurnManager.html#ade74a1914a24f832b30252cff34668bf" target="_top" xlink:title=" ">
<polygon fill="white" stroke="#666666" points="472.5,-68 358.25,-68 358.25,-48 472.5,-48 472.5,-68"/>
<text text-anchor="middle" x="415.38" y="-54.5" font-family="Helvetica,sans-Serif" font-size="10.00">TurnManager::endTurn</text>
</a>
</g>
</g>
<!-- Node2&#45;&gt;Node3 -->
<g id="edge2" class="edge">
<title>Node2&#45;&gt;Node3</title>
<path fill="none" stroke="#63b8ff" d="M322.37,-46.83C330.45,-47.81 338.66,-48.81 346.68,-49.78"/>
<polygon fill="#63b8ff" stroke="#63b8ff" points="346.01,-53.23 356.35,-50.96 346.85,-46.28 346.01,-53.23"/>
</g>
<!-- Node6 -->
<g id="node6" class="node">
<title>Node6</title>
<g id="a_node6"><a xlink:href="classTurnManager.html#af1bba901d1410ce5418213270b5388cd" target="_top" xlink:title=" ">
<polygon fill="white" stroke="#666666" points="629.88,-26 511.88,-26 511.88,-6 629.88,-6 629.88,-26"/>
<text text-anchor="middle" x="570.88" y="-12.5" font-family="Helvetica,sans-Serif" font-size="10.00">TurnManager::startTurn</text>
</a>
</g>
</g>
<!-- Node2&#45;&gt;Node6 -->
<g id="edge7" class="edge">
<title>Node2&#45;&gt;Node6</title>
<path fill="none" stroke="#63b8ff" d="M322.7,-32.98C376.01,-29.32 447.83,-24.38 500.31,-20.78"/>
<polygon fill="#63b8ff" stroke="#63b8ff" points="500.29,-24.29 510.02,-20.11 499.81,-17.31 500.29,-24.29"/>
</g>
<!-- Node4 -->
<g id="node4" class="node">
<title>Node4</title>
<g id="a_node4"><a xlink:href="classActionFormationManager.html#ab6c97337bf2f94a7c2f16957b4b04b63" target="_top" xlink:title=" ">
<polygon fill="white" stroke="#666666" points="633.25,-126 508.5,-126 508.5,-94 633.25,-94 633.25,-126"/>
<text text-anchor="start" x="516.5" y="-112.5" font-family="Helvetica,sans-Serif" font-size="10.00">ActionFormationManager</text>
<text text-anchor="middle" x="570.88" y="-100.5" font-family="Helvetica,sans-Serif" font-size="10.00">::cancelFormation</text>
</a>
</g>
</g>
<!-- Node3&#45;&gt;Node4 -->
<g id="edge3" class="edge">
<title>Node3&#45;&gt;Node4</title>
<path fill="none" stroke="#63b8ff" d="M447.07,-68.4C465.26,-74.56 488.92,-82.58 510.61,-89.92"/>
<polygon fill="#63b8ff" stroke="#63b8ff" points="509.38,-93.2 519.97,-93.09 511.62,-86.57 509.38,-93.2"/>
</g>
<!-- Node5 -->
<g id="node5" class="node">
<title>Node5</title>
<g id="a_node5"><a xlink:href="classActionFormationManager.html#a496649a3ab5ac5f173239d18857b6065" target="_top" xlink:title=" ">
<polygon fill="white" stroke="#666666" points="633.25,-76 508.5,-76 508.5,-44 633.25,-44 633.25,-76"/>
<text text-anchor="start" x="516.5" y="-62.5" font-family="Helvetica,sans-Serif" font-size="10.00">ActionFormationManager</text>
<text text-anchor="middle" x="570.88" y="-50.5" font-family="Helvetica,sans-Serif" font-size="10.00">::isFormationInProgress</text>
</a>
</g>
</g>
<!-- Node3&#45;&gt;Node5 -->
<g id="edge4" class="edge">
<title>Node3&#45;&gt;Node5</title>
<path fill="none" stroke="#63b8ff" d="M472.66,-58.73C480.51,-58.84 488.67,-58.94 496.78,-59.05"/>
<polygon fill="#63b8ff" stroke="#63b8ff" points="496.6,-62.55 506.65,-59.18 496.69,-55.55 496.6,-62.55"/>
</g>
<!-- Node3&#45;&gt;Node6 -->
<g id="edge5" class="edge">
<title>Node3&#45;&gt;Node6</title>
<path fill="none" stroke="#63b8ff" d="M454.71,-47.51C474.75,-42.03 499.5,-35.26 520.91,-29.4"/>
<polygon fill="#63b8ff" stroke="#63b8ff" points="521.58,-32.84 530.3,-26.83 519.73,-26.09 521.58,-32.84"/>
</g>
<!-- Node7 -->
<g id="node7" class="node">
<title>Node7</title>
<g id="a_node7"><a xlink:href="classActionResolutionManager.html#ab0df536666191614ab0d1b1fd4c87610" target="_top" xlink:title=" ">
<polygon fill="white" stroke="#666666" points="797,-32 669.25,-32 669.25,0 797,0 797,-32"/>
<text text-anchor="start" x="677.25" y="-18.5" font-family="Helvetica,sans-Serif" font-size="10.00">ActionResolutionManager</text>
<text text-anchor="middle" x="733.12" y="-6.5" font-family="Helvetica,sans-Serif" font-size="10.00">::processFutureActions</text>
</a>
</g>
</g>
<!-- Node6&#45;&gt;Node7 -->
<g id="edge6" class="edge">
<title>Node6&#45;&gt;Node7</title>
<path fill="none" stroke="#63b8ff" d="M630.18,-16C639.15,-16 648.52,-16 657.78,-16"/>
<polygon fill="#63b8ff" stroke="#63b8ff" points="657.48,-19.5 667.48,-16 657.48,-12.5 657.48,-19.5"/>
</g>
</g>
</svg>
