<?xml version="1.0" encoding="UTF-8" standalone="no"?>
<!DOCTYPE svg PUBLIC "-//W3C//DTD SVG 1.1//EN"
 "http://www.w3.org/Graphics/SVG/1.1/DTD/svg11.dtd">
<!-- Generated by graphviz version 12.2.1 (20241206.2353)
 -->
<!-- Title: SceneMain Pages: 1 -->
<svg width="98pt" height="250pt"
 viewBox="0.00 0.00 98.25 250.00" xmlns="http://www.w3.org/2000/svg" xmlns:xlink="http://www.w3.org/1999/xlink">
<g id="graph0" class="graph" transform="scale(1 1) rotate(0) translate(4 246)">
<title>SceneMain</title>
<!-- Node1 -->
<g id="node1" class="node">
<title>Node1</title>
<g id="a_node1"><a xlink:title=" ">
<polygon fill="#999999" stroke="#666666" points="0,-0.5 0,-144.5 90.25,-144.5 90.25,-0.5 0,-0.5"/>
<text text-anchor="middle" x="45.12" y="-131" font-family="Helvetica,sans-Serif" font-size="10.00">SceneMain</text>
<polyline fill="none" stroke="#666666" points="0,-124.5 90.25,-124.5"/>
<text text-anchor="start" x="8" y="-111" font-family="Helvetica,sans-Serif" font-size="10.00"># m_cursorEntity</text>
<text text-anchor="start" x="8" y="-99" font-family="Helvetica,sans-Serif" font-size="10.00"># m_controlState</text>
<polyline fill="none" stroke="#666666" points="0,-92.5 90.25,-92.5"/>
<text text-anchor="start" x="8" y="-79" font-family="Helvetica,sans-Serif" font-size="10.00">+ SceneMain()</text>
<text text-anchor="start" x="8" y="-67" font-family="Helvetica,sans-Serif" font-size="10.00">+ sRender()</text>
<text text-anchor="start" x="8" y="-55" font-family="Helvetica,sans-Serif" font-size="10.00"># createMap()</text>
<text text-anchor="start" x="8" y="-43" font-family="Helvetica,sans-Serif" font-size="10.00"># init()</text>
<text text-anchor="start" x="8" y="-31" font-family="Helvetica,sans-Serif" font-size="10.00"># update()</text>
<text text-anchor="start" x="8" y="-19" font-family="Helvetica,sans-Serif" font-size="10.00"># sDoAction()</text>
<text text-anchor="start" x="8" y="-7" font-family="Helvetica,sans-Serif" font-size="10.00"># onEnd()</text>
</a>
</g>
</g>
<!-- Node2 -->
<g id="node2" class="node">
<title>Node2</title>
<g id="a_node2"><a xlink:title=" ">
<polygon fill="white" stroke="#666666" points="23.25,-181.5 23.25,-241.5 67,-241.5 67,-181.5 23.25,-181.5"/>
<text text-anchor="middle" x="45.12" y="-228" font-family="Helvetica,sans-Serif" font-size="10.00">Scene</text>
<polyline fill="none" stroke="#666666" points="23.25,-221.5 67,-221.5"/>
<text text-anchor="middle" x="45.12" y="-208" font-family="Helvetica,sans-Serif" font-size="10.00"> </text>
<polyline fill="none" stroke="#666666" points="23.25,-201.5 67,-201.5"/>
<text text-anchor="middle" x="45.12" y="-188" font-family="Helvetica,sans-Serif" font-size="10.00"> </text>
</a>
</g>
</g>
<!-- Node2&#45;&gt;Node1 -->
<g id="edge1" class="edge">
<title>Node2&#45;&gt;Node1</title>
<path fill="none" stroke="#63b8ff" d="M45.12,-169.67C45.12,-161.78 45.12,-153.31 45.12,-144.78"/>
<polygon fill="none" stroke="#63b8ff" points="41.63,-169.6 45.13,-179.6 48.63,-169.6 41.63,-169.6"/>
</g>
</g>
</svg>
