<?xml version="1.0" encoding="UTF-8" standalone="no"?>
<!DOCTYPE svg PUBLIC "-//W3C//DTD SVG 1.1//EN"
 "http://www.w3.org/Graphics/SVG/1.1/DTD/svg11.dtd">
<!-- Generated by graphviz version 12.2.1 (20241206.2353)
 -->
<!-- Title: basic_json::basic_json Pages: 1 -->
<svg width="376pt" height="66pt"
 viewBox="0.00 0.00 375.50 66.00" xmlns="http://www.w3.org/2000/svg" xmlns:xlink="http://www.w3.org/1999/xlink">
<g id="graph0" class="graph" transform="scale(1 1) rotate(0) translate(4 62)">
<title>basic_json::basic_json</title>
<!-- Node1 -->
<g id="node1" class="node">
<title>Node1</title>
<g id="a_node1"><a xlink:title="construct a JSON container given an iterator range">
<polygon fill="#999999" stroke="#666666" points="115,-39 0,-39 0,-19 115,-19 115,-39"/>
<text text-anchor="middle" x="57.5" y="-25.5" font-family="Helvetica,sans-Serif" font-size="10.00">basic_json::basic_json</text>
</a>
</g>
</g>
<!-- Node2 -->
<g id="node2" class="node">
<title>Node2</title>
<g id="a_node2"><a xlink:href="namespacedetail.html#a266fb3d4bf633ad6c506434cc91164da" target="_top" xlink:title=" ">
<polygon fill="white" stroke="#666666" points="225.5,-39 151,-39 151,-19 225.5,-19 225.5,-39"/>
<text text-anchor="middle" x="188.25" y="-25.5" font-family="Helvetica,sans-Serif" font-size="10.00">detail::concat</text>
</a>
</g>
</g>
<!-- Node1&#45;&gt;Node2 -->
<g id="edge1" class="edge">
<title>Node1&#45;&gt;Node2</title>
<path fill="none" stroke="#63b8ff" d="M115.35,-29C123.31,-29 131.43,-29 139.21,-29"/>
<polygon fill="#63b8ff" stroke="#63b8ff" points="139.17,-32.5 149.17,-29 139.17,-25.5 139.17,-32.5"/>
</g>
<!-- Node3 -->
<g id="node3" class="node">
<title>Node3</title>
<g id="a_node3"><a xlink:href="namespacedetail.html#a89f967b745cf8df11ba9d59f93d97753" target="_top" xlink:title=" ">
<polygon fill="white" stroke="#666666" points="362.25,-58 266.75,-58 266.75,-38 362.25,-38 362.25,-58"/>
<text text-anchor="middle" x="314.5" y="-44.5" font-family="Helvetica,sans-Serif" font-size="10.00">detail::concat_into</text>
</a>
</g>
</g>
<!-- Node2&#45;&gt;Node3 -->
<g id="edge2" class="edge">
<title>Node2&#45;&gt;Node3</title>
<path fill="none" stroke="#63b8ff" d="M225.86,-34.6C235.11,-36.01 245.29,-37.57 255.32,-39.1"/>
<polygon fill="#63b8ff" stroke="#63b8ff" points="254.63,-42.54 265.04,-40.59 255.69,-35.62 254.63,-42.54"/>
</g>
<!-- Node4 -->
<g id="node4" class="node">
<title>Node4</title>
<g id="a_node4"><a xlink:href="namespacedetail.html#ac185140ed8c8fcc07a302a890b714b0d" target="_top" xlink:title=" ">
<polygon fill="white" stroke="#666666" points="367.5,-20 261.5,-20 261.5,0 367.5,0 367.5,-20"/>
<text text-anchor="middle" x="314.5" y="-6.5" font-family="Helvetica,sans-Serif" font-size="10.00">detail::concat_length</text>
</a>
</g>
</g>
<!-- Node2&#45;&gt;Node4 -->
<g id="edge3" class="edge">
<title>Node2&#45;&gt;Node4</title>
<path fill="none" stroke="#63b8ff" d="M225.86,-23.4C233.44,-22.24 241.63,-20.99 249.86,-19.73"/>
<polygon fill="#63b8ff" stroke="#63b8ff" points="250.19,-23.22 259.55,-18.25 249.13,-16.3 250.19,-23.22"/>
</g>
</g>
</svg>
