<?xml version="1.0" encoding="UTF-8" standalone="no"?>
<!DOCTYPE svg PUBLIC "-//W3C//DTD SVG 1.1//EN"
 "http://www.w3.org/Graphics/SVG/1.1/DTD/svg11.dtd">
<!-- Generated by graphviz version 12.2.1 (20241206.2353)
 -->
<!-- Title: DummyScene Pages: 1 -->
<svg width="86pt" height="178pt"
 viewBox="0.00 0.00 86.25 178.00" xmlns="http://www.w3.org/2000/svg" xmlns:xlink="http://www.w3.org/1999/xlink">
<g id="graph0" class="graph" transform="scale(1 1) rotate(0) translate(4 174)">
<title>DummyScene</title>
<!-- Node1 -->
<g id="node1" class="node">
<title>Node1</title>
<g id="a_node1"><a xlink:title=" ">
<polygon fill="#999999" stroke="#666666" points="0,-0.5 0,-72.5 78.25,-72.5 78.25,-0.5 0,-0.5"/>
<text text-anchor="middle" x="39.12" y="-59" font-family="Helvetica,sans-Serif" font-size="10.00">DummyScene</text>
<polyline fill="none" stroke="#666666" points="0,-52.5 78.25,-52.5"/>
<text text-anchor="middle" x="39.12" y="-39" font-family="Helvetica,sans-Serif" font-size="10.00"> </text>
<polyline fill="none" stroke="#666666" points="0,-32.5 78.25,-32.5"/>
<text text-anchor="start" x="8" y="-19" font-family="Helvetica,sans-Serif" font-size="10.00">+ update()</text>
<text text-anchor="start" x="8" y="-7" font-family="Helvetica,sans-Serif" font-size="10.00">+ sRender()</text>
</a>
</g>
</g>
<!-- Node2 -->
<g id="node2" class="node">
<title>Node2</title>
<g id="a_node2"><a xlink:title=" ">
<polygon fill="white" stroke="#666666" points="17.25,-109.5 17.25,-169.5 61,-169.5 61,-109.5 17.25,-109.5"/>
<text text-anchor="middle" x="39.12" y="-156" font-family="Helvetica,sans-Serif" font-size="10.00">Scene</text>
<polyline fill="none" stroke="#666666" points="17.25,-149.5 61,-149.5"/>
<text text-anchor="middle" x="39.12" y="-136" font-family="Helvetica,sans-Serif" font-size="10.00"> </text>
<polyline fill="none" stroke="#666666" points="17.25,-129.5 61,-129.5"/>
<text text-anchor="middle" x="39.12" y="-116" font-family="Helvetica,sans-Serif" font-size="10.00"> </text>
</a>
</g>
</g>
<!-- Node2&#45;&gt;Node1 -->
<g id="edge1" class="edge">
<title>Node2&#45;&gt;Node1</title>
<path fill="none" stroke="#63b8ff" d="M39.12,-97.73C39.12,-89.51 39.12,-80.94 39.12,-72.92"/>
<polygon fill="none" stroke="#63b8ff" points="35.63,-97.5 39.13,-107.5 42.63,-97.5 35.63,-97.5"/>
</g>
</g>
</svg>
