<?xml version="1.0" encoding="UTF-8" standalone="no"?>
<!DOCTYPE svg PUBLIC "-//W3C//DTD SVG 1.1//EN"
 "http://www.w3.org/Graphics/SVG/1.1/DTD/svg11.dtd">
<!-- Generated by graphviz version 12.2.1 (20241206.2353)
 -->
<!-- Title: SceneCombat::sProcessPlayerAnswer Pages: 1 -->
<svg width="349pt" height="116pt"
 viewBox="0.00 0.00 349.00 116.00" xmlns="http://www.w3.org/2000/svg" xmlns:xlink="http://www.w3.org/1999/xlink">
<g id="graph0" class="graph" transform="scale(1 1) rotate(0) translate(4 112)">
<title>SceneCombat::sProcessPlayerAnswer</title>
<!-- Node1 -->
<g id="node1" class="node">
<title>Node1</title>
<g id="a_node1"><a xlink:title=" ">
<polygon fill="#999999" stroke="#666666" points="153.25,-76 0,-76 0,-44 153.25,-44 153.25,-76"/>
<text text-anchor="start" x="8" y="-62.5" font-family="Helvetica,sans-Serif" font-size="10.00">SceneCombat::sProcessPlayer</text>
<text text-anchor="middle" x="76.62" y="-50.5" font-family="Helvetica,sans-Serif" font-size="10.00">Answer</text>
</a>
</g>
</g>
<!-- Node2 -->
<g id="node2" class="node">
<title>Node2</title>
<g id="a_node2"><a xlink:href="classSceneCombat.html#a465c5aa967a785e6ecaf11b57f865de5" target="_top" xlink:title=" ">
<polygon fill="white" stroke="#666666" points="340.62,-108 189.62,-108 189.62,-88 340.62,-88 340.62,-108"/>
<text text-anchor="middle" x="265.12" y="-94.5" font-family="Helvetica,sans-Serif" font-size="10.00">SceneCombat::sApplyDamage</text>
</a>
</g>
</g>
<!-- Node1&#45;&gt;Node2 -->
<g id="edge1" class="edge">
<title>Node1&#45;&gt;Node2</title>
<path fill="none" stroke="#63b8ff" d="M153.48,-75.46C169.55,-78.73 186.33,-82.15 201.83,-85.31"/>
<polygon fill="#63b8ff" stroke="#63b8ff" points="200.87,-88.68 211.37,-87.25 202.27,-81.83 200.87,-88.68"/>
</g>
<!-- Node3 -->
<g id="node3" class="node">
<title>Node3</title>
<g id="a_node3"><a xlink:href="classSceneCombat.html#af0b3bef84d34d470709b0a050771c44e" target="_top" xlink:title=" ">
<polygon fill="white" stroke="#666666" points="335.75,-70 194.5,-70 194.5,-50 335.75,-50 335.75,-70"/>
<text text-anchor="middle" x="265.12" y="-56.5" font-family="Helvetica,sans-Serif" font-size="10.00">SceneCombat::sEndCombat</text>
</a>
</g>
</g>
<!-- Node1&#45;&gt;Node3 -->
<g id="edge2" class="edge">
<title>Node1&#45;&gt;Node3</title>
<path fill="none" stroke="#63b8ff" d="M153.48,-60C163.12,-60 173.02,-60 182.74,-60"/>
<polygon fill="#63b8ff" stroke="#63b8ff" points="182.54,-63.5 192.54,-60 182.54,-56.5 182.54,-63.5"/>
</g>
<!-- Node4 -->
<g id="node4" class="node">
<title>Node4</title>
<g id="a_node4"><a xlink:href="classSceneCombat.html#aed515cf302c3f9f5dab23b2597ddc086" target="_top" xlink:title=" ">
<polygon fill="white" stroke="#666666" points="341,-32 189.25,-32 189.25,0 341,0 341,-32"/>
<text text-anchor="start" x="197.25" y="-18.5" font-family="Helvetica,sans-Serif" font-size="10.00">SceneCombat::sGenerateWord</text>
<text text-anchor="middle" x="265.12" y="-6.5" font-family="Helvetica,sans-Serif" font-size="10.00">Challenge</text>
</a>
</g>
</g>
<!-- Node1&#45;&gt;Node4 -->
<g id="edge3" class="edge">
<title>Node1&#45;&gt;Node4</title>
<path fill="none" stroke="#63b8ff" d="M147.34,-43.55C159.06,-40.79 171.31,-37.9 183.29,-35.07"/>
<polygon fill="#63b8ff" stroke="#63b8ff" points="183.79,-38.55 192.71,-32.85 182.18,-31.74 183.79,-38.55"/>
</g>
</g>
</svg>
