<?xml version="1.0" encoding="UTF-8" standalone="no"?>
<!DOCTYPE svg PUBLIC "-//W3C//DTD SVG 1.1//EN"
 "http://www.w3.org/Graphics/SVG/1.1/DTD/svg11.dtd">
<!-- Generated by graphviz version 12.2.1 (20241206.2353)
 -->
<!-- Title: basic_json::get_binary Pages: 1 -->
<svg width="374pt" height="66pt"
 viewBox="0.00 0.00 374.00 66.00" xmlns="http://www.w3.org/2000/svg" xmlns:xlink="http://www.w3.org/1999/xlink">
<g id="graph0" class="graph" transform="scale(1 1) rotate(0) translate(4 62)">
<title>basic_json::get_binary</title>
<!-- Node1 -->
<g id="node1" class="node">
<title>Node1</title>
<g id="a_node1"><a xlink:title="get a binary value">
<polygon fill="#999999" stroke="#666666" points="113.5,-39 0,-39 0,-19 113.5,-19 113.5,-39"/>
<text text-anchor="middle" x="56.75" y="-25.5" font-family="Helvetica,sans-Serif" font-size="10.00">basic_json::get_binary</text>
</a>
</g>
</g>
<!-- Node2 -->
<g id="node2" class="node">
<title>Node2</title>
<g id="a_node2"><a xlink:href="namespacedetail.html#a266fb3d4bf633ad6c506434cc91164da" target="_top" xlink:title=" ">
<polygon fill="white" stroke="#666666" points="224,-39 149.5,-39 149.5,-19 224,-19 224,-39"/>
<text text-anchor="middle" x="186.75" y="-25.5" font-family="Helvetica,sans-Serif" font-size="10.00">detail::concat</text>
</a>
</g>
</g>
<!-- Node1&#45;&gt;Node2 -->
<g id="edge1" class="edge">
<title>Node1&#45;&gt;Node2</title>
<path fill="none" stroke="#63b8ff" d="M113.89,-29C121.83,-29 129.94,-29 137.71,-29"/>
<polygon fill="#63b8ff" stroke="#63b8ff" points="137.66,-32.5 147.66,-29 137.66,-25.5 137.66,-32.5"/>
</g>
<!-- Node3 -->
<g id="node3" class="node">
<title>Node3</title>
<g id="a_node3"><a xlink:href="namespacedetail.html#a89f967b745cf8df11ba9d59f93d97753" target="_top" xlink:title=" ">
<polygon fill="white" stroke="#666666" points="360.75,-58 265.25,-58 265.25,-38 360.75,-38 360.75,-58"/>
<text text-anchor="middle" x="313" y="-44.5" font-family="Helvetica,sans-Serif" font-size="10.00">detail::concat_into</text>
</a>
</g>
</g>
<!-- Node2&#45;&gt;Node3 -->
<g id="edge2" class="edge">
<title>Node2&#45;&gt;Node3</title>
<path fill="none" stroke="#63b8ff" d="M224.36,-34.6C233.61,-36.01 243.79,-37.57 253.82,-39.1"/>
<polygon fill="#63b8ff" stroke="#63b8ff" points="253.13,-42.54 263.54,-40.59 254.19,-35.62 253.13,-42.54"/>
</g>
<!-- Node4 -->
<g id="node4" class="node">
<title>Node4</title>
<g id="a_node4"><a xlink:href="namespacedetail.html#ac185140ed8c8fcc07a302a890b714b0d" target="_top" xlink:title=" ">
<polygon fill="white" stroke="#666666" points="366,-20 260,-20 260,0 366,0 366,-20"/>
<text text-anchor="middle" x="313" y="-6.5" font-family="Helvetica,sans-Serif" font-size="10.00">detail::concat_length</text>
</a>
</g>
</g>
<!-- Node2&#45;&gt;Node4 -->
<g id="edge3" class="edge">
<title>Node2&#45;&gt;Node4</title>
<path fill="none" stroke="#63b8ff" d="M224.36,-23.4C231.94,-22.24 240.13,-20.99 248.36,-19.73"/>
<polygon fill="#63b8ff" stroke="#63b8ff" points="248.69,-23.22 258.05,-18.25 247.63,-16.3 248.69,-23.22"/>
</g>
</g>
</svg>
