<?xml version="1.0" encoding="UTF-8" standalone="no"?>
<!DOCTYPE svg PUBLIC "-//W3C//DTD SVG 1.1//EN"
 "http://www.w3.org/Graphics/SVG/1.1/DTD/svg11.dtd">
<!-- Generated by graphviz version 12.2.1 (20241206.2353)
 -->
<!-- Title: detail::type_error::create Pages: 1 -->
<svg width="503pt" height="93pt"
 viewBox="0.00 0.00 502.50 93.30" xmlns="http://www.w3.org/2000/svg" xmlns:xlink="http://www.w3.org/1999/xlink">
<g id="graph0" class="graph" transform="scale(1 1) rotate(0) translate(4 89.3)">
<title>detail::type_error::create</title>
<!-- Node1 -->
<g id="node1" class="node">
<title>Node1</title>
<g id="a_node1"><a xlink:title=" ">
<polygon fill="#999999" stroke="#666666" points="88.75,-70 0,-70 0,-38 88.75,-38 88.75,-70"/>
<text text-anchor="start" x="8" y="-56.5" font-family="Helvetica,sans-Serif" font-size="10.00">detail::type_error</text>
<text text-anchor="middle" x="44.38" y="-44.5" font-family="Helvetica,sans-Serif" font-size="10.00">::create</text>
</a>
</g>
</g>
<!-- Node2 -->
<g id="node2" class="node">
<title>Node2</title>
<g id="a_node2"><a xlink:href="namespacedetail.html#a266fb3d4bf633ad6c506434cc91164da" target="_top" xlink:title=" ">
<polygon fill="white" stroke="#666666" points="352.5,-64 278,-64 278,-44 352.5,-44 352.5,-64"/>
<text text-anchor="middle" x="315.25" y="-50.5" font-family="Helvetica,sans-Serif" font-size="10.00">detail::concat</text>
</a>
</g>
</g>
<!-- Node1&#45;&gt;Node2 -->
<g id="edge1" class="edge">
<title>Node1&#45;&gt;Node2</title>
<path fill="none" stroke="#63b8ff" d="M88.89,-70.32C100.39,-73.91 112.9,-77.18 124.75,-79 176.26,-86.92 190.61,-87.64 242,-79 254.7,-76.87 268.14,-72.76 279.95,-68.48"/>
<polygon fill="#63b8ff" stroke="#63b8ff" points="281.18,-71.76 289.28,-64.93 278.69,-65.22 281.18,-71.76"/>
</g>
<!-- Node5 -->
<g id="node5" class="node">
<title>Node5</title>
<g id="a_node5"><a xlink:href="classdetail_1_1exception.html#a6b4a786b5c1c25dd3edaceb1bf2d5120" target="_top" xlink:title=" ">
<polygon fill="white" stroke="#666666" points="230,-70 136.75,-70 136.75,-38 230,-38 230,-70"/>
<text text-anchor="start" x="144.75" y="-56.5" font-family="Helvetica,sans-Serif" font-size="10.00">detail::exception::</text>
<text text-anchor="middle" x="183.38" y="-44.5" font-family="Helvetica,sans-Serif" font-size="10.00">diagnostics</text>
</a>
</g>
</g>
<!-- Node1&#45;&gt;Node5 -->
<g id="edge4" class="edge">
<title>Node1&#45;&gt;Node5</title>
<path fill="none" stroke="#63b8ff" d="M89.1,-54C100.61,-54 113.2,-54 125.31,-54"/>
<polygon fill="#63b8ff" stroke="#63b8ff" points="125.19,-57.5 135.19,-54 125.19,-50.5 125.19,-57.5"/>
</g>
<!-- Node6 -->
<g id="node6" class="node">
<title>Node6</title>
<g id="a_node6"><a xlink:href="classdetail_1_1exception.html#a8f1eb56b9964c8dd84d89d0da98d883b" target="_top" xlink:title=" ">
<polygon fill="white" stroke="#666666" points="242,-20 124.75,-20 124.75,0 242,0 242,-20"/>
<text text-anchor="middle" x="183.38" y="-6.5" font-family="Helvetica,sans-Serif" font-size="10.00">detail::exception::name</text>
</a>
</g>
</g>
<!-- Node1&#45;&gt;Node6 -->
<g id="edge5" class="edge">
<title>Node1&#45;&gt;Node6</title>
<path fill="none" stroke="#63b8ff" d="M89.1,-39.96C105.13,-34.81 123.26,-28.99 139.24,-23.85"/>
<polygon fill="#63b8ff" stroke="#63b8ff" points="140.02,-27.28 148.47,-20.89 137.88,-20.61 140.02,-27.28"/>
</g>
<!-- Node3 -->
<g id="node3" class="node">
<title>Node3</title>
<g id="a_node3"><a xlink:href="namespacedetail.html#a89f967b745cf8df11ba9d59f93d97753" target="_top" xlink:title=" ">
<polygon fill="white" stroke="#666666" points="489.25,-83 393.75,-83 393.75,-63 489.25,-63 489.25,-83"/>
<text text-anchor="middle" x="441.5" y="-69.5" font-family="Helvetica,sans-Serif" font-size="10.00">detail::concat_into</text>
</a>
</g>
</g>
<!-- Node2&#45;&gt;Node3 -->
<g id="edge2" class="edge">
<title>Node2&#45;&gt;Node3</title>
<path fill="none" stroke="#63b8ff" d="M352.86,-59.6C362.11,-61.01 372.29,-62.57 382.32,-64.1"/>
<polygon fill="#63b8ff" stroke="#63b8ff" points="381.63,-67.54 392.04,-65.59 382.69,-60.62 381.63,-67.54"/>
</g>
<!-- Node4 -->
<g id="node4" class="node">
<title>Node4</title>
<g id="a_node4"><a xlink:href="namespacedetail.html#ac185140ed8c8fcc07a302a890b714b0d" target="_top" xlink:title=" ">
<polygon fill="white" stroke="#666666" points="494.5,-45 388.5,-45 388.5,-25 494.5,-25 494.5,-45"/>
<text text-anchor="middle" x="441.5" y="-31.5" font-family="Helvetica,sans-Serif" font-size="10.00">detail::concat_length</text>
</a>
</g>
</g>
<!-- Node2&#45;&gt;Node4 -->
<g id="edge3" class="edge">
<title>Node2&#45;&gt;Node4</title>
<path fill="none" stroke="#63b8ff" d="M352.86,-48.4C360.44,-47.24 368.63,-45.99 376.86,-44.73"/>
<polygon fill="#63b8ff" stroke="#63b8ff" points="377.19,-48.22 386.55,-43.25 376.13,-41.3 377.19,-48.22"/>
</g>
<!-- Node6&#45;&gt;Node2 -->
<g id="edge6" class="edge">
<title>Node6&#45;&gt;Node2</title>
<path fill="none" stroke="#63b8ff" d="M216.41,-20.47C224.75,-23.22 233.72,-26.2 242,-29 252.25,-32.46 263.3,-36.26 273.6,-39.82"/>
<polygon fill="#63b8ff" stroke="#63b8ff" points="272.38,-43.1 282.97,-43.07 274.67,-36.48 272.38,-43.1"/>
</g>
</g>
</svg>
