<?xml version="1.0" encoding="UTF-8" standalone="no"?>
<!DOCTYPE svg PUBLIC "-//W3C//DTD SVG 1.1//EN"
 "http://www.w3.org/Graphics/SVG/1.1/DTD/svg11.dtd">
<!-- Generated by graphviz version 12.2.1 (20241206.2353)
 -->
<!-- Title: basic_json::emplace Pages: 1 -->
<svg width="366pt" height="66pt"
 viewBox="0.00 0.00 365.75 66.00" xmlns="http://www.w3.org/2000/svg" xmlns:xlink="http://www.w3.org/1999/xlink">
<g id="graph0" class="graph" transform="scale(1 1) rotate(0) translate(4 62)">
<title>basic_json::emplace</title>
<!-- Node1 -->
<g id="node1" class="node">
<title>Node1</title>
<g id="a_node1"><a xlink:title="add an object to an object if key does not exist">
<polygon fill="#999999" stroke="#666666" points="105.25,-39 0,-39 0,-19 105.25,-19 105.25,-39"/>
<text text-anchor="middle" x="52.62" y="-25.5" font-family="Helvetica,sans-Serif" font-size="10.00">basic_json::emplace</text>
</a>
</g>
</g>
<!-- Node2 -->
<g id="node2" class="node">
<title>Node2</title>
<g id="a_node2"><a xlink:href="namespacedetail.html#a266fb3d4bf633ad6c506434cc91164da" target="_top" xlink:title=" ">
<polygon fill="white" stroke="#666666" points="215.75,-39 141.25,-39 141.25,-19 215.75,-19 215.75,-39"/>
<text text-anchor="middle" x="178.5" y="-25.5" font-family="Helvetica,sans-Serif" font-size="10.00">detail::concat</text>
</a>
</g>
</g>
<!-- Node1&#45;&gt;Node2 -->
<g id="edge1" class="edge">
<title>Node1&#45;&gt;Node2</title>
<path fill="none" stroke="#63b8ff" d="M105.44,-29C113.46,-29 121.71,-29 129.64,-29"/>
<polygon fill="#63b8ff" stroke="#63b8ff" points="129.44,-32.5 139.44,-29 129.44,-25.5 129.44,-32.5"/>
</g>
<!-- Node3 -->
<g id="node3" class="node">
<title>Node3</title>
<g id="a_node3"><a xlink:href="namespacedetail.html#a89f967b745cf8df11ba9d59f93d97753" target="_top" xlink:title=" ">
<polygon fill="white" stroke="#666666" points="352.5,-58 257,-58 257,-38 352.5,-38 352.5,-58"/>
<text text-anchor="middle" x="304.75" y="-44.5" font-family="Helvetica,sans-Serif" font-size="10.00">detail::concat_into</text>
</a>
</g>
</g>
<!-- Node2&#45;&gt;Node3 -->
<g id="edge2" class="edge">
<title>Node2&#45;&gt;Node3</title>
<path fill="none" stroke="#63b8ff" d="M216.11,-34.6C225.36,-36.01 235.54,-37.57 245.57,-39.1"/>
<polygon fill="#63b8ff" stroke="#63b8ff" points="244.88,-42.54 255.29,-40.59 245.94,-35.62 244.88,-42.54"/>
</g>
<!-- Node4 -->
<g id="node4" class="node">
<title>Node4</title>
<g id="a_node4"><a xlink:href="namespacedetail.html#ac185140ed8c8fcc07a302a890b714b0d" target="_top" xlink:title=" ">
<polygon fill="white" stroke="#666666" points="357.75,-20 251.75,-20 251.75,0 357.75,0 357.75,-20"/>
<text text-anchor="middle" x="304.75" y="-6.5" font-family="Helvetica,sans-Serif" font-size="10.00">detail::concat_length</text>
</a>
</g>
</g>
<!-- Node2&#45;&gt;Node4 -->
<g id="edge3" class="edge">
<title>Node2&#45;&gt;Node4</title>
<path fill="none" stroke="#63b8ff" d="M216.11,-23.4C223.69,-22.24 231.88,-20.99 240.11,-19.73"/>
<polygon fill="#63b8ff" stroke="#63b8ff" points="240.44,-23.22 249.8,-18.25 239.38,-16.3 240.44,-23.22"/>
</g>
</g>
</svg>
