<?xml version="1.0" encoding="UTF-8" standalone="no"?>
<!DOCTYPE svg PUBLIC "-//W3C//DTD SVG 1.1//EN"
 "http://www.w3.org/Graphics/SVG/1.1/DTD/svg11.dtd">
<!-- Generated by graphviz version 12.2.1 (20241206.2353)
 -->
<!-- Title: StageManager::advanceToNextStage Pages: 1 -->
<svg width="495pt" height="40pt"
 viewBox="0.00 0.00 494.75 40.00" xmlns="http://www.w3.org/2000/svg" xmlns:xlink="http://www.w3.org/1999/xlink">
<g id="graph0" class="graph" transform="scale(1 1) rotate(0) translate(4 36)">
<title>StageManager::advanceToNextStage</title>
<!-- Node1 -->
<g id="node1" class="node">
<title>Node1</title>
<g id="a_node1"><a xlink:title=" ">
<polygon fill="#999999" stroke="#666666" points="153.25,-32 0,-32 0,0 153.25,0 153.25,-32"/>
<text text-anchor="start" x="8" y="-18.5" font-family="Helvetica,sans-Serif" font-size="10.00">StageManager::advanceToNext</text>
<text text-anchor="middle" x="76.62" y="-6.5" font-family="Helvetica,sans-Serif" font-size="10.00">Stage</text>
</a>
</g>
</g>
<!-- Node2 -->
<g id="node2" class="node">
<title>Node2</title>
<g id="a_node2"><a xlink:href="classStageManager.html#aa791077a0a66151f565eb33fbe43a7bd" target="_top" xlink:title=" ">
<polygon fill="white" stroke="#666666" points="320,-32 189.25,-32 189.25,0 320,0 320,-32"/>
<text text-anchor="start" x="197.25" y="-18.5" font-family="Helvetica,sans-Serif" font-size="10.00">StageManager::getCurrent</text>
<text text-anchor="middle" x="254.62" y="-6.5" font-family="Helvetica,sans-Serif" font-size="10.00">StageName</text>
</a>
</g>
</g>
<!-- Node1&#45;&gt;Node2 -->
<g id="edge1" class="edge">
<title>Node1&#45;&gt;Node2</title>
<path fill="none" stroke="#63b8ff" d="M153.54,-16C161.48,-16 169.55,-16 177.49,-16"/>
<polygon fill="#63b8ff" stroke="#63b8ff" points="177.49,-19.5 187.49,-16 177.49,-12.5 177.49,-19.5"/>
</g>
<!-- Node3 -->
<g id="node3" class="node">
<title>Node3</title>
<g id="a_node3"><a xlink:href="classStageManager.html#ae2213154056ba26e326de04c69a962d8" target="_top" xlink:title=" ">
<polygon fill="white" stroke="#666666" points="486.75,-32 356,-32 356,0 486.75,0 486.75,-32"/>
<text text-anchor="start" x="364" y="-18.5" font-family="Helvetica,sans-Serif" font-size="10.00">StageManager::getCurrent</text>
<text text-anchor="middle" x="421.38" y="-6.5" font-family="Helvetica,sans-Serif" font-size="10.00">StageData</text>
</a>
</g>
</g>
<!-- Node2&#45;&gt;Node3 -->
<g id="edge2" class="edge">
<title>Node2&#45;&gt;Node3</title>
<path fill="none" stroke="#63b8ff" d="M320.27,-16C328.17,-16 336.3,-16 344.35,-16"/>
<polygon fill="#63b8ff" stroke="#63b8ff" points="344.14,-19.5 354.14,-16 344.14,-12.5 344.14,-19.5"/>
</g>
</g>
</svg>
