<?xml version="1.0" encoding="UTF-8" standalone="no"?>
<!DOCTYPE svg PUBLIC "-//W3C//DTD SVG 1.1//EN"
 "http://www.w3.org/Graphics/SVG/1.1/DTD/svg11.dtd">
<!-- Generated by graphviz version 12.2.1 (20241206.2353)
 -->
<!-- Title: basic_json::end Pages: 1 -->
<svg width="385pt" height="142pt"
 viewBox="0.00 0.00 385.25 142.00" xmlns="http://www.w3.org/2000/svg" xmlns:xlink="http://www.w3.org/1999/xlink">
<g id="graph0" class="graph" transform="scale(1 1) rotate(0) translate(4 138)">
<title>basic_json::end</title>
<!-- Node1 -->
<g id="node1" class="node">
<title>Node1</title>
<g id="a_node1"><a xlink:title="returns an iterator to one past the last element">
<polygon fill="#999999" stroke="#666666" points="377.25,-77 293,-77 293,-57 377.25,-57 377.25,-77"/>
<text text-anchor="middle" x="335.12" y="-63.5" font-family="Helvetica,sans-Serif" font-size="10.00">basic_json::end</text>
</a>
</g>
</g>
<!-- Node2 -->
<g id="node2" class="node">
<title>Node2</title>
<g id="a_node2"><a xlink:href="classbasic__json.html#a940e724a2e8d5400ab772eb22af0387c" target="_top" xlink:title="creates a diff as a JSON patch">
<polygon fill="white" stroke="#666666" points="233.75,-134 151.75,-134 151.75,-114 233.75,-114 233.75,-134"/>
<text text-anchor="middle" x="192.75" y="-120.5" font-family="Helvetica,sans-Serif" font-size="10.00">basic_json::diff</text>
</a>
</g>
</g>
<!-- Node1&#45;&gt;Node2 -->
<g id="edge1" class="edge">
<title>Node1&#45;&gt;Node2</title>
<path fill="none" stroke="#63b8ff" d="M305.03,-82.76C290.8,-90.1 273.27,-98.6 257,-105 249.1,-108.11 240.49,-111 232.23,-113.55"/>
<polygon fill="#63b8ff" stroke="#63b8ff" points="306.62,-85.88 313.85,-78.13 303.37,-79.68 306.62,-85.88"/>
</g>
<!-- Node3 -->
<g id="node3" class="node">
<title>Node3</title>
<g id="a_node3"><a xlink:href="classbasic__json.html#a8676ac2433fe299b8d420f00a0741395" target="_top" xlink:title="applies a JSON Merge Patch">
<polygon fill="white" stroke="#666666" points="255.12,-96 130.38,-96 130.38,-76 255.12,-76 255.12,-96"/>
<text text-anchor="middle" x="192.75" y="-82.5" font-family="Helvetica,sans-Serif" font-size="10.00">basic_json::merge_patch</text>
</a>
</g>
</g>
<!-- Node1&#45;&gt;Node3 -->
<g id="edge2" class="edge">
<title>Node1&#45;&gt;Node3</title>
<path fill="none" stroke="#63b8ff" d="M281.44,-74.13C272.94,-75.28 264.06,-76.48 255.37,-77.66"/>
<polygon fill="#63b8ff" stroke="#63b8ff" points="281.83,-77.61 291.27,-72.8 280.89,-70.67 281.83,-77.61"/>
</g>
<!-- Node4 -->
<g id="node4" class="node">
<title>Node4</title>
<g id="a_node4"><a xlink:href="classbasic__json.html#a693812b31e106dec9166e93d8f6dd7d7" target="_top" xlink:title="applies a JSON patch in&#45;place without copying the object">
<polygon fill="white" stroke="#666666" points="257,-58 128.5,-58 128.5,-38 257,-38 257,-58"/>
<text text-anchor="middle" x="192.75" y="-44.5" font-family="Helvetica,sans-Serif" font-size="10.00">basic_json::patch_inplace</text>
</a>
</g>
</g>
<!-- Node1&#45;&gt;Node4 -->
<g id="edge3" class="edge">
<title>Node1&#45;&gt;Node4</title>
<path fill="none" stroke="#63b8ff" d="M281.54,-59.88C273.68,-58.82 265.51,-57.71 257.46,-56.62"/>
<polygon fill="#63b8ff" stroke="#63b8ff" points="280.89,-63.33 291.27,-61.2 281.83,-56.39 280.89,-63.33"/>
</g>
<!-- Node6 -->
<g id="node6" class="node">
<title>Node6</title>
<g id="a_node6"><a xlink:href="classbasic__json.html#a3819f393e82396782ccc22785575b01d" target="_top" xlink:title="updates a JSON object from another object, overwriting existing keys">
<polygon fill="white" stroke="#666666" points="241.62,-20 143.88,-20 143.88,0 241.62,0 241.62,-20"/>
<text text-anchor="middle" x="192.75" y="-6.5" font-family="Helvetica,sans-Serif" font-size="10.00">basic_json::update</text>
</a>
</g>
</g>
<!-- Node1&#45;&gt;Node6 -->
<g id="edge5" class="edge">
<title>Node1&#45;&gt;Node6</title>
<path fill="none" stroke="#63b8ff" d="M305.03,-51.24C290.8,-43.9 273.27,-35.4 257,-29 249.1,-25.89 240.49,-23 232.23,-20.45"/>
<polygon fill="#63b8ff" stroke="#63b8ff" points="303.37,-54.32 313.85,-55.87 306.62,-48.12 303.37,-54.32"/>
</g>
<!-- Node5 -->
<g id="node5" class="node">
<title>Node5</title>
<g id="a_node5"><a xlink:href="classbasic__json.html#a145a004c0a2fa5be84b260ecc98ab5d9" target="_top" xlink:title="applies a JSON patch to a copy of the current object">
<polygon fill="white" stroke="#666666" points="92.5,-58 0,-58 0,-38 92.5,-38 92.5,-58"/>
<text text-anchor="middle" x="46.25" y="-44.5" font-family="Helvetica,sans-Serif" font-size="10.00">basic_json::patch</text>
</a>
</g>
</g>
<!-- Node4&#45;&gt;Node5 -->
<g id="edge4" class="edge">
<title>Node4&#45;&gt;Node5</title>
<path fill="none" stroke="#63b8ff" d="M117.08,-48C108.79,-48 100.55,-48 92.78,-48"/>
<polygon fill="#63b8ff" stroke="#63b8ff" points="116.86,-51.5 126.86,-48 116.86,-44.5 116.86,-51.5"/>
</g>
</g>
</svg>
