<?xml version="1.0" encoding="UTF-8" standalone="no"?>
<!DOCTYPE svg PUBLIC "-//W3C//DTD SVG 1.1//EN"
 "http://www.w3.org/Graphics/SVG/1.1/DTD/svg11.dtd">
<!-- Generated by graphviz version 12.2.1 (20241206.2353)
 -->
<!-- Title: detail::invalid_iterator::create Pages: 1 -->
<svg width="522pt" height="93pt"
 viewBox="0.00 0.00 522.00 93.10" xmlns="http://www.w3.org/2000/svg" xmlns:xlink="http://www.w3.org/1999/xlink">
<g id="graph0" class="graph" transform="scale(1 1) rotate(0) translate(4 89.1)">
<title>detail::invalid_iterator::create</title>
<!-- Node1 -->
<g id="node1" class="node">
<title>Node1</title>
<g id="a_node1"><a xlink:title=" ">
<polygon fill="#999999" stroke="#666666" points="108.25,-70 0,-70 0,-38 108.25,-38 108.25,-70"/>
<text text-anchor="start" x="8" y="-56.5" font-family="Helvetica,sans-Serif" font-size="10.00">detail::invalid_iterator</text>
<text text-anchor="middle" x="54.12" y="-44.5" font-family="Helvetica,sans-Serif" font-size="10.00">::create</text>
</a>
</g>
</g>
<!-- Node2 -->
<g id="node2" class="node">
<title>Node2</title>
<g id="a_node2"><a xlink:href="namespacedetail.html#a266fb3d4bf633ad6c506434cc91164da" target="_top" xlink:title=" ">
<polygon fill="white" stroke="#666666" points="372,-64 297.5,-64 297.5,-44 372,-44 372,-64"/>
<text text-anchor="middle" x="334.75" y="-50.5" font-family="Helvetica,sans-Serif" font-size="10.00">detail::concat</text>
</a>
</g>
</g>
<!-- Node1&#45;&gt;Node2 -->
<g id="edge1" class="edge">
<title>Node1&#45;&gt;Node2</title>
<path fill="none" stroke="#63b8ff" d="M104.58,-70.46C117.36,-73.99 131.2,-77.2 144.25,-79 195.87,-86.1 210.11,-87.64 261.5,-79 274.2,-76.87 287.64,-72.76 299.45,-68.48"/>
<polygon fill="#63b8ff" stroke="#63b8ff" points="300.68,-71.76 308.78,-64.93 298.19,-65.22 300.68,-71.76"/>
</g>
<!-- Node5 -->
<g id="node5" class="node">
<title>Node5</title>
<g id="a_node5"><a xlink:href="classdetail_1_1exception.html#a6b4a786b5c1c25dd3edaceb1bf2d5120" target="_top" xlink:title=" ">
<polygon fill="white" stroke="#666666" points="249.5,-70 156.25,-70 156.25,-38 249.5,-38 249.5,-70"/>
<text text-anchor="start" x="164.25" y="-56.5" font-family="Helvetica,sans-Serif" font-size="10.00">detail::exception::</text>
<text text-anchor="middle" x="202.88" y="-44.5" font-family="Helvetica,sans-Serif" font-size="10.00">diagnostics</text>
</a>
</g>
</g>
<!-- Node1&#45;&gt;Node5 -->
<g id="edge4" class="edge">
<title>Node1&#45;&gt;Node5</title>
<path fill="none" stroke="#63b8ff" d="M108.52,-54C120.32,-54 132.87,-54 144.81,-54"/>
<polygon fill="#63b8ff" stroke="#63b8ff" points="144.51,-57.5 154.51,-54 144.51,-50.5 144.51,-57.5"/>
</g>
<!-- Node6 -->
<g id="node6" class="node">
<title>Node6</title>
<g id="a_node6"><a xlink:href="classdetail_1_1exception.html#a8f1eb56b9964c8dd84d89d0da98d883b" target="_top" xlink:title=" ">
<polygon fill="white" stroke="#666666" points="261.5,-20 144.25,-20 144.25,0 261.5,0 261.5,-20"/>
<text text-anchor="middle" x="202.88" y="-6.5" font-family="Helvetica,sans-Serif" font-size="10.00">detail::exception::name</text>
</a>
</g>
</g>
<!-- Node1&#45;&gt;Node6 -->
<g id="edge5" class="edge">
<title>Node1&#45;&gt;Node6</title>
<path fill="none" stroke="#63b8ff" d="M108.52,-37.99C124.22,-33.28 141.23,-28.18 156.38,-23.64"/>
<polygon fill="#63b8ff" stroke="#63b8ff" points="157.02,-27.1 165.59,-20.88 155.01,-20.4 157.02,-27.1"/>
</g>
<!-- Node3 -->
<g id="node3" class="node">
<title>Node3</title>
<g id="a_node3"><a xlink:href="namespacedetail.html#a89f967b745cf8df11ba9d59f93d97753" target="_top" xlink:title=" ">
<polygon fill="white" stroke="#666666" points="508.75,-83 413.25,-83 413.25,-63 508.75,-63 508.75,-83"/>
<text text-anchor="middle" x="461" y="-69.5" font-family="Helvetica,sans-Serif" font-size="10.00">detail::concat_into</text>
</a>
</g>
</g>
<!-- Node2&#45;&gt;Node3 -->
<g id="edge2" class="edge">
<title>Node2&#45;&gt;Node3</title>
<path fill="none" stroke="#63b8ff" d="M372.36,-59.6C381.61,-61.01 391.79,-62.57 401.82,-64.1"/>
<polygon fill="#63b8ff" stroke="#63b8ff" points="401.13,-67.54 411.54,-65.59 402.19,-60.62 401.13,-67.54"/>
</g>
<!-- Node4 -->
<g id="node4" class="node">
<title>Node4</title>
<g id="a_node4"><a xlink:href="namespacedetail.html#ac185140ed8c8fcc07a302a890b714b0d" target="_top" xlink:title=" ">
<polygon fill="white" stroke="#666666" points="514,-45 408,-45 408,-25 514,-25 514,-45"/>
<text text-anchor="middle" x="461" y="-31.5" font-family="Helvetica,sans-Serif" font-size="10.00">detail::concat_length</text>
</a>
</g>
</g>
<!-- Node2&#45;&gt;Node4 -->
<g id="edge3" class="edge">
<title>Node2&#45;&gt;Node4</title>
<path fill="none" stroke="#63b8ff" d="M372.36,-48.4C379.94,-47.24 388.13,-45.99 396.36,-44.73"/>
<polygon fill="#63b8ff" stroke="#63b8ff" points="396.69,-48.22 406.05,-43.25 395.63,-41.3 396.69,-48.22"/>
</g>
<!-- Node6&#45;&gt;Node2 -->
<g id="edge6" class="edge">
<title>Node6&#45;&gt;Node2</title>
<path fill="none" stroke="#63b8ff" d="M235.91,-20.47C244.25,-23.22 253.22,-26.2 261.5,-29 271.75,-32.46 282.8,-36.26 293.1,-39.82"/>
<polygon fill="#63b8ff" stroke="#63b8ff" points="291.88,-43.1 302.47,-43.07 294.17,-36.48 291.88,-43.1"/>
</g>
</g>
</svg>
