<?xml version="1.0" encoding="UTF-8" standalone="no"?>
<!DOCTYPE svg PUBLIC "-//W3C//DTD SVG 1.1//EN"
 "http://www.w3.org/Graphics/SVG/1.1/DTD/svg11.dtd">
<!-- Generated by graphviz version 12.2.1 (20241206.2353)
 -->
<!-- Title: LexiconManager::areWordsRelated Pages: 1 -->
<svg width="505pt" height="40pt"
 viewBox="0.00 0.00 505.25 40.00" xmlns="http://www.w3.org/2000/svg" xmlns:xlink="http://www.w3.org/1999/xlink">
<g id="graph0" class="graph" transform="scale(1 1) rotate(0) translate(4 36)">
<title>LexiconManager::areWordsRelated</title>
<!-- Node1 -->
<g id="node1" class="node">
<title>Node1</title>
<g id="a_node1"><a xlink:title=" ">
<polygon fill="#999999" stroke="#666666" points="134.5,-32 0,-32 0,0 134.5,0 134.5,-32"/>
<text text-anchor="start" x="8" y="-18.5" font-family="Helvetica,sans-Serif" font-size="10.00">LexiconManager::areWords</text>
<text text-anchor="middle" x="67.25" y="-6.5" font-family="Helvetica,sans-Serif" font-size="10.00">Related</text>
</a>
</g>
</g>
<!-- Node2 -->
<g id="node2" class="node">
<title>Node2</title>
<g id="a_node2"><a xlink:href="classLexiconManager.html#a222afdedae83a4625513fa2e9367dac9" target="_top" xlink:title=" ">
<polygon fill="white" stroke="#666666" points="311,-32 170.5,-32 170.5,0 311,0 311,-32"/>
<text text-anchor="start" x="178.5" y="-18.5" font-family="Helvetica,sans-Serif" font-size="10.00">LexiconManager::getRelated</text>
<text text-anchor="middle" x="240.75" y="-6.5" font-family="Helvetica,sans-Serif" font-size="10.00">Words</text>
</a>
</g>
</g>
<!-- Node1&#45;&gt;Node2 -->
<g id="edge1" class="edge">
<title>Node1&#45;&gt;Node2</title>
<path fill="none" stroke="#63b8ff" d="M134.56,-16C142.5,-16 150.68,-16 158.8,-16"/>
<polygon fill="#63b8ff" stroke="#63b8ff" points="158.7,-19.5 168.7,-16 158.7,-12.5 158.7,-19.5"/>
</g>
<!-- Node3 -->
<g id="node3" class="node">
<title>Node3</title>
<g id="a_node3"><a xlink:href="classLexiconManager.html#a0b508c6b761e75f3d4b1751e3e691b7c" target="_top" xlink:title=" ">
<polygon fill="white" stroke="#666666" points="497.25,-26 347,-26 347,-6 497.25,-6 497.25,-26"/>
<text text-anchor="middle" x="422.12" y="-12.5" font-family="Helvetica,sans-Serif" font-size="10.00">LexiconManager::getWordData</text>
</a>
</g>
</g>
<!-- Node2&#45;&gt;Node3 -->
<g id="edge2" class="edge">
<title>Node2&#45;&gt;Node3</title>
<path fill="none" stroke="#63b8ff" d="M311.36,-16C319.19,-16 327.24,-16 335.24,-16"/>
<polygon fill="#63b8ff" stroke="#63b8ff" points="334.99,-19.5 344.99,-16 334.99,-12.5 334.99,-19.5"/>
</g>
</g>
</svg>
