<?xml version="1.0" encoding="UTF-8" standalone="no"?>
<!DOCTYPE svg PUBLIC "-//W3C//DTD SVG 1.1//EN"
 "http://www.w3.org/Graphics/SVG/1.1/DTD/svg11.dtd">
<!-- Generated by graphviz version 12.2.1 (20241206.2353)
 -->
<!-- Title: SceneCombat::SceneCombat Pages: 1 -->
<svg width="499pt" height="128pt"
 viewBox="0.00 0.00 498.50 128.00" xmlns="http://www.w3.org/2000/svg" xmlns:xlink="http://www.w3.org/1999/xlink">
<g id="graph0" class="graph" transform="scale(1 1) rotate(0) translate(4 124)">
<title>SceneCombat::SceneCombat</title>
<!-- Node1 -->
<g id="node1" class="node">
<title>Node1</title>
<g id="a_node1"><a xlink:title=" ">
<polygon fill="#999999" stroke="#666666" points="146.5,-64 0,-64 0,-44 146.5,-44 146.5,-64"/>
<text text-anchor="middle" x="73.25" y="-50.5" font-family="Helvetica,sans-Serif" font-size="10.00">SceneCombat::SceneCombat</text>
</a>
</g>
</g>
<!-- Node2 -->
<g id="node2" class="node">
<title>Node2</title>
<g id="a_node2"><a xlink:href="classSceneCombat.html#ae2d70c8aaf0342c04a50623fc5839b3d" target="_top" xlink:title=" ">
<polygon fill="white" stroke="#666666" points="279.5,-64 182.5,-64 182.5,-44 279.5,-44 279.5,-64"/>
<text text-anchor="middle" x="231" y="-50.5" font-family="Helvetica,sans-Serif" font-size="10.00">SceneCombat::init</text>
</a>
</g>
</g>
<!-- Node1&#45;&gt;Node2 -->
<g id="edge1" class="edge">
<title>Node1&#45;&gt;Node2</title>
<path fill="none" stroke="#63b8ff" d="M146.65,-54C154.77,-54 162.96,-54 170.88,-54"/>
<polygon fill="#63b8ff" stroke="#63b8ff" points="170.72,-57.5 180.72,-54 170.72,-50.5 170.72,-57.5"/>
</g>
<!-- Node3 -->
<g id="node3" class="node">
<title>Node3</title>
<g id="a_node3"><a xlink:href="classSceneCombat.html#aed515cf302c3f9f5dab23b2597ddc086" target="_top" xlink:title=" ">
<polygon fill="white" stroke="#666666" points="478.88,-120 327.12,-120 327.12,-88 478.88,-88 478.88,-120"/>
<text text-anchor="start" x="335.12" y="-106.5" font-family="Helvetica,sans-Serif" font-size="10.00">SceneCombat::sGenerateWord</text>
<text text-anchor="middle" x="403" y="-94.5" font-family="Helvetica,sans-Serif" font-size="10.00">Challenge</text>
</a>
</g>
</g>
<!-- Node2&#45;&gt;Node3 -->
<g id="edge2" class="edge">
<title>Node2&#45;&gt;Node3</title>
<path fill="none" stroke="#63b8ff" d="M266.51,-64.41C281.55,-68.93 299.39,-74.26 315.5,-79 321.4,-80.74 327.54,-82.53 333.69,-84.32"/>
<polygon fill="#63b8ff" stroke="#63b8ff" points="332.71,-87.68 343.29,-87.11 334.67,-80.96 332.71,-87.68"/>
</g>
<!-- Node4 -->
<g id="node4" class="node">
<title>Node4</title>
<g id="a_node4"><a xlink:href="classSceneCombat.html#ab3b1c676a3b2399dc7ce5c0c3bb5da6a" target="_top" xlink:title=" ">
<polygon fill="white" stroke="#666666" points="478.88,-70 327.12,-70 327.12,-38 478.88,-38 478.88,-70"/>
<text text-anchor="start" x="335.12" y="-56.5" font-family="Helvetica,sans-Serif" font-size="10.00">SceneCombat::sLoadSemantic</text>
<text text-anchor="middle" x="403" y="-44.5" font-family="Helvetica,sans-Serif" font-size="10.00">Relations</text>
</a>
</g>
</g>
<!-- Node2&#45;&gt;Node4 -->
<g id="edge3" class="edge">
<title>Node2&#45;&gt;Node4</title>
<path fill="none" stroke="#63b8ff" d="M279.81,-54C291.01,-54 303.29,-54 315.6,-54"/>
<polygon fill="#63b8ff" stroke="#63b8ff" points="315.38,-57.5 325.38,-54 315.38,-50.5 315.38,-57.5"/>
</g>
<!-- Node5 -->
<g id="node5" class="node">
<title>Node5</title>
<g id="a_node5"><a xlink:href="classSceneCombat.html#a2a2b228f2bf649ca460cbe33db05c394" target="_top" xlink:title=" ">
<polygon fill="white" stroke="#666666" points="490.5,-20 315.5,-20 315.5,0 490.5,0 490.5,-20"/>
<text text-anchor="middle" x="403" y="-6.5" font-family="Helvetica,sans-Serif" font-size="10.00">SceneCombat::sLoadWordDatabase</text>
</a>
</g>
</g>
<!-- Node2&#45;&gt;Node5 -->
<g id="edge4" class="edge">
<title>Node2&#45;&gt;Node5</title>
<path fill="none" stroke="#63b8ff" d="M264.76,-43.58C280.09,-38.85 298.65,-33.37 315.5,-29 323.57,-26.91 332.11,-24.85 340.54,-22.9"/>
<polygon fill="#63b8ff" stroke="#63b8ff" points="341.08,-26.37 350.06,-20.75 339.53,-19.55 341.08,-26.37"/>
</g>
</g>
</svg>
