<?xml version="1.0" encoding="UTF-8" standalone="no"?>
<!DOCTYPE svg PUBLIC "-//W3C//DTD SVG 1.1//EN"
 "http://www.w3.org/Graphics/SVG/1.1/DTD/svg11.dtd">
<!-- Generated by graphviz version 12.2.1 (20241206.2353)
 -->
<!-- Title: SceneCombat::sEndCombat Pages: 1 -->
<svg width="507pt" height="78pt"
 viewBox="0.00 0.00 506.75 78.00" xmlns="http://www.w3.org/2000/svg" xmlns:xlink="http://www.w3.org/1999/xlink">
<g id="graph0" class="graph" transform="scale(1 1) rotate(0) translate(4 74)">
<title>SceneCombat::sEndCombat</title>
<!-- Node1 -->
<g id="node1" class="node">
<title>Node1</title>
<g id="a_node1"><a xlink:title=" ">
<polygon fill="#999999" stroke="#666666" points="498.75,-48 357.5,-48 357.5,-28 498.75,-28 498.75,-48"/>
<text text-anchor="middle" x="428.12" y="-34.5" font-family="Helvetica,sans-Serif" font-size="10.00">SceneCombat::sEndCombat</text>
</a>
</g>
</g>
<!-- Node2 -->
<g id="node2" class="node">
<title>Node2</title>
<g id="a_node2"><a xlink:href="classSceneCombat.html#aa06cefcde7733735ed69989f0eac95fb" target="_top" xlink:title=" ">
<polygon fill="white" stroke="#666666" points="321.5,-70 166,-70 166,-50 321.5,-50 321.5,-70"/>
<text text-anchor="middle" x="243.75" y="-56.5" font-family="Helvetica,sans-Serif" font-size="10.00">SceneCombat::sCombatUpdate</text>
</a>
</g>
</g>
<!-- Node1&#45;&gt;Node2 -->
<g id="edge1" class="edge">
<title>Node1&#45;&gt;Node2</title>
<path fill="none" stroke="#63b8ff" d="M345.91,-47.8C337.91,-48.76 329.8,-49.74 321.84,-50.7"/>
<polygon fill="#63b8ff" stroke="#63b8ff" points="346.12,-51.3 355.63,-46.62 345.29,-44.35 346.12,-51.3"/>
</g>
<!-- Node4 -->
<g id="node4" class="node">
<title>Node4</title>
<g id="a_node4"><a xlink:href="classSceneCombat.html#a0fed287dccccef9e9431e9085899ae38" target="_top" xlink:title=" ">
<polygon fill="white" stroke="#666666" points="320.38,-32 167.12,-32 167.12,0 320.38,0 320.38,-32"/>
<text text-anchor="start" x="175.12" y="-18.5" font-family="Helvetica,sans-Serif" font-size="10.00">SceneCombat::sProcessPlayer</text>
<text text-anchor="middle" x="243.75" y="-6.5" font-family="Helvetica,sans-Serif" font-size="10.00">Answer</text>
</a>
</g>
</g>
<!-- Node1&#45;&gt;Node4 -->
<g id="edge3" class="edge">
<title>Node1&#45;&gt;Node4</title>
<path fill="none" stroke="#63b8ff" d="M345.81,-28.19C337.43,-27.18 328.93,-26.16 320.62,-25.15"/>
<polygon fill="#63b8ff" stroke="#63b8ff" points="345.29,-31.65 355.63,-29.38 346.12,-24.7 345.29,-31.65"/>
</g>
<!-- Node3 -->
<g id="node3" class="node">
<title>Node3</title>
<g id="a_node3"><a xlink:href="classSceneCombat.html#a886a09ed8afb275de6df2383a242783c" target="_top" xlink:title=" ">
<polygon fill="white" stroke="#666666" points="121.75,-70 8.25,-70 8.25,-50 121.75,-50 121.75,-70"/>
<text text-anchor="middle" x="65" y="-56.5" font-family="Helvetica,sans-Serif" font-size="10.00">SceneCombat::update</text>
</a>
</g>
</g>
<!-- Node2&#45;&gt;Node3 -->
<g id="edge2" class="edge">
<title>Node2&#45;&gt;Node3</title>
<path fill="none" stroke="#63b8ff" d="M154.31,-60C143.32,-60 132.34,-60 122.03,-60"/>
<polygon fill="#63b8ff" stroke="#63b8ff" points="154.23,-63.5 164.23,-60 154.23,-56.5 154.23,-63.5"/>
</g>
<!-- Node5 -->
<g id="node5" class="node">
<title>Node5</title>
<g id="a_node5"><a xlink:href="classSceneCombat.html#a37f6cbef92fa92fc1532dafd265aefc5" target="_top" xlink:title=" ">
<polygon fill="white" stroke="#666666" points="130,-26 0,-26 0,-6 130,-6 130,-26"/>
<text text-anchor="middle" x="65" y="-12.5" font-family="Helvetica,sans-Serif" font-size="10.00">SceneCombat::sDoAction</text>
</a>
</g>
</g>
<!-- Node4&#45;&gt;Node5 -->
<g id="edge4" class="edge">
<title>Node4&#45;&gt;Node5</title>
<path fill="none" stroke="#63b8ff" d="M155.3,-16C146.86,-16 138.41,-16 130.26,-16"/>
<polygon fill="#63b8ff" stroke="#63b8ff" points="155.25,-19.5 165.25,-16 155.25,-12.5 155.25,-19.5"/>
</g>
</g>
</svg>
