<?xml version="1.0" encoding="UTF-8" standalone="no"?>
<!DOCTYPE svg PUBLIC "-//W3C//DTD SVG 1.1//EN"
 "http://www.w3.org/Graphics/SVG/1.1/DTD/svg11.dtd">
<!-- Generated by graphviz version 12.2.1 (20241206.2353)
 -->
<!-- Title: TurnManager::processTurnEnd Pages: 1 -->
<svg width="816pt" height="134pt"
 viewBox="0.00 0.00 816.25 134.00" xmlns="http://www.w3.org/2000/svg" xmlns:xlink="http://www.w3.org/1999/xlink">
<g id="graph0" class="graph" transform="scale(1 1) rotate(0) translate(4 130)">
<title>TurnManager::processTurnEnd</title>
<!-- Node1 -->
<g id="node1" class="node">
<title>Node1</title>
<g id="a_node1"><a xlink:title=" ">
<polygon fill="#999999" stroke="#666666" points="150.25,-48 0,-48 0,-28 150.25,-28 150.25,-48"/>
<text text-anchor="middle" x="75.12" y="-34.5" font-family="Helvetica,sans-Serif" font-size="10.00">TurnManager::processTurnEnd</text>
</a>
</g>
</g>
<!-- Node2 -->
<g id="node2" class="node">
<title>Node2</title>
<g id="a_node2"><a xlink:href="classTurnManager.html#af0af68eda36f0eb00ab1c0a497dea311" target="_top" xlink:title=" ">
<polygon fill="white" stroke="#666666" points="333.5,-54 186.25,-54 186.25,-22 333.5,-22 333.5,-54"/>
<text text-anchor="start" x="194.25" y="-40.5" font-family="Helvetica,sans-Serif" font-size="10.00">TurnManager::advanceToNext</text>
<text text-anchor="middle" x="259.88" y="-28.5" font-family="Helvetica,sans-Serif" font-size="10.00">Phase</text>
</a>
</g>
</g>
<!-- Node1&#45;&gt;Node2 -->
<g id="edge1" class="edge">
<title>Node1&#45;&gt;Node2</title>
<path fill="none" stroke="#63b8ff" d="M150.72,-38C158.64,-38 166.73,-38 174.74,-38"/>
<polygon fill="#63b8ff" stroke="#63b8ff" points="174.48,-41.5 184.48,-38 174.48,-34.5 174.48,-41.5"/>
</g>
<!-- Node3 -->
<g id="node3" class="node">
<title>Node3</title>
<g id="a_node3"><a xlink:href="classTurnManager.html#ade74a1914a24f832b30252cff34668bf" target="_top" xlink:title=" ">
<polygon fill="white" stroke="#666666" points="483.75,-68 369.5,-68 369.5,-48 483.75,-48 483.75,-68"/>
<text text-anchor="middle" x="426.62" y="-54.5" font-family="Helvetica,sans-Serif" font-size="10.00">TurnManager::endTurn</text>
</a>
</g>
</g>
<!-- Node2&#45;&gt;Node3 -->
<g id="edge2" class="edge">
<title>Node2&#45;&gt;Node3</title>
<path fill="none" stroke="#63b8ff" d="M333.62,-46.83C341.7,-47.81 349.91,-48.81 357.93,-49.78"/>
<polygon fill="#63b8ff" stroke="#63b8ff" points="357.26,-53.23 367.6,-50.96 358.1,-46.28 357.26,-53.23"/>
</g>
<!-- Node6 -->
<g id="node6" class="node">
<title>Node6</title>
<g id="a_node6"><a xlink:href="classTurnManager.html#af1bba901d1410ce5418213270b5388cd" target="_top" xlink:title=" ">
<polygon fill="white" stroke="#666666" points="641.12,-26 523.12,-26 523.12,-6 641.12,-6 641.12,-26"/>
<text text-anchor="middle" x="582.12" y="-12.5" font-family="Helvetica,sans-Serif" font-size="10.00">TurnManager::startTurn</text>
</a>
</g>
</g>
<!-- Node2&#45;&gt;Node6 -->
<g id="edge7" class="edge">
<title>Node2&#45;&gt;Node6</title>
<path fill="none" stroke="#63b8ff" d="M333.95,-32.98C387.26,-29.32 459.08,-24.38 511.56,-20.78"/>
<polygon fill="#63b8ff" stroke="#63b8ff" points="511.54,-24.29 521.27,-20.11 511.06,-17.31 511.54,-24.29"/>
</g>
<!-- Node4 -->
<g id="node4" class="node">
<title>Node4</title>
<g id="a_node4"><a xlink:href="classActionFormationManager.html#ab6c97337bf2f94a7c2f16957b4b04b63" target="_top" xlink:title=" ">
<polygon fill="white" stroke="#666666" points="644.5,-126 519.75,-126 519.75,-94 644.5,-94 644.5,-126"/>
<text text-anchor="start" x="527.75" y="-112.5" font-family="Helvetica,sans-Serif" font-size="10.00">ActionFormationManager</text>
<text text-anchor="middle" x="582.12" y="-100.5" font-family="Helvetica,sans-Serif" font-size="10.00">::cancelFormation</text>
</a>
</g>
</g>
<!-- Node3&#45;&gt;Node4 -->
<g id="edge3" class="edge">
<title>Node3&#45;&gt;Node4</title>
<path fill="none" stroke="#63b8ff" d="M458.32,-68.4C476.51,-74.56 500.17,-82.58 521.86,-89.92"/>
<polygon fill="#63b8ff" stroke="#63b8ff" points="520.63,-93.2 531.22,-93.09 522.87,-86.57 520.63,-93.2"/>
</g>
<!-- Node5 -->
<g id="node5" class="node">
<title>Node5</title>
<g id="a_node5"><a xlink:href="classActionFormationManager.html#a496649a3ab5ac5f173239d18857b6065" target="_top" xlink:title=" ">
<polygon fill="white" stroke="#666666" points="644.5,-76 519.75,-76 519.75,-44 644.5,-44 644.5,-76"/>
<text text-anchor="start" x="527.75" y="-62.5" font-family="Helvetica,sans-Serif" font-size="10.00">ActionFormationManager</text>
<text text-anchor="middle" x="582.12" y="-50.5" font-family="Helvetica,sans-Serif" font-size="10.00">::isFormationInProgress</text>
</a>
</g>
</g>
<!-- Node3&#45;&gt;Node5 -->
<g id="edge4" class="edge">
<title>Node3&#45;&gt;Node5</title>
<path fill="none" stroke="#63b8ff" d="M483.91,-58.73C491.76,-58.84 499.92,-58.94 508.03,-59.05"/>
<polygon fill="#63b8ff" stroke="#63b8ff" points="507.85,-62.55 517.9,-59.18 507.94,-55.55 507.85,-62.55"/>
</g>
<!-- Node3&#45;&gt;Node6 -->
<g id="edge5" class="edge">
<title>Node3&#45;&gt;Node6</title>
<path fill="none" stroke="#63b8ff" d="M465.96,-47.51C486,-42.03 510.75,-35.26 532.16,-29.4"/>
<polygon fill="#63b8ff" stroke="#63b8ff" points="532.83,-32.84 541.55,-26.83 530.98,-26.09 532.83,-32.84"/>
</g>
<!-- Node7 -->
<g id="node7" class="node">
<title>Node7</title>
<g id="a_node7"><a xlink:href="classActionResolutionManager.html#ab0df536666191614ab0d1b1fd4c87610" target="_top" xlink:title=" ">
<polygon fill="white" stroke="#666666" points="808.25,-32 680.5,-32 680.5,0 808.25,0 808.25,-32"/>
<text text-anchor="start" x="688.5" y="-18.5" font-family="Helvetica,sans-Serif" font-size="10.00">ActionResolutionManager</text>
<text text-anchor="middle" x="744.38" y="-6.5" font-family="Helvetica,sans-Serif" font-size="10.00">::processFutureActions</text>
</a>
</g>
</g>
<!-- Node6&#45;&gt;Node7 -->
<g id="edge6" class="edge">
<title>Node6&#45;&gt;Node7</title>
<path fill="none" stroke="#63b8ff" d="M641.43,-16C650.4,-16 659.77,-16 669.03,-16"/>
<polygon fill="#63b8ff" stroke="#63b8ff" points="668.73,-19.5 678.73,-16 668.73,-12.5 668.73,-19.5"/>
</g>
</g>
</svg>
