<?xml version="1.0" encoding="UTF-8" standalone="no"?>
<!DOCTYPE svg PUBLIC "-//W3C//DTD SVG 1.1//EN"
 "http://www.w3.org/Graphics/SVG/1.1/DTD/svg11.dtd">
<!-- Generated by graphviz version 12.2.1 (20241206.2353)
 -->
<!-- Title: basic_json::get Pages: 1 -->
<svg width="554pt" height="192pt"
 viewBox="0.00 0.00 553.50 192.00" xmlns="http://www.w3.org/2000/svg" xmlns:xlink="http://www.w3.org/1999/xlink">
<g id="graph0" class="graph" transform="scale(1 1) rotate(0) translate(4 188)">
<title>basic_json::get</title>
<!-- Node1 -->
<g id="node1" class="node">
<title>Node1</title>
<g id="a_node1"><a xlink:title="get a (pointer) value (explicit)">
<polygon fill="#999999" stroke="#666666" points="545.5,-108 463.5,-108 463.5,-88 545.5,-88 545.5,-108"/>
<text text-anchor="middle" x="504.5" y="-94.5" font-family="Helvetica,sans-Serif" font-size="10.00">basic_json::get</text>
</a>
</g>
</g>
<!-- Node2 -->
<g id="node2" class="node">
<title>Node2</title>
<g id="a_node2"><a xlink:href="classbasic__json.html#aed9761fba9571455a96309f7ba647757" target="_top" xlink:title=" ">
<polygon fill="white" stroke="#666666" points="418.12,-184 303.88,-184 303.88,-164 418.12,-164 418.12,-184"/>
<text text-anchor="middle" x="361" y="-170.5" font-family="Helvetica,sans-Serif" font-size="10.00">basic_json::from_bson</text>
</a>
</g>
</g>
<!-- Node1&#45;&gt;Node2 -->
<g id="edge1" class="edge">
<title>Node1&#45;&gt;Node2</title>
<path fill="none" stroke="#63b8ff" d="M483.9,-115.86C469.28,-128.36 448.32,-144.61 427.5,-155 420.83,-158.33 413.47,-161.17 406.17,-163.57"/>
<polygon fill="#63b8ff" stroke="#63b8ff" points="486.18,-118.52 491.38,-109.29 481.56,-113.26 486.18,-118.52"/>
</g>
<!-- Node3 -->
<g id="node3" class="node">
<title>Node3</title>
<g id="a_node3"><a xlink:href="classbasic__json.html#a8680ff0784c185b6898839a98de88486" target="_top" xlink:title=" ">
<polygon fill="white" stroke="#666666" points="417,-146 305,-146 305,-126 417,-126 417,-146"/>
<text text-anchor="middle" x="361" y="-132.5" font-family="Helvetica,sans-Serif" font-size="10.00">basic_json::from_cbor</text>
</a>
</g>
</g>
<!-- Node1&#45;&gt;Node3 -->
<g id="edge2" class="edge">
<title>Node1&#45;&gt;Node3</title>
<path fill="none" stroke="#63b8ff" d="M453.43,-111.45C436.18,-116.08 417.14,-121.19 400.91,-125.55"/>
<polygon fill="#63b8ff" stroke="#63b8ff" points="454.25,-114.85 463,-108.88 452.43,-108.09 454.25,-114.85"/>
</g>
<!-- Node4 -->
<g id="node4" class="node">
<title>Node4</title>
<g id="a_node4"><a xlink:href="classbasic__json.html#ae8c5fdb783d4f97a9062ab41809ec0c6" target="_top" xlink:title=" ">
<polygon fill="white" stroke="#666666" points="427.5,-108 294.5,-108 294.5,-88 427.5,-88 427.5,-108"/>
<text text-anchor="middle" x="361" y="-94.5" font-family="Helvetica,sans-Serif" font-size="10.00">basic_json::from_msgpack</text>
</a>
</g>
</g>
<!-- Node1&#45;&gt;Node4 -->
<g id="edge3" class="edge">
<title>Node1&#45;&gt;Node4</title>
<path fill="none" stroke="#63b8ff" d="M451.85,-98C444.08,-98 435.99,-98 427.97,-98"/>
<polygon fill="#63b8ff" stroke="#63b8ff" points="451.82,-101.5 461.82,-98 451.82,-94.5 451.82,-101.5"/>
</g>
<!-- Node5 -->
<g id="node5" class="node">
<title>Node5</title>
<g id="a_node5"><a xlink:href="classbasic__json.html#ad915ce03b8ec612764bb67d09e658a0d" target="_top" xlink:title=" ">
<polygon fill="white" stroke="#666666" points="421.88,-70 300.12,-70 300.12,-50 421.88,-50 421.88,-70"/>
<text text-anchor="middle" x="361" y="-56.5" font-family="Helvetica,sans-Serif" font-size="10.00">basic_json::from_ubjson</text>
</a>
</g>
</g>
<!-- Node1&#45;&gt;Node5 -->
<g id="edge4" class="edge">
<title>Node1&#45;&gt;Node5</title>
<path fill="none" stroke="#63b8ff" d="M453.43,-84.55C436.18,-79.92 417.14,-74.81 400.91,-70.45"/>
<polygon fill="#63b8ff" stroke="#63b8ff" points="452.43,-87.91 463,-87.12 454.25,-81.15 452.43,-87.91"/>
</g>
<!-- Node6 -->
<g id="node6" class="node">
<title>Node6</title>
<g id="a_node6"><a xlink:href="classSceneApprenticeship.html#ad830b3cf5344cbb9ef03f5a22af0fec6" target="_top" xlink:title=" ">
<polygon fill="white" stroke="#666666" points="415.12,-32 306.88,-32 306.88,0 415.12,0 415.12,-32"/>
<text text-anchor="start" x="314.88" y="-18.5" font-family="Helvetica,sans-Serif" font-size="10.00">SceneApprenticeship</text>
<text text-anchor="middle" x="361" y="-6.5" font-family="Helvetica,sans-Serif" font-size="10.00">::loadDialogue</text>
</a>
</g>
</g>
<!-- Node1&#45;&gt;Node6 -->
<g id="edge5" class="edge">
<title>Node1&#45;&gt;Node6</title>
<path fill="none" stroke="#63b8ff" d="M483.11,-80.22C468.39,-68.03 447.64,-52.11 427.5,-41 421.85,-37.88 415.73,-34.99 409.58,-32.35"/>
<polygon fill="#63b8ff" stroke="#63b8ff" points="480.79,-82.85 490.69,-86.63 485.31,-77.5 480.79,-82.85"/>
</g>
<!-- Node7 -->
<g id="node7" class="node">
<title>Node7</title>
<g id="a_node7"><a xlink:href="classSceneApprenticeship.html#a026d86301a2ac94f24da3b0f8a1cbaeb" target="_top" xlink:title=" ">
<polygon fill="white" stroke="#666666" points="258.5,-32 150.25,-32 150.25,0 258.5,0 258.5,-32"/>
<text text-anchor="start" x="158.25" y="-18.5" font-family="Helvetica,sans-Serif" font-size="10.00">SceneApprenticeship</text>
<text text-anchor="middle" x="204.38" y="-6.5" font-family="Helvetica,sans-Serif" font-size="10.00">::init</text>
</a>
</g>
</g>
<!-- Node6&#45;&gt;Node7 -->
<g id="edge6" class="edge">
<title>Node6&#45;&gt;Node7</title>
<path fill="none" stroke="#63b8ff" d="M295.34,-16C283.23,-16 270.68,-16 258.95,-16"/>
<polygon fill="#63b8ff" stroke="#63b8ff" points="295.27,-19.5 305.27,-16 295.27,-12.5 295.27,-19.5"/>
</g>
<!-- Node8 -->
<g id="node8" class="node">
<title>Node8</title>
<g id="a_node8"><a xlink:href="classSceneApprenticeship.html#a7c462ee9273d7cec66890a2f6d449cd2" target="_top" xlink:title=" ">
<polygon fill="white" stroke="#666666" points="114.25,-32 0,-32 0,0 114.25,0 114.25,-32"/>
<text text-anchor="start" x="8" y="-18.5" font-family="Helvetica,sans-Serif" font-size="10.00">SceneApprenticeship</text>
<text text-anchor="middle" x="57.13" y="-6.5" font-family="Helvetica,sans-Serif" font-size="10.00">::SceneApprenticeship</text>
</a>
</g>
</g>
<!-- Node7&#45;&gt;Node8 -->
<g id="edge7" class="edge">
<title>Node7&#45;&gt;Node8</title>
<path fill="none" stroke="#63b8ff" d="M138.73,-16C130.59,-16 122.31,-16 114.31,-16"/>
<polygon fill="#63b8ff" stroke="#63b8ff" points="138.6,-19.5 148.6,-16 138.6,-12.5 138.6,-19.5"/>
</g>
</g>
</svg>
