<?xml version="1.0" encoding="UTF-8" standalone="no"?>
<!DOCTYPE svg PUBLIC "-//W3C//DTD SVG 1.1//EN"
 "http://www.w3.org/Graphics/SVG/1.1/DTD/svg11.dtd">
<!-- Generated by graphviz version 12.2.1 (20241206.2353)
 -->
<!-- Title: SceneCombat::sLoadWordDatabase Pages: 1 -->
<svg width="499pt" height="28pt"
 viewBox="0.00 0.00 498.50 28.00" xmlns="http://www.w3.org/2000/svg" xmlns:xlink="http://www.w3.org/1999/xlink">
<g id="graph0" class="graph" transform="scale(1 1) rotate(0) translate(4 24)">
<title>SceneCombat::sLoadWordDatabase</title>
<!-- Node1 -->
<g id="node1" class="node">
<title>Node1</title>
<g id="a_node1"><a xlink:title=" ">
<polygon fill="#999999" stroke="#666666" points="490.5,-20 315.5,-20 315.5,0 490.5,0 490.5,-20"/>
<text text-anchor="middle" x="403" y="-6.5" font-family="Helvetica,sans-Serif" font-size="10.00">SceneCombat::sLoadWordDatabase</text>
</a>
</g>
</g>
<!-- Node2 -->
<g id="node2" class="node">
<title>Node2</title>
<g id="a_node2"><a xlink:href="classSceneCombat.html#ae2d70c8aaf0342c04a50623fc5839b3d" target="_top" xlink:title=" ">
<polygon fill="white" stroke="#666666" points="279.5,-20 182.5,-20 182.5,0 279.5,0 279.5,-20"/>
<text text-anchor="middle" x="231" y="-6.5" font-family="Helvetica,sans-Serif" font-size="10.00">SceneCombat::init</text>
</a>
</g>
</g>
<!-- Node1&#45;&gt;Node2 -->
<g id="edge1" class="edge">
<title>Node1&#45;&gt;Node2</title>
<path fill="none" stroke="#63b8ff" d="M303.72,-10C295.5,-10 287.44,-10 279.88,-10"/>
<polygon fill="#63b8ff" stroke="#63b8ff" points="303.49,-13.5 313.49,-10 303.49,-6.5 303.49,-13.5"/>
</g>
<!-- Node3 -->
<g id="node3" class="node">
<title>Node3</title>
<g id="a_node3"><a xlink:href="classSceneCombat.html#a11322c5c131a823eeee0caea2caea587" target="_top" xlink:title=" ">
<polygon fill="white" stroke="#666666" points="146.5,-20 0,-20 0,0 146.5,0 146.5,-20"/>
<text text-anchor="middle" x="73.25" y="-6.5" font-family="Helvetica,sans-Serif" font-size="10.00">SceneCombat::SceneCombat</text>
</a>
</g>
</g>
<!-- Node2&#45;&gt;Node3 -->
<g id="edge2" class="edge">
<title>Node2&#45;&gt;Node3</title>
<path fill="none" stroke="#63b8ff" d="M171.05,-10C163.11,-10 154.91,-10 146.77,-10"/>
<polygon fill="#63b8ff" stroke="#63b8ff" points="170.91,-13.5 180.91,-10 170.91,-6.5 170.91,-13.5"/>
</g>
</g>
</svg>
