<?xml version="1.0" encoding="UTF-8" standalone="no"?>
<!DOCTYPE svg PUBLIC "-//W3C//DTD SVG 1.1//EN"
 "http://www.w3.org/Graphics/SVG/1.1/DTD/svg11.dtd">
<!-- Generated by graphviz version 12.2.1 (20241206.2353)
 -->
<!-- Title: SceneEspionage::sDoAction Pages: 1 -->
<svg width="354pt" height="216pt"
 viewBox="0.00 0.00 353.50 216.00" xmlns="http://www.w3.org/2000/svg" xmlns:xlink="http://www.w3.org/1999/xlink">
<g id="graph0" class="graph" transform="scale(1 1) rotate(0) translate(4 212)">
<title>SceneEspionage::sDoAction</title>
<!-- Node1 -->
<g id="node1" class="node">
<title>Node1</title>
<g id="a_node1"><a xlink:title=" ">
<polygon fill="#999999" stroke="#666666" points="141.25,-114 0,-114 0,-94 141.25,-94 141.25,-114"/>
<text text-anchor="middle" x="70.62" y="-100.5" font-family="Helvetica,sans-Serif" font-size="10.00">SceneEspionage::sDoAction</text>
</a>
</g>
</g>
<!-- Node2 -->
<g id="node2" class="node">
<title>Node2</title>
<g id="a_node2"><a xlink:href="classAction.html#a23800f6ef38781f10e6823f09ad6d62c" target="_top" xlink:title=" ">
<polygon fill="white" stroke="#666666" points="298.25,-208 224.5,-208 224.5,-188 298.25,-188 298.25,-208"/>
<text text-anchor="middle" x="261.38" y="-194.5" font-family="Helvetica,sans-Serif" font-size="10.00">Action::name</text>
</a>
</g>
</g>
<!-- Node1&#45;&gt;Node2 -->
<g id="edge1" class="edge">
<title>Node1&#45;&gt;Node2</title>
<path fill="none" stroke="#63b8ff" d="M83.03,-114.45C101.44,-130.74 139.48,-162.09 177.25,-179 188.41,-184 201.02,-187.75 212.99,-190.54"/>
<polygon fill="#63b8ff" stroke="#63b8ff" points="212.2,-193.95 222.71,-192.61 213.66,-187.1 212.2,-193.95"/>
</g>
<!-- Node3 -->
<g id="node3" class="node">
<title>Node3</title>
<g id="a_node3"><a xlink:href="classSceneEspionage.html#a2db8e0dd02a0d248053c84718c1af3eb" target="_top" xlink:title=" ">
<polygon fill="white" stroke="#666666" points="345.5,-170 177.25,-170 177.25,-138 345.5,-138 345.5,-170"/>
<text text-anchor="start" x="185.25" y="-156.5" font-family="Helvetica,sans-Serif" font-size="10.00">SceneEspionage::sCheckAnagram</text>
<text text-anchor="middle" x="261.38" y="-144.5" font-family="Helvetica,sans-Serif" font-size="10.00">Solution</text>
</a>
</g>
</g>
<!-- Node1&#45;&gt;Node3 -->
<g id="edge2" class="edge">
<title>Node1&#45;&gt;Node3</title>
<path fill="none" stroke="#63b8ff" d="M111.19,-114.48C133.23,-120.32 161.37,-127.77 187.26,-134.63"/>
<polygon fill="#63b8ff" stroke="#63b8ff" points="186.17,-137.96 196.73,-137.14 187.96,-131.2 186.17,-137.96"/>
</g>
<!-- Node4 -->
<g id="node4" class="node">
<title>Node4</title>
<g id="a_node4"><a xlink:href="classSceneEspionage.html#ae1c4d00a4aa16de96bfd2f1710595412" target="_top" xlink:title=" ">
<polygon fill="white" stroke="#666666" points="336.5,-120 186.25,-120 186.25,-88 336.5,-88 336.5,-120"/>
<text text-anchor="start" x="194.25" y="-106.5" font-family="Helvetica,sans-Serif" font-size="10.00">SceneEspionage::sCheckFinal</text>
<text text-anchor="middle" x="261.38" y="-94.5" font-family="Helvetica,sans-Serif" font-size="10.00">Translation</text>
</a>
</g>
</g>
<!-- Node1&#45;&gt;Node4 -->
<g id="edge3" class="edge">
<title>Node1&#45;&gt;Node4</title>
<path fill="none" stroke="#63b8ff" d="M141.64,-104C152.39,-104 163.58,-104 174.62,-104"/>
<polygon fill="#63b8ff" stroke="#63b8ff" points="174.53,-107.5 184.53,-104 174.53,-100.5 174.53,-107.5"/>
</g>
<!-- Node5 -->
<g id="node5" class="node">
<title>Node5</title>
<g id="a_node5"><a xlink:href="classSceneEspionage.html#af17ffd31299dcaec235c747da7cfe3fd" target="_top" xlink:title=" ">
<polygon fill="white" stroke="#666666" points="339.5,-70 183.25,-70 183.25,-38 339.5,-38 339.5,-70"/>
<text text-anchor="start" x="191.25" y="-56.5" font-family="Helvetica,sans-Serif" font-size="10.00">SceneEspionage::sMoveToNext</text>
<text text-anchor="middle" x="261.38" y="-44.5" font-family="Helvetica,sans-Serif" font-size="10.00">Point</text>
</a>
</g>
</g>
<!-- Node1&#45;&gt;Node5 -->
<g id="edge4" class="edge">
<title>Node1&#45;&gt;Node5</title>
<path fill="none" stroke="#63b8ff" d="M111.19,-93.52C133.23,-87.68 161.37,-80.23 187.26,-73.37"/>
<polygon fill="#63b8ff" stroke="#63b8ff" points="187.96,-76.8 196.73,-70.86 186.17,-70.04 187.96,-76.8"/>
</g>
<!-- Node6 -->
<g id="node6" class="node">
<title>Node6</title>
<g id="a_node6"><a xlink:href="classAction.html#a17c7beb7eb4055b45fbc4587f61ec933" target="_top" xlink:title=" ">
<polygon fill="white" stroke="#666666" points="295.62,-20 227.12,-20 227.12,0 295.62,0 295.62,-20"/>
<text text-anchor="middle" x="261.38" y="-6.5" font-family="Helvetica,sans-Serif" font-size="10.00">Action::type</text>
</a>
</g>
</g>
<!-- Node1&#45;&gt;Node6 -->
<g id="edge5" class="edge">
<title>Node1&#45;&gt;Node6</title>
<path fill="none" stroke="#63b8ff" d="M83.03,-93.55C101.44,-77.26 139.48,-45.91 177.25,-29 189.27,-23.62 202.97,-19.68 215.73,-16.84"/>
<polygon fill="#63b8ff" stroke="#63b8ff" points="216.06,-20.34 225.16,-14.91 214.66,-13.48 216.06,-20.34"/>
</g>
</g>
</svg>
