<?xml version="1.0" encoding="UTF-8" standalone="no"?>
<!DOCTYPE svg PUBLIC "-//W3C//DTD SVG 1.1//EN"
 "http://www.w3.org/Graphics/SVG/1.1/DTD/svg11.dtd">
<!-- Generated by graphviz version 12.2.1 (20241206.2353)
 -->
<!-- Title: SceneCombat::sAddWordToChain Pages: 1 -->
<svg width="379pt" height="128pt"
 viewBox="0.00 0.00 379.00 128.00" xmlns="http://www.w3.org/2000/svg" xmlns:xlink="http://www.w3.org/1999/xlink">
<g id="graph0" class="graph" transform="scale(1 1) rotate(0) translate(4 124)">
<title>SceneCombat::sAddWordToChain</title>
<!-- Node1 -->
<g id="node1" class="node">
<title>Node1</title>
<g id="a_node1"><a xlink:title=" ">
<polygon fill="#999999" stroke="#666666" points="165.25,-70 0,-70 0,-50 165.25,-50 165.25,-70"/>
<text text-anchor="middle" x="82.62" y="-56.5" font-family="Helvetica,sans-Serif" font-size="10.00">SceneCombat::sAddWordToChain</text>
</a>
</g>
</g>
<!-- Node2 -->
<g id="node2" class="node">
<title>Node2</title>
<g id="a_node2"><a xlink:href="classSceneCombat.html#ada8c49991a48bf4c6aec2f7a537301fe" target="_top" xlink:title=" ">
<polygon fill="white" stroke="#666666" points="364.25,-120 208,-120 208,-88 364.25,-88 364.25,-120"/>
<text text-anchor="start" x="216" y="-106.5" font-family="Helvetica,sans-Serif" font-size="10.00">SceneCombat::sCalculateChain</text>
<text text-anchor="middle" x="286.12" y="-94.5" font-family="Helvetica,sans-Serif" font-size="10.00">Damage</text>
</a>
</g>
</g>
<!-- Node1&#45;&gt;Node2 -->
<g id="edge1" class="edge">
<title>Node1&#45;&gt;Node2</title>
<path fill="none" stroke="#63b8ff" d="M131.63,-70.48C151.74,-74.87 175.75,-80.12 198.74,-85.14"/>
<polygon fill="#63b8ff" stroke="#63b8ff" points="197.93,-88.54 208.45,-87.26 199.42,-81.7 197.93,-88.54"/>
</g>
<!-- Node3 -->
<g id="node3" class="node">
<title>Node3</title>
<g id="a_node3"><a xlink:href="classSceneCombat.html#a5438d9ea2e75ba54b357409cc47a6700" target="_top" xlink:title=" ">
<polygon fill="white" stroke="#666666" points="371,-70 201.25,-70 201.25,-50 371,-50 371,-70"/>
<text text-anchor="middle" x="286.12" y="-56.5" font-family="Helvetica,sans-Serif" font-size="10.00">SceneCombat::sPlayerKnowsWord</text>
</a>
</g>
</g>
<!-- Node1&#45;&gt;Node3 -->
<g id="edge2" class="edge">
<title>Node1&#45;&gt;Node3</title>
<path fill="none" stroke="#63b8ff" d="M165.58,-60C173.51,-60 181.59,-60 189.63,-60"/>
<polygon fill="#63b8ff" stroke="#63b8ff" points="189.43,-63.5 199.43,-60 189.43,-56.5 189.43,-63.5"/>
</g>
<!-- Node4 -->
<g id="node4" class="node">
<title>Node4</title>
<g id="a_node4"><a xlink:href="classSceneCombat.html#aece6655ddb0f2504638878f9321ef492" target="_top" xlink:title=" ">
<polygon fill="white" stroke="#666666" points="368.75,-32 203.5,-32 203.5,0 368.75,0 368.75,-32"/>
<text text-anchor="start" x="211.5" y="-18.5" font-family="Helvetica,sans-Serif" font-size="10.00">SceneCombat::sValidateSemantic</text>
<text text-anchor="middle" x="286.12" y="-6.5" font-family="Helvetica,sans-Serif" font-size="10.00">Chain</text>
</a>
</g>
</g>
<!-- Node1&#45;&gt;Node4 -->
<g id="edge3" class="edge">
<title>Node1&#45;&gt;Node4</title>
<path fill="none" stroke="#63b8ff" d="M131.63,-49.52C151.74,-45.13 175.75,-39.88 198.74,-34.86"/>
<polygon fill="#63b8ff" stroke="#63b8ff" points="199.42,-38.3 208.45,-32.74 197.93,-31.46 199.42,-38.3"/>
</g>
</g>
</svg>
