<?xml version="1.0" encoding="UTF-8" standalone="no"?>
<!DOCTYPE svg PUBLIC "-//W3C//DTD SVG 1.1//EN"
 "http://www.w3.org/Graphics/SVG/1.1/DTD/svg11.dtd">
<!-- Generated by graphviz version 12.2.1 (20241206.2353)
 -->
<!-- Title: SceneCombat::sCombatUpdate Pages: 1 -->
<svg width="351pt" height="116pt"
 viewBox="0.00 0.00 351.25 116.00" xmlns="http://www.w3.org/2000/svg" xmlns:xlink="http://www.w3.org/1999/xlink">
<g id="graph0" class="graph" transform="scale(1 1) rotate(0) translate(4 112)">
<title>SceneCombat::sCombatUpdate</title>
<!-- Node1 -->
<g id="node1" class="node">
<title>Node1</title>
<g id="a_node1"><a xlink:title=" ">
<polygon fill="#999999" stroke="#666666" points="155.5,-70 0,-70 0,-50 155.5,-50 155.5,-70"/>
<text text-anchor="middle" x="77.75" y="-56.5" font-family="Helvetica,sans-Serif" font-size="10.00">SceneCombat::sCombatUpdate</text>
</a>
</g>
</g>
<!-- Node2 -->
<g id="node2" class="node">
<title>Node2</title>
<g id="a_node2"><a xlink:href="classSceneCombat.html#a465c5aa967a785e6ecaf11b57f865de5" target="_top" xlink:title=" ">
<polygon fill="white" stroke="#666666" points="342.88,-108 191.88,-108 191.88,-88 342.88,-88 342.88,-108"/>
<text text-anchor="middle" x="267.38" y="-94.5" font-family="Helvetica,sans-Serif" font-size="10.00">SceneCombat::sApplyDamage</text>
</a>
</g>
</g>
<!-- Node1&#45;&gt;Node2 -->
<g id="edge1" class="edge">
<title>Node1&#45;&gt;Node2</title>
<path fill="none" stroke="#63b8ff" d="M130.52,-70.48C153.18,-75.07 179.96,-80.5 203.74,-85.31"/>
<polygon fill="#63b8ff" stroke="#63b8ff" points="202.8,-88.69 213.29,-87.25 204.19,-81.83 202.8,-88.69"/>
</g>
<!-- Node3 -->
<g id="node3" class="node">
<title>Node3</title>
<g id="a_node3"><a xlink:href="classSceneCombat.html#af0b3bef84d34d470709b0a050771c44e" target="_top" xlink:title=" ">
<polygon fill="white" stroke="#666666" points="338,-70 196.75,-70 196.75,-50 338,-50 338,-70"/>
<text text-anchor="middle" x="267.38" y="-56.5" font-family="Helvetica,sans-Serif" font-size="10.00">SceneCombat::sEndCombat</text>
</a>
</g>
</g>
<!-- Node1&#45;&gt;Node3 -->
<g id="edge2" class="edge">
<title>Node1&#45;&gt;Node3</title>
<path fill="none" stroke="#63b8ff" d="M155.88,-60C165.54,-60 175.44,-60 185.17,-60"/>
<polygon fill="#63b8ff" stroke="#63b8ff" points="184.96,-63.5 194.96,-60 184.96,-56.5 184.96,-63.5"/>
</g>
<!-- Node4 -->
<g id="node4" class="node">
<title>Node4</title>
<g id="a_node4"><a xlink:href="classSceneCombat.html#aed515cf302c3f9f5dab23b2597ddc086" target="_top" xlink:title=" ">
<polygon fill="white" stroke="#666666" points="343.25,-32 191.5,-32 191.5,0 343.25,0 343.25,-32"/>
<text text-anchor="start" x="199.5" y="-18.5" font-family="Helvetica,sans-Serif" font-size="10.00">SceneCombat::sGenerateWord</text>
<text text-anchor="middle" x="267.38" y="-6.5" font-family="Helvetica,sans-Serif" font-size="10.00">Challenge</text>
</a>
</g>
</g>
<!-- Node1&#45;&gt;Node4 -->
<g id="edge3" class="edge">
<title>Node1&#45;&gt;Node4</title>
<path fill="none" stroke="#63b8ff" d="M123.21,-49.57C141.76,-45.22 163.91,-40.03 185.17,-35.04"/>
<polygon fill="#63b8ff" stroke="#63b8ff" points="185.78,-38.5 194.72,-32.8 184.18,-31.68 185.78,-38.5"/>
</g>
</g>
</svg>
