<?xml version="1.0" encoding="UTF-8" standalone="no"?>
<!DOCTYPE svg PUBLIC "-//W3C//DTD SVG 1.1//EN"
 "http://www.w3.org/Graphics/SVG/1.1/DTD/svg11.dtd">
<!-- Generated by graphviz version 12.2.1 (20241206.2353)
 -->
<!-- Title: detail::iteration_proxy_value::key Pages: 1 -->
<svg width="370pt" height="40pt"
 viewBox="0.00 0.00 370.25 40.00" xmlns="http://www.w3.org/2000/svg" xmlns:xlink="http://www.w3.org/1999/xlink">
<g id="graph0" class="graph" transform="scale(1 1) rotate(0) translate(4 36)">
<title>detail::iteration_proxy_value::key</title>
<!-- Node1 -->
<g id="node1" class="node">
<title>Node1</title>
<g id="a_node1"><a xlink:title="return key of the iterator">
<polygon fill="#999999" stroke="#666666" points="109,-32 0,-32 0,0 109,0 109,-32"/>
<text text-anchor="start" x="8" y="-18.5" font-family="Helvetica,sans-Serif" font-size="10.00">detail::iteration_proxy</text>
<text text-anchor="middle" x="54.5" y="-6.5" font-family="Helvetica,sans-Serif" font-size="10.00">_value::key</text>
</a>
</g>
</g>
<!-- Node2 -->
<g id="node2" class="node">
<title>Node2</title>
<g id="a_node2"><a xlink:href="namespacedetail.html#a5c44faccf48735587df161d056c084e5" target="_top" xlink:title=" ">
<polygon fill="white" stroke="#666666" points="243.5,-26 145,-26 145,-6 243.5,-6 243.5,-26"/>
<text text-anchor="middle" x="194.25" y="-12.5" font-family="Helvetica,sans-Serif" font-size="10.00">detail::int_to_string</text>
</a>
</g>
</g>
<!-- Node1&#45;&gt;Node2 -->
<g id="edge1" class="edge">
<title>Node1&#45;&gt;Node2</title>
<path fill="none" stroke="#63b8ff" d="M109.15,-16C117.16,-16 125.46,-16 133.59,-16"/>
<polygon fill="#63b8ff" stroke="#63b8ff" points="133.39,-19.5 143.39,-16 133.39,-12.5 133.39,-19.5"/>
</g>
<!-- Node3 -->
<g id="node3" class="node">
<title>Node3</title>
<g id="a_node3"><a xlink:href="namespacedetail.html#a9bbdd7186f0615ca14f4f79fc41f013c" target="_top" xlink:title=" ">
<polygon fill="white" stroke="#666666" points="362.25,-26 279.5,-26 279.5,-6 362.25,-6 362.25,-26"/>
<text text-anchor="middle" x="320.88" y="-12.5" font-family="Helvetica,sans-Serif" font-size="10.00">detail::to_string</text>
</a>
</g>
</g>
<!-- Node2&#45;&gt;Node3 -->
<g id="edge2" class="edge">
<title>Node2&#45;&gt;Node3</title>
<path fill="none" stroke="#63b8ff" d="M243.79,-9.4C251.69,-9.23 259.9,-9.2 267.87,-9.33"/>
<polygon fill="#63b8ff" stroke="#63b8ff" points="267.73,-12.83 277.82,-9.59 267.91,-5.83 267.73,-12.83"/>
</g>
<!-- Node3&#45;&gt;Node2 -->
<g id="edge3" class="edge">
<title>Node3&#45;&gt;Node2</title>
<path fill="none" stroke="#63b8ff" d="M279.33,-22.37C271.62,-22.65 263.4,-22.78 255.24,-22.75"/>
<polygon fill="#63b8ff" stroke="#63b8ff" points="255.35,-19.25 245.3,-22.62 255.26,-26.25 255.35,-19.25"/>
</g>
</g>
</svg>
