<?xml version="1.0" encoding="UTF-8" standalone="no"?>
<!DOCTYPE svg PUBLIC "-//W3C//DTD SVG 1.1//EN"
 "http://www.w3.org/Graphics/SVG/1.1/DTD/svg11.dtd">
<!-- Generated by graphviz version 12.2.1 (20241206.2353)
 -->
<!-- Title: Grammar Pages: 1 -->
<svg width="121pt" height="286pt"
 viewBox="0.00 0.00 120.75 286.00" xmlns="http://www.w3.org/2000/svg" xmlns:xlink="http://www.w3.org/1999/xlink">
<g id="graph0" class="graph" transform="scale(1 1) rotate(0) translate(4 282)">
<title>Grammar</title>
<!-- Node1 -->
<g id="node1" class="node">
<title>Node1</title>
<g id="a_node1"><a xlink:title=" ">
<polygon fill="#999999" stroke="#666666" points="0,-145.5 0,-277.5 112.75,-277.5 112.75,-145.5 0,-145.5"/>
<text text-anchor="middle" x="56.38" y="-264" font-family="Helvetica,sans-Serif" font-size="10.00">Grammar</text>
<polyline fill="none" stroke="#666666" points="0,-257.5 112.75,-257.5"/>
<text text-anchor="start" x="8" y="-244" font-family="Helvetica,sans-Serif" font-size="10.00"># m_language</text>
<text text-anchor="start" x="8" y="-232" font-family="Helvetica,sans-Serif" font-size="10.00"># m_aspects</text>
<text text-anchor="start" x="8" y="-220" font-family="Helvetica,sans-Serif" font-size="10.00"># m_voices</text>
<text text-anchor="start" x="8" y="-208" font-family="Helvetica,sans-Serif" font-size="10.00"># m_cases</text>
<polyline fill="none" stroke="#666666" points="0,-201.5 112.75,-201.5"/>
<text text-anchor="start" x="8" y="-188" font-family="Helvetica,sans-Serif" font-size="10.00">+ getLanguageName()</text>
<text text-anchor="start" x="8" y="-176" font-family="Helvetica,sans-Serif" font-size="10.00">+ printAspects()</text>
<text text-anchor="start" x="8" y="-164" font-family="Helvetica,sans-Serif" font-size="10.00">+ printVoices()</text>
<text text-anchor="start" x="8" y="-152" font-family="Helvetica,sans-Serif" font-size="10.00">+ printCases()</text>
</a>
</g>
</g>
<!-- Node2 -->
<g id="node2" class="node">
<title>Node2</title>
<g id="a_node2"><a xlink:href="classBicolGrammar.html" target="_top" xlink:title=" ">
<polygon fill="white" stroke="#666666" points="3.38,-0.5 3.38,-108.5 109.38,-108.5 109.38,-0.5 3.38,-0.5"/>
<text text-anchor="middle" x="56.38" y="-95" font-family="Helvetica,sans-Serif" font-size="10.00">BicolGrammar</text>
<polyline fill="none" stroke="#666666" points="3.38,-88.5 109.38,-88.5"/>
<text text-anchor="middle" x="56.38" y="-75" font-family="Helvetica,sans-Serif" font-size="10.00"> </text>
<polyline fill="none" stroke="#666666" points="3.38,-68.5 109.38,-68.5"/>
<text text-anchor="start" x="11.38" y="-55" font-family="Helvetica,sans-Serif" font-size="10.00">+ BicolGrammar()</text>
<text text-anchor="start" x="11.38" y="-43" font-family="Helvetica,sans-Serif" font-size="10.00">+ printAspects()</text>
<text text-anchor="start" x="11.38" y="-31" font-family="Helvetica,sans-Serif" font-size="10.00">+ printVoices()</text>
<text text-anchor="start" x="11.38" y="-19" font-family="Helvetica,sans-Serif" font-size="10.00">+ printCases()</text>
<text text-anchor="start" x="11.38" y="-7" font-family="Helvetica,sans-Serif" font-size="10.00">+ printNomMarkers()</text>
</a>
</g>
</g>
<!-- Node1&#45;&gt;Node2 -->
<g id="edge1" class="edge">
<title>Node1&#45;&gt;Node2</title>
<path fill="none" stroke="#63b8ff" d="M56.38,-133.81C56.38,-125.41 56.38,-117 56.38,-108.97"/>
<polygon fill="none" stroke="#63b8ff" points="52.88,-133.7 56.38,-143.7 59.88,-133.7 52.88,-133.7"/>
</g>
</g>
</svg>
