<?xml version="1.0" encoding="UTF-8" standalone="no"?>
<!DOCTYPE svg PUBLIC "-//W3C//DTD SVG 1.1//EN"
 "http://www.w3.org/Graphics/SVG/1.1/DTD/svg11.dtd">
<!-- Generated by graphviz version 12.2.1 (20241206.2353)
 -->
<!-- Title: Action::name Pages: 1 -->
<svg width="259pt" height="154pt"
 viewBox="0.00 0.00 259.00 154.00" xmlns="http://www.w3.org/2000/svg" xmlns:xlink="http://www.w3.org/1999/xlink">
<g id="graph0" class="graph" transform="scale(1 1) rotate(0) translate(4 150)">
<title>Action::name</title>
<!-- Node1 -->
<g id="node1" class="node">
<title>Node1</title>
<g id="a_node1"><a xlink:title=" ">
<polygon fill="#999999" stroke="#666666" points="251,-77 177.25,-77 177.25,-57 251,-57 251,-77"/>
<text text-anchor="middle" x="214.12" y="-63.5" font-family="Helvetica,sans-Serif" font-size="10.00">Action::name</text>
</a>
</g>
</g>
<!-- Node2 -->
<g id="node2" class="node">
<title>Node2</title>
<g id="a_node2"><a xlink:href="classSceneApprenticeship.html#ab1514eacf8326c34edf89e3df10909a2" target="_top" xlink:title=" ">
<polygon fill="white" stroke="#666666" points="124.75,-146 16.5,-146 16.5,-114 124.75,-114 124.75,-146"/>
<text text-anchor="start" x="24.5" y="-132.5" font-family="Helvetica,sans-Serif" font-size="10.00">SceneApprenticeship</text>
<text text-anchor="middle" x="70.62" y="-120.5" font-family="Helvetica,sans-Serif" font-size="10.00">::sDoAction</text>
</a>
</g>
</g>
<!-- Node1&#45;&gt;Node2 -->
<g id="edge1" class="edge">
<title>Node1&#45;&gt;Node2</title>
<path fill="none" stroke="#63b8ff" d="M185.32,-82.88C172.17,-90.08 156.13,-98.44 141.25,-105 134.55,-107.96 127.39,-110.83 120.29,-113.52"/>
<polygon fill="#63b8ff" stroke="#63b8ff" points="186.8,-86.06 193.84,-78.15 183.4,-79.95 186.8,-86.06"/>
</g>
<!-- Node3 -->
<g id="node3" class="node">
<title>Node3</title>
<g id="a_node3"><a xlink:href="classSceneCombat.html#a37f6cbef92fa92fc1532dafd265aefc5" target="_top" xlink:title=" ">
<polygon fill="white" stroke="#666666" points="135.62,-96 5.62,-96 5.62,-76 135.62,-76 135.62,-96"/>
<text text-anchor="middle" x="70.62" y="-82.5" font-family="Helvetica,sans-Serif" font-size="10.00">SceneCombat::sDoAction</text>
</a>
</g>
</g>
<!-- Node1&#45;&gt;Node3 -->
<g id="edge2" class="edge">
<title>Node1&#45;&gt;Node3</title>
<path fill="none" stroke="#63b8ff" d="M165.76,-73.36C156.2,-74.64 145.99,-76.01 135.96,-77.36"/>
<polygon fill="#63b8ff" stroke="#63b8ff" points="166.11,-76.84 175.55,-72.05 165.18,-69.91 166.11,-76.84"/>
</g>
<!-- Node4 -->
<g id="node4" class="node">
<title>Node4</title>
<g id="a_node4"><a xlink:href="classSceneEspionage.html#a392e7a93c22fac7515a9ca5dc2d89b8a" target="_top" xlink:title=" ">
<polygon fill="white" stroke="#666666" points="141.25,-58 0,-58 0,-38 141.25,-38 141.25,-58"/>
<text text-anchor="middle" x="70.62" y="-44.5" font-family="Helvetica,sans-Serif" font-size="10.00">SceneEspionage::sDoAction</text>
</a>
</g>
</g>
<!-- Node1&#45;&gt;Node4 -->
<g id="edge3" class="edge">
<title>Node1&#45;&gt;Node4</title>
<path fill="none" stroke="#63b8ff" d="M165.91,-60.66C158.06,-59.61 149.78,-58.49 141.5,-57.38"/>
<polygon fill="#63b8ff" stroke="#63b8ff" points="165.18,-64.09 175.55,-61.95 166.11,-57.16 165.18,-64.09"/>
</g>
<!-- Node5 -->
<g id="node5" class="node">
<title>Node5</title>
<g id="a_node5"><a xlink:href="classSceneMenu.html#a131d3f366007ee8d2efdbfcb25d7c826" target="_top" xlink:title=" ">
<polygon fill="white" stroke="#666666" points="130.38,-20 10.88,-20 10.88,0 130.38,0 130.38,-20"/>
<text text-anchor="middle" x="70.62" y="-6.5" font-family="Helvetica,sans-Serif" font-size="10.00">SceneMenu::sDoAction</text>
</a>
</g>
</g>
<!-- Node1&#45;&gt;Node5 -->
<g id="edge4" class="edge">
<title>Node1&#45;&gt;Node5</title>
<path fill="none" stroke="#63b8ff" d="M186.08,-50.88C172.88,-43.5 156.58,-35.06 141.25,-29 133.09,-25.78 124.19,-22.89 115.56,-20.41"/>
<polygon fill="#63b8ff" stroke="#63b8ff" points="184.18,-53.83 194.6,-55.76 187.66,-47.76 184.18,-53.83"/>
</g>
</g>
</svg>
