<?xml version="1.0" encoding="UTF-8" standalone="no"?>
<!DOCTYPE svg PUBLIC "-//W3C//DTD SVG 1.1//EN"
 "http://www.w3.org/Graphics/SVG/1.1/DTD/svg11.dtd">
<!-- Generated by graphviz version 12.2.1 (20241206.2353)
 -->
<!-- Title: basic_json::diff Pages: 1 -->
<svg width="542pt" height="370pt"
 viewBox="0.00 0.00 541.50 370.00" xmlns="http://www.w3.org/2000/svg" xmlns:xlink="http://www.w3.org/1999/xlink">
<g id="graph0" class="graph" transform="scale(1 1) rotate(0) translate(4 366)">
<title>basic_json::diff</title>
<!-- Node1 -->
<g id="node1" class="node">
<title>Node1</title>
<g id="a_node1"><a xlink:title="creates a diff as a JSON patch">
<polygon fill="#999999" stroke="#666666" points="82,-191 0,-191 0,-171 82,-171 82,-191"/>
<text text-anchor="middle" x="41" y="-177.5" font-family="Helvetica,sans-Serif" font-size="10.00">basic_json::diff</text>
</a>
</g>
</g>
<!-- Node2 -->
<g id="node2" class="node">
<title>Node2</title>
<g id="a_node2"><a xlink:href="classbasic__json.html#a5251a08382864af52c854fca1bdba61c" target="_top" xlink:title="returns an iterator to the first element">
<polygon fill="white" stroke="#666666" points="221.75,-362 130,-362 130,-342 221.75,-342 221.75,-362"/>
<text text-anchor="middle" x="175.88" y="-348.5" font-family="Helvetica,sans-Serif" font-size="10.00">basic_json::begin</text>
</a>
</g>
</g>
<!-- Node1&#45;&gt;Node2 -->
<g id="edge1" class="edge">
<title>Node1&#45;&gt;Node2</title>
<path fill="none" stroke="#63b8ff" d="M44.22,-191.17C50.65,-218.29 71.88,-292.97 118,-333 119.11,-333.96 120.26,-334.87 121.46,-335.74"/>
<polygon fill="#63b8ff" stroke="#63b8ff" points="119.6,-338.7 129.99,-340.75 123.14,-332.67 119.6,-338.7"/>
</g>
<!-- Node3 -->
<g id="node3" class="node">
<title>Node3</title>
<g id="a_node3"><a xlink:href="classbasic__json.html#a9ab2ece6530b3b2be5b876f80c68dc78" target="_top" xlink:title="returns a const iterator to the first element">
<polygon fill="white" stroke="#666666" points="224.38,-324 127.38,-324 127.38,-304 224.38,-304 224.38,-324"/>
<text text-anchor="middle" x="175.88" y="-310.5" font-family="Helvetica,sans-Serif" font-size="10.00">basic_json::cbegin</text>
</a>
</g>
</g>
<!-- Node1&#45;&gt;Node3 -->
<g id="edge2" class="edge">
<title>Node1&#45;&gt;Node3</title>
<path fill="none" stroke="#63b8ff" d="M46.17,-191.5C55.58,-213.85 80.58,-266.4 118,-295 119.54,-296.17 121.15,-297.28 122.82,-298.31"/>
<polygon fill="#63b8ff" stroke="#63b8ff" points="121.04,-301.33 131.53,-302.86 124.28,-295.13 121.04,-301.33"/>
</g>
<!-- Node4 -->
<g id="node4" class="node">
<title>Node4</title>
<g id="a_node4"><a xlink:href="classbasic__json.html#a57c63700f006c54624eb2433ec6526b0" target="_top" xlink:title="returns an iterator to one past the last element">
<polygon fill="white" stroke="#666666" points="220.62,-286 131.12,-286 131.12,-266 220.62,-266 220.62,-286"/>
<text text-anchor="middle" x="175.88" y="-272.5" font-family="Helvetica,sans-Serif" font-size="10.00">basic_json::cend</text>
</a>
</g>
</g>
<!-- Node1&#45;&gt;Node4 -->
<g id="edge3" class="edge">
<title>Node1&#45;&gt;Node4</title>
<path fill="none" stroke="#63b8ff" d="M49.72,-191.37C62.31,-207.58 88.8,-238.94 118,-257 120.28,-258.41 122.67,-259.73 125.14,-260.96"/>
<polygon fill="#63b8ff" stroke="#63b8ff" points="123.6,-264.11 134.16,-264.93 126.42,-257.7 123.6,-264.11"/>
</g>
<!-- Node5 -->
<g id="node5" class="node">
<title>Node5</title>
<g id="a_node5"><a xlink:href="classbasic__json.html#a4dbc83213b31a171aa8ba65ff00fa954" target="_top" xlink:title="returns an iterator to one past the last element">
<polygon fill="white" stroke="#666666" points="218,-248 133.75,-248 133.75,-228 218,-228 218,-248"/>
<text text-anchor="middle" x="175.88" y="-234.5" font-family="Helvetica,sans-Serif" font-size="10.00">basic_json::end</text>
</a>
</g>
</g>
<!-- Node1&#45;&gt;Node5 -->
<g id="edge4" class="edge">
<title>Node1&#45;&gt;Node5</title>
<path fill="none" stroke="#63b8ff" d="M61.02,-191.45C76.18,-199.55 98.1,-210.75 118,-219 121.88,-220.61 125.96,-222.18 130.06,-223.69"/>
<polygon fill="#63b8ff" stroke="#63b8ff" points="128.88,-226.99 139.47,-227.02 131.21,-220.39 128.88,-226.99"/>
</g>
<!-- Node6 -->
<g id="node6" class="node">
<title>Node6</title>
<g id="a_node6"><a xlink:href="namespacedetail.html#af2a9ce4740e0b45d33129e2c8e53a0a8" target="_top" xlink:title="string escaping as described in RFC 6901 (Sect. 4)">
<polygon fill="white" stroke="#666666" points="214.25,-210 137.5,-210 137.5,-190 214.25,-190 214.25,-210"/>
<text text-anchor="middle" x="175.88" y="-196.5" font-family="Helvetica,sans-Serif" font-size="10.00">detail::escape</text>
</a>
</g>
</g>
<!-- Node1&#45;&gt;Node6 -->
<g id="edge5" class="edge">
<title>Node1&#45;&gt;Node6</title>
<path fill="none" stroke="#63b8ff" d="M82.23,-186.75C95.97,-188.72 111.49,-190.94 125.85,-192.99"/>
<polygon fill="#63b8ff" stroke="#63b8ff" points="125.16,-196.43 135.56,-194.38 126.15,-189.5 125.16,-196.43"/>
</g>
<!-- Node8 -->
<g id="node8" class="node">
<title>Node8</title>
<g id="a_node8"><a xlink:href="classbasic__json.html#a727e3cfb5a874314d8deb12cb53a8105" target="_top" xlink:title="find an element in a JSON object">
<polygon fill="white" stroke="#666666" points="218,-172 133.75,-172 133.75,-152 218,-152 218,-172"/>
<text text-anchor="middle" x="175.88" y="-158.5" font-family="Helvetica,sans-Serif" font-size="10.00">basic_json::find</text>
</a>
</g>
</g>
<!-- Node1&#45;&gt;Node8 -->
<g id="edge7" class="edge">
<title>Node1&#45;&gt;Node8</title>
<path fill="none" stroke="#63b8ff" d="M82.23,-175.25C94.75,-173.46 108.76,-171.45 122.01,-169.56"/>
<polygon fill="#63b8ff" stroke="#63b8ff" points="122.5,-173.02 131.91,-168.14 121.51,-166.09 122.5,-173.02"/>
</g>
<!-- Node9 -->
<g id="node9" class="node">
<title>Node9</title>
<g id="a_node9"><a xlink:href="classbasic__json.html#a7f3817060c2bec896a99cb2c236b9c27" target="_top" xlink:title="inserts element into array">
<polygon fill="white" stroke="#666666" points="222.12,-134 129.62,-134 129.62,-114 222.12,-114 222.12,-134"/>
<text text-anchor="middle" x="175.88" y="-120.5" font-family="Helvetica,sans-Serif" font-size="10.00">basic_json::insert</text>
</a>
</g>
</g>
<!-- Node1&#45;&gt;Node9 -->
<g id="edge8" class="edge">
<title>Node1&#45;&gt;Node9</title>
<path fill="none" stroke="#63b8ff" d="M61.02,-170.55C76.18,-162.45 98.1,-151.25 118,-143 121.88,-141.39 125.96,-139.82 130.06,-138.31"/>
<polygon fill="#63b8ff" stroke="#63b8ff" points="131.21,-141.61 139.47,-134.98 128.88,-135.01 131.21,-141.61"/>
</g>
<!-- Node13 -->
<g id="node13" class="node">
<title>Node13</title>
<g id="a_node13"><a xlink:href="classbasic__json.html#a3d13acce4e49e0d5ee768643a7b89010" target="_top" xlink:title="add an object to an array">
<polygon fill="white" stroke="#666666" points="233.75,-96 118,-96 118,-76 233.75,-76 233.75,-96"/>
<text text-anchor="middle" x="175.88" y="-82.5" font-family="Helvetica,sans-Serif" font-size="10.00">basic_json::push_back</text>
</a>
</g>
</g>
<!-- Node1&#45;&gt;Node13 -->
<g id="edge12" class="edge">
<title>Node1&#45;&gt;Node13</title>
<path fill="none" stroke="#63b8ff" d="M49.72,-170.63C62.31,-154.42 88.8,-123.06 118,-105 120.28,-103.59 122.67,-102.27 125.14,-101.04"/>
<polygon fill="#63b8ff" stroke="#63b8ff" points="126.42,-104.3 134.16,-97.07 123.6,-97.89 126.42,-104.3"/>
</g>
<!-- Node14 -->
<g id="node14" class="node">
<title>Node14</title>
<g id="a_node14"><a xlink:href="classbasic__json.html#a086cbfd1ad4ba83a8127c87467a92f47" target="_top" xlink:title="returns the number of elements">
<polygon fill="white" stroke="#666666" points="219.12,-58 132.62,-58 132.62,-38 219.12,-38 219.12,-58"/>
<text text-anchor="middle" x="175.88" y="-44.5" font-family="Helvetica,sans-Serif" font-size="10.00">basic_json::size</text>
</a>
</g>
</g>
<!-- Node1&#45;&gt;Node14 -->
<g id="edge14" class="edge">
<title>Node1&#45;&gt;Node14</title>
<path fill="none" stroke="#63b8ff" d="M46.17,-170.5C55.58,-148.15 80.58,-95.6 118,-67 119.54,-65.83 121.15,-64.72 122.82,-63.69"/>
<polygon fill="#63b8ff" stroke="#63b8ff" points="124.28,-66.87 131.53,-59.14 121.04,-60.67 124.28,-66.87"/>
</g>
<!-- Node15 -->
<g id="node15" class="node">
<title>Node15</title>
<g id="a_node15"><a xlink:href="classbasic__json.html#ac5e52dbb3cb4e9fcabd1b88c37985aef" target="_top" xlink:title="return the type of the JSON value (explicit)">
<polygon fill="white" stroke="#666666" points="219.5,-20 132.25,-20 132.25,0 219.5,0 219.5,-20"/>
<text text-anchor="middle" x="175.88" y="-6.5" font-family="Helvetica,sans-Serif" font-size="10.00">basic_json::type</text>
</a>
</g>
</g>
<!-- Node1&#45;&gt;Node15 -->
<g id="edge15" class="edge">
<title>Node1&#45;&gt;Node15</title>
<path fill="none" stroke="#63b8ff" d="M44.22,-170.83C50.65,-143.71 71.88,-69.03 118,-29 119.28,-27.89 120.62,-26.85 122.02,-25.86"/>
<polygon fill="#63b8ff" stroke="#63b8ff" points="123.63,-28.97 130.56,-20.96 120.15,-22.9 123.63,-28.97"/>
</g>
<!-- Node7 -->
<g id="node7" class="node">
<title>Node7</title>
<g id="a_node7"><a xlink:href="namespacedetail.html#a6fd295e53b1dd4f46e235e6afee26d5e" target="_top" xlink:title="replace all occurrences of a substring by another string">
<polygon fill="white" stroke="#666666" points="391.5,-210 269.75,-210 269.75,-190 391.5,-190 391.5,-210"/>
<text text-anchor="middle" x="330.62" y="-196.5" font-family="Helvetica,sans-Serif" font-size="10.00">detail::replace_substring</text>
</a>
</g>
</g>
<!-- Node6&#45;&gt;Node7 -->
<g id="edge6" class="edge">
<title>Node6&#45;&gt;Node7</title>
<path fill="none" stroke="#63b8ff" d="M214.63,-200C227.8,-200 243.04,-200 258.04,-200"/>
<polygon fill="#63b8ff" stroke="#63b8ff" points="257.9,-203.5 267.9,-200 257.9,-196.5 257.9,-203.5"/>
</g>
<!-- Node10 -->
<g id="node10" class="node">
<title>Node10</title>
<g id="a_node10"><a xlink:href="namespacedetail.html#a266fb3d4bf633ad6c506434cc91164da" target="_top" xlink:title=" ">
<polygon fill="white" stroke="#666666" points="367.88,-115 293.38,-115 293.38,-95 367.88,-95 367.88,-115"/>
<text text-anchor="middle" x="330.62" y="-101.5" font-family="Helvetica,sans-Serif" font-size="10.00">detail::concat</text>
</a>
</g>
</g>
<!-- Node9&#45;&gt;Node10 -->
<g id="edge9" class="edge">
<title>Node9&#45;&gt;Node10</title>
<path fill="none" stroke="#63b8ff" d="M222.29,-118.35C241.17,-116 263.09,-113.28 282.17,-110.9"/>
<polygon fill="#63b8ff" stroke="#63b8ff" points="282.35,-114.41 291.84,-109.7 281.48,-107.46 282.35,-114.41"/>
</g>
<!-- Node11 -->
<g id="node11" class="node">
<title>Node11</title>
<g id="a_node11"><a xlink:href="namespacedetail.html#a89f967b745cf8df11ba9d59f93d97753" target="_top" xlink:title=" ">
<polygon fill="white" stroke="#666666" points="528.25,-134 432.75,-134 432.75,-114 528.25,-114 528.25,-134"/>
<text text-anchor="middle" x="480.5" y="-120.5" font-family="Helvetica,sans-Serif" font-size="10.00">detail::concat_into</text>
</a>
</g>
</g>
<!-- Node10&#45;&gt;Node11 -->
<g id="edge10" class="edge">
<title>Node10&#45;&gt;Node11</title>
<path fill="none" stroke="#63b8ff" d="M368.18,-109.7C384.18,-111.75 403.35,-114.22 421.24,-116.51"/>
<polygon fill="#63b8ff" stroke="#63b8ff" points="420.6,-119.96 430.97,-117.76 421.49,-113.02 420.6,-119.96"/>
</g>
<!-- Node12 -->
<g id="node12" class="node">
<title>Node12</title>
<g id="a_node12"><a xlink:href="namespacedetail.html#ac185140ed8c8fcc07a302a890b714b0d" target="_top" xlink:title=" ">
<polygon fill="white" stroke="#666666" points="533.5,-96 427.5,-96 427.5,-76 533.5,-76 533.5,-96"/>
<text text-anchor="middle" x="480.5" y="-82.5" font-family="Helvetica,sans-Serif" font-size="10.00">detail::concat_length</text>
</a>
</g>
</g>
<!-- Node10&#45;&gt;Node12 -->
<g id="edge11" class="edge">
<title>Node10&#45;&gt;Node12</title>
<path fill="none" stroke="#63b8ff" d="M368.18,-100.3C382.63,-98.45 399.67,-96.26 416.02,-94.16"/>
<polygon fill="#63b8ff" stroke="#63b8ff" points="416.21,-97.66 425.68,-92.91 415.32,-90.72 416.21,-97.66"/>
</g>
<!-- Node13&#45;&gt;Node10 -->
<g id="edge13" class="edge">
<title>Node13&#45;&gt;Node10</title>
<path fill="none" stroke="#63b8ff" d="M234.19,-93.13C249.97,-95.09 266.92,-97.2 282.09,-99.09"/>
<polygon fill="#63b8ff" stroke="#63b8ff" points="281.43,-102.53 291.79,-100.29 282.3,-95.59 281.43,-102.53"/>
</g>
</g>
</svg>
