<?xml version="1.0" encoding="UTF-8" standalone="no"?>
<!DOCTYPE svg PUBLIC "-//W3C//DTD SVG 1.1//EN"
 "http://www.w3.org/Graphics/SVG/1.1/DTD/svg11.dtd">
<!-- Generated by graphviz version 12.2.1 (20241206.2353)
 -->
<!-- Title: detail::exception::name Pages: 1 -->
<svg width="715pt" height="286pt"
 viewBox="0.00 0.00 715.00 286.00" xmlns="http://www.w3.org/2000/svg" xmlns:xlink="http://www.w3.org/1999/xlink">
<g id="graph0" class="graph" transform="scale(1 1) rotate(0) translate(4 282)">
<title>detail::exception::name</title>
<!-- Node1 -->
<g id="node1" class="node">
<title>Node1</title>
<g id="a_node1"><a xlink:title=" ">
<polygon fill="#999999" stroke="#666666" points="707,-126 589.75,-126 589.75,-106 707,-106 707,-126"/>
<text text-anchor="middle" x="648.38" y="-112.5" font-family="Helvetica,sans-Serif" font-size="10.00">detail::exception::name</text>
</a>
</g>
</g>
<!-- Node2 -->
<g id="node2" class="node">
<title>Node2</title>
<g id="a_node2"><a xlink:href="classdetail_1_1parse__error.html#a07046ea9f33d28f120af188ed674d6df" target="_top" xlink:title="create a parse error exception">
<polygon fill="white" stroke="#666666" points="546.62,-232 452.62,-232 452.62,-200 546.62,-200 546.62,-232"/>
<text text-anchor="start" x="460.62" y="-218.5" font-family="Helvetica,sans-Serif" font-size="10.00">detail::parse_error</text>
<text text-anchor="middle" x="499.62" y="-206.5" font-family="Helvetica,sans-Serif" font-size="10.00">::create</text>
</a>
</g>
</g>
<!-- Node1&#45;&gt;Node2 -->
<g id="edge1" class="edge">
<title>Node1&#45;&gt;Node2</title>
<path fill="none" stroke="#63b8ff" d="M627.89,-133.88C609.63,-150.08 581.11,-173.94 553.75,-191 548.91,-194.02 543.64,-196.92 538.37,-199.6"/>
<polygon fill="#63b8ff" stroke="#63b8ff" points="629.99,-136.7 635.09,-127.42 625.31,-131.5 629.99,-136.7"/>
</g>
<!-- Node5 -->
<g id="node5" class="node">
<title>Node5</title>
<g id="a_node5"><a xlink:href="classdetail_1_1invalid__iterator.html#a35d0b713b151188622791891314949f9" target="_top" xlink:title=" ">
<polygon fill="white" stroke="#666666" points="553.75,-182 445.5,-182 445.5,-150 553.75,-150 553.75,-182"/>
<text text-anchor="start" x="453.5" y="-168.5" font-family="Helvetica,sans-Serif" font-size="10.00">detail::invalid_iterator</text>
<text text-anchor="middle" x="499.62" y="-156.5" font-family="Helvetica,sans-Serif" font-size="10.00">::create</text>
</a>
</g>
</g>
<!-- Node1&#45;&gt;Node5 -->
<g id="edge4" class="edge">
<title>Node1&#45;&gt;Node5</title>
<path fill="none" stroke="#63b8ff" d="M605.76,-130.18C588.07,-136.2 567.33,-143.27 548.97,-149.53"/>
<polygon fill="#63b8ff" stroke="#63b8ff" points="606.84,-133.51 615.18,-126.97 604.58,-126.88 606.84,-133.51"/>
</g>
<!-- Node6 -->
<g id="node6" class="node">
<title>Node6</title>
<g id="a_node6"><a xlink:href="classdetail_1_1type__error.html#a2d25372628cf1e09ec67718f4bc42762" target="_top" xlink:title=" ">
<polygon fill="white" stroke="#666666" points="544,-132 455.25,-132 455.25,-100 544,-100 544,-132"/>
<text text-anchor="start" x="463.25" y="-118.5" font-family="Helvetica,sans-Serif" font-size="10.00">detail::type_error</text>
<text text-anchor="middle" x="499.62" y="-106.5" font-family="Helvetica,sans-Serif" font-size="10.00">::create</text>
</a>
</g>
</g>
<!-- Node1&#45;&gt;Node6 -->
<g id="edge5" class="edge">
<title>Node1&#45;&gt;Node6</title>
<path fill="none" stroke="#63b8ff" d="M577.95,-116C566.44,-116 554.8,-116 544.17,-116"/>
<polygon fill="#63b8ff" stroke="#63b8ff" points="577.86,-119.5 587.86,-116 577.86,-112.5 577.86,-119.5"/>
</g>
<!-- Node11 -->
<g id="node11" class="node">
<title>Node11</title>
<g id="a_node11"><a xlink:href="classdetail_1_1out__of__range.html#a79ea0d3ec02a853629dc827e045ecff5" target="_top" xlink:title=" ">
<polygon fill="white" stroke="#666666" points="550.38,-82 448.88,-82 448.88,-50 550.38,-50 550.38,-82"/>
<text text-anchor="start" x="456.88" y="-68.5" font-family="Helvetica,sans-Serif" font-size="10.00">detail::out_of_range</text>
<text text-anchor="middle" x="499.62" y="-56.5" font-family="Helvetica,sans-Serif" font-size="10.00">::create</text>
</a>
</g>
</g>
<!-- Node1&#45;&gt;Node11 -->
<g id="edge10" class="edge">
<title>Node1&#45;&gt;Node11</title>
<path fill="none" stroke="#63b8ff" d="M605.76,-101.82C588.07,-95.8 567.33,-88.73 548.97,-82.47"/>
<polygon fill="#63b8ff" stroke="#63b8ff" points="604.58,-105.12 615.18,-105.03 606.84,-98.49 604.58,-105.12"/>
</g>
<!-- Node17 -->
<g id="node17" class="node">
<title>Node17</title>
<g id="a_node17"><a xlink:href="classdetail_1_1other__error.html#a687565ec69bfdf7a15f9a672038b0f0f" target="_top" xlink:title=" ">
<polygon fill="white" stroke="#666666" points="545.5,-32 453.75,-32 453.75,0 545.5,0 545.5,-32"/>
<text text-anchor="start" x="461.75" y="-18.5" font-family="Helvetica,sans-Serif" font-size="10.00">detail::other_error</text>
<text text-anchor="middle" x="499.62" y="-6.5" font-family="Helvetica,sans-Serif" font-size="10.00">::create</text>
</a>
</g>
</g>
<!-- Node1&#45;&gt;Node17 -->
<g id="edge17" class="edge">
<title>Node1&#45;&gt;Node17</title>
<path fill="none" stroke="#63b8ff" d="M627.89,-98.12C609.63,-81.92 581.11,-58.06 553.75,-41 548.91,-37.98 543.64,-35.08 538.37,-32.4"/>
<polygon fill="#63b8ff" stroke="#63b8ff" points="625.31,-100.5 635.09,-104.58 629.99,-95.3 625.31,-100.5"/>
</g>
<!-- Node3 -->
<g id="node3" class="node">
<title>Node3</title>
<g id="a_node3"><a xlink:href="classdetail_1_1wide__string__input__adapter.html#a12c464bdf348096f8ac250fb8f415a42" target="_top" xlink:title=" ">
<polygon fill="white" stroke="#666666" points="400.88,-278 301.62,-278 301.62,-234 400.88,-234 400.88,-278"/>
<text text-anchor="start" x="309.62" y="-264.5" font-family="Helvetica,sans-Serif" font-size="10.00">detail::wide_string</text>
<text text-anchor="start" x="309.62" y="-252.5" font-family="Helvetica,sans-Serif" font-size="10.00">_input_adapter::get</text>
<text text-anchor="middle" x="351.25" y="-240.5" font-family="Helvetica,sans-Serif" font-size="10.00">_elements</text>
</a>
</g>
</g>
<!-- Node2&#45;&gt;Node3 -->
<g id="edge2" class="edge">
<title>Node2&#45;&gt;Node3</title>
<path fill="none" stroke="#63b8ff" d="M441.39,-231.64C428.14,-235.26 414.16,-239.08 401.3,-242.6"/>
<polygon fill="#63b8ff" stroke="#63b8ff" points="442.13,-235.07 450.85,-229.06 440.28,-228.32 442.13,-235.07"/>
</g>
<!-- Node4 -->
<g id="node4" class="node">
<title>Node4</title>
<g id="a_node4"><a xlink:href="namespacedetail.html#aa7b34bd54868366a47c9adad778867bc" target="_top" xlink:title=" ">
<polygon fill="white" stroke="#666666" points="403.12,-216 299.38,-216 299.38,-196 403.12,-196 403.12,-216"/>
<text text-anchor="middle" x="351.25" y="-202.5" font-family="Helvetica,sans-Serif" font-size="10.00">detail::input_adapter</text>
</a>
</g>
</g>
<!-- Node2&#45;&gt;Node4 -->
<g id="edge3" class="edge">
<title>Node2&#45;&gt;Node4</title>
<path fill="none" stroke="#63b8ff" d="M441.15,-212.07C428.76,-211.23 415.74,-210.34 403.6,-209.51"/>
<polygon fill="#63b8ff" stroke="#63b8ff" points="440.59,-215.54 450.8,-212.73 441.06,-208.56 440.59,-215.54"/>
</g>
<!-- Node7 -->
<g id="node7" class="node">
<title>Node7</title>
<g id="a_node7"><a xlink:href="namespacedetail.html#ac8fc7fc4703cbd8edd7bb43a94adf92b" target="_top" xlink:title=" ">
<polygon fill="white" stroke="#666666" points="395.25,-168 307.25,-168 307.25,-148 395.25,-148 395.25,-168"/>
<text text-anchor="middle" x="351.25" y="-154.5" font-family="Helvetica,sans-Serif" font-size="10.00">detail::from_json</text>
</a>
</g>
</g>
<!-- Node6&#45;&gt;Node7 -->
<g id="edge6" class="edge">
<title>Node6&#45;&gt;Node7</title>
<path fill="none" stroke="#63b8ff" d="M444.11,-131.64C425.53,-136.97 405.23,-142.8 388.45,-147.61"/>
<polygon fill="#63b8ff" stroke="#63b8ff" points="445,-135.03 453.65,-128.91 443.07,-128.3 445,-135.03"/>
</g>
<!-- Node9 -->
<g id="node9" class="node">
<title>Node9</title>
<g id="a_node9"><a xlink:href="namespacedetail.html#ad10dc6af43ec8e72954eb2ac08c8698b" target="_top" xlink:title=" ">
<polygon fill="white" stroke="#666666" points="404.62,-130 297.88,-130 297.88,-98 404.62,-98 404.62,-130"/>
<text text-anchor="start" x="305.88" y="-116.5" font-family="Helvetica,sans-Serif" font-size="10.00">detail::get_arithmetic</text>
<text text-anchor="middle" x="351.25" y="-104.5" font-family="Helvetica,sans-Serif" font-size="10.00">_value</text>
</a>
</g>
</g>
<!-- Node6&#45;&gt;Node9 -->
<g id="edge8" class="edge">
<title>Node6&#45;&gt;Node9</title>
<path fill="none" stroke="#63b8ff" d="M443.71,-115.25C431.01,-115.08 417.52,-114.89 404.92,-114.72"/>
<polygon fill="#63b8ff" stroke="#63b8ff" points="443.54,-118.75 453.59,-115.38 443.64,-111.75 443.54,-118.75"/>
</g>
<!-- Node8 -->
<g id="node8" class="node">
<title>Node8</title>
<g id="a_node8"><a xlink:href="structdetail_1_1from__json__fn.html#a98f7c5bf6d2857ac7281d2b0fd98a907" target="_top" xlink:title=" ">
<polygon fill="white" stroke="#666666" points="243.5,-174 142,-174 142,-142 243.5,-142 243.5,-174"/>
<text text-anchor="start" x="150" y="-160.5" font-family="Helvetica,sans-Serif" font-size="10.00">detail::from_json_fn</text>
<text text-anchor="middle" x="192.75" y="-148.5" font-family="Helvetica,sans-Serif" font-size="10.00">::operator()</text>
</a>
</g>
</g>
<!-- Node7&#45;&gt;Node8 -->
<g id="edge7" class="edge">
<title>Node7&#45;&gt;Node8</title>
<path fill="none" stroke="#63b8ff" d="M295.73,-158C278.92,-158 260.5,-158 243.99,-158"/>
<polygon fill="#63b8ff" stroke="#63b8ff" points="295.56,-161.5 305.56,-158 295.56,-154.5 295.56,-161.5"/>
</g>
<!-- Node10 -->
<g id="node10" class="node">
<title>Node10</title>
<g id="a_node10"><a xlink:href="namespacedetail.html#a4c4e5abfc7ef24404781b5d8662891c0" target="_top" xlink:title=" ">
<polygon fill="white" stroke="#666666" points="236.75,-124 148.75,-124 148.75,-104 236.75,-104 236.75,-124"/>
<text text-anchor="middle" x="192.75" y="-110.5" font-family="Helvetica,sans-Serif" font-size="10.00">detail::from_json</text>
</a>
</g>
</g>
<!-- Node9&#45;&gt;Node10 -->
<g id="edge9" class="edge">
<title>Node9&#45;&gt;Node10</title>
<path fill="none" stroke="#63b8ff" d="M286.39,-114C269.8,-114 252.31,-114 237.05,-114"/>
<polygon fill="#63b8ff" stroke="#63b8ff" points="286.19,-117.5 296.19,-114 286.19,-110.5 286.19,-117.5"/>
</g>
<!-- Node12 -->
<g id="node12" class="node">
<title>Node12</title>
<g id="a_node12"><a xlink:href="classjson__pointer.html#aba71e63e4032cfc46dd90aeb09e5cb0f" target="_top" xlink:title="return last reference token">
<polygon fill="white" stroke="#666666" points="399,-79 303.5,-79 303.5,-59 399,-59 399,-79"/>
<text text-anchor="middle" x="351.25" y="-65.5" font-family="Helvetica,sans-Serif" font-size="10.00">json_pointer::back</text>
</a>
</g>
</g>
<!-- Node11&#45;&gt;Node12 -->
<g id="edge11" class="edge">
<title>Node11&#45;&gt;Node12</title>
<path fill="none" stroke="#63b8ff" d="M437.52,-67.25C424.66,-67.52 411.27,-67.79 399.03,-68.04"/>
<polygon fill="#63b8ff" stroke="#63b8ff" points="437.22,-70.76 447.15,-67.06 437.08,-63.76 437.22,-70.76"/>
</g>
<!-- Node15 -->
<g id="node15" class="node">
<title>Node15</title>
<g id="a_node15"><a xlink:href="classjson__pointer.html#a662118b470c87a1b564946c2602c49ce" target="_top" xlink:title="remove last reference token">
<polygon fill="white" stroke="#666666" points="409.5,-41 293,-41 293,-21 409.5,-21 409.5,-41"/>
<text text-anchor="middle" x="351.25" y="-27.5" font-family="Helvetica,sans-Serif" font-size="10.00">json_pointer::pop_back</text>
</a>
</g>
</g>
<!-- Node11&#45;&gt;Node15 -->
<g id="edge14" class="edge">
<title>Node11&#45;&gt;Node15</title>
<path fill="none" stroke="#63b8ff" d="M437.65,-51.42C423.72,-48.09 409.17,-44.61 396.12,-41.49"/>
<polygon fill="#63b8ff" stroke="#63b8ff" points="436.65,-54.78 447.19,-53.7 438.28,-47.97 436.65,-54.78"/>
</g>
<!-- Node13 -->
<g id="node13" class="node">
<title>Node13</title>
<g id="a_node13"><a xlink:href="classbasic__json.html#a693812b31e106dec9166e93d8f6dd7d7" target="_top" xlink:title="applies a JSON patch in&#45;place without copying the object">
<polygon fill="white" stroke="#666666" points="257,-79 128.5,-79 128.5,-59 257,-59 257,-79"/>
<text text-anchor="middle" x="192.75" y="-65.5" font-family="Helvetica,sans-Serif" font-size="10.00">basic_json::patch_inplace</text>
</a>
</g>
</g>
<!-- Node12&#45;&gt;Node13 -->
<g id="edge12" class="edge">
<title>Node12&#45;&gt;Node13</title>
<path fill="none" stroke="#63b8ff" d="M291.86,-69C280.64,-69 268.84,-69 257.46,-69"/>
<polygon fill="#63b8ff" stroke="#63b8ff" points="291.78,-72.5 301.78,-69 291.78,-65.5 291.78,-72.5"/>
</g>
<!-- Node14 -->
<g id="node14" class="node">
<title>Node14</title>
<g id="a_node14"><a xlink:href="classbasic__json.html#a145a004c0a2fa5be84b260ecc98ab5d9" target="_top" xlink:title="applies a JSON patch to a copy of the current object">
<polygon fill="white" stroke="#666666" points="92.5,-79 0,-79 0,-59 92.5,-59 92.5,-79"/>
<text text-anchor="middle" x="46.25" y="-65.5" font-family="Helvetica,sans-Serif" font-size="10.00">basic_json::patch</text>
</a>
</g>
</g>
<!-- Node13&#45;&gt;Node14 -->
<g id="edge13" class="edge">
<title>Node13&#45;&gt;Node14</title>
<path fill="none" stroke="#63b8ff" d="M117.08,-69C108.79,-69 100.55,-69 92.78,-69"/>
<polygon fill="#63b8ff" stroke="#63b8ff" points="116.86,-72.5 126.86,-69 116.86,-65.5 116.86,-72.5"/>
</g>
<!-- Node15&#45;&gt;Node13 -->
<g id="edge16" class="edge">
<title>Node15&#45;&gt;Node13</title>
<path fill="none" stroke="#63b8ff" d="M295.96,-44.18C276.6,-48.88 255.07,-54.11 236.79,-58.55"/>
<polygon fill="#63b8ff" stroke="#63b8ff" points="296.71,-47.6 305.6,-41.84 295.06,-40.8 296.71,-47.6"/>
</g>
<!-- Node16 -->
<g id="node16" class="node">
<title>Node16</title>
<g id="a_node16"><a xlink:href="classjson__pointer.html#aa03c0c1206e171342d27a4583258858b" target="_top" xlink:title="returns the parent of this JSON pointer">
<polygon fill="white" stroke="#666666" points="243.5,-41 142,-41 142,-9 243.5,-9 243.5,-41"/>
<text text-anchor="start" x="150" y="-27.5" font-family="Helvetica,sans-Serif" font-size="10.00">json_pointer::parent</text>
<text text-anchor="middle" x="192.75" y="-15.5" font-family="Helvetica,sans-Serif" font-size="10.00">_pointer</text>
</a>
</g>
</g>
<!-- Node15&#45;&gt;Node16 -->
<g id="edge15" class="edge">
<title>Node15&#45;&gt;Node16</title>
<path fill="none" stroke="#63b8ff" d="M281.41,-28.36C268.79,-27.88 255.84,-27.38 243.9,-26.92"/>
<polygon fill="#63b8ff" stroke="#63b8ff" points="281.22,-31.86 291.35,-28.74 281.49,-24.86 281.22,-31.86"/>
</g>
</g>
</svg>
