<?xml version="1.0" encoding="UTF-8" standalone="no"?>
<!DOCTYPE svg PUBLIC "-//W3C//DTD SVG 1.1//EN"
 "http://www.w3.org/Graphics/SVG/1.1/DTD/svg11.dtd">
<!-- Generated by graphviz version 12.2.1 (20241206.2353)
 -->
<!-- Title: basic_json::emplace_back Pages: 1 -->
<svg width="392pt" height="66pt"
 viewBox="0.00 0.00 392.00 66.00" xmlns="http://www.w3.org/2000/svg" xmlns:xlink="http://www.w3.org/1999/xlink">
<g id="graph0" class="graph" transform="scale(1 1) rotate(0) translate(4 62)">
<title>basic_json::emplace_back</title>
<!-- Node1 -->
<g id="node1" class="node">
<title>Node1</title>
<g id="a_node1"><a xlink:title="add an object to an array">
<polygon fill="#999999" stroke="#666666" points="131.5,-39 0,-39 0,-19 131.5,-19 131.5,-39"/>
<text text-anchor="middle" x="65.75" y="-25.5" font-family="Helvetica,sans-Serif" font-size="10.00">basic_json::emplace_back</text>
</a>
</g>
</g>
<!-- Node2 -->
<g id="node2" class="node">
<title>Node2</title>
<g id="a_node2"><a xlink:href="namespacedetail.html#a266fb3d4bf633ad6c506434cc91164da" target="_top" xlink:title=" ">
<polygon fill="white" stroke="#666666" points="242,-39 167.5,-39 167.5,-19 242,-19 242,-39"/>
<text text-anchor="middle" x="204.75" y="-25.5" font-family="Helvetica,sans-Serif" font-size="10.00">detail::concat</text>
</a>
</g>
</g>
<!-- Node1&#45;&gt;Node2 -->
<g id="edge1" class="edge">
<title>Node1&#45;&gt;Node2</title>
<path fill="none" stroke="#63b8ff" d="M131.64,-29C139.72,-29 147.87,-29 155.64,-29"/>
<polygon fill="#63b8ff" stroke="#63b8ff" points="155.56,-32.5 165.56,-29 155.56,-25.5 155.56,-32.5"/>
</g>
<!-- Node3 -->
<g id="node3" class="node">
<title>Node3</title>
<g id="a_node3"><a xlink:href="namespacedetail.html#a89f967b745cf8df11ba9d59f93d97753" target="_top" xlink:title=" ">
<polygon fill="white" stroke="#666666" points="378.75,-58 283.25,-58 283.25,-38 378.75,-38 378.75,-58"/>
<text text-anchor="middle" x="331" y="-44.5" font-family="Helvetica,sans-Serif" font-size="10.00">detail::concat_into</text>
</a>
</g>
</g>
<!-- Node2&#45;&gt;Node3 -->
<g id="edge2" class="edge">
<title>Node2&#45;&gt;Node3</title>
<path fill="none" stroke="#63b8ff" d="M242.36,-34.6C251.61,-36.01 261.79,-37.57 271.82,-39.1"/>
<polygon fill="#63b8ff" stroke="#63b8ff" points="271.13,-42.54 281.54,-40.59 272.19,-35.62 271.13,-42.54"/>
</g>
<!-- Node4 -->
<g id="node4" class="node">
<title>Node4</title>
<g id="a_node4"><a xlink:href="namespacedetail.html#ac185140ed8c8fcc07a302a890b714b0d" target="_top" xlink:title=" ">
<polygon fill="white" stroke="#666666" points="384,-20 278,-20 278,0 384,0 384,-20"/>
<text text-anchor="middle" x="331" y="-6.5" font-family="Helvetica,sans-Serif" font-size="10.00">detail::concat_length</text>
</a>
</g>
</g>
<!-- Node2&#45;&gt;Node4 -->
<g id="edge3" class="edge">
<title>Node2&#45;&gt;Node4</title>
<path fill="none" stroke="#63b8ff" d="M242.36,-23.4C249.94,-22.24 258.13,-20.99 266.36,-19.73"/>
<polygon fill="#63b8ff" stroke="#63b8ff" points="266.69,-23.22 276.05,-18.25 265.63,-16.3 266.69,-23.22"/>
</g>
</g>
</svg>
