<?xml version="1.0" encoding="UTF-8" standalone="no"?>
<!DOCTYPE svg PUBLIC "-//W3C//DTD SVG 1.1//EN"
 "http://www.w3.org/Graphics/SVG/1.1/DTD/svg11.dtd">
<!-- Generated by graphviz version 12.2.1 (20241206.2353)
 -->
<!-- Title: basic_json::value Pages: 1 -->
<svg width="352pt" height="66pt"
 viewBox="0.00 0.00 352.25 66.00" xmlns="http://www.w3.org/2000/svg" xmlns:xlink="http://www.w3.org/1999/xlink">
<g id="graph0" class="graph" transform="scale(1 1) rotate(0) translate(4 62)">
<title>basic_json::value</title>
<!-- Node1 -->
<g id="node1" class="node">
<title>Node1</title>
<g id="a_node1"><a xlink:title="access specified object element via JSON Pointer with default value">
<polygon fill="#999999" stroke="#666666" points="91.75,-39 0,-39 0,-19 91.75,-19 91.75,-39"/>
<text text-anchor="middle" x="45.88" y="-25.5" font-family="Helvetica,sans-Serif" font-size="10.00">basic_json::value</text>
</a>
</g>
</g>
<!-- Node2 -->
<g id="node2" class="node">
<title>Node2</title>
<g id="a_node2"><a xlink:href="namespacedetail.html#a266fb3d4bf633ad6c506434cc91164da" target="_top" xlink:title=" ">
<polygon fill="white" stroke="#666666" points="202.25,-39 127.75,-39 127.75,-19 202.25,-19 202.25,-39"/>
<text text-anchor="middle" x="165" y="-25.5" font-family="Helvetica,sans-Serif" font-size="10.00">detail::concat</text>
</a>
</g>
</g>
<!-- Node1&#45;&gt;Node2 -->
<g id="edge1" class="edge">
<title>Node1&#45;&gt;Node2</title>
<path fill="none" stroke="#63b8ff" d="M92.16,-29C100.03,-29 108.24,-29 116.18,-29"/>
<polygon fill="#63b8ff" stroke="#63b8ff" points="116.03,-32.5 126.03,-29 116.03,-25.5 116.03,-32.5"/>
</g>
<!-- Node3 -->
<g id="node3" class="node">
<title>Node3</title>
<g id="a_node3"><a xlink:href="namespacedetail.html#a89f967b745cf8df11ba9d59f93d97753" target="_top" xlink:title=" ">
<polygon fill="white" stroke="#666666" points="339,-58 243.5,-58 243.5,-38 339,-38 339,-58"/>
<text text-anchor="middle" x="291.25" y="-44.5" font-family="Helvetica,sans-Serif" font-size="10.00">detail::concat_into</text>
</a>
</g>
</g>
<!-- Node2&#45;&gt;Node3 -->
<g id="edge2" class="edge">
<title>Node2&#45;&gt;Node3</title>
<path fill="none" stroke="#63b8ff" d="M202.61,-34.6C211.86,-36.01 222.04,-37.57 232.07,-39.1"/>
<polygon fill="#63b8ff" stroke="#63b8ff" points="231.38,-42.54 241.79,-40.59 232.44,-35.62 231.38,-42.54"/>
</g>
<!-- Node4 -->
<g id="node4" class="node">
<title>Node4</title>
<g id="a_node4"><a xlink:href="namespacedetail.html#ac185140ed8c8fcc07a302a890b714b0d" target="_top" xlink:title=" ">
<polygon fill="white" stroke="#666666" points="344.25,-20 238.25,-20 238.25,0 344.25,0 344.25,-20"/>
<text text-anchor="middle" x="291.25" y="-6.5" font-family="Helvetica,sans-Serif" font-size="10.00">detail::concat_length</text>
</a>
</g>
</g>
<!-- Node2&#45;&gt;Node4 -->
<g id="edge3" class="edge">
<title>Node2&#45;&gt;Node4</title>
<path fill="none" stroke="#63b8ff" d="M202.61,-23.4C210.19,-22.24 218.38,-20.99 226.61,-19.73"/>
<polygon fill="#63b8ff" stroke="#63b8ff" points="226.94,-23.22 236.3,-18.25 225.88,-16.3 226.94,-23.22"/>
</g>
</g>
</svg>
