<?xml version="1.0" encoding="UTF-8" standalone="no"?>
<!DOCTYPE svg PUBLIC "-//W3C//DTD SVG 1.1//EN"
 "http://www.w3.org/Graphics/SVG/1.1/DTD/svg11.dtd">
<!-- Generated by graphviz version 12.2.1 (20241206.2353)
 -->
<!-- Title: detail::out_of_range Pages: 1 -->
<svg width="110pt" height="311pt"
 viewBox="0.00 0.00 109.50 311.00" xmlns="http://www.w3.org/2000/svg" xmlns:xlink="http://www.w3.org/1999/xlink">
<g id="graph0" class="graph" transform="scale(1 1) rotate(0) translate(4 307)">
<title>detail::out_of_range</title>
<!-- Node1 -->
<g id="node1" class="node">
<title>Node1</title>
<g id="a_node1"><a xlink:title="exception indicating access out of the defined range">
<polygon fill="#999999" stroke="#666666" points="0,-0.5 0,-60.5 101.5,-60.5 101.5,-0.5 0,-0.5"/>
<text text-anchor="middle" x="50.75" y="-47" font-family="Helvetica,sans-Serif" font-size="10.00">detail::out_of_range</text>
<polyline fill="none" stroke="#666666" points="0,-40.5 101.5,-40.5"/>
<text text-anchor="middle" x="50.75" y="-27" font-family="Helvetica,sans-Serif" font-size="10.00"> </text>
<polyline fill="none" stroke="#666666" points="0,-20.5 101.5,-20.5"/>
<text text-anchor="start" x="8" y="-7" font-family="Helvetica,sans-Serif" font-size="10.00">+ create()</text>
</a>
</g>
</g>
<!-- Node2 -->
<g id="node2" class="node">
<title>Node2</title>
<g id="a_node2"><a xlink:href="classdetail_1_1exception.html" target="_top" xlink:title="general exception of the basic_json class">
<polygon fill="white" stroke="#666666" points="7.12,-97.5 7.12,-205.5 94.38,-205.5 94.38,-97.5 7.12,-97.5"/>
<text text-anchor="middle" x="50.75" y="-192" font-family="Helvetica,sans-Serif" font-size="10.00">detail::exception</text>
<polyline fill="none" stroke="#666666" points="7.12,-185.5 94.38,-185.5"/>
<text text-anchor="start" x="15.12" y="-172" font-family="Helvetica,sans-Serif" font-size="10.00">+ id</text>
<polyline fill="none" stroke="#666666" points="7.12,-165.5 94.38,-165.5"/>
<text text-anchor="start" x="15.12" y="-152" font-family="Helvetica,sans-Serif" font-size="10.00">+ what()</text>
<text text-anchor="start" x="15.12" y="-140" font-family="Helvetica,sans-Serif" font-size="10.00"># exception()</text>
<text text-anchor="start" x="15.12" y="-128" font-family="Helvetica,sans-Serif" font-size="10.00"># name()</text>
<text text-anchor="start" x="15.12" y="-116" font-family="Helvetica,sans-Serif" font-size="10.00"># diagnostics()</text>
<text text-anchor="start" x="15.12" y="-104" font-family="Helvetica,sans-Serif" font-size="10.00"># diagnostics()</text>
</a>
</g>
</g>
<!-- Node2&#45;&gt;Node1 -->
<g id="edge1" class="edge">
<title>Node2&#45;&gt;Node1</title>
<path fill="none" stroke="#63b8ff" d="M50.75,-85.8C50.75,-77.09 50.75,-68.54 50.75,-60.88"/>
<polygon fill="none" stroke="#63b8ff" points="47.25,-85.75 50.75,-95.75 54.25,-85.75 47.25,-85.75"/>
</g>
<!-- Node3 -->
<g id="node3" class="node">
<title>Node3</title>
<g id="a_node3"><a xlink:title=" ">
<polygon fill="white" stroke="#666666" points="12,-242.5 12,-302.5 89.5,-302.5 89.5,-242.5 12,-242.5"/>
<text text-anchor="middle" x="50.75" y="-289" font-family="Helvetica,sans-Serif" font-size="10.00">std::exception</text>
<polyline fill="none" stroke="#666666" points="12,-282.5 89.5,-282.5"/>
<text text-anchor="middle" x="50.75" y="-269" font-family="Helvetica,sans-Serif" font-size="10.00"> </text>
<polyline fill="none" stroke="#666666" points="12,-262.5 89.5,-262.5"/>
<text text-anchor="middle" x="50.75" y="-249" font-family="Helvetica,sans-Serif" font-size="10.00"> </text>
</a>
</g>
</g>
<!-- Node3&#45;&gt;Node2 -->
<g id="edge2" class="edge">
<title>Node3&#45;&gt;Node2</title>
<path fill="none" stroke="#63b8ff" d="M50.75,-230.72C50.75,-222.66 50.75,-214.09 50.75,-205.69"/>
<polygon fill="none" stroke="#63b8ff" points="47.25,-230.57 50.75,-240.57 54.25,-230.57 47.25,-230.57"/>
</g>
</g>
</svg>
