<?xml version="1.0" encoding="UTF-8" standalone="no"?>
<!DOCTYPE svg PUBLIC "-//W3C//DTD SVG 1.1//EN"
 "http://www.w3.org/Graphics/SVG/1.1/DTD/svg11.dtd">
<!-- Generated by graphviz version 12.2.1 (20241206.2353)
 -->
<!-- Title: detail::exception::diagnostics Pages: 1 -->
<svg width="354pt" height="66pt"
 viewBox="0.00 0.00 353.75 66.00" xmlns="http://www.w3.org/2000/svg" xmlns:xlink="http://www.w3.org/1999/xlink">
<g id="graph0" class="graph" transform="scale(1 1) rotate(0) translate(4 62)">
<title>detail::exception::diagnostics</title>
<!-- Node1 -->
<g id="node1" class="node">
<title>Node1</title>
<g id="a_node1"><a xlink:title=" ">
<polygon fill="#999999" stroke="#666666" points="93.25,-45 0,-45 0,-13 93.25,-13 93.25,-45"/>
<text text-anchor="start" x="8" y="-31.5" font-family="Helvetica,sans-Serif" font-size="10.00">detail::exception::</text>
<text text-anchor="middle" x="46.62" y="-19.5" font-family="Helvetica,sans-Serif" font-size="10.00">diagnostics</text>
</a>
</g>
</g>
<!-- Node2 -->
<g id="node2" class="node">
<title>Node2</title>
<g id="a_node2"><a xlink:href="namespacedetail.html#a266fb3d4bf633ad6c506434cc91164da" target="_top" xlink:title=" ">
<polygon fill="white" stroke="#666666" points="203.75,-39 129.25,-39 129.25,-19 203.75,-19 203.75,-39"/>
<text text-anchor="middle" x="166.5" y="-25.5" font-family="Helvetica,sans-Serif" font-size="10.00">detail::concat</text>
</a>
</g>
</g>
<!-- Node1&#45;&gt;Node2 -->
<g id="edge1" class="edge">
<title>Node1&#45;&gt;Node2</title>
<path fill="none" stroke="#63b8ff" d="M93.54,-29C101.44,-29 109.67,-29 117.63,-29"/>
<polygon fill="#63b8ff" stroke="#63b8ff" points="117.5,-32.5 127.5,-29 117.5,-25.5 117.5,-32.5"/>
</g>
<!-- Node3 -->
<g id="node3" class="node">
<title>Node3</title>
<g id="a_node3"><a xlink:href="namespacedetail.html#a89f967b745cf8df11ba9d59f93d97753" target="_top" xlink:title=" ">
<polygon fill="white" stroke="#666666" points="340.5,-58 245,-58 245,-38 340.5,-38 340.5,-58"/>
<text text-anchor="middle" x="292.75" y="-44.5" font-family="Helvetica,sans-Serif" font-size="10.00">detail::concat_into</text>
</a>
</g>
</g>
<!-- Node2&#45;&gt;Node3 -->
<g id="edge2" class="edge">
<title>Node2&#45;&gt;Node3</title>
<path fill="none" stroke="#63b8ff" d="M204.11,-34.6C213.36,-36.01 223.54,-37.57 233.57,-39.1"/>
<polygon fill="#63b8ff" stroke="#63b8ff" points="232.88,-42.54 243.29,-40.59 233.94,-35.62 232.88,-42.54"/>
</g>
<!-- Node4 -->
<g id="node4" class="node">
<title>Node4</title>
<g id="a_node4"><a xlink:href="namespacedetail.html#ac185140ed8c8fcc07a302a890b714b0d" target="_top" xlink:title=" ">
<polygon fill="white" stroke="#666666" points="345.75,-20 239.75,-20 239.75,0 345.75,0 345.75,-20"/>
<text text-anchor="middle" x="292.75" y="-6.5" font-family="Helvetica,sans-Serif" font-size="10.00">detail::concat_length</text>
</a>
</g>
</g>
<!-- Node2&#45;&gt;Node4 -->
<g id="edge3" class="edge">
<title>Node2&#45;&gt;Node4</title>
<path fill="none" stroke="#63b8ff" d="M204.11,-23.4C211.69,-22.24 219.88,-20.99 228.11,-19.73"/>
<polygon fill="#63b8ff" stroke="#63b8ff" points="228.44,-23.22 237.8,-18.25 227.38,-16.3 228.44,-23.22"/>
</g>
</g>
</svg>
