<?xml version="1.0" encoding="UTF-8" standalone="no"?>
<!DOCTYPE svg PUBLIC "-//W3C//DTD SVG 1.1//EN"
 "http://www.w3.org/Graphics/SVG/1.1/DTD/svg11.dtd">
<!-- Generated by graphviz version 12.2.1 (20241206.2353)
 -->
<!-- Title: basic_json::patch_inplace Pages: 1 -->
<svg width="847pt" height="522pt"
 viewBox="0.00 0.00 846.50 522.00" xmlns="http://www.w3.org/2000/svg" xmlns:xlink="http://www.w3.org/1999/xlink">
<g id="graph0" class="graph" transform="scale(1 1) rotate(0) translate(4 518)">
<title>basic_json::patch_inplace</title>
<!-- Node1 -->
<g id="node1" class="node">
<title>Node1</title>
<g id="a_node1"><a xlink:title="applies a JSON patch in&#45;place without copying the object">
<polygon fill="#999999" stroke="#666666" points="128.5,-267 0,-267 0,-247 128.5,-247 128.5,-267"/>
<text text-anchor="middle" x="64.25" y="-253.5" font-family="Helvetica,sans-Serif" font-size="10.00">basic_json::patch_inplace</text>
</a>
</g>
</g>
<!-- Node2 -->
<g id="node2" class="node">
<title>Node2</title>
<g id="a_node2"><a xlink:href="classbasic__json.html#a899e4623fe377af5c9ad14c40c64280c" target="_top" xlink:title="access specified array element with bounds checking">
<polygon fill="white" stroke="#666666" points="413.25,-476 336.5,-476 336.5,-456 413.25,-456 413.25,-476"/>
<text text-anchor="middle" x="374.88" y="-462.5" font-family="Helvetica,sans-Serif" font-size="10.00">basic_json::at</text>
</a>
</g>
</g>
<!-- Node1&#45;&gt;Node2 -->
<g id="edge1" class="edge">
<title>Node1&#45;&gt;Node2</title>
<path fill="none" stroke="#63b8ff" d="M67.27,-267.22C74.21,-299.28 100.26,-398.4 164.5,-442 211.85,-474.13 279.48,-475.96 324.95,-472.52"/>
<polygon fill="#63b8ff" stroke="#63b8ff" points="325.13,-476.02 334.78,-471.65 324.51,-469.05 325.13,-476.02"/>
</g>
<!-- Node3 -->
<g id="node3" class="node">
<title>Node3</title>
<g id="a_node3"><a xlink:href="namespacedetail.html#a266fb3d4bf633ad6c506434cc91164da" target="_top" xlink:title=" ">
<polygon fill="white" stroke="#666666" points="696.5,-314 622,-314 622,-294 696.5,-294 696.5,-314"/>
<text text-anchor="middle" x="659.25" y="-300.5" font-family="Helvetica,sans-Serif" font-size="10.00">detail::concat</text>
</a>
</g>
</g>
<!-- Node1&#45;&gt;Node3 -->
<g id="edge12" class="edge">
<title>Node1&#45;&gt;Node3</title>
<path fill="none" stroke="#63b8ff" d="M68.2,-267.32C77.08,-296.17 106.57,-377.64 164.5,-409 327.54,-497.26 558.29,-367.95 633.51,-320.38"/>
<polygon fill="#63b8ff" stroke="#63b8ff" points="635.27,-323.41 641.79,-315.06 631.49,-317.52 635.27,-323.41"/>
</g>
<!-- Node6 -->
<g id="node6" class="node">
<title>Node6</title>
<g id="a_node6"><a xlink:href="classjson__pointer.html#aba71e63e4032cfc46dd90aeb09e5cb0f" target="_top" xlink:title="return last reference token">
<polygon fill="white" stroke="#666666" points="270.5,-210 175,-210 175,-190 270.5,-190 270.5,-210"/>
<text text-anchor="middle" x="222.75" y="-196.5" font-family="Helvetica,sans-Serif" font-size="10.00">json_pointer::back</text>
</a>
</g>
</g>
<!-- Node1&#45;&gt;Node6 -->
<g id="edge5" class="edge">
<title>Node1&#45;&gt;Node6</title>
<path fill="none" stroke="#63b8ff" d="M91.67,-246.51C111.6,-238.69 139.65,-227.87 164.5,-219 168.99,-217.4 173.7,-215.76 178.4,-214.16"/>
<polygon fill="#63b8ff" stroke="#63b8ff" points="179.47,-217.49 187.83,-210.98 177.24,-210.85 179.47,-217.49"/>
</g>
<!-- Node10 -->
<g id="node10" class="node">
<title>Node10</title>
<g id="a_node10"><a xlink:href="classbasic__json.html#a5251a08382864af52c854fca1bdba61c" target="_top" xlink:title="returns an iterator to the first element">
<polygon fill="white" stroke="#666666" points="268.62,-400 176.88,-400 176.88,-380 268.62,-380 268.62,-400"/>
<text text-anchor="middle" x="222.75" y="-386.5" font-family="Helvetica,sans-Serif" font-size="10.00">basic_json::begin</text>
</a>
</g>
</g>
<!-- Node1&#45;&gt;Node10 -->
<g id="edge11" class="edge">
<title>Node1&#45;&gt;Node10</title>
<path fill="none" stroke="#63b8ff" d="M71.57,-267.47C85.53,-289.76 121.25,-342.2 164.5,-371 166.47,-372.32 168.55,-373.55 170.69,-374.7"/>
<polygon fill="#63b8ff" stroke="#63b8ff" points="169.14,-377.84 179.69,-378.89 172.1,-371.49 169.14,-377.84"/>
</g>
<!-- Node11 -->
<g id="node11" class="node">
<title>Node11</title>
<g id="a_node11"><a xlink:href="classjson__pointer.html#a5c3d08bd0a0e99c3377db33600c68a64" target="_top" xlink:title="return whether pointer points to the root document">
<polygon fill="white" stroke="#666666" points="273.5,-362 172,-362 172,-342 273.5,-342 273.5,-362"/>
<text text-anchor="middle" x="222.75" y="-348.5" font-family="Helvetica,sans-Serif" font-size="10.00">json_pointer::empty</text>
</a>
</g>
</g>
<!-- Node1&#45;&gt;Node11 -->
<g id="edge13" class="edge">
<title>Node1&#45;&gt;Node11</title>
<path fill="none" stroke="#63b8ff" d="M76.3,-267.48C93.77,-283.56 129.4,-314.42 164.5,-333 167.5,-334.59 170.67,-336.08 173.9,-337.48"/>
<polygon fill="#63b8ff" stroke="#63b8ff" points="172.36,-340.63 182.94,-341.04 174.92,-334.12 172.36,-340.63"/>
</g>
<!-- Node12 -->
<g id="node12" class="node">
<title>Node12</title>
<g id="a_node12"><a xlink:href="classbasic__json.html#a4dbc83213b31a171aa8ba65ff00fa954" target="_top" xlink:title="returns an iterator to one past the last element">
<polygon fill="white" stroke="#666666" points="264.88,-324 180.62,-324 180.62,-304 264.88,-304 264.88,-324"/>
<text text-anchor="middle" x="222.75" y="-310.5" font-family="Helvetica,sans-Serif" font-size="10.00">basic_json::end</text>
</a>
</g>
</g>
<!-- Node1&#45;&gt;Node12 -->
<g id="edge14" class="edge">
<title>Node1&#45;&gt;Node12</title>
<path fill="none" stroke="#63b8ff" d="M93.95,-267.45C118.81,-276.51 154.98,-289.68 182.51,-299.71"/>
<polygon fill="#63b8ff" stroke="#63b8ff" points="180.95,-302.86 191.54,-303 183.34,-296.29 180.95,-302.86"/>
</g>
<!-- Node13 -->
<g id="node13" class="node">
<title>Node13</title>
<g id="a_node13"><a xlink:href="classbasic__json.html#a7d0fef086b1b72372113db6ce7446189" target="_top" xlink:title="remove element given an iterator">
<polygon fill="white" stroke="#666666" points="421.12,-300 328.62,-300 328.62,-280 421.12,-280 421.12,-300"/>
<text text-anchor="middle" x="374.88" y="-286.5" font-family="Helvetica,sans-Serif" font-size="10.00">basic_json::erase</text>
</a>
</g>
</g>
<!-- Node1&#45;&gt;Node13 -->
<g id="edge15" class="edge">
<title>Node1&#45;&gt;Node13</title>
<path fill="none" stroke="#63b8ff" d="M128.82,-263.8C184.22,-269.72 263.83,-278.23 317.12,-283.93"/>
<polygon fill="#63b8ff" stroke="#63b8ff" points="316.58,-287.39 326.9,-284.98 317.33,-280.43 316.58,-287.39"/>
</g>
<!-- Node14 -->
<g id="node14" class="node">
<title>Node14</title>
<g id="a_node14"><a xlink:href="classbasic__json.html#a727e3cfb5a874314d8deb12cb53a8105" target="_top" xlink:title="find an element in a JSON object">
<polygon fill="white" stroke="#666666" points="264.88,-248 180.62,-248 180.62,-228 264.88,-228 264.88,-248"/>
<text text-anchor="middle" x="222.75" y="-234.5" font-family="Helvetica,sans-Serif" font-size="10.00">basic_json::find</text>
</a>
</g>
</g>
<!-- Node1&#45;&gt;Node14 -->
<g id="edge17" class="edge">
<title>Node1&#45;&gt;Node14</title>
<path fill="none" stroke="#63b8ff" d="M128.9,-249.27C142.39,-247.64 156.47,-245.93 169.47,-244.35"/>
<polygon fill="#63b8ff" stroke="#63b8ff" points="169.57,-247.86 179.08,-243.18 168.73,-240.91 169.57,-247.86"/>
</g>
<!-- Node15 -->
<g id="node15" class="node">
<title>Node15</title>
<g id="a_node15"><a xlink:href="classbasic__json.html#a7f3817060c2bec896a99cb2c236b9c27" target="_top" xlink:title="inserts element into array">
<polygon fill="white" stroke="#666666" points="573.62,-104 481.12,-104 481.12,-84 573.62,-84 573.62,-104"/>
<text text-anchor="middle" x="527.38" y="-90.5" font-family="Helvetica,sans-Serif" font-size="10.00">basic_json::insert</text>
</a>
</g>
</g>
<!-- Node1&#45;&gt;Node15 -->
<g id="edge18" class="edge">
<title>Node1&#45;&gt;Node15</title>
<path fill="none" stroke="#63b8ff" d="M66.89,-246.67C72.79,-213.31 96.38,-108.27 164.5,-67 269.64,-3.3 424.76,-52.4 492.57,-79.35"/>
<polygon fill="#63b8ff" stroke="#63b8ff" points="491.07,-82.52 501.66,-83.05 493.71,-76.03 491.07,-82.52"/>
</g>
<!-- Node16 -->
<g id="node16" class="node">
<title>Node16</title>
<g id="a_node16"><a xlink:href="classbasic__json.html#a184ba4a6b47e6da3703af19349bd776f" target="_top" xlink:title="return whether value is an array">
<polygon fill="white" stroke="#666666" points="274.25,-172 171.25,-172 171.25,-152 274.25,-152 274.25,-172"/>
<text text-anchor="middle" x="222.75" y="-158.5" font-family="Helvetica,sans-Serif" font-size="10.00">basic_json::is_array</text>
</a>
</g>
</g>
<!-- Node1&#45;&gt;Node16 -->
<g id="edge20" class="edge">
<title>Node1&#45;&gt;Node16</title>
<path fill="none" stroke="#63b8ff" d="M76.3,-246.52C93.77,-230.44 129.4,-199.58 164.5,-181 167.5,-179.41 170.67,-177.92 173.9,-176.52"/>
<polygon fill="#63b8ff" stroke="#63b8ff" points="174.92,-179.88 182.94,-172.96 172.36,-173.37 174.92,-179.88"/>
</g>
<!-- Node17 -->
<g id="node17" class="node">
<title>Node17</title>
<g id="a_node17"><a xlink:href="classbasic__json.html#af355a2b131068acf3d623eb6d80a711c" target="_top" xlink:title="return whether value is an object">
<polygon fill="white" stroke="#666666" points="276.5,-134 169,-134 169,-114 276.5,-114 276.5,-134"/>
<text text-anchor="middle" x="222.75" y="-120.5" font-family="Helvetica,sans-Serif" font-size="10.00">basic_json::is_object</text>
</a>
</g>
</g>
<!-- Node1&#45;&gt;Node17 -->
<g id="edge21" class="edge">
<title>Node1&#45;&gt;Node17</title>
<path fill="none" stroke="#63b8ff" d="M71.57,-246.53C85.53,-224.24 121.25,-171.8 164.5,-143 166.47,-141.68 168.55,-140.45 170.69,-139.3"/>
<polygon fill="#63b8ff" stroke="#63b8ff" points="172.1,-142.51 179.69,-135.11 169.14,-136.16 172.1,-142.51"/>
</g>
<!-- Node18 -->
<g id="node18" class="node">
<title>Node18</title>
<g id="a_node18"><a xlink:href="classjson__pointer.html#a662118b470c87a1b564946c2602c49ce" target="_top" xlink:title="remove last reference token">
<polygon fill="white" stroke="#666666" points="281,-96 164.5,-96 164.5,-76 281,-76 281,-96"/>
<text text-anchor="middle" x="222.75" y="-82.5" font-family="Helvetica,sans-Serif" font-size="10.00">json_pointer::pop_back</text>
</a>
</g>
</g>
<!-- Node1&#45;&gt;Node18 -->
<g id="edge22" class="edge">
<title>Node1&#45;&gt;Node18</title>
<path fill="none" stroke="#63b8ff" d="M69.09,-246.8C79.82,-219.62 112.82,-144.81 164.5,-105 166.04,-103.81 167.66,-102.7 169.33,-101.65"/>
<polygon fill="#63b8ff" stroke="#63b8ff" points="170.85,-104.81 178.09,-97.08 167.61,-98.6 170.85,-104.81"/>
</g>
<!-- Node19 -->
<g id="node19" class="node">
<title>Node19</title>
<g id="a_node19"><a xlink:href="classbasic__json.html#a3d13acce4e49e0d5ee768643a7b89010" target="_top" xlink:title="add an object to an array">
<polygon fill="white" stroke="#666666" points="432.75,-514 317,-514 317,-494 432.75,-494 432.75,-514"/>
<text text-anchor="middle" x="374.88" y="-500.5" font-family="Helvetica,sans-Serif" font-size="10.00">basic_json::push_back</text>
</a>
</g>
</g>
<!-- Node1&#45;&gt;Node19 -->
<g id="edge24" class="edge">
<title>Node1&#45;&gt;Node19</title>
<path fill="none" stroke="#63b8ff" d="M66.6,-267.44C71.77,-302.79 93.7,-418.74 164.5,-472 204.51,-502.1 261.18,-509.23 305.48,-509.32"/>
<polygon fill="#63b8ff" stroke="#63b8ff" points="305.27,-512.82 315.23,-509.21 305.19,-505.82 305.27,-512.82"/>
</g>
<!-- Node20 -->
<g id="node20" class="node">
<title>Node20</title>
<g id="a_node20"><a xlink:href="classbasic__json.html#a086cbfd1ad4ba83a8127c87467a92f47" target="_top" xlink:title="returns the number of elements">
<polygon fill="white" stroke="#666666" points="266,-20 179.5,-20 179.5,0 266,0 266,-20"/>
<text text-anchor="middle" x="222.75" y="-6.5" font-family="Helvetica,sans-Serif" font-size="10.00">basic_json::size</text>
</a>
</g>
</g>
<!-- Node1&#45;&gt;Node20 -->
<g id="edge26" class="edge">
<title>Node1&#45;&gt;Node20</title>
<path fill="none" stroke="#63b8ff" d="M67.06,-246.58C73.64,-211.7 99.38,-97.72 164.5,-34 167.7,-30.87 171.37,-28.12 175.28,-25.71"/>
<polygon fill="#63b8ff" stroke="#63b8ff" points="176.77,-28.88 183.99,-21.12 173.51,-22.69 176.77,-28.88"/>
</g>
<!-- Node2&#45;&gt;Node3 -->
<g id="edge2" class="edge">
<title>Node2&#45;&gt;Node3</title>
<path fill="none" stroke="#63b8ff" d="M413.65,-471.65C458.75,-476.3 534.52,-477.3 586,-442 626.56,-414.19 645.95,-356.25 653.79,-325.02"/>
<polygon fill="#63b8ff" stroke="#63b8ff" points="657.12,-326.14 655.97,-315.61 650.3,-324.55 657.12,-326.14"/>
</g>
<!-- Node4 -->
<g id="node4" class="node">
<title>Node4</title>
<g id="a_node4"><a xlink:href="namespacedetail.html#a89f967b745cf8df11ba9d59f93d97753" target="_top" xlink:title=" ">
<polygon fill="white" stroke="#666666" points="833.25,-333 737.75,-333 737.75,-313 833.25,-313 833.25,-333"/>
<text text-anchor="middle" x="785.5" y="-319.5" font-family="Helvetica,sans-Serif" font-size="10.00">detail::concat_into</text>
</a>
</g>
</g>
<!-- Node3&#45;&gt;Node4 -->
<g id="edge3" class="edge">
<title>Node3&#45;&gt;Node4</title>
<path fill="none" stroke="#63b8ff" d="M696.86,-309.6C706.11,-311.01 716.29,-312.57 726.32,-314.1"/>
<polygon fill="#63b8ff" stroke="#63b8ff" points="725.63,-317.54 736.04,-315.59 726.69,-310.62 725.63,-317.54"/>
</g>
<!-- Node5 -->
<g id="node5" class="node">
<title>Node5</title>
<g id="a_node5"><a xlink:href="namespacedetail.html#ac185140ed8c8fcc07a302a890b714b0d" target="_top" xlink:title=" ">
<polygon fill="white" stroke="#666666" points="838.5,-295 732.5,-295 732.5,-275 838.5,-275 838.5,-295"/>
<text text-anchor="middle" x="785.5" y="-281.5" font-family="Helvetica,sans-Serif" font-size="10.00">detail::concat_length</text>
</a>
</g>
</g>
<!-- Node3&#45;&gt;Node5 -->
<g id="edge4" class="edge">
<title>Node3&#45;&gt;Node5</title>
<path fill="none" stroke="#63b8ff" d="M696.86,-298.4C704.44,-297.24 712.63,-295.99 720.86,-294.73"/>
<polygon fill="#63b8ff" stroke="#63b8ff" points="721.19,-298.22 730.55,-293.25 720.13,-291.3 721.19,-298.22"/>
</g>
<!-- Node7 -->
<g id="node7" class="node">
<title>Node7</title>
<g id="a_node7"><a xlink:href="classdetail_1_1out__of__range.html#a79ea0d3ec02a853629dc827e045ecff5" target="_top" xlink:title=" ">
<polygon fill="white" stroke="#666666" points="425.62,-216 324.12,-216 324.12,-184 425.62,-184 425.62,-216"/>
<text text-anchor="start" x="332.12" y="-202.5" font-family="Helvetica,sans-Serif" font-size="10.00">detail::out_of_range</text>
<text text-anchor="middle" x="374.88" y="-190.5" font-family="Helvetica,sans-Serif" font-size="10.00">::create</text>
</a>
</g>
</g>
<!-- Node6&#45;&gt;Node7 -->
<g id="edge6" class="edge">
<title>Node6&#45;&gt;Node7</title>
<path fill="none" stroke="#63b8ff" d="M270.84,-200C284.01,-200 298.51,-200 312.38,-200"/>
<polygon fill="#63b8ff" stroke="#63b8ff" points="312.32,-203.5 322.32,-200 312.32,-196.5 312.32,-203.5"/>
</g>
<!-- Node7&#45;&gt;Node3 -->
<g id="edge7" class="edge">
<title>Node7&#45;&gt;Node3</title>
<path fill="none" stroke="#63b8ff" d="M425.74,-186.39C470.42,-177.08 536.39,-170.64 586,-197 620.16,-215.15 641.1,-257.45 651.11,-283.1"/>
<polygon fill="#63b8ff" stroke="#63b8ff" points="647.7,-283.96 654.44,-292.14 654.27,-281.55 647.7,-283.96"/>
</g>
<!-- Node8 -->
<g id="node8" class="node">
<title>Node8</title>
<g id="a_node8"><a xlink:href="classdetail_1_1exception.html#a6b4a786b5c1c25dd3edaceb1bf2d5120" target="_top" xlink:title=" ">
<polygon fill="white" stroke="#666666" points="574,-238 480.75,-238 480.75,-206 574,-206 574,-238"/>
<text text-anchor="start" x="488.75" y="-224.5" font-family="Helvetica,sans-Serif" font-size="10.00">detail::exception::</text>
<text text-anchor="middle" x="527.38" y="-212.5" font-family="Helvetica,sans-Serif" font-size="10.00">diagnostics</text>
</a>
</g>
</g>
<!-- Node7&#45;&gt;Node8 -->
<g id="edge8" class="edge">
<title>Node7&#45;&gt;Node8</title>
<path fill="none" stroke="#63b8ff" d="M425.99,-207.33C439.82,-209.35 454.93,-211.56 469.14,-213.63"/>
<polygon fill="#63b8ff" stroke="#63b8ff" points="468.39,-217.06 478.79,-215.04 469.4,-210.13 468.39,-217.06"/>
</g>
<!-- Node9 -->
<g id="node9" class="node">
<title>Node9</title>
<g id="a_node9"><a xlink:href="classdetail_1_1exception.html#a8f1eb56b9964c8dd84d89d0da98d883b" target="_top" xlink:title=" ">
<polygon fill="white" stroke="#666666" points="586,-276 468.75,-276 468.75,-256 586,-256 586,-276"/>
<text text-anchor="middle" x="527.38" y="-262.5" font-family="Helvetica,sans-Serif" font-size="10.00">detail::exception::name</text>
</a>
</g>
</g>
<!-- Node7&#45;&gt;Node9 -->
<g id="edge9" class="edge">
<title>Node7&#45;&gt;Node9</title>
<path fill="none" stroke="#63b8ff" d="M405.46,-216.4C423.44,-226.01 447.05,-237.99 468.75,-247 472.79,-248.68 477.04,-250.31 481.33,-251.87"/>
<polygon fill="#63b8ff" stroke="#63b8ff" points="479.91,-255.09 490.51,-255.08 482.22,-248.48 479.91,-255.09"/>
</g>
<!-- Node9&#45;&gt;Node3 -->
<g id="edge10" class="edge">
<title>Node9&#45;&gt;Node3</title>
<path fill="none" stroke="#63b8ff" d="M564.21,-276.48C578.83,-280.76 595.93,-285.77 611.51,-290.33"/>
<polygon fill="#63b8ff" stroke="#63b8ff" points="610.5,-293.68 621.08,-293.12 612.47,-286.96 610.5,-293.68"/>
</g>
<!-- Node13&#45;&gt;Node3 -->
<g id="edge16" class="edge">
<title>Node13&#45;&gt;Node3</title>
<path fill="none" stroke="#63b8ff" d="M421.56,-292.26C473.36,-294.83 557.47,-299 610.22,-301.62"/>
<polygon fill="#63b8ff" stroke="#63b8ff" points="609.96,-305.11 620.12,-302.11 610.3,-298.12 609.96,-305.11"/>
</g>
<!-- Node15&#45;&gt;Node3 -->
<g id="edge19" class="edge">
<title>Node15&#45;&gt;Node3</title>
<path fill="none" stroke="#63b8ff" d="M538.1,-104.36C550.21,-117.56 571.1,-141.39 586,-164 612.47,-204.17 636.67,-255.22 649.23,-283.25"/>
<polygon fill="#63b8ff" stroke="#63b8ff" points="646.01,-284.63 653.25,-292.36 652.41,-281.8 646.01,-284.63"/>
</g>
<!-- Node18&#45;&gt;Node7 -->
<g id="edge23" class="edge">
<title>Node18&#45;&gt;Node7</title>
<path fill="none" stroke="#63b8ff" d="M263.37,-96.38C269.5,-98.76 275.58,-101.61 281,-105 310.65,-123.53 337.74,-153.42 354.92,-174.72"/>
<polygon fill="#63b8ff" stroke="#63b8ff" points="352,-176.67 360.93,-182.36 357.5,-172.34 352,-176.67"/>
</g>
<!-- Node19&#45;&gt;Node3 -->
<g id="edge25" class="edge">
<title>Node19&#45;&gt;Node3</title>
<path fill="none" stroke="#63b8ff" d="M432.98,-509.54C478.88,-510.91 542.64,-505.51 586,-472 633.19,-435.53 650.03,-362.12 655.65,-325.62"/>
<polygon fill="#63b8ff" stroke="#63b8ff" points="659.09,-326.26 656.99,-315.87 652.16,-325.3 659.09,-326.26"/>
</g>
</g>
</svg>
