<?xml version="1.0" encoding="UTF-8" standalone="no"?>
<!DOCTYPE svg PUBLIC "-//W3C//DTD SVG 1.1//EN"
 "http://www.w3.org/Graphics/SVG/1.1/DTD/svg11.dtd">
<!-- Generated by graphviz version 12.2.1 (20241206.2353)
 -->
<!-- Title: TurnManager::processNPCPhase Pages: 1 -->
<svg width="829pt" height="134pt"
 viewBox="0.00 0.00 829.00 134.00" xmlns="http://www.w3.org/2000/svg" xmlns:xlink="http://www.w3.org/1999/xlink">
<g id="graph0" class="graph" transform="scale(1 1) rotate(0) translate(4 130)">
<title>TurnManager::processNPCPhase</title>
<!-- Node1 -->
<g id="node1" class="node">
<title>Node1</title>
<g id="a_node1"><a xlink:title=" ">
<polygon fill="#999999" stroke="#666666" points="163,-48 0,-48 0,-28 163,-28 163,-48"/>
<text text-anchor="middle" x="81.5" y="-34.5" font-family="Helvetica,sans-Serif" font-size="10.00">TurnManager::processNPCPhase</text>
</a>
</g>
</g>
<!-- Node2 -->
<g id="node2" class="node">
<title>Node2</title>
<g id="a_node2"><a xlink:href="classTurnManager.html#af0af68eda36f0eb00ab1c0a497dea311" target="_top" xlink:title=" ">
<polygon fill="white" stroke="#666666" points="346.25,-54 199,-54 199,-22 346.25,-22 346.25,-54"/>
<text text-anchor="start" x="207" y="-40.5" font-family="Helvetica,sans-Serif" font-size="10.00">TurnManager::advanceToNext</text>
<text text-anchor="middle" x="272.62" y="-28.5" font-family="Helvetica,sans-Serif" font-size="10.00">Phase</text>
</a>
</g>
</g>
<!-- Node1&#45;&gt;Node2 -->
<g id="edge1" class="edge">
<title>Node1&#45;&gt;Node2</title>
<path fill="none" stroke="#63b8ff" d="M163.25,-38C171.24,-38 179.36,-38 187.37,-38"/>
<polygon fill="#63b8ff" stroke="#63b8ff" points="187.11,-41.5 197.11,-38 187.11,-34.5 187.11,-41.5"/>
</g>
<!-- Node3 -->
<g id="node3" class="node">
<title>Node3</title>
<g id="a_node3"><a xlink:href="classTurnManager.html#ade74a1914a24f832b30252cff34668bf" target="_top" xlink:title=" ">
<polygon fill="white" stroke="#666666" points="496.5,-68 382.25,-68 382.25,-48 496.5,-48 496.5,-68"/>
<text text-anchor="middle" x="439.38" y="-54.5" font-family="Helvetica,sans-Serif" font-size="10.00">TurnManager::endTurn</text>
</a>
</g>
</g>
<!-- Node2&#45;&gt;Node3 -->
<g id="edge2" class="edge">
<title>Node2&#45;&gt;Node3</title>
<path fill="none" stroke="#63b8ff" d="M346.37,-46.83C354.45,-47.81 362.66,-48.81 370.68,-49.78"/>
<polygon fill="#63b8ff" stroke="#63b8ff" points="370.01,-53.23 380.35,-50.96 370.85,-46.28 370.01,-53.23"/>
</g>
<!-- Node6 -->
<g id="node6" class="node">
<title>Node6</title>
<g id="a_node6"><a xlink:href="classTurnManager.html#af1bba901d1410ce5418213270b5388cd" target="_top" xlink:title=" ">
<polygon fill="white" stroke="#666666" points="653.88,-26 535.88,-26 535.88,-6 653.88,-6 653.88,-26"/>
<text text-anchor="middle" x="594.88" y="-12.5" font-family="Helvetica,sans-Serif" font-size="10.00">TurnManager::startTurn</text>
</a>
</g>
</g>
<!-- Node2&#45;&gt;Node6 -->
<g id="edge7" class="edge">
<title>Node2&#45;&gt;Node6</title>
<path fill="none" stroke="#63b8ff" d="M346.7,-32.98C400.01,-29.32 471.83,-24.38 524.31,-20.78"/>
<polygon fill="#63b8ff" stroke="#63b8ff" points="524.29,-24.29 534.02,-20.11 523.81,-17.31 524.29,-24.29"/>
</g>
<!-- Node4 -->
<g id="node4" class="node">
<title>Node4</title>
<g id="a_node4"><a xlink:href="classActionFormationManager.html#ab6c97337bf2f94a7c2f16957b4b04b63" target="_top" xlink:title=" ">
<polygon fill="white" stroke="#666666" points="657.25,-126 532.5,-126 532.5,-94 657.25,-94 657.25,-126"/>
<text text-anchor="start" x="540.5" y="-112.5" font-family="Helvetica,sans-Serif" font-size="10.00">ActionFormationManager</text>
<text text-anchor="middle" x="594.88" y="-100.5" font-family="Helvetica,sans-Serif" font-size="10.00">::cancelFormation</text>
</a>
</g>
</g>
<!-- Node3&#45;&gt;Node4 -->
<g id="edge3" class="edge">
<title>Node3&#45;&gt;Node4</title>
<path fill="none" stroke="#63b8ff" d="M471.07,-68.4C489.26,-74.56 512.92,-82.58 534.61,-89.92"/>
<polygon fill="#63b8ff" stroke="#63b8ff" points="533.38,-93.2 543.97,-93.09 535.62,-86.57 533.38,-93.2"/>
</g>
<!-- Node5 -->
<g id="node5" class="node">
<title>Node5</title>
<g id="a_node5"><a xlink:href="classActionFormationManager.html#a496649a3ab5ac5f173239d18857b6065" target="_top" xlink:title=" ">
<polygon fill="white" stroke="#666666" points="657.25,-76 532.5,-76 532.5,-44 657.25,-44 657.25,-76"/>
<text text-anchor="start" x="540.5" y="-62.5" font-family="Helvetica,sans-Serif" font-size="10.00">ActionFormationManager</text>
<text text-anchor="middle" x="594.88" y="-50.5" font-family="Helvetica,sans-Serif" font-size="10.00">::isFormationInProgress</text>
</a>
</g>
</g>
<!-- Node3&#45;&gt;Node5 -->
<g id="edge4" class="edge">
<title>Node3&#45;&gt;Node5</title>
<path fill="none" stroke="#63b8ff" d="M496.66,-58.73C504.51,-58.84 512.67,-58.94 520.78,-59.05"/>
<polygon fill="#63b8ff" stroke="#63b8ff" points="520.6,-62.55 530.65,-59.18 520.69,-55.55 520.6,-62.55"/>
</g>
<!-- Node3&#45;&gt;Node6 -->
<g id="edge5" class="edge">
<title>Node3&#45;&gt;Node6</title>
<path fill="none" stroke="#63b8ff" d="M478.71,-47.51C498.75,-42.03 523.5,-35.26 544.91,-29.4"/>
<polygon fill="#63b8ff" stroke="#63b8ff" points="545.58,-32.84 554.3,-26.83 543.73,-26.09 545.58,-32.84"/>
</g>
<!-- Node7 -->
<g id="node7" class="node">
<title>Node7</title>
<g id="a_node7"><a xlink:href="classActionResolutionManager.html#ab0df536666191614ab0d1b1fd4c87610" target="_top" xlink:title=" ">
<polygon fill="white" stroke="#666666" points="821,-32 693.25,-32 693.25,0 821,0 821,-32"/>
<text text-anchor="start" x="701.25" y="-18.5" font-family="Helvetica,sans-Serif" font-size="10.00">ActionResolutionManager</text>
<text text-anchor="middle" x="757.12" y="-6.5" font-family="Helvetica,sans-Serif" font-size="10.00">::processFutureActions</text>
</a>
</g>
</g>
<!-- Node6&#45;&gt;Node7 -->
<g id="edge6" class="edge">
<title>Node6&#45;&gt;Node7</title>
<path fill="none" stroke="#63b8ff" d="M654.18,-16C663.15,-16 672.52,-16 681.78,-16"/>
<polygon fill="#63b8ff" stroke="#63b8ff" points="681.48,-19.5 691.48,-16 681.48,-12.5 681.48,-19.5"/>
</g>
</g>
</svg>
