<?xml version="1.0" encoding="UTF-8" standalone="no"?>
<!DOCTYPE svg PUBLIC "-//W3C//DTD SVG 1.1//EN"
 "http://www.w3.org/Graphics/SVG/1.1/DTD/svg11.dtd">
<!-- Generated by graphviz version 12.2.1 (20241206.2353)
 -->
<!-- Title: detail::binary_writer::write_bson Pages: 1 -->
<svg width="361pt" height="66pt"
 viewBox="0.00 0.00 361.25 66.00" xmlns="http://www.w3.org/2000/svg" xmlns:xlink="http://www.w3.org/1999/xlink">
<g id="graph0" class="graph" transform="scale(1 1) rotate(0) translate(4 62)">
<title>detail::binary_writer::write_bson</title>
<!-- Node1 -->
<g id="node1" class="node">
<title>Node1</title>
<g id="a_node1"><a xlink:title=" ">
<polygon fill="#999999" stroke="#666666" points="100.75,-45 0,-45 0,-13 100.75,-13 100.75,-45"/>
<text text-anchor="start" x="8" y="-31.5" font-family="Helvetica,sans-Serif" font-size="10.00">detail::binary_writer</text>
<text text-anchor="middle" x="50.38" y="-19.5" font-family="Helvetica,sans-Serif" font-size="10.00">::write_bson</text>
</a>
</g>
</g>
<!-- Node2 -->
<g id="node2" class="node">
<title>Node2</title>
<g id="a_node2"><a xlink:href="namespacedetail.html#a266fb3d4bf633ad6c506434cc91164da" target="_top" xlink:title=" ">
<polygon fill="white" stroke="#666666" points="211.25,-39 136.75,-39 136.75,-19 211.25,-19 211.25,-39"/>
<text text-anchor="middle" x="174" y="-25.5" font-family="Helvetica,sans-Serif" font-size="10.00">detail::concat</text>
</a>
</g>
</g>
<!-- Node1&#45;&gt;Node2 -->
<g id="edge1" class="edge">
<title>Node1&#45;&gt;Node2</title>
<path fill="none" stroke="#63b8ff" d="M101.2,-29C109.13,-29 117.32,-29 125.21,-29"/>
<polygon fill="#63b8ff" stroke="#63b8ff" points="124.96,-32.5 134.96,-29 124.96,-25.5 124.96,-32.5"/>
</g>
<!-- Node3 -->
<g id="node3" class="node">
<title>Node3</title>
<g id="a_node3"><a xlink:href="namespacedetail.html#a89f967b745cf8df11ba9d59f93d97753" target="_top" xlink:title=" ">
<polygon fill="white" stroke="#666666" points="348,-58 252.5,-58 252.5,-38 348,-38 348,-58"/>
<text text-anchor="middle" x="300.25" y="-44.5" font-family="Helvetica,sans-Serif" font-size="10.00">detail::concat_into</text>
</a>
</g>
</g>
<!-- Node2&#45;&gt;Node3 -->
<g id="edge2" class="edge">
<title>Node2&#45;&gt;Node3</title>
<path fill="none" stroke="#63b8ff" d="M211.61,-34.6C220.86,-36.01 231.04,-37.57 241.07,-39.1"/>
<polygon fill="#63b8ff" stroke="#63b8ff" points="240.38,-42.54 250.79,-40.59 241.44,-35.62 240.38,-42.54"/>
</g>
<!-- Node4 -->
<g id="node4" class="node">
<title>Node4</title>
<g id="a_node4"><a xlink:href="namespacedetail.html#ac185140ed8c8fcc07a302a890b714b0d" target="_top" xlink:title=" ">
<polygon fill="white" stroke="#666666" points="353.25,-20 247.25,-20 247.25,0 353.25,0 353.25,-20"/>
<text text-anchor="middle" x="300.25" y="-6.5" font-family="Helvetica,sans-Serif" font-size="10.00">detail::concat_length</text>
</a>
</g>
</g>
<!-- Node2&#45;&gt;Node4 -->
<g id="edge3" class="edge">
<title>Node2&#45;&gt;Node4</title>
<path fill="none" stroke="#63b8ff" d="M211.61,-23.4C219.19,-22.24 227.38,-20.99 235.61,-19.73"/>
<polygon fill="#63b8ff" stroke="#63b8ff" points="235.94,-23.22 245.3,-18.25 234.88,-16.3 235.94,-23.22"/>
</g>
</g>
</svg>
