<?xml version="1.0" encoding="UTF-8" standalone="no"?>
<!DOCTYPE svg PUBLIC "-//W3C//DTD SVG 1.1//EN"
 "http://www.w3.org/Graphics/SVG/1.1/DTD/svg11.dtd">
<!-- Generated by graphviz version 12.2.1 (20241206.2353)
 -->
<!-- Title: detail::out_of_range::create Pages: 1 -->
<svg width="555pt" height="78pt"
 viewBox="0.00 0.00 555.00 78.00" xmlns="http://www.w3.org/2000/svg" xmlns:xlink="http://www.w3.org/1999/xlink">
<g id="graph0" class="graph" transform="scale(1 1) rotate(0) translate(4 74)">
<title>detail::out_of_range::create</title>
<!-- Node1 -->
<g id="node1" class="node">
<title>Node1</title>
<g id="a_node1"><a xlink:title=" ">
<polygon fill="#999999" stroke="#666666" points="547,-57 445.5,-57 445.5,-25 547,-25 547,-57"/>
<text text-anchor="start" x="453.5" y="-43.5" font-family="Helvetica,sans-Serif" font-size="10.00">detail::out_of_range</text>
<text text-anchor="middle" x="496.25" y="-31.5" font-family="Helvetica,sans-Serif" font-size="10.00">::create</text>
</a>
</g>
</g>
<!-- Node2 -->
<g id="node2" class="node">
<title>Node2</title>
<g id="a_node2"><a xlink:href="classjson__pointer.html#aba71e63e4032cfc46dd90aeb09e5cb0f" target="_top" xlink:title="return last reference token">
<polygon fill="white" stroke="#666666" points="399,-70 303.5,-70 303.5,-50 399,-50 399,-70"/>
<text text-anchor="middle" x="351.25" y="-56.5" font-family="Helvetica,sans-Serif" font-size="10.00">json_pointer::back</text>
</a>
</g>
</g>
<!-- Node1&#45;&gt;Node2 -->
<g id="edge1" class="edge">
<title>Node1&#45;&gt;Node2</title>
<path fill="none" stroke="#63b8ff" d="M434.15,-49.12C422.42,-50.68 410.31,-52.29 399.12,-53.77"/>
<polygon fill="#63b8ff" stroke="#63b8ff" points="434.28,-52.63 443.74,-47.84 433.36,-45.69 434.28,-52.63"/>
</g>
<!-- Node5 -->
<g id="node5" class="node">
<title>Node5</title>
<g id="a_node5"><a xlink:href="classjson__pointer.html#a662118b470c87a1b564946c2602c49ce" target="_top" xlink:title="remove last reference token">
<polygon fill="white" stroke="#666666" points="409.5,-32 293,-32 293,-12 409.5,-12 409.5,-32"/>
<text text-anchor="middle" x="351.25" y="-18.5" font-family="Helvetica,sans-Serif" font-size="10.00">json_pointer::pop_back</text>
</a>
</g>
</g>
<!-- Node1&#45;&gt;Node5 -->
<g id="edge4" class="edge">
<title>Node1&#45;&gt;Node5</title>
<path fill="none" stroke="#63b8ff" d="M434.04,-32.87C426.01,-31.8 417.8,-30.71 409.83,-29.65"/>
<polygon fill="#63b8ff" stroke="#63b8ff" points="433.36,-36.31 443.74,-34.16 434.28,-29.37 433.36,-36.31"/>
</g>
<!-- Node3 -->
<g id="node3" class="node">
<title>Node3</title>
<g id="a_node3"><a xlink:href="classbasic__json.html#a693812b31e106dec9166e93d8f6dd7d7" target="_top" xlink:title="applies a JSON patch in&#45;place without copying the object">
<polygon fill="white" stroke="#666666" points="257,-70 128.5,-70 128.5,-50 257,-50 257,-70"/>
<text text-anchor="middle" x="192.75" y="-56.5" font-family="Helvetica,sans-Serif" font-size="10.00">basic_json::patch_inplace</text>
</a>
</g>
</g>
<!-- Node2&#45;&gt;Node3 -->
<g id="edge2" class="edge">
<title>Node2&#45;&gt;Node3</title>
<path fill="none" stroke="#63b8ff" d="M291.86,-60C280.64,-60 268.84,-60 257.46,-60"/>
<polygon fill="#63b8ff" stroke="#63b8ff" points="291.78,-63.5 301.78,-60 291.78,-56.5 291.78,-63.5"/>
</g>
<!-- Node4 -->
<g id="node4" class="node">
<title>Node4</title>
<g id="a_node4"><a xlink:href="classbasic__json.html#a145a004c0a2fa5be84b260ecc98ab5d9" target="_top" xlink:title="applies a JSON patch to a copy of the current object">
<polygon fill="white" stroke="#666666" points="92.5,-70 0,-70 0,-50 92.5,-50 92.5,-70"/>
<text text-anchor="middle" x="46.25" y="-56.5" font-family="Helvetica,sans-Serif" font-size="10.00">basic_json::patch</text>
</a>
</g>
</g>
<!-- Node3&#45;&gt;Node4 -->
<g id="edge3" class="edge">
<title>Node3&#45;&gt;Node4</title>
<path fill="none" stroke="#63b8ff" d="M117.08,-60C108.79,-60 100.55,-60 92.78,-60"/>
<polygon fill="#63b8ff" stroke="#63b8ff" points="116.86,-63.5 126.86,-60 116.86,-56.5 116.86,-63.5"/>
</g>
<!-- Node5&#45;&gt;Node3 -->
<g id="edge6" class="edge">
<title>Node5&#45;&gt;Node3</title>
<path fill="none" stroke="#63b8ff" d="M295.96,-35.18C276.6,-39.88 255.07,-45.11 236.79,-49.55"/>
<polygon fill="#63b8ff" stroke="#63b8ff" points="296.71,-38.6 305.6,-32.84 295.06,-31.8 296.71,-38.6"/>
</g>
<!-- Node6 -->
<g id="node6" class="node">
<title>Node6</title>
<g id="a_node6"><a xlink:href="classjson__pointer.html#aa03c0c1206e171342d27a4583258858b" target="_top" xlink:title="returns the parent of this JSON pointer">
<polygon fill="white" stroke="#666666" points="243.5,-32 142,-32 142,0 243.5,0 243.5,-32"/>
<text text-anchor="start" x="150" y="-18.5" font-family="Helvetica,sans-Serif" font-size="10.00">json_pointer::parent</text>
<text text-anchor="middle" x="192.75" y="-6.5" font-family="Helvetica,sans-Serif" font-size="10.00">_pointer</text>
</a>
</g>
</g>
<!-- Node5&#45;&gt;Node6 -->
<g id="edge5" class="edge">
<title>Node5&#45;&gt;Node6</title>
<path fill="none" stroke="#63b8ff" d="M281.41,-19.36C268.79,-18.88 255.84,-18.38 243.9,-17.92"/>
<polygon fill="#63b8ff" stroke="#63b8ff" points="281.22,-22.86 291.35,-19.74 281.49,-15.86 281.22,-22.86"/>
</g>
</g>
</svg>
