<?xml version="1.0" encoding="UTF-8" standalone="no"?>
<!DOCTYPE svg PUBLIC "-//W3C//DTD SVG 1.1//EN"
 "http://www.w3.org/Graphics/SVG/1.1/DTD/svg11.dtd">
<!-- Generated by graphviz version 12.2.1 (20241206.2353)
 -->
<!-- Title: SceneCombat::sLoadSemanticRelations Pages: 1 -->
<svg width="475pt" height="40pt"
 viewBox="0.00 0.00 475.25 40.00" xmlns="http://www.w3.org/2000/svg" xmlns:xlink="http://www.w3.org/1999/xlink">
<g id="graph0" class="graph" transform="scale(1 1) rotate(0) translate(4 36)">
<title>SceneCombat::sLoadSemanticRelations</title>
<!-- Node1 -->
<g id="node1" class="node">
<title>Node1</title>
<g id="a_node1"><a xlink:title=" ">
<polygon fill="#999999" stroke="#666666" points="467.25,-32 315.5,-32 315.5,0 467.25,0 467.25,-32"/>
<text text-anchor="start" x="323.5" y="-18.5" font-family="Helvetica,sans-Serif" font-size="10.00">SceneCombat::sLoadSemantic</text>
<text text-anchor="middle" x="391.38" y="-6.5" font-family="Helvetica,sans-Serif" font-size="10.00">Relations</text>
</a>
</g>
</g>
<!-- Node2 -->
<g id="node2" class="node">
<title>Node2</title>
<g id="a_node2"><a xlink:href="classSceneCombat.html#ae2d70c8aaf0342c04a50623fc5839b3d" target="_top" xlink:title=" ">
<polygon fill="white" stroke="#666666" points="279.5,-26 182.5,-26 182.5,-6 279.5,-6 279.5,-26"/>
<text text-anchor="middle" x="231" y="-12.5" font-family="Helvetica,sans-Serif" font-size="10.00">SceneCombat::init</text>
</a>
</g>
</g>
<!-- Node1&#45;&gt;Node2 -->
<g id="edge1" class="edge">
<title>Node1&#45;&gt;Node2</title>
<path fill="none" stroke="#63b8ff" d="M303.97,-16C295.63,-16 287.4,-16 279.66,-16"/>
<polygon fill="#63b8ff" stroke="#63b8ff" points="303.85,-19.5 313.85,-16 303.85,-12.5 303.85,-19.5"/>
</g>
<!-- Node3 -->
<g id="node3" class="node">
<title>Node3</title>
<g id="a_node3"><a xlink:href="classSceneCombat.html#a11322c5c131a823eeee0caea2caea587" target="_top" xlink:title=" ">
<polygon fill="white" stroke="#666666" points="146.5,-26 0,-26 0,-6 146.5,-6 146.5,-26"/>
<text text-anchor="middle" x="73.25" y="-12.5" font-family="Helvetica,sans-Serif" font-size="10.00">SceneCombat::SceneCombat</text>
</a>
</g>
</g>
<!-- Node2&#45;&gt;Node3 -->
<g id="edge2" class="edge">
<title>Node2&#45;&gt;Node3</title>
<path fill="none" stroke="#63b8ff" d="M171.05,-16C163.11,-16 154.91,-16 146.77,-16"/>
<polygon fill="#63b8ff" stroke="#63b8ff" points="170.91,-19.5 180.91,-16 170.91,-12.5 170.91,-19.5"/>
</g>
</g>
</svg>
