<?xml version="1.0" encoding="UTF-8" standalone="no"?>
<!DOCTYPE svg PUBLIC "-//W3C//DTD SVG 1.1//EN"
 "http://www.w3.org/Graphics/SVG/1.1/DTD/svg11.dtd">
<!-- Generated by graphviz version 12.2.1 (20241206.2353)
 -->
<!-- Title: json_pointer::back Pages: 1 -->
<svg width="647pt" height="93pt"
 viewBox="0.00 0.00 646.75 93.16" xmlns="http://www.w3.org/2000/svg" xmlns:xlink="http://www.w3.org/1999/xlink">
<g id="graph0" class="graph" transform="scale(1 1) rotate(0) translate(4 89.16)">
<title>json_pointer::back</title>
<!-- Node1 -->
<g id="node1" class="node">
<title>Node1</title>
<g id="a_node1"><a xlink:title="return last reference token">
<polygon fill="#999999" stroke="#666666" points="95.5,-64 0,-64 0,-44 95.5,-44 95.5,-64"/>
<text text-anchor="middle" x="47.75" y="-50.5" font-family="Helvetica,sans-Serif" font-size="10.00">json_pointer::back</text>
</a>
</g>
</g>
<!-- Node2 -->
<g id="node2" class="node">
<title>Node2</title>
<g id="a_node2"><a xlink:href="classdetail_1_1out__of__range.html#a79ea0d3ec02a853629dc827e045ecff5" target="_top" xlink:title=" ">
<polygon fill="white" stroke="#666666" points="233,-70 131.5,-70 131.5,-38 233,-38 233,-70"/>
<text text-anchor="start" x="139.5" y="-56.5" font-family="Helvetica,sans-Serif" font-size="10.00">detail::out_of_range</text>
<text text-anchor="middle" x="182.25" y="-44.5" font-family="Helvetica,sans-Serif" font-size="10.00">::create</text>
</a>
</g>
</g>
<!-- Node1&#45;&gt;Node2 -->
<g id="edge1" class="edge">
<title>Node1&#45;&gt;Node2</title>
<path fill="none" stroke="#63b8ff" d="M95.84,-54C103.62,-54 111.8,-54 119.87,-54"/>
<polygon fill="#63b8ff" stroke="#63b8ff" points="119.66,-57.5 129.66,-54 119.66,-50.5 119.66,-57.5"/>
</g>
<!-- Node3 -->
<g id="node3" class="node">
<title>Node3</title>
<g id="a_node3"><a xlink:href="namespacedetail.html#a266fb3d4bf633ad6c506434cc91164da" target="_top" xlink:title=" ">
<polygon fill="white" stroke="#666666" points="496.75,-64 422.25,-64 422.25,-44 496.75,-44 496.75,-64"/>
<text text-anchor="middle" x="459.5" y="-50.5" font-family="Helvetica,sans-Serif" font-size="10.00">detail::concat</text>
</a>
</g>
</g>
<!-- Node2&#45;&gt;Node3 -->
<g id="edge2" class="edge">
<title>Node2&#45;&gt;Node3</title>
<path fill="none" stroke="#63b8ff" d="M230.8,-70.46C243.09,-73.99 256.41,-77.2 269,-79 320.59,-86.37 334.86,-87.64 386.25,-79 398.95,-76.87 412.39,-72.76 424.2,-68.48"/>
<polygon fill="#63b8ff" stroke="#63b8ff" points="425.43,-71.76 433.53,-64.93 422.94,-65.22 425.43,-71.76"/>
</g>
<!-- Node6 -->
<g id="node6" class="node">
<title>Node6</title>
<g id="a_node6"><a xlink:href="classdetail_1_1exception.html#a6b4a786b5c1c25dd3edaceb1bf2d5120" target="_top" xlink:title=" ">
<polygon fill="white" stroke="#666666" points="374.25,-70 281,-70 281,-38 374.25,-38 374.25,-70"/>
<text text-anchor="start" x="289" y="-56.5" font-family="Helvetica,sans-Serif" font-size="10.00">detail::exception::</text>
<text text-anchor="middle" x="327.62" y="-44.5" font-family="Helvetica,sans-Serif" font-size="10.00">diagnostics</text>
</a>
</g>
</g>
<!-- Node2&#45;&gt;Node6 -->
<g id="edge5" class="edge">
<title>Node2&#45;&gt;Node6</title>
<path fill="none" stroke="#63b8ff" d="M233.4,-54C245.02,-54 257.48,-54 269.39,-54"/>
<polygon fill="#63b8ff" stroke="#63b8ff" points="269.07,-57.5 279.07,-54 269.07,-50.5 269.07,-57.5"/>
</g>
<!-- Node7 -->
<g id="node7" class="node">
<title>Node7</title>
<g id="a_node7"><a xlink:href="classdetail_1_1exception.html#a8f1eb56b9964c8dd84d89d0da98d883b" target="_top" xlink:title=" ">
<polygon fill="white" stroke="#666666" points="386.25,-20 269,-20 269,0 386.25,0 386.25,-20"/>
<text text-anchor="middle" x="327.62" y="-6.5" font-family="Helvetica,sans-Serif" font-size="10.00">detail::exception::name</text>
</a>
</g>
</g>
<!-- Node2&#45;&gt;Node7 -->
<g id="edge6" class="edge">
<title>Node2&#45;&gt;Node7</title>
<path fill="none" stroke="#63b8ff" d="M233.4,-38.61C249.12,-33.79 266.37,-28.49 281.71,-23.78"/>
<polygon fill="#63b8ff" stroke="#63b8ff" points="282.51,-27.2 291.05,-20.92 280.46,-20.51 282.51,-27.2"/>
</g>
<!-- Node4 -->
<g id="node4" class="node">
<title>Node4</title>
<g id="a_node4"><a xlink:href="namespacedetail.html#a89f967b745cf8df11ba9d59f93d97753" target="_top" xlink:title=" ">
<polygon fill="white" stroke="#666666" points="633.5,-83 538,-83 538,-63 633.5,-63 633.5,-83"/>
<text text-anchor="middle" x="585.75" y="-69.5" font-family="Helvetica,sans-Serif" font-size="10.00">detail::concat_into</text>
</a>
</g>
</g>
<!-- Node3&#45;&gt;Node4 -->
<g id="edge3" class="edge">
<title>Node3&#45;&gt;Node4</title>
<path fill="none" stroke="#63b8ff" d="M497.11,-59.6C506.36,-61.01 516.54,-62.57 526.57,-64.1"/>
<polygon fill="#63b8ff" stroke="#63b8ff" points="525.88,-67.54 536.29,-65.59 526.94,-60.62 525.88,-67.54"/>
</g>
<!-- Node5 -->
<g id="node5" class="node">
<title>Node5</title>
<g id="a_node5"><a xlink:href="namespacedetail.html#ac185140ed8c8fcc07a302a890b714b0d" target="_top" xlink:title=" ">
<polygon fill="white" stroke="#666666" points="638.75,-45 532.75,-45 532.75,-25 638.75,-25 638.75,-45"/>
<text text-anchor="middle" x="585.75" y="-31.5" font-family="Helvetica,sans-Serif" font-size="10.00">detail::concat_length</text>
</a>
</g>
</g>
<!-- Node3&#45;&gt;Node5 -->
<g id="edge4" class="edge">
<title>Node3&#45;&gt;Node5</title>
<path fill="none" stroke="#63b8ff" d="M497.11,-48.4C504.69,-47.24 512.88,-45.99 521.11,-44.73"/>
<polygon fill="#63b8ff" stroke="#63b8ff" points="521.44,-48.22 530.8,-43.25 520.38,-41.3 521.44,-48.22"/>
</g>
<!-- Node7&#45;&gt;Node3 -->
<g id="edge7" class="edge">
<title>Node7&#45;&gt;Node3</title>
<path fill="none" stroke="#63b8ff" d="M360.66,-20.47C369,-23.22 377.97,-26.2 386.25,-29 396.5,-32.46 407.55,-36.26 417.85,-39.82"/>
<polygon fill="#63b8ff" stroke="#63b8ff" points="416.63,-43.1 427.22,-43.07 418.92,-36.48 416.63,-43.1"/>
</g>
</g>
</svg>
