<?xml version="1.0" encoding="UTF-8" standalone="no"?>
<!DOCTYPE svg PUBLIC "-//W3C//DTD SVG 1.1//EN"
 "http://www.w3.org/Graphics/SVG/1.1/DTD/svg11.dtd">
<!-- Generated by graphviz version 12.2.1 (20241206.2353)
 -->
<!-- Title: SceneCombat::sCalculateChainDamage Pages: 1 -->
<svg width="532pt" height="78pt"
 viewBox="0.00 0.00 531.50 78.00" xmlns="http://www.w3.org/2000/svg" xmlns:xlink="http://www.w3.org/1999/xlink">
<g id="graph0" class="graph" transform="scale(1 1) rotate(0) translate(4 74)">
<title>SceneCombat::sCalculateChainDamage</title>
<!-- Node1 -->
<g id="node1" class="node">
<title>Node1</title>
<g id="a_node1"><a xlink:title=" ">
<polygon fill="#999999" stroke="#666666" points="523.5,-54 367.25,-54 367.25,-22 523.5,-22 523.5,-54"/>
<text text-anchor="start" x="375.25" y="-40.5" font-family="Helvetica,sans-Serif" font-size="10.00">SceneCombat::sCalculateChain</text>
<text text-anchor="middle" x="445.38" y="-28.5" font-family="Helvetica,sans-Serif" font-size="10.00">Damage</text>
</a>
</g>
</g>
<!-- Node2 -->
<g id="node2" class="node">
<title>Node2</title>
<g id="a_node2"><a xlink:href="classSceneCombat.html#a76d841c8792a343487dfb6d19d82b0b1" target="_top" xlink:title=" ">
<polygon fill="white" stroke="#666666" points="331.25,-70 166,-70 166,-50 331.25,-50 331.25,-70"/>
<text text-anchor="middle" x="248.62" y="-56.5" font-family="Helvetica,sans-Serif" font-size="10.00">SceneCombat::sAddWordToChain</text>
</a>
</g>
</g>
<!-- Node1&#45;&gt;Node2 -->
<g id="edge1" class="edge">
<title>Node1&#45;&gt;Node2</title>
<path fill="none" stroke="#63b8ff" d="M355.64,-48.02C347.66,-48.93 339.6,-49.84 331.68,-50.73"/>
<polygon fill="#63b8ff" stroke="#63b8ff" points="355.8,-51.53 365.34,-46.93 355.01,-44.57 355.8,-51.53"/>
</g>
<!-- Node4 -->
<g id="node4" class="node">
<title>Node4</title>
<g id="a_node4"><a xlink:href="classSceneCombat.html#a96eda451b05e50af9f18d47c40ce30be" target="_top" xlink:title=" ">
<polygon fill="white" stroke="#666666" points="321.12,-32 176.12,-32 176.12,0 321.12,0 321.12,-32"/>
<text text-anchor="start" x="184.12" y="-18.5" font-family="Helvetica,sans-Serif" font-size="10.00">SceneCombat::sRemoveLast</text>
<text text-anchor="middle" x="248.62" y="-6.5" font-family="Helvetica,sans-Serif" font-size="10.00">WordFromChain</text>
</a>
</g>
</g>
<!-- Node1&#45;&gt;Node4 -->
<g id="edge3" class="edge">
<title>Node1&#45;&gt;Node4</title>
<path fill="none" stroke="#63b8ff" d="M355.53,-27.96C344.14,-26.68 332.59,-25.37 321.51,-24.12"/>
<polygon fill="#63b8ff" stroke="#63b8ff" points="355.01,-31.43 365.34,-29.07 355.8,-24.47 355.01,-31.43"/>
</g>
<!-- Node3 -->
<g id="node3" class="node">
<title>Node3</title>
<g id="a_node3"><a xlink:href="classSceneCombat.html#a37f6cbef92fa92fc1532dafd265aefc5" target="_top" xlink:title=" ">
<polygon fill="white" stroke="#666666" points="130,-48 0,-48 0,-28 130,-28 130,-48"/>
<text text-anchor="middle" x="65" y="-34.5" font-family="Helvetica,sans-Serif" font-size="10.00">SceneCombat::sDoAction</text>
</a>
</g>
</g>
<!-- Node2&#45;&gt;Node3 -->
<g id="edge2" class="edge">
<title>Node2&#45;&gt;Node3</title>
<path fill="none" stroke="#63b8ff" d="M154.16,-48.68C146.08,-47.7 138.03,-46.72 130.26,-45.78"/>
<polygon fill="#63b8ff" stroke="#63b8ff" points="153.73,-52.15 164.08,-49.88 154.57,-45.2 153.73,-52.15"/>
</g>
<!-- Node4&#45;&gt;Node3 -->
<g id="edge4" class="edge">
<title>Node4&#45;&gt;Node3</title>
<path fill="none" stroke="#63b8ff" d="M164.5,-26.07C153.08,-27.45 141.5,-28.85 130.49,-30.19"/>
<polygon fill="#63b8ff" stroke="#63b8ff" points="164.83,-29.55 174.34,-24.88 163.99,-22.6 164.83,-29.55"/>
</g>
</g>
</svg>
