<?xml version="1.0" encoding="UTF-8" standalone="no"?>
<!DOCTYPE svg PUBLIC "-//W3C//DTD SVG 1.1//EN"
 "http://www.w3.org/Graphics/SVG/1.1/DTD/svg11.dtd">
<!-- Generated by graphviz version 12.2.1 (20241206.2353)
 -->
<!-- Title: SceneMenu::sDoAction Pages: 1 -->
<svg width="265pt" height="104pt"
 viewBox="0.00 0.00 265.00 104.00" xmlns="http://www.w3.org/2000/svg" xmlns:xlink="http://www.w3.org/1999/xlink">
<g id="graph0" class="graph" transform="scale(1 1) rotate(0) translate(4 100)">
<title>SceneMenu::sDoAction</title>
<!-- Node1 -->
<g id="node1" class="node">
<title>Node1</title>
<g id="a_node1"><a xlink:title=" ">
<polygon fill="#999999" stroke="#666666" points="119.5,-58 0,-58 0,-38 119.5,-38 119.5,-58"/>
<text text-anchor="middle" x="59.75" y="-44.5" font-family="Helvetica,sans-Serif" font-size="10.00">SceneMenu::sDoAction</text>
</a>
</g>
</g>
<!-- Node2 -->
<g id="node2" class="node">
<title>Node2</title>
<g id="a_node2"><a xlink:href="classAction.html#a23800f6ef38781f10e6823f09ad6d62c" target="_top" xlink:title=" ">
<polygon fill="white" stroke="#666666" points="243.12,-96 169.38,-96 169.38,-76 243.12,-76 243.12,-96"/>
<text text-anchor="middle" x="206.25" y="-82.5" font-family="Helvetica,sans-Serif" font-size="10.00">Action::name</text>
</a>
</g>
</g>
<!-- Node1&#45;&gt;Node2 -->
<g id="edge1" class="edge">
<title>Node1&#45;&gt;Node2</title>
<path fill="none" stroke="#63b8ff" d="M100.62,-58.48C118.41,-63.16 139.51,-68.71 158.08,-73.6"/>
<polygon fill="#63b8ff" stroke="#63b8ff" points="156.95,-76.92 167.51,-76.08 158.73,-70.15 156.95,-76.92"/>
</g>
<!-- Node3 -->
<g id="node3" class="node">
<title>Node3</title>
<g id="a_node3"><a xlink:href="classSceneMenu.html#a48c41ee597c3fd481d73c5f5952e94ab" target="_top" xlink:title=" ">
<polygon fill="white" stroke="#666666" points="257,-58 155.5,-58 155.5,-38 257,-38 257,-58"/>
<text text-anchor="middle" x="206.25" y="-44.5" font-family="Helvetica,sans-Serif" font-size="10.00">SceneMenu::onEnd</text>
</a>
</g>
</g>
<!-- Node1&#45;&gt;Node3 -->
<g id="edge2" class="edge">
<title>Node1&#45;&gt;Node3</title>
<path fill="none" stroke="#63b8ff" d="M119.94,-48C127.8,-48 135.86,-48 143.76,-48"/>
<polygon fill="#63b8ff" stroke="#63b8ff" points="143.64,-51.5 153.64,-48 143.64,-44.5 143.64,-51.5"/>
</g>
<!-- Node4 -->
<g id="node4" class="node">
<title>Node4</title>
<g id="a_node4"><a xlink:href="classAction.html#a17c7beb7eb4055b45fbc4587f61ec933" target="_top" xlink:title=" ">
<polygon fill="white" stroke="#666666" points="240.5,-20 172,-20 172,0 240.5,0 240.5,-20"/>
<text text-anchor="middle" x="206.25" y="-6.5" font-family="Helvetica,sans-Serif" font-size="10.00">Action::type</text>
</a>
</g>
</g>
<!-- Node1&#45;&gt;Node4 -->
<g id="edge3" class="edge">
<title>Node1&#45;&gt;Node4</title>
<path fill="none" stroke="#63b8ff" d="M100.62,-37.52C119.33,-32.59 141.7,-26.71 160.95,-21.65"/>
<polygon fill="#63b8ff" stroke="#63b8ff" points="161.62,-25.09 170.4,-19.16 159.84,-18.32 161.62,-25.09"/>
</g>
</g>
</svg>
