<?xml version="1.0" encoding="UTF-8" standalone="no"?>
<!DOCTYPE svg PUBLIC "-//W3C//DTD SVG 1.1//EN"
 "http://www.w3.org/Graphics/SVG/1.1/DTD/svg11.dtd">
<!-- Generated by graphviz version 12.2.1 (20241206.2353)
 -->
<!-- Title: Action::type Pages: 1 -->
<svg width="254pt" height="104pt"
 viewBox="0.00 0.00 253.75 104.00" xmlns="http://www.w3.org/2000/svg" xmlns:xlink="http://www.w3.org/1999/xlink">
<g id="graph0" class="graph" transform="scale(1 1) rotate(0) translate(4 100)">
<title>Action::type</title>
<!-- Node1 -->
<g id="node1" class="node">
<title>Node1</title>
<g id="a_node1"><a xlink:title=" ">
<polygon fill="#999999" stroke="#666666" points="245.75,-58 177.25,-58 177.25,-38 245.75,-38 245.75,-58"/>
<text text-anchor="middle" x="211.5" y="-44.5" font-family="Helvetica,sans-Serif" font-size="10.00">Action::type</text>
</a>
</g>
</g>
<!-- Node2 -->
<g id="node2" class="node">
<title>Node2</title>
<g id="a_node2"><a xlink:href="classSceneCombat.html#a37f6cbef92fa92fc1532dafd265aefc5" target="_top" xlink:title=" ">
<polygon fill="white" stroke="#666666" points="135.62,-96 5.62,-96 5.62,-76 135.62,-76 135.62,-96"/>
<text text-anchor="middle" x="70.62" y="-82.5" font-family="Helvetica,sans-Serif" font-size="10.00">SceneCombat::sDoAction</text>
</a>
</g>
</g>
<!-- Node1&#45;&gt;Node2 -->
<g id="edge1" class="edge">
<title>Node1&#45;&gt;Node2</title>
<path fill="none" stroke="#63b8ff" d="M166.06,-60.2C157.81,-62.47 149.27,-64.81 141.25,-67 131.1,-69.78 120.11,-72.78 109.93,-75.56"/>
<polygon fill="#63b8ff" stroke="#63b8ff" points="166.86,-63.61 175.58,-57.59 165.01,-56.86 166.86,-63.61"/>
</g>
<!-- Node3 -->
<g id="node3" class="node">
<title>Node3</title>
<g id="a_node3"><a xlink:href="classSceneEspionage.html#a392e7a93c22fac7515a9ca5dc2d89b8a" target="_top" xlink:title=" ">
<polygon fill="white" stroke="#666666" points="141.25,-58 0,-58 0,-38 141.25,-38 141.25,-58"/>
<text text-anchor="middle" x="70.62" y="-44.5" font-family="Helvetica,sans-Serif" font-size="10.00">SceneEspionage::sDoAction</text>
</a>
</g>
</g>
<!-- Node1&#45;&gt;Node3 -->
<g id="edge2" class="edge">
<title>Node1&#45;&gt;Node3</title>
<path fill="none" stroke="#63b8ff" d="M165.38,-48C157.79,-48 149.76,-48 141.71,-48"/>
<polygon fill="#63b8ff" stroke="#63b8ff" points="165.37,-51.5 175.37,-48 165.37,-44.5 165.37,-51.5"/>
</g>
<!-- Node4 -->
<g id="node4" class="node">
<title>Node4</title>
<g id="a_node4"><a xlink:href="classSceneMenu.html#a131d3f366007ee8d2efdbfcb25d7c826" target="_top" xlink:title=" ">
<polygon fill="white" stroke="#666666" points="130.38,-20 10.88,-20 10.88,0 130.38,0 130.38,-20"/>
<text text-anchor="middle" x="70.62" y="-6.5" font-family="Helvetica,sans-Serif" font-size="10.00">SceneMenu::sDoAction</text>
</a>
</g>
</g>
<!-- Node1&#45;&gt;Node4 -->
<g id="edge3" class="edge">
<title>Node1&#45;&gt;Node4</title>
<path fill="none" stroke="#63b8ff" d="M166.06,-35.8C157.81,-33.53 149.27,-31.19 141.25,-29 131.1,-26.22 120.11,-23.22 109.93,-20.44"/>
<polygon fill="#63b8ff" stroke="#63b8ff" points="165.01,-39.14 175.58,-38.41 166.86,-32.39 165.01,-39.14"/>
</g>
</g>
</svg>
