<?xml version="1.0" encoding="UTF-8" standalone="no"?>
<!DOCTYPE svg PUBLIC "-//W3C//DTD SVG 1.1//EN"
 "http://www.w3.org/Graphics/SVG/1.1/DTD/svg11.dtd">
<!-- Generated by graphviz version 12.2.1 (20241206.2353)
 -->
<!-- Title: detail::json_sax_dom_callback_parser::start_object Pages: 1 -->
<svg width="409pt" height="103pt"
 viewBox="0.00 0.00 408.50 103.00" xmlns="http://www.w3.org/2000/svg" xmlns:xlink="http://www.w3.org/1999/xlink">
<g id="graph0" class="graph" transform="scale(1 1) rotate(0) translate(4 99)">
<title>detail::json_sax_dom_callback_parser::start_object</title>
<!-- Node1 -->
<g id="node1" class="node">
<title>Node1</title>
<g id="a_node1"><a xlink:title=" ">
<polygon fill="#999999" stroke="#666666" points="115,-60 0,-60 0,-16 115,-16 115,-60"/>
<text text-anchor="start" x="8" y="-46.5" font-family="Helvetica,sans-Serif" font-size="10.00">detail::json_sax_dom</text>
<text text-anchor="start" x="8" y="-34.5" font-family="Helvetica,sans-Serif" font-size="10.00">_callback_parser::start</text>
<text text-anchor="middle" x="57.5" y="-22.5" font-family="Helvetica,sans-Serif" font-size="10.00">_object</text>
</a>
</g>
</g>
<!-- Node2 -->
<g id="node2" class="node">
<title>Node2</title>
<g id="a_node2"><a xlink:href="namespacedetail.html#a266fb3d4bf633ad6c506434cc91164da" target="_top" xlink:title=" ">
<polygon fill="white" stroke="#666666" points="242,-76 167.5,-76 167.5,-56 242,-56 242,-76"/>
<text text-anchor="middle" x="204.75" y="-62.5" font-family="Helvetica,sans-Serif" font-size="10.00">detail::concat</text>
</a>
</g>
</g>
<!-- Node1&#45;&gt;Node2 -->
<g id="edge1" class="edge">
<title>Node1&#45;&gt;Node2</title>
<path fill="none" stroke="#63b8ff" d="M115.49,-48.99C128.89,-51.57 143.04,-54.3 155.98,-56.79"/>
<polygon fill="#63b8ff" stroke="#63b8ff" points="155.04,-60.17 165.52,-58.63 156.36,-53.3 155.04,-60.17"/>
</g>
<!-- Node5 -->
<g id="node5" class="node">
<title>Node5</title>
<g id="a_node5"><a xlink:href="namespacedetail.html#a93d9378fbe8786072ec07745cbb4cc0b" target="_top" xlink:title=" ">
<polygon fill="white" stroke="#666666" points="258.5,-20 151,-20 151,0 258.5,0 258.5,-20"/>
<text text-anchor="middle" x="204.75" y="-6.5" font-family="Helvetica,sans-Serif" font-size="10.00">detail::unknown_size</text>
</a>
</g>
</g>
<!-- Node1&#45;&gt;Node5 -->
<g id="edge4" class="edge">
<title>Node1&#45;&gt;Node5</title>
<path fill="none" stroke="#63b8ff" d="M115.49,-27.01C123.38,-25.49 131.52,-23.92 139.53,-22.38"/>
<polygon fill="#63b8ff" stroke="#63b8ff" points="140.07,-25.84 149.23,-20.51 138.75,-18.97 140.07,-25.84"/>
</g>
<!-- Node3 -->
<g id="node3" class="node">
<title>Node3</title>
<g id="a_node3"><a xlink:href="namespacedetail.html#a89f967b745cf8df11ba9d59f93d97753" target="_top" xlink:title=" ">
<polygon fill="white" stroke="#666666" points="395.25,-95 299.75,-95 299.75,-75 395.25,-75 395.25,-95"/>
<text text-anchor="middle" x="347.5" y="-81.5" font-family="Helvetica,sans-Serif" font-size="10.00">detail::concat_into</text>
</a>
</g>
</g>
<!-- Node2&#45;&gt;Node3 -->
<g id="edge2" class="edge">
<title>Node2&#45;&gt;Node3</title>
<path fill="none" stroke="#63b8ff" d="M242.36,-70.94C256.39,-72.84 272.76,-75.05 288.31,-77.15"/>
<polygon fill="#63b8ff" stroke="#63b8ff" points="287.57,-80.58 297.95,-78.45 288.51,-73.64 287.57,-80.58"/>
</g>
<!-- Node4 -->
<g id="node4" class="node">
<title>Node4</title>
<g id="a_node4"><a xlink:href="namespacedetail.html#ac185140ed8c8fcc07a302a890b714b0d" target="_top" xlink:title=" ">
<polygon fill="white" stroke="#666666" points="400.5,-57 294.5,-57 294.5,-37 400.5,-37 400.5,-57"/>
<text text-anchor="middle" x="347.5" y="-43.5" font-family="Helvetica,sans-Serif" font-size="10.00">detail::concat_length</text>
</a>
</g>
</g>
<!-- Node2&#45;&gt;Node4 -->
<g id="edge3" class="edge">
<title>Node2&#45;&gt;Node4</title>
<path fill="none" stroke="#63b8ff" d="M242.36,-61.06C254.83,-59.37 269.15,-57.44 283.11,-55.56"/>
<polygon fill="#63b8ff" stroke="#63b8ff" points="283.23,-59.07 292.67,-54.27 282.29,-52.14 283.23,-59.07"/>
</g>
<!-- Node5&#45;&gt;Node5 -->
<g id="edge5" class="edge">
<title>Node5&#45;&gt;Node5</title>
<path fill="none" stroke="#63b8ff" d="M182.07,-20.34C172.38,-28.98 179.94,-38 204.75,-38 218.32,-38 226.73,-35.3 229.98,-31.44"/>
<polygon fill="#63b8ff" stroke="#63b8ff" points="233.42,-30.78 227.77,-21.81 226.6,-32.34 233.42,-30.78"/>
</g>
</g>
</svg>
