<?xml version="1.0" encoding="UTF-8" standalone="no"?>
<!DOCTYPE svg PUBLIC "-//W3C//DTD SVG 1.1//EN"
 "http://www.w3.org/Graphics/SVG/1.1/DTD/svg11.dtd">
<!-- Generated by graphviz version 12.2.1 (20241206.2353)
 -->
<!-- Title: basic_json::patch Pages: 1 -->
<svg width="975pt" height="522pt"
 viewBox="0.00 0.00 975.00 522.00" xmlns="http://www.w3.org/2000/svg" xmlns:xlink="http://www.w3.org/1999/xlink">
<g id="graph0" class="graph" transform="scale(1 1) rotate(0) translate(4 518)">
<title>basic_json::patch</title>
<!-- Node1 -->
<g id="node1" class="node">
<title>Node1</title>
<g id="a_node1"><a xlink:title="applies a JSON patch to a copy of the current object">
<polygon fill="#999999" stroke="#666666" points="92.5,-267 0,-267 0,-247 92.5,-247 92.5,-267"/>
<text text-anchor="middle" x="46.25" y="-253.5" font-family="Helvetica,sans-Serif" font-size="10.00">basic_json::patch</text>
</a>
</g>
</g>
<!-- Node2 -->
<g id="node2" class="node">
<title>Node2</title>
<g id="a_node2"><a xlink:href="classbasic__json.html#a693812b31e106dec9166e93d8f6dd7d7" target="_top" xlink:title="applies a JSON patch in&#45;place without copying the object">
<polygon fill="white" stroke="#666666" points="257,-267 128.5,-267 128.5,-247 257,-247 257,-267"/>
<text text-anchor="middle" x="192.75" y="-253.5" font-family="Helvetica,sans-Serif" font-size="10.00">basic_json::patch_inplace</text>
</a>
</g>
</g>
<!-- Node1&#45;&gt;Node2 -->
<g id="edge1" class="edge">
<title>Node1&#45;&gt;Node2</title>
<path fill="none" stroke="#63b8ff" d="M92.97,-257C100.56,-257 108.6,-257 116.68,-257"/>
<polygon fill="#63b8ff" stroke="#63b8ff" points="116.59,-260.5 126.59,-257 116.59,-253.5 116.59,-260.5"/>
</g>
<!-- Node3 -->
<g id="node3" class="node">
<title>Node3</title>
<g id="a_node3"><a xlink:href="classbasic__json.html#a899e4623fe377af5c9ad14c40c64280c" target="_top" xlink:title="access specified array element with bounds checking">
<polygon fill="white" stroke="#666666" points="541.75,-476 465,-476 465,-456 541.75,-456 541.75,-476"/>
<text text-anchor="middle" x="503.38" y="-462.5" font-family="Helvetica,sans-Serif" font-size="10.00">basic_json::at</text>
</a>
</g>
</g>
<!-- Node2&#45;&gt;Node3 -->
<g id="edge2" class="edge">
<title>Node2&#45;&gt;Node3</title>
<path fill="none" stroke="#63b8ff" d="M195.77,-267.22C202.71,-299.28 228.76,-398.4 293,-442 340.35,-474.13 407.98,-475.96 453.45,-472.52"/>
<polygon fill="#63b8ff" stroke="#63b8ff" points="453.63,-476.02 463.28,-471.65 453.01,-469.05 453.63,-476.02"/>
</g>
<!-- Node4 -->
<g id="node4" class="node">
<title>Node4</title>
<g id="a_node4"><a xlink:href="namespacedetail.html#a266fb3d4bf633ad6c506434cc91164da" target="_top" xlink:title=" ">
<polygon fill="white" stroke="#666666" points="825,-314 750.5,-314 750.5,-294 825,-294 825,-314"/>
<text text-anchor="middle" x="787.75" y="-300.5" font-family="Helvetica,sans-Serif" font-size="10.00">detail::concat</text>
</a>
</g>
</g>
<!-- Node2&#45;&gt;Node4 -->
<g id="edge13" class="edge">
<title>Node2&#45;&gt;Node4</title>
<path fill="none" stroke="#63b8ff" d="M196.7,-267.32C205.58,-296.17 235.07,-377.64 293,-409 456.04,-497.26 686.79,-367.95 762.01,-320.38"/>
<polygon fill="#63b8ff" stroke="#63b8ff" points="763.77,-323.41 770.29,-315.06 759.99,-317.52 763.77,-323.41"/>
</g>
<!-- Node7 -->
<g id="node7" class="node">
<title>Node7</title>
<g id="a_node7"><a xlink:href="classjson__pointer.html#aba71e63e4032cfc46dd90aeb09e5cb0f" target="_top" xlink:title="return last reference token">
<polygon fill="white" stroke="#666666" points="399,-210 303.5,-210 303.5,-190 399,-190 399,-210"/>
<text text-anchor="middle" x="351.25" y="-196.5" font-family="Helvetica,sans-Serif" font-size="10.00">json_pointer::back</text>
</a>
</g>
</g>
<!-- Node2&#45;&gt;Node7 -->
<g id="edge6" class="edge">
<title>Node2&#45;&gt;Node7</title>
<path fill="none" stroke="#63b8ff" d="M220.17,-246.51C240.1,-238.69 268.15,-227.87 293,-219 297.49,-217.4 302.2,-215.76 306.9,-214.16"/>
<polygon fill="#63b8ff" stroke="#63b8ff" points="307.97,-217.49 316.33,-210.98 305.74,-210.85 307.97,-217.49"/>
</g>
<!-- Node11 -->
<g id="node11" class="node">
<title>Node11</title>
<g id="a_node11"><a xlink:href="classbasic__json.html#a5251a08382864af52c854fca1bdba61c" target="_top" xlink:title="returns an iterator to the first element">
<polygon fill="white" stroke="#666666" points="397.12,-400 305.38,-400 305.38,-380 397.12,-380 397.12,-400"/>
<text text-anchor="middle" x="351.25" y="-386.5" font-family="Helvetica,sans-Serif" font-size="10.00">basic_json::begin</text>
</a>
</g>
</g>
<!-- Node2&#45;&gt;Node11 -->
<g id="edge12" class="edge">
<title>Node2&#45;&gt;Node11</title>
<path fill="none" stroke="#63b8ff" d="M200.07,-267.47C214.03,-289.76 249.75,-342.2 293,-371 294.97,-372.32 297.05,-373.55 299.19,-374.7"/>
<polygon fill="#63b8ff" stroke="#63b8ff" points="297.64,-377.84 308.19,-378.89 300.6,-371.49 297.64,-377.84"/>
</g>
<!-- Node12 -->
<g id="node12" class="node">
<title>Node12</title>
<g id="a_node12"><a xlink:href="classjson__pointer.html#a5c3d08bd0a0e99c3377db33600c68a64" target="_top" xlink:title="return whether pointer points to the root document">
<polygon fill="white" stroke="#666666" points="402,-362 300.5,-362 300.5,-342 402,-342 402,-362"/>
<text text-anchor="middle" x="351.25" y="-348.5" font-family="Helvetica,sans-Serif" font-size="10.00">json_pointer::empty</text>
</a>
</g>
</g>
<!-- Node2&#45;&gt;Node12 -->
<g id="edge14" class="edge">
<title>Node2&#45;&gt;Node12</title>
<path fill="none" stroke="#63b8ff" d="M204.8,-267.48C222.27,-283.56 257.9,-314.42 293,-333 296,-334.59 299.17,-336.08 302.4,-337.48"/>
<polygon fill="#63b8ff" stroke="#63b8ff" points="300.86,-340.63 311.44,-341.04 303.42,-334.12 300.86,-340.63"/>
</g>
<!-- Node13 -->
<g id="node13" class="node">
<title>Node13</title>
<g id="a_node13"><a xlink:href="classbasic__json.html#a4dbc83213b31a171aa8ba65ff00fa954" target="_top" xlink:title="returns an iterator to one past the last element">
<polygon fill="white" stroke="#666666" points="393.38,-324 309.12,-324 309.12,-304 393.38,-304 393.38,-324"/>
<text text-anchor="middle" x="351.25" y="-310.5" font-family="Helvetica,sans-Serif" font-size="10.00">basic_json::end</text>
</a>
</g>
</g>
<!-- Node2&#45;&gt;Node13 -->
<g id="edge15" class="edge">
<title>Node2&#45;&gt;Node13</title>
<path fill="none" stroke="#63b8ff" d="M222.45,-267.45C247.31,-276.51 283.48,-289.68 311.01,-299.71"/>
<polygon fill="#63b8ff" stroke="#63b8ff" points="309.45,-302.86 320.04,-303 311.84,-296.29 309.45,-302.86"/>
</g>
<!-- Node14 -->
<g id="node14" class="node">
<title>Node14</title>
<g id="a_node14"><a xlink:href="classbasic__json.html#a7d0fef086b1b72372113db6ce7446189" target="_top" xlink:title="remove element given an iterator">
<polygon fill="white" stroke="#666666" points="549.62,-300 457.12,-300 457.12,-280 549.62,-280 549.62,-300"/>
<text text-anchor="middle" x="503.38" y="-286.5" font-family="Helvetica,sans-Serif" font-size="10.00">basic_json::erase</text>
</a>
</g>
</g>
<!-- Node2&#45;&gt;Node14 -->
<g id="edge16" class="edge">
<title>Node2&#45;&gt;Node14</title>
<path fill="none" stroke="#63b8ff" d="M257.32,-263.8C312.72,-269.72 392.33,-278.23 445.62,-283.93"/>
<polygon fill="#63b8ff" stroke="#63b8ff" points="445.08,-287.39 455.4,-284.98 445.83,-280.43 445.08,-287.39"/>
</g>
<!-- Node15 -->
<g id="node15" class="node">
<title>Node15</title>
<g id="a_node15"><a xlink:href="classbasic__json.html#a727e3cfb5a874314d8deb12cb53a8105" target="_top" xlink:title="find an element in a JSON object">
<polygon fill="white" stroke="#666666" points="393.38,-248 309.12,-248 309.12,-228 393.38,-228 393.38,-248"/>
<text text-anchor="middle" x="351.25" y="-234.5" font-family="Helvetica,sans-Serif" font-size="10.00">basic_json::find</text>
</a>
</g>
</g>
<!-- Node2&#45;&gt;Node15 -->
<g id="edge18" class="edge">
<title>Node2&#45;&gt;Node15</title>
<path fill="none" stroke="#63b8ff" d="M257.4,-249.27C270.89,-247.64 284.97,-245.93 297.97,-244.35"/>
<polygon fill="#63b8ff" stroke="#63b8ff" points="298.07,-247.86 307.58,-243.18 297.23,-240.91 298.07,-247.86"/>
</g>
<!-- Node16 -->
<g id="node16" class="node">
<title>Node16</title>
<g id="a_node16"><a xlink:href="classbasic__json.html#a7f3817060c2bec896a99cb2c236b9c27" target="_top" xlink:title="inserts element into array">
<polygon fill="white" stroke="#666666" points="702.12,-104 609.62,-104 609.62,-84 702.12,-84 702.12,-104"/>
<text text-anchor="middle" x="655.88" y="-90.5" font-family="Helvetica,sans-Serif" font-size="10.00">basic_json::insert</text>
</a>
</g>
</g>
<!-- Node2&#45;&gt;Node16 -->
<g id="edge19" class="edge">
<title>Node2&#45;&gt;Node16</title>
<path fill="none" stroke="#63b8ff" d="M195.39,-246.67C201.29,-213.31 224.88,-108.27 293,-67 398.14,-3.3 553.26,-52.4 621.07,-79.35"/>
<polygon fill="#63b8ff" stroke="#63b8ff" points="619.57,-82.52 630.16,-83.05 622.21,-76.03 619.57,-82.52"/>
</g>
<!-- Node17 -->
<g id="node17" class="node">
<title>Node17</title>
<g id="a_node17"><a xlink:href="classbasic__json.html#a184ba4a6b47e6da3703af19349bd776f" target="_top" xlink:title="return whether value is an array">
<polygon fill="white" stroke="#666666" points="402.75,-172 299.75,-172 299.75,-152 402.75,-152 402.75,-172"/>
<text text-anchor="middle" x="351.25" y="-158.5" font-family="Helvetica,sans-Serif" font-size="10.00">basic_json::is_array</text>
</a>
</g>
</g>
<!-- Node2&#45;&gt;Node17 -->
<g id="edge21" class="edge">
<title>Node2&#45;&gt;Node17</title>
<path fill="none" stroke="#63b8ff" d="M204.8,-246.52C222.27,-230.44 257.9,-199.58 293,-181 296,-179.41 299.17,-177.92 302.4,-176.52"/>
<polygon fill="#63b8ff" stroke="#63b8ff" points="303.42,-179.88 311.44,-172.96 300.86,-173.37 303.42,-179.88"/>
</g>
<!-- Node18 -->
<g id="node18" class="node">
<title>Node18</title>
<g id="a_node18"><a xlink:href="classbasic__json.html#af355a2b131068acf3d623eb6d80a711c" target="_top" xlink:title="return whether value is an object">
<polygon fill="white" stroke="#666666" points="405,-134 297.5,-134 297.5,-114 405,-114 405,-134"/>
<text text-anchor="middle" x="351.25" y="-120.5" font-family="Helvetica,sans-Serif" font-size="10.00">basic_json::is_object</text>
</a>
</g>
</g>
<!-- Node2&#45;&gt;Node18 -->
<g id="edge22" class="edge">
<title>Node2&#45;&gt;Node18</title>
<path fill="none" stroke="#63b8ff" d="M200.07,-246.53C214.03,-224.24 249.75,-171.8 293,-143 294.97,-141.68 297.05,-140.45 299.19,-139.3"/>
<polygon fill="#63b8ff" stroke="#63b8ff" points="300.6,-142.51 308.19,-135.11 297.64,-136.16 300.6,-142.51"/>
</g>
<!-- Node19 -->
<g id="node19" class="node">
<title>Node19</title>
<g id="a_node19"><a xlink:href="classjson__pointer.html#a662118b470c87a1b564946c2602c49ce" target="_top" xlink:title="remove last reference token">
<polygon fill="white" stroke="#666666" points="409.5,-96 293,-96 293,-76 409.5,-76 409.5,-96"/>
<text text-anchor="middle" x="351.25" y="-82.5" font-family="Helvetica,sans-Serif" font-size="10.00">json_pointer::pop_back</text>
</a>
</g>
</g>
<!-- Node2&#45;&gt;Node19 -->
<g id="edge23" class="edge">
<title>Node2&#45;&gt;Node19</title>
<path fill="none" stroke="#63b8ff" d="M197.59,-246.8C208.32,-219.62 241.32,-144.81 293,-105 294.54,-103.81 296.16,-102.7 297.83,-101.65"/>
<polygon fill="#63b8ff" stroke="#63b8ff" points="299.35,-104.81 306.59,-97.08 296.11,-98.6 299.35,-104.81"/>
</g>
<!-- Node20 -->
<g id="node20" class="node">
<title>Node20</title>
<g id="a_node20"><a xlink:href="classbasic__json.html#a3d13acce4e49e0d5ee768643a7b89010" target="_top" xlink:title="add an object to an array">
<polygon fill="white" stroke="#666666" points="561.25,-514 445.5,-514 445.5,-494 561.25,-494 561.25,-514"/>
<text text-anchor="middle" x="503.38" y="-500.5" font-family="Helvetica,sans-Serif" font-size="10.00">basic_json::push_back</text>
</a>
</g>
</g>
<!-- Node2&#45;&gt;Node20 -->
<g id="edge25" class="edge">
<title>Node2&#45;&gt;Node20</title>
<path fill="none" stroke="#63b8ff" d="M195.1,-267.44C200.27,-302.79 222.2,-418.74 293,-472 333.01,-502.1 389.68,-509.23 433.98,-509.32"/>
<polygon fill="#63b8ff" stroke="#63b8ff" points="433.77,-512.82 443.73,-509.21 433.69,-505.82 433.77,-512.82"/>
</g>
<!-- Node21 -->
<g id="node21" class="node">
<title>Node21</title>
<g id="a_node21"><a xlink:href="classbasic__json.html#a086cbfd1ad4ba83a8127c87467a92f47" target="_top" xlink:title="returns the number of elements">
<polygon fill="white" stroke="#666666" points="394.5,-20 308,-20 308,0 394.5,0 394.5,-20"/>
<text text-anchor="middle" x="351.25" y="-6.5" font-family="Helvetica,sans-Serif" font-size="10.00">basic_json::size</text>
</a>
</g>
</g>
<!-- Node2&#45;&gt;Node21 -->
<g id="edge27" class="edge">
<title>Node2&#45;&gt;Node21</title>
<path fill="none" stroke="#63b8ff" d="M195.56,-246.58C202.14,-211.7 227.88,-97.72 293,-34 296.2,-30.87 299.87,-28.12 303.78,-25.71"/>
<polygon fill="#63b8ff" stroke="#63b8ff" points="305.27,-28.88 312.49,-21.12 302.01,-22.69 305.27,-28.88"/>
</g>
<!-- Node3&#45;&gt;Node4 -->
<g id="edge3" class="edge">
<title>Node3&#45;&gt;Node4</title>
<path fill="none" stroke="#63b8ff" d="M542.15,-471.65C587.25,-476.3 663.02,-477.3 714.5,-442 755.06,-414.19 774.45,-356.25 782.29,-325.02"/>
<polygon fill="#63b8ff" stroke="#63b8ff" points="785.62,-326.14 784.47,-315.61 778.8,-324.55 785.62,-326.14"/>
</g>
<!-- Node5 -->
<g id="node5" class="node">
<title>Node5</title>
<g id="a_node5"><a xlink:href="namespacedetail.html#a89f967b745cf8df11ba9d59f93d97753" target="_top" xlink:title=" ">
<polygon fill="white" stroke="#666666" points="961.75,-333 866.25,-333 866.25,-313 961.75,-313 961.75,-333"/>
<text text-anchor="middle" x="914" y="-319.5" font-family="Helvetica,sans-Serif" font-size="10.00">detail::concat_into</text>
</a>
</g>
</g>
<!-- Node4&#45;&gt;Node5 -->
<g id="edge4" class="edge">
<title>Node4&#45;&gt;Node5</title>
<path fill="none" stroke="#63b8ff" d="M825.36,-309.6C834.61,-311.01 844.79,-312.57 854.82,-314.1"/>
<polygon fill="#63b8ff" stroke="#63b8ff" points="854.13,-317.54 864.54,-315.59 855.19,-310.62 854.13,-317.54"/>
</g>
<!-- Node6 -->
<g id="node6" class="node">
<title>Node6</title>
<g id="a_node6"><a xlink:href="namespacedetail.html#ac185140ed8c8fcc07a302a890b714b0d" target="_top" xlink:title=" ">
<polygon fill="white" stroke="#666666" points="967,-295 861,-295 861,-275 967,-275 967,-295"/>
<text text-anchor="middle" x="914" y="-281.5" font-family="Helvetica,sans-Serif" font-size="10.00">detail::concat_length</text>
</a>
</g>
</g>
<!-- Node4&#45;&gt;Node6 -->
<g id="edge5" class="edge">
<title>Node4&#45;&gt;Node6</title>
<path fill="none" stroke="#63b8ff" d="M825.36,-298.4C832.94,-297.24 841.13,-295.99 849.36,-294.73"/>
<polygon fill="#63b8ff" stroke="#63b8ff" points="849.69,-298.22 859.05,-293.25 848.63,-291.3 849.69,-298.22"/>
</g>
<!-- Node8 -->
<g id="node8" class="node">
<title>Node8</title>
<g id="a_node8"><a xlink:href="classdetail_1_1out__of__range.html#a79ea0d3ec02a853629dc827e045ecff5" target="_top" xlink:title=" ">
<polygon fill="white" stroke="#666666" points="554.12,-216 452.62,-216 452.62,-184 554.12,-184 554.12,-216"/>
<text text-anchor="start" x="460.62" y="-202.5" font-family="Helvetica,sans-Serif" font-size="10.00">detail::out_of_range</text>
<text text-anchor="middle" x="503.38" y="-190.5" font-family="Helvetica,sans-Serif" font-size="10.00">::create</text>
</a>
</g>
</g>
<!-- Node7&#45;&gt;Node8 -->
<g id="edge7" class="edge">
<title>Node7&#45;&gt;Node8</title>
<path fill="none" stroke="#63b8ff" d="M399.34,-200C412.51,-200 427.01,-200 440.88,-200"/>
<polygon fill="#63b8ff" stroke="#63b8ff" points="440.82,-203.5 450.82,-200 440.82,-196.5 440.82,-203.5"/>
</g>
<!-- Node8&#45;&gt;Node4 -->
<g id="edge8" class="edge">
<title>Node8&#45;&gt;Node4</title>
<path fill="none" stroke="#63b8ff" d="M554.24,-186.39C598.92,-177.08 664.89,-170.64 714.5,-197 748.66,-215.15 769.6,-257.45 779.61,-283.1"/>
<polygon fill="#63b8ff" stroke="#63b8ff" points="776.2,-283.96 782.94,-292.14 782.77,-281.55 776.2,-283.96"/>
</g>
<!-- Node9 -->
<g id="node9" class="node">
<title>Node9</title>
<g id="a_node9"><a xlink:href="classdetail_1_1exception.html#a6b4a786b5c1c25dd3edaceb1bf2d5120" target="_top" xlink:title=" ">
<polygon fill="white" stroke="#666666" points="702.5,-238 609.25,-238 609.25,-206 702.5,-206 702.5,-238"/>
<text text-anchor="start" x="617.25" y="-224.5" font-family="Helvetica,sans-Serif" font-size="10.00">detail::exception::</text>
<text text-anchor="middle" x="655.88" y="-212.5" font-family="Helvetica,sans-Serif" font-size="10.00">diagnostics</text>
</a>
</g>
</g>
<!-- Node8&#45;&gt;Node9 -->
<g id="edge9" class="edge">
<title>Node8&#45;&gt;Node9</title>
<path fill="none" stroke="#63b8ff" d="M554.49,-207.33C568.32,-209.35 583.43,-211.56 597.64,-213.63"/>
<polygon fill="#63b8ff" stroke="#63b8ff" points="596.89,-217.06 607.29,-215.04 597.9,-210.13 596.89,-217.06"/>
</g>
<!-- Node10 -->
<g id="node10" class="node">
<title>Node10</title>
<g id="a_node10"><a xlink:href="classdetail_1_1exception.html#a8f1eb56b9964c8dd84d89d0da98d883b" target="_top" xlink:title=" ">
<polygon fill="white" stroke="#666666" points="714.5,-276 597.25,-276 597.25,-256 714.5,-256 714.5,-276"/>
<text text-anchor="middle" x="655.88" y="-262.5" font-family="Helvetica,sans-Serif" font-size="10.00">detail::exception::name</text>
</a>
</g>
</g>
<!-- Node8&#45;&gt;Node10 -->
<g id="edge10" class="edge">
<title>Node8&#45;&gt;Node10</title>
<path fill="none" stroke="#63b8ff" d="M533.96,-216.4C551.94,-226.01 575.55,-237.99 597.25,-247 601.29,-248.68 605.54,-250.31 609.83,-251.87"/>
<polygon fill="#63b8ff" stroke="#63b8ff" points="608.41,-255.09 619.01,-255.08 610.72,-248.48 608.41,-255.09"/>
</g>
<!-- Node10&#45;&gt;Node4 -->
<g id="edge11" class="edge">
<title>Node10&#45;&gt;Node4</title>
<path fill="none" stroke="#63b8ff" d="M692.71,-276.48C707.33,-280.76 724.43,-285.77 740.01,-290.33"/>
<polygon fill="#63b8ff" stroke="#63b8ff" points="739,-293.68 749.58,-293.12 740.97,-286.96 739,-293.68"/>
</g>
<!-- Node14&#45;&gt;Node4 -->
<g id="edge17" class="edge">
<title>Node14&#45;&gt;Node4</title>
<path fill="none" stroke="#63b8ff" d="M550.06,-292.26C601.86,-294.83 685.97,-299 738.72,-301.62"/>
<polygon fill="#63b8ff" stroke="#63b8ff" points="738.46,-305.11 748.62,-302.11 738.8,-298.12 738.46,-305.11"/>
</g>
<!-- Node16&#45;&gt;Node4 -->
<g id="edge20" class="edge">
<title>Node16&#45;&gt;Node4</title>
<path fill="none" stroke="#63b8ff" d="M666.6,-104.36C678.71,-117.56 699.6,-141.39 714.5,-164 740.97,-204.17 765.17,-255.22 777.73,-283.25"/>
<polygon fill="#63b8ff" stroke="#63b8ff" points="774.51,-284.63 781.75,-292.36 780.91,-281.8 774.51,-284.63"/>
</g>
<!-- Node19&#45;&gt;Node8 -->
<g id="edge24" class="edge">
<title>Node19&#45;&gt;Node8</title>
<path fill="none" stroke="#63b8ff" d="M391.87,-96.38C398,-98.76 404.08,-101.61 409.5,-105 439.15,-123.53 466.24,-153.42 483.42,-174.72"/>
<polygon fill="#63b8ff" stroke="#63b8ff" points="480.5,-176.67 489.43,-182.36 486,-172.34 480.5,-176.67"/>
</g>
<!-- Node20&#45;&gt;Node4 -->
<g id="edge26" class="edge">
<title>Node20&#45;&gt;Node4</title>
<path fill="none" stroke="#63b8ff" d="M561.48,-509.54C607.38,-510.91 671.14,-505.51 714.5,-472 761.69,-435.53 778.53,-362.12 784.15,-325.62"/>
<polygon fill="#63b8ff" stroke="#63b8ff" points="787.59,-326.26 785.49,-315.87 780.66,-325.3 787.59,-326.26"/>
</g>
</g>
</svg>
