<?xml version="1.0" encoding="UTF-8" standalone="no"?>
<!DOCTYPE svg PUBLIC "-//W3C//DTD SVG 1.1//EN"
 "http://www.w3.org/Graphics/SVG/1.1/DTD/svg11.dtd">
<!-- Generated by graphviz version 12.2.1 (20241206.2353)
 -->
<!-- Title: SceneCombat::sDoAction Pages: 1 -->
<svg width="545pt" height="380pt"
 viewBox="0.00 0.00 545.00 380.00" xmlns="http://www.w3.org/2000/svg" xmlns:xlink="http://www.w3.org/1999/xlink">
<g id="graph0" class="graph" transform="scale(1 1) rotate(0) translate(4 376)">
<title>SceneCombat::sDoAction</title>
<!-- Node1 -->
<g id="node1" class="node">
<title>Node1</title>
<g id="a_node1"><a xlink:title=" ">
<polygon fill="#999999" stroke="#666666" points="130,-202 0,-202 0,-182 130,-182 130,-202"/>
<text text-anchor="middle" x="65" y="-188.5" font-family="Helvetica,sans-Serif" font-size="10.00">SceneCombat::sDoAction</text>
</a>
</g>
</g>
<!-- Node2 -->
<g id="node2" class="node">
<title>Node2</title>
<g id="a_node2"><a xlink:href="classAction.html#a23800f6ef38781f10e6823f09ad6d62c" target="_top" xlink:title=" ">
<polygon fill="white" stroke="#666666" points="285.5,-372 211.75,-372 211.75,-352 285.5,-352 285.5,-372"/>
<text text-anchor="middle" x="248.62" y="-358.5" font-family="Helvetica,sans-Serif" font-size="10.00">Action::name</text>
</a>
</g>
</g>
<!-- Node1&#45;&gt;Node2 -->
<g id="edge1" class="edge">
<title>Node1&#45;&gt;Node2</title>
<path fill="none" stroke="#63b8ff" d="M69.71,-202.4C80.16,-230.05 112.55,-305.86 166,-343 176.05,-349.98 188.31,-354.43 200.24,-357.25"/>
<polygon fill="#63b8ff" stroke="#63b8ff" points="199.52,-360.68 210.01,-359.19 200.88,-353.81 199.52,-360.68"/>
</g>
<!-- Node3 -->
<g id="node3" class="node">
<title>Node3</title>
<g id="a_node3"><a xlink:href="classSceneCombat.html#a76d841c8792a343487dfb6d19d82b0b1" target="_top" xlink:title=" ">
<polygon fill="white" stroke="#666666" points="331.25,-246 166,-246 166,-226 331.25,-226 331.25,-246"/>
<text text-anchor="middle" x="248.62" y="-232.5" font-family="Helvetica,sans-Serif" font-size="10.00">SceneCombat::sAddWordToChain</text>
</a>
</g>
</g>
<!-- Node1&#45;&gt;Node3 -->
<g id="edge2" class="edge">
<title>Node1&#45;&gt;Node3</title>
<path fill="none" stroke="#63b8ff" d="M107.32,-202.49C125.33,-207.02 146.69,-212.34 166,-217 174.16,-218.97 182.79,-221.02 191.27,-223.01"/>
<polygon fill="#63b8ff" stroke="#63b8ff" points="190.25,-226.36 200.79,-225.23 191.85,-219.55 190.25,-226.36"/>
</g>
<!-- Node7 -->
<g id="node7" class="node">
<title>Node7</title>
<g id="a_node7"><a xlink:href="classSceneCombat.html#a998026e431b8e404e2f2a306b5eda817" target="_top" xlink:title=" ">
<polygon fill="white" stroke="#666666" points="314,-284 183.25,-284 183.25,-264 314,-264 314,-284"/>
<text text-anchor="middle" x="248.62" y="-270.5" font-family="Helvetica,sans-Serif" font-size="10.00">SceneCombat::setPaused</text>
</a>
</g>
</g>
<!-- Node1&#45;&gt;Node7 -->
<g id="edge6" class="edge">
<title>Node1&#45;&gt;Node7</title>
<path fill="none" stroke="#63b8ff" d="M79.12,-202.3C97.51,-216.25 132.48,-241.01 166,-255 170.66,-256.94 175.55,-258.71 180.53,-260.31"/>
<polygon fill="#63b8ff" stroke="#63b8ff" points="179.48,-263.65 190.07,-263.13 181.47,-256.94 179.48,-263.65"/>
</g>
<!-- Node8 -->
<g id="node8" class="node">
<title>Node8</title>
<g id="a_node8"><a xlink:href="classSceneCombat.html#aad9fbc02da2720c6bfe3eaf3730d0e64" target="_top" xlink:title=" ">
<polygon fill="white" stroke="#666666" points="321.12,-208 176.12,-208 176.12,-176 321.12,-176 321.12,-208"/>
<text text-anchor="start" x="184.12" y="-194.5" font-family="Helvetica,sans-Serif" font-size="10.00">SceneCombat::sGetAvailable</text>
<text text-anchor="middle" x="248.62" y="-182.5" font-family="Helvetica,sans-Serif" font-size="10.00">ChainWords</text>
</a>
</g>
</g>
<!-- Node1&#45;&gt;Node8 -->
<g id="edge7" class="edge">
<title>Node1&#45;&gt;Node8</title>
<path fill="none" stroke="#63b8ff" d="M130.29,-192C141.31,-192 152.9,-192 164.34,-192"/>
<polygon fill="#63b8ff" stroke="#63b8ff" points="164.17,-195.5 174.17,-192 164.17,-188.5 164.17,-195.5"/>
</g>
<!-- Node9 -->
<g id="node9" class="node">
<title>Node9</title>
<g id="a_node9"><a xlink:href="classSceneCombat.html#a0fed287dccccef9e9431e9085899ae38" target="_top" xlink:title=" ">
<polygon fill="white" stroke="#666666" points="325.25,-158 172,-158 172,-126 325.25,-126 325.25,-158"/>
<text text-anchor="start" x="180" y="-144.5" font-family="Helvetica,sans-Serif" font-size="10.00">SceneCombat::sProcessPlayer</text>
<text text-anchor="middle" x="248.62" y="-132.5" font-family="Helvetica,sans-Serif" font-size="10.00">Answer</text>
</a>
</g>
</g>
<!-- Node1&#45;&gt;Node9 -->
<g id="edge9" class="edge">
<title>Node1&#45;&gt;Node9</title>
<path fill="none" stroke="#63b8ff" d="M104.07,-181.52C125.19,-175.71 152.12,-168.29 176.94,-161.46"/>
<polygon fill="#63b8ff" stroke="#63b8ff" points="177.62,-164.9 186.33,-158.87 175.76,-158.15 177.62,-164.9"/>
</g>
<!-- Node13 -->
<g id="node13" class="node">
<title>Node13</title>
<g id="a_node13"><a xlink:href="classSceneCombat.html#a96eda451b05e50af9f18d47c40ce30be" target="_top" xlink:title=" ">
<polygon fill="white" stroke="#666666" points="321.12,-334 176.12,-334 176.12,-302 321.12,-302 321.12,-334"/>
<text text-anchor="start" x="184.12" y="-320.5" font-family="Helvetica,sans-Serif" font-size="10.00">SceneCombat::sRemoveLast</text>
<text text-anchor="middle" x="248.62" y="-308.5" font-family="Helvetica,sans-Serif" font-size="10.00">WordFromChain</text>
</a>
</g>
</g>
<!-- Node1&#45;&gt;Node13 -->
<g id="edge13" class="edge">
<title>Node1&#45;&gt;Node13</title>
<path fill="none" stroke="#63b8ff" d="M73.31,-202.23C88.36,-222.53 124.82,-268.11 166,-293 168.16,-294.31 170.4,-295.55 172.69,-296.74"/>
<polygon fill="#63b8ff" stroke="#63b8ff" points="171.12,-299.87 181.67,-300.91 174.07,-293.52 171.12,-299.87"/>
</g>
<!-- Node14 -->
<g id="node14" class="node">
<title>Node14</title>
<g id="a_node14"><a xlink:href="classSceneCombat.html#a7b1e36e0481742dff817f70dfb45336f" target="_top" xlink:title=" ">
<polygon fill="white" stroke="#666666" points="324.5,-108 172.75,-108 172.75,-76 324.5,-76 324.5,-108"/>
<text text-anchor="start" x="180.75" y="-94.5" font-family="Helvetica,sans-Serif" font-size="10.00">SceneCombat::sStartSemantic</text>
<text text-anchor="middle" x="248.62" y="-82.5" font-family="Helvetica,sans-Serif" font-size="10.00">Chaining</text>
</a>
</g>
</g>
<!-- Node1&#45;&gt;Node14 -->
<g id="edge15" class="edge">
<title>Node1&#45;&gt;Node14</title>
<path fill="none" stroke="#63b8ff" d="M77.12,-181.57C94.71,-165.59 130.6,-135 166,-117 168.91,-115.52 171.92,-114.11 175,-112.77"/>
<polygon fill="#63b8ff" stroke="#63b8ff" points="176.29,-116.02 184.26,-109.04 173.67,-109.53 176.29,-116.02"/>
</g>
<!-- Node15 -->
<g id="node15" class="node">
<title>Node15</title>
<g id="a_node15"><a xlink:href="classSceneCombat.html#a8b6f0d1575a1082fe8a5b929d00ea88b" target="_top" xlink:title=" ">
<polygon fill="white" stroke="#666666" points="321.5,-58 175.75,-58 175.75,-38 321.5,-38 321.5,-58"/>
<text text-anchor="middle" x="248.62" y="-44.5" font-family="Helvetica,sans-Serif" font-size="10.00">SceneCombat::sSubmitChain</text>
</a>
</g>
</g>
<!-- Node1&#45;&gt;Node15 -->
<g id="edge16" class="edge">
<title>Node1&#45;&gt;Node15</title>
<path fill="none" stroke="#63b8ff" d="M71.13,-181.66C83.7,-157.46 118.51,-96.93 166,-67 168.28,-65.56 170.67,-64.23 173.12,-63"/>
<polygon fill="#63b8ff" stroke="#63b8ff" points="174.37,-66.27 182.16,-59.09 171.59,-59.85 174.37,-66.27"/>
</g>
<!-- Node16 -->
<g id="node16" class="node">
<title>Node16</title>
<g id="a_node16"><a xlink:href="classAction.html#a17c7beb7eb4055b45fbc4587f61ec933" target="_top" xlink:title=" ">
<polygon fill="white" stroke="#666666" points="282.88,-20 214.38,-20 214.38,0 282.88,0 282.88,-20"/>
<text text-anchor="middle" x="248.62" y="-6.5" font-family="Helvetica,sans-Serif" font-size="10.00">Action::type</text>
</a>
</g>
</g>
<!-- Node1&#45;&gt;Node16 -->
<g id="edge17" class="edge">
<title>Node1&#45;&gt;Node16</title>
<path fill="none" stroke="#63b8ff" d="M69.18,-181.64C78.68,-152.54 109.71,-69.58 166,-29 176.77,-21.23 190.24,-16.59 203.11,-13.83"/>
<polygon fill="#63b8ff" stroke="#63b8ff" points="203.46,-17.32 212.69,-12.12 202.23,-10.43 203.46,-17.32"/>
</g>
<!-- Node4 -->
<g id="node4" class="node">
<title>Node4</title>
<g id="a_node4"><a xlink:href="classSceneCombat.html#ada8c49991a48bf4c6aec2f7a537301fe" target="_top" xlink:title=" ">
<polygon fill="white" stroke="#666666" points="530.25,-324 374,-324 374,-292 530.25,-292 530.25,-324"/>
<text text-anchor="start" x="382" y="-310.5" font-family="Helvetica,sans-Serif" font-size="10.00">SceneCombat::sCalculateChain</text>
<text text-anchor="middle" x="452.12" y="-298.5" font-family="Helvetica,sans-Serif" font-size="10.00">Damage</text>
</a>
</g>
</g>
<!-- Node3&#45;&gt;Node4 -->
<g id="edge3" class="edge">
<title>Node3&#45;&gt;Node4</title>
<path fill="none" stroke="#63b8ff" d="M303.34,-246.43C312.77,-248.84 322.39,-251.69 331.25,-255 348.2,-261.33 350.85,-266.37 367.25,-274 376.98,-278.52 387.48,-283.05 397.66,-287.27"/>
<polygon fill="#63b8ff" stroke="#63b8ff" points="396.12,-290.42 406.7,-290.95 398.76,-283.93 396.12,-290.42"/>
</g>
<!-- Node5 -->
<g id="node5" class="node">
<title>Node5</title>
<g id="a_node5"><a xlink:href="classSceneCombat.html#a5438d9ea2e75ba54b357409cc47a6700" target="_top" xlink:title=" ">
<polygon fill="white" stroke="#666666" points="537,-215 367.25,-215 367.25,-195 537,-195 537,-215"/>
<text text-anchor="middle" x="452.12" y="-201.5" font-family="Helvetica,sans-Serif" font-size="10.00">SceneCombat::sPlayerKnowsWord</text>
</a>
</g>
</g>
<!-- Node3&#45;&gt;Node5 -->
<g id="edge4" class="edge">
<title>Node3&#45;&gt;Node5</title>
<path fill="none" stroke="#63b8ff" d="M317.84,-225.5C335.16,-222.84 353.91,-219.96 371.73,-217.22"/>
<polygon fill="#63b8ff" stroke="#63b8ff" points="372.13,-220.69 381.48,-215.71 371.06,-213.78 372.13,-220.69"/>
</g>
<!-- Node6 -->
<g id="node6" class="node">
<title>Node6</title>
<g id="a_node6"><a xlink:href="classSceneCombat.html#aece6655ddb0f2504638878f9321ef492" target="_top" xlink:title=" ">
<polygon fill="white" stroke="#666666" points="534.75,-265 369.5,-265 369.5,-233 534.75,-233 534.75,-265"/>
<text text-anchor="start" x="377.5" y="-251.5" font-family="Helvetica,sans-Serif" font-size="10.00">SceneCombat::sValidateSemantic</text>
<text text-anchor="middle" x="452.12" y="-239.5" font-family="Helvetica,sans-Serif" font-size="10.00">Chain</text>
</a>
</g>
</g>
<!-- Node3&#45;&gt;Node6 -->
<g id="edge5" class="edge">
<title>Node3&#45;&gt;Node6</title>
<path fill="none" stroke="#63b8ff" d="M331.58,-241.29C340.22,-241.84 349.05,-242.41 357.8,-242.98"/>
<polygon fill="#63b8ff" stroke="#63b8ff" points="357.52,-246.47 367.73,-243.62 357.98,-239.48 357.52,-246.47"/>
</g>
<!-- Node8&#45;&gt;Node5 -->
<g id="edge8" class="edge">
<title>Node8&#45;&gt;Node5</title>
<path fill="none" stroke="#63b8ff" d="M321.52,-196.64C332.54,-197.35 344.06,-198.09 355.49,-198.83"/>
<polygon fill="#63b8ff" stroke="#63b8ff" points="355.16,-202.32 365.37,-199.47 355.61,-195.33 355.16,-202.32"/>
</g>
<!-- Node10 -->
<g id="node10" class="node">
<title>Node10</title>
<g id="a_node10"><a xlink:href="classSceneCombat.html#a465c5aa967a785e6ecaf11b57f865de5" target="_top" xlink:title=" ">
<polygon fill="white" stroke="#666666" points="527.62,-177 376.62,-177 376.62,-157 527.62,-157 527.62,-177"/>
<text text-anchor="middle" x="452.12" y="-163.5" font-family="Helvetica,sans-Serif" font-size="10.00">SceneCombat::sApplyDamage</text>
</a>
</g>
</g>
<!-- Node9&#45;&gt;Node10 -->
<g id="edge10" class="edge">
<title>Node9&#45;&gt;Node10</title>
<path fill="none" stroke="#63b8ff" d="M325.52,-151.42C338.37,-153.01 351.81,-154.68 364.9,-156.3"/>
<polygon fill="#63b8ff" stroke="#63b8ff" points="364.45,-159.77 374.8,-157.53 365.31,-152.83 364.45,-159.77"/>
</g>
<!-- Node11 -->
<g id="node11" class="node">
<title>Node11</title>
<g id="a_node11"><a xlink:href="classSceneCombat.html#af0b3bef84d34d470709b0a050771c44e" target="_top" xlink:title=" ">
<polygon fill="white" stroke="#666666" points="522.75,-139 381.5,-139 381.5,-119 522.75,-119 522.75,-139"/>
<text text-anchor="middle" x="452.12" y="-125.5" font-family="Helvetica,sans-Serif" font-size="10.00">SceneCombat::sEndCombat</text>
</a>
</g>
</g>
<!-- Node9&#45;&gt;Node11 -->
<g id="edge11" class="edge">
<title>Node9&#45;&gt;Node11</title>
<path fill="none" stroke="#63b8ff" d="M325.52,-137.1C340.1,-136.16 355.42,-135.17 370.15,-134.22"/>
<polygon fill="#63b8ff" stroke="#63b8ff" points="370.02,-137.74 379.77,-133.6 369.56,-130.75 370.02,-137.74"/>
</g>
<!-- Node12 -->
<g id="node12" class="node">
<title>Node12</title>
<g id="a_node12"><a xlink:href="classSceneCombat.html#aed515cf302c3f9f5dab23b2597ddc086" target="_top" xlink:title=" ">
<polygon fill="white" stroke="#666666" points="528,-101 376.25,-101 376.25,-69 528,-69 528,-101"/>
<text text-anchor="start" x="384.25" y="-87.5" font-family="Helvetica,sans-Serif" font-size="10.00">SceneCombat::sGenerateWord</text>
<text text-anchor="middle" x="452.12" y="-75.5" font-family="Helvetica,sans-Serif" font-size="10.00">Challenge</text>
</a>
</g>
</g>
<!-- Node9&#45;&gt;Node12 -->
<g id="edge12" class="edge">
<title>Node9&#45;&gt;Node12</title>
<path fill="none" stroke="#63b8ff" d="M307.91,-125.51C331.09,-118.96 357.94,-111.36 382.09,-104.53"/>
<polygon fill="#63b8ff" stroke="#63b8ff" points="382.85,-107.95 391.52,-101.86 380.94,-101.22 382.85,-107.95"/>
</g>
<!-- Node13&#45;&gt;Node4 -->
<g id="edge14" class="edge">
<title>Node13&#45;&gt;Node4</title>
<path fill="none" stroke="#63b8ff" d="M321.52,-314.43C334.76,-313.77 348.73,-313.08 362.41,-312.4"/>
<polygon fill="#63b8ff" stroke="#63b8ff" points="362.47,-315.9 372.29,-311.91 362.12,-308.91 362.47,-315.9"/>
</g>
</g>
</svg>
