<?xml version="1.0" encoding="UTF-8" standalone="no"?>
<!DOCTYPE svg PUBLIC "-//W3C//DTD SVG 1.1//EN"
 "http://www.w3.org/Graphics/SVG/1.1/DTD/svg11.dtd">
<!-- Generated by graphviz version 12.2.1 (20241206.2353)
 -->
<!-- Title: basic_json::swap Pages: 1 -->
<svg width="195pt" height="46pt"
 viewBox="0.00 0.00 194.50 46.00" xmlns="http://www.w3.org/2000/svg" xmlns:xlink="http://www.w3.org/1999/xlink">
<g id="graph0" class="graph" transform="scale(1 1) rotate(0) translate(4 42)">
<title>basic_json::swap</title>
<!-- Node1 -->
<g id="node1" class="node">
<title>Node1</title>
<g id="a_node1"><a xlink:title="exchanges the values">
<polygon fill="#999999" stroke="#666666" points="91.75,-20 0,-20 0,0 91.75,0 91.75,-20"/>
<text text-anchor="middle" x="45.88" y="-6.5" font-family="Helvetica,sans-Serif" font-size="10.00">basic_json::swap</text>
</a>
</g>
</g>
<!-- Node2 -->
<g id="node2" class="node">
<title>Node2</title>
<g id="a_node2"><a xlink:href="namespacestd.html#a4874fd00297ff5aef2872379cb521783" target="_top" xlink:title="exchanges the values of two JSON objects">
<polygon fill="white" stroke="#666666" points="186.5,-20 127.75,-20 127.75,0 186.5,0 186.5,-20"/>
<text text-anchor="middle" x="157.12" y="-6.5" font-family="Helvetica,sans-Serif" font-size="10.00">std::swap</text>
</a>
</g>
</g>
<!-- Node1&#45;&gt;Node2 -->
<g id="edge1" class="edge">
<title>Node1&#45;&gt;Node2</title>
<path fill="none" stroke="#63b8ff" d="M91.94,-10C99.9,-10 108.15,-10 115.96,-10"/>
<polygon fill="#63b8ff" stroke="#63b8ff" points="115.89,-13.5 125.89,-10 115.89,-6.5 115.89,-13.5"/>
</g>
<!-- Node2&#45;&gt;Node2 -->
<g id="edge2" class="edge">
<title>Node2&#45;&gt;Node2</title>
<path fill="none" stroke="#63b8ff" d="M139.45,-20.34C131.89,-28.98 137.79,-38 157.12,-38 167.7,-38 174.25,-35.3 176.79,-31.44"/>
<polygon fill="#63b8ff" stroke="#63b8ff" points="180.27,-31.06 175.07,-21.83 173.38,-32.29 180.27,-31.06"/>
</g>
</g>
</svg>
