<?xml version="1.0" encoding="UTF-8" standalone="no"?>
<!DOCTYPE svg PUBLIC "-//W3C//DTD SVG 1.1//EN"
 "http://www.w3.org/Graphics/SVG/1.1/DTD/svg11.dtd">
<!-- Generated by graphviz version 12.2.1 (20241206.2353)
 -->
<!-- Title: SceneApprenticeship::SceneApprenticeship Pages: 1 -->
<svg width="572pt" height="140pt"
 viewBox="0.00 0.00 572.25 140.00" xmlns="http://www.w3.org/2000/svg" xmlns:xlink="http://www.w3.org/1999/xlink">
<g id="graph0" class="graph" transform="scale(1 1) rotate(0) translate(4 136)">
<title>SceneApprenticeship::SceneApprenticeship</title>
<!-- Node1 -->
<g id="node1" class="node">
<title>Node1</title>
<g id="a_node1"><a xlink:title=" ">
<polygon fill="#999999" stroke="#666666" points="114.25,-82 0,-82 0,-50 114.25,-50 114.25,-82"/>
<text text-anchor="start" x="8" y="-68.5" font-family="Helvetica,sans-Serif" font-size="10.00">SceneApprenticeship</text>
<text text-anchor="middle" x="57.12" y="-56.5" font-family="Helvetica,sans-Serif" font-size="10.00">::SceneApprenticeship</text>
</a>
</g>
</g>
<!-- Node2 -->
<g id="node2" class="node">
<title>Node2</title>
<g id="a_node2"><a xlink:href="classSceneApprenticeship.html#a026d86301a2ac94f24da3b0f8a1cbaeb" target="_top" xlink:title=" ">
<polygon fill="white" stroke="#666666" points="258.5,-82 150.25,-82 150.25,-50 258.5,-50 258.5,-82"/>
<text text-anchor="start" x="158.25" y="-68.5" font-family="Helvetica,sans-Serif" font-size="10.00">SceneApprenticeship</text>
<text text-anchor="middle" x="204.38" y="-56.5" font-family="Helvetica,sans-Serif" font-size="10.00">::init</text>
</a>
</g>
</g>
<!-- Node1&#45;&gt;Node2 -->
<g id="edge1" class="edge">
<title>Node1&#45;&gt;Node2</title>
<path fill="none" stroke="#63b8ff" d="M114.7,-66C122.51,-66 130.59,-66 138.54,-66"/>
<polygon fill="#63b8ff" stroke="#63b8ff" points="138.53,-69.5 148.53,-66 138.53,-62.5 138.53,-69.5"/>
</g>
<!-- Node3 -->
<g id="node3" class="node">
<title>Node3</title>
<g id="a_node3"><a xlink:href="classSceneApprenticeship.html#ad830b3cf5344cbb9ef03f5a22af0fec6" target="_top" xlink:title=" ">
<polygon fill="white" stroke="#666666" points="424.5,-132 316.25,-132 316.25,-100 424.5,-100 424.5,-132"/>
<text text-anchor="start" x="324.25" y="-118.5" font-family="Helvetica,sans-Serif" font-size="10.00">SceneApprenticeship</text>
<text text-anchor="middle" x="370.38" y="-106.5" font-family="Helvetica,sans-Serif" font-size="10.00">::loadDialogue</text>
</a>
</g>
</g>
<!-- Node2&#45;&gt;Node3 -->
<g id="edge2" class="edge">
<title>Node2&#45;&gt;Node3</title>
<path fill="none" stroke="#63b8ff" d="M258.62,-82.23C273.37,-86.73 289.55,-91.66 304.86,-96.33"/>
<polygon fill="#63b8ff" stroke="#63b8ff" points="303.8,-99.67 314.39,-99.24 305.84,-92.97 303.8,-99.67"/>
</g>
<!-- Node5 -->
<g id="node5" class="node">
<title>Node5</title>
<g id="a_node5"><a xlink:href="classSceneApprenticeship.html#ad8bf82e2c510a4f2182a1cdcaf4843e2" target="_top" xlink:title=" ">
<polygon fill="white" stroke="#666666" points="446.25,-82 294.5,-82 294.5,-50 446.25,-50 446.25,-82"/>
<text text-anchor="start" x="302.5" y="-68.5" font-family="Helvetica,sans-Serif" font-size="10.00">SceneApprenticeship</text>
<text text-anchor="middle" x="370.38" y="-56.5" font-family="Helvetica,sans-Serif" font-size="10.00">::registerApprenticeshipActions</text>
</a>
</g>
</g>
<!-- Node2&#45;&gt;Node5 -->
<g id="edge4" class="edge">
<title>Node2&#45;&gt;Node5</title>
<path fill="none" stroke="#63b8ff" d="M258.62,-66C266.4,-66 274.58,-66 282.81,-66"/>
<polygon fill="#63b8ff" stroke="#63b8ff" points="282.54,-69.5 292.54,-66 282.54,-62.5 282.54,-69.5"/>
</g>
<!-- Node6 -->
<g id="node6" class="node">
<title>Node6</title>
<g id="a_node6"><a xlink:href="classSceneApprenticeship.html#a565bf72d142adc5e3b19c7d28e87a094" target="_top" xlink:title=" ">
<polygon fill="white" stroke="#666666" points="424.5,-32 316.25,-32 316.25,0 424.5,0 424.5,-32"/>
<text text-anchor="start" x="324.25" y="-18.5" font-family="Helvetica,sans-Serif" font-size="10.00">SceneApprenticeship</text>
<text text-anchor="middle" x="370.38" y="-6.5" font-family="Helvetica,sans-Serif" font-size="10.00">::spawnPlayer</text>
</a>
</g>
</g>
<!-- Node2&#45;&gt;Node6 -->
<g id="edge5" class="edge">
<title>Node2&#45;&gt;Node6</title>
<path fill="none" stroke="#63b8ff" d="M258.62,-49.77C273.37,-45.27 289.55,-40.34 304.86,-35.67"/>
<polygon fill="#63b8ff" stroke="#63b8ff" points="305.84,-39.03 314.39,-32.76 303.8,-32.33 305.84,-39.03"/>
</g>
<!-- Node4 -->
<g id="node4" class="node">
<title>Node4</title>
<g id="a_node4"><a xlink:href="classbasic__json.html#a0ab31c7fdbab38898070bca01637f886" target="_top" xlink:title="get a (pointer) value (explicit)">
<polygon fill="white" stroke="#666666" points="564.25,-126 482.25,-126 482.25,-106 564.25,-106 564.25,-126"/>
<text text-anchor="middle" x="523.25" y="-112.5" font-family="Helvetica,sans-Serif" font-size="10.00">basic_json::get</text>
</a>
</g>
</g>
<!-- Node3&#45;&gt;Node4 -->
<g id="edge3" class="edge">
<title>Node3&#45;&gt;Node4</title>
<path fill="none" stroke="#63b8ff" d="M424.99,-116C439.83,-116 455.9,-116 470.62,-116"/>
<polygon fill="#63b8ff" stroke="#63b8ff" points="470.57,-119.5 480.57,-116 470.57,-112.5 470.57,-119.5"/>
</g>
</g>
</svg>
