<?xml version="1.0" encoding="UTF-8" standalone="no"?>
<!DOCTYPE svg PUBLIC "-//W3C//DTD SVG 1.1//EN"
 "http://www.w3.org/Graphics/SVG/1.1/DTD/svg11.dtd">
<!-- Generated by graphviz version 12.2.1 (20241206.2353)
 -->
<!-- Title: SceneCombat::init Pages: 1 -->
<svg width="316pt" height="128pt"
 viewBox="0.00 0.00 316.00 128.00" xmlns="http://www.w3.org/2000/svg" xmlns:xlink="http://www.w3.org/1999/xlink">
<g id="graph0" class="graph" transform="scale(1 1) rotate(0) translate(4 124)">
<title>SceneCombat::init</title>
<!-- Node1 -->
<g id="node1" class="node">
<title>Node1</title>
<g id="a_node1"><a xlink:title=" ">
<polygon fill="#999999" stroke="#666666" points="97,-64 0,-64 0,-44 97,-44 97,-64"/>
<text text-anchor="middle" x="48.5" y="-50.5" font-family="Helvetica,sans-Serif" font-size="10.00">SceneCombat::init</text>
</a>
</g>
</g>
<!-- Node2 -->
<g id="node2" class="node">
<title>Node2</title>
<g id="a_node2"><a xlink:href="classSceneCombat.html#aed515cf302c3f9f5dab23b2597ddc086" target="_top" xlink:title=" ">
<polygon fill="white" stroke="#666666" points="296.38,-120 144.62,-120 144.62,-88 296.38,-88 296.38,-120"/>
<text text-anchor="start" x="152.62" y="-106.5" font-family="Helvetica,sans-Serif" font-size="10.00">SceneCombat::sGenerateWord</text>
<text text-anchor="middle" x="220.5" y="-94.5" font-family="Helvetica,sans-Serif" font-size="10.00">Challenge</text>
</a>
</g>
</g>
<!-- Node1&#45;&gt;Node2 -->
<g id="edge1" class="edge">
<title>Node1&#45;&gt;Node2</title>
<path fill="none" stroke="#63b8ff" d="M84.01,-64.41C99.05,-68.93 116.89,-74.26 133,-79 138.9,-80.74 145.04,-82.53 151.19,-84.32"/>
<polygon fill="#63b8ff" stroke="#63b8ff" points="150.21,-87.68 160.79,-87.11 152.17,-80.96 150.21,-87.68"/>
</g>
<!-- Node3 -->
<g id="node3" class="node">
<title>Node3</title>
<g id="a_node3"><a xlink:href="classSceneCombat.html#ab3b1c676a3b2399dc7ce5c0c3bb5da6a" target="_top" xlink:title=" ">
<polygon fill="white" stroke="#666666" points="296.38,-70 144.62,-70 144.62,-38 296.38,-38 296.38,-70"/>
<text text-anchor="start" x="152.62" y="-56.5" font-family="Helvetica,sans-Serif" font-size="10.00">SceneCombat::sLoadSemantic</text>
<text text-anchor="middle" x="220.5" y="-44.5" font-family="Helvetica,sans-Serif" font-size="10.00">Relations</text>
</a>
</g>
</g>
<!-- Node1&#45;&gt;Node3 -->
<g id="edge2" class="edge">
<title>Node1&#45;&gt;Node3</title>
<path fill="none" stroke="#63b8ff" d="M97.31,-54C108.51,-54 120.79,-54 133.1,-54"/>
<polygon fill="#63b8ff" stroke="#63b8ff" points="132.88,-57.5 142.88,-54 132.88,-50.5 132.88,-57.5"/>
</g>
<!-- Node4 -->
<g id="node4" class="node">
<title>Node4</title>
<g id="a_node4"><a xlink:href="classSceneCombat.html#a2a2b228f2bf649ca460cbe33db05c394" target="_top" xlink:title=" ">
<polygon fill="white" stroke="#666666" points="308,-20 133,-20 133,0 308,0 308,-20"/>
<text text-anchor="middle" x="220.5" y="-6.5" font-family="Helvetica,sans-Serif" font-size="10.00">SceneCombat::sLoadWordDatabase</text>
</a>
</g>
</g>
<!-- Node1&#45;&gt;Node4 -->
<g id="edge3" class="edge">
<title>Node1&#45;&gt;Node4</title>
<path fill="none" stroke="#63b8ff" d="M82.26,-43.58C97.59,-38.85 116.15,-33.37 133,-29 141.07,-26.91 149.61,-24.85 158.04,-22.9"/>
<polygon fill="#63b8ff" stroke="#63b8ff" points="158.58,-26.37 167.56,-20.75 157.03,-19.55 158.58,-26.37"/>
</g>
</g>
</svg>
