<?xml version="1.0" encoding="UTF-8" standalone="no"?>
<!DOCTYPE svg PUBLIC "-//W3C//DTD SVG 1.1//EN"
 "http://www.w3.org/Graphics/SVG/1.1/DTD/svg11.dtd">
<!-- Generated by graphviz version 12.2.1 (20241206.2353)
 -->
<!-- Title: detail::type_error::create Pages: 1 -->
<svg width="377pt" height="84pt"
 viewBox="0.00 0.00 377.00 84.00" xmlns="http://www.w3.org/2000/svg" xmlns:xlink="http://www.w3.org/1999/xlink">
<g id="graph0" class="graph" transform="scale(1 1) rotate(0) translate(4 80)">
<title>detail::type_error::create</title>
<!-- Node1 -->
<g id="node1" class="node">
<title>Node1</title>
<g id="a_node1"><a xlink:title=" ">
<polygon fill="#999999" stroke="#666666" points="369,-54 280.25,-54 280.25,-22 369,-22 369,-54"/>
<text text-anchor="start" x="288.25" y="-40.5" font-family="Helvetica,sans-Serif" font-size="10.00">detail::type_error</text>
<text text-anchor="middle" x="324.62" y="-28.5" font-family="Helvetica,sans-Serif" font-size="10.00">::create</text>
</a>
</g>
</g>
<!-- Node2 -->
<g id="node2" class="node">
<title>Node2</title>
<g id="a_node2"><a xlink:href="namespacedetail.html#ac8fc7fc4703cbd8edd7bb43a94adf92b" target="_top" xlink:title=" ">
<polygon fill="white" stroke="#666666" points="234.88,-70 146.88,-70 146.88,-50 234.88,-50 234.88,-70"/>
<text text-anchor="middle" x="190.88" y="-56.5" font-family="Helvetica,sans-Serif" font-size="10.00">detail::from_json</text>
</a>
</g>
</g>
<!-- Node1&#45;&gt;Node2 -->
<g id="edge1" class="edge">
<title>Node1&#45;&gt;Node2</title>
<path fill="none" stroke="#63b8ff" d="M268.73,-47.17C257.51,-49.04 245.85,-50.99 235.11,-52.78"/>
<polygon fill="#63b8ff" stroke="#63b8ff" points="268.97,-50.67 278.26,-45.57 267.82,-43.77 268.97,-50.67"/>
</g>
<!-- Node4 -->
<g id="node4" class="node">
<title>Node4</title>
<g id="a_node4"><a xlink:href="namespacedetail.html#ad10dc6af43ec8e72954eb2ac08c8698b" target="_top" xlink:title=" ">
<polygon fill="white" stroke="#666666" points="244.25,-32 137.5,-32 137.5,0 244.25,0 244.25,-32"/>
<text text-anchor="start" x="145.5" y="-18.5" font-family="Helvetica,sans-Serif" font-size="10.00">detail::get_arithmetic</text>
<text text-anchor="middle" x="190.88" y="-6.5" font-family="Helvetica,sans-Serif" font-size="10.00">_value</text>
</a>
</g>
</g>
<!-- Node1&#45;&gt;Node4 -->
<g id="edge3" class="edge">
<title>Node1&#45;&gt;Node4</title>
<path fill="none" stroke="#63b8ff" d="M268.44,-28.79C260.59,-27.47 252.52,-26.13 244.71,-24.82"/>
<polygon fill="#63b8ff" stroke="#63b8ff" points="267.82,-32.23 278.26,-30.43 268.97,-25.33 267.82,-32.23"/>
</g>
<!-- Node3 -->
<g id="node3" class="node">
<title>Node3</title>
<g id="a_node3"><a xlink:href="structdetail_1_1from__json__fn.html#a98f7c5bf6d2857ac7281d2b0fd98a907" target="_top" xlink:title=" ">
<polygon fill="white" stroke="#666666" points="101.5,-76 0,-76 0,-44 101.5,-44 101.5,-76"/>
<text text-anchor="start" x="8" y="-62.5" font-family="Helvetica,sans-Serif" font-size="10.00">detail::from_json_fn</text>
<text text-anchor="middle" x="50.75" y="-50.5" font-family="Helvetica,sans-Serif" font-size="10.00">::operator()</text>
</a>
</g>
</g>
<!-- Node2&#45;&gt;Node3 -->
<g id="edge2" class="edge">
<title>Node2&#45;&gt;Node3</title>
<path fill="none" stroke="#63b8ff" d="M135.25,-60C124.17,-60 112.58,-60 101.67,-60"/>
<polygon fill="#63b8ff" stroke="#63b8ff" points="135.04,-63.5 145.04,-60 135.04,-56.5 135.04,-63.5"/>
</g>
<!-- Node5 -->
<g id="node5" class="node">
<title>Node5</title>
<g id="a_node5"><a xlink:href="namespacedetail.html#a4c4e5abfc7ef24404781b5d8662891c0" target="_top" xlink:title=" ">
<polygon fill="white" stroke="#666666" points="94.75,-26 6.75,-26 6.75,-6 94.75,-6 94.75,-26"/>
<text text-anchor="middle" x="50.75" y="-12.5" font-family="Helvetica,sans-Serif" font-size="10.00">detail::from_json</text>
</a>
</g>
</g>
<!-- Node4&#45;&gt;Node5 -->
<g id="edge4" class="edge">
<title>Node4&#45;&gt;Node5</title>
<path fill="none" stroke="#63b8ff" d="M126.05,-16C115.62,-16 105.03,-16 95.24,-16"/>
<polygon fill="#63b8ff" stroke="#63b8ff" points="125.75,-19.5 135.75,-16 125.75,-12.5 125.75,-19.5"/>
</g>
</g>
</svg>
