<?xml version="1.0" encoding="UTF-8" standalone="no"?>
<!DOCTYPE svg PUBLIC "-//W3C//DTD SVG 1.1//EN"
 "http://www.w3.org/Graphics/SVG/1.1/DTD/svg11.dtd">
<!-- Generated by graphviz version 12.2.1 (20241206.2353)
 -->
<!-- Title: basic_json::operator= Pages: 1 -->
<svg width="213pt" height="46pt"
 viewBox="0.00 0.00 212.50 46.00" xmlns="http://www.w3.org/2000/svg" xmlns:xlink="http://www.w3.org/1999/xlink">
<g id="graph0" class="graph" transform="scale(1 1) rotate(0) translate(4 42)">
<title>basic_json::operator=</title>
<!-- Node1 -->
<g id="node1" class="node">
<title>Node1</title>
<g id="a_node1"><a xlink:title="copy assignment">
<polygon fill="#999999" stroke="#666666" points="109.75,-20 0,-20 0,0 109.75,0 109.75,-20"/>
<text text-anchor="middle" x="54.88" y="-6.5" font-family="Helvetica,sans-Serif" font-size="10.00">basic_json::operator=</text>
</a>
</g>
</g>
<!-- Node2 -->
<g id="node2" class="node">
<title>Node2</title>
<g id="a_node2"><a xlink:href="namespacestd.html#a4874fd00297ff5aef2872379cb521783" target="_top" xlink:title="exchanges the values of two JSON objects">
<polygon fill="white" stroke="#666666" points="204.5,-20 145.75,-20 145.75,0 204.5,0 204.5,-20"/>
<text text-anchor="middle" x="175.12" y="-6.5" font-family="Helvetica,sans-Serif" font-size="10.00">std::swap</text>
</a>
</g>
</g>
<!-- Node1&#45;&gt;Node2 -->
<g id="edge1" class="edge">
<title>Node1&#45;&gt;Node2</title>
<path fill="none" stroke="#63b8ff" d="M110.15,-10C118.12,-10 126.21,-10 133.83,-10"/>
<polygon fill="#63b8ff" stroke="#63b8ff" points="133.83,-13.5 143.83,-10 133.83,-6.5 133.83,-13.5"/>
</g>
<!-- Node2&#45;&gt;Node2 -->
<g id="edge2" class="edge">
<title>Node2&#45;&gt;Node2</title>
<path fill="none" stroke="#63b8ff" d="M156.02,-20.34C147.85,-28.98 154.22,-38 175.12,-38 186.56,-38 193.64,-35.3 196.38,-31.44"/>
<polygon fill="#63b8ff" stroke="#63b8ff" points="199.85,-30.98 194.52,-21.82 192.98,-32.31 199.85,-30.98"/>
</g>
</g>
</svg>
