<?xml version="1.0" encoding="UTF-8" standalone="no"?>
<!DOCTYPE svg PUBLIC "-//W3C//DTD SVG 1.1//EN"
 "http://www.w3.org/Graphics/SVG/1.1/DTD/svg11.dtd">
<!-- Generated by graphviz version 12.2.1 (20241206.2353)
 -->
<!-- Title: TurnManager::executePlayerAction Pages: 1 -->
<svg width="336pt" height="278pt"
 viewBox="0.00 0.00 335.50 278.00" xmlns="http://www.w3.org/2000/svg" xmlns:xlink="http://www.w3.org/1999/xlink">
<g id="graph0" class="graph" transform="scale(1 1) rotate(0) translate(4 274)">
<title>TurnManager::executePlayerAction</title>
<!-- Node1 -->
<g id="node1" class="node">
<title>Node1</title>
<g id="a_node1"><a xlink:title=" ">
<polygon fill="#999999" stroke="#666666" points="141.25,-145 0,-145 0,-113 141.25,-113 141.25,-145"/>
<text text-anchor="start" x="8" y="-131.5" font-family="Helvetica,sans-Serif" font-size="10.00">TurnManager::executePlayer</text>
<text text-anchor="middle" x="70.62" y="-119.5" font-family="Helvetica,sans-Serif" font-size="10.00">Action</text>
</a>
</g>
</g>
<!-- Node2 -->
<g id="node2" class="node">
<title>Node2</title>
<g id="a_node2"><a xlink:href="classActionResolutionManager.html#a448a2e65e8d7a809562bf617774dc7dd" target="_top" xlink:title=" ">
<polygon fill="white" stroke="#666666" points="316.25,-270 188.5,-270 188.5,-238 316.25,-238 316.25,-270"/>
<text text-anchor="start" x="196.5" y="-256.5" font-family="Helvetica,sans-Serif" font-size="10.00">ActionResolutionManager</text>
<text text-anchor="middle" x="252.38" y="-244.5" font-family="Helvetica,sans-Serif" font-size="10.00">::executeAction</text>
</a>
</g>
</g>
<!-- Node1&#45;&gt;Node2 -->
<g id="edge1" class="edge">
<title>Node1&#45;&gt;Node2</title>
<path fill="none" stroke="#63b8ff" d="M84.97,-145.48C103.52,-167.41 139.17,-206.09 177.25,-229 179.42,-230.31 181.68,-231.56 183.98,-232.75"/>
<polygon fill="#63b8ff" stroke="#63b8ff" points="182.47,-235.91 193.01,-236.99 185.44,-229.57 182.47,-235.91"/>
</g>
<!-- Node3 -->
<g id="node3" class="node">
<title>Node3</title>
<g id="a_node3"><a xlink:href="classActionFormationManager.html#a3aa75a23597c75755ca2c98d6cf36e3a" target="_top" xlink:title=" ">
<polygon fill="white" stroke="#666666" points="314.75,-220 190,-220 190,-188 314.75,-188 314.75,-220"/>
<text text-anchor="start" x="198" y="-206.5" font-family="Helvetica,sans-Serif" font-size="10.00">ActionFormationManager</text>
<text text-anchor="middle" x="252.38" y="-194.5" font-family="Helvetica,sans-Serif" font-size="10.00">::getCurrentAction</text>
</a>
</g>
</g>
<!-- Node1&#45;&gt;Node3 -->
<g id="edge2" class="edge">
<title>Node1&#45;&gt;Node3</title>
<path fill="none" stroke="#63b8ff" d="M103.55,-145.31C124.28,-155.6 152.04,-168.82 177.25,-179 181.24,-180.61 185.39,-182.21 189.58,-183.77"/>
<polygon fill="#63b8ff" stroke="#63b8ff" points="188.03,-186.93 198.63,-187.05 190.41,-180.35 188.03,-186.93"/>
</g>
<!-- Node4 -->
<g id="node4" class="node">
<title>Node4</title>
<g id="a_node4"><a xlink:href="classTurnManager.html#a87bbbe47c9aa0b602f6ab07daa91250f" target="_top" xlink:title=" ">
<polygon fill="white" stroke="#666666" points="327.5,-170 177.25,-170 177.25,-138 327.5,-138 327.5,-170"/>
<text text-anchor="start" x="185.25" y="-156.5" font-family="Helvetica,sans-Serif" font-size="10.00">TurnManager::hasPlayerAction</text>
<text text-anchor="middle" x="252.38" y="-144.5" font-family="Helvetica,sans-Serif" font-size="10.00">Points</text>
</a>
</g>
</g>
<!-- Node1&#45;&gt;Node4 -->
<g id="edge3" class="edge">
<title>Node1&#45;&gt;Node4</title>
<path fill="none" stroke="#63b8ff" d="M141.64,-138.74C149.47,-139.83 157.53,-140.95 165.53,-142.06"/>
<polygon fill="#63b8ff" stroke="#63b8ff" points="164.92,-145.51 175.3,-143.42 165.88,-138.58 164.92,-145.51"/>
</g>
<!-- Node5 -->
<g id="node5" class="node">
<title>Node5</title>
<g id="a_node5"><a xlink:href="classActionFormationManager.html#a695b946e5fc2c5987041419fc1c7dcd5" target="_top" xlink:title=" ">
<polygon fill="white" stroke="#666666" points="314.75,-120 190,-120 190,-88 314.75,-88 314.75,-120"/>
<text text-anchor="start" x="198" y="-106.5" font-family="Helvetica,sans-Serif" font-size="10.00">ActionFormationManager</text>
<text text-anchor="middle" x="252.38" y="-94.5" font-family="Helvetica,sans-Serif" font-size="10.00">::isFormationComplete</text>
</a>
</g>
</g>
<!-- Node1&#45;&gt;Node5 -->
<g id="edge4" class="edge">
<title>Node1&#45;&gt;Node5</title>
<path fill="none" stroke="#63b8ff" d="M141.64,-119.26C153.79,-117.57 166.45,-115.81 178.67,-114.11"/>
<polygon fill="#63b8ff" stroke="#63b8ff" points="178.82,-117.62 188.24,-112.78 177.86,-110.69 178.82,-117.62"/>
</g>
<!-- Node6 -->
<g id="node6" class="node">
<title>Node6</title>
<g id="a_node6"><a xlink:href="classTurnManager.html#a31b0059dd6dbd36fa5a0c5ab0c756e83" target="_top" xlink:title=" ">
<polygon fill="white" stroke="#666666" points="319.25,-70 185.5,-70 185.5,-50 319.25,-50 319.25,-70"/>
<text text-anchor="middle" x="252.38" y="-56.5" font-family="Helvetica,sans-Serif" font-size="10.00">TurnManager::isPlayerTurn</text>
</a>
</g>
</g>
<!-- Node1&#45;&gt;Node6 -->
<g id="edge5" class="edge">
<title>Node1&#45;&gt;Node6</title>
<path fill="none" stroke="#63b8ff" d="M102.39,-112.52C123.11,-101.9 151.3,-88.37 177.25,-79 182.66,-77.05 188.35,-75.21 194.09,-73.51"/>
<polygon fill="#63b8ff" stroke="#63b8ff" points="194.96,-76.9 203.63,-70.82 193.06,-70.16 194.96,-76.9"/>
</g>
<!-- Node7 -->
<g id="node7" class="node">
<title>Node7</title>
<g id="a_node7"><a xlink:href="classActionFormationManager.html#a3b5f38694a97746fd5702732a8999477" target="_top" xlink:title=" ">
<polygon fill="white" stroke="#666666" points="314.75,-32 190,-32 190,0 314.75,0 314.75,-32"/>
<text text-anchor="start" x="198" y="-18.5" font-family="Helvetica,sans-Serif" font-size="10.00">ActionFormationManager</text>
<text text-anchor="middle" x="252.38" y="-6.5" font-family="Helvetica,sans-Serif" font-size="10.00">::startFormation</text>
</a>
</g>
</g>
<!-- Node1&#45;&gt;Node7 -->
<g id="edge6" class="edge">
<title>Node1&#45;&gt;Node7</title>
<path fill="none" stroke="#63b8ff" d="M87.39,-112.58C106.88,-93.11 141.84,-60.81 177.25,-41 179.74,-39.61 182.32,-38.28 184.96,-37"/>
<polygon fill="#63b8ff" stroke="#63b8ff" points="186.25,-40.26 193.97,-33 183.41,-33.86 186.25,-40.26"/>
</g>
</g>
</svg>
