<?xml version="1.0" encoding="UTF-8" standalone="no"?>
<!DOCTYPE svg PUBLIC "-//W3C//DTD SVG 1.1//EN"
 "http://www.w3.org/Graphics/SVG/1.1/DTD/svg11.dtd">
<!-- Generated by graphviz version 12.2.1 (20241206.2353)
 -->
<!-- Title: src/core/Components.h Pages: 1 -->
<svg width="1500pt" height="500pt"
 viewBox="0.00 0.00 1499.75 500.00" xmlns="http://www.w3.org/2000/svg" xmlns:xlink="http://www.w3.org/1999/xlink">
<g id="graph0" class="graph" transform="scale(1 1) rotate(0) translate(4 496)">
<title>src/core/Components.h</title>
<!-- Node1 -->
<g id="node1" class="node">
<title>Node1</title>
<g id="a_node1"><a xlink:title=" ">
<polygon fill="#999999" stroke="#666666" points="1339.75,-492 1221.75,-492 1221.75,-472 1339.75,-472 1339.75,-492"/>
<text text-anchor="middle" x="1280.75" y="-478.5" font-family="Helvetica,sans-Serif" font-size="10.00">src/core/Components.h</text>
</a>
</g>
</g>
<!-- Node2 -->
<g id="node2" class="node">
<title>Node2</title>
<g id="a_node2"><a xlink:href="Entity_8h.html" target="_top" xlink:title=" ">
<polygon fill="white" stroke="#666666" points="759,-436 672.5,-436 672.5,-416 759,-416 759,-436"/>
<text text-anchor="middle" x="715.75" y="-422.5" font-family="Helvetica,sans-Serif" font-size="10.00">src/core/Entity.h</text>
</a>
</g>
</g>
<!-- Node1&#45;&gt;Node2 -->
<g id="edge1" class="edge">
<title>Node1&#45;&gt;Node2</title>
<path fill="none" stroke="#63b8ff" d="M1209.91,-474.23C1091.36,-462.9 856.26,-440.43 759.21,-431.15"/>
<polygon fill="#63b8ff" stroke="#63b8ff" points="1209.56,-477.71 1219.85,-475.18 1210.22,-470.74 1209.56,-477.71"/>
</g>
<!-- Node9 -->
<g id="node9" class="node">
<title>Node9</title>
<g id="a_node9"><a xlink:href="SceneEspionage_8h.html" target="_top" xlink:title=" ">
<polygon fill="white" stroke="#666666" points="842.12,-132 693.38,-132 693.38,-112 842.12,-112 842.12,-132"/>
<text text-anchor="middle" x="767.75" y="-118.5" font-family="Helvetica,sans-Serif" font-size="10.00">src/scenes/SceneEspionage.h</text>
</a>
</g>
</g>
<!-- Node1&#45;&gt;Node9 -->
<g id="edge41" class="edge">
<title>Node1&#45;&gt;Node9</title>
<path fill="none" stroke="#63b8ff" d="M1321.22,-467.52C1360.99,-451.42 1415.75,-420.29 1415.75,-371 1415.75,-371 1415.75,-371 1415.75,-239 1415.75,-181.32 1012.79,-142.48 842.4,-128.63"/>
<polygon fill="#63b8ff" stroke="#63b8ff" points="1320.19,-464.17 1312.12,-471.03 1322.71,-470.7 1320.19,-464.17"/>
</g>
<!-- Node12 -->
<g id="node12" class="node">
<title>Node12</title>
<g id="a_node12"><a xlink:href="SceneMain_8cpp.html" target="_top" xlink:title=" ">
<polygon fill="white" stroke="#666666" points="1491,-20 1356.5,-20 1356.5,0 1491,0 1491,-20"/>
<text text-anchor="middle" x="1423.75" y="-6.5" font-family="Helvetica,sans-Serif" font-size="10.00">src/scenes/SceneMain.cpp</text>
</a>
</g>
</g>
<!-- Node1&#45;&gt;Node12 -->
<g id="edge42" class="edge">
<title>Node1&#45;&gt;Node12</title>
<path fill="none" stroke="#63b8ff" d="M1351.31,-473.42C1412.65,-462.45 1491.75,-435.75 1491.75,-371 1491.75,-371 1491.75,-371 1491.75,-121 1491.75,-78.12 1453.9,-37.99 1434.68,-20.38"/>
<polygon fill="#63b8ff" stroke="#63b8ff" points="1350.87,-469.94 1341.58,-475.04 1352.02,-476.85 1350.87,-469.94"/>
</g>
<!-- Node20 -->
<g id="node20" class="node">
<title>Node20</title>
<g id="a_node20"><a xlink:href="SceneApprenticeship_8h.html" target="_top" xlink:title=" ">
<polygon fill="white" stroke="#666666" points="1015.5,-318 848,-318 848,-298 1015.5,-298 1015.5,-318"/>
<text text-anchor="middle" x="931.75" y="-304.5" font-family="Helvetica,sans-Serif" font-size="10.00">src/scenes/SceneApprenticeship.h</text>
</a>
</g>
</g>
<!-- Node1&#45;&gt;Node20 -->
<g id="edge39" class="edge">
<title>Node1&#45;&gt;Node20</title>
<path fill="none" stroke="#63b8ff" d="M1239.83,-467.99C1188.97,-451.06 1100.27,-418.96 1029.75,-380 996.1,-361.41 960.48,-333.11 942.9,-318.49"/>
<polygon fill="#63b8ff" stroke="#63b8ff" points="1238.67,-471.3 1249.26,-471.1 1240.86,-464.65 1238.67,-471.3"/>
</g>
<!-- Node22 -->
<g id="node22" class="node">
<title>Node22</title>
<g id="a_node22"><a xlink:href="SceneMenu_8h.html" target="_top" xlink:title=" ">
<polygon fill="white" stroke="#666666" points="1221.25,-250 1094.25,-250 1094.25,-230 1221.25,-230 1221.25,-250"/>
<text text-anchor="middle" x="1157.75" y="-236.5" font-family="Helvetica,sans-Serif" font-size="10.00">src/scenes/SceneMenu.h</text>
</a>
</g>
</g>
<!-- Node1&#45;&gt;Node22 -->
<g id="edge43" class="edge">
<title>Node1&#45;&gt;Node22</title>
<path fill="none" stroke="#63b8ff" d="M1298.45,-463.96C1332.8,-428.83 1401.55,-347.01 1358.75,-292 1353.82,-285.66 1258.04,-263.37 1200.5,-250.45"/>
<polygon fill="#63b8ff" stroke="#63b8ff" points="1296.22,-461.24 1291.61,-470.78 1301.17,-466.19 1296.22,-461.24"/>
</g>
<!-- Node23 -->
<g id="node23" class="node">
<title>Node23</title>
<g id="a_node23"><a xlink:href="SceneCombat_8h.html" target="_top" xlink:title=" ">
<polygon fill="white" stroke="#666666" points="1349.5,-318 1212,-318 1212,-298 1349.5,-298 1349.5,-318"/>
<text text-anchor="middle" x="1280.75" y="-304.5" font-family="Helvetica,sans-Serif" font-size="10.00">src/scenes/SceneCombat.h</text>
</a>
</g>
</g>
<!-- Node1&#45;&gt;Node23 -->
<g id="edge40" class="edge">
<title>Node1&#45;&gt;Node23</title>
<path fill="none" stroke="#63b8ff" d="M1280.75,-460.01C1280.75,-422.39 1280.75,-344.91 1280.75,-318.25"/>
<polygon fill="#63b8ff" stroke="#63b8ff" points="1277.25,-459.99 1280.75,-469.99 1284.25,-459.99 1277.25,-459.99"/>
</g>
<!-- Node25 -->
<g id="node25" class="node">
<title>Node25</title>
<g id="a_node25"><a xlink:href="ManagerStage_8h.html" target="_top" xlink:title=" ">
<polygon fill="white" stroke="#666666" points="1188.5,-380 1039,-380 1039,-360 1188.5,-360 1188.5,-380"/>
<text text-anchor="middle" x="1113.75" y="-366.5" font-family="Helvetica,sans-Serif" font-size="10.00">src/managers/ManagerStage.h</text>
</a>
</g>
</g>
<!-- Node1&#45;&gt;Node25 -->
<g id="edge38" class="edge">
<title>Node1&#45;&gt;Node25</title>
<path fill="none" stroke="#63b8ff" d="M1257.01,-465.36C1221.75,-442.14 1156.64,-399.25 1127.95,-380.35"/>
<polygon fill="#63b8ff" stroke="#63b8ff" points="1254.97,-468.21 1265.25,-470.79 1258.82,-462.37 1254.97,-468.21"/>
</g>
<!-- Node3 -->
<g id="node3" class="node">
<title>Node3</title>
<g id="a_node3"><a xlink:href="Entity_8cpp.html" target="_top" xlink:title=" ">
<polygon fill="white" stroke="#666666" points="598.25,-380 501.25,-380 501.25,-360 598.25,-360 598.25,-380"/>
<text text-anchor="middle" x="549.75" y="-366.5" font-family="Helvetica,sans-Serif" font-size="10.00">src/core/Entity.cpp</text>
</a>
</g>
</g>
<!-- Node2&#45;&gt;Node3 -->
<g id="edge2" class="edge">
<title>Node2&#45;&gt;Node3</title>
<path fill="none" stroke="#63b8ff" d="M675.94,-412.05C646.05,-402.33 605.82,-389.24 578.89,-380.48"/>
<polygon fill="#63b8ff" stroke="#63b8ff" points="674.8,-415.36 685.4,-415.13 676.97,-408.7 674.8,-415.36"/>
</g>
<!-- Node4 -->
<g id="node4" class="node">
<title>Node4</title>
<g id="a_node4"><a xlink:href="ManagerActionFormation_8h.html" target="_top" xlink:title=" ">
<polygon fill="white" stroke="#666666" points="253.5,-324 110,-324 110,-292 253.5,-292 253.5,-324"/>
<text text-anchor="start" x="118" y="-310.5" font-family="Helvetica,sans-Serif" font-size="10.00">src/managers/ManagerAction</text>
<text text-anchor="middle" x="181.75" y="-298.5" font-family="Helvetica,sans-Serif" font-size="10.00">Formation.h</text>
</a>
</g>
</g>
<!-- Node2&#45;&gt;Node4 -->
<g id="edge3" class="edge">
<title>Node2&#45;&gt;Node4</title>
<path fill="none" stroke="#63b8ff" d="M661.24,-414.48C615.83,-405.6 549.49,-392.41 491.75,-380 407,-361.79 309.61,-339.21 246.95,-324.47"/>
<polygon fill="#63b8ff" stroke="#63b8ff" points="660.35,-417.87 670.83,-416.34 661.69,-411 660.35,-417.87"/>
</g>
<!-- Node14 -->
<g id="node14" class="node">
<title>Node14</title>
<g id="a_node14"><a xlink:href="ManagerEntity_8cpp.html" target="_top" xlink:title=" ">
<polygon fill="white" stroke="#666666" points="616,-318 457.5,-318 457.5,-298 616,-298 616,-318"/>
<text text-anchor="middle" x="536.75" y="-304.5" font-family="Helvetica,sans-Serif" font-size="10.00">src/managers/ManagerEntity.cpp</text>
</a>
</g>
</g>
<!-- Node2&#45;&gt;Node14 -->
<g id="edge14" class="edge">
<title>Node2&#45;&gt;Node14</title>
<path fill="none" stroke="#63b8ff" d="M698.63,-407.87C684.07,-393.89 662.16,-374.18 640.75,-360 614.6,-342.68 581.7,-327.53 559.99,-318.34"/>
<polygon fill="#63b8ff" stroke="#63b8ff" points="696,-410.2 705.6,-414.69 700.9,-405.19 696,-410.2"/>
</g>
<!-- Node15 -->
<g id="node15" class="node">
<title>Node15</title>
<g id="a_node15"><a xlink:href="ManagerEntity_8h.html" target="_top" xlink:title=" ">
<polygon fill="white" stroke="#666666" points="840.75,-380 692.75,-380 692.75,-360 840.75,-360 840.75,-380"/>
<text text-anchor="middle" x="766.75" y="-366.5" font-family="Helvetica,sans-Serif" font-size="10.00">src/managers/ManagerEntity.h</text>
</a>
</g>
</g>
<!-- Node2&#45;&gt;Node15 -->
<g id="edge15" class="edge">
<title>Node2&#45;&gt;Node15</title>
<path fill="none" stroke="#63b8ff" d="M732.48,-407.29C740.99,-398.28 750.98,-387.7 757.97,-380.3"/>
<polygon fill="#63b8ff" stroke="#63b8ff" points="729.99,-404.82 725.67,-414.49 735.08,-409.63 729.99,-404.82"/>
</g>
<!-- Node18 -->
<g id="node18" class="node">
<title>Node18</title>
<g id="a_node18"><a xlink:href="ManagerSystem_8h.html" target="_top" xlink:title=" ">
<polygon fill="white" stroke="#666666" points="439.62,-318 281.88,-318 281.88,-298 439.62,-298 439.62,-318"/>
<text text-anchor="middle" x="360.75" y="-304.5" font-family="Helvetica,sans-Serif" font-size="10.00">src/managers/ManagerSystem.h</text>
</a>
</g>
</g>
<!-- Node2&#45;&gt;Node18 -->
<g id="edge36" class="edge">
<title>Node2&#45;&gt;Node18</title>
<path fill="none" stroke="#63b8ff" d="M690.78,-410.04C658.95,-390.98 607.88,-360.44 606.75,-360 572.86,-346.81 478.75,-329.17 417.24,-318.47"/>
<polygon fill="#63b8ff" stroke="#63b8ff" points="688.67,-412.86 699.05,-414.99 692.27,-406.85 688.67,-412.86"/>
</g>
<!-- Node2&#45;&gt;Node20 -->
<g id="edge37" class="edge">
<title>Node2&#45;&gt;Node20</title>
<path fill="none" stroke="#63b8ff" d="M768.36,-412.47C793.93,-405.13 824.5,-394.42 849.75,-380 880.17,-362.63 909.67,-333.02 923.53,-318.13"/>
<polygon fill="#63b8ff" stroke="#63b8ff" points="767.53,-409.07 758.83,-415.11 769.4,-415.82 767.53,-409.07"/>
</g>
<!-- Node2&#45;&gt;Node25 -->
<g id="edge34" class="edge">
<title>Node2&#45;&gt;Node25</title>
<path fill="none" stroke="#63b8ff" d="M770.87,-417.52C842.1,-407.86 966.16,-391.02 1043.91,-380.48"/>
<polygon fill="#63b8ff" stroke="#63b8ff" points="770.42,-414.05 760.98,-418.86 771.36,-420.99 770.42,-414.05"/>
</g>
<!-- Node5 -->
<g id="node5" class="node">
<title>Node5</title>
<g id="a_node5"><a xlink:href="ManagerActionFormation_8cpp.html" target="_top" xlink:title=" ">
<polygon fill="white" stroke="#666666" points="143.5,-256 0,-256 0,-224 143.5,-224 143.5,-256"/>
<text text-anchor="start" x="8" y="-242.5" font-family="Helvetica,sans-Serif" font-size="10.00">src/managers/ManagerAction</text>
<text text-anchor="middle" x="71.75" y="-230.5" font-family="Helvetica,sans-Serif" font-size="10.00">Formation.cpp</text>
</a>
</g>
</g>
<!-- Node4&#45;&gt;Node5 -->
<g id="edge4" class="edge">
<title>Node4&#45;&gt;Node5</title>
<path fill="none" stroke="#63b8ff" d="M146.41,-285.8C130.46,-276.23 111.97,-265.13 97.38,-256.38"/>
<polygon fill="#63b8ff" stroke="#63b8ff" points="144.29,-288.6 154.66,-290.75 147.89,-282.6 144.29,-288.6"/>
</g>
<!-- Node6 -->
<g id="node6" class="node">
<title>Node6</title>
<g id="a_node6"><a xlink:href="ManagerActionResolution_8h.html" target="_top" xlink:title=" ">
<polygon fill="white" stroke="#666666" points="529.5,-256 386,-256 386,-224 529.5,-224 529.5,-256"/>
<text text-anchor="start" x="394" y="-242.5" font-family="Helvetica,sans-Serif" font-size="10.00">src/managers/ManagerAction</text>
<text text-anchor="middle" x="457.75" y="-230.5" font-family="Helvetica,sans-Serif" font-size="10.00">Resolution.h</text>
</a>
</g>
</g>
<!-- Node4&#45;&gt;Node6 -->
<g id="edge5" class="edge">
<title>Node4&#45;&gt;Node6</title>
<path fill="none" stroke="#63b8ff" d="M257.59,-288.86C300.05,-278.71 352.44,-266.18 392.97,-256.49"/>
<polygon fill="#63b8ff" stroke="#63b8ff" points="256.84,-285.44 247.93,-291.17 258.47,-292.25 256.84,-285.44"/>
</g>
<!-- Node7 -->
<g id="node7" class="node">
<title>Node7</title>
<g id="a_node7"><a xlink:href="ManagerTurn_8h.html" target="_top" xlink:title=" ">
<polygon fill="white" stroke="#666666" points="629.5,-188 486,-188 486,-168 629.5,-168 629.5,-188"/>
<text text-anchor="middle" x="557.75" y="-174.5" font-family="Helvetica,sans-Serif" font-size="10.00">src/managers/ManagerTurn.h</text>
</a>
</g>
</g>
<!-- Node4&#45;&gt;Node7 -->
<g id="edge13" class="edge">
<title>Node4&#45;&gt;Node7</title>
<path fill="none" stroke="#63b8ff" d="M176.86,-280.38C175.14,-262.06 176.46,-238.49 190.75,-224 211.06,-203.4 384.71,-189.5 485.7,-183.08"/>
<polygon fill="#63b8ff" stroke="#63b8ff" points="173.39,-280.83 178.17,-290.29 180.33,-279.92 173.39,-280.83"/>
</g>
<!-- Node6&#45;&gt;Node7 -->
<g id="edge6" class="edge">
<title>Node6&#45;&gt;Node7</title>
<path fill="none" stroke="#63b8ff" d="M493.03,-217.83C509.78,-207.78 528.97,-196.27 542.07,-188.41"/>
<polygon fill="#63b8ff" stroke="#63b8ff" points="491.57,-214.62 484.8,-222.77 495.18,-220.63 491.57,-214.62"/>
</g>
<!-- Node8 -->
<g id="node8" class="node">
<title>Node8</title>
<g id="a_node8"><a xlink:href="ManagerTurn_8cpp.html" target="_top" xlink:title=" ">
<polygon fill="white" stroke="#666666" points="634.75,-132 480.75,-132 480.75,-112 634.75,-112 634.75,-132"/>
<text text-anchor="middle" x="557.75" y="-118.5" font-family="Helvetica,sans-Serif" font-size="10.00">src/managers/ManagerTurn.cpp</text>
</a>
</g>
</g>
<!-- Node7&#45;&gt;Node8 -->
<g id="edge7" class="edge">
<title>Node7&#45;&gt;Node8</title>
<path fill="none" stroke="#63b8ff" d="M557.75,-156.13C557.75,-147.9 557.75,-138.85 557.75,-132.3"/>
<polygon fill="#63b8ff" stroke="#63b8ff" points="554.25,-156.08 557.75,-166.08 561.25,-156.08 554.25,-156.08"/>
</g>
<!-- Node7&#45;&gt;Node9 -->
<g id="edge8" class="edge">
<title>Node7&#45;&gt;Node9</title>
<path fill="none" stroke="#63b8ff" d="M605.14,-164.81C643.22,-155.02 695.92,-141.47 730.89,-132.48"/>
<polygon fill="#63b8ff" stroke="#63b8ff" points="604.61,-161.34 595.8,-167.22 606.35,-168.12 604.61,-161.34"/>
</g>
<!-- Node10 -->
<g id="node10" class="node">
<title>Node10</title>
<g id="a_node10"><a xlink:href="SceneEspionage_8cpp.html" target="_top" xlink:title=" ">
<polygon fill="white" stroke="#666666" points="841.38,-76 682.12,-76 682.12,-56 841.38,-56 841.38,-76"/>
<text text-anchor="middle" x="761.75" y="-62.5" font-family="Helvetica,sans-Serif" font-size="10.00">src/scenes/SceneEspionage.cpp</text>
</a>
</g>
</g>
<!-- Node9&#45;&gt;Node10 -->
<g id="edge9" class="edge">
<title>Node9&#45;&gt;Node10</title>
<path fill="none" stroke="#63b8ff" d="M765.46,-100.43C764.54,-92.11 763.52,-82.93 762.78,-76.3"/>
<polygon fill="#63b8ff" stroke="#63b8ff" points="761.95,-100.54 766.54,-110.09 768.91,-99.76 761.95,-100.54"/>
</g>
<!-- Node11 -->
<g id="node11" class="node">
<title>Node11</title>
<g id="a_node11"><a xlink:href="SceneMain_8h.html" target="_top" xlink:title=" ">
<polygon fill="white" stroke="#666666" points="1418.75,-76 1294.75,-76 1294.75,-56 1418.75,-56 1418.75,-76"/>
<text text-anchor="middle" x="1356.75" y="-62.5" font-family="Helvetica,sans-Serif" font-size="10.00">src/scenes/SceneMain.h</text>
</a>
</g>
</g>
<!-- Node9&#45;&gt;Node11 -->
<g id="edge10" class="edge">
<title>Node9&#45;&gt;Node11</title>
<path fill="none" stroke="#63b8ff" d="M853.66,-113.12C973.65,-102.12 1188.58,-82.42 1294.4,-72.72"/>
<polygon fill="#63b8ff" stroke="#63b8ff" points="853.49,-109.62 843.85,-114.02 854.13,-116.59 853.49,-109.62"/>
</g>
<!-- Node11&#45;&gt;Node12 -->
<g id="edge11" class="edge">
<title>Node11&#45;&gt;Node12</title>
<path fill="none" stroke="#63b8ff" d="M1377.34,-48.4C1388.8,-39.17 1402.65,-28.01 1412.21,-20.3"/>
<polygon fill="#63b8ff" stroke="#63b8ff" points="1375.19,-45.64 1369.6,-54.64 1379.58,-51.09 1375.19,-45.64"/>
</g>
<!-- Node13 -->
<g id="node13" class="node">
<title>Node13</title>
<g id="a_node13"><a xlink:href="SceneMenu_8cpp.html" target="_top" xlink:title=" ">
<polygon fill="white" stroke="#666666" points="1226.5,-20 1089,-20 1089,0 1226.5,0 1226.5,-20"/>
<text text-anchor="middle" x="1157.75" y="-6.5" font-family="Helvetica,sans-Serif" font-size="10.00">src/scenes/SceneMenu.cpp</text>
</a>
</g>
</g>
<!-- Node11&#45;&gt;Node13 -->
<g id="edge12" class="edge">
<title>Node11&#45;&gt;Node13</title>
<path fill="none" stroke="#63b8ff" d="M1311.37,-52.69C1275.33,-42.91 1225.67,-29.43 1192.68,-20.48"/>
<polygon fill="#63b8ff" stroke="#63b8ff" points="1310.06,-55.96 1320.63,-55.2 1311.89,-49.2 1310.06,-55.96"/>
</g>
<!-- Node15&#45;&gt;Node9 -->
<g id="edge33" class="edge">
<title>Node15&#45;&gt;Node9</title>
<path fill="none" stroke="#63b8ff" d="M784.32,-351.34C790.8,-343.61 797.39,-334.03 800.75,-324 824.58,-252.92 786.31,-161.72 772.45,-132.47"/>
<polygon fill="#63b8ff" stroke="#63b8ff" points="781.84,-348.87 777.7,-358.62 787.02,-353.57 781.84,-348.87"/>
</g>
<!-- Node15&#45;&gt;Node14 -->
<g id="edge16" class="edge">
<title>Node15&#45;&gt;Node14</title>
<path fill="none" stroke="#63b8ff" d="M719.43,-356.66C676.03,-345.33 612.66,-328.8 573.11,-318.48"/>
<polygon fill="#63b8ff" stroke="#63b8ff" points="718.54,-360.04 729.09,-359.18 720.3,-353.27 718.54,-360.04"/>
</g>
<!-- Node16 -->
<g id="node16" class="node">
<title>Node16</title>
<g id="a_node16"><a xlink:href="ManagerLexicon_8h.html" target="_top" xlink:title=" ">
<polygon fill="white" stroke="#666666" points="791.62,-318 633.88,-318 633.88,-298 791.62,-298 791.62,-318"/>
<text text-anchor="middle" x="712.75" y="-304.5" font-family="Helvetica,sans-Serif" font-size="10.00">src/managers/ManagerLexicon.h</text>
</a>
</g>
</g>
<!-- Node15&#45;&gt;Node16 -->
<g id="edge17" class="edge">
<title>Node15&#45;&gt;Node16</title>
<path fill="none" stroke="#63b8ff" d="M750.78,-351.25C740.98,-340.36 728.84,-326.88 720.95,-318.11"/>
<polygon fill="#63b8ff" stroke="#63b8ff" points="748.01,-353.41 757.3,-358.5 753.21,-348.73 748.01,-353.41"/>
</g>
<!-- Node15&#45;&gt;Node18 -->
<g id="edge21" class="edge">
<title>Node15&#45;&gt;Node18</title>
<path fill="none" stroke="#63b8ff" d="M684.35,-357.99C620.1,-349.25 528.66,-336.46 448.75,-324 437.72,-322.28 425.94,-320.34 414.7,-318.44"/>
<polygon fill="#63b8ff" stroke="#63b8ff" points="683.74,-361.44 694.12,-359.32 684.68,-354.5 683.74,-361.44"/>
</g>
<!-- Node15&#45;&gt;Node20 -->
<g id="edge25" class="edge">
<title>Node15&#45;&gt;Node20</title>
<path fill="none" stroke="#63b8ff" d="M802.95,-355.84C834.07,-344.52 878.19,-328.47 905.88,-318.41"/>
<polygon fill="#63b8ff" stroke="#63b8ff" points="802.16,-352.4 793.95,-359.11 804.55,-358.98 802.16,-352.4"/>
</g>
<!-- Node15&#45;&gt;Node23 -->
<g id="edge30" class="edge">
<title>Node15&#45;&gt;Node23</title>
<path fill="none" stroke="#63b8ff" d="M852.33,-362.39C940.44,-355.06 1081.59,-341.87 1202.75,-324 1213.25,-322.45 1224.5,-320.48 1235.08,-318.47"/>
<polygon fill="#63b8ff" stroke="#63b8ff" points="852.24,-358.88 842.56,-363.19 852.82,-365.86 852.24,-358.88"/>
</g>
<!-- Node16&#45;&gt;Node6 -->
<g id="edge18" class="edge">
<title>Node16&#45;&gt;Node6</title>
<path fill="none" stroke="#63b8ff" d="M665.23,-294.7C623.44,-283.88 562.41,-268.09 517.36,-256.43"/>
<polygon fill="#63b8ff" stroke="#63b8ff" points="664.19,-298.05 674.75,-297.16 665.95,-291.27 664.19,-298.05"/>
</g>
<!-- Node16&#45;&gt;Node7 -->
<g id="edge20" class="edge">
<title>Node16&#45;&gt;Node7</title>
<path fill="none" stroke="#63b8ff" d="M677.08,-293.16C657.37,-284.4 633.21,-271.76 614.75,-256 591.1,-235.8 571.58,-204.03 562.79,-188.36"/>
<polygon fill="#63b8ff" stroke="#63b8ff" points="675.55,-296.31 686.12,-297.02 678.3,-289.87 675.55,-296.31"/>
</g>
<!-- Node17 -->
<g id="node17" class="node">
<title>Node17</title>
<g id="a_node17"><a xlink:href="ManagerLexicon_8cpp.html" target="_top" xlink:title=" ">
<polygon fill="white" stroke="#666666" points="791.88,-250 623.62,-250 623.62,-230 791.88,-230 791.88,-250"/>
<text text-anchor="middle" x="707.75" y="-236.5" font-family="Helvetica,sans-Serif" font-size="10.00">src/managers/ManagerLexicon.cpp</text>
</a>
</g>
</g>
<!-- Node16&#45;&gt;Node17 -->
<g id="edge19" class="edge">
<title>Node16&#45;&gt;Node17</title>
<path fill="none" stroke="#63b8ff" d="M711.18,-286.28C710.27,-274.27 709.17,-259.74 708.47,-250.44"/>
<polygon fill="#63b8ff" stroke="#63b8ff" points="707.67,-286.33 711.92,-296.03 714.65,-285.8 707.67,-286.33"/>
</g>
<!-- Node18&#45;&gt;Node6 -->
<g id="edge22" class="edge">
<title>Node18&#45;&gt;Node6</title>
<path fill="none" stroke="#63b8ff" d="M384.07,-291.14C399.6,-280.57 419.9,-266.75 435.26,-256.3"/>
<polygon fill="#63b8ff" stroke="#63b8ff" points="382.2,-288.17 375.9,-296.69 386.14,-293.96 382.2,-288.17"/>
</g>
<!-- Node18&#45;&gt;Node7 -->
<g id="edge24" class="edge">
<title>Node18&#45;&gt;Node7</title>
<path fill="none" stroke="#63b8ff" d="M426.52,-295.29C470.47,-286.17 523,-272.34 538.75,-256 556.71,-237.36 558.54,-204.57 558.24,-188.47"/>
<polygon fill="#63b8ff" stroke="#63b8ff" points="425.87,-291.85 416.76,-297.26 427.25,-298.72 425.87,-291.85"/>
</g>
<!-- Node19 -->
<g id="node19" class="node">
<title>Node19</title>
<g id="a_node19"><a xlink:href="ManagerSystem_8cpp.html" target="_top" xlink:title=" ">
<polygon fill="white" stroke="#666666" points="367.88,-250 199.62,-250 199.62,-230 367.88,-230 367.88,-250"/>
<text text-anchor="middle" x="283.75" y="-236.5" font-family="Helvetica,sans-Serif" font-size="10.00">src/managers/ManagerSystem.cpp</text>
</a>
</g>
</g>
<!-- Node18&#45;&gt;Node19 -->
<g id="edge23" class="edge">
<title>Node18&#45;&gt;Node19</title>
<path fill="none" stroke="#63b8ff" d="M341.3,-290.33C326.58,-277.71 306.88,-260.82 294.76,-250.44"/>
<polygon fill="#63b8ff" stroke="#63b8ff" points="338.7,-292.71 348.57,-296.56 343.25,-287.39 338.7,-292.71"/>
</g>
<!-- Node20&#45;&gt;Node13 -->
<g id="edge27" class="edge">
<title>Node20&#45;&gt;Node13</title>
<path fill="none" stroke="#63b8ff" d="M913.85,-289.88C905.11,-280.61 895.12,-268.51 888.75,-256 872.75,-224.59 869.75,-214.25 869.75,-179 869.75,-179 869.75,-179 869.75,-121 869.75,-71.69 1018.94,-36.38 1102.56,-20.46"/>
<polygon fill="#63b8ff" stroke="#63b8ff" points="911.11,-292.09 920.63,-296.75 916.09,-287.18 911.11,-292.09"/>
</g>
<!-- Node21 -->
<g id="node21" class="node">
<title>Node21</title>
<g id="a_node21"><a xlink:href="SceneApprenticeship_8cpp.html" target="_top" xlink:title=" ">
<polygon fill="white" stroke="#666666" points="1075.75,-250 897.75,-250 897.75,-230 1075.75,-230 1075.75,-250"/>
<text text-anchor="middle" x="986.75" y="-236.5" font-family="Helvetica,sans-Serif" font-size="10.00">src/scenes/SceneApprenticeship.cpp</text>
</a>
</g>
</g>
<!-- Node20&#45;&gt;Node21 -->
<g id="edge26" class="edge">
<title>Node20&#45;&gt;Node21</title>
<path fill="none" stroke="#63b8ff" d="M946.85,-288.88C957.21,-276.44 970.56,-260.43 978.88,-250.44"/>
<polygon fill="#63b8ff" stroke="#63b8ff" points="944.31,-286.46 940.6,-296.38 949.69,-290.94 944.31,-286.46"/>
</g>
<!-- Node20&#45;&gt;Node22 -->
<g id="edge28" class="edge">
<title>Node20&#45;&gt;Node22</title>
<path fill="none" stroke="#63b8ff" d="M975.04,-294.36C1018.96,-281.53 1085.94,-261.97 1125.43,-250.44"/>
<polygon fill="#63b8ff" stroke="#63b8ff" points="974.2,-290.96 965.58,-297.12 976.16,-297.68 974.2,-290.96"/>
</g>
<!-- Node22&#45;&gt;Node13 -->
<g id="edge29" class="edge">
<title>Node22&#45;&gt;Node13</title>
<path fill="none" stroke="#63b8ff" d="M1157.75,-218.52C1157.75,-170.77 1157.75,-53.59 1157.75,-20.09"/>
<polygon fill="#63b8ff" stroke="#63b8ff" points="1154.25,-218.27 1157.75,-228.27 1161.25,-218.27 1154.25,-218.27"/>
</g>
<!-- Node23&#45;&gt;Node11 -->
<g id="edge32" class="edge">
<title>Node23&#45;&gt;Node11</title>
<path fill="none" stroke="#63b8ff" d="M1343.53,-293.99C1364.02,-286.45 1384.62,-274.59 1396.75,-256 1435.8,-196.18 1382.18,-105.06 1363.06,-76.14"/>
<polygon fill="#63b8ff" stroke="#63b8ff" points="1342.67,-290.59 1334.3,-297.08 1344.89,-297.23 1342.67,-290.59"/>
</g>
<!-- Node24 -->
<g id="node24" class="node">
<title>Node24</title>
<g id="a_node24"><a xlink:href="SceneCombat_8cpp.html" target="_top" xlink:title=" ">
<polygon fill="white" stroke="#666666" points="1387.75,-250 1239.75,-250 1239.75,-230 1387.75,-230 1387.75,-250"/>
<text text-anchor="middle" x="1313.75" y="-236.5" font-family="Helvetica,sans-Serif" font-size="10.00">src/scenes/SceneCombat.cpp</text>
</a>
</g>
</g>
<!-- Node23&#45;&gt;Node24 -->
<g id="edge31" class="edge">
<title>Node23&#45;&gt;Node24</title>
<path fill="none" stroke="#63b8ff" d="M1290.55,-287.4C1296.65,-275.2 1304.23,-260.04 1309.03,-250.44"/>
<polygon fill="#63b8ff" stroke="#63b8ff" points="1287.5,-285.68 1286.15,-296.19 1293.76,-288.81 1287.5,-285.68"/>
</g>
<!-- Node26 -->
<g id="node26" class="node">
<title>Node26</title>
<g id="a_node26"><a xlink:href="ManagerStage_8cpp.html" target="_top" xlink:title=" ">
<polygon fill="white" stroke="#666666" points="1193.75,-318 1033.75,-318 1033.75,-298 1193.75,-298 1193.75,-318"/>
<text text-anchor="middle" x="1113.75" y="-304.5" font-family="Helvetica,sans-Serif" font-size="10.00">src/managers/ManagerStage.cpp</text>
</a>
</g>
</g>
<!-- Node25&#45;&gt;Node26 -->
<g id="edge35" class="edge">
<title>Node25&#45;&gt;Node26</title>
<path fill="none" stroke="#63b8ff" d="M1113.75,-348.25C1113.75,-337.97 1113.75,-326.09 1113.75,-318.11"/>
<polygon fill="#63b8ff" stroke="#63b8ff" points="1110.25,-348.11 1113.75,-358.11 1117.25,-348.11 1110.25,-348.11"/>
</g>
</g>
</svg>
