<?xml version="1.0" encoding="UTF-8" standalone="no"?>
<!DOCTYPE svg PUBLIC "-//W3C//DTD SVG 1.1//EN"
 "http://www.w3.org/Graphics/SVG/1.1/DTD/svg11.dtd">
<!-- Generated by graphviz version 12.2.1 (20241206.2353)
 -->
<!-- Title: src/scenes Pages: 1 -->
<svg width="200pt" height="136pt"
 viewBox="0.00 0.00 200.38 136.00" xmlns="http://www.w3.org/2000/svg" xmlns:xlink="http://www.w3.org/1999/xlink">
<g id="graph0" class="graph" transform="scale(1 1) rotate(0) translate(4 132)">
<title>src/scenes</title>
<g id="clust1" class="cluster">
<title>clusterdir_68267d1309a1af8e8297ef4c3efbcdba</title>
<g id="a_clust1"><a xlink:href="dir_68267d1309a1af8e8297ef4c3efbcdba.html" target="_top" xlink:title="src">
<polygon fill="#edf0f7" stroke="#404040" stroke-dasharray="5,2" points="8,-8 8,-120 135,-120 135,-8 8,-8"/>
<text text-anchor="middle" x="71.5" y="-106.5" font-family="Helvetica,sans-Serif" font-size="10.00">src</text>
</a>
</g>
</g>
<!-- dir_aebb8dcc11953d78e620bbef0b9e2183 -->
<g id="node1" class="node">
<title>dir_aebb8dcc11953d78e620bbef0b9e2183</title>
<g id="a_node1"><a xlink:href="dir_aebb8dcc11953d78e620bbef0b9e2183.html" target="_top" xlink:title="core">
<polygon fill="#a2b4d6" stroke="#404040" points="50.38,-36 15.62,-36 15.62,-16 50.38,-16 50.38,-36"/>
<text text-anchor="middle" x="33" y="-22.5" font-family="Helvetica,sans-Serif" font-size="10.00">core</text>
</a>
</g>
</g>
<!-- dir_da1d252641c1d690e9226c1cabf97c78 -->
<g id="node2" class="node">
<title>dir_da1d252641c1d690e9226c1cabf97c78</title>
<g id="a_node2"><a xlink:href="dir_da1d252641c1d690e9226c1cabf97c78.html" target="_top" xlink:title="managers">
<polygon fill="#a2b4d6" stroke="#404040" points="127.38,-36 68.62,-36 68.62,-16 127.38,-16 127.38,-36"/>
<text text-anchor="middle" x="98" y="-22.5" font-family="Helvetica,sans-Serif" font-size="10.00">managers</text>
</a>
</g>
</g>
<!-- dir_ecc8d4550b7fd15fd45b6c26299430bf -->
<g id="node3" class="node">
<title>dir_ecc8d4550b7fd15fd45b6c26299430bf</title>
<g id="a_node3"><a xlink:href="dir_ecc8d4550b7fd15fd45b6c26299430bf.html" target="_top" xlink:title="scenes">
<polygon fill="#edf0f7" stroke="#404040" stroke-width="2" points="121.75,-92 74.25,-92 74.25,-72 121.75,-72 121.75,-92"/>
<text text-anchor="middle" x="98" y="-78.5" font-family="Helvetica,sans-Serif" font-size="10.00">scenes</text>
</a>
</g>
</g>
<!-- dir_ecc8d4550b7fd15fd45b6c26299430bf&#45;&gt;dir_aebb8dcc11953d78e620bbef0b9e2183 -->
<g id="edge1" class="edge">
<title>dir_ecc8d4550b7fd15fd45b6c26299430bf&#45;&gt;dir_aebb8dcc11953d78e620bbef0b9e2183</title>
<path fill="none" stroke="#63b8ff" d="M86.68,-71.59C77.36,-63.85 63.92,-52.69 52.82,-43.47"/>
<polygon fill="#63b8ff" stroke="#63b8ff" points="55.29,-40.96 45.36,-37.27 50.81,-46.35 55.29,-40.96"/>
<g id="a_edge1&#45;headlabel"><a xlink:href="dir_000005_000000.html" target="_top" xlink:title="14">
<text text-anchor="middle" x="58.7" y="-36.61" font-family="Helvetica,sans-Serif" font-size="10.00" fill="#63b8ff">14</text>
</a>
</g>
</g>
<!-- dir_ecc8d4550b7fd15fd45b6c26299430bf&#45;&gt;dir_da1d252641c1d690e9226c1cabf97c78 -->
<g id="edge3" class="edge">
<title>dir_ecc8d4550b7fd15fd45b6c26299430bf&#45;&gt;dir_da1d252641c1d690e9226c1cabf97c78</title>
<path fill="none" stroke="#63b8ff" d="M98,-71.59C98,-65.01 98,-55.96 98,-47.73"/>
<polygon fill="#63b8ff" stroke="#63b8ff" points="101.5,-47.81 98,-37.81 94.5,-47.81 101.5,-47.81"/>
<g id="a_edge3&#45;headlabel"><a xlink:href="dir_000005_000003.html" target="_top" xlink:title="4">
<text text-anchor="middle" x="104.34" y="-46.39" font-family="Helvetica,sans-Serif" font-size="10.00" fill="#63b8ff">4</text>
</a>
</g>
</g>
<!-- dir_d44c64559bbebec7f509842c48db8b23 -->
<g id="node4" class="node">
<title>dir_d44c64559bbebec7f509842c48db8b23</title>
<g id="a_node4"><a xlink:href="dir_d44c64559bbebec7f509842c48db8b23.html" target="_top" xlink:title="include">
<polygon fill="#edf0f7" stroke="red" points="192.38,-36 145.62,-36 145.62,-16 192.38,-16 192.38,-36"/>
<text text-anchor="middle" x="169" y="-22.5" font-family="Helvetica,sans-Serif" font-size="10.00">include</text>
</a>
</g>
</g>
<!-- dir_ecc8d4550b7fd15fd45b6c26299430bf&#45;&gt;dir_d44c64559bbebec7f509842c48db8b23 -->
<g id="edge2" class="edge">
<title>dir_ecc8d4550b7fd15fd45b6c26299430bf&#45;&gt;dir_d44c64559bbebec7f509842c48db8b23</title>
<path fill="none" stroke="#63b8ff" d="M110.37,-71.59C120.65,-63.77 135.52,-52.46 147.71,-43.19"/>
<polygon fill="#63b8ff" stroke="#63b8ff" points="149.73,-46.05 155.57,-37.21 145.49,-40.48 149.73,-46.05"/>
<g id="a_edge2&#45;headlabel"><a xlink:href="dir_000005_000001.html" target="_top" xlink:title="1">
<text text-anchor="middle" x="149.79" y="-46.07" font-family="Helvetica,sans-Serif" font-size="10.00" fill="#63b8ff">1</text>
</a>
</g>
</g>
</g>
</svg>
