<?xml version="1.0" encoding="UTF-8" standalone="no"?>
<!DOCTYPE svg PUBLIC "-//W3C//DTD SVG 1.1//EN"
 "http://www.w3.org/Graphics/SVG/1.1/DTD/svg11.dtd">
<!-- Generated by graphviz version 12.2.1 (20241206.2353)
 -->
<!-- Title: src Pages: 1 -->
<svg width="268pt" height="172pt"
 viewBox="0.00 0.00 268.38 172.00" xmlns="http://www.w3.org/2000/svg" xmlns:xlink="http://www.w3.org/1999/xlink">
<g id="graph0" class="graph" transform="scale(1 1) rotate(0) translate(4 168)">
<title>src</title>
<g id="clust1" class="cluster">
<title>clusterdir_68267d1309a1af8e8297ef4c3efbcdba</title>
<g id="a_clust1"><a xlink:href="dir_68267d1309a1af8e8297ef4c3efbcdba.html" target="_top">
<polygon fill="#edf0f7" stroke="#404040" stroke-width="2" points="8,-8 8,-156 206,-156 206,-8 8,-8"/>
</a>
</g>
</g>
<!-- dir_68267d1309a1af8e8297ef4c3efbcdba -->
<g id="node1" class="node">
<title>dir_68267d1309a1af8e8297ef4c3efbcdba</title>
<text text-anchor="middle" x="31" y="-134.5" font-family="Helvetica,sans-Serif" font-size="10.00">src</text>
</g>
<!-- dir_7cc3fc7a4a0d6516b705f09be07b4d4a -->
<g id="node3" class="node">
<title>dir_7cc3fc7a4a0d6516b705f09be07b4d4a</title>
<g id="a_node3"><a xlink:href="dir_7cc3fc7a4a0d6516b705f09be07b4d4a.html" target="_top" xlink:title="languages">
<polygon fill="#a2b4d6" stroke="#404040" points="76.12,-92 15.88,-92 15.88,-72 76.12,-72 76.12,-92"/>
<text text-anchor="middle" x="46" y="-78.5" font-family="Helvetica,sans-Serif" font-size="10.00">languages</text>
</a>
</g>
</g>
<!-- dir_68267d1309a1af8e8297ef4c3efbcdba&#45;&gt;dir_7cc3fc7a4a0d6516b705f09be07b4d4a -->
<g id="edge1" class="edge">
<title>dir_68267d1309a1af8e8297ef4c3efbcdba&#45;&gt;dir_7cc3fc7a4a0d6516b705f09be07b4d4a</title>
<path fill="none" stroke="#63b8ff" d="M33.48,-128.08C35.33,-121.4 37.95,-111.99 40.31,-103.5"/>
<polygon fill="#63b8ff" stroke="#63b8ff" points="43.66,-104.51 42.96,-93.93 36.91,-102.63 43.66,-104.51"/>
<g id="a_edge1&#45;headlabel"><a xlink:href="dir_000006_000002.html" target="_top" xlink:title="1">
<text text-anchor="middle" x="45.84" y="-103.77" font-family="Helvetica,sans-Serif" font-size="10.00" fill="#63b8ff">1</text>
</a>
</g>
</g>
<!-- dir_aebb8dcc11953d78e620bbef0b9e2183 -->
<g id="node2" class="node">
<title>dir_aebb8dcc11953d78e620bbef0b9e2183</title>
<g id="a_node2"><a xlink:href="dir_aebb8dcc11953d78e620bbef0b9e2183.html" target="_top" xlink:title="core">
<polygon fill="#a2b4d6" stroke="#404040" points="136.38,-36 101.62,-36 101.62,-16 136.38,-16 136.38,-36"/>
<text text-anchor="middle" x="119" y="-22.5" font-family="Helvetica,sans-Serif" font-size="10.00">core</text>
</a>
</g>
</g>
<!-- dir_da1d252641c1d690e9226c1cabf97c78 -->
<g id="node4" class="node">
<title>dir_da1d252641c1d690e9226c1cabf97c78</title>
<g id="a_node4"><a xlink:href="dir_da1d252641c1d690e9226c1cabf97c78.html" target="_top" xlink:title="managers">
<polygon fill="#a2b4d6" stroke="#404040" points="172.38,-92 113.62,-92 113.62,-72 172.38,-72 172.38,-92"/>
<text text-anchor="middle" x="143" y="-78.5" font-family="Helvetica,sans-Serif" font-size="10.00">managers</text>
</a>
</g>
</g>
<!-- dir_da1d252641c1d690e9226c1cabf97c78&#45;&gt;dir_aebb8dcc11953d78e620bbef0b9e2183 -->
<g id="edge2" class="edge">
<title>dir_da1d252641c1d690e9226c1cabf97c78&#45;&gt;dir_aebb8dcc11953d78e620bbef0b9e2183</title>
<path fill="none" stroke="#63b8ff" d="M138.82,-71.59C135.76,-64.7 131.49,-55.1 127.7,-46.57"/>
<polygon fill="#63b8ff" stroke="#63b8ff" points="131.01,-45.4 123.75,-37.68 124.61,-48.24 131.01,-45.4"/>
<g id="a_edge2&#45;headlabel"><a xlink:href="dir_000003_000000.html" target="_top" xlink:title="6">
<text text-anchor="middle" x="134.45" y="-42.65" font-family="Helvetica,sans-Serif" font-size="10.00" fill="#63b8ff">6</text>
</a>
</g>
</g>
<!-- dir_d44c64559bbebec7f509842c48db8b23 -->
<g id="node7" class="node">
<title>dir_d44c64559bbebec7f509842c48db8b23</title>
<g id="a_node7"><a xlink:href="dir_d44c64559bbebec7f509842c48db8b23.html" target="_top" xlink:title="include">
<polygon fill="#edf0f7" stroke="red" points="260.38,-36 213.62,-36 213.62,-16 260.38,-16 260.38,-36"/>
<text text-anchor="middle" x="237" y="-22.5" font-family="Helvetica,sans-Serif" font-size="10.00">include</text>
</a>
</g>
</g>
<!-- dir_da1d252641c1d690e9226c1cabf97c78&#45;&gt;dir_d44c64559bbebec7f509842c48db8b23 -->
<g id="edge3" class="edge">
<title>dir_da1d252641c1d690e9226c1cabf97c78&#45;&gt;dir_d44c64559bbebec7f509842c48db8b23</title>
<path fill="none" stroke="#63b8ff" d="M159.37,-71.59C173.57,-63.44 194.38,-51.48 210.88,-42"/>
<polygon fill="#63b8ff" stroke="#63b8ff" points="212.26,-45.25 219.19,-37.23 208.77,-39.18 212.26,-45.25"/>
<g id="a_edge3&#45;headlabel"><a xlink:href="dir_000003_000001.html" target="_top" xlink:title="1">
<text text-anchor="middle" x="211.87" y="-45.25" font-family="Helvetica,sans-Serif" font-size="10.00" fill="#63b8ff">1</text>
</a>
</g>
</g>
<!-- dir_ecc8d4550b7fd15fd45b6c26299430bf -->
<g id="node5" class="node">
<title>dir_ecc8d4550b7fd15fd45b6c26299430bf</title>
<g id="a_node5"><a xlink:href="dir_ecc8d4550b7fd15fd45b6c26299430bf.html" target="_top" xlink:title="scenes">
<polygon fill="#a2b4d6" stroke="#404040" points="111.75,-148 64.25,-148 64.25,-128 111.75,-128 111.75,-148"/>
<text text-anchor="middle" x="88" y="-134.5" font-family="Helvetica,sans-Serif" font-size="10.00">scenes</text>
</a>
</g>
</g>
<!-- dir_ecc8d4550b7fd15fd45b6c26299430bf&#45;&gt;dir_aebb8dcc11953d78e620bbef0b9e2183 -->
<g id="edge4" class="edge">
<title>dir_ecc8d4550b7fd15fd45b6c26299430bf&#45;&gt;dir_aebb8dcc11953d78e620bbef0b9e2183</title>
<path fill="none" stroke="#63b8ff" d="M90.29,-127.71C93.43,-115.06 99.35,-91.74 105,-72 107.33,-63.84 110.07,-54.91 112.51,-47.17"/>
<polygon fill="#63b8ff" stroke="#63b8ff" points="115.82,-48.3 115.52,-37.71 109.15,-46.18 115.82,-48.3"/>
<g id="a_edge4&#45;headlabel"><a xlink:href="dir_000005_000000.html" target="_top" xlink:title="14">
<text text-anchor="middle" x="117.9" y="-47.65" font-family="Helvetica,sans-Serif" font-size="10.00" fill="#63b8ff">14</text>
</a>
</g>
</g>
<!-- dir_ecc8d4550b7fd15fd45b6c26299430bf&#45;&gt;dir_da1d252641c1d690e9226c1cabf97c78 -->
<g id="edge6" class="edge">
<title>dir_ecc8d4550b7fd15fd45b6c26299430bf&#45;&gt;dir_da1d252641c1d690e9226c1cabf97c78</title>
<path fill="none" stroke="#63b8ff" d="M97.58,-127.59C105.23,-120.08 116.16,-109.35 125.38,-100.3"/>
<polygon fill="#63b8ff" stroke="#63b8ff" points="127.77,-102.86 132.45,-93.36 122.86,-97.87 127.77,-102.86"/>
<g id="a_edge6&#45;headlabel"><a xlink:href="dir_000005_000003.html" target="_top" xlink:title="4">
<text text-anchor="middle" x="128.27" y="-102.85" font-family="Helvetica,sans-Serif" font-size="10.00" fill="#63b8ff">4</text>
</a>
</g>
</g>
<!-- dir_ecc8d4550b7fd15fd45b6c26299430bf&#45;&gt;dir_d44c64559bbebec7f509842c48db8b23 -->
<g id="edge5" class="edge">
<title>dir_ecc8d4550b7fd15fd45b6c26299430bf&#45;&gt;dir_d44c64559bbebec7f509842c48db8b23</title>
<path fill="none" stroke="#63b8ff" d="M112.05,-128.52C131.78,-120.86 159.81,-108.28 181,-92 198.11,-78.85 213.78,-59.78 224.17,-45.69"/>
<polygon fill="#63b8ff" stroke="#63b8ff" points="226.91,-47.87 229.87,-37.7 221.21,-43.81 226.91,-47.87"/>
<g id="a_edge5&#45;headlabel"><a xlink:href="dir_000005_000001.html" target="_top" xlink:title="1">
<text text-anchor="middle" x="228.02" y="-47.72" font-family="Helvetica,sans-Serif" font-size="10.00" fill="#63b8ff">1</text>
</a>
</g>
</g>
<!-- dir_672f013ef75b9938677d883f22c5cacc -->
<g id="node6" class="node">
<title>dir_672f013ef75b9938677d883f22c5cacc</title>
<g id="a_node6"><a xlink:href="dir_672f013ef75b9938677d883f22c5cacc.html" target="_top" xlink:title="world_stage">
<polygon fill="#a2b4d6" stroke="#404040" points="198.25,-148 129.75,-148 129.75,-128 198.25,-128 198.25,-148"/>
<text text-anchor="middle" x="164" y="-134.5" font-family="Helvetica,sans-Serif" font-size="10.00">world_stage</text>
</a>
</g>
</g>
</g>
</svg>
