<?xml version="1.0" encoding="UTF-8" standalone="no"?>
<!DOCTYPE svg PUBLIC "-//W3C//DTD SVG 1.1//EN"
 "http://www.w3.org/Graphics/SVG/1.1/DTD/svg11.dtd">
<!-- Generated by graphviz version 12.2.1 (20241206.2353)
 -->
<!-- Title: src/scenes/dummyScene.cpp Pages: 1 -->
<svg width="291pt" height="196pt"
 viewBox="0.00 0.00 290.88 196.00" xmlns="http://www.w3.org/2000/svg" xmlns:xlink="http://www.w3.org/1999/xlink">
<g id="graph0" class="graph" transform="scale(1 1) rotate(0) translate(4 192)">
<title>src/scenes/dummyScene.cpp</title>
<!-- Node1 -->
<g id="node1" class="node">
<title>Node1</title>
<g id="a_node1"><a xlink:title=" ">
<polygon fill="#999999" stroke="#666666" points="261.38,-188 115.62,-188 115.62,-168 261.38,-168 261.38,-188"/>
<text text-anchor="middle" x="188.5" y="-174.5" font-family="Helvetica,sans-Serif" font-size="10.00">src/scenes/dummyScene.cpp</text>
</a>
</g>
</g>
<!-- Node2 -->
<g id="node2" class="node">
<title>Node2</title>
<g id="a_node2"><a xlink:href="Scene_8h.html" target="_top" xlink:title=" ">
<polygon fill="white" stroke="#666666" points="178.5,-132 126.5,-132 126.5,-112 178.5,-112 178.5,-132"/>
<text text-anchor="middle" x="152.5" y="-118.5" font-family="Helvetica,sans-Serif" font-size="10.00">Scene.h</text>
</a>
</g>
</g>
<!-- Node1&#45;&gt;Node2 -->
<g id="edge1" class="edge">
<title>Node1&#45;&gt;Node2</title>
<path fill="none" stroke="#63b8ff" d="M182.23,-167.59C177.48,-160.47 170.8,-150.45 164.98,-141.72"/>
<polygon fill="#63b8ff" stroke="#63b8ff" points="168,-139.94 159.54,-133.56 162.17,-143.82 168,-139.94"/>
</g>
<!-- Node8 -->
<g id="node8" class="node">
<title>Node8</title>
<g id="a_node8"><a xlink:title=" ">
<polygon fill="#e0e0e0" stroke="#999999" points="258.25,-76 204.75,-76 204.75,-56 258.25,-56 258.25,-76"/>
<text text-anchor="middle" x="231.5" y="-62.5" font-family="Helvetica,sans-Serif" font-size="10.00">iostream</text>
</a>
</g>
</g>
<!-- Node1&#45;&gt;Node8 -->
<g id="edge10" class="edge">
<title>Node1&#45;&gt;Node8</title>
<path fill="none" stroke="#63b8ff" d="M192.17,-167.62C199.12,-149.84 214.35,-110.88 223.68,-87"/>
<polygon fill="#63b8ff" stroke="#63b8ff" points="226.91,-88.35 227.29,-77.76 220.39,-85.8 226.91,-88.35"/>
</g>
<!-- Node2&#45;&gt;Node2 -->
<g id="edge2" class="edge">
<title>Node2&#45;&gt;Node2</title>
<path fill="none" stroke="#63b8ff" d="M178.7,-132.48C188.46,-132.82 196.5,-129.33 196.5,-122 196.5,-117.88 193.96,-114.97 189.99,-113.27"/>
<polygon fill="#63b8ff" stroke="#63b8ff" points="190.61,-109.83 180.2,-111.76 189.54,-116.75 190.61,-109.83"/>
</g>
<!-- Node3 -->
<g id="node3" class="node">
<title>Node3</title>
<g id="a_node3"><a xlink:href="GameEngine_8h.html" target="_top" xlink:title=" ">
<polygon fill="white" stroke="#666666" points="186.75,-76 106.25,-76 106.25,-56 186.75,-56 186.75,-76"/>
<text text-anchor="middle" x="146.5" y="-62.5" font-family="Helvetica,sans-Serif" font-size="10.00">GameEngine.h</text>
</a>
</g>
</g>
<!-- Node2&#45;&gt;Node3 -->
<g id="edge3" class="edge">
<title>Node2&#45;&gt;Node3</title>
<path fill="none" stroke="#63b8ff" d="M151.45,-111.59C150.72,-105.01 149.72,-95.96 148.8,-87.73"/>
<polygon fill="#63b8ff" stroke="#63b8ff" points="152.28,-87.35 147.7,-77.8 145.33,-88.13 152.28,-87.35"/>
</g>
<!-- Node4 -->
<g id="node4" class="node">
<title>Node4</title>
<g id="a_node4"><a xlink:title=" ">
<polygon fill="#e0e0e0" stroke="#999999" points="103,-20 0,-20 0,0 103,0 103,-20"/>
<text text-anchor="middle" x="51.5" y="-6.5" font-family="Helvetica,sans-Serif" font-size="10.00">SFML/Graphics.hpp</text>
</a>
</g>
</g>
<!-- Node2&#45;&gt;Node4 -->
<g id="edge8" class="edge">
<title>Node2&#45;&gt;Node4</title>
<path fill="none" stroke="#63b8ff" d="M138.98,-111.54C127.28,-103.01 110.29,-89.72 97.5,-76 84.26,-61.8 71.7,-43.61 63.06,-30.09"/>
<polygon fill="#63b8ff" stroke="#63b8ff" points="66.09,-28.34 57.83,-21.7 60.15,-32.04 66.09,-28.34"/>
</g>
<!-- Node2&#45;&gt;Node8 -->
<g id="edge9" class="edge">
<title>Node2&#45;&gt;Node8</title>
<path fill="none" stroke="#63b8ff" d="M166.26,-111.59C177.86,-103.67 194.7,-92.16 208.36,-82.82"/>
<polygon fill="#63b8ff" stroke="#63b8ff" points="210.1,-85.87 216.38,-77.33 206.15,-80.09 210.1,-85.87"/>
</g>
<!-- Node3&#45;&gt;Node4 -->
<g id="edge4" class="edge">
<title>Node3&#45;&gt;Node4</title>
<path fill="none" stroke="#63b8ff" d="M129.95,-55.59C115.6,-47.44 94.57,-35.48 77.9,-26"/>
<polygon fill="#63b8ff" stroke="#63b8ff" points="79.92,-23.13 69.49,-21.23 76.46,-29.21 79.92,-23.13"/>
</g>
<!-- Node5 -->
<g id="node5" class="node">
<title>Node5</title>
<g id="a_node5"><a xlink:title=" ">
<polygon fill="#e0e0e0" stroke="#999999" points="172.12,-20 120.88,-20 120.88,0 172.12,0 172.12,-20"/>
<text text-anchor="middle" x="146.5" y="-6.5" font-family="Helvetica,sans-Serif" font-size="10.00">memory</text>
</a>
</g>
</g>
<!-- Node3&#45;&gt;Node5 -->
<g id="edge5" class="edge">
<title>Node3&#45;&gt;Node5</title>
<path fill="none" stroke="#63b8ff" d="M146.5,-55.59C146.5,-49.01 146.5,-39.96 146.5,-31.73"/>
<polygon fill="#63b8ff" stroke="#63b8ff" points="150,-31.81 146.5,-21.81 143,-31.81 150,-31.81"/>
</g>
<!-- Node6 -->
<g id="node6" class="node">
<title>Node6</title>
<g id="a_node6"><a xlink:title=" ">
<polygon fill="#e0e0e0" stroke="#999999" points="230.5,-20 190.5,-20 190.5,0 230.5,0 230.5,-20"/>
<text text-anchor="middle" x="210.5" y="-6.5" font-family="Helvetica,sans-Serif" font-size="10.00">string</text>
</a>
</g>
</g>
<!-- Node3&#45;&gt;Node6 -->
<g id="edge6" class="edge">
<title>Node3&#45;&gt;Node6</title>
<path fill="none" stroke="#63b8ff" d="M157.65,-55.59C166.83,-47.85 180.05,-36.69 190.98,-27.47"/>
<polygon fill="#63b8ff" stroke="#63b8ff" points="192.94,-30.4 198.32,-21.27 188.42,-25.05 192.94,-30.4"/>
</g>
<!-- Node7 -->
<g id="node7" class="node">
<title>Node7</title>
<g id="a_node7"><a xlink:title=" ">
<polygon fill="#e0e0e0" stroke="#999999" points="282.88,-20 248.12,-20 248.12,0 282.88,0 282.88,-20"/>
<text text-anchor="middle" x="265.5" y="-6.5" font-family="Helvetica,sans-Serif" font-size="10.00">map</text>
</a>
</g>
</g>
<!-- Node3&#45;&gt;Node7 -->
<g id="edge7" class="edge">
<title>Node3&#45;&gt;Node7</title>
<path fill="none" stroke="#63b8ff" d="M167.23,-55.59C186.62,-46.79 215.75,-33.58 237.26,-23.81"/>
<polygon fill="#63b8ff" stroke="#63b8ff" points="238.69,-27.01 246.35,-19.69 235.79,-20.64 238.69,-27.01"/>
</g>
</g>
</svg>
