<?xml version="1.0" encoding="UTF-8" standalone="no"?>
<!DOCTYPE svg PUBLIC "-//W3C//DTD SVG 1.1//EN"
 "http://www.w3.org/Graphics/SVG/1.1/DTD/svg11.dtd">
<!-- Generated by graphviz version 12.2.1 (20241206.2353)
 -->
<!-- Title: test/engineTest.cpp Pages: 1 -->
<svg width="291pt" height="140pt"
 viewBox="0.00 0.00 290.88 140.00" xmlns="http://www.w3.org/2000/svg" xmlns:xlink="http://www.w3.org/1999/xlink">
<g id="graph0" class="graph" transform="scale(1 1) rotate(0) translate(4 136)">
<title>test/engineTest.cpp</title>
<!-- Node1 -->
<g id="node1" class="node">
<title>Node1</title>
<g id="a_node1"><a xlink:title=" ">
<polygon fill="#999999" stroke="#666666" points="149.25,-132 47.75,-132 47.75,-112 149.25,-112 149.25,-132"/>
<text text-anchor="middle" x="98.5" y="-118.5" font-family="Helvetica,sans-Serif" font-size="10.00">test/engineTest.cpp</text>
</a>
</g>
</g>
<!-- Node2 -->
<g id="node2" class="node">
<title>Node2</title>
<g id="a_node2"><a xlink:title=" ">
<polygon fill="#e0e0e0" stroke="#999999" points="103,-20 0,-20 0,0 103,0 103,-20"/>
<text text-anchor="middle" x="51.5" y="-6.5" font-family="Helvetica,sans-Serif" font-size="10.00">SFML/Graphics.hpp</text>
</a>
</g>
</g>
<!-- Node1&#45;&gt;Node2 -->
<g id="edge1" class="edge">
<title>Node1&#45;&gt;Node2</title>
<path fill="none" stroke="#63b8ff" d="M94.3,-111.72C90.2,-102.64 83.83,-88.41 78.5,-76 72,-60.87 64.86,-43.66 59.56,-30.75"/>
<polygon fill="#63b8ff" stroke="#63b8ff" points="62.87,-29.62 55.85,-21.69 56.4,-32.27 62.87,-29.62"/>
</g>
<!-- Node3 -->
<g id="node3" class="node">
<title>Node3</title>
<g id="a_node3"><a xlink:href="GameEngine_8h.html" target="_top" xlink:title=" ">
<polygon fill="white" stroke="#666666" points="205.88,-76 87.12,-76 87.12,-56 205.88,-56 205.88,-76"/>
<text text-anchor="middle" x="146.5" y="-62.5" font-family="Helvetica,sans-Serif" font-size="10.00">src/core/GameEngine.h</text>
</a>
</g>
</g>
<!-- Node1&#45;&gt;Node3 -->
<g id="edge2" class="edge">
<title>Node1&#45;&gt;Node3</title>
<path fill="none" stroke="#63b8ff" d="M106.86,-111.59C113.4,-104.24 122.68,-93.8 130.62,-84.87"/>
<polygon fill="#63b8ff" stroke="#63b8ff" points="133.2,-87.23 137.23,-77.43 127.97,-82.58 133.2,-87.23"/>
</g>
<!-- Node3&#45;&gt;Node2 -->
<g id="edge3" class="edge">
<title>Node3&#45;&gt;Node2</title>
<path fill="none" stroke="#63b8ff" d="M129.95,-55.59C115.6,-47.44 94.57,-35.48 77.9,-26"/>
<polygon fill="#63b8ff" stroke="#63b8ff" points="79.92,-23.13 69.49,-21.23 76.46,-29.21 79.92,-23.13"/>
</g>
<!-- Node4 -->
<g id="node4" class="node">
<title>Node4</title>
<g id="a_node4"><a xlink:title=" ">
<polygon fill="#e0e0e0" stroke="#999999" points="172.12,-20 120.88,-20 120.88,0 172.12,0 172.12,-20"/>
<text text-anchor="middle" x="146.5" y="-6.5" font-family="Helvetica,sans-Serif" font-size="10.00">memory</text>
</a>
</g>
</g>
<!-- Node3&#45;&gt;Node4 -->
<g id="edge4" class="edge">
<title>Node3&#45;&gt;Node4</title>
<path fill="none" stroke="#63b8ff" d="M146.5,-55.59C146.5,-49.01 146.5,-39.96 146.5,-31.73"/>
<polygon fill="#63b8ff" stroke="#63b8ff" points="150,-31.81 146.5,-21.81 143,-31.81 150,-31.81"/>
</g>
<!-- Node5 -->
<g id="node5" class="node">
<title>Node5</title>
<g id="a_node5"><a xlink:title=" ">
<polygon fill="#e0e0e0" stroke="#999999" points="230.5,-20 190.5,-20 190.5,0 230.5,0 230.5,-20"/>
<text text-anchor="middle" x="210.5" y="-6.5" font-family="Helvetica,sans-Serif" font-size="10.00">string</text>
</a>
</g>
</g>
<!-- Node3&#45;&gt;Node5 -->
<g id="edge5" class="edge">
<title>Node3&#45;&gt;Node5</title>
<path fill="none" stroke="#63b8ff" d="M157.65,-55.59C166.83,-47.85 180.05,-36.69 190.98,-27.47"/>
<polygon fill="#63b8ff" stroke="#63b8ff" points="192.94,-30.4 198.32,-21.27 188.42,-25.05 192.94,-30.4"/>
</g>
<!-- Node6 -->
<g id="node6" class="node">
<title>Node6</title>
<g id="a_node6"><a xlink:title=" ">
<polygon fill="#e0e0e0" stroke="#999999" points="282.88,-20 248.12,-20 248.12,0 282.88,0 282.88,-20"/>
<text text-anchor="middle" x="265.5" y="-6.5" font-family="Helvetica,sans-Serif" font-size="10.00">map</text>
</a>
</g>
</g>
<!-- Node3&#45;&gt;Node6 -->
<g id="edge6" class="edge">
<title>Node3&#45;&gt;Node6</title>
<path fill="none" stroke="#63b8ff" d="M167.23,-55.59C186.62,-46.79 215.75,-33.58 237.26,-23.81"/>
<polygon fill="#63b8ff" stroke="#63b8ff" points="238.69,-27.01 246.35,-19.69 235.79,-20.64 238.69,-27.01"/>
</g>
</g>
</svg>
