<?xml version="1.0" encoding="UTF-8" standalone="no"?>
<!DOCTYPE svg PUBLIC "-//W3C//DTD SVG 1.1//EN"
 "http://www.w3.org/Graphics/SVG/1.1/DTD/svg11.dtd">
<!-- Generated by graphviz version 12.2.1 (20241206.2353)
 -->
<!-- Title: src/core/Entity.h Pages: 1 -->
<svg width="1512pt" height="444pt"
 viewBox="0.00 0.00 1512.05 444.00" xmlns="http://www.w3.org/2000/svg" xmlns:xlink="http://www.w3.org/1999/xlink">
<g id="graph0" class="graph" transform="scale(1 1) rotate(0) translate(4 440)">
<title>src/core/Entity.h</title>
<!-- Node1 -->
<g id="node1" class="node">
<title>Node1</title>
<g id="a_node1"><a xlink:title=" ">
<polygon fill="#999999" stroke="#666666" points="938.3,-436 851.8,-436 851.8,-416 938.3,-416 938.3,-436"/>
<text text-anchor="middle" x="895.05" y="-422.5" font-family="Helvetica,sans-Serif" font-size="10.00">src/core/Entity.h</text>
</a>
</g>
</g>
<!-- Node2 -->
<g id="node2" class="node">
<title>Node2</title>
<g id="a_node2"><a xlink:href="Entity_8cpp.html" target="_top" xlink:title=" ">
<polygon fill="white" stroke="#666666" points="726.55,-380 629.55,-380 629.55,-360 726.55,-360 726.55,-380"/>
<text text-anchor="middle" x="678.05" y="-366.5" font-family="Helvetica,sans-Serif" font-size="10.00">src/core/Entity.cpp</text>
</a>
</g>
</g>
<!-- Node1&#45;&gt;Node2 -->
<g id="edge1" class="edge">
<title>Node1&#45;&gt;Node2</title>
<path fill="none" stroke="#63b8ff" d="M846.33,-412.88C806.97,-403.08 752.35,-389.49 716.14,-380.48"/>
<polygon fill="#63b8ff" stroke="#63b8ff" points="845.23,-416.21 855.78,-415.23 846.92,-409.42 845.23,-416.21"/>
</g>
<!-- Node3 -->
<g id="node3" class="node">
<title>Node3</title>
<g id="a_node3"><a xlink:href="ManagerActionFormation_8h.html" target="_top" xlink:title=" ">
<polygon fill="white" stroke="#666666" points="545.8,-324 402.3,-324 402.3,-292 545.8,-292 545.8,-324"/>
<text text-anchor="start" x="410.3" y="-310.5" font-family="Helvetica,sans-Serif" font-size="10.00">src/managers/ManagerAction</text>
<text text-anchor="middle" x="474.05" y="-298.5" font-family="Helvetica,sans-Serif" font-size="10.00">Formation.h</text>
</a>
</g>
</g>
<!-- Node1&#45;&gt;Node3 -->
<g id="edge2" class="edge">
<title>Node1&#45;&gt;Node3</title>
<path fill="none" stroke="#63b8ff" d="M867.67,-410.31C833.76,-392.21 779.2,-363.41 769.05,-360 748.26,-353.02 626.7,-333.09 546.25,-320.3"/>
<polygon fill="#63b8ff" stroke="#63b8ff" points="865.66,-413.21 876.13,-414.83 868.96,-407.03 865.66,-413.21"/>
</g>
<!-- Node13 -->
<g id="node13" class="node">
<title>Node13</title>
<g id="a_node13"><a xlink:href="ManagerEntity_8cpp.html" target="_top" xlink:title=" ">
<polygon fill="white" stroke="#666666" points="1326.3,-318 1167.8,-318 1167.8,-298 1326.3,-298 1326.3,-318"/>
<text text-anchor="middle" x="1247.05" y="-304.5" font-family="Helvetica,sans-Serif" font-size="10.00">src/managers/ManagerEntity.cpp</text>
</a>
</g>
</g>
<!-- Node1&#45;&gt;Node13 -->
<g id="edge13" class="edge">
<title>Node1&#45;&gt;Node13</title>
<path fill="none" stroke="#63b8ff" d="M934.65,-411.95C1006.25,-388.35 1155.62,-339.13 1218.34,-318.46"/>
<polygon fill="#63b8ff" stroke="#63b8ff" points="933.69,-408.58 925.29,-415.03 935.89,-415.23 933.69,-408.58"/>
</g>
<!-- Node14 -->
<g id="node14" class="node">
<title>Node14</title>
<g id="a_node14"><a xlink:href="ManagerEntity_8h.html" target="_top" xlink:title=" ">
<polygon fill="white" stroke="#666666" points="969.05,-380 821.05,-380 821.05,-360 969.05,-360 969.05,-380"/>
<text text-anchor="middle" x="895.05" y="-366.5" font-family="Helvetica,sans-Serif" font-size="10.00">src/managers/ManagerEntity.h</text>
</a>
</g>
</g>
<!-- Node1&#45;&gt;Node14 -->
<g id="edge14" class="edge">
<title>Node1&#45;&gt;Node14</title>
<path fill="none" stroke="#63b8ff" d="M895.05,-404.13C895.05,-395.9 895.05,-386.85 895.05,-380.3"/>
<polygon fill="#63b8ff" stroke="#63b8ff" points="891.55,-404.08 895.05,-414.08 898.55,-404.08 891.55,-404.08"/>
</g>
<!-- Node17 -->
<g id="node17" class="node">
<title>Node17</title>
<g id="a_node17"><a xlink:href="ManagerSystem_8h.html" target="_top" xlink:title=" ">
<polygon fill="white" stroke="#666666" points="383.92,-318 226.17,-318 226.17,-298 383.92,-298 383.92,-318"/>
<text text-anchor="middle" x="305.05" y="-304.5" font-family="Helvetica,sans-Serif" font-size="10.00">src/managers/ManagerSystem.h</text>
</a>
</g>
</g>
<!-- Node1&#45;&gt;Node17 -->
<g id="edge35" class="edge">
<title>Node1&#45;&gt;Node17</title>
<path fill="none" stroke="#63b8ff" d="M852.45,-412.01C827.65,-403.9 796.05,-392.63 769.05,-380 753.17,-372.57 751.7,-365.49 735.05,-360 589.89,-312.17 544.46,-344.85 393.05,-324 381.38,-322.39 368.88,-320.42 357.08,-318.44"/>
<polygon fill="#63b8ff" stroke="#63b8ff" points="851.29,-415.31 861.88,-415.04 853.43,-408.65 851.29,-415.31"/>
</g>
<!-- Node19 -->
<g id="node19" class="node">
<title>Node19</title>
<g id="a_node19"><a xlink:href="SceneApprenticeship_8h.html" target="_top" xlink:title=" ">
<polygon fill="white" stroke="#666666" points="1149.8,-318 982.3,-318 982.3,-298 1149.8,-298 1149.8,-318"/>
<text text-anchor="middle" x="1066.05" y="-304.5" font-family="Helvetica,sans-Serif" font-size="10.00">src/scenes/SceneApprenticeship.h</text>
</a>
</g>
</g>
<!-- Node1&#45;&gt;Node19 -->
<g id="edge36" class="edge">
<title>Node1&#45;&gt;Node19</title>
<path fill="none" stroke="#63b8ff" d="M924.74,-410.57C940.91,-402.3 961.04,-391.33 978.05,-380 1007.78,-360.19 1039.71,-332.66 1055.69,-318.4"/>
<polygon fill="#63b8ff" stroke="#63b8ff" points="923.46,-407.3 916.1,-414.92 926.61,-413.55 923.46,-407.3"/>
</g>
<!-- Node24 -->
<g id="node24" class="node">
<title>Node24</title>
<g id="a_node24"><a xlink:href="ManagerStage_8h.html" target="_top" xlink:title=" ">
<polygon fill="white" stroke="#666666" points="1416.8,-380 1267.3,-380 1267.3,-360 1416.8,-360 1416.8,-380"/>
<text text-anchor="middle" x="1342.05" y="-366.5" font-family="Helvetica,sans-Serif" font-size="10.00">src/managers/ManagerStage.h</text>
</a>
</g>
</g>
<!-- Node1&#45;&gt;Node24 -->
<g id="edge33" class="edge">
<title>Node1&#45;&gt;Node24</title>
<path fill="none" stroke="#63b8ff" d="M949.97,-418.37C1029.64,-408.74 1177.52,-390.88 1267.13,-380.05"/>
<polygon fill="#63b8ff" stroke="#63b8ff" points="949.73,-414.87 940.23,-419.54 950.57,-421.82 949.73,-414.87"/>
</g>
<!-- Node4 -->
<g id="node4" class="node">
<title>Node4</title>
<g id="a_node4"><a xlink:href="ManagerActionFormation_8cpp.html" target="_top" xlink:title=" ">
<polygon fill="white" stroke="#666666" points="345.8,-256 202.3,-256 202.3,-224 345.8,-224 345.8,-256"/>
<text text-anchor="start" x="210.3" y="-242.5" font-family="Helvetica,sans-Serif" font-size="10.00">src/managers/ManagerAction</text>
<text text-anchor="middle" x="274.05" y="-230.5" font-family="Helvetica,sans-Serif" font-size="10.00">Formation.cpp</text>
</a>
</g>
</g>
<!-- Node3&#45;&gt;Node4 -->
<g id="edge3" class="edge">
<title>Node3&#45;&gt;Node4</title>
<path fill="none" stroke="#63b8ff" d="M416.32,-287.95C386.07,-277.97 349.49,-265.89 320.99,-256.49"/>
<polygon fill="#63b8ff" stroke="#63b8ff" points="415.13,-291.24 425.72,-291.05 417.32,-284.59 415.13,-291.24"/>
</g>
<!-- Node5 -->
<g id="node5" class="node">
<title>Node5</title>
<g id="a_node5"><a xlink:href="ManagerActionResolution_8h.html" target="_top" xlink:title=" ">
<polygon fill="white" stroke="#666666" points="545.8,-256 402.3,-256 402.3,-224 545.8,-224 545.8,-256"/>
<text text-anchor="start" x="410.3" y="-242.5" font-family="Helvetica,sans-Serif" font-size="10.00">src/managers/ManagerAction</text>
<text text-anchor="middle" x="474.05" y="-230.5" font-family="Helvetica,sans-Serif" font-size="10.00">Resolution.h</text>
</a>
</g>
</g>
<!-- Node3&#45;&gt;Node5 -->
<g id="edge4" class="edge">
<title>Node3&#45;&gt;Node5</title>
<path fill="none" stroke="#63b8ff" d="M474.05,-280.31C474.05,-272.12 474.05,-263.38 474.05,-256.22"/>
<polygon fill="#63b8ff" stroke="#63b8ff" points="470.55,-280.18 474.05,-290.18 477.55,-280.18 470.55,-280.18"/>
</g>
<!-- Node6 -->
<g id="node6" class="node">
<title>Node6</title>
<g id="a_node6"><a xlink:href="ManagerTurn_8h.html" target="_top" xlink:title=" ">
<polygon fill="white" stroke="#666666" points="545.8,-188 402.3,-188 402.3,-168 545.8,-168 545.8,-188"/>
<text text-anchor="middle" x="474.05" y="-174.5" font-family="Helvetica,sans-Serif" font-size="10.00">src/managers/ManagerTurn.h</text>
</a>
</g>
</g>
<!-- Node3&#45;&gt;Node6 -->
<g id="edge12" class="edge">
<title>Node3&#45;&gt;Node6</title>
<path fill="none" stroke="#63b8ff" d="M423.47,-285.95C411.37,-278.37 399.96,-268.51 393.05,-256 386.18,-243.55 385.84,-236.26 393.05,-224 403.41,-206.39 423.43,-195.18 440.97,-188.35"/>
<polygon fill="#63b8ff" stroke="#63b8ff" points="421.53,-288.87 431.94,-290.8 425,-282.8 421.53,-288.87"/>
</g>
<!-- Node5&#45;&gt;Node6 -->
<g id="edge5" class="edge">
<title>Node5&#45;&gt;Node6</title>
<path fill="none" stroke="#63b8ff" d="M474.05,-212.08C474.05,-203.6 474.05,-194.8 474.05,-188.41"/>
<polygon fill="#63b8ff" stroke="#63b8ff" points="470.55,-212.03 474.05,-222.03 477.55,-212.03 470.55,-212.03"/>
</g>
<!-- Node7 -->
<g id="node7" class="node">
<title>Node7</title>
<g id="a_node7"><a xlink:href="ManagerTurn_8cpp.html" target="_top" xlink:title=" ">
<polygon fill="white" stroke="#666666" points="551.05,-132 397.05,-132 397.05,-112 551.05,-112 551.05,-132"/>
<text text-anchor="middle" x="474.05" y="-118.5" font-family="Helvetica,sans-Serif" font-size="10.00">src/managers/ManagerTurn.cpp</text>
</a>
</g>
</g>
<!-- Node6&#45;&gt;Node7 -->
<g id="edge6" class="edge">
<title>Node6&#45;&gt;Node7</title>
<path fill="none" stroke="#63b8ff" d="M474.05,-156.13C474.05,-147.9 474.05,-138.85 474.05,-132.3"/>
<polygon fill="#63b8ff" stroke="#63b8ff" points="470.55,-156.08 474.05,-166.08 477.55,-156.08 470.55,-156.08"/>
</g>
<!-- Node8 -->
<g id="node8" class="node">
<title>Node8</title>
<g id="a_node8"><a xlink:href="SceneEspionage_8h.html" target="_top" xlink:title=" ">
<polygon fill="white" stroke="#666666" points="779.42,-132 630.67,-132 630.67,-112 779.42,-112 779.42,-132"/>
<text text-anchor="middle" x="705.05" y="-118.5" font-family="Helvetica,sans-Serif" font-size="10.00">src/scenes/SceneEspionage.h</text>
</a>
</g>
</g>
<!-- Node6&#45;&gt;Node8 -->
<g id="edge7" class="edge">
<title>Node6&#45;&gt;Node8</title>
<path fill="none" stroke="#63b8ff" d="M525.65,-164.94C567.6,-155.13 625.97,-141.49 664.59,-132.46"/>
<polygon fill="#63b8ff" stroke="#63b8ff" points="524.96,-161.5 516.02,-167.19 526.56,-168.32 524.96,-161.5"/>
</g>
<!-- Node9 -->
<g id="node9" class="node">
<title>Node9</title>
<g id="a_node9"><a xlink:href="SceneEspionage_8cpp.html" target="_top" xlink:title=" ">
<polygon fill="white" stroke="#666666" points="770.67,-76 611.42,-76 611.42,-56 770.67,-56 770.67,-76"/>
<text text-anchor="middle" x="691.05" y="-62.5" font-family="Helvetica,sans-Serif" font-size="10.00">src/scenes/SceneEspionage.cpp</text>
</a>
</g>
</g>
<!-- Node8&#45;&gt;Node9 -->
<g id="edge8" class="edge">
<title>Node8&#45;&gt;Node9</title>
<path fill="none" stroke="#63b8ff" d="M699.79,-100.71C697.61,-92.32 695.2,-83.01 693.46,-76.3"/>
<polygon fill="#63b8ff" stroke="#63b8ff" points="696.33,-101.33 702.23,-110.13 703.11,-99.57 696.33,-101.33"/>
</g>
<!-- Node10 -->
<g id="node10" class="node">
<title>Node10</title>
<g id="a_node10"><a xlink:href="SceneMain_8h.html" target="_top" xlink:title=" ">
<polygon fill="white" stroke="#666666" points="913.05,-76 789.05,-76 789.05,-56 913.05,-56 913.05,-76"/>
<text text-anchor="middle" x="851.05" y="-62.5" font-family="Helvetica,sans-Serif" font-size="10.00">src/scenes/SceneMain.h</text>
</a>
</g>
</g>
<!-- Node8&#45;&gt;Node10 -->
<g id="edge9" class="edge">
<title>Node8&#45;&gt;Node10</title>
<path fill="none" stroke="#63b8ff" d="M741.11,-107.66C767.28,-97.98 802.05,-85.12 825.42,-76.48"/>
<polygon fill="#63b8ff" stroke="#63b8ff" points="740.06,-104.32 731.9,-111.07 742.49,-110.88 740.06,-104.32"/>
</g>
<!-- Node11 -->
<g id="node11" class="node">
<title>Node11</title>
<g id="a_node11"><a xlink:href="SceneMain_8cpp.html" target="_top" xlink:title=" ">
<polygon fill="white" stroke="#666666" points="918.3,-20 783.8,-20 783.8,0 918.3,0 918.3,-20"/>
<text text-anchor="middle" x="851.05" y="-6.5" font-family="Helvetica,sans-Serif" font-size="10.00">src/scenes/SceneMain.cpp</text>
</a>
</g>
</g>
<!-- Node10&#45;&gt;Node11 -->
<g id="edge10" class="edge">
<title>Node10&#45;&gt;Node11</title>
<path fill="none" stroke="#63b8ff" d="M851.05,-44.13C851.05,-35.9 851.05,-26.85 851.05,-20.3"/>
<polygon fill="#63b8ff" stroke="#63b8ff" points="847.55,-44.08 851.05,-54.08 854.55,-44.08 847.55,-44.08"/>
</g>
<!-- Node12 -->
<g id="node12" class="node">
<title>Node12</title>
<g id="a_node12"><a xlink:href="SceneMenu_8cpp.html" target="_top" xlink:title=" ">
<polygon fill="white" stroke="#666666" points="1304.8,-20 1167.3,-20 1167.3,0 1304.8,0 1304.8,-20"/>
<text text-anchor="middle" x="1236.05" y="-6.5" font-family="Helvetica,sans-Serif" font-size="10.00">src/scenes/SceneMenu.cpp</text>
</a>
</g>
</g>
<!-- Node10&#45;&gt;Node12 -->
<g id="edge11" class="edge">
<title>Node10&#45;&gt;Node12</title>
<path fill="none" stroke="#63b8ff" d="M924.31,-54.72C994.62,-44.86 1099.95,-30.09 1168.34,-20.5"/>
<polygon fill="#63b8ff" stroke="#63b8ff" points="924.25,-51.2 914.83,-56.05 925.22,-58.13 924.25,-51.2"/>
</g>
<!-- Node14&#45;&gt;Node8 -->
<g id="edge32" class="edge">
<title>Node14&#45;&gt;Node8</title>
<path fill="none" stroke="#63b8ff" d="M859.17,-354.77C844.47,-347.44 828.3,-337.22 817.05,-324 786.23,-287.8 801.75,-265.78 779.05,-224 759.33,-187.71 728.12,-149.65 713.34,-132.44"/>
<polygon fill="#63b8ff" stroke="#63b8ff" points="857.61,-357.9 868.15,-358.96 860.57,-351.56 857.61,-357.9"/>
</g>
<!-- Node14&#45;&gt;Node13 -->
<g id="edge15" class="edge">
<title>Node14&#45;&gt;Node13</title>
<path fill="none" stroke="#63b8ff" d="M961.61,-357.65C1028.08,-346.32 1129.07,-329.11 1191.4,-318.48"/>
<polygon fill="#63b8ff" stroke="#63b8ff" points="961.2,-354.17 951.93,-359.3 962.37,-361.07 961.2,-354.17"/>
</g>
<!-- Node15 -->
<g id="node15" class="node">
<title>Node15</title>
<g id="a_node15"><a xlink:href="ManagerLexicon_8h.html" target="_top" xlink:title=" ">
<polygon fill="white" stroke="#666666" points="743.92,-318 586.17,-318 586.17,-298 743.92,-298 743.92,-318"/>
<text text-anchor="middle" x="665.05" y="-304.5" font-family="Helvetica,sans-Serif" font-size="10.00">src/managers/ManagerLexicon.h</text>
</a>
</g>
</g>
<!-- Node14&#45;&gt;Node15 -->
<g id="edge16" class="edge">
<title>Node14&#45;&gt;Node15</title>
<path fill="none" stroke="#63b8ff" d="M847.73,-356.66C804.33,-345.33 740.96,-328.8 701.41,-318.48"/>
<polygon fill="#63b8ff" stroke="#63b8ff" points="846.83,-360.04 857.39,-359.18 848.6,-353.27 846.83,-360.04"/>
</g>
<!-- Node14&#45;&gt;Node17 -->
<g id="edge20" class="edge">
<title>Node14&#45;&gt;Node17</title>
<path fill="none" stroke="#63b8ff" d="M809.13,-362.13C687.47,-352.26 471.12,-334.14 393.05,-324 381.21,-322.46 368.54,-320.49 356.6,-318.49"/>
<polygon fill="#63b8ff" stroke="#63b8ff" points="808.84,-365.62 819.09,-362.94 809.4,-358.64 808.84,-365.62"/>
</g>
<!-- Node14&#45;&gt;Node19 -->
<g id="edge24" class="edge">
<title>Node14&#45;&gt;Node19</title>
<path fill="none" stroke="#63b8ff" d="M932.56,-355.84C964.82,-344.52 1010.55,-328.47 1039.24,-318.41"/>
<polygon fill="#63b8ff" stroke="#63b8ff" points="931.47,-352.51 923.2,-359.12 933.79,-359.12 931.47,-352.51"/>
</g>
<!-- Node22 -->
<g id="node22" class="node">
<title>Node22</title>
<g id="a_node22"><a xlink:href="SceneCombat_8h.html" target="_top" xlink:title=" ">
<polygon fill="white" stroke="#666666" points="963.8,-318 826.3,-318 826.3,-298 963.8,-298 963.8,-318"/>
<text text-anchor="middle" x="895.05" y="-304.5" font-family="Helvetica,sans-Serif" font-size="10.00">src/scenes/SceneCombat.h</text>
</a>
</g>
</g>
<!-- Node14&#45;&gt;Node22 -->
<g id="edge29" class="edge">
<title>Node14&#45;&gt;Node22</title>
<path fill="none" stroke="#63b8ff" d="M895.05,-348.25C895.05,-337.97 895.05,-326.09 895.05,-318.11"/>
<polygon fill="#63b8ff" stroke="#63b8ff" points="891.55,-348.11 895.05,-358.11 898.55,-348.11 891.55,-348.11"/>
</g>
<!-- Node15&#45;&gt;Node5 -->
<g id="edge17" class="edge">
<title>Node15&#45;&gt;Node5</title>
<path fill="none" stroke="#63b8ff" d="M626.82,-293.79C595.63,-283.01 551.51,-267.77 518.7,-256.43"/>
<polygon fill="#63b8ff" stroke="#63b8ff" points="625.66,-297.09 636.25,-297.05 627.94,-290.48 625.66,-297.09"/>
</g>
<!-- Node15&#45;&gt;Node6 -->
<g id="edge19" class="edge">
<title>Node15&#45;&gt;Node6</title>
<path fill="none" stroke="#63b8ff" d="M641.87,-291.32C627.58,-281.46 609,-268.33 593.05,-256 575.58,-242.5 573.23,-236.53 555.05,-224 534.92,-210.12 510.14,-196.86 493.32,-188.38"/>
<polygon fill="#63b8ff" stroke="#63b8ff" points="639.52,-293.94 649.75,-296.71 643.47,-288.17 639.52,-293.94"/>
</g>
<!-- Node16 -->
<g id="node16" class="node">
<title>Node16</title>
<g id="a_node16"><a xlink:href="ManagerLexicon_8cpp.html" target="_top" xlink:title=" ">
<polygon fill="white" stroke="#666666" points="770.17,-250 601.92,-250 601.92,-230 770.17,-230 770.17,-250"/>
<text text-anchor="middle" x="686.05" y="-236.5" font-family="Helvetica,sans-Serif" font-size="10.00">src/managers/ManagerLexicon.cpp</text>
</a>
</g>
</g>
<!-- Node15&#45;&gt;Node16 -->
<g id="edge18" class="edge">
<title>Node15&#45;&gt;Node16</title>
<path fill="none" stroke="#63b8ff" d="M671.52,-286.65C675.36,-274.58 680.05,-259.84 683.05,-250.44"/>
<polygon fill="#63b8ff" stroke="#63b8ff" points="668.21,-285.51 668.52,-296.1 674.88,-287.63 668.21,-285.51"/>
</g>
<!-- Node17&#45;&gt;Node5 -->
<g id="edge21" class="edge">
<title>Node17&#45;&gt;Node5</title>
<path fill="none" stroke="#63b8ff" d="M339.97,-293.36C367.5,-282.61 405.89,-267.62 434.54,-256.43"/>
<polygon fill="#63b8ff" stroke="#63b8ff" points="338.71,-290.1 330.67,-296.99 341.26,-296.62 338.71,-290.1"/>
</g>
<!-- Node17&#45;&gt;Node6 -->
<g id="edge23" class="edge">
<title>Node17&#45;&gt;Node6</title>
<path fill="none" stroke="#63b8ff" d="M214.56,-303.96C136.83,-299.21 33.25,-287.07 7.05,-256 -2.12,-245.13 -2.51,-234.53 7.05,-224 33.06,-195.36 277.7,-184.44 402.12,-180.72"/>
<polygon fill="#63b8ff" stroke="#63b8ff" points="214.14,-307.44 224.32,-304.52 214.54,-300.45 214.14,-307.44"/>
</g>
<!-- Node18 -->
<g id="node18" class="node">
<title>Node18</title>
<g id="a_node18"><a xlink:href="ManagerSystem_8cpp.html" target="_top" xlink:title=" ">
<polygon fill="white" stroke="#666666" points="184.17,-250 15.92,-250 15.92,-230 184.17,-230 184.17,-250"/>
<text text-anchor="middle" x="100.05" y="-236.5" font-family="Helvetica,sans-Serif" font-size="10.00">src/managers/ManagerSystem.cpp</text>
</a>
</g>
</g>
<!-- Node17&#45;&gt;Node18 -->
<g id="edge22" class="edge">
<title>Node17&#45;&gt;Node18</title>
<path fill="none" stroke="#63b8ff" d="M264.76,-294.03C224.91,-281.2 164.89,-261.87 129.37,-250.44"/>
<polygon fill="#63b8ff" stroke="#63b8ff" points="263.65,-297.35 274.24,-297.08 265.79,-290.68 263.65,-297.35"/>
</g>
<!-- Node19&#45;&gt;Node12 -->
<g id="edge26" class="edge">
<title>Node19&#45;&gt;Node12</title>
<path fill="none" stroke="#63b8ff" d="M1150.05,-294.49C1174.6,-287.02 1199.51,-275.07 1217.05,-256 1240.91,-230.05 1236.05,-214.25 1236.05,-179 1236.05,-179 1236.05,-179 1236.05,-121 1236.05,-83.76 1236.05,-39.43 1236.05,-20.42"/>
<polygon fill="#63b8ff" stroke="#63b8ff" points="1149.35,-291.06 1140.66,-297.12 1151.24,-297.8 1149.35,-291.06"/>
</g>
<!-- Node20 -->
<g id="node20" class="node">
<title>Node20</title>
<g id="a_node20"><a xlink:href="SceneApprenticeship_8cpp.html" target="_top" xlink:title=" ">
<polygon fill="white" stroke="#666666" points="1208.05,-250 1030.05,-250 1030.05,-230 1208.05,-230 1208.05,-250"/>
<text text-anchor="middle" x="1119.05" y="-236.5" font-family="Helvetica,sans-Serif" font-size="10.00">src/scenes/SceneApprenticeship.cpp</text>
</a>
</g>
</g>
<!-- Node19&#45;&gt;Node20 -->
<g id="edge25" class="edge">
<title>Node19&#45;&gt;Node20</title>
<path fill="none" stroke="#63b8ff" d="M1080.6,-288.88C1090.59,-276.44 1103.45,-260.43 1111.47,-250.44"/>
<polygon fill="#63b8ff" stroke="#63b8ff" points="1078.12,-286.38 1074.59,-296.36 1083.58,-290.76 1078.12,-286.38"/>
</g>
<!-- Node21 -->
<g id="node21" class="node">
<title>Node21</title>
<g id="a_node21"><a xlink:href="SceneMenu_8h.html" target="_top" xlink:title=" ">
<polygon fill="white" stroke="#666666" points="1391.55,-188 1264.55,-188 1264.55,-168 1391.55,-168 1391.55,-188"/>
<text text-anchor="middle" x="1328.05" y="-174.5" font-family="Helvetica,sans-Serif" font-size="10.00">src/scenes/SceneMenu.h</text>
</a>
</g>
</g>
<!-- Node19&#45;&gt;Node21 -->
<g id="edge27" class="edge">
<title>Node19&#45;&gt;Node21</title>
<path fill="none" stroke="#63b8ff" d="M1141.13,-295.2C1175.9,-287.53 1216.78,-275.25 1250.05,-256 1281.18,-237.98 1308.86,-204.6 1321.21,-188.36"/>
<polygon fill="#63b8ff" stroke="#63b8ff" points="1140.62,-291.73 1131.56,-297.22 1142.06,-298.58 1140.62,-291.73"/>
</g>
<!-- Node21&#45;&gt;Node12 -->
<g id="edge28" class="edge">
<title>Node21&#45;&gt;Node12</title>
<path fill="none" stroke="#63b8ff" d="M1317.47,-157.9C1297.69,-122.22 1255.81,-46.65 1241.2,-20.3"/>
<polygon fill="#63b8ff" stroke="#63b8ff" points="1314.2,-159.23 1322.11,-166.28 1320.32,-155.83 1314.2,-159.23"/>
</g>
<!-- Node22&#45;&gt;Node10 -->
<g id="edge31" class="edge">
<title>Node22&#45;&gt;Node10</title>
<path fill="none" stroke="#63b8ff" d="M876.71,-289.53C868.44,-280.42 859.54,-268.56 855.05,-256 831.75,-190.79 844.14,-104.68 849.22,-76.42"/>
<polygon fill="#63b8ff" stroke="#63b8ff" points="874.06,-291.83 883.53,-296.57 879.08,-286.96 874.06,-291.83"/>
</g>
<!-- Node23 -->
<g id="node23" class="node">
<title>Node23</title>
<g id="a_node23"><a xlink:href="SceneCombat_8cpp.html" target="_top" xlink:title=" ">
<polygon fill="white" stroke="#666666" points="1012.05,-250 864.05,-250 864.05,-230 1012.05,-230 1012.05,-250"/>
<text text-anchor="middle" x="938.05" y="-236.5" font-family="Helvetica,sans-Serif" font-size="10.00">src/scenes/SceneCombat.cpp</text>
</a>
</g>
</g>
<!-- Node22&#45;&gt;Node23 -->
<g id="edge30" class="edge">
<title>Node22&#45;&gt;Node23</title>
<path fill="none" stroke="#63b8ff" d="M907.33,-288.15C915.37,-275.82 925.52,-260.23 931.9,-250.44"/>
<polygon fill="#63b8ff" stroke="#63b8ff" points="904.56,-285.99 902.04,-296.28 910.43,-289.81 904.56,-285.99"/>
</g>
<!-- Node25 -->
<g id="node25" class="node">
<title>Node25</title>
<g id="a_node25"><a xlink:href="ManagerStage_8cpp.html" target="_top" xlink:title=" ">
<polygon fill="white" stroke="#666666" points="1504.05,-318 1344.05,-318 1344.05,-298 1504.05,-298 1504.05,-318"/>
<text text-anchor="middle" x="1424.05" y="-304.5" font-family="Helvetica,sans-Serif" font-size="10.00">src/managers/ManagerStage.cpp</text>
</a>
</g>
</g>
<!-- Node24&#45;&gt;Node25 -->
<g id="edge34" class="edge">
<title>Node24&#45;&gt;Node25</title>
<path fill="none" stroke="#63b8ff" d="M1364.04,-352.91C1379.17,-341.84 1398.72,-327.53 1411.33,-318.31"/>
<polygon fill="#63b8ff" stroke="#63b8ff" points="1362.09,-350 1356.08,-358.73 1366.22,-355.65 1362.09,-350"/>
</g>
</g>
</svg>
