<?xml version="1.0" encoding="UTF-8" standalone="no"?>
<!DOCTYPE svg PUBLIC "-//W3C//DTD SVG 1.1//EN"
 "http://www.w3.org/Graphics/SVG/1.1/DTD/svg11.dtd">
<!-- Generated by graphviz version 12.2.1 (20241206.2353)
 -->
<!-- Title: src/core/Entity.h Pages: 1 -->
<svg width="310pt" height="140pt"
 viewBox="0.00 0.00 309.88 140.00" xmlns="http://www.w3.org/2000/svg" xmlns:xlink="http://www.w3.org/1999/xlink">
<g id="graph0" class="graph" transform="scale(1 1) rotate(0) translate(4 136)">
<title>src/core/Entity.h</title>
<!-- Node1 -->
<g id="node1" class="node">
<title>Node1</title>
<g id="a_node1"><a xlink:title=" ">
<polygon fill="#999999" stroke="#666666" points="233.25,-132 146.75,-132 146.75,-112 233.25,-112 233.25,-132"/>
<text text-anchor="middle" x="190" y="-118.5" font-family="Helvetica,sans-Serif" font-size="10.00">src/core/Entity.h</text>
</a>
</g>
</g>
<!-- Node2 -->
<g id="node2" class="node">
<title>Node2</title>
<g id="a_node2"><a xlink:href="Components_8h.html" target="_top" xlink:title=" ">
<polygon fill="white" stroke="#666666" points="195.88,-76 116.12,-76 116.12,-56 195.88,-56 195.88,-76"/>
<text text-anchor="middle" x="156" y="-62.5" font-family="Helvetica,sans-Serif" font-size="10.00">Components.h</text>
</a>
</g>
</g>
<!-- Node1&#45;&gt;Node2 -->
<g id="edge1" class="edge">
<title>Node1&#45;&gt;Node2</title>
<path fill="none" stroke="#63b8ff" d="M184.08,-111.59C179.64,-104.55 173.42,-94.67 167.96,-86"/>
<polygon fill="#63b8ff" stroke="#63b8ff" points="170.95,-84.18 162.66,-77.58 165.03,-87.91 170.95,-84.18"/>
</g>
<!-- Node3 -->
<g id="node3" class="node">
<title>Node3</title>
<g id="a_node3"><a xlink:title=" ">
<polygon fill="#e0e0e0" stroke="#999999" points="40,-20 0,-20 0,0 40,0 40,-20"/>
<text text-anchor="middle" x="20" y="-6.5" font-family="Helvetica,sans-Serif" font-size="10.00">string</text>
</a>
</g>
</g>
<!-- Node1&#45;&gt;Node3 -->
<g id="edge7" class="edge">
<title>Node1&#45;&gt;Node3</title>
<path fill="none" stroke="#63b8ff" d="M170.76,-111.57C153.65,-102.95 128.12,-89.52 107,-76 83.15,-60.74 57.34,-41.01 40.08,-27.31"/>
<polygon fill="#63b8ff" stroke="#63b8ff" points="42.61,-24.85 32.62,-21.33 38.23,-30.32 42.61,-24.85"/>
</g>
<!-- Node6 -->
<g id="node6" class="node">
<title>Node6</title>
<g id="a_node6"><a xlink:title=" ">
<polygon fill="#e0e0e0" stroke="#999999" points="295.62,-20 244.38,-20 244.38,0 295.62,0 295.62,-20"/>
<text text-anchor="middle" x="270" y="-6.5" font-family="Helvetica,sans-Serif" font-size="10.00">memory</text>
</a>
</g>
</g>
<!-- Node1&#45;&gt;Node6 -->
<g id="edge6" class="edge">
<title>Node1&#45;&gt;Node6</title>
<path fill="none" stroke="#63b8ff" d="M196.82,-111.62C210.05,-93.44 239.39,-53.09 256.63,-29.38"/>
<polygon fill="#63b8ff" stroke="#63b8ff" points="259.26,-31.72 262.31,-21.58 253.59,-27.61 259.26,-31.72"/>
</g>
<!-- Node7 -->
<g id="node7" class="node">
<title>Node7</title>
<g id="a_node7"><a xlink:title=" ">
<polygon fill="#e0e0e0" stroke="#999999" points="301.88,-76 252.12,-76 252.12,-56 301.88,-56 301.88,-76"/>
<text text-anchor="middle" x="277" y="-62.5" font-family="Helvetica,sans-Serif" font-size="10.00">optional</text>
</a>
</g>
</g>
<!-- Node1&#45;&gt;Node7 -->
<g id="edge8" class="edge">
<title>Node1&#45;&gt;Node7</title>
<path fill="none" stroke="#63b8ff" d="M205.15,-111.59C218.05,-103.59 236.83,-91.93 251.96,-82.54"/>
<polygon fill="#63b8ff" stroke="#63b8ff" points="253.79,-85.53 260.44,-77.28 250.1,-79.58 253.79,-85.53"/>
</g>
<!-- Node2&#45;&gt;Node3 -->
<g id="edge2" class="edge">
<title>Node2&#45;&gt;Node3</title>
<path fill="none" stroke="#63b8ff" d="M132.31,-55.59C109.74,-46.63 75.63,-33.09 50.93,-23.28"/>
<polygon fill="#63b8ff" stroke="#63b8ff" points="52.31,-20.06 41.72,-19.62 49.72,-26.57 52.31,-20.06"/>
</g>
<!-- Node4 -->
<g id="node4" class="node">
<title>Node4</title>
<g id="a_node4"><a xlink:title=" ">
<polygon fill="#e0e0e0" stroke="#999999" points="161.5,-20 58.5,-20 58.5,0 161.5,0 161.5,-20"/>
<text text-anchor="middle" x="110" y="-6.5" font-family="Helvetica,sans-Serif" font-size="10.00">SFML/Graphics.hpp</text>
</a>
</g>
</g>
<!-- Node2&#45;&gt;Node4 -->
<g id="edge3" class="edge">
<title>Node2&#45;&gt;Node4</title>
<path fill="none" stroke="#63b8ff" d="M147.99,-55.59C141.72,-48.24 132.83,-37.8 125.22,-28.87"/>
<polygon fill="#63b8ff" stroke="#63b8ff" points="128.05,-26.79 118.9,-21.45 122.72,-31.33 128.05,-26.79"/>
</g>
<!-- Node5 -->
<g id="node5" class="node">
<title>Node5</title>
<g id="a_node5"><a xlink:title=" ">
<polygon fill="#e0e0e0" stroke="#999999" points="226.38,-20 179.62,-20 179.62,0 226.38,0 226.38,-20"/>
<text text-anchor="middle" x="203" y="-6.5" font-family="Helvetica,sans-Serif" font-size="10.00">Vec2.h</text>
</a>
</g>
</g>
<!-- Node2&#45;&gt;Node5 -->
<g id="edge4" class="edge">
<title>Node2&#45;&gt;Node5</title>
<path fill="none" stroke="#63b8ff" d="M164.19,-55.59C170.59,-48.24 179.68,-37.8 187.45,-28.87"/>
<polygon fill="#63b8ff" stroke="#63b8ff" points="189.99,-31.28 193.91,-21.44 184.71,-26.69 189.99,-31.28"/>
</g>
<!-- Node2&#45;&gt;Node6 -->
<g id="edge5" class="edge">
<title>Node2&#45;&gt;Node6</title>
<path fill="none" stroke="#63b8ff" d="M175.86,-55.59C193.49,-47.24 219.51,-34.92 239.73,-25.34"/>
<polygon fill="#63b8ff" stroke="#63b8ff" points="241.08,-28.57 248.62,-21.13 238.08,-22.25 241.08,-28.57"/>
</g>
</g>
</svg>
