<?xml version="1.0" encoding="UTF-8" standalone="no"?>
<!DOCTYPE svg PUBLIC "-//W3C//DTD SVG 1.1//EN"
 "http://www.w3.org/Graphics/SVG/1.1/DTD/svg11.dtd">
<!-- Generated by graphviz version 12.2.1 (20241206.2353)
 -->
<!-- Title: src/core/Entity.cpp Pages: 1 -->
<svg width="303pt" height="196pt"
 viewBox="0.00 0.00 303.38 196.00" xmlns="http://www.w3.org/2000/svg" xmlns:xlink="http://www.w3.org/1999/xlink">
<g id="graph0" class="graph" transform="scale(1 1) rotate(0) translate(4 192)">
<title>src/core/Entity.cpp</title>
<!-- Node1 -->
<g id="node1" class="node">
<title>Node1</title>
<g id="a_node1"><a xlink:title=" ">
<polygon fill="#999999" stroke="#666666" points="257.5,-188 160.5,-188 160.5,-168 257.5,-168 257.5,-188"/>
<text text-anchor="middle" x="209" y="-174.5" font-family="Helvetica,sans-Serif" font-size="10.00">src/core/Entity.cpp</text>
</a>
</g>
</g>
<!-- Node2 -->
<g id="node2" class="node">
<title>Node2</title>
<g id="a_node2"><a xlink:href="Entity_8h.html" target="_top" xlink:title=" ">
<polygon fill="white" stroke="#666666" points="180.12,-132 131.88,-132 131.88,-112 180.12,-112 180.12,-132"/>
<text text-anchor="middle" x="156" y="-118.5" font-family="Helvetica,sans-Serif" font-size="10.00">Entity.h</text>
</a>
</g>
</g>
<!-- Node1&#45;&gt;Node2 -->
<g id="edge1" class="edge">
<title>Node1&#45;&gt;Node2</title>
<path fill="none" stroke="#63b8ff" d="M199.77,-167.59C192.4,-160.08 181.87,-149.35 172.98,-140.3"/>
<polygon fill="#63b8ff" stroke="#63b8ff" points="175.69,-138.06 166.19,-133.38 170.69,-142.97 175.69,-138.06"/>
</g>
<!-- Node6 -->
<g id="node6" class="node">
<title>Node6</title>
<g id="a_node6"><a xlink:title=" ">
<polygon fill="#e0e0e0" stroke="#999999" points="295.38,-20 248.62,-20 248.62,0 295.38,0 295.38,-20"/>
<text text-anchor="middle" x="272" y="-6.5" font-family="Helvetica,sans-Serif" font-size="10.00">Vec2.h</text>
</a>
</g>
</g>
<!-- Node1&#45;&gt;Node6 -->
<g id="edge10" class="edge">
<title>Node1&#45;&gt;Node6</title>
<path fill="none" stroke="#63b8ff" d="M212.57,-167.6C222.53,-141.35 250.81,-66.84 264.45,-30.89"/>
<polygon fill="#63b8ff" stroke="#63b8ff" points="267.66,-32.3 267.93,-21.71 261.11,-29.82 267.66,-32.3"/>
</g>
<!-- Node3 -->
<g id="node3" class="node">
<title>Node3</title>
<g id="a_node3"><a xlink:href="Components_8h.html" target="_top" xlink:title=" ">
<polygon fill="white" stroke="#666666" points="195.88,-76 116.12,-76 116.12,-56 195.88,-56 195.88,-76"/>
<text text-anchor="middle" x="156" y="-62.5" font-family="Helvetica,sans-Serif" font-size="10.00">Components.h</text>
</a>
</g>
</g>
<!-- Node2&#45;&gt;Node3 -->
<g id="edge2" class="edge">
<title>Node2&#45;&gt;Node3</title>
<path fill="none" stroke="#63b8ff" d="M156,-111.59C156,-105.01 156,-95.96 156,-87.73"/>
<polygon fill="#63b8ff" stroke="#63b8ff" points="159.5,-87.81 156,-77.81 152.5,-87.81 159.5,-87.81"/>
</g>
<!-- Node4 -->
<g id="node4" class="node">
<title>Node4</title>
<g id="a_node4"><a xlink:title=" ">
<polygon fill="#e0e0e0" stroke="#999999" points="40,-20 0,-20 0,0 40,0 40,-20"/>
<text text-anchor="middle" x="20" y="-6.5" font-family="Helvetica,sans-Serif" font-size="10.00">string</text>
</a>
</g>
</g>
<!-- Node2&#45;&gt;Node4 -->
<g id="edge8" class="edge">
<title>Node2&#45;&gt;Node4</title>
<path fill="none" stroke="#63b8ff" d="M131.38,-118C104.89,-113.48 63.32,-102.42 39,-76 27.79,-63.82 23.16,-45.38 21.27,-31.25"/>
<polygon fill="#63b8ff" stroke="#63b8ff" points="24.79,-31.33 20.36,-21.71 17.83,-32 24.79,-31.33"/>
</g>
<!-- Node7 -->
<g id="node7" class="node">
<title>Node7</title>
<g id="a_node7"><a xlink:title=" ">
<polygon fill="#e0e0e0" stroke="#999999" points="230.62,-20 179.38,-20 179.38,0 230.62,0 230.62,-20"/>
<text text-anchor="middle" x="205" y="-6.5" font-family="Helvetica,sans-Serif" font-size="10.00">memory</text>
</a>
</g>
</g>
<!-- Node2&#45;&gt;Node7 -->
<g id="edge7" class="edge">
<title>Node2&#45;&gt;Node7</title>
<path fill="none" stroke="#63b8ff" d="M171.61,-111.77C183.23,-103.9 198.22,-91.44 205,-76 211.12,-62.06 210.79,-44.77 209.11,-31.52"/>
<polygon fill="#63b8ff" stroke="#63b8ff" points="212.59,-31.09 207.5,-21.8 205.68,-32.24 212.59,-31.09"/>
</g>
<!-- Node8 -->
<g id="node8" class="node">
<title>Node8</title>
<g id="a_node8"><a xlink:title=" ">
<polygon fill="#e0e0e0" stroke="#999999" points="97.88,-76 48.12,-76 48.12,-56 97.88,-56 97.88,-76"/>
<text text-anchor="middle" x="73" y="-62.5" font-family="Helvetica,sans-Serif" font-size="10.00">optional</text>
</a>
</g>
</g>
<!-- Node2&#45;&gt;Node8 -->
<g id="edge9" class="edge">
<title>Node2&#45;&gt;Node8</title>
<path fill="none" stroke="#63b8ff" d="M141.54,-111.59C129.24,-103.59 111.32,-91.93 96.89,-82.54"/>
<polygon fill="#63b8ff" stroke="#63b8ff" points="99.13,-79.82 88.84,-77.3 95.31,-85.69 99.13,-79.82"/>
</g>
<!-- Node3&#45;&gt;Node4 -->
<g id="edge3" class="edge">
<title>Node3&#45;&gt;Node4</title>
<path fill="none" stroke="#63b8ff" d="M132.31,-55.59C109.74,-46.63 75.63,-33.09 50.93,-23.28"/>
<polygon fill="#63b8ff" stroke="#63b8ff" points="52.31,-20.06 41.72,-19.62 49.72,-26.57 52.31,-20.06"/>
</g>
<!-- Node5 -->
<g id="node5" class="node">
<title>Node5</title>
<g id="a_node5"><a xlink:title=" ">
<polygon fill="#e0e0e0" stroke="#999999" points="161.5,-20 58.5,-20 58.5,0 161.5,0 161.5,-20"/>
<text text-anchor="middle" x="110" y="-6.5" font-family="Helvetica,sans-Serif" font-size="10.00">SFML/Graphics.hpp</text>
</a>
</g>
</g>
<!-- Node3&#45;&gt;Node5 -->
<g id="edge4" class="edge">
<title>Node3&#45;&gt;Node5</title>
<path fill="none" stroke="#63b8ff" d="M147.99,-55.59C141.72,-48.24 132.83,-37.8 125.22,-28.87"/>
<polygon fill="#63b8ff" stroke="#63b8ff" points="128.05,-26.79 118.9,-21.45 122.72,-31.33 128.05,-26.79"/>
</g>
<!-- Node3&#45;&gt;Node6 -->
<g id="edge5" class="edge">
<title>Node3&#45;&gt;Node6</title>
<path fill="none" stroke="#63b8ff" d="M176.21,-55.59C194.23,-47.21 220.87,-34.8 241.48,-25.21"/>
<polygon fill="#63b8ff" stroke="#63b8ff" points="242.68,-28.51 250.26,-21.12 239.72,-22.17 242.68,-28.51"/>
</g>
<!-- Node3&#45;&gt;Node7 -->
<g id="edge6" class="edge">
<title>Node3&#45;&gt;Node7</title>
<path fill="none" stroke="#63b8ff" d="M164.54,-55.59C171.28,-48.16 180.89,-37.58 189.04,-28.58"/>
<polygon fill="#63b8ff" stroke="#63b8ff" points="191.42,-31.18 195.55,-21.42 186.23,-26.47 191.42,-31.18"/>
</g>
</g>
</svg>
