<?xml version="1.0" encoding="UTF-8" standalone="no"?>
<!DOCTYPE svg PUBLIC "-//W3C//DTD SVG 1.1//EN"
 "http://www.w3.org/Graphics/SVG/1.1/DTD/svg11.dtd">
<!-- Generated by graphviz version 12.2.1 (20241206.2353)
 -->
<!-- Title: src/core/GameEngine.cpp Pages: 1 -->
<svg width="495pt" height="140pt"
 viewBox="0.00 0.00 495.00 140.00" xmlns="http://www.w3.org/2000/svg" xmlns:xlink="http://www.w3.org/1999/xlink">
<g id="graph0" class="graph" transform="scale(1 1) rotate(0) translate(4 136)">
<title>src/core/GameEngine.cpp</title>
<!-- Node1 -->
<g id="node1" class="node">
<title>Node1</title>
<g id="a_node1"><a xlink:title=" ">
<polygon fill="#999999" stroke="#666666" points="397.12,-132 267.88,-132 267.88,-112 397.12,-112 397.12,-132"/>
<text text-anchor="middle" x="332.5" y="-118.5" font-family="Helvetica,sans-Serif" font-size="10.00">src/core/GameEngine.cpp</text>
</a>
</g>
</g>
<!-- Node2 -->
<g id="node2" class="node">
<title>Node2</title>
<g id="a_node2"><a xlink:href="GameEngine_8h.html" target="_top" xlink:title=" ">
<polygon fill="white" stroke="#666666" points="218.75,-76 138.25,-76 138.25,-56 218.75,-56 218.75,-76"/>
<text text-anchor="middle" x="178.5" y="-62.5" font-family="Helvetica,sans-Serif" font-size="10.00">GameEngine.h</text>
</a>
</g>
</g>
<!-- Node1&#45;&gt;Node2 -->
<g id="edge1" class="edge">
<title>Node1&#45;&gt;Node2</title>
<path fill="none" stroke="#63b8ff" d="M305.68,-111.59C280.87,-102.9 243.77,-89.89 216.03,-80.16"/>
<polygon fill="#63b8ff" stroke="#63b8ff" points="217.56,-76.99 206.96,-76.98 215.24,-83.59 217.56,-76.99"/>
</g>
<!-- Node7 -->
<g id="node7" class="node">
<title>Node7</title>
<g id="a_node7"><a xlink:title=" ">
<polygon fill="#e0e0e0" stroke="#999999" points="290.25,-76 236.75,-76 236.75,-56 290.25,-56 290.25,-76"/>
<text text-anchor="middle" x="263.5" y="-62.5" font-family="Helvetica,sans-Serif" font-size="10.00">iostream</text>
</a>
</g>
</g>
<!-- Node1&#45;&gt;Node7 -->
<g id="edge6" class="edge">
<title>Node1&#45;&gt;Node7</title>
<path fill="none" stroke="#63b8ff" d="M320.48,-111.59C310.49,-103.77 296.04,-92.46 284.19,-83.19"/>
<polygon fill="#63b8ff" stroke="#63b8ff" points="286.61,-80.64 276.57,-77.23 282.29,-86.15 286.61,-80.64"/>
</g>
<!-- Node8 -->
<g id="node8" class="node">
<title>Node8</title>
<g id="a_node8"><a xlink:title=" ">
<polygon fill="#e0e0e0" stroke="#999999" points="357,-76 308,-76 308,-56 357,-56 357,-76"/>
<text text-anchor="middle" x="332.5" y="-62.5" font-family="Helvetica,sans-Serif" font-size="10.00">fstream</text>
</a>
</g>
</g>
<!-- Node1&#45;&gt;Node8 -->
<g id="edge7" class="edge">
<title>Node1&#45;&gt;Node8</title>
<path fill="none" stroke="#63b8ff" d="M332.5,-111.59C332.5,-105.01 332.5,-95.96 332.5,-87.73"/>
<polygon fill="#63b8ff" stroke="#63b8ff" points="336,-87.81 332.5,-77.81 329,-87.81 336,-87.81"/>
</g>
<!-- Node9 -->
<g id="node9" class="node">
<title>Node9</title>
<g id="a_node9"><a xlink:title=" ">
<polygon fill="#e0e0e0" stroke="#999999" points="426.12,-76 374.88,-76 374.88,-56 426.12,-56 426.12,-76"/>
<text text-anchor="middle" x="400.5" y="-62.5" font-family="Helvetica,sans-Serif" font-size="10.00">sstream</text>
</a>
</g>
</g>
<!-- Node1&#45;&gt;Node9 -->
<g id="edge8" class="edge">
<title>Node1&#45;&gt;Node9</title>
<path fill="none" stroke="#63b8ff" d="M344.34,-111.59C354.19,-103.77 368.43,-92.46 380.11,-83.19"/>
<polygon fill="#63b8ff" stroke="#63b8ff" points="381.95,-86.2 387.61,-77.24 377.6,-80.72 381.95,-86.2"/>
</g>
<!-- Node10 -->
<g id="node10" class="node">
<title>Node10</title>
<g id="a_node10"><a xlink:title=" ">
<polygon fill="#e0e0e0" stroke="#999999" points="487,-76 444,-76 444,-56 487,-56 487,-76"/>
<text text-anchor="middle" x="465.5" y="-62.5" font-family="Helvetica,sans-Serif" font-size="10.00">vector</text>
</a>
</g>
</g>
<!-- Node1&#45;&gt;Node10 -->
<g id="edge9" class="edge">
<title>Node1&#45;&gt;Node10</title>
<path fill="none" stroke="#63b8ff" d="M355.67,-111.59C377.22,-102.84 409.54,-89.72 433.54,-79.97"/>
<polygon fill="#63b8ff" stroke="#63b8ff" points="434.57,-83.34 442.52,-76.33 431.93,-76.85 434.57,-83.34"/>
</g>
<!-- Node3 -->
<g id="node3" class="node">
<title>Node3</title>
<g id="a_node3"><a xlink:title=" ">
<polygon fill="#e0e0e0" stroke="#999999" points="103,-20 0,-20 0,0 103,0 103,-20"/>
<text text-anchor="middle" x="51.5" y="-6.5" font-family="Helvetica,sans-Serif" font-size="10.00">SFML/Graphics.hpp</text>
</a>
</g>
</g>
<!-- Node2&#45;&gt;Node3 -->
<g id="edge2" class="edge">
<title>Node2&#45;&gt;Node3</title>
<path fill="none" stroke="#63b8ff" d="M156.38,-55.59C136.47,-47.13 106.95,-34.58 84.29,-24.94"/>
<polygon fill="#63b8ff" stroke="#63b8ff" points="85.76,-21.76 75.19,-21.07 83.02,-28.21 85.76,-21.76"/>
</g>
<!-- Node4 -->
<g id="node4" class="node">
<title>Node4</title>
<g id="a_node4"><a xlink:title=" ">
<polygon fill="#e0e0e0" stroke="#999999" points="172.12,-20 120.88,-20 120.88,0 172.12,0 172.12,-20"/>
<text text-anchor="middle" x="146.5" y="-6.5" font-family="Helvetica,sans-Serif" font-size="10.00">memory</text>
</a>
</g>
</g>
<!-- Node2&#45;&gt;Node4 -->
<g id="edge3" class="edge">
<title>Node2&#45;&gt;Node4</title>
<path fill="none" stroke="#63b8ff" d="M172.93,-55.59C168.75,-48.55 162.9,-38.67 157.76,-30"/>
<polygon fill="#63b8ff" stroke="#63b8ff" points="160.89,-28.42 152.78,-21.6 154.87,-31.99 160.89,-28.42"/>
</g>
<!-- Node5 -->
<g id="node5" class="node">
<title>Node5</title>
<g id="a_node5"><a xlink:title=" ">
<polygon fill="#e0e0e0" stroke="#999999" points="230.5,-20 190.5,-20 190.5,0 230.5,0 230.5,-20"/>
<text text-anchor="middle" x="210.5" y="-6.5" font-family="Helvetica,sans-Serif" font-size="10.00">string</text>
</a>
</g>
</g>
<!-- Node2&#45;&gt;Node5 -->
<g id="edge4" class="edge">
<title>Node2&#45;&gt;Node5</title>
<path fill="none" stroke="#63b8ff" d="M184.07,-55.59C188.25,-48.55 194.1,-38.67 199.24,-30"/>
<polygon fill="#63b8ff" stroke="#63b8ff" points="202.13,-31.99 204.22,-21.6 196.11,-28.42 202.13,-31.99"/>
</g>
<!-- Node6 -->
<g id="node6" class="node">
<title>Node6</title>
<g id="a_node6"><a xlink:title=" ">
<polygon fill="#e0e0e0" stroke="#999999" points="282.88,-20 248.12,-20 248.12,0 282.88,0 282.88,-20"/>
<text text-anchor="middle" x="265.5" y="-6.5" font-family="Helvetica,sans-Serif" font-size="10.00">map</text>
</a>
</g>
</g>
<!-- Node2&#45;&gt;Node6 -->
<g id="edge5" class="edge">
<title>Node2&#45;&gt;Node6</title>
<path fill="none" stroke="#63b8ff" d="M193.65,-55.59C206.55,-47.59 225.33,-35.93 240.46,-26.54"/>
<polygon fill="#63b8ff" stroke="#63b8ff" points="242.29,-29.53 248.94,-21.28 238.6,-23.58 242.29,-29.53"/>
</g>
</g>
</svg>
