<?xml version="1.0" encoding="UTF-8" standalone="no"?>
<!DOCTYPE svg PUBLIC "-//W3C//DTD SVG 1.1//EN"
 "http://www.w3.org/Graphics/SVG/1.1/DTD/svg11.dtd">
<!-- Generated by graphviz version 12.2.1 (20241206.2353)
 -->
<!-- Title: src/core/GameEngine.h Pages: 1 -->
<svg width="291pt" height="84pt"
 viewBox="0.00 0.00 290.88 84.00" xmlns="http://www.w3.org/2000/svg" xmlns:xlink="http://www.w3.org/1999/xlink">
<g id="graph0" class="graph" transform="scale(1 1) rotate(0) translate(4 80)">
<title>src/core/GameEngine.h</title>
<!-- Node1 -->
<g id="node1" class="node">
<title>Node1</title>
<g id="a_node1"><a xlink:title=" ">
<polygon fill="#999999" stroke="#666666" points="237.88,-76 119.12,-76 119.12,-56 237.88,-56 237.88,-76"/>
<text text-anchor="middle" x="178.5" y="-62.5" font-family="Helvetica,sans-Serif" font-size="10.00">src/core/GameEngine.h</text>
</a>
</g>
</g>
<!-- Node2 -->
<g id="node2" class="node">
<title>Node2</title>
<g id="a_node2"><a xlink:title=" ">
<polygon fill="#e0e0e0" stroke="#999999" points="103,-20 0,-20 0,0 103,0 103,-20"/>
<text text-anchor="middle" x="51.5" y="-6.5" font-family="Helvetica,sans-Serif" font-size="10.00">SFML/Graphics.hpp</text>
</a>
</g>
</g>
<!-- Node1&#45;&gt;Node2 -->
<g id="edge1" class="edge">
<title>Node1&#45;&gt;Node2</title>
<path fill="none" stroke="#63b8ff" d="M156.38,-55.59C136.47,-47.13 106.95,-34.58 84.29,-24.94"/>
<polygon fill="#63b8ff" stroke="#63b8ff" points="85.76,-21.76 75.19,-21.07 83.02,-28.21 85.76,-21.76"/>
</g>
<!-- Node3 -->
<g id="node3" class="node">
<title>Node3</title>
<g id="a_node3"><a xlink:title=" ">
<polygon fill="#e0e0e0" stroke="#999999" points="172.12,-20 120.88,-20 120.88,0 172.12,0 172.12,-20"/>
<text text-anchor="middle" x="146.5" y="-6.5" font-family="Helvetica,sans-Serif" font-size="10.00">memory</text>
</a>
</g>
</g>
<!-- Node1&#45;&gt;Node3 -->
<g id="edge2" class="edge">
<title>Node1&#45;&gt;Node3</title>
<path fill="none" stroke="#63b8ff" d="M172.93,-55.59C168.75,-48.55 162.9,-38.67 157.76,-30"/>
<polygon fill="#63b8ff" stroke="#63b8ff" points="160.89,-28.42 152.78,-21.6 154.87,-31.99 160.89,-28.42"/>
</g>
<!-- Node4 -->
<g id="node4" class="node">
<title>Node4</title>
<g id="a_node4"><a xlink:title=" ">
<polygon fill="#e0e0e0" stroke="#999999" points="230.5,-20 190.5,-20 190.5,0 230.5,0 230.5,-20"/>
<text text-anchor="middle" x="210.5" y="-6.5" font-family="Helvetica,sans-Serif" font-size="10.00">string</text>
</a>
</g>
</g>
<!-- Node1&#45;&gt;Node4 -->
<g id="edge3" class="edge">
<title>Node1&#45;&gt;Node4</title>
<path fill="none" stroke="#63b8ff" d="M184.07,-55.59C188.25,-48.55 194.1,-38.67 199.24,-30"/>
<polygon fill="#63b8ff" stroke="#63b8ff" points="202.13,-31.99 204.22,-21.6 196.11,-28.42 202.13,-31.99"/>
</g>
<!-- Node5 -->
<g id="node5" class="node">
<title>Node5</title>
<g id="a_node5"><a xlink:title=" ">
<polygon fill="#e0e0e0" stroke="#999999" points="282.88,-20 248.12,-20 248.12,0 282.88,0 282.88,-20"/>
<text text-anchor="middle" x="265.5" y="-6.5" font-family="Helvetica,sans-Serif" font-size="10.00">map</text>
</a>
</g>
</g>
<!-- Node1&#45;&gt;Node5 -->
<g id="edge4" class="edge">
<title>Node1&#45;&gt;Node5</title>
<path fill="none" stroke="#63b8ff" d="M193.65,-55.59C206.55,-47.59 225.33,-35.93 240.46,-26.54"/>
<polygon fill="#63b8ff" stroke="#63b8ff" points="242.29,-29.53 248.94,-21.28 238.6,-23.58 242.29,-29.53"/>
</g>
</g>
</svg>
