<?xml version="1.0" encoding="UTF-8" standalone="no"?>
<!DOCTYPE svg PUBLIC "-//W3C//DTD SVG 1.1//EN"
 "http://www.w3.org/Graphics/SVG/1.1/DTD/svg11.dtd">
<!-- Generated by graphviz version 12.2.1 (20241206.2353)
 -->
<!-- Title: src/core/GameEngine.h Pages: 1 -->
<svg width="1142pt" height="252pt"
 viewBox="0.00 0.00 1142.25 252.00" xmlns="http://www.w3.org/2000/svg" xmlns:xlink="http://www.w3.org/1999/xlink">
<g id="graph0" class="graph" transform="scale(1 1) rotate(0) translate(4 248)">
<title>src/core/GameEngine.h</title>
<!-- Node1 -->
<g id="node1" class="node">
<title>Node1</title>
<g id="a_node1"><a xlink:title=" ">
<polygon fill="#999999" stroke="#666666" points="611,-244 492.25,-244 492.25,-224 611,-224 611,-244"/>
<text text-anchor="middle" x="551.62" y="-230.5" font-family="Helvetica,sans-Serif" font-size="10.00">src/core/GameEngine.h</text>
</a>
</g>
</g>
<!-- Node2 -->
<g id="node2" class="node">
<title>Node2</title>
<g id="a_node2"><a xlink:href="GameEngine_8cpp.html" target="_top" xlink:title=" ">
<polygon fill="white" stroke="#666666" points="129.25,-188 0,-188 0,-168 129.25,-168 129.25,-188"/>
<text text-anchor="middle" x="64.62" y="-174.5" font-family="Helvetica,sans-Serif" font-size="10.00">src/core/GameEngine.cpp</text>
</a>
</g>
</g>
<!-- Node1&#45;&gt;Node2 -->
<g id="edge1" class="edge">
<title>Node1&#45;&gt;Node2</title>
<path fill="none" stroke="#63b8ff" d="M480.71,-225.26C399.32,-216.35 261.82,-201.25 143.62,-188 139.1,-187.49 134.43,-186.97 129.72,-186.43"/>
<polygon fill="#63b8ff" stroke="#63b8ff" points="479.99,-228.7 490.31,-226.31 480.75,-221.74 479.99,-228.7"/>
</g>
<!-- Node3 -->
<g id="node3" class="node">
<title>Node3</title>
<g id="a_node3"><a xlink:href="Scene_8cpp.html" target="_top" xlink:title=" ">
<polygon fill="white" stroke="#666666" points="337.38,-132 223.88,-132 223.88,-112 337.38,-112 337.38,-132"/>
<text text-anchor="middle" x="280.62" y="-118.5" font-family="Helvetica,sans-Serif" font-size="10.00">src/scenes/Scene.cpp</text>
</a>
</g>
</g>
<!-- Node1&#45;&gt;Node3 -->
<g id="edge2" class="edge">
<title>Node1&#45;&gt;Node3</title>
<path fill="none" stroke="#63b8ff" d="M518.12,-219.4C462.29,-196.74 351.62,-151.82 303.67,-132.35"/>
<polygon fill="#63b8ff" stroke="#63b8ff" points="516.54,-222.53 527.12,-223.05 519.17,-216.05 516.54,-222.53"/>
</g>
<!-- Node4 -->
<g id="node4" class="node">
<title>Node4</title>
<g id="a_node4"><a xlink:href="Scene_8h.html" target="_top" xlink:title=" ">
<polygon fill="white" stroke="#666666" points="683.12,-188 580.12,-188 580.12,-168 683.12,-168 683.12,-188"/>
<text text-anchor="middle" x="631.62" y="-174.5" font-family="Helvetica,sans-Serif" font-size="10.00">src/scenes/Scene.h</text>
</a>
</g>
</g>
<!-- Node1&#45;&gt;Node4 -->
<g id="edge3" class="edge">
<title>Node1&#45;&gt;Node4</title>
<path fill="none" stroke="#63b8ff" d="M574.93,-217.27C588.75,-207.94 605.81,-196.43 617.58,-188.48"/>
<polygon fill="#63b8ff" stroke="#63b8ff" points="573.14,-214.25 566.81,-222.75 577.06,-220.05 573.14,-214.25"/>
</g>
<!-- Node6 -->
<g id="node6" class="node">
<title>Node6</title>
<g id="a_node6"><a xlink:href="SceneApprenticeship_8cpp.html" target="_top" xlink:title=" ">
<polygon fill="white" stroke="#666666" points="392.62,-76 214.62,-76 214.62,-56 392.62,-56 392.62,-76"/>
<text text-anchor="middle" x="303.62" y="-62.5" font-family="Helvetica,sans-Serif" font-size="10.00">src/scenes/SceneApprenticeship.cpp</text>
</a>
</g>
</g>
<!-- Node1&#45;&gt;Node6 -->
<g id="edge22" class="edge">
<title>Node1&#45;&gt;Node6</title>
<path fill="none" stroke="#63b8ff" d="M480.86,-221.98C391.62,-206.47 246.02,-175.16 214.62,-132 196.22,-106.7 237.63,-87.2 269.96,-76.42"/>
<polygon fill="#63b8ff" stroke="#63b8ff" points="480.05,-225.4 490.49,-223.63 481.23,-218.5 480.05,-225.4"/>
</g>
<!-- Node7 -->
<g id="node7" class="node">
<title>Node7</title>
<g id="a_node7"><a xlink:href="SceneMenu_8cpp.html" target="_top" xlink:title=" ">
<polygon fill="white" stroke="#666666" points="562.38,-20 424.88,-20 424.88,0 562.38,0 562.38,-20"/>
<text text-anchor="middle" x="493.62" y="-6.5" font-family="Helvetica,sans-Serif" font-size="10.00">src/scenes/SceneMenu.cpp</text>
</a>
</g>
</g>
<!-- Node1&#45;&gt;Node7 -->
<g id="edge25" class="edge">
<title>Node1&#45;&gt;Node7</title>
<path fill="none" stroke="#63b8ff" d="M480.38,-232.64C421.11,-229.83 335.86,-219.83 268.62,-188 234.77,-171.97 220.97,-166.18 205.62,-132 191.79,-101.19 183.66,-81.66 205.62,-56 233.23,-23.75 348.32,-14.44 424.39,-11.86"/>
<polygon fill="#63b8ff" stroke="#63b8ff" points="480.23,-236.14 490.36,-233.05 480.52,-229.14 480.23,-236.14"/>
</g>
<!-- Node8 -->
<g id="node8" class="node">
<title>Node8</title>
<g id="a_node8"><a xlink:href="SceneMenu_8h.html" target="_top" xlink:title=" ">
<polygon fill="white" stroke="#666666" points="610.12,-76 483.12,-76 483.12,-56 610.12,-56 610.12,-76"/>
<text text-anchor="middle" x="546.62" y="-62.5" font-family="Helvetica,sans-Serif" font-size="10.00">src/scenes/SceneMenu.h</text>
</a>
</g>
</g>
<!-- Node1&#45;&gt;Node8 -->
<g id="edge26" class="edge">
<title>Node1&#45;&gt;Node8</title>
<path fill="none" stroke="#63b8ff" d="M551.01,-212.5C549.92,-176.27 547.69,-102.31 546.91,-76.3"/>
<polygon fill="#63b8ff" stroke="#63b8ff" points="547.5,-212.2 551.3,-222.09 554.49,-211.99 547.5,-212.2"/>
</g>
<!-- Node9 -->
<g id="node9" class="node">
<title>Node9</title>
<g id="a_node9"><a xlink:href="SceneCombat_8h.html" target="_top" xlink:title=" ">
<polygon fill="white" stroke="#666666" points="957.38,-132 819.88,-132 819.88,-112 957.38,-112 957.38,-132"/>
<text text-anchor="middle" x="888.62" y="-118.5" font-family="Helvetica,sans-Serif" font-size="10.00">src/scenes/SceneCombat.h</text>
</a>
</g>
</g>
<!-- Node1&#45;&gt;Node9 -->
<g id="edge23" class="edge">
<title>Node1&#45;&gt;Node9</title>
<path fill="none" stroke="#63b8ff" d="M602.87,-220.72C634.36,-212.62 675.3,-201.12 710.62,-188 730.38,-180.66 734.04,-175.79 753.62,-168 788.4,-154.17 829.3,-140.95 856.89,-132.46"/>
<polygon fill="#63b8ff" stroke="#63b8ff" points="602.02,-217.32 593.19,-223.17 603.74,-224.11 602.02,-217.32"/>
</g>
<!-- Node13 -->
<g id="node13" class="node">
<title>Node13</title>
<g id="a_node13"><a xlink:href="SceneEspionage_8h.html" target="_top" xlink:title=" ">
<polygon fill="white" stroke="#666666" points="1124,-132 975.25,-132 975.25,-112 1124,-112 1124,-132"/>
<text text-anchor="middle" x="1049.62" y="-118.5" font-family="Helvetica,sans-Serif" font-size="10.00">src/scenes/SceneEspionage.h</text>
</a>
</g>
</g>
<!-- Node1&#45;&gt;Node13 -->
<g id="edge24" class="edge">
<title>Node1&#45;&gt;Node13</title>
<path fill="none" stroke="#63b8ff" d="M619.49,-221.44C657.51,-213.96 705.41,-202.82 746.62,-188 765.33,-181.27 767.74,-174.19 786.62,-168 821.73,-156.5 915.19,-141.86 980.65,-132.46"/>
<polygon fill="#63b8ff" stroke="#63b8ff" points="619.18,-217.94 610.02,-223.27 620.5,-224.81 619.18,-217.94"/>
</g>
<!-- Node16 -->
<g id="node16" class="node">
<title>Node16</title>
<g id="a_node16"><a xlink:href="engineTest_8cpp.html" target="_top" xlink:title=" ">
<polygon fill="white" stroke="#666666" points="897.38,-188 795.88,-188 795.88,-168 897.38,-168 897.38,-188"/>
<text text-anchor="middle" x="846.62" y="-174.5" font-family="Helvetica,sans-Serif" font-size="10.00">test/engineTest.cpp</text>
</a>
</g>
</g>
<!-- Node1&#45;&gt;Node16 -->
<g id="edge27" class="edge">
<title>Node1&#45;&gt;Node16</title>
<path fill="none" stroke="#63b8ff" d="M614.49,-221.49C668.44,-211.62 745.2,-197.57 795.46,-188.37"/>
<polygon fill="#63b8ff" stroke="#63b8ff" points="614.04,-218.02 604.84,-223.26 615.3,-224.9 614.04,-218.02"/>
</g>
<!-- Node4&#45;&gt;Node3 -->
<g id="edge4" class="edge">
<title>Node4&#45;&gt;Node3</title>
<path fill="none" stroke="#63b8ff" d="M568.82,-167.34C503.14,-157.23 400.98,-141.52 337.58,-131.76"/>
<polygon fill="#63b8ff" stroke="#63b8ff" points="567.92,-170.74 578.34,-168.8 568.99,-163.82 567.92,-170.74"/>
</g>
<!-- Node4&#45;&gt;Node4 -->
<g id="edge5" class="edge">
<title>Node4&#45;&gt;Node4</title>
<path fill="none" stroke="#63b8ff" d="M694.6,-185.45C698.67,-183.71 701.12,-181.22 701.12,-178 701.12,-172.42 693.77,-169.07 683.45,-167.93"/>
<polygon fill="#63b8ff" stroke="#63b8ff" points="693.86,-182.02 684.93,-187.72 695.46,-188.84 693.86,-182.02"/>
</g>
<!-- Node5 -->
<g id="node5" class="node">
<title>Node5</title>
<g id="a_node5"><a xlink:href="SceneApprenticeship_8h.html" target="_top" xlink:title=" ">
<polygon fill="white" stroke="#666666" points="523.38,-132 355.88,-132 355.88,-112 523.38,-112 523.38,-132"/>
<text text-anchor="middle" x="439.62" y="-118.5" font-family="Helvetica,sans-Serif" font-size="10.00">src/scenes/SceneApprenticeship.h</text>
</a>
</g>
</g>
<!-- Node4&#45;&gt;Node5 -->
<g id="edge6" class="edge">
<title>Node4&#45;&gt;Node5</title>
<path fill="none" stroke="#63b8ff" d="M587.39,-164.56C552.66,-154.79 505.02,-141.39 473.33,-132.48"/>
<polygon fill="#63b8ff" stroke="#63b8ff" points="586.15,-167.85 596.72,-167.18 588.05,-161.11 586.15,-167.85"/>
</g>
<!-- Node4&#45;&gt;Node8 -->
<g id="edge20" class="edge">
<title>Node4&#45;&gt;Node8</title>
<path fill="none" stroke="#63b8ff" d="M617.39,-158.58C599.06,-134.86 567.89,-94.52 553.85,-76.35"/>
<polygon fill="#63b8ff" stroke="#63b8ff" points="614.57,-160.65 623.45,-166.42 620.11,-156.37 614.57,-160.65"/>
</g>
<!-- Node4&#45;&gt;Node9 -->
<g id="edge11" class="edge">
<title>Node4&#45;&gt;Node9</title>
<path fill="none" stroke="#63b8ff" d="M687.84,-165.19C734.6,-155.36 800.28,-141.56 843.62,-132.46"/>
<polygon fill="#63b8ff" stroke="#63b8ff" points="687.23,-161.74 678.17,-167.22 688.67,-168.59 687.23,-161.74"/>
</g>
<!-- Node11 -->
<g id="node11" class="node">
<title>Node11</title>
<g id="a_node11"><a xlink:href="SceneMain_8h.html" target="_top" xlink:title=" ">
<polygon fill="white" stroke="#666666" points="757.62,-76 633.62,-76 633.62,-56 757.62,-56 757.62,-76"/>
<text text-anchor="middle" x="695.62" y="-62.5" font-family="Helvetica,sans-Serif" font-size="10.00">src/scenes/SceneMain.h</text>
</a>
</g>
</g>
<!-- Node4&#45;&gt;Node11 -->
<g id="edge19" class="edge">
<title>Node4&#45;&gt;Node11</title>
<path fill="none" stroke="#63b8ff" d="M633.24,-156.19C635.02,-142.82 638.76,-125.5 646.62,-112 655.23,-97.23 670.26,-84.5 681.41,-76.38"/>
<polygon fill="#63b8ff" stroke="#63b8ff" points="629.77,-155.72 632.22,-166.03 636.73,-156.44 629.77,-155.72"/>
</g>
<!-- Node4&#45;&gt;Node13 -->
<g id="edge16" class="edge">
<title>Node4&#45;&gt;Node13</title>
<path fill="none" stroke="#63b8ff" d="M694.51,-168.88C770.01,-159.12 896.42,-142.79 976.29,-132.47"/>
<polygon fill="#63b8ff" stroke="#63b8ff" points="694.27,-165.38 684.8,-170.13 695.17,-172.32 694.27,-165.38"/>
</g>
<!-- Node15 -->
<g id="node15" class="node">
<title>Node15</title>
<g id="a_node15"><a xlink:href="dummyScene_8cpp.html" target="_top" xlink:title=" ">
<polygon fill="white" stroke="#666666" points="801.5,-132 655.75,-132 655.75,-112 801.5,-112 801.5,-132"/>
<text text-anchor="middle" x="728.62" y="-118.5" font-family="Helvetica,sans-Serif" font-size="10.00">src/scenes/dummyScene.cpp</text>
</a>
</g>
</g>
<!-- Node4&#45;&gt;Node15 -->
<g id="edge21" class="edge">
<title>Node4&#45;&gt;Node15</title>
<path fill="none" stroke="#63b8ff" d="M658.43,-162.08C675.42,-152.62 696.9,-140.66 711.6,-132.48"/>
<polygon fill="#63b8ff" stroke="#63b8ff" points="656.88,-158.94 649.84,-166.86 660.28,-165.05 656.88,-158.94"/>
</g>
<!-- Node5&#45;&gt;Node6 -->
<g id="edge7" class="edge">
<title>Node5&#45;&gt;Node6</title>
<path fill="none" stroke="#63b8ff" d="M405.38,-107.4C381.08,-97.75 349.07,-85.05 327.5,-76.48"/>
<polygon fill="#63b8ff" stroke="#63b8ff" points="403.94,-110.6 414.53,-111.04 406.53,-104.09 403.94,-110.6"/>
</g>
<!-- Node5&#45;&gt;Node7 -->
<g id="edge8" class="edge">
<title>Node5&#45;&gt;Node7</title>
<path fill="none" stroke="#63b8ff" d="M449.3,-101.3C461.02,-77.43 480.27,-38.2 489.03,-20.35"/>
<polygon fill="#63b8ff" stroke="#63b8ff" points="446.16,-99.74 444.9,-110.26 452.44,-102.83 446.16,-99.74"/>
</g>
<!-- Node5&#45;&gt;Node8 -->
<g id="edge9" class="edge">
<title>Node5&#45;&gt;Node8</title>
<path fill="none" stroke="#63b8ff" d="M468.4,-106.48C487.27,-96.96 511.4,-84.78 527.84,-76.48"/>
<polygon fill="#63b8ff" stroke="#63b8ff" points="466.96,-103.28 459.61,-110.91 470.12,-109.53 466.96,-103.28"/>
</g>
<!-- Node8&#45;&gt;Node7 -->
<g id="edge10" class="edge">
<title>Node8&#45;&gt;Node7</title>
<path fill="none" stroke="#63b8ff" d="M529.51,-47.57C520.61,-38.5 510.09,-27.78 502.75,-20.3"/>
<polygon fill="#63b8ff" stroke="#63b8ff" points="526.83,-49.83 536.33,-54.51 531.83,-44.93 526.83,-49.83"/>
</g>
<!-- Node10 -->
<g id="node10" class="node">
<title>Node10</title>
<g id="a_node10"><a xlink:href="SceneCombat_8cpp.html" target="_top" xlink:title=" ">
<polygon fill="white" stroke="#666666" points="956.62,-76 808.62,-76 808.62,-56 956.62,-56 956.62,-76"/>
<text text-anchor="middle" x="882.62" y="-62.5" font-family="Helvetica,sans-Serif" font-size="10.00">src/scenes/SceneCombat.cpp</text>
</a>
</g>
</g>
<!-- Node9&#45;&gt;Node10 -->
<g id="edge12" class="edge">
<title>Node9&#45;&gt;Node10</title>
<path fill="none" stroke="#63b8ff" d="M886.34,-100.43C885.41,-92.11 884.4,-82.93 883.66,-76.3"/>
<polygon fill="#63b8ff" stroke="#63b8ff" points="882.83,-100.54 887.41,-110.09 889.79,-99.76 882.83,-100.54"/>
</g>
<!-- Node9&#45;&gt;Node11 -->
<g id="edge13" class="edge">
<title>Node9&#45;&gt;Node11</title>
<path fill="none" stroke="#63b8ff" d="M844.16,-108.56C809.25,-98.79 761.36,-85.39 729.51,-76.48"/>
<polygon fill="#63b8ff" stroke="#63b8ff" points="842.98,-111.86 853.55,-111.19 844.86,-105.12 842.98,-111.86"/>
</g>
<!-- Node11&#45;&gt;Node7 -->
<g id="edge15" class="edge">
<title>Node11&#45;&gt;Node7</title>
<path fill="none" stroke="#63b8ff" d="M649.56,-52.69C612.98,-42.91 562.57,-29.43 529.09,-20.48"/>
<polygon fill="#63b8ff" stroke="#63b8ff" points="648.41,-56 658.98,-55.2 650.22,-49.24 648.41,-56"/>
</g>
<!-- Node12 -->
<g id="node12" class="node">
<title>Node12</title>
<g id="a_node12"><a xlink:href="SceneMain_8cpp.html" target="_top" xlink:title=" ">
<polygon fill="white" stroke="#666666" points="762.88,-20 628.38,-20 628.38,0 762.88,0 762.88,-20"/>
<text text-anchor="middle" x="695.62" y="-6.5" font-family="Helvetica,sans-Serif" font-size="10.00">src/scenes/SceneMain.cpp</text>
</a>
</g>
</g>
<!-- Node11&#45;&gt;Node12 -->
<g id="edge14" class="edge">
<title>Node11&#45;&gt;Node12</title>
<path fill="none" stroke="#63b8ff" d="M695.62,-44.13C695.62,-35.9 695.62,-26.85 695.62,-20.3"/>
<polygon fill="#63b8ff" stroke="#63b8ff" points="692.13,-44.08 695.63,-54.08 699.13,-44.08 692.13,-44.08"/>
</g>
<!-- Node13&#45;&gt;Node11 -->
<g id="edge18" class="edge">
<title>Node13&#45;&gt;Node11</title>
<path fill="none" stroke="#63b8ff" d="M976.24,-109.81C911.63,-99.95 818.58,-85.76 757.62,-76.46"/>
<polygon fill="#63b8ff" stroke="#63b8ff" points="975.65,-113.26 986.06,-111.3 976.7,-106.34 975.65,-113.26"/>
</g>
<!-- Node14 -->
<g id="node14" class="node">
<title>Node14</title>
<g id="a_node14"><a xlink:href="SceneEspionage_8cpp.html" target="_top" xlink:title=" ">
<polygon fill="white" stroke="#666666" points="1134.25,-76 975,-76 975,-56 1134.25,-56 1134.25,-76"/>
<text text-anchor="middle" x="1054.62" y="-62.5" font-family="Helvetica,sans-Serif" font-size="10.00">src/scenes/SceneEspionage.cpp</text>
</a>
</g>
</g>
<!-- Node13&#45;&gt;Node14 -->
<g id="edge17" class="edge">
<title>Node13&#45;&gt;Node14</title>
<path fill="none" stroke="#63b8ff" d="M1051.56,-100.13C1052.32,-91.9 1053.16,-82.85 1053.76,-76.3"/>
<polygon fill="#63b8ff" stroke="#63b8ff" points="1048.07,-99.81 1050.64,-110.09 1055.04,-100.45 1048.07,-99.81"/>
</g>
</g>
</svg>
