<?xml version="1.0" encoding="UTF-8" standalone="no"?>
<!DOCTYPE svg PUBLIC "-//W3C//DTD SVG 1.1//EN"
 "http://www.w3.org/Graphics/SVG/1.1/DTD/svg11.dtd">
<!-- Generated by graphviz version 12.2.1 (20241206.2353)
 -->
<!-- Title: main Pages: 1 -->
<svg width="240pt" height="180pt"
 viewBox="0.00 0.00 240.25 180.00" xmlns="http://www.w3.org/2000/svg" xmlns:xlink="http://www.w3.org/1999/xlink">
<g id="graph0" class="graph" transform="scale(1 1) rotate(0) translate(4 176)">
<title>main</title>
<!-- Node1 -->
<g id="node1" class="node">
<title>Node1</title>
<g id="a_node1"><a xlink:title=" ">
<polygon fill="#999999" stroke="#666666" points="37,-96 0,-96 0,-76 37,-76 37,-96"/>
<text text-anchor="middle" x="18.5" y="-82.5" font-family="Helvetica,sans-Serif" font-size="10.00">main</text>
</a>
</g>
</g>
<!-- Node2 -->
<g id="node2" class="node">
<title>Node2</title>
<g id="a_node2"><a xlink:href="classGrammar.html#adbcd969a78c5b51b65003f287eef0ac3" target="_top" xlink:title=" ">
<polygon fill="white" stroke="#666666" points="224.75,-172 80.5,-172 80.5,-152 224.75,-152 224.75,-172"/>
<text text-anchor="middle" x="152.62" y="-158.5" font-family="Helvetica,sans-Serif" font-size="10.00">Grammar::getLanguageName</text>
</a>
</g>
</g>
<!-- Node1&#45;&gt;Node2 -->
<g id="edge1" class="edge">
<title>Node1&#45;&gt;Node2</title>
<path fill="none" stroke="#63b8ff" d="M26.17,-96.14C35.21,-109.06 52.59,-131.12 73,-143 75.79,-144.62 78.71,-146.11 81.72,-147.46"/>
<polygon fill="#63b8ff" stroke="#63b8ff" points="80.21,-150.63 90.8,-151.05 82.78,-144.12 80.21,-150.63"/>
</g>
<!-- Node3 -->
<g id="node3" class="node">
<title>Node3</title>
<g id="a_node3"><a xlink:href="classBicolGrammar.html#a31349a4aa44e9372fe2cdd377032d142" target="_top" xlink:title=" ">
<polygon fill="white" stroke="#666666" points="222.12,-134 83.12,-134 83.12,-114 222.12,-114 222.12,-134"/>
<text text-anchor="middle" x="152.62" y="-120.5" font-family="Helvetica,sans-Serif" font-size="10.00">BicolGrammar::printAspects</text>
</a>
</g>
</g>
<!-- Node1&#45;&gt;Node3 -->
<g id="edge2" class="edge">
<title>Node1&#45;&gt;Node3</title>
<path fill="none" stroke="#63b8ff" d="M37.18,-92.8C47.53,-96.65 60.91,-101.4 73,-105 79.71,-107 86.79,-108.94 93.85,-110.77"/>
<polygon fill="#63b8ff" stroke="#63b8ff" points="92.83,-114.12 103.38,-113.17 94.54,-107.33 92.83,-114.12"/>
</g>
<!-- Node4 -->
<g id="node4" class="node">
<title>Node4</title>
<g id="a_node4"><a xlink:href="classBicolGrammar.html#ab8e8215f03164b3b4b18a05737316194" target="_top" xlink:title=" ">
<polygon fill="white" stroke="#666666" points="218.38,-96 86.88,-96 86.88,-76 218.38,-76 218.38,-96"/>
<text text-anchor="middle" x="152.62" y="-82.5" font-family="Helvetica,sans-Serif" font-size="10.00">BicolGrammar::printCases</text>
</a>
</g>
</g>
<!-- Node1&#45;&gt;Node4 -->
<g id="edge3" class="edge">
<title>Node1&#45;&gt;Node4</title>
<path fill="none" stroke="#63b8ff" d="M37.32,-86C47.49,-86 61.02,-86 75.2,-86"/>
<polygon fill="#63b8ff" stroke="#63b8ff" points="75.14,-89.5 85.14,-86 75.14,-82.5 75.14,-89.5"/>
</g>
<!-- Node5 -->
<g id="node5" class="node">
<title>Node5</title>
<g id="a_node5"><a xlink:href="classBicolGrammar.html#ae29c4997208f38a07589770ad9c7e96f" target="_top" xlink:title=" ">
<polygon fill="white" stroke="#666666" points="232.25,-58 73,-58 73,-38 232.25,-38 232.25,-58"/>
<text text-anchor="middle" x="152.62" y="-44.5" font-family="Helvetica,sans-Serif" font-size="10.00">BicolGrammar::printNomMarkers</text>
</a>
</g>
</g>
<!-- Node1&#45;&gt;Node5 -->
<g id="edge4" class="edge">
<title>Node1&#45;&gt;Node5</title>
<path fill="none" stroke="#63b8ff" d="M37.18,-79.2C47.53,-75.35 60.91,-70.6 73,-67 79.71,-65 86.79,-63.06 93.85,-61.23"/>
<polygon fill="#63b8ff" stroke="#63b8ff" points="94.54,-64.67 103.38,-58.83 92.83,-57.88 94.54,-64.67"/>
</g>
<!-- Node6 -->
<g id="node6" class="node">
<title>Node6</title>
<g id="a_node6"><a xlink:href="classBicolGrammar.html#ae1816d4a0f7621180f9303dfbc6014f2" target="_top" xlink:title=" ">
<polygon fill="white" stroke="#666666" points="219.12,-20 86.12,-20 86.12,0 219.12,0 219.12,-20"/>
<text text-anchor="middle" x="152.62" y="-6.5" font-family="Helvetica,sans-Serif" font-size="10.00">BicolGrammar::printVoices</text>
</a>
</g>
</g>
<!-- Node1&#45;&gt;Node6 -->
<g id="edge5" class="edge">
<title>Node1&#45;&gt;Node6</title>
<path fill="none" stroke="#63b8ff" d="M26.17,-75.86C35.21,-62.94 52.59,-40.88 73,-29 75.79,-27.38 78.71,-25.89 81.72,-24.54"/>
<polygon fill="#63b8ff" stroke="#63b8ff" points="82.78,-27.88 90.8,-20.95 80.21,-21.37 82.78,-27.88"/>
</g>
</g>
</svg>
