<?xml version="1.0" encoding="UTF-8" standalone="no"?>
<!DOCTYPE svg PUBLIC "-//W3C//DTD SVG 1.1//EN"
 "http://www.w3.org/Graphics/SVG/1.1/DTD/svg11.dtd">
<!-- Generated by graphviz version 12.2.1 (20241206.2353)
 -->
<!-- Title: src/languages/Grammar.h Pages: 1 -->
<svg width="212pt" height="140pt"
 viewBox="0.00 0.00 212.25 140.00" xmlns="http://www.w3.org/2000/svg" xmlns:xlink="http://www.w3.org/1999/xlink">
<g id="graph0" class="graph" transform="scale(1 1) rotate(0) translate(4 136)">
<title>src/languages/Grammar.h</title>
<!-- Node1 -->
<g id="node1" class="node">
<title>Node1</title>
<g id="a_node1"><a xlink:title=" ">
<polygon fill="#999999" stroke="#666666" points="155,-132 27.25,-132 27.25,-112 155,-112 155,-132"/>
<text text-anchor="middle" x="91.12" y="-118.5" font-family="Helvetica,sans-Serif" font-size="10.00">src/languages/Grammar.h</text>
</a>
</g>
</g>
<!-- Node2 -->
<g id="node2" class="node">
<title>Node2</title>
<g id="a_node2"><a xlink:href="GrammarBicol_8h.html" target="_top" xlink:title=" ">
<polygon fill="white" stroke="#666666" points="166.25,-76 16,-76 16,-56 166.25,-56 166.25,-76"/>
<text text-anchor="middle" x="91.12" y="-62.5" font-family="Helvetica,sans-Serif" font-size="10.00">src/languages/GrammarBicol.h</text>
</a>
</g>
</g>
<!-- Node1&#45;&gt;Node2 -->
<g id="edge1" class="edge">
<title>Node1&#45;&gt;Node2</title>
<path fill="none" stroke="#63b8ff" d="M91.12,-100.13C91.12,-91.9 91.12,-82.85 91.12,-76.3"/>
<polygon fill="#63b8ff" stroke="#63b8ff" points="87.63,-100.08 91.13,-110.08 94.63,-100.08 87.63,-100.08"/>
</g>
<!-- Node3 -->
<g id="node3" class="node">
<title>Node3</title>
<g id="a_node3"><a xlink:href="main_8cpp.html" target="_top" xlink:title=" ">
<polygon fill="white" stroke="#666666" points="72.25,-20 0,-20 0,0 72.25,0 72.25,-20"/>
<text text-anchor="middle" x="36.12" y="-6.5" font-family="Helvetica,sans-Serif" font-size="10.00">src/main.cpp</text>
</a>
</g>
</g>
<!-- Node2&#45;&gt;Node3 -->
<g id="edge2" class="edge">
<title>Node2&#45;&gt;Node3</title>
<path fill="none" stroke="#63b8ff" d="M73.37,-47.57C64.13,-38.5 53.21,-27.78 45.6,-20.3"/>
<polygon fill="#63b8ff" stroke="#63b8ff" points="70.88,-50.03 80.46,-54.53 75.78,-45.03 70.88,-50.03"/>
</g>
<!-- Node4 -->
<g id="node4" class="node">
<title>Node4</title>
<g id="a_node4"><a xlink:href="grammarBicol_8cpp.html" target="_top" xlink:title=" ">
<polygon fill="white" stroke="#666666" points="204.25,-20 90,-20 90,0 204.25,0 204.25,-20"/>
<text text-anchor="middle" x="147.12" y="-6.5" font-family="Helvetica,sans-Serif" font-size="10.00">test/grammarBicol.cpp</text>
</a>
</g>
</g>
<!-- Node2&#45;&gt;Node4 -->
<g id="edge3" class="edge">
<title>Node2&#45;&gt;Node4</title>
<path fill="none" stroke="#63b8ff" d="M108.91,-47.85C118.38,-38.72 129.65,-27.86 137.48,-20.3"/>
<polygon fill="#63b8ff" stroke="#63b8ff" points="106.74,-45.08 101.97,-54.54 111.6,-50.12 106.74,-45.08"/>
</g>
</g>
</svg>
