<?xml version="1.0" encoding="UTF-8" standalone="no"?>
<!DOCTYPE svg PUBLIC "-//W3C//DTD SVG 1.1//EN"
 "http://www.w3.org/Graphics/SVG/1.1/DTD/svg11.dtd">
<!-- Generated by graphviz version 12.2.1 (20241206.2353)
 -->
<!-- Title: test/grammarBicol.cpp Pages: 1 -->
<svg width="248pt" height="208pt"
 viewBox="0.00 0.00 247.75 208.00" xmlns="http://www.w3.org/2000/svg" xmlns:xlink="http://www.w3.org/1999/xlink">
<g id="graph0" class="graph" transform="scale(1 1) rotate(0) translate(4 204)">
<title>test/grammarBicol.cpp</title>
<!-- Node1 -->
<g id="node1" class="node">
<title>Node1</title>
<g id="a_node1"><a xlink:title=" ">
<polygon fill="#999999" stroke="#666666" points="232.12,-200 117.88,-200 117.88,-180 232.12,-180 232.12,-200"/>
<text text-anchor="middle" x="175" y="-186.5" font-family="Helvetica,sans-Serif" font-size="10.00">test/grammarBicol.cpp</text>
</a>
</g>
</g>
<!-- Node2 -->
<g id="node2" class="node">
<title>Node2</title>
<g id="a_node2"><a xlink:href="GrammarBicol_8h.html" target="_top" xlink:title=" ">
<polygon fill="white" stroke="#666666" points="193.62,-144 64.38,-144 64.38,-112 193.62,-112 193.62,-144"/>
<text text-anchor="start" x="72.38" y="-130.5" font-family="Helvetica,sans-Serif" font-size="10.00">../src/languages/Grammar</text>
<text text-anchor="middle" x="129" y="-118.5" font-family="Helvetica,sans-Serif" font-size="10.00">Bicol.h</text>
</a>
</g>
</g>
<!-- Node1&#45;&gt;Node2 -->
<g id="edge1" class="edge">
<title>Node1&#45;&gt;Node2</title>
<path fill="none" stroke="#63b8ff" d="M167.81,-179.62C162.35,-172.51 154.59,-162.38 147.44,-153.06"/>
<polygon fill="#63b8ff" stroke="#63b8ff" points="150.39,-151.15 141.53,-145.34 144.84,-155.41 150.39,-151.15"/>
</g>
<!-- Node7 -->
<g id="node7" class="node">
<title>Node7</title>
<g id="a_node7"><a xlink:title=" ">
<polygon fill="#e0e0e0" stroke="#999999" points="239.75,-76 186.25,-76 186.25,-56 239.75,-56 239.75,-76"/>
<text text-anchor="middle" x="213" y="-62.5" font-family="Helvetica,sans-Serif" font-size="10.00">iostream</text>
</a>
</g>
</g>
<!-- Node1&#45;&gt;Node7 -->
<g id="edge8" class="edge">
<title>Node1&#45;&gt;Node7</title>
<path fill="none" stroke="#63b8ff" d="M182.52,-179.62C189.07,-170.92 198.24,-157.35 203,-144 209.58,-125.57 211.91,-103.28 212.7,-87.43"/>
<polygon fill="#63b8ff" stroke="#63b8ff" points="216.19,-87.92 213,-77.82 209.19,-87.7 216.19,-87.92"/>
</g>
<!-- Node3 -->
<g id="node3" class="node">
<title>Node3</title>
<g id="a_node3"><a xlink:href="Grammar_8h.html" target="_top" xlink:title=" ">
<polygon fill="white" stroke="#666666" points="111,-76 47,-76 47,-56 111,-56 111,-76"/>
<text text-anchor="middle" x="79" y="-62.5" font-family="Helvetica,sans-Serif" font-size="10.00">Grammar.h</text>
</a>
</g>
</g>
<!-- Node2&#45;&gt;Node3 -->
<g id="edge2" class="edge">
<title>Node2&#45;&gt;Node3</title>
<path fill="none" stroke="#63b8ff" d="M116.12,-111.55C109.4,-103.48 101.12,-93.55 94.1,-85.12"/>
<polygon fill="#63b8ff" stroke="#63b8ff" points="96.9,-83.01 87.81,-77.57 91.52,-87.49 96.9,-83.01"/>
</g>
<!-- Node6 -->
<g id="node6" class="node">
<title>Node6</title>
<g id="a_node6"><a xlink:title=" ">
<polygon fill="#e0e0e0" stroke="#999999" points="155.38,-20 120.62,-20 120.62,0 155.38,0 155.38,-20"/>
<text text-anchor="middle" x="138" y="-6.5" font-family="Helvetica,sans-Serif" font-size="10.00">map</text>
</a>
</g>
</g>
<!-- Node2&#45;&gt;Node6 -->
<g id="edge7" class="edge">
<title>Node2&#45;&gt;Node6</title>
<path fill="none" stroke="#63b8ff" d="M130.18,-111.84C131.77,-91.32 134.61,-54.63 136.4,-31.62"/>
<polygon fill="#63b8ff" stroke="#63b8ff" points="139.87,-32.19 137.15,-21.95 132.89,-31.65 139.87,-32.19"/>
</g>
<!-- Node2&#45;&gt;Node7 -->
<g id="edge6" class="edge">
<title>Node2&#45;&gt;Node7</title>
<path fill="none" stroke="#63b8ff" d="M150.63,-111.55C162.91,-102.78 178.24,-91.83 190.64,-82.97"/>
<polygon fill="#63b8ff" stroke="#63b8ff" points="192.49,-85.95 198.6,-77.29 188.43,-80.25 192.49,-85.95"/>
</g>
<!-- Node4 -->
<g id="node4" class="node">
<title>Node4</title>
<g id="a_node4"><a xlink:title=" ">
<polygon fill="#e0e0e0" stroke="#999999" points="40,-20 0,-20 0,0 40,0 40,-20"/>
<text text-anchor="middle" x="20" y="-6.5" font-family="Helvetica,sans-Serif" font-size="10.00">string</text>
</a>
</g>
</g>
<!-- Node3&#45;&gt;Node4 -->
<g id="edge3" class="edge">
<title>Node3&#45;&gt;Node4</title>
<path fill="none" stroke="#63b8ff" d="M68.72,-55.59C60.43,-48.01 48.55,-37.13 38.6,-28.02"/>
<polygon fill="#63b8ff" stroke="#63b8ff" points="41.02,-25.49 31.28,-21.32 36.29,-30.65 41.02,-25.49"/>
</g>
<!-- Node5 -->
<g id="node5" class="node">
<title>Node5</title>
<g id="a_node5"><a xlink:title=" ">
<polygon fill="#e0e0e0" stroke="#999999" points="101.5,-20 58.5,-20 58.5,0 101.5,0 101.5,-20"/>
<text text-anchor="middle" x="80" y="-6.5" font-family="Helvetica,sans-Serif" font-size="10.00">vector</text>
</a>
</g>
</g>
<!-- Node3&#45;&gt;Node5 -->
<g id="edge4" class="edge">
<title>Node3&#45;&gt;Node5</title>
<path fill="none" stroke="#63b8ff" d="M79.17,-55.59C79.3,-49.01 79.46,-39.96 79.62,-31.73"/>
<polygon fill="#63b8ff" stroke="#63b8ff" points="83.11,-31.87 79.8,-21.81 76.12,-31.75 83.11,-31.87"/>
</g>
<!-- Node3&#45;&gt;Node6 -->
<g id="edge5" class="edge">
<title>Node3&#45;&gt;Node6</title>
<path fill="none" stroke="#63b8ff" d="M89.28,-55.59C97.57,-48.01 109.45,-37.13 119.4,-28.02"/>
<polygon fill="#63b8ff" stroke="#63b8ff" points="121.71,-30.65 126.72,-21.32 116.98,-25.49 121.71,-30.65"/>
</g>
</g>
</svg>
