<?xml version="1.0" encoding="UTF-8" standalone="no"?>
<!DOCTYPE svg PUBLIC "-//W3C//DTD SVG 1.1//EN"
 "http://www.w3.org/Graphics/SVG/1.1/DTD/svg11.dtd">
<!-- Generated by graphviz version 12.2.1 (20241206.2353)
 -->
<!-- Title: src/languages/Grammar.h Pages: 1 -->
<svg width="162pt" height="84pt"
 viewBox="0.00 0.00 162.38 84.00" xmlns="http://www.w3.org/2000/svg" xmlns:xlink="http://www.w3.org/1999/xlink">
<g id="graph0" class="graph" transform="scale(1 1) rotate(0) translate(4 80)">
<title>src/languages/Grammar.h</title>
<!-- Node1 -->
<g id="node1" class="node">
<title>Node1</title>
<g id="a_node1"><a xlink:title=" ">
<polygon fill="#999999" stroke="#666666" points="143.88,-76 16.12,-76 16.12,-56 143.88,-56 143.88,-76"/>
<text text-anchor="middle" x="80" y="-62.5" font-family="Helvetica,sans-Serif" font-size="10.00">src/languages/Grammar.h</text>
</a>
</g>
</g>
<!-- Node2 -->
<g id="node2" class="node">
<title>Node2</title>
<g id="a_node2"><a xlink:title=" ">
<polygon fill="#e0e0e0" stroke="#999999" points="40,-20 0,-20 0,0 40,0 40,-20"/>
<text text-anchor="middle" x="20" y="-6.5" font-family="Helvetica,sans-Serif" font-size="10.00">string</text>
</a>
</g>
</g>
<!-- Node1&#45;&gt;Node2 -->
<g id="edge1" class="edge">
<title>Node1&#45;&gt;Node2</title>
<path fill="none" stroke="#63b8ff" d="M69.55,-55.59C61.03,-47.93 48.79,-36.91 38.61,-27.75"/>
<polygon fill="#63b8ff" stroke="#63b8ff" points="41.23,-25.4 31.46,-21.31 36.55,-30.6 41.23,-25.4"/>
</g>
<!-- Node3 -->
<g id="node3" class="node">
<title>Node3</title>
<g id="a_node3"><a xlink:title=" ">
<polygon fill="#e0e0e0" stroke="#999999" points="101.5,-20 58.5,-20 58.5,0 101.5,0 101.5,-20"/>
<text text-anchor="middle" x="80" y="-6.5" font-family="Helvetica,sans-Serif" font-size="10.00">vector</text>
</a>
</g>
</g>
<!-- Node1&#45;&gt;Node3 -->
<g id="edge2" class="edge">
<title>Node1&#45;&gt;Node3</title>
<path fill="none" stroke="#63b8ff" d="M80,-55.59C80,-49.01 80,-39.96 80,-31.73"/>
<polygon fill="#63b8ff" stroke="#63b8ff" points="83.5,-31.81 80,-21.81 76.5,-31.81 83.5,-31.81"/>
</g>
<!-- Node4 -->
<g id="node4" class="node">
<title>Node4</title>
<g id="a_node4"><a xlink:title=" ">
<polygon fill="#e0e0e0" stroke="#999999" points="154.38,-20 119.62,-20 119.62,0 154.38,0 154.38,-20"/>
<text text-anchor="middle" x="137" y="-6.5" font-family="Helvetica,sans-Serif" font-size="10.00">map</text>
</a>
</g>
</g>
<!-- Node1&#45;&gt;Node4 -->
<g id="edge3" class="edge">
<title>Node1&#45;&gt;Node4</title>
<path fill="none" stroke="#63b8ff" d="M89.93,-55.59C97.94,-48.01 109.42,-37.13 119.03,-28.02"/>
<polygon fill="#63b8ff" stroke="#63b8ff" points="121.23,-30.76 126.09,-21.34 116.42,-25.68 121.23,-30.76"/>
</g>
</g>
</svg>
