<?xml version="1.0" encoding="UTF-8" standalone="no"?>
<!DOCTYPE svg PUBLIC "-//W3C//DTD SVG 1.1//EN"
 "http://www.w3.org/Graphics/SVG/1.1/DTD/svg11.dtd">
<!-- Generated by graphviz version 12.2.1 (20241206.2353)
 -->
<!-- Title: src/languages/GrammarBicol.h Pages: 1 -->
<svg width="229pt" height="140pt"
 viewBox="0.00 0.00 228.75 140.00" xmlns="http://www.w3.org/2000/svg" xmlns:xlink="http://www.w3.org/1999/xlink">
<g id="graph0" class="graph" transform="scale(1 1) rotate(0) translate(4 136)">
<title>src/languages/GrammarBicol.h</title>
<!-- Node1 -->
<g id="node1" class="node">
<title>Node1</title>
<g id="a_node1"><a xlink:title=" ">
<polygon fill="#999999" stroke="#666666" points="214.12,-132 63.88,-132 63.88,-112 214.12,-112 214.12,-132"/>
<text text-anchor="middle" x="139" y="-118.5" font-family="Helvetica,sans-Serif" font-size="10.00">src/languages/GrammarBicol.h</text>
</a>
</g>
</g>
<!-- Node2 -->
<g id="node2" class="node">
<title>Node2</title>
<g id="a_node2"><a xlink:href="Grammar_8h.html" target="_top" xlink:title=" ">
<polygon fill="white" stroke="#666666" points="111,-76 47,-76 47,-56 111,-56 111,-76"/>
<text text-anchor="middle" x="79" y="-62.5" font-family="Helvetica,sans-Serif" font-size="10.00">Grammar.h</text>
</a>
</g>
</g>
<!-- Node1&#45;&gt;Node2 -->
<g id="edge1" class="edge">
<title>Node1&#45;&gt;Node2</title>
<path fill="none" stroke="#63b8ff" d="M128.55,-111.59C120.03,-103.93 107.79,-92.91 97.61,-83.75"/>
<polygon fill="#63b8ff" stroke="#63b8ff" points="100.23,-81.4 90.46,-77.31 95.55,-86.6 100.23,-81.4"/>
</g>
<!-- Node5 -->
<g id="node5" class="node">
<title>Node5</title>
<g id="a_node5"><a xlink:title=" ">
<polygon fill="#e0e0e0" stroke="#999999" points="155.38,-20 120.62,-20 120.62,0 155.38,0 155.38,-20"/>
<text text-anchor="middle" x="138" y="-6.5" font-family="Helvetica,sans-Serif" font-size="10.00">map</text>
</a>
</g>
</g>
<!-- Node1&#45;&gt;Node5 -->
<g id="edge6" class="edge">
<title>Node1&#45;&gt;Node5</title>
<path fill="none" stroke="#63b8ff" d="M138.91,-111.62C138.75,-94.01 138.41,-55.59 138.19,-31.65"/>
<polygon fill="#63b8ff" stroke="#63b8ff" points="141.69,-31.84 138.1,-21.87 134.69,-31.9 141.69,-31.84"/>
</g>
<!-- Node6 -->
<g id="node6" class="node">
<title>Node6</title>
<g id="a_node6"><a xlink:title=" ">
<polygon fill="#e0e0e0" stroke="#999999" points="220.75,-76 167.25,-76 167.25,-56 220.75,-56 220.75,-76"/>
<text text-anchor="middle" x="194" y="-62.5" font-family="Helvetica,sans-Serif" font-size="10.00">iostream</text>
</a>
</g>
</g>
<!-- Node1&#45;&gt;Node6 -->
<g id="edge5" class="edge">
<title>Node1&#45;&gt;Node6</title>
<path fill="none" stroke="#63b8ff" d="M148.58,-111.59C156.23,-104.08 167.16,-93.35 176.38,-84.3"/>
<polygon fill="#63b8ff" stroke="#63b8ff" points="178.77,-86.86 183.45,-77.36 173.86,-81.87 178.77,-86.86"/>
</g>
<!-- Node3 -->
<g id="node3" class="node">
<title>Node3</title>
<g id="a_node3"><a xlink:title=" ">
<polygon fill="#e0e0e0" stroke="#999999" points="40,-20 0,-20 0,0 40,0 40,-20"/>
<text text-anchor="middle" x="20" y="-6.5" font-family="Helvetica,sans-Serif" font-size="10.00">string</text>
</a>
</g>
</g>
<!-- Node2&#45;&gt;Node3 -->
<g id="edge2" class="edge">
<title>Node2&#45;&gt;Node3</title>
<path fill="none" stroke="#63b8ff" d="M68.72,-55.59C60.43,-48.01 48.55,-37.13 38.6,-28.02"/>
<polygon fill="#63b8ff" stroke="#63b8ff" points="41.02,-25.49 31.28,-21.32 36.29,-30.65 41.02,-25.49"/>
</g>
<!-- Node4 -->
<g id="node4" class="node">
<title>Node4</title>
<g id="a_node4"><a xlink:title=" ">
<polygon fill="#e0e0e0" stroke="#999999" points="101.5,-20 58.5,-20 58.5,0 101.5,0 101.5,-20"/>
<text text-anchor="middle" x="80" y="-6.5" font-family="Helvetica,sans-Serif" font-size="10.00">vector</text>
</a>
</g>
</g>
<!-- Node2&#45;&gt;Node4 -->
<g id="edge3" class="edge">
<title>Node2&#45;&gt;Node4</title>
<path fill="none" stroke="#63b8ff" d="M79.17,-55.59C79.3,-49.01 79.46,-39.96 79.62,-31.73"/>
<polygon fill="#63b8ff" stroke="#63b8ff" points="83.11,-31.87 79.8,-21.81 76.12,-31.75 83.11,-31.87"/>
</g>
<!-- Node2&#45;&gt;Node5 -->
<g id="edge4" class="edge">
<title>Node2&#45;&gt;Node5</title>
<path fill="none" stroke="#63b8ff" d="M89.28,-55.59C97.57,-48.01 109.45,-37.13 119.4,-28.02"/>
<polygon fill="#63b8ff" stroke="#63b8ff" points="121.71,-30.65 126.72,-21.32 116.98,-25.49 121.71,-30.65"/>
</g>
</g>
</svg>
