<?xml version="1.0" encoding="UTF-8" standalone="no"?>
<!DOCTYPE svg PUBLIC "-//W3C//DTD SVG 1.1//EN"
 "http://www.w3.org/Graphics/SVG/1.1/DTD/svg11.dtd">
<!-- Generated by graphviz version 12.2.1 (20241206.2353)
 -->
<!-- Title: Graphical Class Hierarchy Pages: 1 -->
<svg width="196pt" height="218pt"
 viewBox="0.00 0.00 196.00 218.00" xmlns="http://www.w3.org/2000/svg" xmlns:xlink="http://www.w3.org/1999/xlink">
<g id="graph0" class="graph" transform="scale(1 1) rotate(0) translate(4 214)">
<title>Graphical Class Hierarchy</title>
<!-- Node0 -->
<g id="node1" class="node">
<title>Node0</title>
<g id="a_node1"><a xlink:title=" ">
<polygon fill="#e0e0e0" stroke="#999999" points="43.75,-115 0,-115 0,-95 43.75,-95 43.75,-115"/>
<text text-anchor="middle" x="21.88" y="-101.5" font-family="Helvetica,sans-Serif" font-size="10.00">Scene</text>
</a>
</g>
</g>
<!-- Node1 -->
<g id="node2" class="node">
<title>Node1</title>
<g id="a_node2"><a xlink:href="classDummyScene.html" target="_top" xlink:title=" ">
<polygon fill="white" stroke="#666666" points="173,-210 94.75,-210 94.75,-190 173,-190 173,-210"/>
<text text-anchor="middle" x="133.88" y="-196.5" font-family="Helvetica,sans-Serif" font-size="10.00">DummyScene</text>
</a>
</g>
</g>
<!-- Node0&#45;&gt;Node1 -->
<g id="edge1" class="edge">
<title>Node0&#45;&gt;Node1</title>
<path fill="none" stroke="#63b8ff" d="M33.64,-125.43C43.55,-142.45 59.74,-166.23 79.75,-181 84.32,-184.37 89.55,-187.19 94.9,-189.54"/>
<polygon fill="#63b8ff" stroke="#63b8ff" points="36.7,-123.74 28.79,-116.7 30.59,-127.14 36.7,-123.74"/>
</g>
<!-- Node2 -->
<g id="node3" class="node">
<title>Node2</title>
<g id="a_node3"><a xlink:href="classSceneApprenticeship.html" target="_top" xlink:title=" ">
<polygon fill="white" stroke="#666666" points="188,-172 79.75,-172 79.75,-152 188,-152 188,-172"/>
<text text-anchor="middle" x="133.88" y="-158.5" font-family="Helvetica,sans-Serif" font-size="10.00">SceneApprenticeship</text>
</a>
</g>
</g>
<!-- Node0&#45;&gt;Node2 -->
<g id="edge2" class="edge">
<title>Node0&#45;&gt;Node2</title>
<path fill="none" stroke="#63b8ff" d="M45.61,-122.06C55.72,-129.14 67.98,-137.07 79.75,-143 86.05,-146.17 93.01,-149.06 99.76,-151.58"/>
<polygon fill="#63b8ff" stroke="#63b8ff" points="47.71,-119.26 37.55,-116.25 43.61,-124.93 47.71,-119.26"/>
</g>
<!-- Node3 -->
<g id="node4" class="node">
<title>Node3</title>
<g id="a_node4"><a xlink:href="classSceneCombat.html" target="_top" xlink:title=" ">
<polygon fill="white" stroke="#666666" points="173,-134 94.75,-134 94.75,-114 173,-114 173,-134"/>
<text text-anchor="middle" x="133.88" y="-120.5" font-family="Helvetica,sans-Serif" font-size="10.00">SceneCombat</text>
</a>
</g>
</g>
<!-- Node0&#45;&gt;Node3 -->
<g id="edge3" class="edge">
<title>Node0&#45;&gt;Node3</title>
<path fill="none" stroke="#63b8ff" d="M55.19,-110.58C67.47,-112.7 81.57,-115.14 94.36,-117.35"/>
<polygon fill="#63b8ff" stroke="#63b8ff" points="56.03,-107.17 45.58,-108.92 54.83,-114.07 56.03,-107.17"/>
</g>
<!-- Node4 -->
<g id="node5" class="node">
<title>Node4</title>
<g id="a_node5"><a xlink:href="classSceneEspionage.html" target="_top" xlink:title=" ">
<polygon fill="white" stroke="#666666" points="178.62,-96 89.12,-96 89.12,-76 178.62,-76 178.62,-96"/>
<text text-anchor="middle" x="133.88" y="-82.5" font-family="Helvetica,sans-Serif" font-size="10.00">SceneEspionage</text>
</a>
</g>
</g>
<!-- Node0&#45;&gt;Node4 -->
<g id="edge4" class="edge">
<title>Node0&#45;&gt;Node4</title>
<path fill="none" stroke="#63b8ff" d="M55.31,-99.4C65.85,-97.58 77.73,-95.52 88.97,-93.58"/>
<polygon fill="#63b8ff" stroke="#63b8ff" points="54.83,-95.93 45.58,-101.08 56.03,-102.83 54.83,-95.93"/>
</g>
<!-- Node5 -->
<g id="node6" class="node">
<title>Node5</title>
<g id="a_node6"><a xlink:href="classSceneMain.html" target="_top" xlink:title=" ">
<polygon fill="white" stroke="#666666" points="166.25,-58 101.5,-58 101.5,-38 166.25,-38 166.25,-58"/>
<text text-anchor="middle" x="133.88" y="-44.5" font-family="Helvetica,sans-Serif" font-size="10.00">SceneMain</text>
</a>
</g>
</g>
<!-- Node0&#45;&gt;Node5 -->
<g id="edge5" class="edge">
<title>Node0&#45;&gt;Node5</title>
<path fill="none" stroke="#63b8ff" d="M45.61,-87.94C55.72,-80.86 67.98,-72.93 79.75,-67 86.49,-63.61 93.98,-60.54 101.16,-57.9"/>
<polygon fill="#63b8ff" stroke="#63b8ff" points="43.61,-85.07 37.55,-93.75 47.71,-90.74 43.61,-85.07"/>
</g>
<!-- Node6 -->
<g id="node7" class="node">
<title>Node6</title>
<g id="a_node7"><a xlink:href="classSceneMenu.html" target="_top" xlink:title=" ">
<polygon fill="white" stroke="#666666" points="167.75,-20 100,-20 100,0 167.75,0 167.75,-20"/>
<text text-anchor="middle" x="133.88" y="-6.5" font-family="Helvetica,sans-Serif" font-size="10.00">SceneMenu</text>
</a>
</g>
</g>
<!-- Node0&#45;&gt;Node6 -->
<g id="edge6" class="edge">
<title>Node0&#45;&gt;Node6</title>
<path fill="none" stroke="#63b8ff" d="M33.64,-84.57C43.55,-67.55 59.74,-43.77 79.75,-29 85.66,-24.64 92.67,-21.2 99.62,-18.52"/>
<polygon fill="#63b8ff" stroke="#63b8ff" points="30.59,-82.86 28.79,-93.3 36.7,-86.26 30.59,-82.86"/>
</g>
</g>
</svg>
