<?xml version="1.0" encoding="UTF-8" standalone="no"?>
<!DOCTYPE svg PUBLIC "-//W3C//DTD SVG 1.1//EN"
 "http://www.w3.org/Graphics/SVG/1.1/DTD/svg11.dtd">
<!-- Generated by graphviz version 12.2.1 (20241206.2353)
 -->
<!-- Title: Graphical Class Hierarchy Pages: 1 -->
<svg width="252pt" height="66pt"
 viewBox="0.00 0.00 251.50 66.00" xmlns="http://www.w3.org/2000/svg" xmlns:xlink="http://www.w3.org/1999/xlink">
<g id="graph0" class="graph" transform="scale(1 1) rotate(0) translate(4 62)">
<title>Graphical Class Hierarchy</title>
<!-- Node0 -->
<g id="node1" class="node">
<title>Node0</title>
<g id="a_node1"><a xlink:title=" ">
<polygon fill="#e0e0e0" stroke="#999999" points="76.75,-39 0,-39 0,-19 76.75,-19 76.75,-39"/>
<text text-anchor="middle" x="38.38" y="-25.5" font-family="Helvetica,sans-Serif" font-size="10.00">bool_constant</text>
</a>
</g>
</g>
<!-- Node1 -->
<g id="node2" class="node">
<title>Node1</title>
<g id="a_node2"><a xlink:href="structdetail_1_1is__c__string.html" target="_top" xlink:title=" ">
<polygon fill="white" stroke="#666666" points="236.38,-58 119.88,-58 119.88,-38 236.38,-38 236.38,-58"/>
<text text-anchor="middle" x="178.12" y="-44.5" font-family="Helvetica,sans-Serif" font-size="10.00">detail::is_c_string&lt; T &gt;</text>
</a>
</g>
</g>
<!-- Node0&#45;&gt;Node1 -->
<g id="edge1" class="edge">
<title>Node0&#45;&gt;Node1</title>
<path fill="none" stroke="#63b8ff" d="M88.18,-35.73C98.35,-37.13 109.16,-38.63 119.62,-40.07"/>
<polygon fill="#63b8ff" stroke="#63b8ff" points="88.9,-32.3 78.52,-34.4 87.94,-39.23 88.9,-32.3"/>
</g>
<!-- Node2 -->
<g id="node3" class="node">
<title>Node2</title>
<g id="a_node3"><a xlink:href="structdetail_1_1is__transparent.html" target="_top" xlink:title=" ">
<polygon fill="white" stroke="#666666" points="243.5,-20 112.75,-20 112.75,0 243.5,0 243.5,-20"/>
<text text-anchor="middle" x="178.12" y="-6.5" font-family="Helvetica,sans-Serif" font-size="10.00">detail::is_transparent&lt; T &gt;</text>
</a>
</g>
</g>
<!-- Node0&#45;&gt;Node2 -->
<g id="edge2" class="edge">
<title>Node0&#45;&gt;Node2</title>
<path fill="none" stroke="#63b8ff" d="M88.22,-22.26C96.09,-21.18 104.34,-20.04 112.51,-18.91"/>
<polygon fill="#63b8ff" stroke="#63b8ff" points="87.94,-18.77 78.52,-23.6 88.9,-25.7 87.94,-18.77"/>
</g>
</g>
</svg>
