<?xml version="1.0" encoding="UTF-8" standalone="no"?>
<!DOCTYPE svg PUBLIC "-//W3C//DTD SVG 1.1//EN"
 "http://www.w3.org/Graphics/SVG/1.1/DTD/svg11.dtd">
<!-- Generated by graphviz version 12.2.1 (20241206.2353)
 -->
<!-- Title: Graphical Class Hierarchy Pages: 1 -->
<svg width="240pt" height="178pt"
 viewBox="0.00 0.00 240.25 178.00" xmlns="http://www.w3.org/2000/svg" xmlns:xlink="http://www.w3.org/1999/xlink">
<g id="graph0" class="graph" transform="scale(1 1) rotate(0) translate(4 174)">
<title>Graphical Class Hierarchy</title>
<!-- Node0 -->
<g id="node1" class="node">
<title>Node0</title>
<g id="a_node1"><a xlink:title=" ">
<polygon fill="#e0e0e0" stroke="#999999" points="81.25,-98 0,-98 0,-78 81.25,-78 81.25,-98"/>
<text text-anchor="middle" x="40.62" y="-84.5" font-family="Helvetica,sans-Serif" font-size="10.00">std::char_traits</text>
</a>
</g>
</g>
<!-- Node1 -->
<g id="node2" class="node">
<title>Node1</title>
<g id="a_node2"><a xlink:href="structdetail_1_1char__traits.html" target="_top" xlink:title=" ">
<polygon fill="white" stroke="#666666" points="220.25,-170 129.25,-170 129.25,-138 220.25,-138 220.25,-170"/>
<text text-anchor="start" x="137.25" y="-156.5" font-family="Helvetica,sans-Serif" font-size="10.00">detail::char_traits</text>
<text text-anchor="middle" x="174.75" y="-144.5" font-family="Helvetica,sans-Serif" font-size="10.00">&lt; char_type &gt;</text>
</a>
</g>
</g>
<!-- Node0&#45;&gt;Node1 -->
<g id="edge1" class="edge">
<title>Node0&#45;&gt;Node1</title>
<path fill="none" stroke="#63b8ff" d="M69.39,-103.75C83.57,-111.61 101.18,-121.1 117.25,-129 123.12,-131.89 129.4,-134.82 135.57,-137.6"/>
<polygon fill="#63b8ff" stroke="#63b8ff" points="71.51,-100.92 61.07,-99.1 68.09,-107.03 71.51,-100.92"/>
</g>
<!-- Node2 -->
<g id="node3" class="node">
<title>Node2</title>
<g id="a_node3"><a xlink:href="structdetail_1_1char__traits.html" target="_top" xlink:title=" ">
<polygon fill="white" stroke="#666666" points="232.25,-120 117.25,-120 117.25,-100 232.25,-100 232.25,-120"/>
<text text-anchor="middle" x="174.75" y="-106.5" font-family="Helvetica,sans-Serif" font-size="10.00">detail::char_traits&lt; T &gt;</text>
</a>
</g>
</g>
<!-- Node0&#45;&gt;Node2 -->
<g id="edge2" class="edge">
<title>Node0&#45;&gt;Node2</title>
<path fill="none" stroke="#63b8ff" d="M92.86,-96.53C100.71,-97.84 108.86,-99.2 116.83,-100.52"/>
<polygon fill="#63b8ff" stroke="#63b8ff" points="93.56,-93.1 83.12,-94.91 92.41,-100 93.56,-93.1"/>
</g>
<!-- Node3 -->
<g id="node4" class="node">
<title>Node3</title>
<g id="a_node4"><a xlink:href="structdetail_1_1char__traits_3_01signed_01char_01_4.html" target="_top" xlink:title=" ">
<polygon fill="white" stroke="#666666" points="220.25,-82 129.25,-82 129.25,-50 220.25,-50 220.25,-82"/>
<text text-anchor="start" x="137.25" y="-68.5" font-family="Helvetica,sans-Serif" font-size="10.00">detail::char_traits</text>
<text text-anchor="middle" x="174.75" y="-56.5" font-family="Helvetica,sans-Serif" font-size="10.00">&lt; signed char &gt;</text>
</a>
</g>
</g>
<!-- Node0&#45;&gt;Node3 -->
<g id="edge3" class="edge">
<title>Node0&#45;&gt;Node3</title>
<path fill="none" stroke="#63b8ff" d="M92.76,-79.49C104.64,-77.51 117.21,-75.41 128.8,-73.48"/>
<polygon fill="#63b8ff" stroke="#63b8ff" points="92.41,-76 83.12,-81.09 93.56,-82.9 92.41,-76"/>
</g>
<!-- Node4 -->
<g id="node5" class="node">
<title>Node4</title>
<g id="a_node5"><a xlink:href="structdetail_1_1char__traits_3_01unsigned_01char_01_4.html" target="_top" xlink:title=" ">
<polygon fill="white" stroke="#666666" points="222.12,-32 127.38,-32 127.38,0 222.12,0 222.12,-32"/>
<text text-anchor="start" x="135.38" y="-18.5" font-family="Helvetica,sans-Serif" font-size="10.00">detail::char_traits</text>
<text text-anchor="middle" x="174.75" y="-6.5" font-family="Helvetica,sans-Serif" font-size="10.00">&lt; unsigned char &gt;</text>
</a>
</g>
</g>
<!-- Node0&#45;&gt;Node4 -->
<g id="edge4" class="edge">
<title>Node0&#45;&gt;Node4</title>
<path fill="none" stroke="#63b8ff" d="M66.19,-71.52C80.74,-62.07 99.71,-50.28 117.25,-41 122.84,-38.04 128.86,-35.12 134.81,-32.37"/>
<polygon fill="#63b8ff" stroke="#63b8ff" points="64.59,-68.38 58.16,-76.8 68.44,-74.23 64.59,-68.38"/>
</g>
</g>
</svg>
