<?xml version="1.0" encoding="UTF-8" standalone="no"?>
<!DOCTYPE svg PUBLIC "-//W3C//DTD SVG 1.1//EN"
 "http://www.w3.org/Graphics/SVG/1.1/DTD/svg11.dtd">
<!-- Generated by graphviz version 12.2.1 (20241206.2353)
 -->
<!-- Title: Graphical Class Hierarchy Pages: 1 -->
<svg width="192pt" height="522pt"
 viewBox="0.00 0.00 191.50 522.00" xmlns="http://www.w3.org/2000/svg" xmlns:xlink="http://www.w3.org/1999/xlink">
<g id="graph0" class="graph" transform="scale(1 1) rotate(0) translate(4 518)">
<title>Graphical Class Hierarchy</title>
<!-- Node0 -->
<g id="node1" class="node">
<title>Node0</title>
<g id="a_node1"><a xlink:href="structComponent.html" target="_top" xlink:title=" ">
<polygon fill="white" stroke="#666666" points="66.25,-267 0,-267 0,-247 66.25,-247 66.25,-267"/>
<text text-anchor="middle" x="33.12" y="-253.5" font-family="Helvetica,sans-Serif" font-size="10.00">Component</text>
</a>
</g>
</g>
<!-- Node1 -->
<g id="node2" class="node">
<title>Node1</title>
<g id="a_node2"><a xlink:href="structCAffinity.html" target="_top" xlink:title=" ">
<polygon fill="white" stroke="#666666" points="170,-514 115.75,-514 115.75,-494 170,-494 170,-514"/>
<text text-anchor="middle" x="142.88" y="-500.5" font-family="Helvetica,sans-Serif" font-size="10.00">CAffinity</text>
</a>
</g>
</g>
<!-- Node0&#45;&gt;Node1 -->
<g id="edge1" class="edge">
<title>Node0&#45;&gt;Node1</title>
<path fill="none" stroke="#63b8ff" d="M34.94,-278.77C37.7,-322.82 49.74,-423.54 102.25,-485 105.82,-489.18 110.51,-492.51 115.42,-495.14"/>
<polygon fill="#63b8ff" stroke="#63b8ff" points="38.45,-278.8 34.44,-268.99 31.46,-279.15 38.45,-278.8"/>
</g>
<!-- Node2 -->
<g id="node3" class="node">
<title>Node2</title>
<g id="a_node3"><a xlink:href="structCBoundingBox.html" target="_top" xlink:title=" ">
<polygon fill="white" stroke="#666666" points="183.5,-476 102.25,-476 102.25,-456 183.5,-456 183.5,-476"/>
<text text-anchor="middle" x="142.88" y="-462.5" font-family="Helvetica,sans-Serif" font-size="10.00">CBoundingBox</text>
</a>
</g>
</g>
<!-- Node0&#45;&gt;Node2 -->
<g id="edge2" class="edge">
<title>Node0&#45;&gt;Node2</title>
<path fill="none" stroke="#63b8ff" d="M36.52,-278.78C41.8,-317.21 57.75,-397.67 102.25,-447 105.32,-450.4 109.12,-453.25 113.15,-455.62"/>
<polygon fill="#63b8ff" stroke="#63b8ff" points="40,-278.45 35.3,-268.96 33.06,-279.32 40,-278.45"/>
</g>
<!-- Node3 -->
<g id="node4" class="node">
<title>Node3</title>
<g id="a_node4"><a xlink:href="structCInput.html" target="_top" xlink:title=" ">
<polygon fill="white" stroke="#666666" points="165.5,-438 120.25,-438 120.25,-418 165.5,-418 165.5,-438"/>
<text text-anchor="middle" x="142.88" y="-424.5" font-family="Helvetica,sans-Serif" font-size="10.00">CInput</text>
</a>
</g>
</g>
<!-- Node0&#45;&gt;Node3 -->
<g id="edge3" class="edge">
<title>Node0&#45;&gt;Node3</title>
<path fill="none" stroke="#63b8ff" d="M38.72,-278.39C46.61,-310.48 65.55,-371.34 102.25,-409 107.15,-414.03 113.64,-417.89 119.96,-420.79"/>
<polygon fill="#63b8ff" stroke="#63b8ff" points="42.15,-277.68 36.49,-268.72 35.33,-279.25 42.15,-277.68"/>
</g>
<!-- Node4 -->
<g id="node5" class="node">
<title>Node4</title>
<g id="a_node5"><a xlink:href="structCLifeSpan.html" target="_top" xlink:title=" ">
<polygon fill="white" stroke="#666666" points="173.75,-400 112,-400 112,-380 173.75,-380 173.75,-400"/>
<text text-anchor="middle" x="142.88" y="-386.5" font-family="Helvetica,sans-Serif" font-size="10.00">CLifeSpan</text>
</a>
</g>
</g>
<!-- Node0&#45;&gt;Node4 -->
<g id="edge4" class="edge">
<title>Node0&#45;&gt;Node4</title>
<path fill="none" stroke="#63b8ff" d="M42.21,-277.98C52.74,-302.95 73.28,-344.57 102.25,-371 105.86,-374.29 110.14,-377.12 114.53,-379.52"/>
<polygon fill="#63b8ff" stroke="#63b8ff" points="45.53,-276.86 38.53,-268.9 39.04,-279.48 45.53,-276.86"/>
</g>
<!-- Node5 -->
<g id="node6" class="node">
<title>Node5</title>
<g id="a_node6"><a xlink:href="structCNoun.html" target="_top" xlink:title=" ">
<polygon fill="white" stroke="#666666" points="166.25,-362 119.5,-362 119.5,-342 166.25,-342 166.25,-362"/>
<text text-anchor="middle" x="142.88" y="-348.5" font-family="Helvetica,sans-Serif" font-size="10.00">CNoun</text>
</a>
</g>
</g>
<!-- Node0&#45;&gt;Node5 -->
<g id="edge5" class="edge">
<title>Node0&#45;&gt;Node5</title>
<path fill="none" stroke="#63b8ff" d="M47.81,-276.12C60.47,-292.77 80.57,-316.74 102.25,-333 107.38,-336.85 113.41,-340.21 119.19,-343"/>
<polygon fill="#63b8ff" stroke="#63b8ff" points="50.92,-274.44 42.16,-268.49 45.3,-278.6 50.92,-274.44"/>
</g>
<!-- Node6 -->
<g id="node7" class="node">
<title>Node6</title>
<g id="a_node7"><a xlink:href="structCPlayer.html" target="_top" xlink:title=" ">
<polygon fill="white" stroke="#666666" points="168.5,-324 117.25,-324 117.25,-304 168.5,-304 168.5,-324"/>
<text text-anchor="middle" x="142.88" y="-310.5" font-family="Helvetica,sans-Serif" font-size="10.00">CPlayer</text>
</a>
</g>
</g>
<!-- Node0&#45;&gt;Node6 -->
<g id="edge6" class="edge">
<title>Node0&#45;&gt;Node6</title>
<path fill="none" stroke="#63b8ff" d="M61.85,-272.97C74.13,-279.92 88.82,-288.04 102.25,-295 107.8,-297.88 113.87,-300.86 119.54,-303.59"/>
<polygon fill="#63b8ff" stroke="#63b8ff" points="63.91,-270.12 53.49,-268.22 60.45,-276.21 63.91,-270.12"/>
</g>
<!-- Node7 -->
<g id="node8" class="node">
<title>Node7</title>
<g id="a_node8"><a xlink:href="structCPopulation.html" target="_top" xlink:title=" ">
<polygon fill="white" stroke="#666666" points="177.5,-286 108.25,-286 108.25,-266 177.5,-266 177.5,-286"/>
<text text-anchor="middle" x="142.88" y="-272.5" font-family="Helvetica,sans-Serif" font-size="10.00">CPopulation</text>
</a>
</g>
</g>
<!-- Node0&#45;&gt;Node7 -->
<g id="edge7" class="edge">
<title>Node0&#45;&gt;Node7</title>
<path fill="none" stroke="#63b8ff" d="M77.78,-264.7C87.81,-266.47 98.32,-268.32 107.87,-270"/>
<polygon fill="#63b8ff" stroke="#63b8ff" points="78.69,-261.3 68.24,-263.02 77.48,-268.2 78.69,-261.3"/>
</g>
<!-- Node8 -->
<g id="node9" class="node">
<title>Node8</title>
<g id="a_node9"><a xlink:href="structCRender.html" target="_top" xlink:title=" ">
<polygon fill="white" stroke="#666666" points="170.38,-248 115.38,-248 115.38,-228 170.38,-228 170.38,-248"/>
<text text-anchor="middle" x="142.88" y="-234.5" font-family="Helvetica,sans-Serif" font-size="10.00">CRender</text>
</a>
</g>
</g>
<!-- Node0&#45;&gt;Node8 -->
<g id="edge8" class="edge">
<title>Node0&#45;&gt;Node8</title>
<path fill="none" stroke="#63b8ff" d="M78.01,-249.26C90.6,-247.04 103.94,-244.69 115.15,-242.71"/>
<polygon fill="#63b8ff" stroke="#63b8ff" points="77.48,-245.8 68.24,-250.98 78.69,-252.7 77.48,-245.8"/>
</g>
<!-- Node9 -->
<g id="node10" class="node">
<title>Node9</title>
<g id="a_node10"><a xlink:href="structCShape.html" target="_top" xlink:title=" ">
<polygon fill="white" stroke="#666666" points="168.5,-210 117.25,-210 117.25,-190 168.5,-190 168.5,-210"/>
<text text-anchor="middle" x="142.88" y="-196.5" font-family="Helvetica,sans-Serif" font-size="10.00">CShape</text>
</a>
</g>
</g>
<!-- Node0&#45;&gt;Node9 -->
<g id="edge9" class="edge">
<title>Node0&#45;&gt;Node9</title>
<path fill="none" stroke="#63b8ff" d="M61.85,-241.03C74.13,-234.08 88.82,-225.96 102.25,-219 107.8,-216.12 113.87,-213.14 119.54,-210.41"/>
<polygon fill="#63b8ff" stroke="#63b8ff" points="60.45,-237.79 53.49,-245.78 63.91,-243.88 60.45,-237.79"/>
</g>
<!-- Node10 -->
<g id="node11" class="node">
<title>Node10</title>
<g id="a_node11"><a xlink:href="structCSkills.html" target="_top" xlink:title=" ">
<polygon fill="white" stroke="#666666" points="166.62,-172 119.12,-172 119.12,-152 166.62,-152 166.62,-172"/>
<text text-anchor="middle" x="142.88" y="-158.5" font-family="Helvetica,sans-Serif" font-size="10.00">CSkills</text>
</a>
</g>
</g>
<!-- Node0&#45;&gt;Node10 -->
<g id="edge10" class="edge">
<title>Node0&#45;&gt;Node10</title>
<path fill="none" stroke="#63b8ff" d="M47.81,-237.88C60.47,-221.23 80.57,-197.26 102.25,-181 107.25,-177.25 113.12,-173.95 118.78,-171.2"/>
<polygon fill="#63b8ff" stroke="#63b8ff" points="45.3,-235.4 42.16,-245.51 50.92,-239.56 45.3,-235.4"/>
</g>
<!-- Node11 -->
<g id="node12" class="node">
<title>Node11</title>
<g id="a_node12"><a xlink:href="structCState.html" target="_top" xlink:title=" ">
<polygon fill="white" stroke="#666666" points="166.25,-134 119.5,-134 119.5,-114 166.25,-114 166.25,-134"/>
<text text-anchor="middle" x="142.88" y="-120.5" font-family="Helvetica,sans-Serif" font-size="10.00">CState</text>
</a>
</g>
</g>
<!-- Node0&#45;&gt;Node11 -->
<g id="edge11" class="edge">
<title>Node0&#45;&gt;Node11</title>
<path fill="none" stroke="#63b8ff" d="M42.21,-236.02C52.74,-211.05 73.28,-169.43 102.25,-143 107.1,-138.58 113.16,-134.98 119.07,-132.16"/>
<polygon fill="#63b8ff" stroke="#63b8ff" points="39.04,-234.52 38.53,-245.1 45.53,-237.14 39.04,-234.52"/>
</g>
<!-- Node12 -->
<g id="node13" class="node">
<title>Node12</title>
<g id="a_node13"><a xlink:href="structCText.html" target="_top" xlink:title=" ">
<polygon fill="white" stroke="#666666" points="164,-96 121.75,-96 121.75,-76 164,-76 164,-96"/>
<text text-anchor="middle" x="142.88" y="-82.5" font-family="Helvetica,sans-Serif" font-size="10.00">CText</text>
</a>
</g>
</g>
<!-- Node0&#45;&gt;Node12 -->
<g id="edge12" class="edge">
<title>Node0&#45;&gt;Node12</title>
<path fill="none" stroke="#63b8ff" d="M38.72,-235.61C46.61,-203.52 65.55,-142.66 102.25,-105 107.57,-99.54 114.79,-95.44 121.6,-92.48"/>
<polygon fill="#63b8ff" stroke="#63b8ff" points="35.33,-234.75 36.49,-245.28 42.15,-236.32 35.33,-234.75"/>
</g>
<!-- Node13 -->
<g id="node14" class="node">
<title>Node13</title>
<g id="a_node14"><a xlink:href="structCTransform.html" target="_top" xlink:title=" ">
<polygon fill="white" stroke="#666666" points="176.75,-58 109,-58 109,-38 176.75,-38 176.75,-58"/>
<text text-anchor="middle" x="142.88" y="-44.5" font-family="Helvetica,sans-Serif" font-size="10.00">CTransform</text>
</a>
</g>
</g>
<!-- Node0&#45;&gt;Node13 -->
<g id="edge13" class="edge">
<title>Node0&#45;&gt;Node13</title>
<path fill="none" stroke="#63b8ff" d="M36.52,-235.22C41.8,-196.79 57.75,-116.33 102.25,-67 105.32,-63.6 109.12,-60.75 113.15,-58.38"/>
<polygon fill="#63b8ff" stroke="#63b8ff" points="33.06,-234.68 35.3,-245.04 40,-235.55 33.06,-234.68"/>
</g>
<!-- Node14 -->
<g id="node15" class="node">
<title>Node14</title>
<g id="a_node15"><a xlink:href="structCVerb.html" target="_top" xlink:title=" ">
<polygon fill="white" stroke="#666666" points="164.75,-20 121,-20 121,0 164.75,0 164.75,-20"/>
<text text-anchor="middle" x="142.88" y="-6.5" font-family="Helvetica,sans-Serif" font-size="10.00">CVerb</text>
</a>
</g>
</g>
<!-- Node0&#45;&gt;Node14 -->
<g id="edge14" class="edge">
<title>Node0&#45;&gt;Node14</title>
<path fill="none" stroke="#63b8ff" d="M34.94,-235.23C37.7,-191.18 49.74,-90.46 102.25,-29 107.11,-23.32 114.05,-19.2 120.77,-16.28"/>
<polygon fill="#63b8ff" stroke="#63b8ff" points="31.46,-234.85 34.44,-245.01 38.45,-235.2 31.46,-234.85"/>
</g>
</g>
</svg>
