<?xml version="1.0" encoding="UTF-8" standalone="no"?>
<!DOCTYPE svg PUBLIC "-//W3C//DTD SVG 1.1//EN"
 "http://www.w3.org/Graphics/SVG/1.1/DTD/svg11.dtd">
<!-- Generated by graphviz version 12.2.1 (20241206.2353)
 -->
<!-- Title: Graphical Class Hierarchy Pages: 1 -->
<svg width="306pt" height="178pt"
 viewBox="0.00 0.00 305.50 178.00" xmlns="http://www.w3.org/2000/svg" xmlns:xlink="http://www.w3.org/1999/xlink">
<g id="graph0" class="graph" transform="scale(1 1) rotate(0) translate(4 174)">
<title>Graphical Class Hierarchy</title>
<!-- Node0 -->
<g id="node1" class="node">
<title>Node0</title>
<g id="a_node1"><a xlink:title=" ">
<polygon fill="#e0e0e0" stroke="#999999" points="109.75,-104 0,-104 0,-84 109.75,-84 109.75,-104"/>
<text text-anchor="middle" x="54.88" y="-90.5" font-family="Helvetica,sans-Serif" font-size="10.00">std::integral_constant</text>
</a>
</g>
</g>
<!-- Node1 -->
<g id="node2" class="node">
<title>Node1</title>
<g id="a_node2"><a xlink:href="structdetail_1_1has__key__compare.html" target="_top" xlink:title=" ">
<polygon fill="white" stroke="#666666" points="296,-170 147.25,-170 147.25,-150 296,-150 296,-170"/>
<text text-anchor="middle" x="221.62" y="-156.5" font-family="Helvetica,sans-Serif" font-size="10.00">detail::has_key_compare&lt; T &gt;</text>
</a>
</g>
</g>
<!-- Node0&#45;&gt;Node1 -->
<g id="edge1" class="edge">
<title>Node0&#45;&gt;Node1</title>
<path fill="none" stroke="#63b8ff" d="M82.41,-109.98C99.91,-119.98 123.61,-132.54 145.75,-141 154.27,-144.26 163.54,-147.12 172.57,-149.58"/>
<polygon fill="#63b8ff" stroke="#63b8ff" points="84.59,-107.2 74.19,-105.19 81.07,-113.25 84.59,-107.2"/>
</g>
<!-- Node2 -->
<g id="node3" class="node">
<title>Node2</title>
<g id="a_node3"><a xlink:href="structdetail_1_1is__basic__json__context.html" target="_top" xlink:title=" ">
<polygon fill="white" stroke="#666666" points="297.5,-132 145.75,-132 145.75,-100 297.5,-100 297.5,-132"/>
<text text-anchor="start" x="153.75" y="-118.5" font-family="Helvetica,sans-Serif" font-size="10.00">detail::is_basic_json</text>
<text text-anchor="middle" x="221.62" y="-106.5" font-family="Helvetica,sans-Serif" font-size="10.00">_context&lt; BasicJsonContext &gt;</text>
</a>
</g>
</g>
<!-- Node0&#45;&gt;Node2 -->
<g id="edge2" class="edge">
<title>Node0&#45;&gt;Node2</title>
<path fill="none" stroke="#63b8ff" d="M121.23,-102.73C129.14,-103.78 137.28,-104.87 145.33,-105.95"/>
<polygon fill="#63b8ff" stroke="#63b8ff" points="121.7,-99.26 111.32,-101.4 120.77,-106.2 121.7,-99.26"/>
</g>
<!-- Node3 -->
<g id="node4" class="node">
<title>Node3</title>
<g id="a_node4"><a xlink:href="structdetail_1_1negation.html" target="_top" xlink:title=" ">
<polygon fill="white" stroke="#666666" points="275,-82 168.25,-82 168.25,-62 275,-62 275,-82"/>
<text text-anchor="middle" x="221.62" y="-68.5" font-family="Helvetica,sans-Serif" font-size="10.00">detail::negation&lt; B &gt;</text>
</a>
</g>
</g>
<!-- Node0&#45;&gt;Node3 -->
<g id="edge3" class="edge">
<title>Node0&#45;&gt;Node3</title>
<path fill="none" stroke="#63b8ff" d="M120.98,-85.31C136.57,-83.22 153.02,-81.03 167.96,-79.03"/>
<polygon fill="#63b8ff" stroke="#63b8ff" points="120.77,-81.8 111.32,-86.6 121.7,-88.74 120.77,-81.8"/>
</g>
<!-- Node4 -->
<g id="node5" class="node">
<title>Node4</title>
<g id="a_node5"><a xlink:href="classstd_1_1tuple__size_3_1_1nlohmann_1_1detail_1_1iteration__proxy__value_3_01IteratorType_01_4_01_4.html" target="_top" xlink:title=" ">
<polygon fill="white" stroke="#666666" points="288.5,-44 154.75,-44 154.75,0 288.5,0 288.5,-44"/>
<text text-anchor="start" x="162.75" y="-30.5" font-family="Helvetica,sans-Serif" font-size="10.00">std::tuple_size&lt;::nlohmann</text>
<text text-anchor="start" x="162.75" y="-18.5" font-family="Helvetica,sans-Serif" font-size="10.00">::detail::iteration_proxy</text>
<text text-anchor="middle" x="221.62" y="-6.5" font-family="Helvetica,sans-Serif" font-size="10.00">_value&lt; IteratorType &gt; &gt;</text>
</a>
</g>
</g>
<!-- Node0&#45;&gt;Node4 -->
<g id="edge4" class="edge">
<title>Node0&#45;&gt;Node4</title>
<path fill="none" stroke="#63b8ff" d="M87.96,-79.03C105.06,-71.14 126.47,-61.38 145.75,-53 152.2,-50.19 158.99,-47.3 165.73,-44.46"/>
<polygon fill="#63b8ff" stroke="#63b8ff" points="86.91,-75.66 79.31,-83.03 89.86,-82.01 86.91,-75.66"/>
</g>
</g>
</svg>
