<?xml version="1.0" encoding="UTF-8" standalone="no"?>
<!DOCTYPE svg PUBLIC "-//W3C//DTD SVG 1.1//EN"
 "http://www.w3.org/Graphics/SVG/1.1/DTD/svg11.dtd">
<!-- Generated by graphviz version 12.2.1 (20241206.2353)
 -->
<!-- Title: Graphical Class Hierarchy Pages: 1 -->
<svg width="508pt" height="972pt"
 viewBox="0.00 0.00 507.50 972.00" xmlns="http://www.w3.org/2000/svg" xmlns:xlink="http://www.w3.org/1999/xlink">
<g id="graph0" class="graph" transform="scale(1 1) rotate(0) translate(4 968)">
<title>Graphical Class Hierarchy</title>
<!-- Node0 -->
<g id="node1" class="node">
<title>Node0</title>
<g id="a_node1"><a xlink:title=" ">
<polygon fill="#e0e0e0" stroke="#999999" points="80.5,-456 0,-456 0,-436 80.5,-436 80.5,-456"/>
<text text-anchor="middle" x="40.25" y="-442.5" font-family="Helvetica,sans-Serif" font-size="10.00">std::false_type</text>
</a>
</g>
</g>
<!-- Node1 -->
<g id="node2" class="node">
<title>Node1</title>
<g id="a_node2"><a xlink:href="structdetail_1_1has__from__json.html" target="_top" xlink:title=" ">
<polygon fill="white" stroke="#666666" points="288.5,-964 128.5,-964 128.5,-932 288.5,-932 288.5,-964"/>
<text text-anchor="start" x="136.5" y="-950.5" font-family="Helvetica,sans-Serif" font-size="10.00">detail::has_from_json</text>
<text text-anchor="middle" x="208.5" y="-938.5" font-family="Helvetica,sans-Serif" font-size="10.00">&lt; BasicJsonType, T, typename &gt;</text>
</a>
</g>
</g>
<!-- Node0&#45;&gt;Node1 -->
<g id="edge1" class="edge">
<title>Node0&#45;&gt;Node1</title>
<path fill="none" stroke="#63b8ff" d="M41.65,-467.6C43.64,-551.47 55.04,-854.26 116.5,-923 119.89,-926.79 123.79,-930.02 128.03,-932.79"/>
<polygon fill="#63b8ff" stroke="#63b8ff" points="45.15,-467.72 41.44,-457.8 38.15,-467.87 45.15,-467.72"/>
</g>
<!-- Node2 -->
<g id="node3" class="node">
<title>Node2</title>
<g id="a_node3"><a xlink:href="structdetail_1_1has__non__default__from__json.html" target="_top" xlink:title=" ">
<polygon fill="white" stroke="#666666" points="279.88,-914 137.12,-914 137.12,-870 279.88,-870 279.88,-914"/>
<text text-anchor="start" x="145.12" y="-900.5" font-family="Helvetica,sans-Serif" font-size="10.00">detail::has_non_default</text>
<text text-anchor="start" x="145.12" y="-888.5" font-family="Helvetica,sans-Serif" font-size="10.00">_from_json&lt; BasicJsonType,</text>
<text text-anchor="middle" x="208.5" y="-876.5" font-family="Helvetica,sans-Serif" font-size="10.00"> T, typename &gt;</text>
</a>
</g>
</g>
<!-- Node0&#45;&gt;Node2 -->
<g id="edge2" class="edge">
<title>Node0&#45;&gt;Node2</title>
<path fill="none" stroke="#63b8ff" d="M42.35,-467.82C46.64,-544.59 64.67,-800.81 116.5,-861 122.16,-867.58 129.28,-872.76 137.03,-876.85"/>
<polygon fill="#63b8ff" stroke="#63b8ff" points="45.85,-467.68 41.82,-457.88 38.86,-468.06 45.85,-467.68"/>
</g>
<!-- Node3 -->
<g id="node4" class="node">
<title>Node3</title>
<g id="a_node4"><a xlink:href="structdetail_1_1has__to__json.html" target="_top" xlink:title=" ">
<polygon fill="white" stroke="#666666" points="261.12,-852 155.88,-852 155.88,-808 261.12,-808 261.12,-852"/>
<text text-anchor="start" x="163.88" y="-838.5" font-family="Helvetica,sans-Serif" font-size="10.00">detail::has_to_json</text>
<text text-anchor="start" x="163.88" y="-826.5" font-family="Helvetica,sans-Serif" font-size="10.00">&lt; BasicJsonType, T,</text>
<text text-anchor="middle" x="208.5" y="-814.5" font-family="Helvetica,sans-Serif" font-size="10.00"> typename &gt;</text>
</a>
</g>
</g>
<!-- Node0&#45;&gt;Node3 -->
<g id="edge3" class="edge">
<title>Node0&#45;&gt;Node3</title>
<path fill="none" stroke="#63b8ff" d="M43.09,-467.6C49.36,-536.42 72.03,-748.93 116.5,-799 126.59,-810.36 141,-817.56 155.39,-822.12"/>
<polygon fill="#63b8ff" stroke="#63b8ff" points="46.58,-467.33 42.21,-457.68 39.61,-467.95 46.58,-467.33"/>
</g>
<!-- Node4 -->
<g id="node5" class="node">
<title>Node4</title>
<g id="a_node5"><a xlink:href="structdetail_1_1is__basic__json.html" target="_top" xlink:title=" ">
<polygon fill="white" stroke="#666666" points="260.75,-790 156.25,-790 156.25,-758 260.75,-758 260.75,-790"/>
<text text-anchor="start" x="164.25" y="-776.5" font-family="Helvetica,sans-Serif" font-size="10.00">detail::is_basic_json</text>
<text text-anchor="middle" x="208.5" y="-764.5" font-family="Helvetica,sans-Serif" font-size="10.00">&lt; typename &gt;</text>
</a>
</g>
</g>
<!-- Node0&#45;&gt;Node4 -->
<g id="edge4" class="edge">
<title>Node0&#45;&gt;Node4</title>
<path fill="none" stroke="#63b8ff" d="M43.76,-467.44C51.46,-529.62 76.66,-708.17 116.5,-749 126.91,-759.67 141.42,-765.92 155.8,-769.53"/>
<polygon fill="#63b8ff" stroke="#63b8ff" points="47.27,-467.34 42.6,-457.84 40.33,-468.18 47.27,-467.34"/>
</g>
<!-- Node5 -->
<g id="node6" class="node">
<title>Node5</title>
<g id="a_node6"><a xlink:href="structdetail_1_1is__comparable.html" target="_top" xlink:title=" ">
<polygon fill="white" stroke="#666666" points="282.12,-740 134.88,-740 134.88,-708 282.12,-708 282.12,-740"/>
<text text-anchor="start" x="142.88" y="-726.5" font-family="Helvetica,sans-Serif" font-size="10.00">detail::is_comparable</text>
<text text-anchor="middle" x="208.5" y="-714.5" font-family="Helvetica,sans-Serif" font-size="10.00">&lt; Compare, A, B, typename &gt;</text>
</a>
</g>
</g>
<!-- Node0&#45;&gt;Node5 -->
<g id="edge5" class="edge">
<title>Node0&#45;&gt;Node5</title>
<path fill="none" stroke="#63b8ff" d="M41.08,-467.73C41.91,-516.39 50.98,-634.84 116.5,-699 121.77,-704.16 128,-708.28 134.68,-711.56"/>
<polygon fill="#63b8ff" stroke="#63b8ff" points="44.58,-467.94 41.02,-457.96 37.58,-467.98 44.58,-467.94"/>
</g>
<!-- Node6 -->
<g id="node7" class="node">
<title>Node6</title>
<g id="a_node7"><a xlink:href="structdetail_1_1is__compatible__array__type__impl.html" target="_top" xlink:title=" ">
<polygon fill="white" stroke="#666666" points="281,-690 136,-690 136,-634 281,-634 281,-690"/>
<text text-anchor="start" x="144" y="-676.5" font-family="Helvetica,sans-Serif" font-size="10.00">detail::is_compatible</text>
<text text-anchor="start" x="144" y="-664.5" font-family="Helvetica,sans-Serif" font-size="10.00">_array_type_impl&lt; BasicJson</text>
<text text-anchor="start" x="144" y="-652.5" font-family="Helvetica,sans-Serif" font-size="10.00">Type, CompatibleArrayType,</text>
<text text-anchor="middle" x="208.5" y="-640.5" font-family="Helvetica,sans-Serif" font-size="10.00"> typename &gt;</text>
</a>
</g>
</g>
<!-- Node0&#45;&gt;Node6 -->
<g id="edge6" class="edge">
<title>Node0&#45;&gt;Node6</title>
<path fill="none" stroke="#63b8ff" d="M44.74,-467.35C51.83,-504.26 71.26,-580.29 116.5,-625 122.08,-630.51 128.59,-635.24 135.52,-639.29"/>
<polygon fill="#63b8ff" stroke="#63b8ff" points="48.26,-467.16 43.05,-457.93 41.37,-468.39 48.26,-467.16"/>
</g>
<!-- Node8 -->
<g id="node9" class="node">
<title>Node8</title>
<g id="a_node9"><a xlink:href="structdetail_1_1is__compatible__integer__type__impl.html" target="_top" xlink:title=" ">
<polygon fill="white" stroke="#666666" points="299,-616 118,-616 118,-560 299,-560 299,-616"/>
<text text-anchor="start" x="126" y="-602.5" font-family="Helvetica,sans-Serif" font-size="10.00">detail::is_compatible</text>
<text text-anchor="start" x="126" y="-590.5" font-family="Helvetica,sans-Serif" font-size="10.00">_integer_type_impl&lt; RealInteger</text>
<text text-anchor="start" x="126" y="-578.5" font-family="Helvetica,sans-Serif" font-size="10.00">Type, CompatibleNumberIntegerType,</text>
<text text-anchor="middle" x="208.5" y="-566.5" font-family="Helvetica,sans-Serif" font-size="10.00"> typename &gt;</text>
</a>
</g>
</g>
<!-- Node0&#45;&gt;Node8 -->
<g id="edge8" class="edge">
<title>Node0&#45;&gt;Node8</title>
<path fill="none" stroke="#63b8ff" d="M51.42,-466.6C63.87,-489.93 86.99,-527.73 116.5,-551 120.38,-554.06 124.56,-556.9 128.9,-559.54"/>
<polygon fill="#63b8ff" stroke="#63b8ff" points="54.56,-465.07 46.87,-457.78 48.34,-468.27 54.56,-465.07"/>
</g>
<!-- Node10 -->
<g id="node11" class="node">
<title>Node10</title>
<g id="a_node11"><a xlink:href="structdetail_1_1is__compatible__object__type__impl.html" target="_top" xlink:title=" ">
<polygon fill="white" stroke="#666666" points="283.25,-542 133.75,-542 133.75,-486 283.25,-486 283.25,-542"/>
<text text-anchor="start" x="141.75" y="-528.5" font-family="Helvetica,sans-Serif" font-size="10.00">detail::is_compatible</text>
<text text-anchor="start" x="141.75" y="-516.5" font-family="Helvetica,sans-Serif" font-size="10.00">_object_type_impl&lt; BasicJson</text>
<text text-anchor="start" x="141.75" y="-504.5" font-family="Helvetica,sans-Serif" font-size="10.00">Type, CompatibleObjectType,</text>
<text text-anchor="middle" x="208.5" y="-492.5" font-family="Helvetica,sans-Serif" font-size="10.00"> typename &gt;</text>
</a>
</g>
</g>
<!-- Node0&#45;&gt;Node10 -->
<g id="edge10" class="edge">
<title>Node0&#45;&gt;Node10</title>
<path fill="none" stroke="#63b8ff" d="M76.84,-460.7C89.37,-465.87 103.55,-471.7 116.5,-477 123.29,-479.78 130.36,-482.67 137.44,-485.55"/>
<polygon fill="#63b8ff" stroke="#63b8ff" points="78.3,-457.52 67.72,-456.94 75.63,-463.99 78.3,-457.52"/>
</g>
<!-- Node12 -->
<g id="node13" class="node">
<title>Node12</title>
<g id="a_node13"><a xlink:href="structdetail_1_1is__compatible__type__impl.html" target="_top" xlink:title=" ">
<polygon fill="white" stroke="#666666" points="282.12,-468 134.88,-468 134.88,-424 282.12,-424 282.12,-468"/>
<text text-anchor="start" x="142.88" y="-454.5" font-family="Helvetica,sans-Serif" font-size="10.00">detail::is_compatible</text>
<text text-anchor="start" x="142.88" y="-442.5" font-family="Helvetica,sans-Serif" font-size="10.00">_type_impl&lt; BasicJsonType,</text>
<text text-anchor="middle" x="208.5" y="-430.5" font-family="Helvetica,sans-Serif" font-size="10.00"> CompatibleType, typename &gt;</text>
</a>
</g>
</g>
<!-- Node0&#45;&gt;Node12 -->
<g id="edge12" class="edge">
<title>Node0&#45;&gt;Node12</title>
<path fill="none" stroke="#63b8ff" d="M92.04,-446C105.45,-446 120.18,-446 134.5,-446"/>
<polygon fill="#63b8ff" stroke="#63b8ff" points="92.16,-442.5 82.16,-446 92.16,-449.5 92.16,-442.5"/>
</g>
<!-- Node14 -->
<g id="node15" class="node">
<title>Node14</title>
<g id="a_node15"><a xlink:href="structdetail_1_1is__complete__type.html" target="_top" xlink:title=" ">
<polygon fill="white" stroke="#666666" points="264.12,-406 152.88,-406 152.88,-374 264.12,-374 264.12,-406"/>
<text text-anchor="start" x="160.88" y="-392.5" font-family="Helvetica,sans-Serif" font-size="10.00">detail::is_complete</text>
<text text-anchor="middle" x="208.5" y="-380.5" font-family="Helvetica,sans-Serif" font-size="10.00">_type&lt; T, typename &gt;</text>
</a>
</g>
</g>
<!-- Node0&#45;&gt;Node14 -->
<g id="edge14" class="edge">
<title>Node0&#45;&gt;Node14</title>
<path fill="none" stroke="#63b8ff" d="M74.66,-431.2C87.6,-425.75 102.61,-419.75 116.5,-415 128.13,-411.02 140.75,-407.23 152.79,-403.86"/>
<polygon fill="#63b8ff" stroke="#63b8ff" points="73.56,-427.87 65.75,-435.02 76.32,-434.3 73.56,-427.87"/>
</g>
<!-- Node15 -->
<g id="node16" class="node">
<title>Node15</title>
<g id="a_node16"><a xlink:href="structdetail_1_1is__constructible__array__type__impl.html" target="_top" xlink:title=" ">
<polygon fill="white" stroke="#666666" points="297.88,-356 119.12,-356 119.12,-312 297.88,-312 297.88,-356"/>
<text text-anchor="start" x="127.12" y="-342.5" font-family="Helvetica,sans-Serif" font-size="10.00">detail::is_constructible</text>
<text text-anchor="start" x="127.12" y="-330.5" font-family="Helvetica,sans-Serif" font-size="10.00">_array_type_impl&lt; BasicJsonType,</text>
<text text-anchor="middle" x="208.5" y="-318.5" font-family="Helvetica,sans-Serif" font-size="10.00"> ConstructibleArrayType, typename &gt;</text>
</a>
</g>
</g>
<!-- Node0&#45;&gt;Node15 -->
<g id="edge15" class="edge">
<title>Node0&#45;&gt;Node15</title>
<path fill="none" stroke="#63b8ff" d="M54.98,-426.36C68.66,-408.12 91.22,-381.39 116.5,-365 121.4,-361.82 126.66,-358.93 132.1,-356.31"/>
<polygon fill="#63b8ff" stroke="#63b8ff" points="52.27,-424.13 49.22,-434.28 57.94,-428.25 52.27,-424.13"/>
</g>
<!-- Node17 -->
<g id="node18" class="node">
<title>Node17</title>
<g id="a_node18"><a xlink:href="structdetail_1_1is__constructible__object__type__impl.html" target="_top" xlink:title=" ">
<polygon fill="white" stroke="#666666" points="300.5,-294 116.5,-294 116.5,-250 300.5,-250 300.5,-294"/>
<text text-anchor="start" x="124.5" y="-280.5" font-family="Helvetica,sans-Serif" font-size="10.00">detail::is_constructible</text>
<text text-anchor="start" x="124.5" y="-268.5" font-family="Helvetica,sans-Serif" font-size="10.00">_object_type_impl&lt; BasicJsonType,</text>
<text text-anchor="middle" x="208.5" y="-256.5" font-family="Helvetica,sans-Serif" font-size="10.00"> ConstructibleObjectType, typename &gt;</text>
</a>
</g>
</g>
<!-- Node0&#45;&gt;Node17 -->
<g id="edge17" class="edge">
<title>Node0&#45;&gt;Node17</title>
<path fill="none" stroke="#63b8ff" d="M46.91,-424.85C56.27,-393.8 77.91,-335.99 116.5,-303 120.18,-299.85 124.19,-297.02 128.42,-294.48"/>
<polygon fill="#63b8ff" stroke="#63b8ff" points="43.61,-423.65 44.23,-434.23 50.34,-425.57 43.61,-423.65"/>
</g>
<!-- Node19 -->
<g id="node20" class="node">
<title>Node19</title>
<g id="a_node20"><a xlink:href="structdetail_1_1is__constructible__tuple.html" target="_top" xlink:title=" ">
<polygon fill="white" stroke="#666666" points="265.25,-232 151.75,-232 151.75,-200 265.25,-200 265.25,-232"/>
<text text-anchor="start" x="159.75" y="-218.5" font-family="Helvetica,sans-Serif" font-size="10.00">detail::is_constructible</text>
<text text-anchor="middle" x="208.5" y="-206.5" font-family="Helvetica,sans-Serif" font-size="10.00">_tuple&lt; T1, T2 &gt;</text>
</a>
</g>
</g>
<!-- Node0&#45;&gt;Node19 -->
<g id="edge19" class="edge">
<title>Node0&#45;&gt;Node19</title>
<path fill="none" stroke="#63b8ff" d="M42.83,-424.47C47.07,-382.78 62.38,-290.77 116.5,-241 126.15,-232.13 138.65,-226.36 151.29,-222.62"/>
<polygon fill="#63b8ff" stroke="#63b8ff" points="39.37,-423.91 41.97,-434.18 46.34,-424.53 39.37,-423.91"/>
</g>
<!-- Node20 -->
<g id="node21" class="node">
<title>Node20</title>
<g id="a_node21"><a xlink:href="structdetail_1_1is__iterator__traits.html" target="_top" xlink:title=" ">
<polygon fill="white" stroke="#666666" points="265.62,-182 151.38,-182 151.38,-150 265.62,-150 265.62,-182"/>
<text text-anchor="start" x="159.38" y="-168.5" font-family="Helvetica,sans-Serif" font-size="10.00">detail::is_iterator</text>
<text text-anchor="middle" x="208.5" y="-156.5" font-family="Helvetica,sans-Serif" font-size="10.00">_traits&lt; T, typename &gt;</text>
</a>
</g>
</g>
<!-- Node0&#45;&gt;Node20 -->
<g id="edge20" class="edge">
<title>Node0&#45;&gt;Node20</title>
<path fill="none" stroke="#63b8ff" d="M41.01,-424.44C41.69,-375.62 50.42,-255.85 116.5,-191 125.97,-181.7 138.56,-175.79 151.34,-172.04"/>
<polygon fill="#63b8ff" stroke="#63b8ff" points="37.51,-424.21 40.99,-434.22 44.51,-424.23 37.51,-424.21"/>
</g>
<!-- Node21 -->
<g id="node22" class="node">
<title>Node21</title>
<g id="a_node22"><a xlink:href="structdetail_1_1is__json__iterator__of.html" target="_top" xlink:title=" ">
<polygon fill="white" stroke="#666666" points="271.62,-132 145.38,-132 145.38,-100 271.62,-100 271.62,-132"/>
<text text-anchor="start" x="153.38" y="-118.5" font-family="Helvetica,sans-Serif" font-size="10.00">detail::is_json_iterator</text>
<text text-anchor="middle" x="208.5" y="-106.5" font-family="Helvetica,sans-Serif" font-size="10.00">_of&lt; BasicJsonType, T &gt;</text>
</a>
</g>
</g>
<!-- Node0&#45;&gt;Node21 -->
<g id="edge21" class="edge">
<title>Node0&#45;&gt;Node21</title>
<path fill="none" stroke="#63b8ff" d="M43.74,-424.42C51.38,-361.83 76.45,-182.12 116.5,-141 124.27,-133.02 134.34,-127.51 144.93,-123.73"/>
<polygon fill="#63b8ff" stroke="#63b8ff" points="40.29,-423.75 42.59,-434.1 47.25,-424.58 40.29,-423.75"/>
</g>
<!-- Node22 -->
<g id="node23" class="node">
<title>Node22</title>
<g id="a_node23"><a xlink:href="structdetail_1_1is__json__ref.html" target="_top" xlink:title=" ">
<polygon fill="white" stroke="#666666" points="254.75,-82 162.25,-82 162.25,-50 254.75,-50 254.75,-82"/>
<text text-anchor="start" x="170.25" y="-68.5" font-family="Helvetica,sans-Serif" font-size="10.00">detail::is_json_ref</text>
<text text-anchor="middle" x="208.5" y="-56.5" font-family="Helvetica,sans-Serif" font-size="10.00">&lt; typename &gt;</text>
</a>
</g>
</g>
<!-- Node0&#45;&gt;Node22 -->
<g id="edge22" class="edge">
<title>Node0&#45;&gt;Node22</title>
<path fill="none" stroke="#63b8ff" d="M42.91,-424.6C48.71,-355.51 70.23,-140.1 116.5,-91 128.3,-78.48 145.73,-72.03 162.18,-68.77"/>
<polygon fill="#63b8ff" stroke="#63b8ff" points="39.45,-423.96 42.14,-434.21 46.43,-424.53 39.45,-423.96"/>
</g>
<!-- Node23 -->
<g id="node24" class="node">
<title>Node23</title>
<g id="a_node24"><a xlink:href="structdetail_1_1is__specialization__of.html" target="_top" xlink:title=" ">
<polygon fill="white" stroke="#666666" points="267.12,-32 149.88,-32 149.88,0 267.12,0 267.12,-32"/>
<text text-anchor="start" x="157.88" y="-18.5" font-family="Helvetica,sans-Serif" font-size="10.00">detail::is_specialization</text>
<text text-anchor="middle" x="208.5" y="-6.5" font-family="Helvetica,sans-Serif" font-size="10.00">_of&lt; Primary, T &gt;</text>
</a>
</g>
</g>
<!-- Node0&#45;&gt;Node23 -->
<g id="edge23" class="edge">
<title>Node0&#45;&gt;Node23</title>
<path fill="none" stroke="#63b8ff" d="M42.3,-424.59C46.44,-349.29 64.01,-98.12 116.5,-41 125.26,-31.47 137.28,-25.44 149.71,-21.66"/>
<polygon fill="#63b8ff" stroke="#63b8ff" points="38.82,-424.14 41.8,-434.31 45.81,-424.51 38.82,-424.14"/>
</g>
<!-- Node7 -->
<g id="node8" class="node">
<title>Node7</title>
<g id="a_node8"><a xlink:href="structdetail_1_1is__compatible__array__type.html" target="_top" xlink:title=" ">
<polygon fill="white" stroke="#666666" points="490.88,-684 345.12,-684 345.12,-640 490.88,-640 490.88,-684"/>
<text text-anchor="start" x="353.12" y="-670.5" font-family="Helvetica,sans-Serif" font-size="10.00">detail::is_compatible</text>
<text text-anchor="start" x="353.12" y="-658.5" font-family="Helvetica,sans-Serif" font-size="10.00">_array_type&lt; BasicJsonType,</text>
<text text-anchor="middle" x="418" y="-646.5" font-family="Helvetica,sans-Serif" font-size="10.00"> CompatibleArrayType &gt;</text>
</a>
</g>
</g>
<!-- Node6&#45;&gt;Node7 -->
<g id="edge7" class="edge">
<title>Node6&#45;&gt;Node7</title>
<path fill="none" stroke="#63b8ff" d="M292.69,-662C309.94,-662 327.97,-662 344.78,-662"/>
<polygon fill="#63b8ff" stroke="#63b8ff" points="293,-658.5 283,-662 293,-665.5 293,-658.5"/>
</g>
<!-- Node9 -->
<g id="node10" class="node">
<title>Node9</title>
<g id="a_node10"><a xlink:href="structdetail_1_1is__compatible__integer__type.html" target="_top" xlink:title=" ">
<polygon fill="white" stroke="#666666" points="499.5,-610 336.5,-610 336.5,-566 499.5,-566 499.5,-610"/>
<text text-anchor="start" x="344.5" y="-596.5" font-family="Helvetica,sans-Serif" font-size="10.00">detail::is_compatible</text>
<text text-anchor="start" x="344.5" y="-584.5" font-family="Helvetica,sans-Serif" font-size="10.00">_integer_type&lt; RealIntegerType,</text>
<text text-anchor="middle" x="418" y="-572.5" font-family="Helvetica,sans-Serif" font-size="10.00"> CompatibleNumberIntegerType &gt;</text>
</a>
</g>
</g>
<!-- Node8&#45;&gt;Node9 -->
<g id="edge9" class="edge">
<title>Node8&#45;&gt;Node9</title>
<path fill="none" stroke="#63b8ff" d="M310.57,-588C319.17,-588 327.79,-588 336.2,-588"/>
<polygon fill="#63b8ff" stroke="#63b8ff" points="310.82,-584.5 300.82,-588 310.82,-591.5 310.82,-584.5"/>
</g>
<!-- Node11 -->
<g id="node12" class="node">
<title>Node11</title>
<g id="a_node12"><a xlink:href="structdetail_1_1is__compatible__object__type.html" target="_top" xlink:title=" ">
<polygon fill="white" stroke="#666666" points="493.12,-536 342.88,-536 342.88,-492 493.12,-492 493.12,-536"/>
<text text-anchor="start" x="350.88" y="-522.5" font-family="Helvetica,sans-Serif" font-size="10.00">detail::is_compatible</text>
<text text-anchor="start" x="350.88" y="-510.5" font-family="Helvetica,sans-Serif" font-size="10.00">_object_type&lt; BasicJsonType,</text>
<text text-anchor="middle" x="418" y="-498.5" font-family="Helvetica,sans-Serif" font-size="10.00"> CompatibleObjectType &gt;</text>
</a>
</g>
</g>
<!-- Node10&#45;&gt;Node11 -->
<g id="edge11" class="edge">
<title>Node10&#45;&gt;Node11</title>
<path fill="none" stroke="#63b8ff" d="M294.93,-514C310.76,-514 327.18,-514 342.65,-514"/>
<polygon fill="#63b8ff" stroke="#63b8ff" points="295.05,-510.5 285.05,-514 295.05,-517.5 295.05,-510.5"/>
</g>
<!-- Node13 -->
<g id="node14" class="node">
<title>Node13</title>
<g id="a_node14"><a xlink:href="structdetail_1_1is__compatible__type.html" target="_top" xlink:title=" ">
<polygon fill="white" stroke="#666666" points="477.38,-468 358.62,-468 358.62,-424 477.38,-424 477.38,-468"/>
<text text-anchor="start" x="366.62" y="-454.5" font-family="Helvetica,sans-Serif" font-size="10.00">detail::is_compatible</text>
<text text-anchor="start" x="366.62" y="-442.5" font-family="Helvetica,sans-Serif" font-size="10.00">_type&lt; BasicJsonType,</text>
<text text-anchor="middle" x="418" y="-430.5" font-family="Helvetica,sans-Serif" font-size="10.00"> CompatibleType &gt;</text>
</a>
</g>
</g>
<!-- Node12&#45;&gt;Node13 -->
<g id="edge13" class="edge">
<title>Node12&#45;&gt;Node13</title>
<path fill="none" stroke="#63b8ff" d="M293.59,-446C315.31,-446 338.22,-446 358.33,-446"/>
<polygon fill="#63b8ff" stroke="#63b8ff" points="293.88,-442.5 283.88,-446 293.88,-449.5 293.88,-442.5"/>
</g>
<!-- Node16 -->
<g id="node17" class="node">
<title>Node16</title>
<g id="a_node17"><a xlink:href="structdetail_1_1is__constructible__array__type.html" target="_top" xlink:title=" ">
<polygon fill="white" stroke="#666666" points="490.88,-356 345.12,-356 345.12,-312 490.88,-312 490.88,-356"/>
<text text-anchor="start" x="353.12" y="-342.5" font-family="Helvetica,sans-Serif" font-size="10.00">detail::is_constructible</text>
<text text-anchor="start" x="353.12" y="-330.5" font-family="Helvetica,sans-Serif" font-size="10.00">_array_type&lt; BasicJsonType,</text>
<text text-anchor="middle" x="418" y="-318.5" font-family="Helvetica,sans-Serif" font-size="10.00"> ConstructibleArrayType &gt;</text>
</a>
</g>
</g>
<!-- Node15&#45;&gt;Node16 -->
<g id="edge16" class="edge">
<title>Node15&#45;&gt;Node16</title>
<path fill="none" stroke="#63b8ff" d="M309.45,-334C321.32,-334 333.27,-334 344.65,-334"/>
<polygon fill="#63b8ff" stroke="#63b8ff" points="309.61,-330.5 299.61,-334 309.61,-337.5 309.61,-330.5"/>
</g>
<!-- Node18 -->
<g id="node19" class="node">
<title>Node18</title>
<g id="a_node19"><a xlink:href="structdetail_1_1is__constructible__object__type.html" target="_top" xlink:title=" ">
<polygon fill="white" stroke="#666666" points="493.12,-294 342.88,-294 342.88,-250 493.12,-250 493.12,-294"/>
<text text-anchor="start" x="350.88" y="-280.5" font-family="Helvetica,sans-Serif" font-size="10.00">detail::is_constructible</text>
<text text-anchor="start" x="350.88" y="-268.5" font-family="Helvetica,sans-Serif" font-size="10.00">_object_type&lt; BasicJsonType,</text>
<text text-anchor="middle" x="418" y="-256.5" font-family="Helvetica,sans-Serif" font-size="10.00"> ConstructibleObjectType &gt;</text>
</a>
</g>
</g>
<!-- Node17&#45;&gt;Node18 -->
<g id="edge18" class="edge">
<title>Node17&#45;&gt;Node18</title>
<path fill="none" stroke="#63b8ff" d="M312.28,-272C322.45,-272 332.64,-272 342.45,-272"/>
<polygon fill="#63b8ff" stroke="#63b8ff" points="312.33,-268.5 302.33,-272 312.33,-275.5 312.33,-268.5"/>
</g>
</g>
</svg>
