<?xml version="1.0" encoding="UTF-8" standalone="no"?>
<!DOCTYPE svg PUBLIC "-//W3C//DTD SVG 1.1//EN"
 "http://www.w3.org/Graphics/SVG/1.1/DTD/svg11.dtd">
<!-- Generated by graphviz version 12.2.1 (20241206.2353)
 -->
<!-- Title: Graphical Class Hierarchy Pages: 1 -->
<svg width="326pt" height="152pt"
 viewBox="0.00 0.00 325.75 152.00" xmlns="http://www.w3.org/2000/svg" xmlns:xlink="http://www.w3.org/1999/xlink">
<g id="graph0" class="graph" transform="scale(1 1) rotate(0) translate(4 148)">
<title>Graphical Class Hierarchy</title>
<!-- Node0 -->
<g id="node1" class="node">
<title>Node0</title>
<g id="a_node1"><a xlink:href="structdetail_1_1output__adapter__protocol.html" target="_top" xlink:title="abstract output adapter interface">
<polygon fill="white" stroke="#666666" points="115.75,-94 0,-94 0,-62 115.75,-62 115.75,-94"/>
<text text-anchor="start" x="8" y="-80.5" font-family="Helvetica,sans-Serif" font-size="10.00">detail::output_adapter</text>
<text text-anchor="middle" x="57.88" y="-68.5" font-family="Helvetica,sans-Serif" font-size="10.00">_protocol&lt; CharType &gt;</text>
</a>
</g>
</g>
<!-- Node1 -->
<g id="node2" class="node">
<title>Node1</title>
<g id="a_node2"><a xlink:href="classdetail_1_1output__stream__adapter.html" target="_top" xlink:title="output adapter for output streams">
<polygon fill="white" stroke="#666666" points="291.5,-144 178,-144 178,-112 291.5,-112 291.5,-144"/>
<text text-anchor="start" x="186" y="-130.5" font-family="Helvetica,sans-Serif" font-size="10.00">detail::output_stream</text>
<text text-anchor="middle" x="234.75" y="-118.5" font-family="Helvetica,sans-Serif" font-size="10.00">_adapter&lt; CharType &gt;</text>
</a>
</g>
</g>
<!-- Node0&#45;&gt;Node1 -->
<g id="edge1" class="edge">
<title>Node0&#45;&gt;Node1</title>
<path fill="none" stroke="#63b8ff" d="M126.97,-97.47C143.71,-102.26 161.45,-107.33 177.55,-111.93"/>
<polygon fill="#63b8ff" stroke="#63b8ff" points="128.17,-94.17 117.59,-94.79 126.24,-100.9 128.17,-94.17"/>
</g>
<!-- Node2 -->
<g id="node3" class="node">
<title>Node2</title>
<g id="a_node3"><a xlink:href="classdetail_1_1output__string__adapter.html" target="_top" xlink:title="output adapter for basic_string">
<polygon fill="white" stroke="#666666" points="317.75,-94 151.75,-94 151.75,-62 317.75,-62 317.75,-94"/>
<text text-anchor="start" x="159.75" y="-80.5" font-family="Helvetica,sans-Serif" font-size="10.00">detail::output_string</text>
<text text-anchor="middle" x="234.75" y="-68.5" font-family="Helvetica,sans-Serif" font-size="10.00">_adapter&lt; CharType, StringType &gt;</text>
</a>
</g>
</g>
<!-- Node0&#45;&gt;Node2 -->
<g id="edge2" class="edge">
<title>Node0&#45;&gt;Node2</title>
<path fill="none" stroke="#63b8ff" d="M127.43,-78C135.26,-78 143.31,-78 151.3,-78"/>
<polygon fill="#63b8ff" stroke="#63b8ff" points="127.65,-74.5 117.65,-78 127.65,-81.5 127.65,-74.5"/>
</g>
<!-- Node3 -->
<g id="node4" class="node">
<title>Node3</title>
<g id="a_node4"><a xlink:href="classdetail_1_1output__vector__adapter.html" target="_top" xlink:title="output adapter for byte vectors">
<polygon fill="white" stroke="#666666" points="308.75,-44 160.75,-44 160.75,0 308.75,0 308.75,-44"/>
<text text-anchor="start" x="168.75" y="-30.5" font-family="Helvetica,sans-Serif" font-size="10.00">detail::output_vector</text>
<text text-anchor="start" x="168.75" y="-18.5" font-family="Helvetica,sans-Serif" font-size="10.00">_adapter&lt; CharType, Allocator</text>
<text text-anchor="middle" x="234.75" y="-6.5" font-family="Helvetica,sans-Serif" font-size="10.00">Type &gt;</text>
</a>
</g>
</g>
<!-- Node0&#45;&gt;Node3 -->
<g id="edge3" class="edge">
<title>Node0&#45;&gt;Node3</title>
<path fill="none" stroke="#63b8ff" d="M121.23,-58.03C135.03,-53.61 149.73,-48.91 163.8,-44.4"/>
<polygon fill="#63b8ff" stroke="#63b8ff" points="120.3,-54.66 111.84,-61.04 122.43,-61.32 120.3,-54.66"/>
</g>
</g>
</svg>
