<?xml version="1.0" encoding="UTF-8" standalone="no"?>
<!DOCTYPE svg PUBLIC "-//W3C//DTD SVG 1.1//EN"
 "http://www.w3.org/Graphics/SVG/1.1/DTD/svg11.dtd">
<!-- Generated by graphviz version 12.2.1 (20241206.2353)
 -->
<!-- Title: Graphical Class Hierarchy Pages: 1 -->
<svg width="353pt" height="180pt"
 viewBox="0.00 0.00 353.00 180.00" xmlns="http://www.w3.org/2000/svg" xmlns:xlink="http://www.w3.org/1999/xlink">
<g id="graph0" class="graph" transform="scale(1 1) rotate(0) translate(4 176)">
<title>Graphical Class Hierarchy</title>
<!-- Node0 -->
<g id="node1" class="node">
<title>Node0</title>
<g id="a_node1"><a xlink:title=" ">
<polygon fill="#e0e0e0" stroke="#999999" points="77.5,-96 0,-96 0,-76 77.5,-76 77.5,-96"/>
<text text-anchor="middle" x="38.75" y="-82.5" font-family="Helvetica,sans-Serif" font-size="10.00">std::exception</text>
</a>
</g>
</g>
<!-- Node1 -->
<g id="node2" class="node">
<title>Node1</title>
<g id="a_node2"><a xlink:href="classdetail_1_1exception.html" target="_top" xlink:title="general exception of the basic_json class">
<polygon fill="white" stroke="#666666" points="200.75,-96 113.5,-96 113.5,-76 200.75,-76 200.75,-96"/>
<text text-anchor="middle" x="157.12" y="-82.5" font-family="Helvetica,sans-Serif" font-size="10.00">detail::exception</text>
</a>
</g>
</g>
<!-- Node0&#45;&gt;Node1 -->
<g id="edge1" class="edge">
<title>Node0&#45;&gt;Node1</title>
<path fill="none" stroke="#63b8ff" d="M89.25,-86C97.18,-86 105.33,-86 113.1,-86"/>
<polygon fill="#63b8ff" stroke="#63b8ff" points="89.37,-82.5 79.37,-86 89.37,-89.5 89.37,-82.5"/>
</g>
<!-- Node2 -->
<g id="node3" class="node">
<title>Node2</title>
<g id="a_node3"><a xlink:href="classdetail_1_1invalid__iterator.html" target="_top" xlink:title="exception indicating errors with iterators">
<polygon fill="white" stroke="#666666" points="345,-172 236.75,-172 236.75,-152 345,-152 345,-172"/>
<text text-anchor="middle" x="290.88" y="-158.5" font-family="Helvetica,sans-Serif" font-size="10.00">detail::invalid_iterator</text>
</a>
</g>
</g>
<!-- Node1&#45;&gt;Node2 -->
<g id="edge2" class="edge">
<title>Node1&#45;&gt;Node2</title>
<path fill="none" stroke="#63b8ff" d="M178.81,-103.52C194.07,-115.79 215.76,-131.93 236.75,-143 242.81,-146.2 249.53,-149.07 256.1,-151.55"/>
<polygon fill="#63b8ff" stroke="#63b8ff" points="181.32,-101.05 171.37,-97.41 176.88,-106.46 181.32,-101.05"/>
</g>
<!-- Node3 -->
<g id="node4" class="node">
<title>Node3</title>
<g id="a_node4"><a xlink:href="classdetail_1_1other__error.html" target="_top" xlink:title="exception indicating other library errors">
<polygon fill="white" stroke="#666666" points="336.75,-134 245,-134 245,-114 336.75,-114 336.75,-134"/>
<text text-anchor="middle" x="290.88" y="-120.5" font-family="Helvetica,sans-Serif" font-size="10.00">detail::other_error</text>
</a>
</g>
</g>
<!-- Node1&#45;&gt;Node3 -->
<g id="edge3" class="edge">
<title>Node1&#45;&gt;Node3</title>
<path fill="none" stroke="#63b8ff" d="M205.2,-99.58C221.14,-104.18 238.68,-109.23 253.64,-113.55"/>
<polygon fill="#63b8ff" stroke="#63b8ff" points="206.51,-96.31 195.93,-96.9 204.57,-103.04 206.51,-96.31"/>
</g>
<!-- Node4 -->
<g id="node5" class="node">
<title>Node4</title>
<g id="a_node5"><a xlink:href="classdetail_1_1out__of__range.html" target="_top" xlink:title="exception indicating access out of the defined range">
<polygon fill="white" stroke="#666666" points="341.62,-96 240.12,-96 240.12,-76 341.62,-76 341.62,-96"/>
<text text-anchor="middle" x="290.88" y="-82.5" font-family="Helvetica,sans-Serif" font-size="10.00">detail::out_of_range</text>
</a>
</g>
</g>
<!-- Node1&#45;&gt;Node4 -->
<g id="edge4" class="edge">
<title>Node1&#45;&gt;Node4</title>
<path fill="none" stroke="#63b8ff" d="M212.29,-86C221.45,-86 230.93,-86 239.98,-86"/>
<polygon fill="#63b8ff" stroke="#63b8ff" points="212.41,-82.5 202.41,-86 212.41,-89.5 212.41,-82.5"/>
</g>
<!-- Node5 -->
<g id="node6" class="node">
<title>Node5</title>
<g id="a_node6"><a xlink:href="classdetail_1_1parse__error.html" target="_top" xlink:title="exception indicating a parse error">
<polygon fill="white" stroke="#666666" points="337.88,-58 243.88,-58 243.88,-38 337.88,-38 337.88,-58"/>
<text text-anchor="middle" x="290.88" y="-44.5" font-family="Helvetica,sans-Serif" font-size="10.00">detail::parse_error</text>
</a>
</g>
</g>
<!-- Node1&#45;&gt;Node5 -->
<g id="edge5" class="edge">
<title>Node1&#45;&gt;Node5</title>
<path fill="none" stroke="#63b8ff" d="M205.2,-72.42C221.14,-67.82 238.68,-62.77 253.64,-58.45"/>
<polygon fill="#63b8ff" stroke="#63b8ff" points="204.57,-68.96 195.93,-75.1 206.51,-75.69 204.57,-68.96"/>
</g>
<!-- Node6 -->
<g id="node7" class="node">
<title>Node6</title>
<g id="a_node7"><a xlink:href="classdetail_1_1type__error.html" target="_top" xlink:title="exception indicating executing a member function with a wrong type">
<polygon fill="white" stroke="#666666" points="335.25,-20 246.5,-20 246.5,0 335.25,0 335.25,-20"/>
<text text-anchor="middle" x="290.88" y="-6.5" font-family="Helvetica,sans-Serif" font-size="10.00">detail::type_error</text>
</a>
</g>
</g>
<!-- Node1&#45;&gt;Node6 -->
<g id="edge6" class="edge">
<title>Node1&#45;&gt;Node6</title>
<path fill="none" stroke="#63b8ff" d="M178.81,-68.48C194.07,-56.21 215.76,-40.07 236.75,-29 242.81,-25.8 249.53,-22.93 256.1,-20.45"/>
<polygon fill="#63b8ff" stroke="#63b8ff" points="176.88,-65.54 171.37,-74.59 181.32,-70.95 176.88,-65.54"/>
</g>
</g>
</svg>
