<?xml version="1.0" encoding="UTF-8" standalone="no"?>
<!DOCTYPE svg PUBLIC "-//W3C//DTD SVG 1.1//EN"
 "http://www.w3.org/Graphics/SVG/1.1/DTD/svg11.dtd">
<!-- Generated by graphviz version 12.2.1 (20241206.2353)
 -->
<!-- Title: Graphical Class Hierarchy Pages: 1 -->
<svg width="689pt" height="844pt"
 viewBox="0.00 0.00 689.25 844.00" xmlns="http://www.w3.org/2000/svg" xmlns:xlink="http://www.w3.org/1999/xlink">
<g id="graph0" class="graph" transform="scale(1 1) rotate(0) translate(4 840)">
<title>Graphical Class Hierarchy</title>
<!-- Node0 -->
<g id="node1" class="node">
<title>Node0</title>
<g id="a_node1"><a xlink:title=" ">
<polygon fill="#e0e0e0" stroke="#999999" points="76,-400 0,-400 0,-380 76,-380 76,-400"/>
<text text-anchor="middle" x="38" y="-386.5" font-family="Helvetica,sans-Serif" font-size="10.00">std::true_type</text>
</a>
</g>
</g>
<!-- Node1 -->
<g id="node2" class="node">
<title>Node1</title>
<g id="a_node2"><a xlink:href="structdetail_1_1conjunction.html" target="_top" xlink:title=" ">
<polygon fill="white" stroke="#666666" points="282.12,-811 182.88,-811 182.88,-767 282.12,-767 282.12,-811"/>
<text text-anchor="start" x="190.88" y="-797.5" font-family="Helvetica,sans-Serif" font-size="10.00">detail::conjunction</text>
<text text-anchor="start" x="190.88" y="-785.5" font-family="Helvetica,sans-Serif" font-size="10.00">&lt; is_constructible&lt;</text>
<text text-anchor="middle" x="232.5" y="-773.5" font-family="Helvetica,sans-Serif" font-size="10.00"> T1, Args &gt;... &gt;</text>
</a>
</g>
</g>
<!-- Node0&#45;&gt;Node1 -->
<g id="edge1" class="edge">
<title>Node0&#45;&gt;Node1</title>
<path fill="none" stroke="#63b8ff" d="M41.09,-411.69C47.97,-478.9 71.72,-682.27 112,-733 129.53,-755.07 157.8,-768.86 182.44,-777.23"/>
<polygon fill="#63b8ff" stroke="#63b8ff" points="44.6,-411.57 40.13,-401.97 37.64,-412.27 44.6,-411.57"/>
</g>
<!-- Node3 -->
<g id="node4" class="node">
<title>Node3</title>
<g id="a_node4"><a xlink:href="structdetail_1_1conjunction.html" target="_top" xlink:title=" ">
<polygon fill="white" stroke="#666666" points="309.5,-724 155.5,-724 155.5,-668 309.5,-668 309.5,-724"/>
<text text-anchor="start" x="163.5" y="-710.5" font-family="Helvetica,sans-Serif" font-size="10.00">detail::conjunction</text>
<text text-anchor="start" x="163.5" y="-698.5" font-family="Helvetica,sans-Serif" font-size="10.00">&lt; is_default_constructible</text>
<text text-anchor="start" x="163.5" y="-686.5" font-family="Helvetica,sans-Serif" font-size="10.00">&lt; T1 &gt;, is_default_constructible</text>
<text text-anchor="middle" x="232.5" y="-674.5" font-family="Helvetica,sans-Serif" font-size="10.00">&lt; T2 &gt; &gt;</text>
</a>
</g>
</g>
<!-- Node0&#45;&gt;Node3 -->
<g id="edge3" class="edge">
<title>Node0&#45;&gt;Node3</title>
<path fill="none" stroke="#63b8ff" d="M38.31,-411.87C37.94,-462.52 44.29,-588.86 112,-659 123.69,-671.11 139.25,-679.28 155.28,-684.78"/>
<polygon fill="#63b8ff" stroke="#63b8ff" points="41.81,-412.03 38.49,-401.97 34.81,-411.9 41.81,-412.03"/>
</g>
<!-- Node8 -->
<g id="node9" class="node">
<title>Node8</title>
<g id="a_node9"><a xlink:href="structdetail_1_1conjunction.html" target="_top" xlink:title=" ">
<polygon fill="white" stroke="#666666" points="296.38,-650 168.62,-650 168.62,-606 296.38,-606 296.38,-650"/>
<text text-anchor="start" x="176.62" y="-636.5" font-family="Helvetica,sans-Serif" font-size="10.00">detail::conjunction</text>
<text text-anchor="start" x="176.62" y="-624.5" font-family="Helvetica,sans-Serif" font-size="10.00">&lt; is_default_constructible</text>
<text text-anchor="middle" x="232.5" y="-612.5" font-family="Helvetica,sans-Serif" font-size="10.00">&lt; Ts &gt;... &gt;</text>
</a>
</g>
</g>
<!-- Node0&#45;&gt;Node8 -->
<g id="edge8" class="edge">
<title>Node0&#45;&gt;Node8</title>
<path fill="none" stroke="#63b8ff" d="M40.19,-411.79C43.71,-453.97 57.56,-547.02 112,-597 127.31,-611.06 148.18,-618.92 168.19,-623.25"/>
<polygon fill="#63b8ff" stroke="#63b8ff" points="43.69,-411.67 39.51,-401.94 36.71,-412.16 43.69,-411.67"/>
</g>
<!-- Node13 -->
<g id="node14" class="node">
<title>Node13</title>
<g id="a_node14"><a xlink:href="structdetail_1_1conjunction.html" target="_top" xlink:title=" ">
<polygon fill="white" stroke="#666666" points="279.88,-588 185.12,-588 185.12,-556 279.88,-556 279.88,-588"/>
<text text-anchor="start" x="193.12" y="-574.5" font-family="Helvetica,sans-Serif" font-size="10.00">detail::conjunction</text>
<text text-anchor="middle" x="232.5" y="-562.5" font-family="Helvetica,sans-Serif" font-size="10.00">&lt;... &gt;</text>
</a>
</g>
</g>
<!-- Node0&#45;&gt;Node13 -->
<g id="edge13" class="edge">
<title>Node0&#45;&gt;Node13</title>
<path fill="none" stroke="#63b8ff" d="M42.65,-411.41C49.67,-445.65 68.38,-512.38 112,-547 132.42,-563.21 160.8,-569.61 184.79,-571.89"/>
<polygon fill="#63b8ff" stroke="#63b8ff" points="46.15,-411.05 40.85,-401.88 39.27,-412.35 46.15,-411.05"/>
</g>
<!-- Node14 -->
<g id="node15" class="node">
<title>Node14</title>
<g id="a_node15"><a xlink:href="structdetail_1_1is__basic__json_3_01NLOHMANN__BASIC__JSON__TPL_01_4.html" target="_top" xlink:title=" ">
<polygon fill="white" stroke="#666666" points="323.75,-538 141.25,-538 141.25,-506 323.75,-506 323.75,-538"/>
<text text-anchor="start" x="149.25" y="-524.5" font-family="Helvetica,sans-Serif" font-size="10.00">detail::is_basic_json</text>
<text text-anchor="middle" x="232.5" y="-512.5" font-family="Helvetica,sans-Serif" font-size="10.00">&lt; NLOHMANN_BASIC_JSON_TPL &gt;</text>
</a>
</g>
</g>
<!-- Node0&#45;&gt;Node14 -->
<g id="edge14" class="edge">
<title>Node0&#45;&gt;Node14</title>
<path fill="none" stroke="#63b8ff" d="M47.24,-410.52C58.22,-435.1 80.04,-475.64 112,-497 120.81,-502.89 130.74,-507.43 141.01,-510.93"/>
<polygon fill="#63b8ff" stroke="#63b8ff" points="50.57,-409.4 43.44,-401.57 44.13,-412.14 50.57,-409.4"/>
</g>
<!-- Node15 -->
<g id="node16" class="node">
<title>Node15</title>
<g id="a_node16"><a xlink:href="structdetail_1_1is__comparable_3_01Compare_00_01A_00_01B_00_01void__t_3_01decltype_07std_1_1decle5e3400d312093eca0a7154409c6a227.html" target="_top" xlink:title=" ">
<polygon fill="white" stroke="#666666" points="306.88,-488 158.12,-488 158.12,-384 306.88,-384 306.88,-488"/>
<text text-anchor="start" x="166.12" y="-474.5" font-family="Helvetica,sans-Serif" font-size="10.00">detail::is_comparable</text>
<text text-anchor="start" x="166.12" y="-462.5" font-family="Helvetica,sans-Serif" font-size="10.00">&lt; Compare, A, B, void</text>
<text text-anchor="start" x="166.12" y="-450.5" font-family="Helvetica,sans-Serif" font-size="10.00">_t&lt; decltype(std::declval</text>
<text text-anchor="start" x="166.12" y="-438.5" font-family="Helvetica,sans-Serif" font-size="10.00">&lt; Compare &gt;()(std::declval</text>
<text text-anchor="start" x="166.12" y="-426.5" font-family="Helvetica,sans-Serif" font-size="10.00">&lt; A &gt;(), std::declval&lt; B &gt;</text>
<text text-anchor="start" x="166.12" y="-414.5" font-family="Helvetica,sans-Serif" font-size="10.00">())), decltype(std::declval</text>
<text text-anchor="start" x="166.12" y="-402.5" font-family="Helvetica,sans-Serif" font-size="10.00">&lt; Compare &gt;()(std::declval&lt; B</text>
<text text-anchor="middle" x="232.5" y="-390.5" font-family="Helvetica,sans-Serif" font-size="10.00"> &gt;(), std::declval&lt; A &gt;()))&gt; &gt;</text>
</a>
</g>
</g>
<!-- Node0&#45;&gt;Node15 -->
<g id="edge15" class="edge">
<title>Node0&#45;&gt;Node15</title>
<path fill="none" stroke="#63b8ff" d="M87.19,-401.51C108.55,-406.62 134.15,-412.74 157.83,-418.4"/>
<polygon fill="#63b8ff" stroke="#63b8ff" points="88.13,-398.14 77.59,-399.22 86.5,-404.95 88.13,-398.14"/>
</g>
<!-- Node16 -->
<g id="node17" class="node">
<title>Node16</title>
<g id="a_node17"><a xlink:href="structdetail_1_1is__complete__type_3_01T_00_01decltype_07void_07sizeof_07T_08_08_08_4.html" target="_top" xlink:title=" ">
<polygon fill="white" stroke="#666666" points="291.12,-366 173.88,-366 173.88,-322 291.12,-322 291.12,-366"/>
<text text-anchor="start" x="181.88" y="-352.5" font-family="Helvetica,sans-Serif" font-size="10.00">detail::is_complete</text>
<text text-anchor="start" x="181.88" y="-340.5" font-family="Helvetica,sans-Serif" font-size="10.00">_type&lt; T, decltype(void</text>
<text text-anchor="middle" x="232.5" y="-328.5" font-family="Helvetica,sans-Serif" font-size="10.00">(sizeof(T)))&gt;</text>
</a>
</g>
</g>
<!-- Node0&#45;&gt;Node16 -->
<g id="edge16" class="edge">
<title>Node0&#45;&gt;Node16</title>
<path fill="none" stroke="#63b8ff" d="M87.3,-378.46C113.51,-372.19 146.1,-364.41 173.66,-357.82"/>
<polygon fill="#63b8ff" stroke="#63b8ff" points="86.5,-375.05 77.59,-380.78 88.13,-381.86 86.5,-375.05"/>
</g>
<!-- Node17 -->
<g id="node18" class="node">
<title>Node17</title>
<g id="a_node18"><a xlink:href="structdetail_1_1is__constructible__array__type__impl_3_01BasicJsonType_00_01ConstructibleArrayTyff4af2af9684a1cc8580410ec8c319a4.html" target="_top" xlink:title=" ">
<polygon fill="white" stroke="#666666" points="353,-304 112,-304 112,-236 353,-236 353,-304"/>
<text text-anchor="start" x="120" y="-290.5" font-family="Helvetica,sans-Serif" font-size="10.00">detail::is_constructible</text>
<text text-anchor="start" x="120" y="-278.5" font-family="Helvetica,sans-Serif" font-size="10.00">_array_type_impl&lt; BasicJsonType,</text>
<text text-anchor="start" x="120" y="-266.5" font-family="Helvetica,sans-Serif" font-size="10.00"> ConstructibleArrayType, enable</text>
<text text-anchor="start" x="120" y="-254.5" font-family="Helvetica,sans-Serif" font-size="10.00">_if_t&lt; std::is_same&lt; ConstructibleArrayType,</text>
<text text-anchor="middle" x="232.5" y="-242.5" font-family="Helvetica,sans-Serif" font-size="10.00"> typename BasicJsonType::value_type &gt;::value &gt; &gt;</text>
</a>
</g>
</g>
<!-- Node0&#45;&gt;Node17 -->
<g id="edge17" class="edge">
<title>Node0&#45;&gt;Node17</title>
<path fill="none" stroke="#63b8ff" d="M53.27,-370.4C66.71,-353.17 88.28,-328.5 112,-313 116.61,-309.99 121.47,-307.15 126.47,-304.49"/>
<polygon fill="#63b8ff" stroke="#63b8ff" points="50.5,-368.26 47.25,-378.35 56.08,-372.48 50.5,-368.26"/>
</g>
<!-- Node18 -->
<g id="node19" class="node">
<title>Node18</title>
<g id="a_node19"><a xlink:href="structdetail_1_1is__json__iterator__of_3_01BasicJsonType_00_01typename_01BasicJsonType_1_1const__iterator_01_4.html" target="_top" xlink:title=" ">
<polygon fill="white" stroke="#666666" points="312.5,-218 152.5,-218 152.5,-174 312.5,-174 312.5,-218"/>
<text text-anchor="start" x="160.5" y="-204.5" font-family="Helvetica,sans-Serif" font-size="10.00">detail::is_json_iterator</text>
<text text-anchor="start" x="160.5" y="-192.5" font-family="Helvetica,sans-Serif" font-size="10.00">_of&lt; BasicJsonType, typename</text>
<text text-anchor="middle" x="232.5" y="-180.5" font-family="Helvetica,sans-Serif" font-size="10.00"> BasicJsonType::const_iterator &gt;</text>
</a>
</g>
</g>
<!-- Node0&#45;&gt;Node18 -->
<g id="edge18" class="edge">
<title>Node0&#45;&gt;Node18</title>
<path fill="none" stroke="#63b8ff" d="M42.49,-368.53C49.35,-333.51 67.92,-264.26 112,-227 123.46,-217.31 137.58,-210.61 152.06,-205.98"/>
<polygon fill="#63b8ff" stroke="#63b8ff" points="39.07,-367.81 40.74,-378.28 45.96,-369.05 39.07,-367.81"/>
</g>
<!-- Node19 -->
<g id="node20" class="node">
<title>Node19</title>
<g id="a_node20"><a xlink:href="structdetail_1_1is__json__iterator__of_3_01BasicJsonType_00_01typename_01BasicJsonType_1_1iterator_01_4.html" target="_top" xlink:title=" ">
<polygon fill="white" stroke="#666666" points="309.5,-156 155.5,-156 155.5,-112 309.5,-112 309.5,-156"/>
<text text-anchor="start" x="163.5" y="-142.5" font-family="Helvetica,sans-Serif" font-size="10.00">detail::is_json_iterator</text>
<text text-anchor="start" x="163.5" y="-130.5" font-family="Helvetica,sans-Serif" font-size="10.00">_of&lt; BasicJsonType, typename</text>
<text text-anchor="middle" x="232.5" y="-118.5" font-family="Helvetica,sans-Serif" font-size="10.00"> BasicJsonType::iterator &gt;</text>
</a>
</g>
</g>
<!-- Node0&#45;&gt;Node19 -->
<g id="edge19" class="edge">
<title>Node0&#45;&gt;Node19</title>
<path fill="none" stroke="#63b8ff" d="M39.47,-368.22C41.67,-323.38 53.23,-220.35 112,-165 123.94,-153.76 139.41,-146.47 155.24,-141.77"/>
<polygon fill="#63b8ff" stroke="#63b8ff" points="35.98,-368.06 39.11,-378.18 42.97,-368.31 35.98,-368.06"/>
</g>
<!-- Node20 -->
<g id="node21" class="node">
<title>Node20</title>
<g id="a_node21"><a xlink:href="structdetail_1_1is__json__ref_3_01json__ref_3_01T_01_4_01_4.html" target="_top" xlink:title=" ">
<polygon fill="white" stroke="#666666" points="278.75,-94 186.25,-94 186.25,-62 278.75,-62 278.75,-94"/>
<text text-anchor="start" x="194.25" y="-80.5" font-family="Helvetica,sans-Serif" font-size="10.00">detail::is_json_ref</text>
<text text-anchor="middle" x="232.5" y="-68.5" font-family="Helvetica,sans-Serif" font-size="10.00">&lt; json_ref&lt; T &gt; &gt;</text>
</a>
</g>
</g>
<!-- Node0&#45;&gt;Node20 -->
<g id="edge20" class="edge">
<title>Node0&#45;&gt;Node20</title>
<path fill="none" stroke="#63b8ff" d="M41.54,-368.4C49.07,-308.14 73.18,-140.19 112,-103 131.44,-84.38 161,-78.08 185.86,-76.46"/>
<polygon fill="#63b8ff" stroke="#63b8ff" points="38.1,-367.68 40.37,-378.03 45.05,-368.53 38.1,-367.68"/>
</g>
<!-- Node21 -->
<g id="node22" class="node">
<title>Node21</title>
<g id="a_node22"><a xlink:href="structdetail_1_1is__specialization__of_3_01Primary_00_01Primary_3_01Args_8_8_8_01_4_01_4.html" target="_top" xlink:title=" ">
<polygon fill="white" stroke="#666666" points="291.12,-44 173.88,-44 173.88,0 291.12,0 291.12,-44"/>
<text text-anchor="start" x="181.88" y="-30.5" font-family="Helvetica,sans-Serif" font-size="10.00">detail::is_specialization</text>
<text text-anchor="start" x="181.88" y="-18.5" font-family="Helvetica,sans-Serif" font-size="10.00">_of&lt; Primary, Primary&lt;</text>
<text text-anchor="middle" x="232.5" y="-6.5" font-family="Helvetica,sans-Serif" font-size="10.00"> Args... &gt; &gt;</text>
</a>
</g>
</g>
<!-- Node0&#45;&gt;Node21 -->
<g id="edge21" class="edge">
<title>Node0&#45;&gt;Node21</title>
<path fill="none" stroke="#63b8ff" d="M40.77,-368.36C46.67,-301.34 67.88,-98.94 112,-53 127.96,-36.38 151.59,-28.25 173.63,-24.42"/>
<polygon fill="#63b8ff" stroke="#63b8ff" points="37.3,-367.79 39.94,-378.05 44.28,-368.38 37.3,-367.79"/>
</g>
<!-- Node2 -->
<g id="node3" class="node">
<title>Node2</title>
<g id="a_node3"><a xlink:href="structdetail_1_1is__constructible__tuple_3_01T1_00_01std_1_1tuple_3_01Args_8_8_8_01_4_01_4.html" target="_top" xlink:title=" ">
<polygon fill="white" stroke="#666666" points="502.5,-836 389,-836 389,-792 502.5,-792 502.5,-836"/>
<text text-anchor="start" x="397" y="-822.5" font-family="Helvetica,sans-Serif" font-size="10.00">detail::is_constructible</text>
<text text-anchor="start" x="397" y="-810.5" font-family="Helvetica,sans-Serif" font-size="10.00">_tuple&lt; T1, std::tuple</text>
<text text-anchor="middle" x="445.75" y="-798.5" font-family="Helvetica,sans-Serif" font-size="10.00">&lt; Args... &gt; &gt;</text>
</a>
</g>
</g>
<!-- Node1&#45;&gt;Node2 -->
<g id="edge2" class="edge">
<title>Node1&#45;&gt;Node2</title>
<path fill="none" stroke="#63b8ff" d="M293.61,-796.11C323.45,-799.64 359.27,-803.88 388.55,-807.35"/>
<polygon fill="#63b8ff" stroke="#63b8ff" points="294.34,-792.68 284,-794.98 293.52,-799.63 294.34,-792.68"/>
</g>
<!-- Node4 -->
<g id="node5" class="node">
<title>Node4</title>
<g id="a_node5"><a xlink:href="structdetail_1_1is__default__constructible_3_01const_01std_1_1pair_3_01T1_00_01T2_01_4_01_4.html" target="_top" xlink:title=" ">
<polygon fill="white" stroke="#666666" points="500.62,-774 390.88,-774 390.88,-730 500.62,-730 500.62,-774"/>
<text text-anchor="start" x="398.88" y="-760.5" font-family="Helvetica,sans-Serif" font-size="10.00">detail::is_default</text>
<text text-anchor="start" x="398.88" y="-748.5" font-family="Helvetica,sans-Serif" font-size="10.00">_constructible&lt; const</text>
<text text-anchor="middle" x="445.75" y="-736.5" font-family="Helvetica,sans-Serif" font-size="10.00"> std::pair&lt; T1, T2 &gt; &gt;</text>
</a>
</g>
</g>
<!-- Node3&#45;&gt;Node4 -->
<g id="edge4" class="edge">
<title>Node3&#45;&gt;Node4</title>
<path fill="none" stroke="#63b8ff" d="M320.85,-719.16C344.43,-725.41 369.26,-731.99 390.45,-737.61"/>
<polygon fill="#63b8ff" stroke="#63b8ff" points="321.79,-715.78 311.23,-716.61 320,-722.55 321.79,-715.78"/>
</g>
<!-- Node6 -->
<g id="node7" class="node">
<title>Node6</title>
<g id="a_node7"><a xlink:href="structdetail_1_1is__default__constructible_3_01std_1_1pair_3_01T1_00_01T2_01_4_01_4.html" target="_top" xlink:title=" ">
<polygon fill="white" stroke="#666666" points="495.38,-712 396.12,-712 396.12,-668 495.38,-668 495.38,-712"/>
<text text-anchor="start" x="404.12" y="-698.5" font-family="Helvetica,sans-Serif" font-size="10.00">detail::is_default</text>
<text text-anchor="start" x="404.12" y="-686.5" font-family="Helvetica,sans-Serif" font-size="10.00">_constructible&lt; std</text>
<text text-anchor="middle" x="445.75" y="-674.5" font-family="Helvetica,sans-Serif" font-size="10.00">::pair&lt; T1, T2 &gt; &gt;</text>
</a>
</g>
</g>
<!-- Node3&#45;&gt;Node6 -->
<g id="edge6" class="edge">
<title>Node3&#45;&gt;Node6</title>
<path fill="none" stroke="#63b8ff" d="M321.01,-693.51C346.59,-692.79 373.64,-692.02 395.9,-691.39"/>
<polygon fill="#63b8ff" stroke="#63b8ff" points="321.18,-690.01 311.28,-693.79 321.37,-697.01 321.18,-690.01"/>
</g>
<!-- Node5 -->
<g id="node6" class="node">
<title>Node5</title>
<g id="a_node6"><a xlink:href="structdetail_1_1is__constructible_3_01const_01std_1_1pair_3_01T1_00_01T2_01_4_01_4.html" target="_top" xlink:title=" ">
<polygon fill="white" stroke="#666666" points="681.25,-768 538.5,-768 538.5,-736 681.25,-736 681.25,-768"/>
<text text-anchor="start" x="546.5" y="-754.5" font-family="Helvetica,sans-Serif" font-size="10.00">detail::is_constructible</text>
<text text-anchor="middle" x="609.88" y="-742.5" font-family="Helvetica,sans-Serif" font-size="10.00">&lt; const std::pair&lt; T1, T2 &gt; &gt;</text>
</a>
</g>
</g>
<!-- Node4&#45;&gt;Node5 -->
<g id="edge5" class="edge">
<title>Node4&#45;&gt;Node5</title>
<path fill="none" stroke="#63b8ff" d="M512.19,-752C520.72,-752 529.49,-752 538.11,-752"/>
<polygon fill="#63b8ff" stroke="#63b8ff" points="512.25,-748.5 502.25,-752 512.25,-755.5 512.25,-748.5"/>
</g>
<!-- Node7 -->
<g id="node8" class="node">
<title>Node7</title>
<g id="a_node8"><a xlink:href="structdetail_1_1is__constructible_3_01std_1_1pair_3_01T1_00_01T2_01_4_01_4.html" target="_top" xlink:title=" ">
<polygon fill="white" stroke="#666666" points="667.75,-706 552,-706 552,-674 667.75,-674 667.75,-706"/>
<text text-anchor="start" x="560" y="-692.5" font-family="Helvetica,sans-Serif" font-size="10.00">detail::is_constructible</text>
<text text-anchor="middle" x="609.88" y="-680.5" font-family="Helvetica,sans-Serif" font-size="10.00">&lt; std::pair&lt; T1, T2 &gt; &gt;</text>
</a>
</g>
</g>
<!-- Node6&#45;&gt;Node7 -->
<g id="edge7" class="edge">
<title>Node6&#45;&gt;Node7</title>
<path fill="none" stroke="#63b8ff" d="M507.26,-690C521.81,-690 537.31,-690 551.7,-690"/>
<polygon fill="#63b8ff" stroke="#63b8ff" points="507.35,-686.5 497.35,-690 507.35,-693.5 507.35,-686.5"/>
</g>
<!-- Node9 -->
<g id="node10" class="node">
<title>Node9</title>
<g id="a_node10"><a xlink:href="structdetail_1_1is__default__constructible_3_01const_01std_1_1tuple_3_01Ts_8_8_8_01_4_01_4.html" target="_top" xlink:title=" ">
<polygon fill="white" stroke="#666666" points="500.62,-650 390.88,-650 390.88,-606 500.62,-606 500.62,-650"/>
<text text-anchor="start" x="398.88" y="-636.5" font-family="Helvetica,sans-Serif" font-size="10.00">detail::is_default</text>
<text text-anchor="start" x="398.88" y="-624.5" font-family="Helvetica,sans-Serif" font-size="10.00">_constructible&lt; const</text>
<text text-anchor="middle" x="445.75" y="-612.5" font-family="Helvetica,sans-Serif" font-size="10.00"> std::tuple&lt; Ts... &gt; &gt;</text>
</a>
</g>
</g>
<!-- Node8&#45;&gt;Node9 -->
<g id="edge9" class="edge">
<title>Node8&#45;&gt;Node9</title>
<path fill="none" stroke="#63b8ff" d="M308.04,-628C335.24,-628 365.46,-628 390.55,-628"/>
<polygon fill="#63b8ff" stroke="#63b8ff" points="308.11,-624.5 298.11,-628 308.11,-631.5 308.11,-624.5"/>
</g>
<!-- Node11 -->
<g id="node12" class="node">
<title>Node11</title>
<g id="a_node12"><a xlink:href="structdetail_1_1is__default__constructible_3_01std_1_1tuple_3_01Ts_8_8_8_01_4_01_4.html" target="_top" xlink:title=" ">
<polygon fill="white" stroke="#666666" points="495.38,-588 396.12,-588 396.12,-544 495.38,-544 495.38,-588"/>
<text text-anchor="start" x="404.12" y="-574.5" font-family="Helvetica,sans-Serif" font-size="10.00">detail::is_default</text>
<text text-anchor="start" x="404.12" y="-562.5" font-family="Helvetica,sans-Serif" font-size="10.00">_constructible&lt; std</text>
<text text-anchor="middle" x="445.75" y="-550.5" font-family="Helvetica,sans-Serif" font-size="10.00">::tuple&lt; Ts... &gt; &gt;</text>
</a>
</g>
</g>
<!-- Node8&#45;&gt;Node11 -->
<g id="edge11" class="edge">
<title>Node8&#45;&gt;Node11</title>
<path fill="none" stroke="#63b8ff" d="M307.54,-609.68C322.64,-605.7 338.37,-601.36 353,-597 367.02,-592.82 382.1,-587.9 395.91,-583.23"/>
<polygon fill="#63b8ff" stroke="#63b8ff" points="306.94,-606.22 298.15,-612.13 308.71,-612.99 306.94,-606.22"/>
</g>
<!-- Node10 -->
<g id="node11" class="node">
<title>Node10</title>
<g id="a_node11"><a xlink:href="structdetail_1_1is__constructible_3_01const_01std_1_1tuple_3_01Ts_8_8_8_01_4_01_4.html" target="_top" xlink:title=" ">
<polygon fill="white" stroke="#666666" points="679,-644 540.75,-644 540.75,-612 679,-612 679,-644"/>
<text text-anchor="start" x="548.75" y="-630.5" font-family="Helvetica,sans-Serif" font-size="10.00">detail::is_constructible</text>
<text text-anchor="middle" x="609.88" y="-618.5" font-family="Helvetica,sans-Serif" font-size="10.00">&lt; const std::tuple&lt; Ts... &gt; &gt;</text>
</a>
</g>
</g>
<!-- Node9&#45;&gt;Node10 -->
<g id="edge10" class="edge">
<title>Node9&#45;&gt;Node10</title>
<path fill="none" stroke="#63b8ff" d="M511.97,-628C521.34,-628 530.99,-628 540.42,-628"/>
<polygon fill="#63b8ff" stroke="#63b8ff" points="512.25,-624.5 502.25,-628 512.25,-631.5 512.25,-624.5"/>
</g>
<!-- Node12 -->
<g id="node13" class="node">
<title>Node12</title>
<g id="a_node13"><a xlink:href="structdetail_1_1is__constructible_3_01std_1_1tuple_3_01Ts_8_8_8_01_4_01_4.html" target="_top" xlink:title=" ">
<polygon fill="white" stroke="#666666" points="666.62,-582 553.12,-582 553.12,-550 666.62,-550 666.62,-582"/>
<text text-anchor="start" x="561.12" y="-568.5" font-family="Helvetica,sans-Serif" font-size="10.00">detail::is_constructible</text>
<text text-anchor="middle" x="609.88" y="-556.5" font-family="Helvetica,sans-Serif" font-size="10.00">&lt; std::tuple&lt; Ts... &gt; &gt;</text>
</a>
</g>
</g>
<!-- Node11&#45;&gt;Node12 -->
<g id="edge12" class="edge">
<title>Node11&#45;&gt;Node12</title>
<path fill="none" stroke="#63b8ff" d="M507.07,-566C522.06,-566 538.08,-566 552.86,-566"/>
<polygon fill="#63b8ff" stroke="#63b8ff" points="507.35,-562.5 497.35,-566 507.35,-569.5 507.35,-562.5"/>
</g>
</g>
</svg>
