<?xml version="1.0" encoding="UTF-8" standalone="no"?>
<!DOCTYPE svg PUBLIC "-//W3C//DTD SVG 1.1//EN"
 "http://www.w3.org/Graphics/SVG/1.1/DTD/svg11.dtd">
<!-- Generated by graphviz version 12.2.1 (20241206.2353)
 -->
<!-- Title: include/nlohmann/json.hpp Pages: 1 -->
<svg width="2337pt" height="84pt"
 viewBox="0.00 0.00 2336.75 84.00" xmlns="http://www.w3.org/2000/svg" xmlns:xlink="http://www.w3.org/1999/xlink">
<g id="graph0" class="graph" transform="scale(1 1) rotate(0) translate(4 80)">
<title>include/nlohmann/json.hpp</title>
<!-- Node1 -->
<g id="node1" class="node">
<title>Node1</title>
<g id="a_node1"><a xlink:title=" ">
<polygon fill="#999999" stroke="#666666" points="1269.62,-76 1138.12,-76 1138.12,-56 1269.62,-56 1269.62,-76"/>
<text text-anchor="middle" x="1203.88" y="-62.5" font-family="Helvetica,sans-Serif" font-size="10.00">include/nlohmann/json.hpp</text>
</a>
</g>
</g>
<!-- Node2 -->
<g id="node2" class="node">
<title>Node2</title>
<g id="a_node2"><a xlink:title=" ">
<polygon fill="#e0e0e0" stroke="#999999" points="55.75,-20 0,-20 0,0 55.75,0 55.75,-20"/>
<text text-anchor="middle" x="27.88" y="-6.5" font-family="Helvetica,sans-Serif" font-size="10.00">algorithm</text>
</a>
</g>
</g>
<!-- Node1&#45;&gt;Node2 -->
<g id="edge1" class="edge">
<title>Node1&#45;&gt;Node2</title>
<path fill="none" stroke="#63b8ff" d="M1137.79,-64.12C930.81,-61.09 295.78,-49.68 67.27,-19.98"/>
<polygon fill="#63b8ff" stroke="#63b8ff" points="67.92,-16.54 57.54,-18.67 66.98,-23.48 67.92,-16.54"/>
</g>
<!-- Node3 -->
<g id="node3" class="node">
<title>Node3</title>
<g id="a_node3"><a xlink:title=" ">
<polygon fill="#e0e0e0" stroke="#999999" points="122,-20 73.75,-20 73.75,0 122,0 122,-20"/>
<text text-anchor="middle" x="97.88" y="-6.5" font-family="Helvetica,sans-Serif" font-size="10.00">cstddef</text>
</a>
</g>
</g>
<!-- Node1&#45;&gt;Node3 -->
<g id="edge2" class="edge">
<title>Node1&#45;&gt;Node3</title>
<path fill="none" stroke="#63b8ff" d="M1137.7,-64.17C938.85,-61.36 347.68,-50.75 133.39,-19.97"/>
<polygon fill="#63b8ff" stroke="#63b8ff" points="134.16,-16.55 123.75,-18.53 133.12,-23.47 134.16,-16.55"/>
</g>
<!-- Node4 -->
<g id="node4" class="node">
<title>Node4</title>
<g id="a_node4"><a xlink:title=" ">
<polygon fill="#e0e0e0" stroke="#999999" points="197.88,-20 139.88,-20 139.88,0 197.88,0 197.88,-20"/>
<text text-anchor="middle" x="168.88" y="-6.5" font-family="Helvetica,sans-Serif" font-size="10.00">functional</text>
</a>
</g>
</g>
<!-- Node1&#45;&gt;Node4 -->
<g id="edge3" class="edge">
<title>Node1&#45;&gt;Node4</title>
<path fill="none" stroke="#63b8ff" d="M1137.7,-63.63C948.83,-59.48 408.59,-45.77 209.44,-20.04"/>
<polygon fill="#63b8ff" stroke="#63b8ff" points="210.11,-16.6 199.73,-18.73 209.17,-23.53 210.11,-16.6"/>
</g>
<!-- Node5 -->
<g id="node5" class="node">
<title>Node5</title>
<g id="a_node5"><a xlink:title=" ">
<polygon fill="#e0e0e0" stroke="#999999" points="288,-20 215.75,-20 215.75,0 288,0 288,-20"/>
<text text-anchor="middle" x="251.88" y="-6.5" font-family="Helvetica,sans-Serif" font-size="10.00">initializer_list</text>
</a>
</g>
</g>
<!-- Node1&#45;&gt;Node5 -->
<g id="edge4" class="edge">
<title>Node1&#45;&gt;Node5</title>
<path fill="none" stroke="#63b8ff" d="M1137.86,-65.06C989.6,-64.47 618.81,-58.99 299.49,-20.13"/>
<polygon fill="#63b8ff" stroke="#63b8ff" points="300,-16.67 289.65,-18.92 299.15,-23.61 300,-16.67"/>
</g>
<!-- Node6 -->
<g id="node6" class="node">
<title>Node6</title>
<g id="a_node6"><a xlink:title=" ">
<polygon fill="#e0e0e0" stroke="#999999" points="350.12,-20 305.62,-20 305.62,0 350.12,0 350.12,-20"/>
<text text-anchor="middle" x="327.88" y="-6.5" font-family="Helvetica,sans-Serif" font-size="10.00">iosfwd</text>
</a>
</g>
</g>
<!-- Node1&#45;&gt;Node6 -->
<g id="edge5" class="edge">
<title>Node1&#45;&gt;Node6</title>
<path fill="none" stroke="#63b8ff" d="M1137.78,-63.44C969.91,-59.17 529.19,-45.96 361.76,-20.04"/>
<polygon fill="#63b8ff" stroke="#63b8ff" points="362.35,-16.59 351.92,-18.44 361.22,-23.5 362.35,-16.59"/>
</g>
<!-- Node7 -->
<g id="node7" class="node">
<title>Node7</title>
<g id="a_node7"><a xlink:title=" ">
<polygon fill="#e0e0e0" stroke="#999999" points="413.88,-20 367.88,-20 367.88,0 413.88,0 413.88,-20"/>
<text text-anchor="middle" x="390.88" y="-6.5" font-family="Helvetica,sans-Serif" font-size="10.00">iterator</text>
</a>
</g>
</g>
<!-- Node1&#45;&gt;Node7 -->
<g id="edge6" class="edge">
<title>Node1&#45;&gt;Node7</title>
<path fill="none" stroke="#63b8ff" d="M1137.8,-63.03C979.31,-58.03 579.82,-43.63 425.29,-19.97"/>
<polygon fill="#63b8ff" stroke="#63b8ff" points="426.08,-16.55 415.66,-18.42 424.97,-23.47 426.08,-16.55"/>
</g>
<!-- Node8 -->
<g id="node8" class="node">
<title>Node8</title>
<g id="a_node8"><a xlink:title=" ">
<polygon fill="#e0e0e0" stroke="#999999" points="483.5,-20 432.25,-20 432.25,0 483.5,0 483.5,-20"/>
<text text-anchor="middle" x="457.88" y="-6.5" font-family="Helvetica,sans-Serif" font-size="10.00">memory</text>
</a>
</g>
</g>
<!-- Node1&#45;&gt;Node8 -->
<g id="edge7" class="edge">
<title>Node1&#45;&gt;Node8</title>
<path fill="none" stroke="#63b8ff" d="M1137.74,-64.96C1013.46,-63.98 736.57,-57.53 494.87,-19.99"/>
<polygon fill="#63b8ff" stroke="#63b8ff" points="495.67,-16.57 485.25,-18.47 494.58,-23.48 495.67,-16.57"/>
</g>
<!-- Node9 -->
<g id="node9" class="node">
<title>Node9</title>
<g id="a_node9"><a xlink:title=" ">
<polygon fill="#e0e0e0" stroke="#999999" points="541.88,-20 501.88,-20 501.88,0 541.88,0 541.88,-20"/>
<text text-anchor="middle" x="521.88" y="-6.5" font-family="Helvetica,sans-Serif" font-size="10.00">string</text>
</a>
</g>
</g>
<!-- Node1&#45;&gt;Node9 -->
<g id="edge8" class="edge">
<title>Node1&#45;&gt;Node9</title>
<path fill="none" stroke="#63b8ff" d="M1137.9,-65.48C1021.3,-65.24 771.31,-59.82 553.33,-20.03"/>
<polygon fill="#63b8ff" stroke="#63b8ff" points="554.28,-16.65 543.81,-18.27 553,-23.53 554.28,-16.65"/>
</g>
<!-- Node10 -->
<g id="node10" class="node">
<title>Node10</title>
<g id="a_node10"><a xlink:title=" ">
<polygon fill="#e0e0e0" stroke="#999999" points="599.5,-20 560.25,-20 560.25,0 599.5,0 599.5,-20"/>
<text text-anchor="middle" x="579.88" y="-6.5" font-family="Helvetica,sans-Serif" font-size="10.00">utility</text>
</a>
</g>
</g>
<!-- Node1&#45;&gt;Node10 -->
<g id="edge9" class="edge">
<title>Node1&#45;&gt;Node10</title>
<path fill="none" stroke="#63b8ff" d="M1137.94,-65.07C1029.37,-64.07 806.28,-57.41 610.96,-20.21"/>
<polygon fill="#63b8ff" stroke="#63b8ff" points="611.88,-16.82 601.4,-18.35 610.55,-23.69 611.88,-16.82"/>
</g>
<!-- Node11 -->
<g id="node11" class="node">
<title>Node11</title>
<g id="a_node11"><a xlink:title=" ">
<polygon fill="#e0e0e0" stroke="#999999" points="660.38,-20 617.38,-20 617.38,0 660.38,0 660.38,-20"/>
<text text-anchor="middle" x="638.88" y="-6.5" font-family="Helvetica,sans-Serif" font-size="10.00">vector</text>
</a>
</g>
</g>
<!-- Node1&#45;&gt;Node11 -->
<g id="edge10" class="edge">
<title>Node1&#45;&gt;Node11</title>
<path fill="none" stroke="#63b8ff" d="M1137.81,-63.84C1038.32,-61.13 844.14,-52.09 671.76,-20.2"/>
<polygon fill="#63b8ff" stroke="#63b8ff" points="672.66,-16.81 662.19,-18.4 671.37,-23.69 672.66,-16.81"/>
</g>
<!-- Node12 -->
<g id="node12" class="node">
<title>Node12</title>
<g id="a_node12"><a xlink:title=" ">
<polygon fill="#e0e0e0" stroke="#999999" points="715.75,-20 678,-20 678,0 715.75,0 715.75,-20"/>
<text text-anchor="middle" x="696.88" y="-6.5" font-family="Helvetica,sans-Serif" font-size="10.00">array</text>
</a>
</g>
</g>
<!-- Node1&#45;&gt;Node12 -->
<g id="edge11" class="edge">
<title>Node1&#45;&gt;Node12</title>
<path fill="none" stroke="#63b8ff" d="M1137.74,-63.32C1046.89,-60.01 878.44,-50.31 726.89,-19.97"/>
<polygon fill="#63b8ff" stroke="#63b8ff" points="727.99,-16.63 717.49,-18.06 726.59,-23.49 727.99,-16.63"/>
</g>
<!-- Node13 -->
<g id="node13" class="node">
<title>Node13</title>
<g id="a_node13"><a xlink:title=" ">
<polygon fill="#e0e0e0" stroke="#999999" points="800,-20 733.75,-20 733.75,0 800,0 800,-20"/>
<text text-anchor="middle" x="766.88" y="-6.5" font-family="Helvetica,sans-Serif" font-size="10.00">forward_list</text>
</a>
</g>
</g>
<!-- Node1&#45;&gt;Node13 -->
<g id="edge12" class="edge">
<title>Node1&#45;&gt;Node13</title>
<path fill="none" stroke="#63b8ff" d="M1137.74,-59.33C1061.63,-52.39 932.67,-39.33 811.48,-20.1"/>
<polygon fill="#63b8ff" stroke="#63b8ff" points="812.08,-16.65 801.65,-18.52 810.97,-23.56 812.08,-16.65"/>
</g>
<!-- Node14 -->
<g id="node14" class="node">
<title>Node14</title>
<g id="a_node14"><a xlink:title=" ">
<polygon fill="#e0e0e0" stroke="#999999" points="853.25,-20 818.5,-20 818.5,0 853.25,0 853.25,-20"/>
<text text-anchor="middle" x="835.88" y="-6.5" font-family="Helvetica,sans-Serif" font-size="10.00">map</text>
</a>
</g>
</g>
<!-- Node1&#45;&gt;Node14 -->
<g id="edge13" class="edge">
<title>Node1&#45;&gt;Node14</title>
<path fill="none" stroke="#63b8ff" d="M1137.92,-60.31C1071.02,-54.65 964.48,-43.21 864.81,-20.3"/>
<polygon fill="#63b8ff" stroke="#63b8ff" points="865.65,-16.9 855.11,-18.03 864.05,-23.72 865.65,-16.9"/>
</g>
<!-- Node15 -->
<g id="node15" class="node">
<title>Node15</title>
<g id="a_node15"><a xlink:title=" ">
<polygon fill="#e0e0e0" stroke="#999999" points="908.38,-20 871.38,-20 871.38,0 908.38,0 908.38,-20"/>
<text text-anchor="middle" x="889.88" y="-6.5" font-family="Helvetica,sans-Serif" font-size="10.00">tuple</text>
</a>
</g>
</g>
<!-- Node1&#45;&gt;Node15 -->
<g id="edge14" class="edge">
<title>Node1&#45;&gt;Node15</title>
<path fill="none" stroke="#63b8ff" d="M1137.72,-57.8C1081.67,-50.98 999.08,-39.24 919.36,-20.3"/>
<polygon fill="#63b8ff" stroke="#63b8ff" points="920.66,-17.01 910.11,-18.06 919.01,-23.81 920.66,-17.01"/>
</g>
<!-- Node16 -->
<g id="node16" class="node">
<title>Node16</title>
<g id="a_node16"><a xlink:title=" ">
<polygon fill="#e0e0e0" stroke="#999999" points="987.75,-20 926,-20 926,0 987.75,0 987.75,-20"/>
<text text-anchor="middle" x="956.88" y="-6.5" font-family="Helvetica,sans-Serif" font-size="10.00">type_traits</text>
</a>
</g>
</g>
<!-- Node1&#45;&gt;Node16 -->
<g id="edge15" class="edge">
<title>Node1&#45;&gt;Node16</title>
<path fill="none" stroke="#63b8ff" d="M1159.84,-55.52C1120.29,-46.99 1060.34,-34.01 998.95,-20.45"/>
<polygon fill="#63b8ff" stroke="#63b8ff" points="999.88,-17.07 989.36,-18.33 998.37,-23.9 999.88,-17.07"/>
</g>
<!-- Node17 -->
<g id="node17" class="node">
<title>Node17</title>
<g id="a_node17"><a xlink:title=" ">
<polygon fill="#e0e0e0" stroke="#999999" points="1088.25,-20 1005.5,-20 1005.5,0 1088.25,0 1088.25,-20"/>
<text text-anchor="middle" x="1046.88" y="-6.5" font-family="Helvetica,sans-Serif" font-size="10.00">unordered_map</text>
</a>
</g>
</g>
<!-- Node1&#45;&gt;Node17 -->
<g id="edge16" class="edge">
<title>Node1&#45;&gt;Node17</title>
<path fill="none" stroke="#63b8ff" d="M1176.53,-55.59C1151.24,-46.9 1113.42,-33.89 1085.14,-24.16"/>
<polygon fill="#63b8ff" stroke="#63b8ff" points="1086.46,-20.91 1075.87,-20.97 1084.18,-27.53 1086.46,-20.91"/>
</g>
<!-- Node18 -->
<g id="node18" class="node">
<title>Node18</title>
<g id="a_node18"><a xlink:title=" ">
<polygon fill="#e0e0e0" stroke="#999999" points="1157.12,-20 1106.62,-20 1106.62,0 1157.12,0 1157.12,-20"/>
<text text-anchor="middle" x="1131.88" y="-6.5" font-family="Helvetica,sans-Serif" font-size="10.00">valarray</text>
</a>
</g>
</g>
<!-- Node1&#45;&gt;Node18 -->
<g id="edge17" class="edge">
<title>Node1&#45;&gt;Node18</title>
<path fill="none" stroke="#63b8ff" d="M1191.33,-55.59C1180.91,-47.77 1165.83,-36.46 1153.46,-27.19"/>
<polygon fill="#63b8ff" stroke="#63b8ff" points="1155.58,-24.41 1145.48,-21.21 1151.38,-30.01 1155.58,-24.41"/>
</g>
<!-- Node19 -->
<g id="node19" class="node">
<title>Node19</title>
<g id="a_node19"><a xlink:title=" ">
<polygon fill="#e0e0e0" stroke="#999999" points="1232.88,-20 1174.88,-20 1174.88,0 1232.88,0 1232.88,-20"/>
<text text-anchor="middle" x="1203.88" y="-6.5" font-family="Helvetica,sans-Serif" font-size="10.00">exception</text>
</a>
</g>
</g>
<!-- Node1&#45;&gt;Node19 -->
<g id="edge18" class="edge">
<title>Node1&#45;&gt;Node19</title>
<path fill="none" stroke="#63b8ff" d="M1203.88,-55.59C1203.88,-49.01 1203.88,-39.96 1203.88,-31.73"/>
<polygon fill="#63b8ff" stroke="#63b8ff" points="1207.38,-31.81 1203.88,-21.81 1200.38,-31.81 1207.38,-31.81"/>
</g>
<!-- Node20 -->
<g id="node20" class="node">
<title>Node20</title>
<g id="a_node20"><a xlink:title=" ">
<polygon fill="#e0e0e0" stroke="#999999" points="1309.25,-20 1250.5,-20 1250.5,0 1309.25,0 1309.25,-20"/>
<text text-anchor="middle" x="1279.88" y="-6.5" font-family="Helvetica,sans-Serif" font-size="10.00">stdexcept</text>
</a>
</g>
</g>
<!-- Node1&#45;&gt;Node20 -->
<g id="edge19" class="edge">
<title>Node1&#45;&gt;Node20</title>
<path fill="none" stroke="#63b8ff" d="M1217.11,-55.59C1228.16,-47.74 1244.16,-36.38 1257.23,-27.09"/>
<polygon fill="#63b8ff" stroke="#63b8ff" points="1259.18,-30 1265.3,-21.36 1255.12,-24.3 1259.18,-30"/>
</g>
<!-- Node21 -->
<g id="node21" class="node">
<title>Node21</title>
<g id="a_node21"><a xlink:title=" ">
<polygon fill="#e0e0e0" stroke="#999999" points="1372.5,-20 1327.25,-20 1327.25,0 1372.5,0 1372.5,-20"/>
<text text-anchor="middle" x="1349.88" y="-6.5" font-family="Helvetica,sans-Serif" font-size="10.00">cstdint</text>
</a>
</g>
</g>
<!-- Node1&#45;&gt;Node21 -->
<g id="edge20" class="edge">
<title>Node1&#45;&gt;Node21</title>
<path fill="none" stroke="#63b8ff" d="M1229.31,-55.59C1253.47,-46.66 1289.95,-33.17 1316.45,-23.36"/>
<polygon fill="#63b8ff" stroke="#63b8ff" points="1317.55,-26.69 1325.71,-19.94 1315.12,-20.12 1317.55,-26.69"/>
</g>
<!-- Node22 -->
<g id="node22" class="node">
<title>Node22</title>
<g id="a_node22"><a xlink:title=" ">
<polygon fill="#e0e0e0" stroke="#999999" points="1435.12,-20 1390.62,-20 1390.62,0 1435.12,0 1435.12,-20"/>
<text text-anchor="middle" x="1412.88" y="-6.5" font-family="Helvetica,sans-Serif" font-size="10.00">cstdlib</text>
</a>
</g>
</g>
<!-- Node1&#45;&gt;Node22 -->
<g id="edge21" class="edge">
<title>Node1&#45;&gt;Node22</title>
<path fill="none" stroke="#63b8ff" d="M1242.87,-55.56C1276.67,-47.28 1327.16,-34.7 1379.4,-20.61"/>
<polygon fill="#63b8ff" stroke="#63b8ff" points="1380.02,-24.07 1388.75,-18.07 1378.19,-17.31 1380.02,-24.07"/>
</g>
<!-- Node23 -->
<g id="node23" class="node">
<title>Node23</title>
<g id="a_node23"><a xlink:title=" ">
<polygon fill="#e0e0e0" stroke="#999999" points="1501,-20 1452.75,-20 1452.75,0 1501,0 1501,-20"/>
<text text-anchor="middle" x="1476.88" y="-6.5" font-family="Helvetica,sans-Serif" font-size="10.00">cassert</text>
</a>
</g>
</g>
<!-- Node1&#45;&gt;Node23 -->
<g id="edge22" class="edge">
<title>Node1&#45;&gt;Node23</title>
<path fill="none" stroke="#63b8ff" d="M1261.37,-55.57C1307.58,-47.68 1374.4,-35.6 1441.26,-20.46"/>
<polygon fill="#63b8ff" stroke="#63b8ff" points="1441.98,-23.89 1450.95,-18.24 1440.42,-17.06 1441.98,-23.89"/>
</g>
<!-- Node24 -->
<g id="node24" class="node">
<title>Node24</title>
<g id="a_node24"><a xlink:title=" ">
<polygon fill="#e0e0e0" stroke="#999999" points="1558.5,-20 1519.25,-20 1519.25,0 1558.5,0 1558.5,-20"/>
<text text-anchor="middle" x="1538.88" y="-6.5" font-family="Helvetica,sans-Serif" font-size="10.00">limits</text>
</a>
</g>
</g>
<!-- Node1&#45;&gt;Node24 -->
<g id="edge23" class="edge">
<title>Node1&#45;&gt;Node24</title>
<path fill="none" stroke="#63b8ff" d="M1270.08,-58.26C1329.87,-51.5 1420.39,-39.59 1507.82,-20.14"/>
<polygon fill="#63b8ff" stroke="#63b8ff" points="1508.56,-23.56 1517.54,-17.94 1507.01,-16.74 1508.56,-23.56"/>
</g>
<!-- Node25 -->
<g id="node25" class="node">
<title>Node25</title>
<g id="a_node25"><a xlink:title=" ">
<polygon fill="#e0e0e0" stroke="#999999" points="1621.5,-20 1576.25,-20 1576.25,0 1621.5,0 1621.5,-20"/>
<text text-anchor="middle" x="1598.88" y="-6.5" font-family="Helvetica,sans-Serif" font-size="10.00">cstring</text>
</a>
</g>
</g>
<!-- Node1&#45;&gt;Node25 -->
<g id="edge24" class="edge">
<title>Node1&#45;&gt;Node25</title>
<path fill="none" stroke="#63b8ff" d="M1269.81,-60.03C1340.7,-53.98 1456.78,-42.02 1564.85,-20.36"/>
<polygon fill="#63b8ff" stroke="#63b8ff" points="1565.37,-23.83 1574.47,-18.4 1563.97,-16.97 1565.37,-23.83"/>
</g>
<!-- Node26 -->
<g id="node26" class="node">
<title>Node26</title>
<g id="a_node26"><a xlink:title=" ">
<polygon fill="#e0e0e0" stroke="#999999" points="1682.38,-20 1639.38,-20 1639.38,0 1682.38,0 1682.38,-20"/>
<text text-anchor="middle" x="1660.88" y="-6.5" font-family="Helvetica,sans-Serif" font-size="10.00">cmath</text>
</a>
</g>
</g>
<!-- Node1&#45;&gt;Node26 -->
<g id="edge25" class="edge">
<title>Node1&#45;&gt;Node26</title>
<path fill="none" stroke="#63b8ff" d="M1269.92,-61.86C1352.02,-57.12 1496.45,-45.99 1627.98,-20.27"/>
<polygon fill="#63b8ff" stroke="#63b8ff" points="1628.43,-23.75 1637.55,-18.36 1627.06,-16.88 1628.43,-23.75"/>
</g>
<!-- Node27 -->
<g id="node27" class="node">
<title>Node27</title>
<g id="a_node27"><a xlink:title=" ">
<polygon fill="#e0e0e0" stroke="#999999" points="1743,-20 1700.75,-20 1700.75,0 1743,0 1743,-20"/>
<text text-anchor="middle" x="1721.88" y="-6.5" font-family="Helvetica,sans-Serif" font-size="10.00">cstdio</text>
</a>
</g>
</g>
<!-- Node1&#45;&gt;Node27 -->
<g id="edge26" class="edge">
<title>Node1&#45;&gt;Node27</title>
<path fill="none" stroke="#63b8ff" d="M1269.98,-63.08C1362.14,-59.48 1534.47,-49.42 1689.26,-20.15"/>
<polygon fill="#63b8ff" stroke="#63b8ff" points="1689.73,-23.63 1698.89,-18.3 1688.41,-16.75 1689.73,-23.63"/>
</g>
<!-- Node28 -->
<g id="node28" class="node">
<title>Node28</title>
<g id="a_node28"><a xlink:title=" ">
<polygon fill="#e0e0e0" stroke="#999999" points="1811.12,-20 1760.62,-20 1760.62,0 1811.12,0 1811.12,-20"/>
<text text-anchor="middle" x="1785.88" y="-6.5" font-family="Helvetica,sans-Serif" font-size="10.00">numeric</text>
</a>
</g>
</g>
<!-- Node1&#45;&gt;Node28 -->
<g id="edge27" class="edge">
<title>Node1&#45;&gt;Node28</title>
<path fill="none" stroke="#63b8ff" d="M1269.72,-63.35C1370.98,-59.98 1571.06,-50.07 1749.2,-20.18"/>
<polygon fill="#63b8ff" stroke="#63b8ff" points="1749.6,-23.66 1758.87,-18.53 1748.42,-16.76 1749.6,-23.66"/>
</g>
<!-- Node29 -->
<g id="node29" class="node">
<title>Node29</title>
<g id="a_node29"><a xlink:title=" ">
<polygon fill="#e0e0e0" stroke="#999999" points="1888.62,-20 1829.12,-20 1829.12,0 1888.62,0 1888.62,-20"/>
<text text-anchor="middle" x="1858.88" y="-6.5" font-family="Helvetica,sans-Serif" font-size="10.00">streambuf</text>
</a>
</g>
</g>
<!-- Node1&#45;&gt;Node29 -->
<g id="edge28" class="edge">
<title>Node1&#45;&gt;Node29</title>
<path fill="none" stroke="#63b8ff" d="M1269.88,-63.51C1380.99,-60.26 1612.51,-50.38 1817.45,-20.13"/>
<polygon fill="#63b8ff" stroke="#63b8ff" points="1817.86,-23.61 1827.23,-18.66 1816.82,-16.68 1817.86,-23.61"/>
</g>
<!-- Node30 -->
<g id="node30" class="node">
<title>Node30</title>
<g id="a_node30"><a xlink:title=" ">
<polygon fill="#e0e0e0" stroke="#999999" points="1955,-20 1906.75,-20 1906.75,0 1955,0 1955,-20"/>
<text text-anchor="middle" x="1930.88" y="-6.5" font-family="Helvetica,sans-Serif" font-size="10.00">istream</text>
</a>
</g>
</g>
<!-- Node1&#45;&gt;Node30 -->
<g id="edge29" class="edge">
<title>Node1&#45;&gt;Node30</title>
<path fill="none" stroke="#63b8ff" d="M1269.92,-65.13C1391.96,-64.4 1660.94,-58.34 1895.35,-20.09"/>
<polygon fill="#63b8ff" stroke="#63b8ff" points="1895.7,-23.58 1905,-18.49 1894.56,-16.67 1895.7,-23.58"/>
</g>
<!-- Node31 -->
<g id="node31" class="node">
<title>Node31</title>
<g id="a_node31"><a xlink:title=" ">
<polygon fill="#e0e0e0" stroke="#999999" points="2020.25,-20 1973.5,-20 1973.5,0 2020.25,0 2020.25,-20"/>
<text text-anchor="middle" x="1996.88" y="-6.5" font-family="Helvetica,sans-Serif" font-size="10.00">clocale</text>
</a>
</g>
</g>
<!-- Node1&#45;&gt;Node31 -->
<g id="edge30" class="edge">
<title>Node1&#45;&gt;Node31</title>
<path fill="none" stroke="#63b8ff" d="M1269.95,-65.67C1400.62,-65.99 1701.19,-61.82 1962,-19.91"/>
<polygon fill="#63b8ff" stroke="#63b8ff" points="1962.41,-23.39 1971.72,-18.33 1961.28,-16.48 1962.41,-23.39"/>
</g>
<!-- Node32 -->
<g id="node32" class="node">
<title>Node32</title>
<g id="a_node32"><a xlink:title=" ">
<polygon fill="#e0e0e0" stroke="#999999" points="2083.5,-20 2038.25,-20 2038.25,0 2083.5,0 2083.5,-20"/>
<text text-anchor="middle" x="2060.88" y="-6.5" font-family="Helvetica,sans-Serif" font-size="10.00">cctype</text>
</a>
</g>
</g>
<!-- Node1&#45;&gt;Node32 -->
<g id="edge31" class="edge">
<title>Node1&#45;&gt;Node32</title>
<path fill="none" stroke="#63b8ff" d="M1269.93,-63.27C1434.86,-58.66 1862.61,-44.81 2026.6,-19.91"/>
<polygon fill="#63b8ff" stroke="#63b8ff" points="2027.12,-23.37 2036.44,-18.34 2026.02,-16.46 2027.12,-23.37"/>
</g>
<!-- Node33 -->
<g id="node33" class="node">
<title>Node33</title>
<g id="a_node33"><a xlink:title=" ">
<polygon fill="#e0e0e0" stroke="#999999" points="2144.38,-20 2101.38,-20 2101.38,0 2144.38,0 2144.38,-20"/>
<text text-anchor="middle" x="2122.88" y="-6.5" font-family="Helvetica,sans-Serif" font-size="10.00">cerrno</text>
</a>
</g>
</g>
<!-- Node1&#45;&gt;Node33 -->
<g id="edge32" class="edge">
<title>Node1&#45;&gt;Node33</title>
<path fill="none" stroke="#63b8ff" d="M1269.85,-63.72C1443.96,-60.01 1913.91,-47.86 2089.9,-20.06"/>
<polygon fill="#63b8ff" stroke="#63b8ff" points="2090.28,-23.54 2099.57,-18.45 2089.13,-16.64 2090.28,-23.54"/>
</g>
<!-- Node34 -->
<g id="node34" class="node">
<title>Node34</title>
<g id="a_node34"><a xlink:title=" ">
<polygon fill="#e0e0e0" stroke="#999999" points="2191.28,-20 2162.47,-20 2162.47,0 2191.28,0 2191.28,-20"/>
<text text-anchor="middle" x="2176.88" y="-6.5" font-family="Helvetica,sans-Serif" font-size="10.00">ios</text>
</a>
</g>
</g>
<!-- Node1&#45;&gt;Node34 -->
<g id="edge33" class="edge">
<title>Node1&#45;&gt;Node34</title>
<path fill="none" stroke="#63b8ff" d="M1270.11,-64.65C1453.09,-63.26 1963.82,-56.35 2150.94,-19.9"/>
<polygon fill="#63b8ff" stroke="#63b8ff" points="2151.42,-23.37 2160.52,-17.93 2150.02,-16.52 2151.42,-23.37"/>
</g>
<!-- Node35 -->
<g id="node35" class="node">
<title>Node35</title>
<g id="a_node35"><a xlink:title=" ">
<polygon fill="#e0e0e0" stroke="#999999" points="2260.5,-20 2209.25,-20 2209.25,0 2260.5,0 2260.5,-20"/>
<text text-anchor="middle" x="2234.88" y="-6.5" font-family="Helvetica,sans-Serif" font-size="10.00">ostream</text>
</a>
</g>
</g>
<!-- Node1&#45;&gt;Node35 -->
<g id="edge34" class="edge">
<title>Node1&#45;&gt;Node35</title>
<path fill="none" stroke="#63b8ff" d="M1270.01,-63.79C1458.75,-60.07 1998.61,-47.43 2197.79,-19.91"/>
<polygon fill="#63b8ff" stroke="#63b8ff" points="2198.11,-23.4 2207.51,-18.5 2197.11,-16.47 2198.11,-23.4"/>
</g>
<!-- Node36 -->
<g id="node36" class="node">
<title>Node36</title>
<g id="a_node36"><a xlink:title=" ">
<polygon fill="#e0e0e0" stroke="#999999" points="2328.75,-20 2279,-20 2279,0 2328.75,0 2328.75,-20"/>
<text text-anchor="middle" x="2303.88" y="-6.5" font-family="Helvetica,sans-Serif" font-size="10.00">iomanip</text>
</a>
</g>
</g>
<!-- Node1&#45;&gt;Node36 -->
<g id="edge35" class="edge">
<title>Node1&#45;&gt;Node36</title>
<path fill="none" stroke="#63b8ff" d="M1269.96,-64.08C1467.84,-61.05 2054.51,-49.86 2267.67,-19.92"/>
<polygon fill="#63b8ff" stroke="#63b8ff" points="2267.87,-23.43 2277.25,-18.52 2266.85,-16.51 2267.87,-23.43"/>
</g>
</g>
</svg>
