<?xml version="1.0" encoding="UTF-8" standalone="no"?>
<!DOCTYPE svg PUBLIC "-//W3C//DTD SVG 1.1//EN"
 "http://www.w3.org/Graphics/SVG/1.1/DTD/svg11.dtd">
<!-- Generated by graphviz version 12.2.1 (20241206.2353)
 -->
<!-- Title: main Pages: 1 -->
<svg width="331pt" height="66pt"
 viewBox="0.00 0.00 330.50 66.00" xmlns="http://www.w3.org/2000/svg" xmlns:xlink="http://www.w3.org/1999/xlink">
<g id="graph0" class="graph" transform="scale(1 1) rotate(0) translate(4 62)">
<title>main</title>
<!-- Node1 -->
<g id="node1" class="node">
<title>Node1</title>
<g id="a_node1"><a xlink:title=" ">
<polygon fill="#999999" stroke="#666666" points="37,-39 0,-39 0,-19 37,-19 37,-39"/>
<text text-anchor="middle" x="18.5" y="-25.5" font-family="Helvetica,sans-Serif" font-size="10.00">main</text>
</a>
</g>
</g>
<!-- Node2 -->
<g id="node2" class="node">
<title>Node2</title>
<g id="a_node2"><a xlink:href="classGameEngine.html#ab01970da2c68fefbf48b98c59d5627ae" target="_top" xlink:title=" ">
<polygon fill="white" stroke="#666666" points="164.75,-39 73,-39 73,-19 164.75,-19 164.75,-39"/>
<text text-anchor="middle" x="118.88" y="-25.5" font-family="Helvetica,sans-Serif" font-size="10.00">GameEngine::run</text>
</a>
</g>
</g>
<!-- Node1&#45;&gt;Node2 -->
<g id="edge1" class="edge">
<title>Node1&#45;&gt;Node2</title>
<path fill="none" stroke="#63b8ff" d="M37.09,-29C44.08,-29 52.56,-29 61.35,-29"/>
<polygon fill="#63b8ff" stroke="#63b8ff" points="61.06,-32.5 71.06,-29 61.06,-25.5 61.06,-32.5"/>
</g>
<!-- Node3 -->
<g id="node3" class="node">
<title>Node3</title>
<g id="a_node3"><a xlink:href="classGameEngine.html#ac7fe66907626424cd391f7b4692ba68e" target="_top" xlink:title=" ">
<polygon fill="white" stroke="#666666" points="322.5,-58 200.75,-58 200.75,-38 322.5,-38 322.5,-58"/>
<text text-anchor="middle" x="261.62" y="-44.5" font-family="Helvetica,sans-Serif" font-size="10.00">GameEngine::isRunning</text>
</a>
</g>
</g>
<!-- Node2&#45;&gt;Node3 -->
<g id="edge2" class="edge">
<title>Node2&#45;&gt;Node3</title>
<path fill="none" stroke="#63b8ff" d="M165.18,-35.12C172.78,-36.14 180.82,-37.23 188.88,-38.32"/>
<polygon fill="#63b8ff" stroke="#63b8ff" points="188.37,-41.78 198.75,-39.65 189.31,-34.84 188.37,-41.78"/>
</g>
<!-- Node4 -->
<g id="node4" class="node">
<title>Node4</title>
<g id="a_node4"><a xlink:href="classGameEngine.html#a28f41c8e2ee04b818b7458fd75d02e63" target="_top" xlink:title=" ">
<polygon fill="white" stroke="#666666" points="319.12,-20 204.12,-20 204.12,0 319.12,0 319.12,-20"/>
<text text-anchor="middle" x="261.62" y="-6.5" font-family="Helvetica,sans-Serif" font-size="10.00">GameEngine::sRender</text>
</a>
</g>
</g>
<!-- Node2&#45;&gt;Node4 -->
<g id="edge3" class="edge">
<title>Node2&#45;&gt;Node4</title>
<path fill="none" stroke="#63b8ff" d="M165.18,-22.88C173.93,-21.7 183.26,-20.44 192.54,-19.19"/>
<polygon fill="#63b8ff" stroke="#63b8ff" points="192.85,-22.68 202.29,-17.87 191.92,-15.74 192.85,-22.68"/>
</g>
</g>
</svg>
