<?xml version="1.0" encoding="UTF-8" standalone="no"?>
<!DOCTYPE svg PUBLIC "-//W3C//DTD SVG 1.1//EN"
 "http://www.w3.org/Graphics/SVG/1.1/DTD/svg11.dtd">
<!-- Generated by graphviz version 12.2.1 (20241206.2353)
 -->
<!-- Title: src/main.cpp Pages: 1 -->
<svg width="237pt" height="196pt"
 viewBox="0.00 0.00 236.75 196.00" xmlns="http://www.w3.org/2000/svg" xmlns:xlink="http://www.w3.org/1999/xlink">
<g id="graph0" class="graph" transform="scale(1 1) rotate(0) translate(4 192)">
<title>src/main.cpp</title>
<!-- Node1 -->
<g id="node1" class="node">
<title>Node1</title>
<g id="a_node1"><a xlink:title=" ">
<polygon fill="#999999" stroke="#666666" points="206.12,-188 133.88,-188 133.88,-168 206.12,-168 206.12,-188"/>
<text text-anchor="middle" x="170" y="-174.5" font-family="Helvetica,sans-Serif" font-size="10.00">src/main.cpp</text>
</a>
</g>
</g>
<!-- Node2 -->
<g id="node2" class="node">
<title>Node2</title>
<g id="a_node2"><a xlink:href="GrammarBicol_8h.html" target="_top" xlink:title=" ">
<polygon fill="white" stroke="#666666" points="178.25,-132 91.75,-132 91.75,-112 178.25,-112 178.25,-132"/>
<text text-anchor="middle" x="135" y="-118.5" font-family="Helvetica,sans-Serif" font-size="10.00">GrammarBicol.h</text>
</a>
</g>
</g>
<!-- Node1&#45;&gt;Node2 -->
<g id="edge1" class="edge">
<title>Node1&#45;&gt;Node2</title>
<path fill="none" stroke="#63b8ff" d="M163.9,-167.59C159.29,-160.47 152.79,-150.45 147.13,-141.72"/>
<polygon fill="#63b8ff" stroke="#63b8ff" points="150.23,-140.06 141.85,-133.57 144.35,-143.86 150.23,-140.06"/>
</g>
<!-- Node7 -->
<g id="node7" class="node">
<title>Node7</title>
<g id="a_node7"><a xlink:title=" ">
<polygon fill="#e0e0e0" stroke="#999999" points="228.75,-76 175.25,-76 175.25,-56 228.75,-56 228.75,-76"/>
<text text-anchor="middle" x="202" y="-62.5" font-family="Helvetica,sans-Serif" font-size="10.00">iostream</text>
</a>
</g>
</g>
<!-- Node1&#45;&gt;Node7 -->
<g id="edge8" class="edge">
<title>Node1&#45;&gt;Node7</title>
<path fill="none" stroke="#63b8ff" d="M173.89,-167.82C177.6,-158.81 183.18,-144.63 187,-132 191.48,-117.22 195.36,-100.19 198.05,-87.28"/>
<polygon fill="#63b8ff" stroke="#63b8ff" points="201.41,-88.34 199.95,-77.84 194.55,-86.96 201.41,-88.34"/>
</g>
<!-- Node3 -->
<g id="node3" class="node">
<title>Node3</title>
<g id="a_node3"><a xlink:href="Grammar_8h.html" target="_top" xlink:title=" ">
<polygon fill="white" stroke="#666666" points="111,-76 47,-76 47,-56 111,-56 111,-76"/>
<text text-anchor="middle" x="79" y="-62.5" font-family="Helvetica,sans-Serif" font-size="10.00">Grammar.h</text>
</a>
</g>
</g>
<!-- Node2&#45;&gt;Node3 -->
<g id="edge2" class="edge">
<title>Node2&#45;&gt;Node3</title>
<path fill="none" stroke="#63b8ff" d="M125.25,-111.59C117.38,-104.01 106.1,-93.13 96.65,-84.02"/>
<polygon fill="#63b8ff" stroke="#63b8ff" points="99.36,-81.77 89.73,-77.35 94.5,-86.81 99.36,-81.77"/>
</g>
<!-- Node6 -->
<g id="node6" class="node">
<title>Node6</title>
<g id="a_node6"><a xlink:title=" ">
<polygon fill="#e0e0e0" stroke="#999999" points="155.38,-20 120.62,-20 120.62,0 155.38,0 155.38,-20"/>
<text text-anchor="middle" x="138" y="-6.5" font-family="Helvetica,sans-Serif" font-size="10.00">map</text>
</a>
</g>
</g>
<!-- Node2&#45;&gt;Node6 -->
<g id="edge7" class="edge">
<title>Node2&#45;&gt;Node6</title>
<path fill="none" stroke="#63b8ff" d="M135.26,-111.62C135.74,-94.01 136.78,-55.59 137.44,-31.65"/>
<polygon fill="#63b8ff" stroke="#63b8ff" points="140.93,-31.96 137.7,-21.87 133.93,-31.77 140.93,-31.96"/>
</g>
<!-- Node2&#45;&gt;Node7 -->
<g id="edge6" class="edge">
<title>Node2&#45;&gt;Node7</title>
<path fill="none" stroke="#63b8ff" d="M146.67,-111.59C156.28,-103.85 170.13,-92.69 181.57,-83.47"/>
<polygon fill="#63b8ff" stroke="#63b8ff" points="183.7,-86.25 189.28,-77.25 179.3,-80.8 183.7,-86.25"/>
</g>
<!-- Node4 -->
<g id="node4" class="node">
<title>Node4</title>
<g id="a_node4"><a xlink:title=" ">
<polygon fill="#e0e0e0" stroke="#999999" points="40,-20 0,-20 0,0 40,0 40,-20"/>
<text text-anchor="middle" x="20" y="-6.5" font-family="Helvetica,sans-Serif" font-size="10.00">string</text>
</a>
</g>
</g>
<!-- Node3&#45;&gt;Node4 -->
<g id="edge3" class="edge">
<title>Node3&#45;&gt;Node4</title>
<path fill="none" stroke="#63b8ff" d="M68.72,-55.59C60.43,-48.01 48.55,-37.13 38.6,-28.02"/>
<polygon fill="#63b8ff" stroke="#63b8ff" points="41.02,-25.49 31.28,-21.32 36.29,-30.65 41.02,-25.49"/>
</g>
<!-- Node5 -->
<g id="node5" class="node">
<title>Node5</title>
<g id="a_node5"><a xlink:title=" ">
<polygon fill="#e0e0e0" stroke="#999999" points="101.5,-20 58.5,-20 58.5,0 101.5,0 101.5,-20"/>
<text text-anchor="middle" x="80" y="-6.5" font-family="Helvetica,sans-Serif" font-size="10.00">vector</text>
</a>
</g>
</g>
<!-- Node3&#45;&gt;Node5 -->
<g id="edge4" class="edge">
<title>Node3&#45;&gt;Node5</title>
<path fill="none" stroke="#63b8ff" d="M79.17,-55.59C79.3,-49.01 79.46,-39.96 79.62,-31.73"/>
<polygon fill="#63b8ff" stroke="#63b8ff" points="83.11,-31.87 79.8,-21.81 76.12,-31.75 83.11,-31.87"/>
</g>
<!-- Node3&#45;&gt;Node6 -->
<g id="edge5" class="edge">
<title>Node3&#45;&gt;Node6</title>
<path fill="none" stroke="#63b8ff" d="M89.28,-55.59C97.57,-48.01 109.45,-37.13 119.4,-28.02"/>
<polygon fill="#63b8ff" stroke="#63b8ff" points="121.71,-30.65 126.72,-21.32 116.98,-25.49 121.71,-30.65"/>
</g>
</g>
</svg>
