<?xml version="1.0" encoding="UTF-8" standalone="no"?>
<!DOCTYPE svg PUBLIC "-//W3C//DTD SVG 1.1//EN"
 "http://www.w3.org/Graphics/SVG/1.1/DTD/svg11.dtd">
<!-- Generated by graphviz version 12.2.1 (20241206.2353)
 -->
<!-- Title: src/managers/ManagerActionResolution.h Pages: 1 -->
<svg width="2844pt" height="320pt"
 viewBox="0.00 0.00 2843.51 320.00" xmlns="http://www.w3.org/2000/svg" xmlns:xlink="http://www.w3.org/1999/xlink">
<g id="graph0" class="graph" transform="scale(1 1) rotate(0) translate(4 316)">
<title>src/managers/ManagerActionResolution.h</title>
<!-- Node1 -->
<g id="node1" class="node">
<title>Node1</title>
<g id="a_node1"><a xlink:title=" ">
<polygon fill="#999999" stroke="#666666" points="2510.26,-312 2366.76,-312 2366.76,-280 2510.26,-280 2510.26,-312"/>
<text text-anchor="start" x="2374.76" y="-298.5" font-family="Helvetica,sans-Serif" font-size="10.00">src/managers/ManagerAction</text>
<text text-anchor="middle" x="2438.51" y="-286.5" font-family="Helvetica,sans-Serif" font-size="10.00">Resolution.h</text>
</a>
</g>
</g>
<!-- Node2 -->
<g id="node2" class="node">
<title>Node2</title>
<g id="a_node2"><a xlink:href="ManagerActionFormation_8h.html" target="_top" xlink:title=" ">
<polygon fill="white" stroke="#666666" points="2731.01,-188 2598.01,-188 2598.01,-168 2731.01,-168 2731.01,-188"/>
<text text-anchor="middle" x="2664.51" y="-174.5" font-family="Helvetica,sans-Serif" font-size="10.00">ManagerActionFormation.h</text>
</a>
</g>
</g>
<!-- Node1&#45;&gt;Node2 -->
<g id="edge1" class="edge">
<title>Node1&#45;&gt;Node2</title>
<path fill="none" stroke="#63b8ff" d="M2468.52,-279.6C2512.36,-257.1 2593.32,-215.54 2636.18,-193.54"/>
<polygon fill="#63b8ff" stroke="#63b8ff" points="2637.57,-196.76 2644.87,-189.08 2634.37,-190.54 2637.57,-196.76"/>
</g>
<!-- Node8 -->
<g id="node8" class="node">
<title>Node8</title>
<g id="a_node8"><a xlink:title=" ">
<polygon fill="#e0e0e0" stroke="#999999" points="2558.14,-20 2506.89,-20 2506.89,0 2558.14,0 2558.14,-20"/>
<text text-anchor="middle" x="2532.51" y="-6.5" font-family="Helvetica,sans-Serif" font-size="10.00">memory</text>
</a>
</g>
</g>
<!-- Node1&#45;&gt;Node8 -->
<g id="edge77" class="edge">
<title>Node1&#45;&gt;Node8</title>
<path fill="none" stroke="#63b8ff" d="M2510.41,-288.8C2624.81,-276.92 2835.51,-245.96 2835.51,-179 2835.51,-179 2835.51,-179 2835.51,-121 2835.51,-85.86 2820.11,-74.93 2790.51,-56 2754.44,-32.93 2631.78,-19.45 2569.47,-13.93"/>
<polygon fill="#63b8ff" stroke="#63b8ff" points="2569.99,-10.46 2559.73,-13.09 2569.39,-17.44 2569.99,-10.46"/>
</g>
<!-- Node13 -->
<g id="node13" class="node">
<title>Node13</title>
<g id="a_node13"><a xlink:title=" ">
<polygon fill="#e0e0e0" stroke="#999999" points="2343.01,-132 2300.01,-132 2300.01,-112 2343.01,-112 2343.01,-132"/>
<text text-anchor="middle" x="2321.51" y="-118.5" font-family="Helvetica,sans-Serif" font-size="10.00">vector</text>
</a>
</g>
</g>
<!-- Node1&#45;&gt;Node13 -->
<g id="edge76" class="edge">
<title>Node1&#45;&gt;Node13</title>
<path fill="none" stroke="#63b8ff" d="M2417.73,-279.64C2406.06,-270.27 2391.81,-257.52 2381.51,-244 2357.1,-211.93 2338.43,-168.38 2328.79,-143.22"/>
<polygon fill="#63b8ff" stroke="#63b8ff" points="2332.08,-142.05 2325.32,-133.9 2325.52,-144.49 2332.08,-142.05"/>
</g>
<!-- Node15 -->
<g id="node15" class="node">
<title>Node15</title>
<g id="a_node15"><a xlink:href="ManagerLexicon_8h.html" target="_top" xlink:title=" ">
<polygon fill="white" stroke="#666666" points="2137.26,-244 2041.76,-244 2041.76,-224 2137.26,-224 2137.26,-244"/>
<text text-anchor="middle" x="2089.51" y="-230.5" font-family="Helvetica,sans-Serif" font-size="10.00">ManagerLexicon.h</text>
</a>
</g>
</g>
<!-- Node1&#45;&gt;Node15 -->
<g id="edge18" class="edge">
<title>Node1&#45;&gt;Node15</title>
<path fill="none" stroke="#63b8ff" d="M2366.62,-282.64C2302.23,-271.57 2208.93,-255.53 2148.74,-245.18"/>
<polygon fill="#63b8ff" stroke="#63b8ff" points="2149.47,-241.76 2139.02,-243.51 2148.28,-248.65 2149.47,-241.76"/>
</g>
<!-- Node51 -->
<g id="node51" class="node">
<title>Node51</title>
<g id="a_node51"><a xlink:href="ManagerSystem_8h.html" target="_top" xlink:title=" ">
<polygon fill="white" stroke="#666666" points="2486.26,-244 2390.76,-244 2390.76,-224 2486.26,-224 2486.26,-244"/>
<text text-anchor="middle" x="2438.51" y="-230.5" font-family="Helvetica,sans-Serif" font-size="10.00">ManagerSystem.h</text>
</a>
</g>
</g>
<!-- Node1&#45;&gt;Node51 -->
<g id="edge66" class="edge">
<title>Node1&#45;&gt;Node51</title>
<path fill="none" stroke="#63b8ff" d="M2438.51,-279.55C2438.51,-272.34 2438.51,-263.66 2438.51,-255.88"/>
<polygon fill="#63b8ff" stroke="#63b8ff" points="2442.01,-255.92 2438.51,-245.92 2435.01,-255.92 2442.01,-255.92"/>
</g>
<!-- Node3 -->
<g id="node3" class="node">
<title>Node3</title>
<g id="a_node3"><a xlink:href="Entity_8h.html" target="_top" xlink:title=" ">
<polygon fill="white" stroke="#666666" points="2465.64,-132 2417.39,-132 2417.39,-112 2465.64,-112 2465.64,-132"/>
<text text-anchor="middle" x="2441.51" y="-118.5" font-family="Helvetica,sans-Serif" font-size="10.00">Entity.h</text>
</a>
</g>
</g>
<!-- Node2&#45;&gt;Node3 -->
<g id="edge2" class="edge">
<title>Node2&#45;&gt;Node3</title>
<path fill="none" stroke="#63b8ff" d="M2625.41,-167.53C2583.49,-157.38 2517.5,-141.4 2477.01,-131.6"/>
<polygon fill="#63b8ff" stroke="#63b8ff" points="2478.08,-128.25 2467.53,-129.3 2476.43,-135.06 2478.08,-128.25"/>
</g>
<!-- Node5 -->
<g id="node5" class="node">
<title>Node5</title>
<g id="a_node5"><a xlink:title=" ">
<polygon fill="#e0e0e0" stroke="#999999" points="2215.51,-20 2175.51,-20 2175.51,0 2215.51,0 2215.51,-20"/>
<text text-anchor="middle" x="2195.51" y="-6.5" font-family="Helvetica,sans-Serif" font-size="10.00">string</text>
</a>
</g>
</g>
<!-- Node2&#45;&gt;Node5 -->
<g id="edge16" class="edge">
<title>Node2&#45;&gt;Node5</title>
<path fill="none" stroke="#63b8ff" d="M2597.54,-168.39C2545.5,-160.94 2471.77,-148.73 2408.51,-132 2382.96,-125.24 2377.57,-120.39 2352.51,-112 2301.73,-94.99 2280.14,-108.42 2237.51,-76 2222.16,-64.32 2210.81,-45.29 2203.81,-30.83"/>
<polygon fill="#63b8ff" stroke="#63b8ff" points="2207.05,-29.5 2199.76,-21.82 2200.67,-32.38 2207.05,-29.5"/>
</g>
<!-- Node2&#45;&gt;Node8 -->
<g id="edge13" class="edge">
<title>Node2&#45;&gt;Node8</title>
<path fill="none" stroke="#63b8ff" d="M2641.4,-167.53C2625.17,-159.92 2603.88,-147.88 2589.51,-132 2575.21,-116.19 2552.1,-60.81 2540.18,-30.75"/>
<polygon fill="#63b8ff" stroke="#63b8ff" points="2543.53,-29.72 2536.62,-21.69 2537.01,-32.27 2543.53,-29.72"/>
</g>
<!-- Node10 -->
<g id="node10" class="node">
<title>Node10</title>
<g id="a_node10"><a xlink:href="ManagerGrammar_8h.html" target="_top" xlink:title=" ">
<polygon fill="white" stroke="#666666" points="2769.26,-132 2667.76,-132 2667.76,-112 2769.26,-112 2769.26,-132"/>
<text text-anchor="middle" x="2718.51" y="-118.5" font-family="Helvetica,sans-Serif" font-size="10.00">ManagerGrammar.h</text>
</a>
</g>
</g>
<!-- Node2&#45;&gt;Node10 -->
<g id="edge11" class="edge">
<title>Node2&#45;&gt;Node10</title>
<path fill="none" stroke="#63b8ff" d="M2673.92,-167.59C2681.43,-160.08 2692.16,-149.35 2701.21,-140.3"/>
<polygon fill="#63b8ff" stroke="#63b8ff" points="2703.55,-142.91 2708.15,-133.37 2698.6,-137.96 2703.55,-142.91"/>
</g>
<!-- Node12 -->
<g id="node12" class="node">
<title>Node12</title>
<g id="a_node12"><a xlink:title=" ">
<polygon fill="#e0e0e0" stroke="#999999" points="2243.89,-132 2209.14,-132 2209.14,-112 2243.89,-112 2243.89,-132"/>
<text text-anchor="middle" x="2226.51" y="-118.5" font-family="Helvetica,sans-Serif" font-size="10.00">map</text>
</a>
</g>
</g>
<!-- Node2&#45;&gt;Node12 -->
<g id="edge14" class="edge">
<title>Node2&#45;&gt;Node12</title>
<path fill="none" stroke="#63b8ff" d="M2597.76,-169.3C2523.1,-160.61 2398.57,-145.87 2291.51,-132 2279.73,-130.47 2266.76,-128.7 2255.53,-127.13"/>
<polygon fill="#63b8ff" stroke="#63b8ff" points="2256.05,-123.67 2245.66,-125.74 2255.07,-130.6 2256.05,-123.67"/>
</g>
<!-- Node2&#45;&gt;Node13 -->
<g id="edge15" class="edge">
<title>Node2&#45;&gt;Node13</title>
<path fill="none" stroke="#63b8ff" d="M2597.71,-169.15C2535.3,-161.36 2439.69,-148.25 2357.51,-132 2356.34,-131.77 2355.16,-131.52 2353.96,-131.27"/>
<polygon fill="#63b8ff" stroke="#63b8ff" points="2355.14,-127.95 2344.61,-129.12 2353.57,-134.77 2355.14,-127.95"/>
</g>
<!-- Node14 -->
<g id="node14" class="node">
<title>Node14</title>
<g id="a_node14"><a xlink:title=" ">
<polygon fill="#e0e0e0" stroke="#999999" points="2650.14,-132 2598.89,-132 2598.89,-112 2650.14,-112 2650.14,-132"/>
<text text-anchor="middle" x="2624.51" y="-118.5" font-family="Helvetica,sans-Serif" font-size="10.00">sstream</text>
</a>
</g>
</g>
<!-- Node2&#45;&gt;Node14 -->
<g id="edge17" class="edge">
<title>Node2&#45;&gt;Node14</title>
<path fill="none" stroke="#63b8ff" d="M2657.55,-167.59C2652.21,-160.39 2644.69,-150.23 2638.17,-141.43"/>
<polygon fill="#63b8ff" stroke="#63b8ff" points="2641.07,-139.47 2632.3,-133.51 2635.44,-143.63 2641.07,-139.47"/>
</g>
<!-- Node4 -->
<g id="node4" class="node">
<title>Node4</title>
<g id="a_node4"><a xlink:href="Components_8h.html" target="_top" xlink:title=" ">
<polygon fill="white" stroke="#666666" points="2360.39,-76 2280.64,-76 2280.64,-56 2360.39,-56 2360.39,-76"/>
<text text-anchor="middle" x="2320.51" y="-62.5" font-family="Helvetica,sans-Serif" font-size="10.00">Components.h</text>
</a>
</g>
</g>
<!-- Node3&#45;&gt;Node4 -->
<g id="edge3" class="edge">
<title>Node3&#45;&gt;Node4</title>
<path fill="none" stroke="#63b8ff" d="M2420.44,-111.59C2401.55,-103.17 2373.6,-90.69 2352.05,-81.07"/>
<polygon fill="#63b8ff" stroke="#63b8ff" points="2353.7,-77.98 2343.14,-77.1 2350.84,-84.37 2353.7,-77.98"/>
</g>
<!-- Node3&#45;&gt;Node5 -->
<g id="edge9" class="edge">
<title>Node3&#45;&gt;Node5</title>
<path fill="none" stroke="#63b8ff" d="M2416.96,-115.91C2376.27,-107.26 2296.86,-89.3 2271.51,-76 2248.34,-63.84 2226.11,-43.47 2211.75,-28.77"/>
<polygon fill="#63b8ff" stroke="#63b8ff" points="2214.34,-26.42 2204.92,-21.57 2209.26,-31.24 2214.34,-26.42"/>
</g>
<!-- Node3&#45;&gt;Node8 -->
<g id="edge8" class="edge">
<title>Node3&#45;&gt;Node8</title>
<path fill="none" stroke="#63b8ff" d="M2449.27,-111.62C2464.38,-93.36 2497.99,-52.73 2517.57,-29.07"/>
<polygon fill="#63b8ff" stroke="#63b8ff" points="2520.13,-31.46 2523.81,-21.52 2514.74,-27 2520.13,-31.46"/>
</g>
<!-- Node9 -->
<g id="node9" class="node">
<title>Node9</title>
<g id="a_node9"><a xlink:title=" ">
<polygon fill="#e0e0e0" stroke="#999999" points="2466.39,-76 2416.64,-76 2416.64,-56 2466.39,-56 2466.39,-76"/>
<text text-anchor="middle" x="2441.51" y="-62.5" font-family="Helvetica,sans-Serif" font-size="10.00">optional</text>
</a>
</g>
</g>
<!-- Node3&#45;&gt;Node9 -->
<g id="edge10" class="edge">
<title>Node3&#45;&gt;Node9</title>
<path fill="none" stroke="#63b8ff" d="M2441.51,-111.59C2441.51,-105.01 2441.51,-95.96 2441.51,-87.73"/>
<polygon fill="#63b8ff" stroke="#63b8ff" points="2445.01,-87.81 2441.51,-77.81 2438.01,-87.81 2445.01,-87.81"/>
</g>
<!-- Node4&#45;&gt;Node5 -->
<g id="edge4" class="edge">
<title>Node4&#45;&gt;Node5</title>
<path fill="none" stroke="#63b8ff" d="M2298.74,-55.59C2278.66,-46.92 2248.65,-33.96 2226.16,-24.24"/>
<polygon fill="#63b8ff" stroke="#63b8ff" points="2227.75,-21.12 2217.19,-20.36 2224.98,-27.54 2227.75,-21.12"/>
</g>
<!-- Node6 -->
<g id="node6" class="node">
<title>Node6</title>
<g id="a_node6"><a xlink:title=" ">
<polygon fill="#e0e0e0" stroke="#999999" points="2354.01,-20 2251.01,-20 2251.01,0 2354.01,0 2354.01,-20"/>
<text text-anchor="middle" x="2302.51" y="-6.5" font-family="Helvetica,sans-Serif" font-size="10.00">SFML/Graphics.hpp</text>
</a>
</g>
</g>
<!-- Node4&#45;&gt;Node6 -->
<g id="edge5" class="edge">
<title>Node4&#45;&gt;Node6</title>
<path fill="none" stroke="#63b8ff" d="M2317.38,-55.59C2315.13,-48.86 2312.02,-39.53 2309.23,-31.15"/>
<polygon fill="#63b8ff" stroke="#63b8ff" points="2312.57,-30.11 2306.09,-21.73 2305.93,-32.33 2312.57,-30.11"/>
</g>
<!-- Node7 -->
<g id="node7" class="node">
<title>Node7</title>
<g id="a_node7"><a xlink:title=" ">
<polygon fill="#e0e0e0" stroke="#999999" points="2418.89,-20 2372.14,-20 2372.14,0 2418.89,0 2418.89,-20"/>
<text text-anchor="middle" x="2395.51" y="-6.5" font-family="Helvetica,sans-Serif" font-size="10.00">Vec2.h</text>
</a>
</g>
</g>
<!-- Node4&#45;&gt;Node7 -->
<g id="edge6" class="edge">
<title>Node4&#45;&gt;Node7</title>
<path fill="none" stroke="#63b8ff" d="M2333.58,-55.59C2344.48,-47.74 2360.26,-36.38 2373.17,-27.09"/>
<polygon fill="#63b8ff" stroke="#63b8ff" points="2375.05,-30.05 2381.12,-21.36 2370.96,-24.37 2375.05,-30.05"/>
</g>
<!-- Node4&#45;&gt;Node8 -->
<g id="edge7" class="edge">
<title>Node4&#45;&gt;Node8</title>
<path fill="none" stroke="#63b8ff" d="M2357.44,-55.59C2396.31,-45.69 2457.13,-30.2 2495.89,-20.33"/>
<polygon fill="#63b8ff" stroke="#63b8ff" points="2496.38,-23.81 2505.21,-17.95 2494.66,-17.03 2496.38,-23.81"/>
</g>
<!-- Node11 -->
<g id="node11" class="node">
<title>Node11</title>
<g id="a_node11"><a xlink:title=" ">
<polygon fill="#e0e0e0" stroke="#999999" points="2761.39,-76 2675.64,-76 2675.64,-56 2761.39,-56 2761.39,-76"/>
<text text-anchor="middle" x="2718.51" y="-62.5" font-family="Helvetica,sans-Serif" font-size="10.00">BicolGrammar.h</text>
</a>
</g>
</g>
<!-- Node10&#45;&gt;Node11 -->
<g id="edge12" class="edge">
<title>Node10&#45;&gt;Node11</title>
<path fill="none" stroke="#63b8ff" d="M2718.51,-111.59C2718.51,-105.01 2718.51,-95.96 2718.51,-87.73"/>
<polygon fill="#63b8ff" stroke="#63b8ff" points="2722.01,-87.81 2718.51,-77.81 2715.01,-87.81 2722.01,-87.81"/>
</g>
<!-- Node15&#45;&gt;Node5 -->
<g id="edge24" class="edge">
<title>Node15&#45;&gt;Node5</title>
<path fill="none" stroke="#63b8ff" d="M2041.42,-230.96C1897.28,-224.8 1456.19,-205.79 1090.51,-188 851.98,-176.4 -145.93,-285.19 18.51,-112 95.81,-30.59 1901.25,-13.32 2163.79,-11.23"/>
<polygon fill="#63b8ff" stroke="#63b8ff" points="2163.63,-14.74 2173.6,-11.16 2163.57,-7.74 2163.63,-14.74"/>
</g>
<!-- Node15&#45;&gt;Node8 -->
<g id="edge27" class="edge">
<title>Node15&#45;&gt;Node8</title>
<path fill="none" stroke="#63b8ff" d="M2137.71,-225.7C2229.23,-211 2423.62,-175.48 2474.51,-132 2505.55,-105.48 2521.28,-58.57 2528.11,-31.61"/>
<polygon fill="#63b8ff" stroke="#63b8ff" points="2531.5,-32.47 2530.36,-21.94 2524.68,-30.88 2531.5,-32.47"/>
</g>
<!-- Node15&#45;&gt;Node12 -->
<g id="edge25" class="edge">
<title>Node15&#45;&gt;Node12</title>
<path fill="none" stroke="#63b8ff" d="M2096.87,-223.85C2107.85,-210.55 2129.59,-185.54 2151.51,-168 2166.11,-156.32 2184.02,-145.47 2198.67,-137.35"/>
<polygon fill="#63b8ff" stroke="#63b8ff" points="2200.2,-140.5 2207.34,-132.66 2196.88,-134.34 2200.2,-140.5"/>
</g>
<!-- Node15&#45;&gt;Node13 -->
<g id="edge26" class="edge">
<title>Node15&#45;&gt;Node13</title>
<path fill="none" stroke="#63b8ff" d="M2102.15,-223.69C2123.87,-207.81 2167.58,-176.36 2184.51,-168 2218.64,-151.14 2260.56,-138.44 2288.98,-130.9"/>
<polygon fill="#63b8ff" stroke="#63b8ff" points="2289.62,-134.34 2298.43,-128.45 2287.87,-127.57 2289.62,-134.34"/>
</g>
<!-- Node16 -->
<g id="node16" class="node">
<title>Node16</title>
<g id="a_node16"><a xlink:href="ManagerEntity_8h.html" target="_top" xlink:title=" ">
<polygon fill="white" stroke="#666666" points="2279.39,-188 2193.64,-188 2193.64,-168 2279.39,-168 2279.39,-188"/>
<text text-anchor="middle" x="2236.51" y="-174.5" font-family="Helvetica,sans-Serif" font-size="10.00">ManagerEntity.h</text>
</a>
</g>
</g>
<!-- Node15&#45;&gt;Node16 -->
<g id="edge19" class="edge">
<title>Node15&#45;&gt;Node16</title>
<path fill="none" stroke="#63b8ff" d="M2115.12,-223.59C2138.58,-214.97 2173.58,-202.12 2199.98,-192.42"/>
<polygon fill="#63b8ff" stroke="#63b8ff" points="2201.11,-195.73 2209.29,-189 2198.69,-189.16 2201.11,-195.73"/>
</g>
<!-- Node17 -->
<g id="node17" class="node">
<title>Node17</title>
<g id="a_node17"><a xlink:title=" ">
<polygon fill="#e0e0e0" stroke="#999999" points="1927.64,-188 1879.39,-188 1879.39,-168 1927.64,-168 1927.64,-188"/>
<text text-anchor="middle" x="1903.51" y="-174.5" font-family="Helvetica,sans-Serif" font-size="10.00">random</text>
</a>
</g>
</g>
<!-- Node15&#45;&gt;Node17 -->
<g id="edge28" class="edge">
<title>Node15&#45;&gt;Node17</title>
<path fill="none" stroke="#63b8ff" d="M2057.11,-223.59C2024.11,-214.01 1973.05,-199.19 1938.98,-189.3"/>
<polygon fill="#63b8ff" stroke="#63b8ff" points="1940.16,-185.99 1929.58,-186.57 1938.2,-192.72 1940.16,-185.99"/>
</g>
<!-- Node18 -->
<g id="node18" class="node">
<title>Node18</title>
<g id="a_node18"><a xlink:href="json_8hpp.html" target="_top" xlink:title=" ">
<polygon fill="white" stroke="#666666" points="1197.39,-188 1099.64,-188 1099.64,-168 1197.39,-168 1197.39,-188"/>
<text text-anchor="middle" x="1148.51" y="-174.5" font-family="Helvetica,sans-Serif" font-size="10.00">nlohmann/json.hpp</text>
</a>
</g>
</g>
<!-- Node15&#45;&gt;Node18 -->
<g id="edge29" class="edge">
<title>Node15&#45;&gt;Node18</title>
<path fill="none" stroke="#63b8ff" d="M2041.56,-230.25C1884.14,-221.21 1383.35,-192.48 1209.03,-182.47"/>
<polygon fill="#63b8ff" stroke="#63b8ff" points="1209.48,-178.99 1199.3,-181.91 1209.08,-185.98 1209.48,-178.99"/>
</g>
<!-- Node50 -->
<g id="node50" class="node">
<title>Node50</title>
<g id="a_node50"><a xlink:title=" ">
<polygon fill="#e0e0e0" stroke="#999999" points="2023.26,-188 1945.76,-188 1945.76,-168 2023.26,-168 2023.26,-188"/>
<text text-anchor="middle" x="1984.51" y="-174.5" font-family="Helvetica,sans-Serif" font-size="10.00">unordered_set</text>
</a>
</g>
</g>
<!-- Node15&#45;&gt;Node50 -->
<g id="edge65" class="edge">
<title>Node15&#45;&gt;Node50</title>
<path fill="none" stroke="#63b8ff" d="M2071.22,-223.59C2055.21,-215.36 2031.68,-203.26 2013.17,-193.74"/>
<polygon fill="#63b8ff" stroke="#63b8ff" points="2014.79,-190.63 2004.29,-189.17 2011.58,-196.86 2014.79,-190.63"/>
</g>
<!-- Node16&#45;&gt;Node3 -->
<g id="edge20" class="edge">
<title>Node16&#45;&gt;Node3</title>
<path fill="none" stroke="#63b8ff" d="M2272.22,-167.59C2309.86,-157.68 2368.77,-142.16 2406.24,-132.29"/>
<polygon fill="#63b8ff" stroke="#63b8ff" points="2406.89,-135.74 2415.67,-129.81 2405.1,-128.97 2406.89,-135.74"/>
</g>
<!-- Node16&#45;&gt;Node5 -->
<g id="edge22" class="edge">
<title>Node16&#45;&gt;Node5</title>
<path fill="none" stroke="#63b8ff" d="M2242.74,-167.68C2250.63,-154.59 2262.11,-130.32 2252.51,-112 2239.47,-87.1 2214.51,-100.38 2200.51,-76 2192.83,-62.61 2191.91,-45.03 2192.74,-31.54"/>
<polygon fill="#63b8ff" stroke="#63b8ff" points="2196.22,-31.92 2193.74,-21.62 2189.25,-31.22 2196.22,-31.92"/>
</g>
<!-- Node16&#45;&gt;Node12 -->
<g id="edge23" class="edge">
<title>Node16&#45;&gt;Node12</title>
<path fill="none" stroke="#63b8ff" d="M2234.77,-167.59C2233.54,-160.93 2231.84,-151.75 2230.3,-143.44"/>
<polygon fill="#63b8ff" stroke="#63b8ff" points="2233.77,-142.98 2228.51,-133.79 2226.89,-144.26 2233.77,-142.98"/>
</g>
<!-- Node16&#45;&gt;Node13 -->
<g id="edge21" class="edge">
<title>Node16&#45;&gt;Node13</title>
<path fill="none" stroke="#63b8ff" d="M2251.32,-167.59C2263.92,-159.59 2282.27,-147.93 2297.05,-138.54"/>
<polygon fill="#63b8ff" stroke="#63b8ff" points="2298.75,-141.61 2305.31,-133.29 2295,-135.7 2298.75,-141.61"/>
</g>
<!-- Node18&#45;&gt;Node5 -->
<g id="edge37" class="edge">
<title>Node18&#45;&gt;Node5</title>
<path fill="none" stroke="#63b8ff" d="M1099.46,-170.99C1047.87,-162.79 978.06,-145.16 1008.51,-112 1088.99,-24.38 1983.73,-12.67 2163.98,-11.2"/>
<polygon fill="#63b8ff" stroke="#63b8ff" points="2164,-14.7 2173.97,-11.13 2163.94,-7.7 2164,-14.7"/>
</g>
<!-- Node18&#45;&gt;Node8 -->
<g id="edge36" class="edge">
<title>Node18&#45;&gt;Node8</title>
<path fill="none" stroke="#63b8ff" d="M1197.68,-177.11C1353.63,-177.01 1835.76,-173.3 1985.51,-132 2003.91,-126.93 2005.25,-117.53 2023.51,-112 2171.48,-67.19 2221.54,-120.81 2369.51,-76 2387.78,-70.47 2390.05,-63.7 2407.51,-56 2436.62,-43.18 2470.63,-31.11 2495.82,-22.71"/>
<polygon fill="#63b8ff" stroke="#63b8ff" points="2496.89,-26.04 2505.29,-19.59 2494.7,-19.4 2496.89,-26.04"/>
</g>
<!-- Node18&#45;&gt;Node12 -->
<g id="edge42" class="edge">
<title>Node18&#45;&gt;Node12</title>
<path fill="none" stroke="#63b8ff" d="M1197.86,-176.71C1375.36,-175.38 1981.79,-168.36 2197.49,-131.71"/>
<polygon fill="#63b8ff" stroke="#63b8ff" points="2197.97,-135.18 2207.2,-129.98 2196.74,-128.29 2197.97,-135.18"/>
</g>
<!-- Node18&#45;&gt;Node13 -->
<g id="edge39" class="edge">
<title>Node18&#45;&gt;Node13</title>
<path fill="none" stroke="#63b8ff" d="M1197.85,-176.55C1353.22,-174.81 1846.12,-166.72 2252.51,-132 2264.31,-130.99 2277.18,-129.44 2288.58,-127.9"/>
<polygon fill="#63b8ff" stroke="#63b8ff" points="2288.89,-131.39 2298.31,-126.54 2287.93,-124.46 2288.89,-131.39"/>
</g>
<!-- Node19 -->
<g id="node19" class="node">
<title>Node19</title>
<g id="a_node19"><a xlink:title=" ">
<polygon fill="#e0e0e0" stroke="#999999" points="1141.39,-132 1085.64,-132 1085.64,-112 1141.39,-112 1141.39,-132"/>
<text text-anchor="middle" x="1113.51" y="-118.5" font-family="Helvetica,sans-Serif" font-size="10.00">algorithm</text>
</a>
</g>
</g>
<!-- Node18&#45;&gt;Node19 -->
<g id="edge30" class="edge">
<title>Node18&#45;&gt;Node19</title>
<path fill="none" stroke="#63b8ff" d="M1142.42,-167.59C1137.8,-160.47 1131.31,-150.45 1125.64,-141.72"/>
<polygon fill="#63b8ff" stroke="#63b8ff" points="1128.74,-140.06 1120.36,-133.57 1122.87,-143.86 1128.74,-140.06"/>
</g>
<!-- Node20 -->
<g id="node20" class="node">
<title>Node20</title>
<g id="a_node20"><a xlink:title=" ">
<polygon fill="#e0e0e0" stroke="#999999" points="1207.64,-132 1159.39,-132 1159.39,-112 1207.64,-112 1207.64,-132"/>
<text text-anchor="middle" x="1183.51" y="-118.5" font-family="Helvetica,sans-Serif" font-size="10.00">cstddef</text>
</a>
</g>
</g>
<!-- Node18&#45;&gt;Node20 -->
<g id="edge31" class="edge">
<title>Node18&#45;&gt;Node20</title>
<path fill="none" stroke="#63b8ff" d="M1154.61,-167.59C1159.23,-160.47 1165.72,-150.45 1171.38,-141.72"/>
<polygon fill="#63b8ff" stroke="#63b8ff" points="1174.16,-143.86 1176.66,-133.57 1168.29,-140.06 1174.16,-143.86"/>
</g>
<!-- Node21 -->
<g id="node21" class="node">
<title>Node21</title>
<g id="a_node21"><a xlink:title=" ">
<polygon fill="#e0e0e0" stroke="#999999" points="2090.51,-132 2032.51,-132 2032.51,-112 2090.51,-112 2090.51,-132"/>
<text text-anchor="middle" x="2061.51" y="-118.5" font-family="Helvetica,sans-Serif" font-size="10.00">functional</text>
</a>
</g>
</g>
<!-- Node18&#45;&gt;Node21 -->
<g id="edge32" class="edge">
<title>Node18&#45;&gt;Node21</title>
<path fill="none" stroke="#63b8ff" d="M1197.81,-177.11C1330.83,-176.84 1708.04,-172.27 2018.51,-132 2019.51,-131.87 2020.51,-131.73 2021.52,-131.58"/>
<polygon fill="#63b8ff" stroke="#63b8ff" points="2021.71,-135.1 2030.98,-129.97 2020.53,-128.2 2021.71,-135.1"/>
</g>
<!-- Node22 -->
<g id="node22" class="node">
<title>Node22</title>
<g id="a_node22"><a xlink:title=" ">
<polygon fill="#e0e0e0" stroke="#999999" points="1297.64,-132 1225.39,-132 1225.39,-112 1297.64,-112 1297.64,-132"/>
<text text-anchor="middle" x="1261.51" y="-118.5" font-family="Helvetica,sans-Serif" font-size="10.00">initializer_list</text>
</a>
</g>
</g>
<!-- Node18&#45;&gt;Node22 -->
<g id="edge33" class="edge">
<title>Node18&#45;&gt;Node22</title>
<path fill="none" stroke="#63b8ff" d="M1168.2,-167.59C1185.67,-159.24 1211.47,-146.92 1231.51,-137.34"/>
<polygon fill="#63b8ff" stroke="#63b8ff" points="1232.8,-140.6 1240.31,-133.13 1229.78,-134.29 1232.8,-140.6"/>
</g>
<!-- Node23 -->
<g id="node23" class="node">
<title>Node23</title>
<g id="a_node23"><a xlink:title=" ">
<polygon fill="#e0e0e0" stroke="#999999" points="1359.76,-132 1315.26,-132 1315.26,-112 1359.76,-112 1359.76,-132"/>
<text text-anchor="middle" x="1337.51" y="-118.5" font-family="Helvetica,sans-Serif" font-size="10.00">iosfwd</text>
</a>
</g>
</g>
<!-- Node18&#45;&gt;Node23 -->
<g id="edge34" class="edge">
<title>Node18&#45;&gt;Node23</title>
<path fill="none" stroke="#63b8ff" d="M1181.82,-167.57C1211.55,-159.13 1256.58,-146.34 1304.03,-132.71"/>
<polygon fill="#63b8ff" stroke="#63b8ff" points="1304.73,-136.14 1313.38,-130.02 1302.8,-129.42 1304.73,-136.14"/>
</g>
<!-- Node24 -->
<g id="node24" class="node">
<title>Node24</title>
<g id="a_node24"><a xlink:title=" ">
<polygon fill="#e0e0e0" stroke="#999999" points="1423.51,-132 1377.51,-132 1377.51,-112 1423.51,-112 1423.51,-132"/>
<text text-anchor="middle" x="1400.51" y="-118.5" font-family="Helvetica,sans-Serif" font-size="10.00">iterator</text>
</a>
</g>
</g>
<!-- Node18&#45;&gt;Node24 -->
<g id="edge35" class="edge">
<title>Node18&#45;&gt;Node24</title>
<path fill="none" stroke="#63b8ff" d="M1197.67,-168C1239.96,-160.02 1302.83,-147.6 1366.15,-132.44"/>
<polygon fill="#63b8ff" stroke="#63b8ff" points="1366.78,-135.89 1375.68,-130.14 1365.13,-129.09 1366.78,-135.89"/>
</g>
<!-- Node25 -->
<g id="node25" class="node">
<title>Node25</title>
<g id="a_node25"><a xlink:title=" ">
<polygon fill="#e0e0e0" stroke="#999999" points="1481.14,-132 1441.89,-132 1441.89,-112 1481.14,-112 1481.14,-132"/>
<text text-anchor="middle" x="1461.51" y="-118.5" font-family="Helvetica,sans-Serif" font-size="10.00">utility</text>
</a>
</g>
</g>
<!-- Node18&#45;&gt;Node25 -->
<g id="edge38" class="edge">
<title>Node18&#45;&gt;Node25</title>
<path fill="none" stroke="#63b8ff" d="M1197.67,-171.39C1252.29,-164.68 1343.23,-152.07 1430.48,-132.17"/>
<polygon fill="#63b8ff" stroke="#63b8ff" points="1431.23,-135.59 1440.17,-129.92 1429.64,-128.77 1431.23,-135.59"/>
</g>
<!-- Node26 -->
<g id="node26" class="node">
<title>Node26</title>
<g id="a_node26"><a xlink:title=" ">
<polygon fill="#e0e0e0" stroke="#999999" points="1537.39,-132 1499.64,-132 1499.64,-112 1537.39,-112 1537.39,-132"/>
<text text-anchor="middle" x="1518.51" y="-118.5" font-family="Helvetica,sans-Serif" font-size="10.00">array</text>
</a>
</g>
</g>
<!-- Node18&#45;&gt;Node26 -->
<g id="edge40" class="edge">
<title>Node18&#45;&gt;Node26</title>
<path fill="none" stroke="#63b8ff" d="M1197.71,-173.33C1262.37,-167.89 1379.56,-155.93 1488.2,-132.15"/>
<polygon fill="#63b8ff" stroke="#63b8ff" points="1488.89,-135.58 1497.88,-129.99 1487.36,-128.75 1488.89,-135.58"/>
</g>
<!-- Node27 -->
<g id="node27" class="node">
<title>Node27</title>
<g id="a_node27"><a xlink:title=" ">
<polygon fill="#e0e0e0" stroke="#999999" points="1621.64,-132 1555.39,-132 1555.39,-112 1621.64,-112 1621.64,-132"/>
<text text-anchor="middle" x="1588.51" y="-118.5" font-family="Helvetica,sans-Serif" font-size="10.00">forward_list</text>
</a>
</g>
</g>
<!-- Node18&#45;&gt;Node27 -->
<g id="edge41" class="edge">
<title>Node18&#45;&gt;Node27</title>
<path fill="none" stroke="#63b8ff" d="M1197.74,-173.01C1271.08,-166.71 1413.54,-153.16 1544.12,-132.25"/>
<polygon fill="#63b8ff" stroke="#63b8ff" points="1544.29,-135.77 1553.61,-130.71 1543.17,-128.86 1544.29,-135.77"/>
</g>
<!-- Node28 -->
<g id="node28" class="node">
<title>Node28</title>
<g id="a_node28"><a xlink:title=" ">
<polygon fill="#e0e0e0" stroke="#999999" points="1677.01,-132 1640.01,-132 1640.01,-112 1677.01,-112 1677.01,-132"/>
<text text-anchor="middle" x="1658.51" y="-118.5" font-family="Helvetica,sans-Serif" font-size="10.00">tuple</text>
</a>
</g>
</g>
<!-- Node18&#45;&gt;Node28 -->
<g id="edge43" class="edge">
<title>Node18&#45;&gt;Node28</title>
<path fill="none" stroke="#63b8ff" d="M1197.6,-175.94C1283.37,-173.32 1466.04,-164.37 1628.52,-131.94"/>
<polygon fill="#63b8ff" stroke="#63b8ff" points="1629.1,-135.39 1638.2,-129.97 1627.7,-128.53 1629.1,-135.39"/>
</g>
<!-- Node29 -->
<g id="node29" class="node">
<title>Node29</title>
<g id="a_node29"><a xlink:title=" ">
<polygon fill="#e0e0e0" stroke="#999999" points="1756.39,-132 1694.64,-132 1694.64,-112 1756.39,-112 1756.39,-132"/>
<text text-anchor="middle" x="1725.51" y="-118.5" font-family="Helvetica,sans-Serif" font-size="10.00">type_traits</text>
</a>
</g>
</g>
<!-- Node18&#45;&gt;Node29 -->
<g id="edge44" class="edge">
<title>Node18&#45;&gt;Node29</title>
<path fill="none" stroke="#63b8ff" d="M1197.65,-175.15C1290.56,-171.16 1498.5,-159.89 1682.88,-132.2"/>
<polygon fill="#63b8ff" stroke="#63b8ff" points="1683.29,-135.68 1692.65,-130.71 1682.24,-128.76 1683.29,-135.68"/>
</g>
<!-- Node30 -->
<g id="node30" class="node">
<title>Node30</title>
<g id="a_node30"><a xlink:title=" ">
<polygon fill="#e0e0e0" stroke="#999999" points="2190.89,-132 2108.14,-132 2108.14,-112 2190.89,-112 2190.89,-132"/>
<text text-anchor="middle" x="2149.51" y="-118.5" font-family="Helvetica,sans-Serif" font-size="10.00">unordered_map</text>
</a>
</g>
</g>
<!-- Node18&#45;&gt;Node30 -->
<g id="edge45" class="edge">
<title>Node18&#45;&gt;Node30</title>
<path fill="none" stroke="#63b8ff" d="M1197.69,-176.94C1337.1,-176.28 1746.91,-171.01 2096.47,-132.2"/>
<polygon fill="#63b8ff" stroke="#63b8ff" points="2096.78,-135.69 2106.33,-131.09 2096,-128.73 2096.78,-135.69"/>
</g>
<!-- Node31 -->
<g id="node31" class="node">
<title>Node31</title>
<g id="a_node31"><a xlink:title=" ">
<polygon fill="#e0e0e0" stroke="#999999" points="1824.76,-132 1774.26,-132 1774.26,-112 1824.76,-112 1824.76,-132"/>
<text text-anchor="middle" x="1799.51" y="-118.5" font-family="Helvetica,sans-Serif" font-size="10.00">valarray</text>
</a>
</g>
</g>
<!-- Node18&#45;&gt;Node31 -->
<g id="edge46" class="edge">
<title>Node18&#45;&gt;Node31</title>
<path fill="none" stroke="#63b8ff" d="M1197.67,-176.51C1300.87,-174.81 1547.68,-167.27 1762.81,-132.15"/>
<polygon fill="#63b8ff" stroke="#63b8ff" points="1763.22,-135.63 1772.51,-130.54 1762.07,-128.73 1763.22,-135.63"/>
</g>
<!-- Node32 -->
<g id="node32" class="node">
<title>Node32</title>
<g id="a_node32"><a xlink:title=" ">
<polygon fill="#e0e0e0" stroke="#999999" points="1900.51,-132 1842.51,-132 1842.51,-112 1900.51,-112 1900.51,-132"/>
<text text-anchor="middle" x="1871.51" y="-118.5" font-family="Helvetica,sans-Serif" font-size="10.00">exception</text>
</a>
</g>
</g>
<!-- Node18&#45;&gt;Node32 -->
<g id="edge47" class="edge">
<title>Node18&#45;&gt;Node32</title>
<path fill="none" stroke="#63b8ff" d="M1197.82,-176.58C1309.16,-175.02 1588.58,-167.72 1831,-132.13"/>
<polygon fill="#63b8ff" stroke="#63b8ff" points="1831.28,-135.62 1840.65,-130.69 1830.25,-128.7 1831.28,-135.62"/>
</g>
<!-- Node33 -->
<g id="node33" class="node">
<title>Node33</title>
<g id="a_node33"><a xlink:title=" ">
<polygon fill="#e0e0e0" stroke="#999999" points="1976.89,-132 1918.14,-132 1918.14,-112 1976.89,-112 1976.89,-132"/>
<text text-anchor="middle" x="1947.51" y="-118.5" font-family="Helvetica,sans-Serif" font-size="10.00">stdexcept</text>
</a>
</g>
</g>
<!-- Node18&#45;&gt;Node33 -->
<g id="edge48" class="edge">
<title>Node18&#45;&gt;Node33</title>
<path fill="none" stroke="#63b8ff" d="M1197.78,-177.04C1317.68,-176.49 1634.23,-171.28 1906.44,-132.21"/>
<polygon fill="#63b8ff" stroke="#63b8ff" points="1906.85,-135.69 1916.24,-130.79 1905.84,-128.76 1906.85,-135.69"/>
</g>
<!-- Node34 -->
<g id="node34" class="node">
<title>Node34</title>
<g id="a_node34"><a xlink:title=" ">
<polygon fill="#e0e0e0" stroke="#999999" points="73.14,-132 27.89,-132 27.89,-112 73.14,-112 73.14,-132"/>
<text text-anchor="middle" x="50.51" y="-118.5" font-family="Helvetica,sans-Serif" font-size="10.00">cstdint</text>
</a>
</g>
</g>
<!-- Node18&#45;&gt;Node34 -->
<g id="edge49" class="edge">
<title>Node18&#45;&gt;Node34</title>
<path fill="none" stroke="#63b8ff" d="M1099.15,-176.43C920.02,-174.15 303.8,-164.21 84.52,-131.84"/>
<polygon fill="#63b8ff" stroke="#63b8ff" points="85.36,-128.43 74.94,-130.37 84.29,-135.35 85.36,-128.43"/>
</g>
<!-- Node35 -->
<g id="node35" class="node">
<title>Node35</title>
<g id="a_node35"><a xlink:title=" ">
<polygon fill="#e0e0e0" stroke="#999999" points="135.76,-132 91.26,-132 91.26,-112 135.76,-112 135.76,-132"/>
<text text-anchor="middle" x="113.51" y="-118.5" font-family="Helvetica,sans-Serif" font-size="10.00">cstdlib</text>
</a>
</g>
</g>
<!-- Node18&#45;&gt;Node35 -->
<g id="edge50" class="edge">
<title>Node18&#45;&gt;Node35</title>
<path fill="none" stroke="#63b8ff" d="M1099.32,-176.34C927.43,-173.81 353.36,-163.28 147.34,-132.01"/>
<polygon fill="#63b8ff" stroke="#63b8ff" points="147.98,-128.57 137.55,-130.46 146.88,-135.48 147.98,-128.57"/>
</g>
<!-- Node36 -->
<g id="node36" class="node">
<title>Node36</title>
<g id="a_node36"><a xlink:title=" ">
<polygon fill="#e0e0e0" stroke="#999999" points="201.64,-132 153.39,-132 153.39,-112 201.64,-112 201.64,-132"/>
<text text-anchor="middle" x="177.51" y="-118.5" font-family="Helvetica,sans-Serif" font-size="10.00">cassert</text>
</a>
</g>
</g>
<!-- Node18&#45;&gt;Node36 -->
<g id="edge51" class="edge">
<title>Node18&#45;&gt;Node36</title>
<path fill="none" stroke="#63b8ff" d="M1099.42,-176.06C935.27,-172.7 405.57,-160.04 212.99,-131.98"/>
<polygon fill="#63b8ff" stroke="#63b8ff" points="213.8,-128.56 203.39,-130.51 212.75,-135.48 213.8,-128.56"/>
</g>
<!-- Node37 -->
<g id="node37" class="node">
<title>Node37</title>
<g id="a_node37"><a xlink:title=" ">
<polygon fill="#e0e0e0" stroke="#999999" points="259.14,-132 219.89,-132 219.89,-112 259.14,-112 259.14,-132"/>
<text text-anchor="middle" x="239.51" y="-118.5" font-family="Helvetica,sans-Serif" font-size="10.00">limits</text>
</a>
</g>
</g>
<!-- Node18&#45;&gt;Node37 -->
<g id="edge52" class="edge">
<title>Node18&#45;&gt;Node37</title>
<path fill="none" stroke="#63b8ff" d="M1099.3,-176.17C941.79,-173.24 450.32,-162.05 270.66,-132.08"/>
<polygon fill="#63b8ff" stroke="#63b8ff" points="271.49,-128.67 261.03,-130.39 270.28,-135.57 271.49,-128.67"/>
</g>
<!-- Node38 -->
<g id="node38" class="node">
<title>Node38</title>
<g id="a_node38"><a xlink:title=" ">
<polygon fill="#e0e0e0" stroke="#999999" points="322.14,-132 276.89,-132 276.89,-112 322.14,-112 322.14,-132"/>
<text text-anchor="middle" x="299.51" y="-118.5" font-family="Helvetica,sans-Serif" font-size="10.00">cstring</text>
</a>
</g>
</g>
<!-- Node18&#45;&gt;Node38 -->
<g id="edge53" class="edge">
<title>Node18&#45;&gt;Node38</title>
<path fill="none" stroke="#63b8ff" d="M1099.4,-175.76C949.85,-171.77 500.55,-158.06 333.46,-132.08"/>
<polygon fill="#63b8ff" stroke="#63b8ff" points="334.33,-128.68 323.89,-130.52 333.2,-135.59 334.33,-128.68"/>
</g>
<!-- Node39 -->
<g id="node39" class="node">
<title>Node39</title>
<g id="a_node39"><a xlink:title=" ">
<polygon fill="#e0e0e0" stroke="#999999" points="383.01,-132 340.01,-132 340.01,-112 383.01,-112 383.01,-132"/>
<text text-anchor="middle" x="361.51" y="-118.5" font-family="Helvetica,sans-Serif" font-size="10.00">cmath</text>
</a>
</g>
</g>
<!-- Node18&#45;&gt;Node39 -->
<g id="edge54" class="edge">
<title>Node18&#45;&gt;Node39</title>
<path fill="none" stroke="#63b8ff" d="M1099.32,-175.51C957.69,-170.98 549.79,-156.34 394.56,-131.86"/>
<polygon fill="#63b8ff" stroke="#63b8ff" points="395.32,-128.44 384.88,-130.25 394.17,-135.35 395.32,-128.44"/>
</g>
<!-- Node40 -->
<g id="node40" class="node">
<title>Node40</title>
<g id="a_node40"><a xlink:title=" ">
<polygon fill="#e0e0e0" stroke="#999999" points="443.64,-132 401.39,-132 401.39,-112 443.64,-112 443.64,-132"/>
<text text-anchor="middle" x="422.51" y="-118.5" font-family="Helvetica,sans-Serif" font-size="10.00">cstdio</text>
</a>
</g>
</g>
<!-- Node18&#45;&gt;Node40 -->
<g id="edge55" class="edge">
<title>Node18&#45;&gt;Node40</title>
<path fill="none" stroke="#63b8ff" d="M1099.54,-177.63C986.96,-178.26 701.17,-175.24 455.31,-132.1"/>
<polygon fill="#63b8ff" stroke="#63b8ff" points="455.95,-128.66 445.49,-130.35 454.72,-135.55 455.95,-128.66"/>
</g>
<!-- Node41 -->
<g id="node41" class="node">
<title>Node41</title>
<g id="a_node41"><a xlink:title=" ">
<polygon fill="#e0e0e0" stroke="#999999" points="511.76,-132 461.26,-132 461.26,-112 511.76,-112 511.76,-132"/>
<text text-anchor="middle" x="486.51" y="-118.5" font-family="Helvetica,sans-Serif" font-size="10.00">numeric</text>
</a>
</g>
</g>
<!-- Node18&#45;&gt;Node41 -->
<g id="edge56" class="edge">
<title>Node18&#45;&gt;Node41</title>
<path fill="none" stroke="#63b8ff" d="M1099.29,-176.6C994.69,-175.07 742.55,-167.83 523.11,-132.13"/>
<polygon fill="#63b8ff" stroke="#63b8ff" points="523.95,-128.72 513.51,-130.55 522.81,-135.63 523.95,-128.72"/>
</g>
<!-- Node42 -->
<g id="node42" class="node">
<title>Node42</title>
<g id="a_node42"><a xlink:title=" ">
<polygon fill="#e0e0e0" stroke="#999999" points="589.26,-132 529.76,-132 529.76,-112 589.26,-112 589.26,-132"/>
<text text-anchor="middle" x="559.51" y="-118.5" font-family="Helvetica,sans-Serif" font-size="10.00">streambuf</text>
</a>
</g>
</g>
<!-- Node18&#45;&gt;Node42 -->
<g id="edge57" class="edge">
<title>Node18&#45;&gt;Node42</title>
<path fill="none" stroke="#63b8ff" d="M1099.3,-175.37C1004.64,-171.72 790.51,-160.94 600.96,-132.15"/>
<polygon fill="#63b8ff" stroke="#63b8ff" points="601.58,-128.71 591.16,-130.64 600.51,-135.63 601.58,-128.71"/>
</g>
<!-- Node43 -->
<g id="node43" class="node">
<title>Node43</title>
<g id="a_node43"><a xlink:title=" ">
<polygon fill="#e0e0e0" stroke="#999999" points="655.64,-132 607.39,-132 607.39,-112 655.64,-112 655.64,-132"/>
<text text-anchor="middle" x="631.51" y="-118.5" font-family="Helvetica,sans-Serif" font-size="10.00">istream</text>
</a>
</g>
</g>
<!-- Node18&#45;&gt;Node43 -->
<g id="edge58" class="edge">
<title>Node18&#45;&gt;Node43</title>
<path fill="none" stroke="#63b8ff" d="M1099.48,-175.12C1013.78,-171.25 831.09,-160.42 667.19,-131.97"/>
<polygon fill="#63b8ff" stroke="#63b8ff" points="667.87,-128.53 657.41,-130.24 666.65,-135.43 667.87,-128.53"/>
</g>
<!-- Node44 -->
<g id="node44" class="node">
<title>Node44</title>
<g id="a_node44"><a xlink:title=" ">
<polygon fill="#e0e0e0" stroke="#999999" points="720.89,-132 674.14,-132 674.14,-112 720.89,-112 720.89,-132"/>
<text text-anchor="middle" x="697.51" y="-118.5" font-family="Helvetica,sans-Serif" font-size="10.00">clocale</text>
</a>
</g>
</g>
<!-- Node18&#45;&gt;Node44 -->
<g id="edge59" class="edge">
<title>Node18&#45;&gt;Node44</title>
<path fill="none" stroke="#63b8ff" d="M1099.41,-174.39C1022.83,-169.75 870.2,-158.17 732.34,-132.27"/>
<polygon fill="#63b8ff" stroke="#63b8ff" points="733.14,-128.86 722.66,-130.41 731.82,-135.73 733.14,-128.86"/>
</g>
<!-- Node45 -->
<g id="node45" class="node">
<title>Node45</title>
<g id="a_node45"><a xlink:title=" ">
<polygon fill="#e0e0e0" stroke="#999999" points="784.14,-132 738.89,-132 738.89,-112 784.14,-112 784.14,-132"/>
<text text-anchor="middle" x="761.51" y="-118.5" font-family="Helvetica,sans-Serif" font-size="10.00">cctype</text>
</a>
</g>
</g>
<!-- Node18&#45;&gt;Node45 -->
<g id="edge60" class="edge">
<title>Node18&#45;&gt;Node45</title>
<path fill="none" stroke="#63b8ff" d="M1099.16,-173.22C1032.23,-167.56 908.82,-155.22 795.38,-132.34"/>
<polygon fill="#63b8ff" stroke="#63b8ff" points="796.42,-128.98 785.92,-130.39 795.01,-135.83 796.42,-128.98"/>
</g>
<!-- Node46 -->
<g id="node46" class="node">
<title>Node46</title>
<g id="a_node46"><a xlink:title=" ">
<polygon fill="#e0e0e0" stroke="#999999" points="845.01,-132 802.01,-132 802.01,-112 845.01,-112 845.01,-132"/>
<text text-anchor="middle" x="823.51" y="-118.5" font-family="Helvetica,sans-Serif" font-size="10.00">cerrno</text>
</a>
</g>
</g>
<!-- Node18&#45;&gt;Node46 -->
<g id="edge61" class="edge">
<title>Node18&#45;&gt;Node46</title>
<path fill="none" stroke="#63b8ff" d="M1099.25,-171.46C1042.85,-164.67 947.54,-151.86 856.51,-132.18"/>
<polygon fill="#63b8ff" stroke="#63b8ff" points="857.43,-128.8 846.92,-130.07 855.93,-135.64 857.43,-128.8"/>
</g>
<!-- Node47 -->
<g id="node47" class="node">
<title>Node47</title>
<g id="a_node47"><a xlink:title=" ">
<polygon fill="#e0e0e0" stroke="#999999" points="891.91,-132 863.11,-132 863.11,-112 891.91,-112 891.91,-132"/>
<text text-anchor="middle" x="877.51" y="-118.5" font-family="Helvetica,sans-Serif" font-size="10.00">ios</text>
</a>
</g>
</g>
<!-- Node18&#45;&gt;Node47 -->
<g id="edge62" class="edge">
<title>Node18&#45;&gt;Node47</title>
<path fill="none" stroke="#63b8ff" d="M1099.41,-170.95C1051.28,-164.38 975.79,-152.41 902.73,-132.19"/>
<polygon fill="#63b8ff" stroke="#63b8ff" points="904,-128.91 893.43,-129.56 902.09,-135.65 904,-128.91"/>
</g>
<!-- Node48 -->
<g id="node48" class="node">
<title>Node48</title>
<g id="a_node48"><a xlink:title=" ">
<polygon fill="#e0e0e0" stroke="#999999" points="961.14,-132 909.89,-132 909.89,-112 961.14,-112 961.14,-132"/>
<text text-anchor="middle" x="935.51" y="-118.5" font-family="Helvetica,sans-Serif" font-size="10.00">ostream</text>
</a>
</g>
</g>
<!-- Node18&#45;&gt;Node48 -->
<g id="edge63" class="edge">
<title>Node18&#45;&gt;Node48</title>
<path fill="none" stroke="#63b8ff" d="M1111.41,-167.59C1072.44,-157.71 1011.51,-142.27 972.56,-132.39"/>
<polygon fill="#63b8ff" stroke="#63b8ff" points="973.49,-129.02 962.94,-129.95 971.77,-135.8 973.49,-129.02"/>
</g>
<!-- Node49 -->
<g id="node49" class="node">
<title>Node49</title>
<g id="a_node49"><a xlink:title=" ">
<polygon fill="#e0e0e0" stroke="#999999" points="1067.39,-132 1017.64,-132 1017.64,-112 1067.39,-112 1067.39,-132"/>
<text text-anchor="middle" x="1042.51" y="-118.5" font-family="Helvetica,sans-Serif" font-size="10.00">iomanip</text>
</a>
</g>
</g>
<!-- Node18&#45;&gt;Node49 -->
<g id="edge64" class="edge">
<title>Node18&#45;&gt;Node49</title>
<path fill="none" stroke="#63b8ff" d="M1130.05,-167.59C1113.81,-159.32 1089.91,-147.14 1071.18,-137.6"/>
<polygon fill="#63b8ff" stroke="#63b8ff" points="1072.97,-134.59 1062.47,-133.17 1069.79,-140.82 1072.97,-134.59"/>
</g>
<!-- Node51&#45;&gt;Node3 -->
<g id="edge70" class="edge">
<title>Node51&#45;&gt;Node3</title>
<path fill="none" stroke="#63b8ff" d="M2486.68,-226.33C2510.09,-220.39 2536.2,-209.18 2550.51,-188 2571.51,-156.93 2516.41,-138.44 2477.12,-129.54"/>
<polygon fill="#63b8ff" stroke="#63b8ff" points="2478.02,-126.15 2467.51,-127.5 2476.56,-133 2478.02,-126.15"/>
</g>
<!-- Node51&#45;&gt;Node8 -->
<g id="edge71" class="edge">
<title>Node51&#45;&gt;Node8</title>
<path fill="none" stroke="#63b8ff" d="M2486.65,-232.09C2565.31,-229.65 2716.72,-220.72 2757.51,-188 2778.25,-171.37 2773.77,-158.15 2778.51,-132 2784.57,-98.58 2793.98,-80.55 2770.51,-56 2743.41,-27.65 2629.41,-16.72 2569.56,-12.88"/>
<polygon fill="#63b8ff" stroke="#63b8ff" points="2570.06,-9.4 2559.87,-12.29 2569.64,-16.39 2570.06,-9.4"/>
</g>
<!-- Node51&#45;&gt;Node10 -->
<g id="edge68" class="edge">
<title>Node51&#45;&gt;Node10</title>
<path fill="none" stroke="#63b8ff" d="M2486.69,-233.12C2563.49,-232.18 2708.33,-225.34 2740.51,-188 2751.78,-174.93 2743.26,-155.84 2733.73,-141.73"/>
<polygon fill="#63b8ff" stroke="#63b8ff" points="2736.55,-139.66 2727.78,-133.71 2730.92,-143.82 2736.55,-139.66"/>
</g>
<!-- Node51&#45;&gt;Node13 -->
<g id="edge72" class="edge">
<title>Node51&#45;&gt;Node13</title>
<path fill="none" stroke="#63b8ff" d="M2428.54,-223.62C2408.85,-205.11 2364.75,-163.65 2339.73,-140.13"/>
<polygon fill="#63b8ff" stroke="#63b8ff" points="2342.25,-137.69 2332.57,-133.39 2337.45,-142.79 2342.25,-137.69"/>
</g>
<!-- Node51&#45;&gt;Node16 -->
<g id="edge67" class="edge">
<title>Node51&#45;&gt;Node16</title>
<path fill="none" stroke="#63b8ff" d="M2403.33,-223.59C2369.93,-214.67 2319.54,-201.19 2282.88,-191.39"/>
<polygon fill="#63b8ff" stroke="#63b8ff" points="2284,-188.07 2273.44,-188.87 2282.19,-194.83 2284,-188.07"/>
</g>
<!-- Node51&#45;&gt;Node21 -->
<g id="edge74" class="edge">
<title>Node51&#45;&gt;Node21</title>
<path fill="none" stroke="#63b8ff" d="M2390.28,-230.98C2334.15,-227.31 2239.44,-216.99 2163.51,-188 2132.8,-176.27 2101.51,-154.58 2081.83,-139.5"/>
<polygon fill="#63b8ff" stroke="#63b8ff" points="2084.13,-136.85 2074.1,-133.43 2079.81,-142.36 2084.13,-136.85"/>
</g>
<!-- Node51&#45;&gt;Node30 -->
<g id="edge73" class="edge">
<title>Node51&#45;&gt;Node30</title>
<path fill="none" stroke="#63b8ff" d="M2390.32,-229.45C2326.07,-223.88 2216.67,-211.26 2184.51,-188 2169.43,-177.1 2160.2,-157.65 2155.03,-142.86"/>
<polygon fill="#63b8ff" stroke="#63b8ff" points="2158.49,-142.2 2152.18,-133.7 2151.81,-144.29 2158.49,-142.2"/>
</g>
<!-- Node52 -->
<g id="node52" class="node">
<title>Node52</title>
<g id="a_node52"><a xlink:title=" ">
<polygon fill="#e0e0e0" stroke="#999999" points="2541.51,-188 2483.51,-188 2483.51,-168 2541.51,-168 2541.51,-188"/>
<text text-anchor="middle" x="2512.51" y="-174.5" font-family="Helvetica,sans-Serif" font-size="10.00">System.h</text>
</a>
</g>
</g>
<!-- Node51&#45;&gt;Node52 -->
<g id="edge69" class="edge">
<title>Node51&#45;&gt;Node52</title>
<path fill="none" stroke="#63b8ff" d="M2451.4,-223.59C2462.23,-215.7 2477.93,-204.24 2490.7,-194.92"/>
<polygon fill="#63b8ff" stroke="#63b8ff" points="2492.53,-197.91 2498.55,-189.19 2488.41,-192.26 2492.53,-197.91"/>
</g>
<!-- Node53 -->
<g id="node53" class="node">
<title>Node53</title>
<g id="a_node53"><a xlink:title=" ">
<polygon fill="#e0e0e0" stroke="#999999" points="2465.26,-188 2411.76,-188 2411.76,-168 2465.26,-168 2465.26,-188"/>
<text text-anchor="middle" x="2438.51" y="-174.5" font-family="Helvetica,sans-Serif" font-size="10.00">iostream</text>
</a>
</g>
</g>
<!-- Node51&#45;&gt;Node53 -->
<g id="edge75" class="edge">
<title>Node51&#45;&gt;Node53</title>
<path fill="none" stroke="#63b8ff" d="M2438.51,-223.59C2438.51,-217.01 2438.51,-207.96 2438.51,-199.73"/>
<polygon fill="#63b8ff" stroke="#63b8ff" points="2442.01,-199.81 2438.51,-189.81 2435.01,-199.81 2442.01,-199.81"/>
</g>
</g>
</svg>
