<?xml version="1.0" encoding="UTF-8" standalone="no"?>
<!DOCTYPE svg PUBLIC "-//W3C//DTD SVG 1.1//EN"
 "http://www.w3.org/Graphics/SVG/1.1/DTD/svg11.dtd">
<!-- Generated by graphviz version 12.2.1 (20241206.2353)
 -->
<!-- Title: src/managers/ManagerSystem.h Pages: 1 -->
<svg width="747pt" height="252pt"
 viewBox="0.00 0.00 746.75 252.00" xmlns="http://www.w3.org/2000/svg" xmlns:xlink="http://www.w3.org/1999/xlink">
<g id="graph0" class="graph" transform="scale(1 1) rotate(0) translate(4 248)">
<title>src/managers/ManagerSystem.h</title>
<!-- Node1 -->
<g id="node1" class="node">
<title>Node1</title>
<g id="a_node1"><a xlink:title=" ">
<polygon fill="#999999" stroke="#666666" points="442.88,-244 285.12,-244 285.12,-224 442.88,-224 442.88,-244"/>
<text text-anchor="middle" x="364" y="-230.5" font-family="Helvetica,sans-Serif" font-size="10.00">src/managers/ManagerSystem.h</text>
</a>
</g>
</g>
<!-- Node2 -->
<g id="node2" class="node">
<title>Node2</title>
<g id="a_node2"><a xlink:href="ManagerEntity_8h.html" target="_top" xlink:title=" ">
<polygon fill="white" stroke="#666666" points="218.88,-188 133.12,-188 133.12,-168 218.88,-168 218.88,-188"/>
<text text-anchor="middle" x="176" y="-174.5" font-family="Helvetica,sans-Serif" font-size="10.00">ManagerEntity.h</text>
</a>
</g>
</g>
<!-- Node1&#45;&gt;Node2 -->
<g id="edge1" class="edge">
<title>Node1&#45;&gt;Node2</title>
<path fill="none" stroke="#63b8ff" d="M331.25,-223.59C300.44,-214.74 254.08,-201.43 220.03,-191.65"/>
<polygon fill="#63b8ff" stroke="#63b8ff" points="221.03,-188.29 210.46,-188.9 219.1,-195.02 221.03,-188.29"/>
</g>
<!-- Node3 -->
<g id="node3" class="node">
<title>Node3</title>
<g id="a_node3"><a xlink:href="Entity_8h.html" target="_top" xlink:title=" ">
<polygon fill="white" stroke="#666666" points="137.12,-132 88.88,-132 88.88,-112 137.12,-112 137.12,-132"/>
<text text-anchor="middle" x="113" y="-118.5" font-family="Helvetica,sans-Serif" font-size="10.00">Entity.h</text>
</a>
</g>
</g>
<!-- Node1&#45;&gt;Node3 -->
<g id="edge17" class="edge">
<title>Node1&#45;&gt;Node3</title>
<path fill="none" stroke="#63b8ff" d="M284.87,-227.79C223.8,-222.08 146.13,-210.53 124,-188 112.71,-176.51 110.51,-158 110.82,-143.67"/>
<polygon fill="#63b8ff" stroke="#63b8ff" points="114.29,-144.15 111.47,-133.94 107.31,-143.68 114.29,-144.15"/>
</g>
<!-- Node8 -->
<g id="node8" class="node">
<title>Node8</title>
<g id="a_node8"><a xlink:title=" ">
<polygon fill="#e0e0e0" stroke="#999999" points="295.62,-20 244.38,-20 244.38,0 295.62,0 295.62,-20"/>
<text text-anchor="middle" x="270" y="-6.5" font-family="Helvetica,sans-Serif" font-size="10.00">memory</text>
</a>
</g>
</g>
<!-- Node1&#45;&gt;Node8 -->
<g id="edge18" class="edge">
<title>Node1&#45;&gt;Node8</title>
<path fill="none" stroke="#63b8ff" d="M344.73,-223.5C331.19,-215.81 313.8,-203.68 304,-188 272.97,-138.35 269.14,-66.73 269.32,-31.77"/>
<polygon fill="#63b8ff" stroke="#63b8ff" points="272.82,-31.87 269.51,-21.81 265.82,-31.74 272.82,-31.87"/>
</g>
<!-- Node10 -->
<g id="node10" class="node">
<title>Node10</title>
<g id="a_node10"><a xlink:title=" ">
<polygon fill="#e0e0e0" stroke="#999999" points="255.5,-132 212.5,-132 212.5,-112 255.5,-112 255.5,-132"/>
<text text-anchor="middle" x="234" y="-118.5" font-family="Helvetica,sans-Serif" font-size="10.00">vector</text>
</a>
</g>
</g>
<!-- Node1&#45;&gt;Node10 -->
<g id="edge19" class="edge">
<title>Node1&#45;&gt;Node10</title>
<path fill="none" stroke="#63b8ff" d="M333.6,-223.59C313.95,-216.32 288.82,-204.66 271,-188 257.52,-175.39 247.6,-156.73 241.44,-142.64"/>
<polygon fill="#63b8ff" stroke="#63b8ff" points="244.74,-141.46 237.73,-133.51 238.25,-144.09 244.74,-141.46"/>
</g>
<!-- Node12 -->
<g id="node12" class="node">
<title>Node12</title>
<g id="a_node12"><a xlink:href="ManagerGrammar_8h.html" target="_top" xlink:title=" ">
<polygon fill="white" stroke="#666666" points="414.75,-188 313.25,-188 313.25,-168 414.75,-168 414.75,-188"/>
<text text-anchor="middle" x="364" y="-174.5" font-family="Helvetica,sans-Serif" font-size="10.00">ManagerGrammar.h</text>
</a>
</g>
</g>
<!-- Node1&#45;&gt;Node12 -->
<g id="edge14" class="edge">
<title>Node1&#45;&gt;Node12</title>
<path fill="none" stroke="#63b8ff" d="M364,-223.59C364,-217.01 364,-207.96 364,-199.73"/>
<polygon fill="#63b8ff" stroke="#63b8ff" points="367.5,-199.81 364,-189.81 360.5,-199.81 367.5,-199.81"/>
</g>
<!-- Node14 -->
<g id="node14" class="node">
<title>Node14</title>
<g id="a_node14"><a xlink:title=" ">
<polygon fill="#e0e0e0" stroke="#999999" points="491,-188 433,-188 433,-168 491,-168 491,-188"/>
<text text-anchor="middle" x="462" y="-174.5" font-family="Helvetica,sans-Serif" font-size="10.00">System.h</text>
</a>
</g>
</g>
<!-- Node1&#45;&gt;Node14 -->
<g id="edge16" class="edge">
<title>Node1&#45;&gt;Node14</title>
<path fill="none" stroke="#63b8ff" d="M381.07,-223.59C395.88,-215.44 417.57,-203.48 434.77,-194"/>
<polygon fill="#63b8ff" stroke="#63b8ff" points="436.4,-197.1 443.47,-189.21 433.02,-190.97 436.4,-197.1"/>
</g>
<!-- Node15 -->
<g id="node15" class="node">
<title>Node15</title>
<g id="a_node15"><a xlink:title=" ">
<polygon fill="#e0e0e0" stroke="#999999" points="591.38,-188 508.62,-188 508.62,-168 591.38,-168 591.38,-188"/>
<text text-anchor="middle" x="550" y="-174.5" font-family="Helvetica,sans-Serif" font-size="10.00">unordered_map</text>
</a>
</g>
</g>
<!-- Node1&#45;&gt;Node15 -->
<g id="edge20" class="edge">
<title>Node1&#45;&gt;Node15</title>
<path fill="none" stroke="#63b8ff" d="M396.4,-223.59C426.88,-214.74 472.76,-201.43 506.43,-191.65"/>
<polygon fill="#63b8ff" stroke="#63b8ff" points="507.27,-195.05 515.89,-188.9 505.32,-188.33 507.27,-195.05"/>
</g>
<!-- Node16 -->
<g id="node16" class="node">
<title>Node16</title>
<g id="a_node16"><a xlink:title=" ">
<polygon fill="#e0e0e0" stroke="#999999" points="667,-188 609,-188 609,-168 667,-168 667,-188"/>
<text text-anchor="middle" x="638" y="-174.5" font-family="Helvetica,sans-Serif" font-size="10.00">functional</text>
</a>
</g>
</g>
<!-- Node1&#45;&gt;Node16 -->
<g id="edge21" class="edge">
<title>Node1&#45;&gt;Node16</title>
<path fill="none" stroke="#63b8ff" d="M417.09,-223.57C462.58,-215.33 530.1,-202.74 597.72,-188.42"/>
<polygon fill="#63b8ff" stroke="#63b8ff" points="598.04,-191.93 607.09,-186.42 596.58,-185.08 598.04,-191.93"/>
</g>
<!-- Node17 -->
<g id="node17" class="node">
<title>Node17</title>
<g id="a_node17"><a xlink:title=" ">
<polygon fill="#e0e0e0" stroke="#999999" points="738.75,-188 685.25,-188 685.25,-168 738.75,-168 738.75,-188"/>
<text text-anchor="middle" x="712" y="-174.5" font-family="Helvetica,sans-Serif" font-size="10.00">iostream</text>
</a>
</g>
</g>
<!-- Node1&#45;&gt;Node17 -->
<g id="edge22" class="edge">
<title>Node1&#45;&gt;Node17</title>
<path fill="none" stroke="#63b8ff" d="M443.24,-223.83C503.87,-216.3 589.75,-204.51 673.89,-188.24"/>
<polygon fill="#63b8ff" stroke="#63b8ff" points="674.31,-191.73 683.45,-186.37 672.97,-184.86 674.31,-191.73"/>
</g>
<!-- Node2&#45;&gt;Node3 -->
<g id="edge2" class="edge">
<title>Node2&#45;&gt;Node3</title>
<path fill="none" stroke="#63b8ff" d="M165.03,-167.59C156.08,-159.93 143.23,-148.91 132.54,-139.75"/>
<polygon fill="#63b8ff" stroke="#63b8ff" points="134.87,-137.13 125,-133.28 130.31,-142.45 134.87,-137.13"/>
</g>
<!-- Node5 -->
<g id="node5" class="node">
<title>Node5</title>
<g id="a_node5"><a xlink:title=" ">
<polygon fill="#e0e0e0" stroke="#999999" points="40,-20 0,-20 0,0 40,0 40,-20"/>
<text text-anchor="middle" x="20" y="-6.5" font-family="Helvetica,sans-Serif" font-size="10.00">string</text>
</a>
</g>
</g>
<!-- Node2&#45;&gt;Node5 -->
<g id="edge12" class="edge">
<title>Node2&#45;&gt;Node5</title>
<path fill="none" stroke="#63b8ff" d="M144.88,-167.56C107.31,-154.2 46.39,-125.68 24,-76 17.73,-62.1 16.96,-44.8 17.63,-31.54"/>
<polygon fill="#63b8ff" stroke="#63b8ff" points="21.1,-32.08 18.46,-21.82 14.12,-31.49 21.1,-32.08"/>
</g>
<!-- Node2&#45;&gt;Node10 -->
<g id="edge11" class="edge">
<title>Node2&#45;&gt;Node10</title>
<path fill="none" stroke="#63b8ff" d="M186.1,-167.59C194.25,-160.01 205.93,-149.13 215.72,-140.02"/>
<polygon fill="#63b8ff" stroke="#63b8ff" points="217.97,-142.71 222.91,-133.33 213.2,-137.58 217.97,-142.71"/>
</g>
<!-- Node11 -->
<g id="node11" class="node">
<title>Node11</title>
<g id="a_node11"><a xlink:title=" ">
<polygon fill="#e0e0e0" stroke="#999999" points="193.38,-132 158.62,-132 158.62,-112 193.38,-112 193.38,-132"/>
<text text-anchor="middle" x="176" y="-118.5" font-family="Helvetica,sans-Serif" font-size="10.00">map</text>
</a>
</g>
</g>
<!-- Node2&#45;&gt;Node11 -->
<g id="edge13" class="edge">
<title>Node2&#45;&gt;Node11</title>
<path fill="none" stroke="#63b8ff" d="M176,-167.59C176,-161.01 176,-151.96 176,-143.73"/>
<polygon fill="#63b8ff" stroke="#63b8ff" points="179.5,-143.81 176,-133.81 172.5,-143.81 179.5,-143.81"/>
</g>
<!-- Node4 -->
<g id="node4" class="node">
<title>Node4</title>
<g id="a_node4"><a xlink:href="Components_8h.html" target="_top" xlink:title=" ">
<polygon fill="white" stroke="#666666" points="218.88,-76 139.12,-76 139.12,-56 218.88,-56 218.88,-76"/>
<text text-anchor="middle" x="179" y="-62.5" font-family="Helvetica,sans-Serif" font-size="10.00">Components.h</text>
</a>
</g>
</g>
<!-- Node3&#45;&gt;Node4 -->
<g id="edge3" class="edge">
<title>Node3&#45;&gt;Node4</title>
<path fill="none" stroke="#63b8ff" d="M124.5,-111.59C133.96,-103.85 147.6,-92.69 158.87,-83.47"/>
<polygon fill="#63b8ff" stroke="#63b8ff" points="160.94,-86.3 166.46,-77.26 156.51,-80.88 160.94,-86.3"/>
</g>
<!-- Node3&#45;&gt;Node5 -->
<g id="edge9" class="edge">
<title>Node3&#45;&gt;Node5</title>
<path fill="none" stroke="#63b8ff" d="M112.02,-111.67C110.18,-98.13 105.13,-72.83 92,-56 81.2,-42.16 64.87,-31.45 50.49,-23.97"/>
<polygon fill="#63b8ff" stroke="#63b8ff" points="52.35,-20.98 41.83,-19.75 49.28,-27.27 52.35,-20.98"/>
</g>
<!-- Node3&#45;&gt;Node8 -->
<g id="edge8" class="edge">
<title>Node3&#45;&gt;Node8</title>
<path fill="none" stroke="#63b8ff" d="M137.41,-113.41C166.72,-103.97 213.72,-87.67 228,-76 242.94,-63.79 254.34,-44.83 261.46,-30.53"/>
<polygon fill="#63b8ff" stroke="#63b8ff" points="264.55,-32.19 265.61,-21.65 258.21,-29.23 264.55,-32.19"/>
</g>
<!-- Node9 -->
<g id="node9" class="node">
<title>Node9</title>
<g id="a_node9"><a xlink:title=" ">
<polygon fill="#e0e0e0" stroke="#999999" points="82.88,-76 33.12,-76 33.12,-56 82.88,-56 82.88,-76"/>
<text text-anchor="middle" x="58" y="-62.5" font-family="Helvetica,sans-Serif" font-size="10.00">optional</text>
</a>
</g>
</g>
<!-- Node3&#45;&gt;Node9 -->
<g id="edge10" class="edge">
<title>Node3&#45;&gt;Node9</title>
<path fill="none" stroke="#63b8ff" d="M103.42,-111.59C95.77,-104.08 84.84,-93.35 75.62,-84.3"/>
<polygon fill="#63b8ff" stroke="#63b8ff" points="78.14,-81.87 68.55,-77.36 73.23,-86.86 78.14,-81.87"/>
</g>
<!-- Node4&#45;&gt;Node5 -->
<g id="edge4" class="edge">
<title>Node4&#45;&gt;Node5</title>
<path fill="none" stroke="#63b8ff" d="M151.3,-55.59C123.34,-46.1 80.23,-31.46 51.11,-21.57"/>
<polygon fill="#63b8ff" stroke="#63b8ff" points="52.35,-18.29 41.75,-18.39 50.1,-24.92 52.35,-18.29"/>
</g>
<!-- Node6 -->
<g id="node6" class="node">
<title>Node6</title>
<g id="a_node6"><a xlink:title=" ">
<polygon fill="#e0e0e0" stroke="#999999" points="161.5,-20 58.5,-20 58.5,0 161.5,0 161.5,-20"/>
<text text-anchor="middle" x="110" y="-6.5" font-family="Helvetica,sans-Serif" font-size="10.00">SFML/Graphics.hpp</text>
</a>
</g>
</g>
<!-- Node4&#45;&gt;Node6 -->
<g id="edge5" class="edge">
<title>Node4&#45;&gt;Node6</title>
<path fill="none" stroke="#63b8ff" d="M166.98,-55.59C156.99,-47.77 142.54,-36.46 130.69,-27.19"/>
<polygon fill="#63b8ff" stroke="#63b8ff" points="133.11,-24.64 123.07,-21.23 128.79,-30.15 133.11,-24.64"/>
</g>
<!-- Node7 -->
<g id="node7" class="node">
<title>Node7</title>
<g id="a_node7"><a xlink:title=" ">
<polygon fill="#e0e0e0" stroke="#999999" points="226.38,-20 179.62,-20 179.62,0 226.38,0 226.38,-20"/>
<text text-anchor="middle" x="203" y="-6.5" font-family="Helvetica,sans-Serif" font-size="10.00">Vec2.h</text>
</a>
</g>
</g>
<!-- Node4&#45;&gt;Node7 -->
<g id="edge6" class="edge">
<title>Node4&#45;&gt;Node7</title>
<path fill="none" stroke="#63b8ff" d="M183.18,-55.59C186.24,-48.7 190.51,-39.1 194.3,-30.57"/>
<polygon fill="#63b8ff" stroke="#63b8ff" points="197.39,-32.24 198.25,-21.68 190.99,-29.4 197.39,-32.24"/>
</g>
<!-- Node4&#45;&gt;Node8 -->
<g id="edge7" class="edge">
<title>Node4&#45;&gt;Node8</title>
<path fill="none" stroke="#63b8ff" d="M194.85,-55.59C208.47,-47.51 228.36,-35.71 244.26,-26.27"/>
<polygon fill="#63b8ff" stroke="#63b8ff" points="245.91,-29.37 252.72,-21.25 242.34,-23.35 245.91,-29.37"/>
</g>
<!-- Node13 -->
<g id="node13" class="node">
<title>Node13</title>
<g id="a_node13"><a xlink:title=" ">
<polygon fill="#e0e0e0" stroke="#999999" points="406.88,-132 321.12,-132 321.12,-112 406.88,-112 406.88,-132"/>
<text text-anchor="middle" x="364" y="-118.5" font-family="Helvetica,sans-Serif" font-size="10.00">BicolGrammar.h</text>
</a>
</g>
</g>
<!-- Node12&#45;&gt;Node13 -->
<g id="edge15" class="edge">
<title>Node12&#45;&gt;Node13</title>
<path fill="none" stroke="#63b8ff" d="M364,-167.59C364,-161.01 364,-151.96 364,-143.73"/>
<polygon fill="#63b8ff" stroke="#63b8ff" points="367.5,-143.81 364,-133.81 360.5,-143.81 367.5,-143.81"/>
</g>
</g>
</svg>
