<?xml version="1.0" encoding="UTF-8" standalone="no"?>
<!DOCTYPE svg PUBLIC "-//W3C//DTD SVG 1.1//EN"
 "http://www.w3.org/Graphics/SVG/1.1/DTD/svg11.dtd">
<!-- Generated by graphviz version 12.2.1 (20241206.2353)
 -->
<!-- Title: src/managers/ManagerSentencing.cpp Pages: 1 -->
<svg width="191pt" height="140pt"
 viewBox="0.00 0.00 191.25 140.00" xmlns="http://www.w3.org/2000/svg" xmlns:xlink="http://www.w3.org/1999/xlink">
<g id="graph0" class="graph" transform="scale(1 1) rotate(0) translate(4 136)">
<title>src/managers/ManagerSentencing.cpp</title>
<!-- Node1 -->
<g id="node1" class="node">
<title>Node1</title>
<g id="a_node1"><a xlink:title=" ">
<polygon fill="#999999" stroke="#666666" points="183.25,-132 0,-132 0,-112 183.25,-112 183.25,-132"/>
<text text-anchor="middle" x="91.62" y="-118.5" font-family="Helvetica,sans-Serif" font-size="10.00">src/managers/ManagerSentencing.cpp</text>
</a>
</g>
</g>
<!-- Node2 -->
<g id="node2" class="node">
<title>Node2</title>
<g id="a_node2"><a xlink:href="ManagerSentencing_8h.html" target="_top" xlink:title=" ">
<polygon fill="white" stroke="#666666" points="146.88,-76 36.38,-76 36.38,-56 146.88,-56 146.88,-76"/>
<text text-anchor="middle" x="91.62" y="-62.5" font-family="Helvetica,sans-Serif" font-size="10.00">ManagerSentencing.h</text>
</a>
</g>
</g>
<!-- Node1&#45;&gt;Node2 -->
<g id="edge1" class="edge">
<title>Node1&#45;&gt;Node2</title>
<path fill="none" stroke="#63b8ff" d="M91.62,-111.59C91.62,-105.01 91.62,-95.96 91.62,-87.73"/>
<polygon fill="#63b8ff" stroke="#63b8ff" points="95.13,-87.81 91.63,-77.81 88.13,-87.81 95.13,-87.81"/>
</g>
<!-- Node3 -->
<g id="node3" class="node">
<title>Node3</title>
<g id="a_node3"><a xlink:title=" ">
<polygon fill="#e0e0e0" stroke="#999999" points="81.12,-20 38.12,-20 38.12,0 81.12,0 81.12,-20"/>
<text text-anchor="middle" x="59.62" y="-6.5" font-family="Helvetica,sans-Serif" font-size="10.00">vector</text>
</a>
</g>
</g>
<!-- Node2&#45;&gt;Node3 -->
<g id="edge2" class="edge">
<title>Node2&#45;&gt;Node3</title>
<path fill="none" stroke="#63b8ff" d="M86.05,-55.59C81.88,-48.55 76.02,-38.67 70.88,-30"/>
<polygon fill="#63b8ff" stroke="#63b8ff" points="74.02,-28.42 65.91,-21.6 67.99,-31.99 74.02,-28.42"/>
</g>
<!-- Node4 -->
<g id="node4" class="node">
<title>Node4</title>
<g id="a_node4"><a xlink:title=" ">
<polygon fill="#e0e0e0" stroke="#999999" points="150.25,-20 99,-20 99,0 150.25,0 150.25,-20"/>
<text text-anchor="middle" x="124.62" y="-6.5" font-family="Helvetica,sans-Serif" font-size="10.00">memory</text>
</a>
</g>
</g>
<!-- Node2&#45;&gt;Node4 -->
<g id="edge3" class="edge">
<title>Node2&#45;&gt;Node4</title>
<path fill="none" stroke="#63b8ff" d="M97.37,-55.59C101.68,-48.55 107.72,-38.67 113.01,-30"/>
<polygon fill="#63b8ff" stroke="#63b8ff" points="115.93,-31.95 118.15,-21.59 109.95,-28.3 115.93,-31.95"/>
</g>
</g>
</svg>
