<?xml version="1.0" encoding="UTF-8" standalone="no"?>
<!DOCTYPE svg PUBLIC "-//W3C//DTD SVG 1.1//EN"
 "http://www.w3.org/Graphics/SVG/1.1/DTD/svg11.dtd">
<!-- Generated by graphviz version 12.2.1 (20241206.2353)
 -->
<!-- Title: src/managers/ManagerStage.cpp Pages: 1 -->
<svg width="564pt" height="252pt"
 viewBox="0.00 0.00 563.88 252.00" xmlns="http://www.w3.org/2000/svg" xmlns:xlink="http://www.w3.org/1999/xlink">
<g id="graph0" class="graph" transform="scale(1 1) rotate(0) translate(4 248)">
<title>src/managers/ManagerStage.cpp</title>
<!-- Node1 -->
<g id="node1" class="node">
<title>Node1</title>
<g id="a_node1"><a xlink:title=" ">
<polygon fill="#999999" stroke="#666666" points="504.5,-244 344.5,-244 344.5,-224 504.5,-224 504.5,-244"/>
<text text-anchor="middle" x="424.5" y="-230.5" font-family="Helvetica,sans-Serif" font-size="10.00">src/managers/ManagerStage.cpp</text>
</a>
</g>
</g>
<!-- Node2 -->
<g id="node2" class="node">
<title>Node2</title>
<g id="a_node2"><a xlink:href="ManagerStage_8h.html" target="_top" xlink:title=" ">
<polygon fill="white" stroke="#666666" points="424.12,-188 336.88,-188 336.88,-168 424.12,-168 424.12,-188"/>
<text text-anchor="middle" x="380.5" y="-174.5" font-family="Helvetica,sans-Serif" font-size="10.00">ManagerStage.h</text>
</a>
</g>
</g>
<!-- Node1&#45;&gt;Node2 -->
<g id="edge1" class="edge">
<title>Node1&#45;&gt;Node2</title>
<path fill="none" stroke="#63b8ff" d="M416.84,-223.59C410.91,-216.32 402.51,-206.02 395.29,-197.15"/>
<polygon fill="#63b8ff" stroke="#63b8ff" points="398.06,-195.01 389.03,-189.47 392.64,-199.43 398.06,-195.01"/>
</g>
<!-- Node13 -->
<g id="node13" class="node">
<title>Node13</title>
<g id="a_node13"><a xlink:title=" ">
<polygon fill="#e0e0e0" stroke="#999999" points="495.25,-188 441.75,-188 441.75,-168 495.25,-168 495.25,-188"/>
<text text-anchor="middle" x="468.5" y="-174.5" font-family="Helvetica,sans-Serif" font-size="10.00">iostream</text>
</a>
</g>
</g>
<!-- Node1&#45;&gt;Node13 -->
<g id="edge16" class="edge">
<title>Node1&#45;&gt;Node13</title>
<path fill="none" stroke="#63b8ff" d="M432.16,-223.59C438.09,-216.32 446.49,-206.02 453.71,-197.15"/>
<polygon fill="#63b8ff" stroke="#63b8ff" points="456.36,-199.43 459.97,-189.47 450.94,-195.01 456.36,-199.43"/>
</g>
<!-- Node3 -->
<g id="node3" class="node">
<title>Node3</title>
<g id="a_node3"><a xlink:href="Entity_8h.html" target="_top" xlink:title=" ">
<polygon fill="white" stroke="#666666" points="288.62,-132 240.38,-132 240.38,-112 288.62,-112 288.62,-132"/>
<text text-anchor="middle" x="264.5" y="-118.5" font-family="Helvetica,sans-Serif" font-size="10.00">Entity.h</text>
</a>
</g>
</g>
<!-- Node2&#45;&gt;Node3 -->
<g id="edge2" class="edge">
<title>Node2&#45;&gt;Node3</title>
<path fill="none" stroke="#63b8ff" d="M360.29,-167.59C342.27,-159.21 315.63,-146.8 295.02,-137.21"/>
<polygon fill="#63b8ff" stroke="#63b8ff" points="296.78,-134.17 286.24,-133.12 293.82,-140.51 296.78,-134.17"/>
</g>
<!-- Node4 -->
<g id="node4" class="node">
<title>Node4</title>
<g id="a_node4"><a xlink:href="Components_8h.html" target="_top" xlink:title=" ">
<polygon fill="white" stroke="#666666" points="183.38,-76 103.62,-76 103.62,-56 183.38,-56 183.38,-76"/>
<text text-anchor="middle" x="143.5" y="-62.5" font-family="Helvetica,sans-Serif" font-size="10.00">Components.h</text>
</a>
</g>
</g>
<!-- Node2&#45;&gt;Node4 -->
<g id="edge11" class="edge">
<title>Node2&#45;&gt;Node4</title>
<path fill="none" stroke="#63b8ff" d="M336.62,-167.94C306.12,-160.65 265.08,-148.83 231.5,-132 205.43,-118.93 178.97,-98.15 161.97,-83.61"/>
<polygon fill="#63b8ff" stroke="#63b8ff" points="164.54,-81.21 154.7,-77.27 159.93,-86.48 164.54,-81.21"/>
</g>
<!-- Node5 -->
<g id="node5" class="node">
<title>Node5</title>
<g id="a_node5"><a xlink:title=" ">
<polygon fill="#e0e0e0" stroke="#999999" points="337.5,-20 297.5,-20 297.5,0 337.5,0 337.5,-20"/>
<text text-anchor="middle" x="317.5" y="-6.5" font-family="Helvetica,sans-Serif" font-size="10.00">string</text>
</a>
</g>
</g>
<!-- Node2&#45;&gt;Node5 -->
<g id="edge12" class="edge">
<title>Node2&#45;&gt;Node5</title>
<path fill="none" stroke="#63b8ff" d="M376.93,-167.6C366.97,-141.35 338.69,-66.84 325.05,-30.89"/>
<polygon fill="#63b8ff" stroke="#63b8ff" points="328.39,-29.82 321.57,-21.71 321.84,-32.3 328.39,-29.82"/>
</g>
<!-- Node10 -->
<g id="node10" class="node">
<title>Node10</title>
<g id="a_node10"><a xlink:title=" ">
<polygon fill="#e0e0e0" stroke="#999999" points="427,-132 384,-132 384,-112 427,-112 427,-132"/>
<text text-anchor="middle" x="405.5" y="-118.5" font-family="Helvetica,sans-Serif" font-size="10.00">vector</text>
</a>
</g>
</g>
<!-- Node2&#45;&gt;Node10 -->
<g id="edge13" class="edge">
<title>Node2&#45;&gt;Node10</title>
<path fill="none" stroke="#63b8ff" d="M384.85,-167.59C388.05,-160.7 392.49,-151.1 396.44,-142.57"/>
<polygon fill="#63b8ff" stroke="#63b8ff" points="399.53,-144.22 400.56,-133.67 393.18,-141.28 399.53,-144.22"/>
</g>
<!-- Node11 -->
<g id="node11" class="node">
<title>Node11</title>
<g id="a_node11"><a xlink:title=" ">
<polygon fill="#e0e0e0" stroke="#999999" points="503.5,-132 445.5,-132 445.5,-112 503.5,-112 503.5,-132"/>
<text text-anchor="middle" x="474.5" y="-118.5" font-family="Helvetica,sans-Serif" font-size="10.00">functional</text>
</a>
</g>
</g>
<!-- Node2&#45;&gt;Node11 -->
<g id="edge14" class="edge">
<title>Node2&#45;&gt;Node11</title>
<path fill="none" stroke="#63b8ff" d="M396.87,-167.59C411.07,-159.44 431.88,-147.48 448.38,-138"/>
<polygon fill="#63b8ff" stroke="#63b8ff" points="449.76,-141.25 456.69,-133.23 446.27,-135.18 449.76,-141.25"/>
</g>
<!-- Node12 -->
<g id="node12" class="node">
<title>Node12</title>
<g id="a_node12"><a xlink:title=" ">
<polygon fill="#e0e0e0" stroke="#999999" points="555.88,-132 521.12,-132 521.12,-112 555.88,-112 555.88,-132"/>
<text text-anchor="middle" x="538.5" y="-118.5" font-family="Helvetica,sans-Serif" font-size="10.00">map</text>
</a>
</g>
</g>
<!-- Node2&#45;&gt;Node12 -->
<g id="edge15" class="edge">
<title>Node2&#45;&gt;Node12</title>
<path fill="none" stroke="#63b8ff" d="M408.32,-167.56C432.86,-159.22 469.84,-146.63 510.04,-132.84"/>
<polygon fill="#63b8ff" stroke="#63b8ff" points="511.13,-136.16 519.45,-129.6 508.86,-129.54 511.13,-136.16"/>
</g>
<!-- Node3&#45;&gt;Node4 -->
<g id="edge3" class="edge">
<title>Node3&#45;&gt;Node4</title>
<path fill="none" stroke="#63b8ff" d="M243.42,-111.59C224.54,-103.17 196.58,-90.69 175.04,-81.07"/>
<polygon fill="#63b8ff" stroke="#63b8ff" points="176.68,-77.98 166.12,-77.1 173.83,-84.37 176.68,-77.98"/>
</g>
<!-- Node3&#45;&gt;Node5 -->
<g id="edge9" class="edge">
<title>Node3&#45;&gt;Node5</title>
<path fill="none" stroke="#63b8ff" d="M273.17,-111.68C280.8,-103.02 291.73,-89.47 298.5,-76 305.62,-61.83 310.51,-44.55 313.55,-31.36"/>
<polygon fill="#63b8ff" stroke="#63b8ff" points="316.95,-32.21 315.59,-21.7 310.1,-30.76 316.95,-32.21"/>
</g>
<!-- Node8 -->
<g id="node8" class="node">
<title>Node8</title>
<g id="a_node8"><a xlink:title=" ">
<polygon fill="#e0e0e0" stroke="#999999" points="237.12,-20 185.88,-20 185.88,0 237.12,0 237.12,-20"/>
<text text-anchor="middle" x="211.5" y="-6.5" font-family="Helvetica,sans-Serif" font-size="10.00">memory</text>
</a>
</g>
</g>
<!-- Node3&#45;&gt;Node8 -->
<g id="edge8" class="edge">
<title>Node3&#45;&gt;Node8</title>
<path fill="none" stroke="#63b8ff" d="M255.83,-111.68C248.2,-103.02 237.27,-89.47 230.5,-76 223.38,-61.83 218.49,-44.55 215.45,-31.36"/>
<polygon fill="#63b8ff" stroke="#63b8ff" points="218.9,-30.76 213.41,-21.7 212.05,-32.21 218.9,-30.76"/>
</g>
<!-- Node9 -->
<g id="node9" class="node">
<title>Node9</title>
<g id="a_node9"><a xlink:title=" ">
<polygon fill="#e0e0e0" stroke="#999999" points="289.38,-76 239.62,-76 239.62,-56 289.38,-56 289.38,-76"/>
<text text-anchor="middle" x="264.5" y="-62.5" font-family="Helvetica,sans-Serif" font-size="10.00">optional</text>
</a>
</g>
</g>
<!-- Node3&#45;&gt;Node9 -->
<g id="edge10" class="edge">
<title>Node3&#45;&gt;Node9</title>
<path fill="none" stroke="#63b8ff" d="M264.5,-111.59C264.5,-105.01 264.5,-95.96 264.5,-87.73"/>
<polygon fill="#63b8ff" stroke="#63b8ff" points="268,-87.81 264.5,-77.81 261,-87.81 268,-87.81"/>
</g>
<!-- Node4&#45;&gt;Node5 -->
<g id="edge4" class="edge">
<title>Node4&#45;&gt;Node5</title>
<path fill="none" stroke="#63b8ff" d="M173.81,-55.59C205.29,-45.82 254.3,-30.61 286.16,-20.73"/>
<polygon fill="#63b8ff" stroke="#63b8ff" points="287.1,-24.1 295.61,-17.79 285.02,-17.41 287.1,-24.1"/>
</g>
<!-- Node6 -->
<g id="node6" class="node">
<title>Node6</title>
<g id="a_node6"><a xlink:title=" ">
<polygon fill="#e0e0e0" stroke="#999999" points="103,-20 0,-20 0,0 103,0 103,-20"/>
<text text-anchor="middle" x="51.5" y="-6.5" font-family="Helvetica,sans-Serif" font-size="10.00">SFML/Graphics.hpp</text>
</a>
</g>
</g>
<!-- Node4&#45;&gt;Node6 -->
<g id="edge5" class="edge">
<title>Node4&#45;&gt;Node6</title>
<path fill="none" stroke="#63b8ff" d="M127.47,-55.59C113.71,-47.51 93.6,-35.71 77.52,-26.27"/>
<polygon fill="#63b8ff" stroke="#63b8ff" points="79.35,-23.29 68.96,-21.25 75.81,-29.33 79.35,-23.29"/>
</g>
<!-- Node7 -->
<g id="node7" class="node">
<title>Node7</title>
<g id="a_node7"><a xlink:title=" ">
<polygon fill="#e0e0e0" stroke="#999999" points="167.88,-20 121.12,-20 121.12,0 167.88,0 167.88,-20"/>
<text text-anchor="middle" x="144.5" y="-6.5" font-family="Helvetica,sans-Serif" font-size="10.00">Vec2.h</text>
</a>
</g>
</g>
<!-- Node4&#45;&gt;Node7 -->
<g id="edge6" class="edge">
<title>Node4&#45;&gt;Node7</title>
<path fill="none" stroke="#63b8ff" d="M143.67,-55.59C143.8,-49.01 143.96,-39.96 144.12,-31.73"/>
<polygon fill="#63b8ff" stroke="#63b8ff" points="147.61,-31.87 144.3,-21.81 140.62,-31.75 147.61,-31.87"/>
</g>
<!-- Node4&#45;&gt;Node8 -->
<g id="edge7" class="edge">
<title>Node4&#45;&gt;Node8</title>
<path fill="none" stroke="#63b8ff" d="M155.34,-55.59C165.19,-47.77 179.43,-36.46 191.11,-27.19"/>
<polygon fill="#63b8ff" stroke="#63b8ff" points="192.95,-30.2 198.61,-21.24 188.6,-24.72 192.95,-30.2"/>
</g>
</g>
</svg>
