<?xml version="1.0" encoding="UTF-8" standalone="no"?>
<!DOCTYPE svg PUBLIC "-//W3C//DTD SVG 1.1//EN"
 "http://www.w3.org/Graphics/SVG/1.1/DTD/svg11.dtd">
<!-- Generated by graphviz version 12.2.1 (20241206.2353)
 -->
<!-- Title: src/managers/ManagerEntity.cpp Pages: 1 -->
<svg width="366pt" height="252pt"
 viewBox="0.00 0.00 365.50 252.00" xmlns="http://www.w3.org/2000/svg" xmlns:xlink="http://www.w3.org/1999/xlink">
<g id="graph0" class="graph" transform="scale(1 1) rotate(0) translate(4 248)">
<title>src/managers/ManagerEntity.cpp</title>
<!-- Node1 -->
<g id="node1" class="node">
<title>Node1</title>
<g id="a_node1"><a xlink:title=" ">
<polygon fill="#999999" stroke="#666666" points="319.88,-244 161.38,-244 161.38,-224 319.88,-224 319.88,-244"/>
<text text-anchor="middle" x="240.62" y="-230.5" font-family="Helvetica,sans-Serif" font-size="10.00">src/managers/ManagerEntity.cpp</text>
</a>
</g>
</g>
<!-- Node2 -->
<g id="node2" class="node">
<title>Node2</title>
<g id="a_node2"><a xlink:href="ManagerEntity_8h.html" target="_top" xlink:title=" ">
<polygon fill="white" stroke="#666666" points="283.5,-188 197.75,-188 197.75,-168 283.5,-168 283.5,-188"/>
<text text-anchor="middle" x="240.62" y="-174.5" font-family="Helvetica,sans-Serif" font-size="10.00">ManagerEntity.h</text>
</a>
</g>
</g>
<!-- Node1&#45;&gt;Node2 -->
<g id="edge1" class="edge">
<title>Node1&#45;&gt;Node2</title>
<path fill="none" stroke="#63b8ff" d="M240.62,-223.59C240.62,-217.01 240.62,-207.96 240.62,-199.73"/>
<polygon fill="#63b8ff" stroke="#63b8ff" points="244.13,-199.81 240.63,-189.81 237.13,-199.81 244.13,-199.81"/>
</g>
<!-- Node3 -->
<g id="node3" class="node">
<title>Node3</title>
<g id="a_node3"><a xlink:href="Entity_8h.html" target="_top" xlink:title=" ">
<polygon fill="white" stroke="#666666" points="193.75,-132 145.5,-132 145.5,-112 193.75,-112 193.75,-132"/>
<text text-anchor="middle" x="169.62" y="-118.5" font-family="Helvetica,sans-Serif" font-size="10.00">Entity.h</text>
</a>
</g>
</g>
<!-- Node1&#45;&gt;Node3 -->
<g id="edge14" class="edge">
<title>Node1&#45;&gt;Node3</title>
<path fill="none" stroke="#63b8ff" d="M225.77,-223.67C214.06,-215.58 198.17,-202.87 188.62,-188 179.87,-174.37 175.03,-156.58 172.44,-143.05"/>
<polygon fill="#63b8ff" stroke="#63b8ff" points="175.95,-142.87 170.88,-133.57 169.05,-144.01 175.95,-142.87"/>
</g>
<!-- Node12 -->
<g id="node12" class="node">
<title>Node12</title>
<g id="a_node12"><a xlink:title=" ">
<polygon fill="#e0e0e0" stroke="#999999" points="357.5,-188 301.75,-188 301.75,-168 357.5,-168 357.5,-188"/>
<text text-anchor="middle" x="329.62" y="-174.5" font-family="Helvetica,sans-Serif" font-size="10.00">algorithm</text>
</a>
</g>
</g>
<!-- Node1&#45;&gt;Node12 -->
<g id="edge15" class="edge">
<title>Node1&#45;&gt;Node12</title>
<path fill="none" stroke="#63b8ff" d="M256.13,-223.59C269.45,-215.51 288.9,-203.71 304.45,-194.27"/>
<polygon fill="#63b8ff" stroke="#63b8ff" points="305.97,-197.44 312.71,-189.26 302.34,-191.46 305.97,-197.44"/>
</g>
<!-- Node2&#45;&gt;Node3 -->
<g id="edge2" class="edge">
<title>Node2&#45;&gt;Node3</title>
<path fill="none" stroke="#63b8ff" d="M228.26,-167.59C217.98,-159.77 203.11,-148.46 190.91,-139.19"/>
<polygon fill="#63b8ff" stroke="#63b8ff" points="193.13,-136.48 183.06,-133.21 188.9,-142.05 193.13,-136.48"/>
</g>
<!-- Node5 -->
<g id="node5" class="node">
<title>Node5</title>
<g id="a_node5"><a xlink:title=" ">
<polygon fill="#e0e0e0" stroke="#999999" points="295.62,-20 255.62,-20 255.62,0 295.62,0 295.62,-20"/>
<text text-anchor="middle" x="275.62" y="-6.5" font-family="Helvetica,sans-Serif" font-size="10.00">string</text>
</a>
</g>
</g>
<!-- Node2&#45;&gt;Node5 -->
<g id="edge12" class="edge">
<title>Node2&#45;&gt;Node5</title>
<path fill="none" stroke="#63b8ff" d="M244.58,-167.5C248.2,-158.5 253.44,-144.54 256.62,-132 265.45,-97.23 270.9,-55.75 273.58,-31.49"/>
<polygon fill="#63b8ff" stroke="#63b8ff" points="277.04,-32.04 274.61,-21.73 270.08,-31.31 277.04,-32.04"/>
</g>
<!-- Node10 -->
<g id="node10" class="node">
<title>Node10</title>
<g id="a_node10"><a xlink:title=" ">
<polygon fill="#e0e0e0" stroke="#999999" points="347.12,-132 304.12,-132 304.12,-112 347.12,-112 347.12,-132"/>
<text text-anchor="middle" x="325.62" y="-118.5" font-family="Helvetica,sans-Serif" font-size="10.00">vector</text>
</a>
</g>
</g>
<!-- Node2&#45;&gt;Node10 -->
<g id="edge11" class="edge">
<title>Node2&#45;&gt;Node10</title>
<path fill="none" stroke="#63b8ff" d="M255.43,-167.59C268.03,-159.59 286.38,-147.93 301.16,-138.54"/>
<polygon fill="#63b8ff" stroke="#63b8ff" points="302.86,-141.61 309.43,-133.29 299.11,-135.7 302.86,-141.61"/>
</g>
<!-- Node11 -->
<g id="node11" class="node">
<title>Node11</title>
<g id="a_node11"><a xlink:title=" ">
<polygon fill="#e0e0e0" stroke="#999999" points="248,-132 213.25,-132 213.25,-112 248,-112 248,-132"/>
<text text-anchor="middle" x="230.62" y="-118.5" font-family="Helvetica,sans-Serif" font-size="10.00">map</text>
</a>
</g>
</g>
<!-- Node2&#45;&gt;Node11 -->
<g id="edge13" class="edge">
<title>Node2&#45;&gt;Node11</title>
<path fill="none" stroke="#63b8ff" d="M238.88,-167.59C237.65,-160.93 235.95,-151.75 234.41,-143.44"/>
<polygon fill="#63b8ff" stroke="#63b8ff" points="237.88,-142.98 232.62,-133.79 231,-144.26 237.88,-142.98"/>
</g>
<!-- Node4 -->
<g id="node4" class="node">
<title>Node4</title>
<g id="a_node4"><a xlink:href="Components_8h.html" target="_top" xlink:title=" ">
<polygon fill="white" stroke="#666666" points="209.5,-76 129.75,-76 129.75,-56 209.5,-56 209.5,-76"/>
<text text-anchor="middle" x="169.62" y="-62.5" font-family="Helvetica,sans-Serif" font-size="10.00">Components.h</text>
</a>
</g>
</g>
<!-- Node3&#45;&gt;Node4 -->
<g id="edge3" class="edge">
<title>Node3&#45;&gt;Node4</title>
<path fill="none" stroke="#63b8ff" d="M169.62,-111.59C169.62,-105.01 169.62,-95.96 169.62,-87.73"/>
<polygon fill="#63b8ff" stroke="#63b8ff" points="173.13,-87.81 169.63,-77.81 166.13,-87.81 173.13,-87.81"/>
</g>
<!-- Node3&#45;&gt;Node5 -->
<g id="edge9" class="edge">
<title>Node3&#45;&gt;Node5</title>
<path fill="none" stroke="#63b8ff" d="M180.45,-111.66C190.59,-102.78 206.03,-88.89 218.62,-76 233.65,-60.63 249.71,-42.11 260.94,-28.78"/>
<polygon fill="#63b8ff" stroke="#63b8ff" points="263.48,-31.19 267.21,-21.27 258.11,-26.7 263.48,-31.19"/>
</g>
<!-- Node8 -->
<g id="node8" class="node">
<title>Node8</title>
<g id="a_node8"><a xlink:title=" ">
<polygon fill="#e0e0e0" stroke="#999999" points="51.25,-20 0,-20 0,0 51.25,0 51.25,-20"/>
<text text-anchor="middle" x="25.62" y="-6.5" font-family="Helvetica,sans-Serif" font-size="10.00">memory</text>
</a>
</g>
</g>
<!-- Node3&#45;&gt;Node8 -->
<g id="edge8" class="edge">
<title>Node3&#45;&gt;Node8</title>
<path fill="none" stroke="#63b8ff" d="M145.06,-117.39C119.02,-112.37 78.2,-100.9 52.62,-76 40.3,-64 33.37,-45.54 29.62,-31.36"/>
<polygon fill="#63b8ff" stroke="#63b8ff" points="33.06,-30.71 27.43,-21.74 26.24,-32.27 33.06,-30.71"/>
</g>
<!-- Node9 -->
<g id="node9" class="node">
<title>Node9</title>
<g id="a_node9"><a xlink:title=" ">
<polygon fill="#e0e0e0" stroke="#999999" points="111.5,-76 61.75,-76 61.75,-56 111.5,-56 111.5,-76"/>
<text text-anchor="middle" x="86.62" y="-62.5" font-family="Helvetica,sans-Serif" font-size="10.00">optional</text>
</a>
</g>
</g>
<!-- Node3&#45;&gt;Node9 -->
<g id="edge10" class="edge">
<title>Node3&#45;&gt;Node9</title>
<path fill="none" stroke="#63b8ff" d="M155.17,-111.59C142.87,-103.59 124.95,-91.93 110.52,-82.54"/>
<polygon fill="#63b8ff" stroke="#63b8ff" points="112.75,-79.82 102.46,-77.3 108.94,-85.69 112.75,-79.82"/>
</g>
<!-- Node4&#45;&gt;Node5 -->
<g id="edge4" class="edge">
<title>Node4&#45;&gt;Node5</title>
<path fill="none" stroke="#63b8ff" d="M188.09,-55.59C204.33,-47.32 228.23,-35.14 246.96,-25.6"/>
<polygon fill="#63b8ff" stroke="#63b8ff" points="248.35,-28.82 255.67,-21.17 245.17,-22.59 248.35,-28.82"/>
</g>
<!-- Node6 -->
<g id="node6" class="node">
<title>Node6</title>
<g id="a_node6"><a xlink:title=" ">
<polygon fill="#e0e0e0" stroke="#999999" points="237.12,-20 134.12,-20 134.12,0 237.12,0 237.12,-20"/>
<text text-anchor="middle" x="185.62" y="-6.5" font-family="Helvetica,sans-Serif" font-size="10.00">SFML/Graphics.hpp</text>
</a>
</g>
</g>
<!-- Node4&#45;&gt;Node6 -->
<g id="edge5" class="edge">
<title>Node4&#45;&gt;Node6</title>
<path fill="none" stroke="#63b8ff" d="M172.41,-55.59C174.41,-48.86 177.17,-39.53 179.65,-31.15"/>
<polygon fill="#63b8ff" stroke="#63b8ff" points="182.95,-32.33 182.44,-21.75 176.24,-30.34 182.95,-32.33"/>
</g>
<!-- Node7 -->
<g id="node7" class="node">
<title>Node7</title>
<g id="a_node7"><a xlink:title=" ">
<polygon fill="#e0e0e0" stroke="#999999" points="116,-20 69.25,-20 69.25,0 116,0 116,-20"/>
<text text-anchor="middle" x="92.62" y="-6.5" font-family="Helvetica,sans-Serif" font-size="10.00">Vec2.h</text>
</a>
</g>
</g>
<!-- Node4&#45;&gt;Node7 -->
<g id="edge6" class="edge">
<title>Node4&#45;&gt;Node7</title>
<path fill="none" stroke="#63b8ff" d="M156.21,-55.59C145.02,-47.74 128.81,-36.38 115.57,-27.09"/>
<polygon fill="#63b8ff" stroke="#63b8ff" points="117.58,-24.22 107.38,-21.35 113.56,-29.96 117.58,-24.22"/>
</g>
<!-- Node4&#45;&gt;Node8 -->
<g id="edge7" class="edge">
<title>Node4&#45;&gt;Node8</title>
<path fill="none" stroke="#63b8ff" d="M144.54,-55.59C121.56,-46.97 87.27,-34.12 61.41,-24.42"/>
<polygon fill="#63b8ff" stroke="#63b8ff" points="62.91,-21.25 52.32,-21.01 60.46,-27.8 62.91,-21.25"/>
</g>
</g>
</svg>
