<?xml version="1.0" encoding="UTF-8" standalone="no"?>
<!DOCTYPE svg PUBLIC "-//W3C//DTD SVG 1.1//EN"
 "http://www.w3.org/Graphics/SVG/1.1/DTD/svg11.dtd">
<!-- Generated by graphviz version 12.2.1 (20241206.2353)
 -->
<!-- Title: src/managers/ManagerEntity.h Pages: 1 -->
<svg width="304pt" height="196pt"
 viewBox="0.00 0.00 303.62 196.00" xmlns="http://www.w3.org/2000/svg" xmlns:xlink="http://www.w3.org/1999/xlink">
<g id="graph0" class="graph" transform="scale(1 1) rotate(0) translate(4 192)">
<title>src/managers/ManagerEntity.h</title>
<!-- Node1 -->
<g id="node1" class="node">
<title>Node1</title>
<g id="a_node1"><a xlink:title=" ">
<polygon fill="#999999" stroke="#666666" points="232,-188 84,-188 84,-168 232,-168 232,-188"/>
<text text-anchor="middle" x="158" y="-174.5" font-family="Helvetica,sans-Serif" font-size="10.00">src/managers/ManagerEntity.h</text>
</a>
</g>
</g>
<!-- Node2 -->
<g id="node2" class="node">
<title>Node2</title>
<g id="a_node2"><a xlink:href="Entity_8h.html" target="_top" xlink:title=" ">
<polygon fill="white" stroke="#666666" points="150.12,-132 101.88,-132 101.88,-112 150.12,-112 150.12,-132"/>
<text text-anchor="middle" x="126" y="-118.5" font-family="Helvetica,sans-Serif" font-size="10.00">Entity.h</text>
</a>
</g>
</g>
<!-- Node1&#45;&gt;Node2 -->
<g id="edge1" class="edge">
<title>Node1&#45;&gt;Node2</title>
<path fill="none" stroke="#63b8ff" d="M152.43,-167.59C148.25,-160.55 142.4,-150.67 137.26,-142"/>
<polygon fill="#63b8ff" stroke="#63b8ff" points="140.39,-140.42 132.28,-133.6 134.37,-143.99 140.39,-140.42"/>
</g>
<!-- Node4 -->
<g id="node4" class="node">
<title>Node4</title>
<g id="a_node4"><a xlink:title=" ">
<polygon fill="#e0e0e0" stroke="#999999" points="40,-20 0,-20 0,0 40,0 40,-20"/>
<text text-anchor="middle" x="20" y="-6.5" font-family="Helvetica,sans-Serif" font-size="10.00">string</text>
</a>
</g>
</g>
<!-- Node1&#45;&gt;Node4 -->
<g id="edge11" class="edge">
<title>Node1&#45;&gt;Node4</title>
<path fill="none" stroke="#63b8ff" d="M140.97,-167.6C127.05,-159.39 107.39,-146.53 93,-132 62.75,-101.47 39.72,-56.07 28.19,-30.44"/>
<polygon fill="#63b8ff" stroke="#63b8ff" points="31.53,-29.34 24.32,-21.57 25.11,-32.13 31.53,-29.34"/>
</g>
<!-- Node9 -->
<g id="node9" class="node">
<title>Node9</title>
<g id="a_node9"><a xlink:title=" ">
<polygon fill="#e0e0e0" stroke="#999999" points="211.5,-132 168.5,-132 168.5,-112 211.5,-112 211.5,-132"/>
<text text-anchor="middle" x="190" y="-118.5" font-family="Helvetica,sans-Serif" font-size="10.00">vector</text>
</a>
</g>
</g>
<!-- Node1&#45;&gt;Node9 -->
<g id="edge10" class="edge">
<title>Node1&#45;&gt;Node9</title>
<path fill="none" stroke="#63b8ff" d="M163.57,-167.59C167.75,-160.55 173.6,-150.67 178.74,-142"/>
<polygon fill="#63b8ff" stroke="#63b8ff" points="181.63,-143.99 183.72,-133.6 175.61,-140.42 181.63,-143.99"/>
</g>
<!-- Node10 -->
<g id="node10" class="node">
<title>Node10</title>
<g id="a_node10"><a xlink:title=" ">
<polygon fill="#e0e0e0" stroke="#999999" points="264.38,-132 229.62,-132 229.62,-112 264.38,-112 264.38,-132"/>
<text text-anchor="middle" x="247" y="-118.5" font-family="Helvetica,sans-Serif" font-size="10.00">map</text>
</a>
</g>
</g>
<!-- Node1&#45;&gt;Node10 -->
<g id="edge12" class="edge">
<title>Node1&#45;&gt;Node10</title>
<path fill="none" stroke="#63b8ff" d="M173.5,-167.59C186.82,-159.51 206.28,-147.71 221.83,-138.27"/>
<polygon fill="#63b8ff" stroke="#63b8ff" points="223.35,-141.44 230.08,-133.26 219.72,-135.46 223.35,-141.44"/>
</g>
<!-- Node3 -->
<g id="node3" class="node">
<title>Node3</title>
<g id="a_node3"><a xlink:href="Components_8h.html" target="_top" xlink:title=" ">
<polygon fill="white" stroke="#666666" points="165.88,-76 86.12,-76 86.12,-56 165.88,-56 165.88,-76"/>
<text text-anchor="middle" x="126" y="-62.5" font-family="Helvetica,sans-Serif" font-size="10.00">Components.h</text>
</a>
</g>
</g>
<!-- Node2&#45;&gt;Node3 -->
<g id="edge2" class="edge">
<title>Node2&#45;&gt;Node3</title>
<path fill="none" stroke="#63b8ff" d="M126,-111.59C126,-105.01 126,-95.96 126,-87.73"/>
<polygon fill="#63b8ff" stroke="#63b8ff" points="129.5,-87.81 126,-77.81 122.5,-87.81 129.5,-87.81"/>
</g>
<!-- Node2&#45;&gt;Node4 -->
<g id="edge8" class="edge">
<title>Node2&#45;&gt;Node4</title>
<path fill="none" stroke="#63b8ff" d="M115.18,-111.66C105.03,-102.78 89.59,-88.89 77,-76 61.97,-60.63 45.92,-42.11 34.69,-28.78"/>
<polygon fill="#63b8ff" stroke="#63b8ff" points="37.52,-26.7 28.42,-21.27 32.14,-31.19 37.52,-26.7"/>
</g>
<!-- Node7 -->
<g id="node7" class="node">
<title>Node7</title>
<g id="a_node7"><a xlink:title=" ">
<polygon fill="#e0e0e0" stroke="#999999" points="295.62,-20 244.38,-20 244.38,0 295.62,0 295.62,-20"/>
<text text-anchor="middle" x="270" y="-6.5" font-family="Helvetica,sans-Serif" font-size="10.00">memory</text>
</a>
</g>
</g>
<!-- Node2&#45;&gt;Node7 -->
<g id="edge7" class="edge">
<title>Node2&#45;&gt;Node7</title>
<path fill="none" stroke="#63b8ff" d="M138.28,-111.62C162.83,-92.87 218.22,-50.55 248.78,-27.21"/>
<polygon fill="#63b8ff" stroke="#63b8ff" points="250.73,-30.13 256.55,-21.27 246.48,-24.56 250.73,-30.13"/>
</g>
<!-- Node8 -->
<g id="node8" class="node">
<title>Node8</title>
<g id="a_node8"><a xlink:title=" ">
<polygon fill="#e0e0e0" stroke="#999999" points="271.88,-76 222.12,-76 222.12,-56 271.88,-56 271.88,-76"/>
<text text-anchor="middle" x="247" y="-62.5" font-family="Helvetica,sans-Serif" font-size="10.00">optional</text>
</a>
</g>
</g>
<!-- Node2&#45;&gt;Node8 -->
<g id="edge9" class="edge">
<title>Node2&#45;&gt;Node8</title>
<path fill="none" stroke="#63b8ff" d="M147.08,-111.59C165.96,-103.17 193.92,-90.69 215.46,-81.07"/>
<polygon fill="#63b8ff" stroke="#63b8ff" points="216.67,-84.37 224.38,-77.1 213.82,-77.98 216.67,-84.37"/>
</g>
<!-- Node3&#45;&gt;Node4 -->
<g id="edge3" class="edge">
<title>Node3&#45;&gt;Node4</title>
<path fill="none" stroke="#63b8ff" d="M107.54,-55.59C91.3,-47.32 67.39,-35.14 48.67,-25.6"/>
<polygon fill="#63b8ff" stroke="#63b8ff" points="50.46,-22.59 39.96,-21.17 47.28,-28.82 50.46,-22.59"/>
</g>
<!-- Node5 -->
<g id="node5" class="node">
<title>Node5</title>
<g id="a_node5"><a xlink:title=" ">
<polygon fill="#e0e0e0" stroke="#999999" points="161.5,-20 58.5,-20 58.5,0 161.5,0 161.5,-20"/>
<text text-anchor="middle" x="110" y="-6.5" font-family="Helvetica,sans-Serif" font-size="10.00">SFML/Graphics.hpp</text>
</a>
</g>
</g>
<!-- Node3&#45;&gt;Node5 -->
<g id="edge4" class="edge">
<title>Node3&#45;&gt;Node5</title>
<path fill="none" stroke="#63b8ff" d="M123.21,-55.59C121.22,-48.86 118.45,-39.53 115.97,-31.15"/>
<polygon fill="#63b8ff" stroke="#63b8ff" points="119.38,-30.34 113.19,-21.75 112.67,-32.33 119.38,-30.34"/>
</g>
<!-- Node6 -->
<g id="node6" class="node">
<title>Node6</title>
<g id="a_node6"><a xlink:title=" ">
<polygon fill="#e0e0e0" stroke="#999999" points="226.38,-20 179.62,-20 179.62,0 226.38,0 226.38,-20"/>
<text text-anchor="middle" x="203" y="-6.5" font-family="Helvetica,sans-Serif" font-size="10.00">Vec2.h</text>
</a>
</g>
</g>
<!-- Node3&#45;&gt;Node6 -->
<g id="edge5" class="edge">
<title>Node3&#45;&gt;Node6</title>
<path fill="none" stroke="#63b8ff" d="M139.41,-55.59C150.61,-47.74 166.81,-36.38 180.06,-27.09"/>
<polygon fill="#63b8ff" stroke="#63b8ff" points="182.07,-29.96 188.24,-21.35 178.05,-24.22 182.07,-29.96"/>
</g>
<!-- Node3&#45;&gt;Node7 -->
<g id="edge6" class="edge">
<title>Node3&#45;&gt;Node7</title>
<path fill="none" stroke="#63b8ff" d="M151.08,-55.59C174.07,-46.97 208.35,-34.12 234.21,-24.42"/>
<polygon fill="#63b8ff" stroke="#63b8ff" points="235.17,-27.8 243.3,-21.01 232.71,-21.25 235.17,-27.8"/>
</g>
</g>
</svg>
