<?xml version="1.0" encoding="UTF-8" standalone="no"?>
<!DOCTYPE svg PUBLIC "-//W3C//DTD SVG 1.1//EN"
 "http://www.w3.org/Graphics/SVG/1.1/DTD/svg11.dtd">
<!-- Generated by graphviz version 12.2.1 (20241206.2353)
 -->
<!-- Title: src/managers/ManagerLexicon.h Pages: 1 -->
<svg width="480pt" height="320pt"
 viewBox="0.00 0.00 479.75 320.00" xmlns="http://www.w3.org/2000/svg" xmlns:xlink="http://www.w3.org/1999/xlink">
<g id="graph0" class="graph" transform="scale(1 1) rotate(0) translate(4 316)">
<title>src/managers/ManagerLexicon.h</title>
<!-- Node1 -->
<g id="node1" class="node">
<title>Node1</title>
<g id="a_node1"><a xlink:title=" ">
<polygon fill="#999999" stroke="#666666" points="289.88,-312 132.12,-312 132.12,-292 289.88,-292 289.88,-312"/>
<text text-anchor="middle" x="211" y="-298.5" font-family="Helvetica,sans-Serif" font-size="10.00">src/managers/ManagerLexicon.h</text>
</a>
</g>
</g>
<!-- Node2 -->
<g id="node2" class="node">
<title>Node2</title>
<g id="a_node2"><a xlink:href="ManagerActionResolution_8h.html" target="_top" xlink:title=" ">
<polygon fill="white" stroke="#666666" points="182.75,-256 39.25,-256 39.25,-224 182.75,-224 182.75,-256"/>
<text text-anchor="start" x="47.25" y="-242.5" font-family="Helvetica,sans-Serif" font-size="10.00">src/managers/ManagerAction</text>
<text text-anchor="middle" x="111" y="-230.5" font-family="Helvetica,sans-Serif" font-size="10.00">Resolution.h</text>
</a>
</g>
</g>
<!-- Node1&#45;&gt;Node2 -->
<g id="edge1" class="edge">
<title>Node1&#45;&gt;Node2</title>
<path fill="none" stroke="#63b8ff" d="M185.71,-285.83C170.69,-276.81 151.7,-265.42 136.62,-256.37"/>
<polygon fill="#63b8ff" stroke="#63b8ff" points="183.7,-288.7 194.08,-290.85 187.3,-282.7 183.7,-288.7"/>
</g>
<!-- Node3 -->
<g id="node3" class="node">
<title>Node3</title>
<g id="a_node3"><a xlink:href="ManagerTurn_8h.html" target="_top" xlink:title=" ">
<polygon fill="white" stroke="#666666" points="232.75,-188 89.25,-188 89.25,-168 232.75,-168 232.75,-188"/>
<text text-anchor="middle" x="161" y="-174.5" font-family="Helvetica,sans-Serif" font-size="10.00">src/managers/ManagerTurn.h</text>
</a>
</g>
</g>
<!-- Node1&#45;&gt;Node3 -->
<g id="edge10" class="edge">
<title>Node1&#45;&gt;Node3</title>
<path fill="none" stroke="#63b8ff" d="M208.01,-280.46C205.21,-264.55 200.2,-242.23 192,-224 186.01,-210.68 176.01,-197.1 168.99,-188.39"/>
<polygon fill="#63b8ff" stroke="#63b8ff" points="204.52,-280.82 209.56,-290.14 211.44,-279.71 204.52,-280.82"/>
</g>
<!-- Node10 -->
<g id="node10" class="node">
<title>Node10</title>
<g id="a_node10"><a xlink:href="ManagerLexicon_8cpp.html" target="_top" xlink:title=" ">
<polygon fill="white" stroke="#666666" points="407.12,-250 238.88,-250 238.88,-230 407.12,-230 407.12,-250"/>
<text text-anchor="middle" x="323" y="-236.5" font-family="Helvetica,sans-Serif" font-size="10.00">src/managers/ManagerLexicon.cpp</text>
</a>
</g>
</g>
<!-- Node1&#45;&gt;Node10 -->
<g id="edge9" class="edge">
<title>Node1&#45;&gt;Node10</title>
<path fill="none" stroke="#63b8ff" d="M238.42,-286.31C259.39,-275.08 287.67,-259.93 305.62,-250.31"/>
<polygon fill="#63b8ff" stroke="#63b8ff" points="237,-283.1 229.83,-290.91 240.3,-289.27 237,-283.1"/>
</g>
<!-- Node2&#45;&gt;Node3 -->
<g id="edge2" class="edge">
<title>Node2&#45;&gt;Node3</title>
<path fill="none" stroke="#63b8ff" d="M131.02,-214.98C138.78,-205.66 147.22,-195.54 153.16,-188.41"/>
<polygon fill="#63b8ff" stroke="#63b8ff" points="128.56,-212.46 124.85,-222.39 133.94,-216.94 128.56,-212.46"/>
</g>
<!-- Node4 -->
<g id="node4" class="node">
<title>Node4</title>
<g id="a_node4"><a xlink:href="ManagerTurn_8cpp.html" target="_top" xlink:title=" ">
<polygon fill="white" stroke="#666666" points="154,-132 0,-132 0,-112 154,-112 154,-132"/>
<text text-anchor="middle" x="77" y="-118.5" font-family="Helvetica,sans-Serif" font-size="10.00">src/managers/ManagerTurn.cpp</text>
</a>
</g>
</g>
<!-- Node3&#45;&gt;Node4 -->
<g id="edge3" class="edge">
<title>Node3&#45;&gt;Node4</title>
<path fill="none" stroke="#63b8ff" d="M136.95,-161.54C122.37,-152.17 104.23,-140.51 91.75,-132.48"/>
<polygon fill="#63b8ff" stroke="#63b8ff" points="134.79,-164.31 145.1,-166.78 138.58,-158.42 134.79,-164.31"/>
</g>
<!-- Node5 -->
<g id="node5" class="node">
<title>Node5</title>
<g id="a_node5"><a xlink:href="SceneEspionage_8h.html" target="_top" xlink:title=" ">
<polygon fill="white" stroke="#666666" points="320.38,-132 171.62,-132 171.62,-112 320.38,-112 320.38,-132"/>
<text text-anchor="middle" x="246" y="-118.5" font-family="Helvetica,sans-Serif" font-size="10.00">src/scenes/SceneEspionage.h</text>
</a>
</g>
</g>
<!-- Node3&#45;&gt;Node5 -->
<g id="edge4" class="edge">
<title>Node3&#45;&gt;Node5</title>
<path fill="none" stroke="#63b8ff" d="M185.33,-161.54C200.09,-152.17 218.44,-140.51 231.08,-132.48"/>
<polygon fill="#63b8ff" stroke="#63b8ff" points="183.65,-158.47 177.08,-166.78 187.4,-164.37 183.65,-158.47"/>
</g>
<!-- Node6 -->
<g id="node6" class="node">
<title>Node6</title>
<g id="a_node6"><a xlink:href="SceneEspionage_8cpp.html" target="_top" xlink:title=" ">
<polygon fill="white" stroke="#666666" points="245.62,-76 86.38,-76 86.38,-56 245.62,-56 245.62,-76"/>
<text text-anchor="middle" x="166" y="-62.5" font-family="Helvetica,sans-Serif" font-size="10.00">src/scenes/SceneEspionage.cpp</text>
</a>
</g>
</g>
<!-- Node5&#45;&gt;Node6 -->
<g id="edge5" class="edge">
<title>Node5&#45;&gt;Node6</title>
<path fill="none" stroke="#63b8ff" d="M222.7,-105.27C208.88,-95.94 191.82,-84.43 180.04,-76.48"/>
<polygon fill="#63b8ff" stroke="#63b8ff" points="220.56,-108.05 230.81,-110.75 224.48,-102.25 220.56,-108.05"/>
</g>
<!-- Node7 -->
<g id="node7" class="node">
<title>Node7</title>
<g id="a_node7"><a xlink:href="SceneMain_8h.html" target="_top" xlink:title=" ">
<polygon fill="white" stroke="#666666" points="388,-76 264,-76 264,-56 388,-56 388,-76"/>
<text text-anchor="middle" x="326" y="-62.5" font-family="Helvetica,sans-Serif" font-size="10.00">src/scenes/SceneMain.h</text>
</a>
</g>
</g>
<!-- Node5&#45;&gt;Node7 -->
<g id="edge6" class="edge">
<title>Node5&#45;&gt;Node7</title>
<path fill="none" stroke="#63b8ff" d="M269.3,-105.27C283.12,-95.94 300.18,-84.43 311.96,-76.48"/>
<polygon fill="#63b8ff" stroke="#63b8ff" points="267.52,-102.25 261.19,-110.75 271.44,-108.05 267.52,-102.25"/>
</g>
<!-- Node8 -->
<g id="node8" class="node">
<title>Node8</title>
<g id="a_node8"><a xlink:href="SceneMain_8cpp.html" target="_top" xlink:title=" ">
<polygon fill="white" stroke="#666666" points="316.25,-20 181.75,-20 181.75,0 316.25,0 316.25,-20"/>
<text text-anchor="middle" x="249" y="-6.5" font-family="Helvetica,sans-Serif" font-size="10.00">src/scenes/SceneMain.cpp</text>
</a>
</g>
</g>
<!-- Node7&#45;&gt;Node8 -->
<g id="edge7" class="edge">
<title>Node7&#45;&gt;Node8</title>
<path fill="none" stroke="#63b8ff" d="M303.18,-49C289.95,-39.72 273.74,-28.35 262.52,-20.48"/>
<polygon fill="#63b8ff" stroke="#63b8ff" points="301.15,-51.85 311.35,-54.72 305.17,-46.12 301.15,-51.85"/>
</g>
<!-- Node9 -->
<g id="node9" class="node">
<title>Node9</title>
<g id="a_node9"><a xlink:href="SceneMenu_8cpp.html" target="_top" xlink:title=" ">
<polygon fill="white" stroke="#666666" points="471.75,-20 334.25,-20 334.25,0 471.75,0 471.75,-20"/>
<text text-anchor="middle" x="403" y="-6.5" font-family="Helvetica,sans-Serif" font-size="10.00">src/scenes/SceneMenu.cpp</text>
</a>
</g>
</g>
<!-- Node7&#45;&gt;Node9 -->
<g id="edge8" class="edge">
<title>Node7&#45;&gt;Node9</title>
<path fill="none" stroke="#63b8ff" d="M348.82,-49C362.05,-39.72 378.26,-28.35 389.48,-20.48"/>
<polygon fill="#63b8ff" stroke="#63b8ff" points="346.83,-46.12 340.65,-54.72 350.85,-51.85 346.83,-46.12"/>
</g>
</g>
</svg>
