<?xml version="1.0" encoding="UTF-8" standalone="no"?>
<!DOCTYPE svg PUBLIC "-//W3C//DTD SVG 1.1//EN"
 "http://www.w3.org/Graphics/SVG/1.1/DTD/svg11.dtd">
<!-- Generated by graphviz version 12.2.1 (20241206.2353)
 -->
<!-- Title: src/managers/ManagerTurn.h Pages: 1 -->
<svg width="2820pt" height="364pt"
 viewBox="0.00 0.00 2820.50 364.00" xmlns="http://www.w3.org/2000/svg" xmlns:xlink="http://www.w3.org/1999/xlink">
<g id="graph0" class="graph" transform="scale(1 1) rotate(0) translate(4 360)">
<title>src/managers/ManagerTurn.h</title>
<!-- Node1 -->
<g id="node1" class="node">
<title>Node1</title>
<g id="a_node1"><a xlink:title=" ">
<polygon fill="#999999" stroke="#666666" points="2428.25,-356 2284.75,-356 2284.75,-336 2428.25,-336 2428.25,-356"/>
<text text-anchor="middle" x="2356.5" y="-342.5" font-family="Helvetica,sans-Serif" font-size="10.00">src/managers/ManagerTurn.h</text>
</a>
</g>
</g>
<!-- Node2 -->
<g id="node2" class="node">
<title>Node2</title>
<g id="a_node2"><a xlink:href="ManagerLexicon_8h.html" target="_top" xlink:title=" ">
<polygon fill="white" stroke="#666666" points="2012.25,-244 1916.75,-244 1916.75,-224 2012.25,-224 2012.25,-244"/>
<text text-anchor="middle" x="1964.5" y="-230.5" font-family="Helvetica,sans-Serif" font-size="10.00">ManagerLexicon.h</text>
</a>
</g>
</g>
<!-- Node1&#45;&gt;Node2 -->
<g id="edge1" class="edge">
<title>Node1&#45;&gt;Node2</title>
<path fill="none" stroke="#63b8ff" d="M2284.99,-335.54C2237.23,-328.24 2173.35,-316.56 2118.5,-300 2073.46,-286.41 2023.72,-263.97 1993.28,-249.34"/>
<polygon fill="#63b8ff" stroke="#63b8ff" points="1994.87,-246.22 1984.35,-244.99 1991.81,-252.51 1994.87,-246.22"/>
</g>
<!-- Node9 -->
<g id="node9" class="node">
<title>Node9</title>
<g id="a_node9"><a xlink:title=" ">
<polygon fill="#e0e0e0" stroke="#999999" points="2516.12,-20 2464.87,-20 2464.87,0 2516.12,0 2516.12,-20"/>
<text text-anchor="middle" x="2490.5" y="-6.5" font-family="Helvetica,sans-Serif" font-size="10.00">memory</text>
</a>
</g>
</g>
<!-- Node1&#45;&gt;Node9 -->
<g id="edge82" class="edge">
<title>Node1&#45;&gt;Node9</title>
<path fill="none" stroke="#63b8ff" d="M2428.5,-342.43C2557,-335.88 2812.5,-313.03 2812.5,-235 2812.5,-235 2812.5,-235 2812.5,-121 2812.5,-83.44 2791.05,-74.73 2758.5,-56 2719.8,-33.74 2591.89,-19.8 2527.79,-14.05"/>
<polygon fill="#63b8ff" stroke="#63b8ff" points="2528.37,-10.58 2518.11,-13.2 2527.76,-17.56 2528.37,-10.58"/>
</g>
<!-- Node11 -->
<g id="node11" class="node">
<title>Node11</title>
<g id="a_node11"><a xlink:title=" ">
<polygon fill="#e0e0e0" stroke="#999999" points="2310,-132 2267,-132 2267,-112 2310,-112 2310,-132"/>
<text text-anchor="middle" x="2288.5" y="-118.5" font-family="Helvetica,sans-Serif" font-size="10.00">vector</text>
</a>
</g>
</g>
<!-- Node1&#45;&gt;Node11 -->
<g id="edge83" class="edge">
<title>Node1&#45;&gt;Node11</title>
<path fill="none" stroke="#63b8ff" d="M2326.17,-335.57C2306.16,-328.23 2280.28,-316.5 2261.5,-300 2217.04,-260.94 2206.17,-244.78 2189.5,-188 2186.99,-179.47 2184.68,-175.47 2189.5,-168 2204.01,-145.46 2232.89,-134.08 2255.72,-128.41"/>
<polygon fill="#63b8ff" stroke="#63b8ff" points="2256.19,-131.89 2265.2,-126.33 2254.69,-125.06 2256.19,-131.89"/>
</g>
<!-- Node47 -->
<g id="node47" class="node">
<title>Node47</title>
<g id="a_node47"><a xlink:href="ManagerSystem_8h.html" target="_top" xlink:title=" ">
<polygon fill="white" stroke="#666666" points="2480.25,-244 2384.75,-244 2384.75,-224 2480.25,-224 2480.25,-244"/>
<text text-anchor="middle" x="2432.5" y="-230.5" font-family="Helvetica,sans-Serif" font-size="10.00">ManagerSystem.h</text>
</a>
</g>
</g>
<!-- Node1&#45;&gt;Node47 -->
<g id="edge57" class="edge">
<title>Node1&#45;&gt;Node47</title>
<path fill="none" stroke="#63b8ff" d="M2387.2,-335.55C2404.08,-328.62 2423.55,-317.32 2433.5,-300 2441.24,-286.51 2440.35,-268.71 2437.89,-255.14"/>
<polygon fill="#63b8ff" stroke="#63b8ff" points="2441.35,-254.58 2435.72,-245.6 2434.52,-256.13 2441.35,-254.58"/>
</g>
<!-- Node51 -->
<g id="node51" class="node">
<title>Node51</title>
<g id="a_node51"><a xlink:title=" ">
<polygon fill="#e0e0e0" stroke="#999999" points="2252.25,-188 2198.75,-188 2198.75,-168 2252.25,-168 2252.25,-188"/>
<text text-anchor="middle" x="2225.5" y="-174.5" font-family="Helvetica,sans-Serif" font-size="10.00">iostream</text>
</a>
</g>
</g>
<!-- Node1&#45;&gt;Node51 -->
<g id="edge84" class="edge">
<title>Node1&#45;&gt;Node51</title>
<path fill="none" stroke="#63b8ff" d="M2332.31,-335.6C2315.64,-328.09 2293.96,-316.14 2279.5,-300 2252.84,-270.26 2237.5,-225.22 2230.39,-199.3"/>
<polygon fill="#63b8ff" stroke="#63b8ff" points="2233.81,-198.54 2227.93,-189.73 2227.03,-200.28 2233.81,-198.54"/>
</g>
<!-- Node52 -->
<g id="node52" class="node">
<title>Node52</title>
<g id="a_node52"><a xlink:href="ManagerActionFormation_8h.html" target="_top" xlink:title=" ">
<polygon fill="white" stroke="#666666" points="2594,-188 2461,-188 2461,-168 2594,-168 2594,-188"/>
<text text-anchor="middle" x="2527.5" y="-174.5" font-family="Helvetica,sans-Serif" font-size="10.00">ManagerActionFormation.h</text>
</a>
</g>
</g>
<!-- Node1&#45;&gt;Node52 -->
<g id="edge68" class="edge">
<title>Node1&#45;&gt;Node52</title>
<path fill="none" stroke="#63b8ff" d="M2385.18,-335.57C2421.84,-321.83 2483.96,-292.53 2512.5,-244 2520.41,-230.53 2524.15,-213.21 2525.92,-199.84"/>
<polygon fill="#63b8ff" stroke="#63b8ff" points="2529.39,-200.29 2526.92,-189.98 2522.42,-199.57 2529.39,-200.29"/>
</g>
<!-- Node54 -->
<g id="node54" class="node">
<title>Node54</title>
<g id="a_node54"><a xlink:href="ManagerActionResolution_8h.html" target="_top" xlink:title=" ">
<polygon fill="white" stroke="#666666" points="2424.5,-300 2288.5,-300 2288.5,-280 2424.5,-280 2424.5,-300"/>
<text text-anchor="middle" x="2356.5" y="-286.5" font-family="Helvetica,sans-Serif" font-size="10.00">ManagerActionResolution.h</text>
</a>
</g>
</g>
<!-- Node1&#45;&gt;Node54 -->
<g id="edge76" class="edge">
<title>Node1&#45;&gt;Node54</title>
<path fill="none" stroke="#63b8ff" d="M2356.5,-335.59C2356.5,-329.01 2356.5,-319.96 2356.5,-311.73"/>
<polygon fill="#63b8ff" stroke="#63b8ff" points="2360,-311.81 2356.5,-301.81 2353,-311.81 2360,-311.81"/>
</g>
<!-- Node3 -->
<g id="node3" class="node">
<title>Node3</title>
<g id="a_node3"><a xlink:href="ManagerEntity_8h.html" target="_top" xlink:title=" ">
<polygon fill="white" stroke="#666666" points="2104.37,-188 2018.62,-188 2018.62,-168 2104.37,-168 2104.37,-188"/>
<text text-anchor="middle" x="2061.5" y="-174.5" font-family="Helvetica,sans-Serif" font-size="10.00">ManagerEntity.h</text>
</a>
</g>
</g>
<!-- Node2&#45;&gt;Node3 -->
<g id="edge2" class="edge">
<title>Node2&#45;&gt;Node3</title>
<path fill="none" stroke="#63b8ff" d="M1981.39,-223.59C1996.05,-215.44 2017.52,-203.48 2034.54,-194"/>
<polygon fill="#63b8ff" stroke="#63b8ff" points="2036.11,-197.14 2043.14,-189.22 2032.71,-191.02 2036.11,-197.14"/>
</g>
<!-- Node6 -->
<g id="node6" class="node">
<title>Node6</title>
<g id="a_node6"><a xlink:title=" ">
<polygon fill="#e0e0e0" stroke="#999999" points="2154.5,-20 2114.5,-20 2114.5,0 2154.5,0 2154.5,-20"/>
<text text-anchor="middle" x="2134.5" y="-6.5" font-family="Helvetica,sans-Serif" font-size="10.00">string</text>
</a>
</g>
</g>
<!-- Node2&#45;&gt;Node6 -->
<g id="edge15" class="edge">
<title>Node2&#45;&gt;Node6</title>
<path fill="none" stroke="#63b8ff" d="M1916.68,-230.63C1783.27,-223.99 1395.61,-204.65 1073.5,-188 837.87,-175.82 -127.84,-300.17 14.5,-112 69.66,-39.06 122.06,-69.62 212.5,-56 406.64,-26.75 1867.51,-13.25 2102.61,-11.26"/>
<polygon fill="#63b8ff" stroke="#63b8ff" points="2102.55,-14.76 2112.52,-11.18 2102.49,-7.76 2102.55,-14.76"/>
</g>
<!-- Node2&#45;&gt;Node9 -->
<g id="edge18" class="edge">
<title>Node2&#45;&gt;Node9</title>
<path fill="none" stroke="#63b8ff" d="M1995.37,-223.55C2047.77,-207.59 2152.07,-176.25 2189.5,-168 2292.25,-145.35 2337.18,-192.18 2423.5,-132 2458.34,-107.7 2477.02,-59.21 2485.24,-31.56"/>
<polygon fill="#63b8ff" stroke="#63b8ff" points="2488.61,-32.51 2487.9,-21.94 2481.86,-30.65 2488.61,-32.51"/>
</g>
<!-- Node2&#45;&gt;Node11 -->
<g id="edge17" class="edge">
<title>Node2&#45;&gt;Node11</title>
<path fill="none" stroke="#63b8ff" d="M1968.1,-223.66C1974.23,-209.16 1988.13,-181.47 2009.5,-168 2019.86,-161.46 2184.11,-137.7 2255.64,-127.6"/>
<polygon fill="#63b8ff" stroke="#63b8ff" points="2255.77,-131.11 2265.18,-126.25 2254.79,-124.18 2255.77,-131.11"/>
</g>
<!-- Node12 -->
<g id="node12" class="node">
<title>Node12</title>
<g id="a_node12"><a xlink:title=" ">
<polygon fill="#e0e0e0" stroke="#999999" points="2210.87,-132 2176.12,-132 2176.12,-112 2210.87,-112 2210.87,-132"/>
<text text-anchor="middle" x="2193.5" y="-118.5" font-family="Helvetica,sans-Serif" font-size="10.00">map</text>
</a>
</g>
</g>
<!-- Node2&#45;&gt;Node12 -->
<g id="edge16" class="edge">
<title>Node2&#45;&gt;Node12</title>
<path fill="none" stroke="#63b8ff" d="M1916.49,-228.86C1859.29,-222.15 1775.44,-205.66 1809.5,-168 1860.83,-111.23 2070.74,-145.68 2164.53,-131.59"/>
<polygon fill="#63b8ff" stroke="#63b8ff" points="2164.94,-135.07 2174.15,-129.84 2163.69,-128.19 2164.94,-135.07"/>
</g>
<!-- Node13 -->
<g id="node13" class="node">
<title>Node13</title>
<g id="a_node13"><a xlink:title=" ">
<polygon fill="#e0e0e0" stroke="#999999" points="1962.62,-188 1914.37,-188 1914.37,-168 1962.62,-168 1962.62,-188"/>
<text text-anchor="middle" x="1938.5" y="-174.5" font-family="Helvetica,sans-Serif" font-size="10.00">random</text>
</a>
</g>
</g>
<!-- Node2&#45;&gt;Node13 -->
<g id="edge19" class="edge">
<title>Node2&#45;&gt;Node13</title>
<path fill="none" stroke="#63b8ff" d="M1959.97,-223.59C1956.65,-216.7 1952.03,-207.1 1947.92,-198.57"/>
<polygon fill="#63b8ff" stroke="#63b8ff" points="1951.12,-197.15 1943.63,-189.66 1944.81,-200.19 1951.12,-197.15"/>
</g>
<!-- Node14 -->
<g id="node14" class="node">
<title>Node14</title>
<g id="a_node14"><a xlink:href="json_8hpp.html" target="_top" xlink:title=" ">
<polygon fill="white" stroke="#666666" points="1180.37,-188 1082.62,-188 1082.62,-168 1180.37,-168 1180.37,-188"/>
<text text-anchor="middle" x="1131.5" y="-174.5" font-family="Helvetica,sans-Serif" font-size="10.00">nlohmann/json.hpp</text>
</a>
</g>
</g>
<!-- Node2&#45;&gt;Node14 -->
<g id="edge20" class="edge">
<title>Node2&#45;&gt;Node14</title>
<path fill="none" stroke="#63b8ff" d="M1916.41,-229.88C1773.35,-220.61 1350.53,-193.2 1192.23,-182.94"/>
<polygon fill="#63b8ff" stroke="#63b8ff" points="1192.57,-179.45 1182.36,-182.3 1192.12,-186.44 1192.57,-179.45"/>
</g>
<!-- Node46 -->
<g id="node46" class="node">
<title>Node46</title>
<g id="a_node46"><a xlink:title=" ">
<polygon fill="#e0e0e0" stroke="#999999" points="1896.25,-188 1818.75,-188 1818.75,-168 1896.25,-168 1896.25,-188"/>
<text text-anchor="middle" x="1857.5" y="-174.5" font-family="Helvetica,sans-Serif" font-size="10.00">unordered_set</text>
</a>
</g>
</g>
<!-- Node2&#45;&gt;Node46 -->
<g id="edge56" class="edge">
<title>Node2&#45;&gt;Node46</title>
<path fill="none" stroke="#63b8ff" d="M1945.86,-223.59C1929.46,-215.32 1905.34,-203.14 1886.43,-193.6"/>
<polygon fill="#63b8ff" stroke="#63b8ff" points="1888.13,-190.54 1877.63,-189.16 1884.98,-196.79 1888.13,-190.54"/>
</g>
<!-- Node4 -->
<g id="node4" class="node">
<title>Node4</title>
<g id="a_node4"><a xlink:href="Entity_8h.html" target="_top" xlink:title=" ">
<polygon fill="white" stroke="#666666" points="2414.62,-132 2366.37,-132 2366.37,-112 2414.62,-112 2414.62,-132"/>
<text text-anchor="middle" x="2390.5" y="-118.5" font-family="Helvetica,sans-Serif" font-size="10.00">Entity.h</text>
</a>
</g>
</g>
<!-- Node3&#45;&gt;Node4 -->
<g id="edge3" class="edge">
<title>Node3&#45;&gt;Node4</title>
<path fill="none" stroke="#63b8ff" d="M2104.84,-169.88C2170.44,-159.12 2293.71,-138.89 2354.6,-128.89"/>
<polygon fill="#63b8ff" stroke="#63b8ff" points="2355.11,-132.35 2364.41,-127.28 2353.98,-125.45 2355.11,-132.35"/>
</g>
<!-- Node3&#45;&gt;Node6 -->
<g id="edge13" class="edge">
<title>Node3&#45;&gt;Node6</title>
<path fill="none" stroke="#63b8ff" d="M2104.51,-167.54C2148.82,-157.37 2212.41,-141.39 2219.5,-132 2252.66,-88.08 2170.18,-119.68 2139.5,-76 2130.53,-63.24 2129.77,-45.38 2130.98,-31.61"/>
<polygon fill="#63b8ff" stroke="#63b8ff" points="2134.42,-32.25 2132.26,-21.88 2127.48,-31.33 2134.42,-32.25"/>
</g>
<!-- Node3&#45;&gt;Node11 -->
<g id="edge12" class="edge">
<title>Node3&#45;&gt;Node11</title>
<path fill="none" stroke="#63b8ff" d="M2102.52,-167.5C2141.22,-158.51 2200.85,-144.54 2252.5,-132 2253.65,-131.72 2254.83,-131.43 2256.02,-131.14"/>
<polygon fill="#63b8ff" stroke="#63b8ff" points="2256.47,-134.63 2265.34,-128.84 2254.79,-127.84 2256.47,-134.63"/>
</g>
<!-- Node3&#45;&gt;Node12 -->
<g id="edge14" class="edge">
<title>Node3&#45;&gt;Node12</title>
<path fill="none" stroke="#63b8ff" d="M2084.49,-167.59C2106.93,-158.41 2141.13,-144.42 2165.23,-134.56"/>
<polygon fill="#63b8ff" stroke="#63b8ff" points="2166.5,-137.83 2174.43,-130.8 2163.85,-131.35 2166.5,-137.83"/>
</g>
<!-- Node5 -->
<g id="node5" class="node">
<title>Node5</title>
<g id="a_node5"><a xlink:href="Components_8h.html" target="_top" xlink:title=" ">
<polygon fill="white" stroke="#666666" points="2299.37,-76 2219.62,-76 2219.62,-56 2299.37,-56 2299.37,-76"/>
<text text-anchor="middle" x="2259.5" y="-62.5" font-family="Helvetica,sans-Serif" font-size="10.00">Components.h</text>
</a>
</g>
</g>
<!-- Node4&#45;&gt;Node5 -->
<g id="edge4" class="edge">
<title>Node4&#45;&gt;Node5</title>
<path fill="none" stroke="#63b8ff" d="M2367.68,-111.59C2347.05,-103.09 2316.41,-90.46 2293,-80.81"/>
<polygon fill="#63b8ff" stroke="#63b8ff" points="2294.47,-77.63 2283.89,-77.06 2291.8,-84.1 2294.47,-77.63"/>
</g>
<!-- Node4&#45;&gt;Node6 -->
<g id="edge10" class="edge">
<title>Node4&#45;&gt;Node6</title>
<path fill="none" stroke="#63b8ff" d="M2365.89,-115.17C2318.26,-103.83 2217.47,-79.6 2210.5,-76 2186.98,-63.87 2164.54,-43.15 2150.21,-28.37"/>
<polygon fill="#63b8ff" stroke="#63b8ff" points="2152.84,-26.05 2143.45,-21.16 2147.74,-30.85 2152.84,-26.05"/>
</g>
<!-- Node4&#45;&gt;Node9 -->
<g id="edge9" class="edge">
<title>Node4&#45;&gt;Node9</title>
<path fill="none" stroke="#63b8ff" d="M2399.02,-111.62C2415.7,-93.27 2452.88,-52.37 2474.36,-28.75"/>
<polygon fill="#63b8ff" stroke="#63b8ff" points="2476.84,-31.23 2480.97,-21.47 2471.66,-26.52 2476.84,-31.23"/>
</g>
<!-- Node10 -->
<g id="node10" class="node">
<title>Node10</title>
<g id="a_node10"><a xlink:title=" ">
<polygon fill="#e0e0e0" stroke="#999999" points="2405.37,-76 2355.62,-76 2355.62,-56 2405.37,-56 2405.37,-76"/>
<text text-anchor="middle" x="2380.5" y="-62.5" font-family="Helvetica,sans-Serif" font-size="10.00">optional</text>
</a>
</g>
</g>
<!-- Node4&#45;&gt;Node10 -->
<g id="edge11" class="edge">
<title>Node4&#45;&gt;Node10</title>
<path fill="none" stroke="#63b8ff" d="M2388.75,-111.59C2387.52,-104.93 2385.82,-95.75 2384.28,-87.44"/>
<polygon fill="#63b8ff" stroke="#63b8ff" points="2387.76,-86.98 2382.49,-77.79 2380.87,-88.26 2387.76,-86.98"/>
</g>
<!-- Node5&#45;&gt;Node6 -->
<g id="edge5" class="edge">
<title>Node5&#45;&gt;Node6</title>
<path fill="none" stroke="#63b8ff" d="M2237.72,-55.59C2217.64,-46.92 2187.64,-33.96 2165.14,-24.24"/>
<polygon fill="#63b8ff" stroke="#63b8ff" points="2166.74,-21.12 2156.17,-20.36 2163.96,-27.54 2166.74,-21.12"/>
</g>
<!-- Node7 -->
<g id="node7" class="node">
<title>Node7</title>
<g id="a_node7"><a xlink:title=" ">
<polygon fill="#e0e0e0" stroke="#999999" points="2294,-20 2191,-20 2191,0 2294,0 2294,-20"/>
<text text-anchor="middle" x="2242.5" y="-6.5" font-family="Helvetica,sans-Serif" font-size="10.00">SFML/Graphics.hpp</text>
</a>
</g>
</g>
<!-- Node5&#45;&gt;Node7 -->
<g id="edge6" class="edge">
<title>Node5&#45;&gt;Node7</title>
<path fill="none" stroke="#63b8ff" d="M2256.53,-55.59C2254.41,-48.86 2251.48,-39.53 2248.84,-31.15"/>
<polygon fill="#63b8ff" stroke="#63b8ff" points="2252.22,-30.23 2245.88,-21.74 2245.54,-32.33 2252.22,-30.23"/>
</g>
<!-- Node8 -->
<g id="node8" class="node">
<title>Node8</title>
<g id="a_node8"><a xlink:title=" ">
<polygon fill="#e0e0e0" stroke="#999999" points="2358.87,-20 2312.12,-20 2312.12,0 2358.87,0 2358.87,-20"/>
<text text-anchor="middle" x="2335.5" y="-6.5" font-family="Helvetica,sans-Serif" font-size="10.00">Vec2.h</text>
</a>
</g>
</g>
<!-- Node5&#45;&gt;Node8 -->
<g id="edge7" class="edge">
<title>Node5&#45;&gt;Node8</title>
<path fill="none" stroke="#63b8ff" d="M2272.73,-55.59C2283.78,-47.74 2299.78,-36.38 2312.85,-27.09"/>
<polygon fill="#63b8ff" stroke="#63b8ff" points="2314.8,-30 2320.92,-21.36 2310.74,-24.3 2314.8,-30"/>
</g>
<!-- Node5&#45;&gt;Node9 -->
<g id="edge8" class="edge">
<title>Node5&#45;&gt;Node9</title>
<path fill="none" stroke="#63b8ff" d="M2299.73,-55.59C2343.1,-45.46 2411.53,-29.46 2453.56,-19.63"/>
<polygon fill="#63b8ff" stroke="#63b8ff" points="2454.26,-23.06 2463.2,-17.38 2452.67,-16.25 2454.26,-23.06"/>
</g>
<!-- Node14&#45;&gt;Node6 -->
<g id="edge28" class="edge">
<title>Node14&#45;&gt;Node6</title>
<path fill="none" stroke="#63b8ff" d="M1082.16,-176.88C872.01,-176.11 60.62,-170.67 23.5,-132 17.34,-125.59 17.36,-118.43 23.5,-112 98.5,-33.33 1843.81,-13.76 2102.56,-11.29"/>
<polygon fill="#63b8ff" stroke="#63b8ff" points="2102.58,-14.79 2112.54,-11.19 2102.51,-7.79 2102.58,-14.79"/>
</g>
<!-- Node14&#45;&gt;Node9 -->
<g id="edge27" class="edge">
<title>Node14&#45;&gt;Node9</title>
<path fill="none" stroke="#63b8ff" d="M1180.8,-177.05C1334.91,-176.76 1805.96,-172.49 1952.5,-132 1970.89,-126.92 1972.25,-117.61 1990.5,-112 2126.44,-70.16 2172.55,-117.84 2308.5,-76 2326.74,-70.39 2328.87,-63.32 2346.5,-56 2381.94,-41.28 2424,-28.66 2453.47,-20.57"/>
<polygon fill="#63b8ff" stroke="#63b8ff" points="2454.3,-23.97 2463.04,-17.99 2452.48,-17.21 2454.3,-23.97"/>
</g>
<!-- Node14&#45;&gt;Node11 -->
<g id="edge30" class="edge">
<title>Node14&#45;&gt;Node11</title>
<path fill="none" stroke="#63b8ff" d="M1180.66,-176.51C1334.37,-174.66 1819.47,-166.29 2219.5,-132 2231.29,-130.99 2244.16,-129.43 2255.56,-127.9"/>
<polygon fill="#63b8ff" stroke="#63b8ff" points="2255.88,-131.39 2265.3,-126.54 2254.91,-124.46 2255.88,-131.39"/>
</g>
<!-- Node14&#45;&gt;Node12 -->
<g id="edge33" class="edge">
<title>Node14&#45;&gt;Node12</title>
<path fill="none" stroke="#63b8ff" d="M1180.7,-176.67C1356.29,-175.22 1952.36,-167.84 2164.65,-131.68"/>
<polygon fill="#63b8ff" stroke="#63b8ff" points="2164.95,-135.18 2174.18,-129.98 2163.72,-128.29 2164.95,-135.18"/>
</g>
<!-- Node15 -->
<g id="node15" class="node">
<title>Node15</title>
<g id="a_node15"><a xlink:title=" ">
<polygon fill="#e0e0e0" stroke="#999999" points="1328.37,-132 1272.62,-132 1272.62,-112 1328.37,-112 1328.37,-132"/>
<text text-anchor="middle" x="1300.5" y="-118.5" font-family="Helvetica,sans-Serif" font-size="10.00">algorithm</text>
</a>
</g>
</g>
<!-- Node14&#45;&gt;Node15 -->
<g id="edge21" class="edge">
<title>Node14&#45;&gt;Node15</title>
<path fill="none" stroke="#63b8ff" d="M1160.93,-167.59C1188.81,-158.69 1230.85,-145.25 1261.51,-135.46"/>
<polygon fill="#63b8ff" stroke="#63b8ff" points="1262.34,-138.87 1270.8,-132.49 1260.21,-132.2 1262.34,-138.87"/>
</g>
<!-- Node16 -->
<g id="node16" class="node">
<title>Node16</title>
<g id="a_node16"><a xlink:title=" ">
<polygon fill="#e0e0e0" stroke="#999999" points="1394.62,-132 1346.37,-132 1346.37,-112 1394.62,-112 1394.62,-132"/>
<text text-anchor="middle" x="1370.5" y="-118.5" font-family="Helvetica,sans-Serif" font-size="10.00">cstddef</text>
</a>
</g>
</g>
<!-- Node14&#45;&gt;Node16 -->
<g id="edge22" class="edge">
<title>Node14&#45;&gt;Node16</title>
<path fill="none" stroke="#63b8ff" d="M1177.88,-167.58C1217.28,-159.41 1275.59,-146.96 1334.93,-132.54"/>
<polygon fill="#63b8ff" stroke="#63b8ff" points="1335.67,-135.96 1344.55,-130.18 1334.01,-129.16 1335.67,-135.96"/>
</g>
<!-- Node17 -->
<g id="node17" class="node">
<title>Node17</title>
<g id="a_node17"><a xlink:title=" ">
<polygon fill="#e0e0e0" stroke="#999999" points="2057.5,-132 1999.5,-132 1999.5,-112 2057.5,-112 2057.5,-132"/>
<text text-anchor="middle" x="2028.5" y="-118.5" font-family="Helvetica,sans-Serif" font-size="10.00">functional</text>
</a>
</g>
</g>
<!-- Node14&#45;&gt;Node17 -->
<g id="edge23" class="edge">
<title>Node14&#45;&gt;Node17</title>
<path fill="none" stroke="#63b8ff" d="M1180.83,-177.04C1312.25,-176.59 1681.47,-171.59 1985.5,-132 1986.49,-131.87 1987.49,-131.73 1988.5,-131.58"/>
<polygon fill="#63b8ff" stroke="#63b8ff" points="1988.7,-135.1 1997.96,-129.96 1987.52,-128.2 1988.7,-135.1"/>
</g>
<!-- Node18 -->
<g id="node18" class="node">
<title>Node18</title>
<g id="a_node18"><a xlink:title=" ">
<polygon fill="#e0e0e0" stroke="#999999" points="1484.62,-132 1412.37,-132 1412.37,-112 1484.62,-112 1484.62,-132"/>
<text text-anchor="middle" x="1448.5" y="-118.5" font-family="Helvetica,sans-Serif" font-size="10.00">initializer_list</text>
</a>
</g>
</g>
<!-- Node14&#45;&gt;Node18 -->
<g id="edge24" class="edge">
<title>Node14&#45;&gt;Node18</title>
<path fill="none" stroke="#63b8ff" d="M1180.72,-169.36C1232.92,-161.15 1318.09,-147.43 1401.01,-132.41"/>
<polygon fill="#63b8ff" stroke="#63b8ff" points="1401.47,-135.88 1410.68,-130.65 1400.21,-128.99 1401.47,-135.88"/>
</g>
<!-- Node19 -->
<g id="node19" class="node">
<title>Node19</title>
<g id="a_node19"><a xlink:title=" ">
<polygon fill="#e0e0e0" stroke="#999999" points="1546.75,-132 1502.25,-132 1502.25,-112 1546.75,-112 1546.75,-132"/>
<text text-anchor="middle" x="1524.5" y="-118.5" font-family="Helvetica,sans-Serif" font-size="10.00">iosfwd</text>
</a>
</g>
</g>
<!-- Node14&#45;&gt;Node19 -->
<g id="edge25" class="edge">
<title>Node14&#45;&gt;Node19</title>
<path fill="none" stroke="#63b8ff" d="M1180.79,-173.37C1248.64,-167.83 1374.73,-155.57 1490.72,-132.29"/>
<polygon fill="#63b8ff" stroke="#63b8ff" points="1491.33,-135.74 1500.43,-130.31 1489.93,-128.88 1491.33,-135.74"/>
</g>
<!-- Node20 -->
<g id="node20" class="node">
<title>Node20</title>
<g id="a_node20"><a xlink:title=" ">
<polygon fill="#e0e0e0" stroke="#999999" points="1610.5,-132 1564.5,-132 1564.5,-112 1610.5,-112 1610.5,-132"/>
<text text-anchor="middle" x="1587.5" y="-118.5" font-family="Helvetica,sans-Serif" font-size="10.00">iterator</text>
</a>
</g>
</g>
<!-- Node14&#45;&gt;Node20 -->
<g id="edge26" class="edge">
<title>Node14&#45;&gt;Node20</title>
<path fill="none" stroke="#63b8ff" d="M1180.86,-174.46C1258.33,-169.9 1413.25,-158.39 1553.27,-132.13"/>
<polygon fill="#63b8ff" stroke="#63b8ff" points="1553.53,-135.64 1562.7,-130.33 1552.22,-128.77 1553.53,-135.64"/>
</g>
<!-- Node21 -->
<g id="node21" class="node">
<title>Node21</title>
<g id="a_node21"><a xlink:title=" ">
<polygon fill="#e0e0e0" stroke="#999999" points="1668.12,-132 1628.87,-132 1628.87,-112 1668.12,-112 1668.12,-132"/>
<text text-anchor="middle" x="1648.5" y="-118.5" font-family="Helvetica,sans-Serif" font-size="10.00">utility</text>
</a>
</g>
</g>
<!-- Node14&#45;&gt;Node21 -->
<g id="edge29" class="edge">
<title>Node14&#45;&gt;Node21</title>
<path fill="none" stroke="#63b8ff" d="M1180.81,-175.85C1267.53,-173.09 1452.97,-163.92 1617.84,-131.89"/>
<polygon fill="#63b8ff" stroke="#63b8ff" points="1618.05,-135.42 1627.18,-130.05 1616.69,-128.55 1618.05,-135.42"/>
</g>
<!-- Node22 -->
<g id="node22" class="node">
<title>Node22</title>
<g id="a_node22"><a xlink:title=" ">
<polygon fill="#e0e0e0" stroke="#999999" points="1724.37,-132 1686.62,-132 1686.62,-112 1724.37,-112 1724.37,-132"/>
<text text-anchor="middle" x="1705.5" y="-118.5" font-family="Helvetica,sans-Serif" font-size="10.00">array</text>
</a>
</g>
</g>
<!-- Node14&#45;&gt;Node22 -->
<g id="edge31" class="edge">
<title>Node14&#45;&gt;Node22</title>
<path fill="none" stroke="#63b8ff" d="M1180.59,-176.7C1274.97,-175.31 1488.22,-168.28 1675.22,-131.99"/>
<polygon fill="#63b8ff" stroke="#63b8ff" points="1675.75,-135.45 1684.88,-130.08 1674.39,-128.59 1675.75,-135.45"/>
</g>
<!-- Node23 -->
<g id="node23" class="node">
<title>Node23</title>
<g id="a_node23"><a xlink:title=" ">
<polygon fill="#e0e0e0" stroke="#999999" points="1808.62,-132 1742.37,-132 1742.37,-112 1808.62,-112 1808.62,-132"/>
<text text-anchor="middle" x="1775.5" y="-118.5" font-family="Helvetica,sans-Serif" font-size="10.00">forward_list</text>
</a>
</g>
</g>
<!-- Node14&#45;&gt;Node23 -->
<g id="edge32" class="edge">
<title>Node14&#45;&gt;Node23</title>
<path fill="none" stroke="#63b8ff" d="M1180.51,-175.6C1281.62,-172.23 1520.79,-161.73 1730.85,-132.19"/>
<polygon fill="#63b8ff" stroke="#63b8ff" points="1731.19,-135.68 1740.6,-130.8 1730.21,-128.75 1731.19,-135.68"/>
</g>
<!-- Node24 -->
<g id="node24" class="node">
<title>Node24</title>
<g id="a_node24"><a xlink:title=" ">
<polygon fill="#e0e0e0" stroke="#999999" points="1864,-132 1827,-132 1827,-112 1864,-112 1864,-132"/>
<text text-anchor="middle" x="1845.5" y="-118.5" font-family="Helvetica,sans-Serif" font-size="10.00">tuple</text>
</a>
</g>
</g>
<!-- Node14&#45;&gt;Node24 -->
<g id="edge34" class="edge">
<title>Node14&#45;&gt;Node24</title>
<path fill="none" stroke="#63b8ff" d="M1180.47,-175.35C1312.6,-170.65 1675.31,-156.11 1815.77,-131.74"/>
<polygon fill="#63b8ff" stroke="#63b8ff" points="1815.99,-135.26 1825.19,-130.01 1814.72,-128.37 1815.99,-135.26"/>
</g>
<!-- Node25 -->
<g id="node25" class="node">
<title>Node25</title>
<g id="a_node25"><a xlink:title=" ">
<polygon fill="#e0e0e0" stroke="#999999" points="1943.37,-132 1881.62,-132 1881.62,-112 1943.37,-112 1943.37,-132"/>
<text text-anchor="middle" x="1912.5" y="-118.5" font-family="Helvetica,sans-Serif" font-size="10.00">type_traits</text>
</a>
</g>
</g>
<!-- Node14&#45;&gt;Node25 -->
<g id="edge35" class="edge">
<title>Node14&#45;&gt;Node25</title>
<path fill="none" stroke="#63b8ff" d="M1180.76,-176.74C1298.38,-175.52 1604.93,-168.91 1869.76,-132.16"/>
<polygon fill="#63b8ff" stroke="#63b8ff" points="1870.23,-135.63 1879.64,-130.77 1869.25,-128.69 1870.23,-135.63"/>
</g>
<!-- Node26 -->
<g id="node26" class="node">
<title>Node26</title>
<g id="a_node26"><a xlink:title=" ">
<polygon fill="#e0e0e0" stroke="#999999" points="2157.87,-132 2075.12,-132 2075.12,-112 2157.87,-112 2157.87,-132"/>
<text text-anchor="middle" x="2116.5" y="-118.5" font-family="Helvetica,sans-Serif" font-size="10.00">unordered_map</text>
</a>
</g>
</g>
<!-- Node14&#45;&gt;Node26 -->
<g id="edge36" class="edge">
<title>Node14&#45;&gt;Node26</title>
<path fill="none" stroke="#63b8ff" d="M1180.84,-176.88C1318.83,-176.06 1720.46,-170.41 2063.41,-132.21"/>
<polygon fill="#63b8ff" stroke="#63b8ff" points="2063.76,-135.69 2073.31,-131.09 2062.98,-128.73 2063.76,-135.69"/>
</g>
<!-- Node27 -->
<g id="node27" class="node">
<title>Node27</title>
<g id="a_node27"><a xlink:title=" ">
<polygon fill="#e0e0e0" stroke="#999999" points="82.75,-132 32.25,-132 32.25,-112 82.75,-112 82.75,-132"/>
<text text-anchor="middle" x="57.5" y="-118.5" font-family="Helvetica,sans-Serif" font-size="10.00">valarray</text>
</a>
</g>
</g>
<!-- Node14&#45;&gt;Node27 -->
<g id="edge37" class="edge">
<title>Node14&#45;&gt;Node27</title>
<path fill="none" stroke="#63b8ff" d="M1082.43,-176.28C906.62,-173.48 307.81,-162.05 94.09,-132.01"/>
<polygon fill="#63b8ff" stroke="#63b8ff" points="94.89,-128.59 84.49,-130.6 93.87,-135.52 94.89,-128.59"/>
</g>
<!-- Node28 -->
<g id="node28" class="node">
<title>Node28</title>
<g id="a_node28"><a xlink:title=" ">
<polygon fill="#e0e0e0" stroke="#999999" points="158.5,-132 100.5,-132 100.5,-112 158.5,-112 158.5,-132"/>
<text text-anchor="middle" x="129.5" y="-118.5" font-family="Helvetica,sans-Serif" font-size="10.00">exception</text>
</a>
</g>
</g>
<!-- Node14&#45;&gt;Node28 -->
<g id="edge38" class="edge">
<title>Node14&#45;&gt;Node28</title>
<path fill="none" stroke="#63b8ff" d="M1082.26,-175.91C914.98,-172.03 368.36,-157.78 170,-132.03"/>
<polygon fill="#63b8ff" stroke="#63b8ff" points="170.73,-128.6 160.35,-130.73 169.79,-135.54 170.73,-128.6"/>
</g>
<!-- Node29 -->
<g id="node29" class="node">
<title>Node29</title>
<g id="a_node29"><a xlink:title=" ">
<polygon fill="#e0e0e0" stroke="#999999" points="234.87,-132 176.12,-132 176.12,-112 234.87,-112 234.87,-132"/>
<text text-anchor="middle" x="205.5" y="-118.5" font-family="Helvetica,sans-Serif" font-size="10.00">stdexcept</text>
</a>
</g>
</g>
<!-- Node14&#45;&gt;Node29 -->
<g id="edge39" class="edge">
<title>Node14&#45;&gt;Node29</title>
<path fill="none" stroke="#63b8ff" d="M1082.59,-177.63C949.49,-178.68 569.64,-177.29 246.26,-132.15"/>
<polygon fill="#63b8ff" stroke="#63b8ff" points="247.16,-128.74 236.77,-130.8 246.18,-135.67 247.16,-128.74"/>
</g>
<!-- Node30 -->
<g id="node30" class="node">
<title>Node30</title>
<g id="a_node30"><a xlink:title=" ">
<polygon fill="#e0e0e0" stroke="#999999" points="298.12,-132 252.87,-132 252.87,-112 298.12,-112 298.12,-132"/>
<text text-anchor="middle" x="275.5" y="-118.5" font-family="Helvetica,sans-Serif" font-size="10.00">cstdint</text>
</a>
</g>
</g>
<!-- Node14&#45;&gt;Node30 -->
<g id="edge40" class="edge">
<title>Node14&#45;&gt;Node30</title>
<path fill="none" stroke="#63b8ff" d="M1082.3,-175.73C931.95,-171.63 479,-157.62 309.65,-131.89"/>
<polygon fill="#63b8ff" stroke="#63b8ff" points="310.35,-128.46 299.93,-130.34 309.25,-135.37 310.35,-128.46"/>
</g>
<!-- Node31 -->
<g id="node31" class="node">
<title>Node31</title>
<g id="a_node31"><a xlink:title=" ">
<polygon fill="#e0e0e0" stroke="#999999" points="360.75,-132 316.25,-132 316.25,-112 360.75,-112 360.75,-132"/>
<text text-anchor="middle" x="338.5" y="-118.5" font-family="Helvetica,sans-Serif" font-size="10.00">cstdlib</text>
</a>
</g>
</g>
<!-- Node14&#45;&gt;Node31 -->
<g id="edge41" class="edge">
<title>Node14&#45;&gt;Node31</title>
<path fill="none" stroke="#63b8ff" d="M1082.17,-175.53C939.66,-171.05 528.12,-156.51 372.26,-132.04"/>
<polygon fill="#63b8ff" stroke="#63b8ff" points="372.98,-128.61 362.54,-130.43 371.83,-135.51 372.98,-128.61"/>
</g>
<!-- Node32 -->
<g id="node32" class="node">
<title>Node32</title>
<g id="a_node32"><a xlink:title=" ">
<polygon fill="#e0e0e0" stroke="#999999" points="426.62,-132 378.37,-132 378.37,-112 426.62,-112 426.62,-132"/>
<text text-anchor="middle" x="402.5" y="-118.5" font-family="Helvetica,sans-Serif" font-size="10.00">cassert</text>
</a>
</g>
</g>
<!-- Node14&#45;&gt;Node32 -->
<g id="edge42" class="edge">
<title>Node14&#45;&gt;Node32</title>
<path fill="none" stroke="#63b8ff" d="M1082.16,-177.21C969.44,-176.96 684.36,-172.22 438.2,-132.11"/>
<polygon fill="#63b8ff" stroke="#63b8ff" points="438.81,-128.67 428.37,-130.49 437.67,-135.57 438.81,-128.67"/>
</g>
<!-- Node33 -->
<g id="node33" class="node">
<title>Node33</title>
<g id="a_node33"><a xlink:title=" ">
<polygon fill="#e0e0e0" stroke="#999999" points="484.12,-132 444.87,-132 444.87,-112 484.12,-112 484.12,-132"/>
<text text-anchor="middle" x="464.5" y="-118.5" font-family="Helvetica,sans-Serif" font-size="10.00">limits</text>
</a>
</g>
</g>
<!-- Node14&#45;&gt;Node33 -->
<g id="edge43" class="edge">
<title>Node14&#45;&gt;Node33</title>
<path fill="none" stroke="#63b8ff" d="M1082.48,-177.54C976.51,-177.85 718.29,-174.02 495.77,-132.23"/>
<polygon fill="#63b8ff" stroke="#63b8ff" points="496.5,-128.8 486.02,-130.36 495.18,-135.68 496.5,-128.8"/>
</g>
<!-- Node34 -->
<g id="node34" class="node">
<title>Node34</title>
<g id="a_node34"><a xlink:title=" ">
<polygon fill="#e0e0e0" stroke="#999999" points="547.12,-132 501.87,-132 501.87,-112 547.12,-112 547.12,-132"/>
<text text-anchor="middle" x="524.5" y="-118.5" font-family="Helvetica,sans-Serif" font-size="10.00">cstring</text>
</a>
</g>
</g>
<!-- Node14&#45;&gt;Node34 -->
<g id="edge44" class="edge">
<title>Node14&#45;&gt;Node34</title>
<path fill="none" stroke="#63b8ff" d="M1082.13,-176.53C983.86,-174.87 756.8,-167.4 558.6,-132.24"/>
<polygon fill="#63b8ff" stroke="#63b8ff" points="559.35,-128.82 548.88,-130.48 558.1,-135.7 559.35,-128.82"/>
</g>
<!-- Node35 -->
<g id="node35" class="node">
<title>Node35</title>
<g id="a_node35"><a xlink:title=" ">
<polygon fill="#e0e0e0" stroke="#999999" points="608,-132 565,-132 565,-112 608,-112 608,-132"/>
<text text-anchor="middle" x="586.5" y="-118.5" font-family="Helvetica,sans-Serif" font-size="10.00">cmath</text>
</a>
</g>
</g>
<!-- Node14&#45;&gt;Node35 -->
<g id="edge45" class="edge">
<title>Node14&#45;&gt;Node35</title>
<path fill="none" stroke="#63b8ff" d="M1082.16,-175.88C992.02,-173.14 794.63,-163.94 619.61,-132.01"/>
<polygon fill="#63b8ff" stroke="#63b8ff" points="620.34,-128.59 609.87,-130.2 619.06,-135.47 620.34,-128.59"/>
</g>
<!-- Node36 -->
<g id="node36" class="node">
<title>Node36</title>
<g id="a_node36"><a xlink:title=" ">
<polygon fill="#e0e0e0" stroke="#999999" points="668.62,-132 626.37,-132 626.37,-112 668.62,-112 668.62,-132"/>
<text text-anchor="middle" x="647.5" y="-118.5" font-family="Helvetica,sans-Serif" font-size="10.00">cstdio</text>
</a>
</g>
</g>
<!-- Node14&#45;&gt;Node36 -->
<g id="edge46" class="edge">
<title>Node14&#45;&gt;Node36</title>
<path fill="none" stroke="#63b8ff" d="M1082.33,-175.23C1000.5,-171.61 831.17,-161.26 679.86,-132.12"/>
<polygon fill="#63b8ff" stroke="#63b8ff" points="680.97,-128.77 670.49,-130.28 679.62,-135.64 680.97,-128.77"/>
</g>
<!-- Node37 -->
<g id="node37" class="node">
<title>Node37</title>
<g id="a_node37"><a xlink:title=" ">
<polygon fill="#e0e0e0" stroke="#999999" points="736.75,-132 686.25,-132 686.25,-112 736.75,-112 736.75,-132"/>
<text text-anchor="middle" x="711.5" y="-118.5" font-family="Helvetica,sans-Serif" font-size="10.00">numeric</text>
</a>
</g>
</g>
<!-- Node14&#45;&gt;Node37 -->
<g id="edge47" class="edge">
<title>Node14&#45;&gt;Node37</title>
<path fill="none" stroke="#63b8ff" d="M1082.41,-173.53C1010.84,-167.99 873.53,-155.49 747.97,-132.24"/>
<polygon fill="#63b8ff" stroke="#63b8ff" points="748.99,-128.87 738.51,-130.46 747.69,-135.75 748.99,-128.87"/>
</g>
<!-- Node38 -->
<g id="node38" class="node">
<title>Node38</title>
<g id="a_node38"><a xlink:title=" ">
<polygon fill="#e0e0e0" stroke="#999999" points="814.25,-132 754.75,-132 754.75,-112 814.25,-112 814.25,-132"/>
<text text-anchor="middle" x="784.5" y="-118.5" font-family="Helvetica,sans-Serif" font-size="10.00">streambuf</text>
</a>
</g>
</g>
<!-- Node14&#45;&gt;Node38 -->
<g id="edge48" class="edge">
<title>Node14&#45;&gt;Node38</title>
<path fill="none" stroke="#63b8ff" d="M1082.21,-171.06C1023.49,-163.71 922.18,-150.14 825.8,-132.3"/>
<polygon fill="#63b8ff" stroke="#63b8ff" points="826.64,-128.9 816.17,-130.5 825.35,-135.78 826.64,-128.9"/>
</g>
<!-- Node39 -->
<g id="node39" class="node">
<title>Node39</title>
<g id="a_node39"><a xlink:title=" ">
<polygon fill="#e0e0e0" stroke="#999999" points="880.62,-132 832.37,-132 832.37,-112 880.62,-112 880.62,-132"/>
<text text-anchor="middle" x="856.5" y="-118.5" font-family="Helvetica,sans-Serif" font-size="10.00">istream</text>
</a>
</g>
</g>
<!-- Node14&#45;&gt;Node39 -->
<g id="edge49" class="edge">
<title>Node14&#45;&gt;Node39</title>
<path fill="none" stroke="#63b8ff" d="M1082.35,-168.92C1035.88,-161.04 963.97,-148.21 892.03,-132.2"/>
<polygon fill="#63b8ff" stroke="#63b8ff" points="892.96,-128.82 882.43,-130.04 891.42,-135.65 892.96,-128.82"/>
</g>
<!-- Node40 -->
<g id="node40" class="node">
<title>Node40</title>
<g id="a_node40"><a xlink:title=" ">
<polygon fill="#e0e0e0" stroke="#999999" points="945.87,-132 899.12,-132 899.12,-112 945.87,-112 945.87,-132"/>
<text text-anchor="middle" x="922.5" y="-118.5" font-family="Helvetica,sans-Serif" font-size="10.00">clocale</text>
</a>
</g>
</g>
<!-- Node14&#45;&gt;Node40 -->
<g id="edge50" class="edge">
<title>Node14&#45;&gt;Node40</title>
<path fill="none" stroke="#63b8ff" d="M1093.1,-167.53C1059.58,-159.21 1009.35,-146.57 957.36,-132.72"/>
<polygon fill="#63b8ff" stroke="#63b8ff" points="958.27,-129.34 947.7,-130.14 956.46,-136.11 958.27,-129.34"/>
</g>
<!-- Node41 -->
<g id="node41" class="node">
<title>Node41</title>
<g id="a_node41"><a xlink:title=" ">
<polygon fill="#e0e0e0" stroke="#999999" points="1009.12,-132 963.87,-132 963.87,-112 1009.12,-112 1009.12,-132"/>
<text text-anchor="middle" x="986.5" y="-118.5" font-family="Helvetica,sans-Serif" font-size="10.00">cctype</text>
</a>
</g>
</g>
<!-- Node14&#45;&gt;Node41 -->
<g id="edge51" class="edge">
<title>Node14&#45;&gt;Node41</title>
<path fill="none" stroke="#63b8ff" d="M1106.24,-167.59C1082.38,-158.71 1046.44,-145.32 1020.16,-135.54"/>
<polygon fill="#63b8ff" stroke="#63b8ff" points="1021.56,-132.32 1010.97,-132.11 1019.12,-138.88 1021.56,-132.32"/>
</g>
<!-- Node42 -->
<g id="node42" class="node">
<title>Node42</title>
<g id="a_node42"><a xlink:title=" ">
<polygon fill="#e0e0e0" stroke="#999999" points="1070,-132 1027,-132 1027,-112 1070,-112 1070,-132"/>
<text text-anchor="middle" x="1048.5" y="-118.5" font-family="Helvetica,sans-Serif" font-size="10.00">cerrno</text>
</a>
</g>
</g>
<!-- Node14&#45;&gt;Node42 -->
<g id="edge52" class="edge">
<title>Node14&#45;&gt;Node42</title>
<path fill="none" stroke="#63b8ff" d="M1117.04,-167.59C1104.74,-159.59 1086.82,-147.93 1072.39,-138.54"/>
<polygon fill="#63b8ff" stroke="#63b8ff" points="1074.63,-135.82 1064.33,-133.3 1070.81,-141.69 1074.63,-135.82"/>
</g>
<!-- Node43 -->
<g id="node43" class="node">
<title>Node43</title>
<g id="a_node43"><a xlink:title=" ">
<polygon fill="#e0e0e0" stroke="#999999" points="1116.9,-132 1088.1,-132 1088.1,-112 1116.9,-112 1116.9,-132"/>
<text text-anchor="middle" x="1102.5" y="-118.5" font-family="Helvetica,sans-Serif" font-size="10.00">ios</text>
</a>
</g>
</g>
<!-- Node14&#45;&gt;Node43 -->
<g id="edge53" class="edge">
<title>Node14&#45;&gt;Node43</title>
<path fill="none" stroke="#63b8ff" d="M1126.44,-167.59C1122.7,-160.63 1117.47,-150.89 1112.85,-142.29"/>
<polygon fill="#63b8ff" stroke="#63b8ff" points="1116.02,-140.79 1108.2,-133.63 1109.85,-144.1 1116.02,-140.79"/>
</g>
<!-- Node44 -->
<g id="node44" class="node">
<title>Node44</title>
<g id="a_node44"><a xlink:title=" ">
<polygon fill="#e0e0e0" stroke="#999999" points="1186.12,-132 1134.87,-132 1134.87,-112 1186.12,-112 1186.12,-132"/>
<text text-anchor="middle" x="1160.5" y="-118.5" font-family="Helvetica,sans-Serif" font-size="10.00">ostream</text>
</a>
</g>
</g>
<!-- Node14&#45;&gt;Node44 -->
<g id="edge54" class="edge">
<title>Node14&#45;&gt;Node44</title>
<path fill="none" stroke="#63b8ff" d="M1136.55,-167.59C1140.29,-160.63 1145.52,-150.89 1150.14,-142.29"/>
<polygon fill="#63b8ff" stroke="#63b8ff" points="1153.14,-144.1 1154.79,-133.63 1146.97,-140.79 1153.14,-144.1"/>
</g>
<!-- Node45 -->
<g id="node45" class="node">
<title>Node45</title>
<g id="a_node45"><a xlink:title=" ">
<polygon fill="#e0e0e0" stroke="#999999" points="1254.37,-132 1204.62,-132 1204.62,-112 1254.37,-112 1254.37,-132"/>
<text text-anchor="middle" x="1229.5" y="-118.5" font-family="Helvetica,sans-Serif" font-size="10.00">iomanip</text>
</a>
</g>
</g>
<!-- Node14&#45;&gt;Node45 -->
<g id="edge55" class="edge">
<title>Node14&#45;&gt;Node45</title>
<path fill="none" stroke="#63b8ff" d="M1148.57,-167.59C1163.37,-159.44 1185.06,-147.48 1202.26,-138"/>
<polygon fill="#63b8ff" stroke="#63b8ff" points="1203.9,-141.1 1210.97,-133.21 1200.52,-134.97 1203.9,-141.1"/>
</g>
<!-- Node47&#45;&gt;Node3 -->
<g id="edge58" class="edge">
<title>Node47&#45;&gt;Node3</title>
<path fill="none" stroke="#63b8ff" d="M2384.37,-226C2315.24,-215.93 2188.17,-197.44 2115.77,-186.9"/>
<polygon fill="#63b8ff" stroke="#63b8ff" points="2116.54,-183.47 2106.14,-185.5 2115.53,-190.4 2116.54,-183.47"/>
</g>
<!-- Node47&#45;&gt;Node4 -->
<g id="edge62" class="edge">
<title>Node47&#45;&gt;Node4</title>
<path fill="none" stroke="#63b8ff" d="M2429.16,-223.71C2424.59,-211.07 2416.09,-187.76 2408.5,-168 2405.33,-159.76 2401.73,-150.72 2398.59,-142.91"/>
<polygon fill="#63b8ff" stroke="#63b8ff" points="2401.85,-141.64 2394.86,-133.68 2395.37,-144.27 2401.85,-141.64"/>
</g>
<!-- Node47&#45;&gt;Node9 -->
<g id="edge63" class="edge">
<title>Node47&#45;&gt;Node9</title>
<path fill="none" stroke="#63b8ff" d="M2480.64,-232.63C2553.79,-230.93 2687.6,-222.99 2717.5,-188 2755.68,-143.32 2749.77,-98.8 2709.5,-56 2685.1,-30.07 2583.2,-18.2 2527.41,-13.55"/>
<polygon fill="#63b8ff" stroke="#63b8ff" points="2528.01,-10.08 2517.76,-12.78 2527.45,-17.06 2528.01,-10.08"/>
</g>
<!-- Node47&#45;&gt;Node11 -->
<g id="edge64" class="edge">
<title>Node47&#45;&gt;Node11</title>
<path fill="none" stroke="#63b8ff" d="M2425.23,-223.74C2414.36,-210.29 2392.75,-185.11 2370.5,-168 2354.87,-155.98 2335.62,-145.24 2319.7,-137.27"/>
<polygon fill="#63b8ff" stroke="#63b8ff" points="2321.67,-134.34 2311.15,-133.11 2318.61,-140.63 2321.67,-134.34"/>
</g>
<!-- Node47&#45;&gt;Node17 -->
<g id="edge66" class="edge">
<title>Node47&#45;&gt;Node17</title>
<path fill="none" stroke="#63b8ff" d="M2395.89,-223.55C2367.57,-215.65 2327.71,-203.23 2294.5,-188 2278.91,-180.85 2277.52,-174.1 2261.5,-168 2182.43,-137.9 2154.94,-149.15 2068.99,-132.37"/>
<polygon fill="#63b8ff" stroke="#63b8ff" points="2069.9,-128.99 2059.4,-130.42 2068.51,-135.85 2069.9,-128.99"/>
</g>
<!-- Node47&#45;&gt;Node26 -->
<g id="edge65" class="edge">
<title>Node47&#45;&gt;Node26</title>
<path fill="none" stroke="#63b8ff" d="M2415.52,-223.69C2389.92,-209.96 2339.62,-184.16 2294.5,-168 2253.34,-153.26 2205.19,-141.4 2169.35,-133.56"/>
<polygon fill="#63b8ff" stroke="#63b8ff" points="2170.17,-130.15 2159.65,-131.48 2168.69,-137 2170.17,-130.15"/>
</g>
<!-- Node48 -->
<g id="node48" class="node">
<title>Node48</title>
<g id="a_node48"><a xlink:href="ManagerGrammar_8h.html" target="_top" xlink:title=" ">
<polygon fill="white" stroke="#666666" points="2708.25,-132 2606.75,-132 2606.75,-112 2708.25,-112 2708.25,-132"/>
<text text-anchor="middle" x="2657.5" y="-118.5" font-family="Helvetica,sans-Serif" font-size="10.00">ManagerGrammar.h</text>
</a>
</g>
</g>
<!-- Node47&#45;&gt;Node48 -->
<g id="edge59" class="edge">
<title>Node47&#45;&gt;Node48</title>
<path fill="none" stroke="#63b8ff" d="M2480.64,-228.34C2516.77,-223.03 2566.22,-211.76 2603.5,-188 2621.81,-176.32 2637.01,-156.41 2646.56,-141.69"/>
<polygon fill="#63b8ff" stroke="#63b8ff" points="2649.42,-143.73 2651.69,-133.38 2643.46,-140.05 2649.42,-143.73"/>
</g>
<!-- Node50 -->
<g id="node50" class="node">
<title>Node50</title>
<g id="a_node50"><a xlink:title=" ">
<polygon fill="#e0e0e0" stroke="#999999" points="2708.5,-188 2650.5,-188 2650.5,-168 2708.5,-168 2708.5,-188"/>
<text text-anchor="middle" x="2679.5" y="-174.5" font-family="Helvetica,sans-Serif" font-size="10.00">System.h</text>
</a>
</g>
</g>
<!-- Node47&#45;&gt;Node50 -->
<g id="edge61" class="edge">
<title>Node47&#45;&gt;Node50</title>
<path fill="none" stroke="#63b8ff" d="M2475.8,-223.53C2521.88,-213.46 2594.19,-197.65 2639.11,-187.83"/>
<polygon fill="#63b8ff" stroke="#63b8ff" points="2639.69,-191.29 2648.71,-185.73 2638.19,-184.45 2639.69,-191.29"/>
</g>
<!-- Node47&#45;&gt;Node51 -->
<g id="edge67" class="edge">
<title>Node47&#45;&gt;Node51</title>
<path fill="none" stroke="#63b8ff" d="M2396.44,-223.59C2359.28,-213.9 2301.57,-198.85 2263.66,-188.96"/>
<polygon fill="#63b8ff" stroke="#63b8ff" points="2264.59,-185.58 2254.03,-186.45 2262.83,-192.36 2264.59,-185.58"/>
</g>
<!-- Node49 -->
<g id="node49" class="node">
<title>Node49</title>
<g id="a_node49"><a xlink:title=" ">
<polygon fill="#e0e0e0" stroke="#999999" points="2700.37,-76 2614.62,-76 2614.62,-56 2700.37,-56 2700.37,-76"/>
<text text-anchor="middle" x="2657.5" y="-62.5" font-family="Helvetica,sans-Serif" font-size="10.00">BicolGrammar.h</text>
</a>
</g>
</g>
<!-- Node48&#45;&gt;Node49 -->
<g id="edge60" class="edge">
<title>Node48&#45;&gt;Node49</title>
<path fill="none" stroke="#63b8ff" d="M2657.5,-111.59C2657.5,-105.01 2657.5,-95.96 2657.5,-87.73"/>
<polygon fill="#63b8ff" stroke="#63b8ff" points="2661,-87.81 2657.5,-77.81 2654,-87.81 2661,-87.81"/>
</g>
<!-- Node52&#45;&gt;Node4 -->
<g id="edge69" class="edge">
<title>Node52&#45;&gt;Node4</title>
<path fill="none" stroke="#63b8ff" d="M2503.63,-167.59C2481.96,-159.05 2449.73,-146.35 2425.2,-136.68"/>
<polygon fill="#63b8ff" stroke="#63b8ff" points="2426.54,-133.45 2415.95,-133.03 2423.97,-139.96 2426.54,-133.45"/>
</g>
<!-- Node52&#45;&gt;Node6 -->
<g id="edge74" class="edge">
<title>Node52&#45;&gt;Node6</title>
<path fill="none" stroke="#63b8ff" d="M2480.42,-167.54C2445.78,-159.87 2397.89,-147.74 2357.5,-132 2339.71,-125.07 2337.32,-118.82 2319.5,-112 2258.29,-88.57 2229.76,-114.18 2176.5,-76 2160.64,-64.64 2149.26,-45.26 2142.38,-30.61"/>
<polygon fill="#63b8ff" stroke="#63b8ff" points="2145.62,-29.28 2138.43,-21.5 2139.2,-32.07 2145.62,-29.28"/>
</g>
<!-- Node52&#45;&gt;Node9 -->
<g id="edge71" class="edge">
<title>Node52&#45;&gt;Node9</title>
<path fill="none" stroke="#63b8ff" d="M2525.4,-167.6C2519.57,-141.46 2503.09,-67.48 2495.03,-31.36"/>
<polygon fill="#63b8ff" stroke="#63b8ff" points="2498.49,-30.77 2492.9,-21.77 2491.66,-32.3 2498.49,-30.77"/>
</g>
<!-- Node52&#45;&gt;Node11 -->
<g id="edge73" class="edge">
<title>Node52&#45;&gt;Node11</title>
<path fill="none" stroke="#63b8ff" d="M2483.06,-167.51C2441.89,-158.63 2378.95,-144.84 2324.5,-132 2323.34,-131.73 2322.15,-131.45 2320.96,-131.16"/>
<polygon fill="#63b8ff" stroke="#63b8ff" points="2322.19,-127.86 2311.64,-128.88 2320.53,-134.66 2322.19,-127.86"/>
</g>
<!-- Node52&#45;&gt;Node12 -->
<g id="edge72" class="edge">
<title>Node52&#45;&gt;Node12</title>
<path fill="none" stroke="#63b8ff" d="M2468.93,-167.53C2396.75,-155.86 2276.95,-136.49 2222.28,-127.65"/>
<polygon fill="#63b8ff" stroke="#63b8ff" points="2222.97,-124.22 2212.54,-126.08 2221.85,-131.13 2222.97,-124.22"/>
</g>
<!-- Node52&#45;&gt;Node48 -->
<g id="edge70" class="edge">
<title>Node52&#45;&gt;Node48</title>
<path fill="none" stroke="#63b8ff" d="M2550.14,-167.59C2570.61,-159.09 2601.01,-146.46 2624.24,-136.81"/>
<polygon fill="#63b8ff" stroke="#63b8ff" points="2625.38,-140.13 2633.28,-133.06 2622.7,-133.66 2625.38,-140.13"/>
</g>
<!-- Node53 -->
<g id="node53" class="node">
<title>Node53</title>
<g id="a_node53"><a xlink:title=" ">
<polygon fill="#e0e0e0" stroke="#999999" points="2589.12,-132 2537.87,-132 2537.87,-112 2589.12,-112 2589.12,-132"/>
<text text-anchor="middle" x="2563.5" y="-118.5" font-family="Helvetica,sans-Serif" font-size="10.00">sstream</text>
</a>
</g>
</g>
<!-- Node52&#45;&gt;Node53 -->
<g id="edge75" class="edge">
<title>Node52&#45;&gt;Node53</title>
<path fill="none" stroke="#63b8ff" d="M2533.77,-167.59C2538.52,-160.47 2545.19,-150.45 2551.02,-141.72"/>
<polygon fill="#63b8ff" stroke="#63b8ff" points="2553.82,-143.82 2556.46,-133.56 2548,-139.94 2553.82,-143.82"/>
</g>
<!-- Node54&#45;&gt;Node2 -->
<g id="edge78" class="edge">
<title>Node54&#45;&gt;Node2</title>
<path fill="none" stroke="#63b8ff" d="M2288.21,-279.59C2213.51,-269.3 2094.97,-252.97 2023.96,-243.19"/>
<polygon fill="#63b8ff" stroke="#63b8ff" points="2024.44,-239.72 2014.06,-241.83 2023.48,-246.66 2024.44,-239.72"/>
</g>
<!-- Node54&#45;&gt;Node9 -->
<g id="edge81" class="edge">
<title>Node54&#45;&gt;Node9</title>
<path fill="none" stroke="#63b8ff" d="M2424.58,-285.12C2543.03,-276.49 2774.5,-250.48 2774.5,-179 2774.5,-179 2774.5,-179 2774.5,-121 2774.5,-86.36 2760.36,-75.14 2731.5,-56 2698.64,-34.22 2587.15,-20.4 2528.02,-14.42"/>
<polygon fill="#63b8ff" stroke="#63b8ff" points="2528.39,-10.94 2518.1,-13.45 2527.71,-17.91 2528.39,-10.94"/>
</g>
<!-- Node54&#45;&gt;Node11 -->
<g id="edge80" class="edge">
<title>Node54&#45;&gt;Node11</title>
<path fill="none" stroke="#63b8ff" d="M2352.64,-279.6C2341.89,-253.35 2311.37,-178.84 2296.64,-142.89"/>
<polygon fill="#63b8ff" stroke="#63b8ff" points="2299.91,-141.62 2292.88,-133.7 2293.43,-144.28 2299.91,-141.62"/>
</g>
<!-- Node54&#45;&gt;Node47 -->
<g id="edge79" class="edge">
<title>Node54&#45;&gt;Node47</title>
<path fill="none" stroke="#63b8ff" d="M2369.73,-279.59C2380.78,-271.74 2396.78,-260.38 2409.85,-251.09"/>
<polygon fill="#63b8ff" stroke="#63b8ff" points="2411.8,-254 2417.92,-245.36 2407.74,-248.3 2411.8,-254"/>
</g>
<!-- Node54&#45;&gt;Node52 -->
<g id="edge77" class="edge">
<title>Node54&#45;&gt;Node52</title>
<path fill="none" stroke="#63b8ff" d="M2412,-279.55C2437.71,-272.97 2467.39,-262.02 2489.5,-244 2504.04,-232.14 2514.23,-213.13 2520.37,-198.73"/>
<polygon fill="#63b8ff" stroke="#63b8ff" points="2523.48,-200.38 2523.87,-189.79 2516.96,-197.82 2523.48,-200.38"/>
</g>
</g>
</svg>
