<?xml version="1.0" encoding="UTF-8" standalone="no"?>
<!DOCTYPE svg PUBLIC "-//W3C//DTD SVG 1.1//EN"
 "http://www.w3.org/Graphics/SVG/1.1/DTD/svg11.dtd">
<!-- Generated by graphviz version 12.2.1 (20241206.2353)
 -->
<!-- Title: src/managers/ManagerEntity.h Pages: 1 -->
<svg width="1306pt" height="376pt"
 viewBox="0.00 0.00 1306.25 376.00" xmlns="http://www.w3.org/2000/svg" xmlns:xlink="http://www.w3.org/1999/xlink">
<g id="graph0" class="graph" transform="scale(1 1) rotate(0) translate(4 372)">
<title>src/managers/ManagerEntity.h</title>
<!-- Node1 -->
<g id="node1" class="node">
<title>Node1</title>
<g id="a_node1"><a xlink:title=" ">
<polygon fill="#999999" stroke="#666666" points="612.25,-368 464.25,-368 464.25,-348 612.25,-348 612.25,-368"/>
<text text-anchor="middle" x="538.25" y="-354.5" font-family="Helvetica,sans-Serif" font-size="10.00">src/managers/ManagerEntity.h</text>
</a>
</g>
</g>
<!-- Node2 -->
<g id="node2" class="node">
<title>Node2</title>
<g id="a_node2"><a xlink:href="ManagerEntity_8cpp.html" target="_top" xlink:title=" ">
<polygon fill="white" stroke="#666666" points="158.5,-312 0,-312 0,-292 158.5,-292 158.5,-312"/>
<text text-anchor="middle" x="79.25" y="-298.5" font-family="Helvetica,sans-Serif" font-size="10.00">src/managers/ManagerEntity.cpp</text>
</a>
</g>
</g>
<!-- Node1&#45;&gt;Node2 -->
<g id="edge1" class="edge">
<title>Node1&#45;&gt;Node2</title>
<path fill="none" stroke="#63b8ff" d="M452.66,-346.93C368.44,-337.02 240.86,-322.01 158.79,-312.36"/>
<polygon fill="#63b8ff" stroke="#63b8ff" points="452.15,-350.39 462.49,-348.09 452.97,-343.44 452.15,-350.39"/>
</g>
<!-- Node3 -->
<g id="node3" class="node">
<title>Node3</title>
<g id="a_node3"><a xlink:href="ManagerLexicon_8h.html" target="_top" xlink:title=" ">
<polygon fill="white" stroke="#666666" points="509.12,-312 351.38,-312 351.38,-292 509.12,-292 509.12,-312"/>
<text text-anchor="middle" x="430.25" y="-298.5" font-family="Helvetica,sans-Serif" font-size="10.00">src/managers/ManagerLexicon.h</text>
</a>
</g>
</g>
<!-- Node1&#45;&gt;Node3 -->
<g id="edge2" class="edge">
<title>Node1&#45;&gt;Node3</title>
<path fill="none" stroke="#63b8ff" d="M509.21,-342.48C490.16,-332.96 465.8,-320.78 449.21,-312.48"/>
<polygon fill="#63b8ff" stroke="#63b8ff" points="507.57,-345.58 518.08,-346.92 510.71,-339.31 507.57,-345.58"/>
</g>
<!-- Node7 -->
<g id="node7" class="node">
<title>Node7</title>
<g id="a_node7"><a xlink:href="SceneEspionage_8h.html" target="_top" xlink:title=" ">
<polygon fill="white" stroke="#666666" points="500.62,-132 351.88,-132 351.88,-112 500.62,-112 500.62,-132"/>
<text text-anchor="middle" x="426.25" y="-118.5" font-family="Helvetica,sans-Serif" font-size="10.00">src/scenes/SceneEspionage.h</text>
</a>
</g>
</g>
<!-- Node1&#45;&gt;Node7 -->
<g id="edge25" class="edge">
<title>Node1&#45;&gt;Node7</title>
<path fill="none" stroke="#63b8ff" d="M464.53,-345.61C375.59,-330.12 234.32,-299.29 205.25,-256 159.38,-187.69 293.22,-148.92 372.42,-132.48"/>
<polygon fill="#63b8ff" stroke="#63b8ff" points="463.7,-349.02 474.15,-347.26 464.89,-342.12 463.7,-349.02"/>
</g>
<!-- Node13 -->
<g id="node13" class="node">
<title>Node13</title>
<g id="a_node13"><a xlink:href="ManagerSystem_8h.html" target="_top" xlink:title=" ">
<polygon fill="white" stroke="#666666" points="706.12,-312 548.38,-312 548.38,-292 706.12,-292 706.12,-312"/>
<text text-anchor="middle" x="627.25" y="-298.5" font-family="Helvetica,sans-Serif" font-size="10.00">src/managers/ManagerSystem.h</text>
</a>
</g>
</g>
<!-- Node1&#45;&gt;Node13 -->
<g id="edge13" class="edge">
<title>Node1&#45;&gt;Node13</title>
<path fill="none" stroke="#63b8ff" d="M563.28,-341.81C578.81,-332.39 598.27,-320.58 611.63,-312.48"/>
<polygon fill="#63b8ff" stroke="#63b8ff" points="561.78,-338.63 555.05,-346.81 565.41,-344.61 561.78,-338.63"/>
</g>
<!-- Node15 -->
<g id="node15" class="node">
<title>Node15</title>
<g id="a_node15"><a xlink:href="SceneApprenticeship_8h.html" target="_top" xlink:title=" ">
<polygon fill="white" stroke="#666666" points="1122,-132 954.5,-132 954.5,-112 1122,-112 1122,-132"/>
<text text-anchor="middle" x="1038.25" y="-118.5" font-family="Helvetica,sans-Serif" font-size="10.00">src/scenes/SceneApprenticeship.h</text>
</a>
</g>
</g>
<!-- Node1&#45;&gt;Node15 -->
<g id="edge17" class="edge">
<title>Node1&#45;&gt;Node15</title>
<path fill="none" stroke="#63b8ff" d="M623.71,-355.46C700.72,-352.03 816.26,-341.8 912.25,-312 963.51,-296.09 988.27,-299.83 1019.25,-256 1046.71,-217.14 1042.47,-155.76 1039.62,-132.42"/>
<polygon fill="#63b8ff" stroke="#63b8ff" points="623.99,-351.94 614.15,-355.85 624.28,-358.94 623.99,-351.94"/>
</g>
<!-- Node18 -->
<g id="node18" class="node">
<title>Node18</title>
<g id="a_node18"><a xlink:href="SceneCombat_8h.html" target="_top" xlink:title=" ">
<polygon fill="white" stroke="#666666" points="903,-312 765.5,-312 765.5,-292 903,-292 903,-312"/>
<text text-anchor="middle" x="834.25" y="-298.5" font-family="Helvetica,sans-Serif" font-size="10.00">src/scenes/SceneCombat.h</text>
</a>
</g>
</g>
<!-- Node1&#45;&gt;Node18 -->
<g id="edge22" class="edge">
<title>Node1&#45;&gt;Node18</title>
<path fill="none" stroke="#63b8ff" d="M601.3,-345.5C655.25,-335.66 731.97,-321.66 782.41,-312.46"/>
<polygon fill="#63b8ff" stroke="#63b8ff" points="600.85,-342.02 591.64,-347.26 602.1,-348.91 600.85,-342.02"/>
</g>
<!-- Node4 -->
<g id="node4" class="node">
<title>Node4</title>
<g id="a_node4"><a xlink:href="ManagerActionResolution_8h.html" target="_top" xlink:title=" ">
<polygon fill="white" stroke="#666666" points="582,-256 438.5,-256 438.5,-224 582,-224 582,-256"/>
<text text-anchor="start" x="446.5" y="-242.5" font-family="Helvetica,sans-Serif" font-size="10.00">src/managers/ManagerAction</text>
<text text-anchor="middle" x="510.25" y="-230.5" font-family="Helvetica,sans-Serif" font-size="10.00">Resolution.h</text>
</a>
</g>
</g>
<!-- Node3&#45;&gt;Node4 -->
<g id="edge3" class="edge">
<title>Node3&#45;&gt;Node4</title>
<path fill="none" stroke="#63b8ff" d="M451.88,-284.78C463.66,-275.94 478.15,-265.07 489.75,-256.37"/>
<polygon fill="#63b8ff" stroke="#63b8ff" points="449.86,-281.92 443.96,-290.72 454.06,-287.52 449.86,-281.92"/>
</g>
<!-- Node5 -->
<g id="node5" class="node">
<title>Node5</title>
<g id="a_node5"><a xlink:href="ManagerTurn_8h.html" target="_top" xlink:title=" ">
<polygon fill="white" stroke="#666666" points="582,-188 438.5,-188 438.5,-168 582,-168 582,-188"/>
<text text-anchor="middle" x="510.25" y="-174.5" font-family="Helvetica,sans-Serif" font-size="10.00">src/managers/ManagerTurn.h</text>
</a>
</g>
</g>
<!-- Node3&#45;&gt;Node5 -->
<g id="edge12" class="edge">
<title>Node3&#45;&gt;Node5</title>
<path fill="none" stroke="#63b8ff" d="M424.52,-280.63C421.12,-264.19 419.2,-241.08 429.25,-224 439.61,-206.39 459.63,-195.18 477.17,-188.35"/>
<polygon fill="#63b8ff" stroke="#63b8ff" points="421.09,-281.34 426.88,-290.21 427.89,-279.67 421.09,-281.34"/>
</g>
<!-- Node12 -->
<g id="node12" class="node">
<title>Node12</title>
<g id="a_node12"><a xlink:href="ManagerLexicon_8cpp.html" target="_top" xlink:title=" ">
<polygon fill="white" stroke="#666666" points="382.38,-250 214.12,-250 214.12,-230 382.38,-230 382.38,-250"/>
<text text-anchor="middle" x="298.25" y="-236.5" font-family="Helvetica,sans-Serif" font-size="10.00">src/managers/ManagerLexicon.cpp</text>
</a>
</g>
</g>
<!-- Node3&#45;&gt;Node12 -->
<g id="edge11" class="edge">
<title>Node3&#45;&gt;Node12</title>
<path fill="none" stroke="#63b8ff" d="M399.28,-286.92C374.44,-275.63 340.28,-260.1 318.73,-250.31"/>
<polygon fill="#63b8ff" stroke="#63b8ff" points="397.7,-290.05 408.25,-291 400.59,-283.67 397.7,-290.05"/>
</g>
<!-- Node4&#45;&gt;Node5 -->
<g id="edge4" class="edge">
<title>Node4&#45;&gt;Node5</title>
<path fill="none" stroke="#63b8ff" d="M510.25,-212.08C510.25,-203.6 510.25,-194.8 510.25,-188.41"/>
<polygon fill="#63b8ff" stroke="#63b8ff" points="506.75,-212.03 510.25,-222.03 513.75,-212.03 506.75,-212.03"/>
</g>
<!-- Node6 -->
<g id="node6" class="node">
<title>Node6</title>
<g id="a_node6"><a xlink:href="ManagerTurn_8cpp.html" target="_top" xlink:title=" ">
<polygon fill="white" stroke="#666666" points="672.25,-132 518.25,-132 518.25,-112 672.25,-112 672.25,-132"/>
<text text-anchor="middle" x="595.25" y="-118.5" font-family="Helvetica,sans-Serif" font-size="10.00">src/managers/ManagerTurn.cpp</text>
</a>
</g>
</g>
<!-- Node5&#45;&gt;Node6 -->
<g id="edge5" class="edge">
<title>Node5&#45;&gt;Node6</title>
<path fill="none" stroke="#63b8ff" d="M534.58,-161.54C549.34,-152.17 567.69,-140.51 580.33,-132.48"/>
<polygon fill="#63b8ff" stroke="#63b8ff" points="532.9,-158.47 526.33,-166.78 536.65,-164.37 532.9,-158.47"/>
</g>
<!-- Node5&#45;&gt;Node7 -->
<g id="edge6" class="edge">
<title>Node5&#45;&gt;Node7</title>
<path fill="none" stroke="#63b8ff" d="M486.2,-161.54C471.62,-152.17 453.48,-140.51 441,-132.48"/>
<polygon fill="#63b8ff" stroke="#63b8ff" points="484.04,-164.31 494.35,-166.78 487.83,-158.42 484.04,-164.31"/>
</g>
<!-- Node8 -->
<g id="node8" class="node">
<title>Node8</title>
<g id="a_node8"><a xlink:href="SceneEspionage_8cpp.html" target="_top" xlink:title=" ">
<polygon fill="white" stroke="#666666" points="505.88,-76 346.62,-76 346.62,-56 505.88,-56 505.88,-76"/>
<text text-anchor="middle" x="426.25" y="-62.5" font-family="Helvetica,sans-Serif" font-size="10.00">src/scenes/SceneEspionage.cpp</text>
</a>
</g>
</g>
<!-- Node7&#45;&gt;Node8 -->
<g id="edge7" class="edge">
<title>Node7&#45;&gt;Node8</title>
<path fill="none" stroke="#63b8ff" d="M426.25,-100.13C426.25,-91.9 426.25,-82.85 426.25,-76.3"/>
<polygon fill="#63b8ff" stroke="#63b8ff" points="422.75,-100.08 426.25,-110.08 429.75,-100.08 422.75,-100.08"/>
</g>
<!-- Node9 -->
<g id="node9" class="node">
<title>Node9</title>
<g id="a_node9"><a xlink:href="SceneMain_8h.html" target="_top" xlink:title=" ">
<polygon fill="white" stroke="#666666" points="875.25,-76 751.25,-76 751.25,-56 875.25,-56 875.25,-76"/>
<text text-anchor="middle" x="813.25" y="-62.5" font-family="Helvetica,sans-Serif" font-size="10.00">src/scenes/SceneMain.h</text>
</a>
</g>
</g>
<!-- Node7&#45;&gt;Node9 -->
<g id="edge8" class="edge">
<title>Node7&#45;&gt;Node9</title>
<path fill="none" stroke="#63b8ff" d="M505.46,-109.95C578.08,-99.81 684.17,-85.01 750.92,-75.7"/>
<polygon fill="#63b8ff" stroke="#63b8ff" points="505.02,-106.47 495.6,-111.32 505.99,-113.41 505.02,-106.47"/>
</g>
<!-- Node10 -->
<g id="node10" class="node">
<title>Node10</title>
<g id="a_node10"><a xlink:href="SceneMain_8cpp.html" target="_top" xlink:title=" ">
<polygon fill="white" stroke="#666666" points="869.5,-20 735,-20 735,0 869.5,0 869.5,-20"/>
<text text-anchor="middle" x="802.25" y="-6.5" font-family="Helvetica,sans-Serif" font-size="10.00">src/scenes/SceneMain.cpp</text>
</a>
</g>
</g>
<!-- Node9&#45;&gt;Node10 -->
<g id="edge9" class="edge">
<title>Node9&#45;&gt;Node10</title>
<path fill="none" stroke="#63b8ff" d="M809.06,-44.43C807.36,-36.11 805.5,-26.93 804.14,-20.3"/>
<polygon fill="#63b8ff" stroke="#63b8ff" points="805.61,-45.01 811.03,-54.11 812.47,-43.61 805.61,-45.01"/>
</g>
<!-- Node11 -->
<g id="node11" class="node">
<title>Node11</title>
<g id="a_node11"><a xlink:href="SceneMenu_8cpp.html" target="_top" xlink:title=" ">
<polygon fill="white" stroke="#666666" points="1025,-20 887.5,-20 887.5,0 1025,0 1025,-20"/>
<text text-anchor="middle" x="956.25" y="-6.5" font-family="Helvetica,sans-Serif" font-size="10.00">src/scenes/SceneMenu.cpp</text>
</a>
</g>
</g>
<!-- Node9&#45;&gt;Node11 -->
<g id="edge10" class="edge">
<title>Node9&#45;&gt;Node11</title>
<path fill="none" stroke="#63b8ff" d="M848.91,-51.53C874.51,-41.87 908.36,-29.08 931.15,-20.48"/>
<polygon fill="#63b8ff" stroke="#63b8ff" points="847.69,-48.25 839.57,-55.06 850.17,-54.8 847.69,-48.25"/>
</g>
<!-- Node13&#45;&gt;Node4 -->
<g id="edge14" class="edge">
<title>Node13&#45;&gt;Node4</title>
<path fill="none" stroke="#63b8ff" d="M598.92,-286.47C581.16,-277.36 558.29,-265.64 540.23,-256.37"/>
<polygon fill="#63b8ff" stroke="#63b8ff" points="597.13,-289.49 607.62,-290.93 600.32,-283.26 597.13,-289.49"/>
</g>
<!-- Node13&#45;&gt;Node5 -->
<g id="edge16" class="edge">
<title>Node13&#45;&gt;Node5</title>
<path fill="none" stroke="#63b8ff" d="M699.62,-289.14C750.62,-277.68 805.25,-257.11 777.25,-224 752.7,-194.97 652.58,-184.66 582.19,-181"/>
<polygon fill="#63b8ff" stroke="#63b8ff" points="699.01,-285.69 689.96,-291.2 700.47,-292.54 699.01,-285.69"/>
</g>
<!-- Node14 -->
<g id="node14" class="node">
<title>Node14</title>
<g id="a_node14"><a xlink:href="ManagerSystem_8cpp.html" target="_top" xlink:title=" ">
<polygon fill="white" stroke="#666666" points="768.38,-250 600.12,-250 600.12,-230 768.38,-230 768.38,-250"/>
<text text-anchor="middle" x="684.25" y="-236.5" font-family="Helvetica,sans-Serif" font-size="10.00">src/managers/ManagerSystem.cpp</text>
</a>
</g>
</g>
<!-- Node13&#45;&gt;Node14 -->
<g id="edge15" class="edge">
<title>Node13&#45;&gt;Node14</title>
<path fill="none" stroke="#63b8ff" d="M643.8,-283.58C654.2,-272.63 667.18,-258.97 675.59,-250.11"/>
<polygon fill="#63b8ff" stroke="#63b8ff" points="641.55,-280.87 637.2,-290.53 646.62,-285.69 641.55,-280.87"/>
</g>
<!-- Node15&#45;&gt;Node11 -->
<g id="edge19" class="edge">
<title>Node15&#45;&gt;Node11</title>
<path fill="none" stroke="#63b8ff" d="M1002.8,-106.68C989.29,-99.45 975.04,-89.34 966.25,-76 954.95,-58.84 954.59,-33.67 955.38,-20.25"/>
<polygon fill="#63b8ff" stroke="#63b8ff" points="1001.01,-109.7 1011.53,-110.97 1004.11,-103.42 1001.01,-109.7"/>
</g>
<!-- Node16 -->
<g id="node16" class="node">
<title>Node16</title>
<g id="a_node16"><a xlink:href="SceneApprenticeship_8cpp.html" target="_top" xlink:title=" ">
<polygon fill="white" stroke="#666666" points="1298.25,-76 1120.25,-76 1120.25,-56 1298.25,-56 1298.25,-76"/>
<text text-anchor="middle" x="1209.25" y="-62.5" font-family="Helvetica,sans-Serif" font-size="10.00">src/scenes/SceneApprenticeship.cpp</text>
</a>
</g>
</g>
<!-- Node15&#45;&gt;Node16 -->
<g id="edge18" class="edge">
<title>Node15&#45;&gt;Node16</title>
<path fill="none" stroke="#63b8ff" d="M1078.85,-108.18C1109.68,-98.44 1151.37,-85.28 1179.23,-76.48"/>
<polygon fill="#63b8ff" stroke="#63b8ff" points="1077.96,-104.79 1069.48,-111.14 1080.07,-111.46 1077.96,-104.79"/>
</g>
<!-- Node17 -->
<g id="node17" class="node">
<title>Node17</title>
<g id="a_node17"><a xlink:href="SceneMenu_8h.html" target="_top" xlink:title=" ">
<polygon fill="white" stroke="#666666" points="1101.75,-76 974.75,-76 974.75,-56 1101.75,-56 1101.75,-76"/>
<text text-anchor="middle" x="1038.25" y="-62.5" font-family="Helvetica,sans-Serif" font-size="10.00">src/scenes/SceneMenu.h</text>
</a>
</g>
</g>
<!-- Node15&#45;&gt;Node17 -->
<g id="edge20" class="edge">
<title>Node15&#45;&gt;Node17</title>
<path fill="none" stroke="#63b8ff" d="M1038.25,-100.13C1038.25,-91.9 1038.25,-82.85 1038.25,-76.3"/>
<polygon fill="#63b8ff" stroke="#63b8ff" points="1034.75,-100.08 1038.25,-110.08 1041.75,-100.08 1034.75,-100.08"/>
</g>
<!-- Node17&#45;&gt;Node11 -->
<g id="edge21" class="edge">
<title>Node17&#45;&gt;Node11</title>
<path fill="none" stroke="#63b8ff" d="M1014.36,-49.27C1000.2,-39.94 982.72,-28.43 970.64,-20.48"/>
<polygon fill="#63b8ff" stroke="#63b8ff" points="1012.43,-52.18 1022.7,-54.76 1016.28,-46.34 1012.43,-52.18"/>
</g>
<!-- Node18&#45;&gt;Node9 -->
<g id="edge24" class="edge">
<title>Node18&#45;&gt;Node9</title>
<path fill="none" stroke="#63b8ff" d="M832.39,-280.29C828.01,-231.48 817.18,-110.79 814.09,-76.32"/>
<polygon fill="#63b8ff" stroke="#63b8ff" points="828.89,-280.38 833.27,-290.03 835.86,-279.76 828.89,-280.38"/>
</g>
<!-- Node19 -->
<g id="node19" class="node">
<title>Node19</title>
<g id="a_node19"><a xlink:href="SceneCombat_8cpp.html" target="_top" xlink:title=" ">
<polygon fill="white" stroke="#666666" points="1010.25,-250 862.25,-250 862.25,-230 1010.25,-230 1010.25,-250"/>
<text text-anchor="middle" x="936.25" y="-236.5" font-family="Helvetica,sans-Serif" font-size="10.00">src/scenes/SceneCombat.cpp</text>
</a>
</g>
</g>
<!-- Node18&#45;&gt;Node19 -->
<g id="edge23" class="edge">
<title>Node18&#45;&gt;Node19</title>
<path fill="none" stroke="#63b8ff" d="M860.01,-285.85C879.02,-274.66 904.3,-259.8 920.42,-250.31"/>
<polygon fill="#63b8ff" stroke="#63b8ff" points="858.34,-282.77 851.49,-290.86 861.89,-288.8 858.34,-282.77"/>
</g>
</g>
</svg>
