<?xml version="1.0" encoding="UTF-8" standalone="no"?>
<!DOCTYPE svg PUBLIC "-//W3C//DTD SVG 1.1//EN"
 "http://www.w3.org/Graphics/SVG/1.1/DTD/svg11.dtd">
<!-- Generated by graphviz version 12.2.1 (20241206.2353)
 -->
<!-- Title: src/managers/ManagerLexicon.h Pages: 1 -->
<svg width="2511pt" height="252pt"
 viewBox="0.00 0.00 2510.54 252.00" xmlns="http://www.w3.org/2000/svg" xmlns:xlink="http://www.w3.org/1999/xlink">
<g id="graph0" class="graph" transform="scale(1 1) rotate(0) translate(4 248)">
<title>src/managers/ManagerLexicon.h</title>
<!-- Node1 -->
<g id="node1" class="node">
<title>Node1</title>
<g id="a_node1"><a xlink:title=" ">
<polygon fill="#999999" stroke="#666666" points="1132.67,-244 974.92,-244 974.92,-224 1132.67,-224 1132.67,-244"/>
<text text-anchor="middle" x="1053.79" y="-230.5" font-family="Helvetica,sans-Serif" font-size="10.00">src/managers/ManagerLexicon.h</text>
</a>
</g>
</g>
<!-- Node2 -->
<g id="node2" class="node">
<title>Node2</title>
<g id="a_node2"><a xlink:href="ManagerEntity_8h.html" target="_top" xlink:title=" ">
<polygon fill="white" stroke="#666666" points="155.67,-188 69.92,-188 69.92,-168 155.67,-168 155.67,-188"/>
<text text-anchor="middle" x="112.79" y="-174.5" font-family="Helvetica,sans-Serif" font-size="10.00">ManagerEntity.h</text>
</a>
</g>
</g>
<!-- Node1&#45;&gt;Node2 -->
<g id="edge1" class="edge">
<title>Node1&#45;&gt;Node2</title>
<path fill="none" stroke="#63b8ff" d="M974.78,-228.47C788.65,-217.78 326.38,-191.26 167.47,-182.14"/>
<polygon fill="#63b8ff" stroke="#63b8ff" points="167.81,-178.65 157.63,-181.57 167.41,-185.64 167.81,-178.65"/>
</g>
<!-- Node5 -->
<g id="node5" class="node">
<title>Node5</title>
<g id="a_node5"><a xlink:title=" ">
<polygon fill="#e0e0e0" stroke="#999999" points="61.79,-20 21.79,-20 21.79,0 61.79,0 61.79,-20"/>
<text text-anchor="middle" x="41.79" y="-6.5" font-family="Helvetica,sans-Serif" font-size="10.00">string</text>
</a>
</g>
</g>
<!-- Node1&#45;&gt;Node5 -->
<g id="edge14" class="edge">
<title>Node1&#45;&gt;Node5</title>
<path fill="none" stroke="#63b8ff" d="M974.8,-232.69C754.4,-231.37 143.39,-224.43 60.79,-188 28.59,-173.8 18.26,-164.52 4.79,-132 0.02,-120.47 -3.61,-84.63 6.79,-56 10.44,-45.95 17.25,-36.36 23.89,-28.64"/>
<polygon fill="#63b8ff" stroke="#63b8ff" points="26.42,-31.06 30.67,-21.35 21.3,-26.3 26.42,-31.06"/>
</g>
<!-- Node8 -->
<g id="node8" class="node">
<title>Node8</title>
<g id="a_node8"><a xlink:title=" ">
<polygon fill="#e0e0e0" stroke="#999999" points="1267.42,-20 1216.17,-20 1216.17,0 1267.42,0 1267.42,-20"/>
<text text-anchor="middle" x="1241.79" y="-6.5" font-family="Helvetica,sans-Serif" font-size="10.00">memory</text>
</a>
</g>
</g>
<!-- Node1&#45;&gt;Node8 -->
<g id="edge17" class="edge">
<title>Node1&#45;&gt;Node8</title>
<path fill="none" stroke="#63b8ff" d="M1133.04,-233.06C1405.7,-232.47 2293.03,-223.47 2377.79,-132 2495.45,-5.03 2167.99,-73.73 1995.79,-56 1721.69,-27.78 1389.58,-15.57 1279.35,-12.1"/>
<polygon fill="#63b8ff" stroke="#63b8ff" points="1279.52,-8.6 1269.42,-11.79 1279.3,-15.6 1279.52,-8.6"/>
</g>
<!-- Node10 -->
<g id="node10" class="node">
<title>Node10</title>
<g id="a_node10"><a xlink:title=" ">
<polygon fill="#e0e0e0" stroke="#999999" points="134.29,-132 91.29,-132 91.29,-112 134.29,-112 134.29,-132"/>
<text text-anchor="middle" x="112.79" y="-118.5" font-family="Helvetica,sans-Serif" font-size="10.00">vector</text>
</a>
</g>
</g>
<!-- Node1&#45;&gt;Node10 -->
<g id="edge16" class="edge">
<title>Node1&#45;&gt;Node10</title>
<path fill="none" stroke="#63b8ff" d="M974.82,-229.42C861.4,-223.72 645.99,-210.84 463.79,-188 324.17,-170.5 286.34,-164.9 145.92,-132.29"/>
<polygon fill="#63b8ff" stroke="#63b8ff" points="146.74,-128.89 136.2,-130.03 145.15,-135.71 146.74,-128.89"/>
</g>
<!-- Node11 -->
<g id="node11" class="node">
<title>Node11</title>
<g id="a_node11"><a xlink:title=" ">
<polygon fill="#e0e0e0" stroke="#999999" points="187.17,-132 152.42,-132 152.42,-112 187.17,-112 187.17,-132"/>
<text text-anchor="middle" x="169.79" y="-118.5" font-family="Helvetica,sans-Serif" font-size="10.00">map</text>
</a>
</g>
</g>
<!-- Node1&#45;&gt;Node11 -->
<g id="edge15" class="edge">
<title>Node1&#45;&gt;Node11</title>
<path fill="none" stroke="#63b8ff" d="M974.63,-225.31C792.5,-207.35 348.13,-161.9 200.79,-132 199.97,-131.83 199.13,-131.65 198.3,-131.47"/>
<polygon fill="#63b8ff" stroke="#63b8ff" points="199.39,-128.14 188.84,-129.03 197.65,-134.91 199.39,-128.14"/>
</g>
<!-- Node12 -->
<g id="node12" class="node">
<title>Node12</title>
<g id="a_node12"><a xlink:title=" ">
<polygon fill="#e0e0e0" stroke="#999999" points="1287.92,-188 1239.67,-188 1239.67,-168 1287.92,-168 1287.92,-188"/>
<text text-anchor="middle" x="1263.79" y="-174.5" font-family="Helvetica,sans-Serif" font-size="10.00">random</text>
</a>
</g>
</g>
<!-- Node1&#45;&gt;Node12 -->
<g id="edge18" class="edge">
<title>Node1&#45;&gt;Node12</title>
<path fill="none" stroke="#63b8ff" d="M1091.82,-223.53C1125.39,-215.13 1175.92,-202.38 1228.42,-188.59"/>
<polygon fill="#63b8ff" stroke="#63b8ff" points="1229.05,-192.05 1237.83,-186.12 1227.27,-185.28 1229.05,-192.05"/>
</g>
<!-- Node13 -->
<g id="node13" class="node">
<title>Node13</title>
<g id="a_node13"><a xlink:href="json_8hpp.html" target="_top" xlink:title=" ">
<polygon fill="white" stroke="#666666" points="1221.67,-188 1123.92,-188 1123.92,-168 1221.67,-168 1221.67,-188"/>
<text text-anchor="middle" x="1172.79" y="-174.5" font-family="Helvetica,sans-Serif" font-size="10.00">nlohmann/json.hpp</text>
</a>
</g>
</g>
<!-- Node1&#45;&gt;Node13 -->
<g id="edge19" class="edge">
<title>Node1&#45;&gt;Node13</title>
<path fill="none" stroke="#63b8ff" d="M1074.52,-223.59C1093.01,-215.21 1120.34,-202.8 1141.49,-193.21"/>
<polygon fill="#63b8ff" stroke="#63b8ff" points="1142.86,-196.42 1150.52,-189.1 1139.97,-190.05 1142.86,-196.42"/>
</g>
<!-- Node45 -->
<g id="node45" class="node">
<title>Node45</title>
<g id="a_node45"><a xlink:title=" ">
<polygon fill="#e0e0e0" stroke="#999999" points="2502.54,-188 2425.04,-188 2425.04,-168 2502.54,-168 2502.54,-188"/>
<text text-anchor="middle" x="2463.79" y="-174.5" font-family="Helvetica,sans-Serif" font-size="10.00">unordered_set</text>
</a>
</g>
</g>
<!-- Node1&#45;&gt;Node45 -->
<g id="edge55" class="edge">
<title>Node1&#45;&gt;Node45</title>
<path fill="none" stroke="#63b8ff" d="M1132.88,-231.78C1383.83,-227.7 2160.44,-213.29 2410.79,-188 2411.79,-187.9 2412.79,-187.79 2413.8,-187.68"/>
<polygon fill="#63b8ff" stroke="#63b8ff" points="2413.84,-191.2 2423.3,-186.43 2412.93,-184.26 2413.84,-191.2"/>
</g>
<!-- Node3 -->
<g id="node3" class="node">
<title>Node3</title>
<g id="a_node3"><a xlink:href="Entity_8h.html" target="_top" xlink:title=" ">
<polygon fill="white" stroke="#666666" points="72.92,-132 24.67,-132 24.67,-112 72.92,-112 72.92,-132"/>
<text text-anchor="middle" x="48.79" y="-118.5" font-family="Helvetica,sans-Serif" font-size="10.00">Entity.h</text>
</a>
</g>
</g>
<!-- Node2&#45;&gt;Node3 -->
<g id="edge2" class="edge">
<title>Node2&#45;&gt;Node3</title>
<path fill="none" stroke="#63b8ff" d="M101.64,-167.59C92.47,-159.85 79.24,-148.69 68.31,-139.47"/>
<polygon fill="#63b8ff" stroke="#63b8ff" points="70.87,-137.05 60.97,-133.27 66.36,-142.4 70.87,-137.05"/>
</g>
<!-- Node2&#45;&gt;Node5 -->
<g id="edge12" class="edge">
<title>Node2&#45;&gt;Node5</title>
<path fill="none" stroke="#63b8ff" d="M69.65,-168.21C49.66,-161.75 27.73,-150.7 15.79,-132 -4.45,-100.29 15.16,-55.35 29.58,-30.12"/>
<polygon fill="#63b8ff" stroke="#63b8ff" points="32.54,-31.98 34.71,-21.61 26.55,-28.37 32.54,-31.98"/>
</g>
<!-- Node2&#45;&gt;Node10 -->
<g id="edge11" class="edge">
<title>Node2&#45;&gt;Node10</title>
<path fill="none" stroke="#63b8ff" d="M112.79,-167.59C112.79,-161.01 112.79,-151.96 112.79,-143.73"/>
<polygon fill="#63b8ff" stroke="#63b8ff" points="116.29,-143.81 112.79,-133.81 109.29,-143.81 116.29,-143.81"/>
</g>
<!-- Node2&#45;&gt;Node11 -->
<g id="edge13" class="edge">
<title>Node2&#45;&gt;Node11</title>
<path fill="none" stroke="#63b8ff" d="M122.72,-167.59C130.73,-160.01 142.21,-149.13 151.82,-140.02"/>
<polygon fill="#63b8ff" stroke="#63b8ff" points="154.03,-142.76 158.88,-133.34 149.21,-137.68 154.03,-142.76"/>
</g>
<!-- Node4 -->
<g id="node4" class="node">
<title>Node4</title>
<g id="a_node4"><a xlink:href="Components_8h.html" target="_top" xlink:title=" ">
<polygon fill="white" stroke="#666666" points="322.67,-76 242.92,-76 242.92,-56 322.67,-56 322.67,-76"/>
<text text-anchor="middle" x="282.79" y="-62.5" font-family="Helvetica,sans-Serif" font-size="10.00">Components.h</text>
</a>
</g>
</g>
<!-- Node3&#45;&gt;Node4 -->
<g id="edge3" class="edge">
<title>Node3&#45;&gt;Node4</title>
<path fill="none" stroke="#63b8ff" d="M73.28,-114.4C76.47,-113.57 79.71,-112.75 82.79,-112 133.08,-99.69 190.81,-86.84 231.27,-78.04"/>
<polygon fill="#63b8ff" stroke="#63b8ff" points="231.96,-81.47 240.99,-75.93 230.47,-74.63 231.96,-81.47"/>
</g>
<!-- Node3&#45;&gt;Node5 -->
<g id="edge9" class="edge">
<title>Node3&#45;&gt;Node5</title>
<path fill="none" stroke="#63b8ff" d="M48.2,-111.62C47.07,-94.01 44.63,-55.59 43.11,-31.65"/>
<polygon fill="#63b8ff" stroke="#63b8ff" points="46.61,-31.62 42.48,-21.87 39.63,-32.07 46.61,-31.62"/>
</g>
<!-- Node3&#45;&gt;Node8 -->
<g id="edge8" class="edge">
<title>Node3&#45;&gt;Node8</title>
<path fill="none" stroke="#63b8ff" d="M73.2,-114C76.4,-113.24 79.66,-112.55 82.79,-112 306.6,-72.93 1032.08,-24.53 1204.69,-13.37"/>
<polygon fill="#63b8ff" stroke="#63b8ff" points="1204.66,-16.88 1214.41,-12.74 1204.21,-9.89 1204.66,-16.88"/>
</g>
<!-- Node9 -->
<g id="node9" class="node">
<title>Node9</title>
<g id="a_node9"><a xlink:title=" ">
<polygon fill="#e0e0e0" stroke="#999999" points="119.67,-76 69.92,-76 69.92,-56 119.67,-56 119.67,-76"/>
<text text-anchor="middle" x="94.79" y="-62.5" font-family="Helvetica,sans-Serif" font-size="10.00">optional</text>
</a>
</g>
</g>
<!-- Node3&#45;&gt;Node9 -->
<g id="edge10" class="edge">
<title>Node3&#45;&gt;Node9</title>
<path fill="none" stroke="#63b8ff" d="M56.8,-111.59C63.07,-104.24 71.97,-93.8 79.57,-84.87"/>
<polygon fill="#63b8ff" stroke="#63b8ff" points="82.07,-87.33 85.89,-77.45 76.74,-82.79 82.07,-87.33"/>
</g>
<!-- Node4&#45;&gt;Node5 -->
<g id="edge4" class="edge">
<title>Node4&#45;&gt;Node5</title>
<path fill="none" stroke="#63b8ff" d="M242.45,-55.96C194.83,-45.29 116.63,-27.77 73.25,-18.05"/>
<polygon fill="#63b8ff" stroke="#63b8ff" points="74.25,-14.69 63.73,-15.92 72.72,-21.52 74.25,-14.69"/>
</g>
<!-- Node6 -->
<g id="node6" class="node">
<title>Node6</title>
<g id="a_node6"><a xlink:title=" ">
<polygon fill="#e0e0e0" stroke="#999999" points="380.29,-20 277.29,-20 277.29,0 380.29,0 380.29,-20"/>
<text text-anchor="middle" x="328.79" y="-6.5" font-family="Helvetica,sans-Serif" font-size="10.00">SFML/Graphics.hpp</text>
</a>
</g>
</g>
<!-- Node4&#45;&gt;Node6 -->
<g id="edge5" class="edge">
<title>Node4&#45;&gt;Node6</title>
<path fill="none" stroke="#63b8ff" d="M290.8,-55.59C297.07,-48.24 305.97,-37.8 313.57,-28.87"/>
<polygon fill="#63b8ff" stroke="#63b8ff" points="316.07,-31.33 319.89,-21.45 310.74,-26.79 316.07,-31.33"/>
</g>
<!-- Node7 -->
<g id="node7" class="node">
<title>Node7</title>
<g id="a_node7"><a xlink:title=" ">
<polygon fill="#e0e0e0" stroke="#999999" points="259.17,-20 212.42,-20 212.42,0 259.17,0 259.17,-20"/>
<text text-anchor="middle" x="235.79" y="-6.5" font-family="Helvetica,sans-Serif" font-size="10.00">Vec2.h</text>
</a>
</g>
</g>
<!-- Node4&#45;&gt;Node7 -->
<g id="edge6" class="edge">
<title>Node4&#45;&gt;Node7</title>
<path fill="none" stroke="#63b8ff" d="M274.61,-55.59C268.2,-48.24 259.11,-37.8 251.34,-28.87"/>
<polygon fill="#63b8ff" stroke="#63b8ff" points="254.08,-26.69 244.88,-21.44 248.8,-31.28 254.08,-26.69"/>
</g>
<!-- Node4&#45;&gt;Node8 -->
<g id="edge7" class="edge">
<title>Node4&#45;&gt;Node8</title>
<path fill="none" stroke="#63b8ff" d="M323.08,-62.73C480.4,-53.87 1052.05,-21.68 1204.32,-13.11"/>
<polygon fill="#63b8ff" stroke="#63b8ff" points="1204.45,-16.61 1214.24,-12.55 1204.05,-9.62 1204.45,-16.61"/>
</g>
<!-- Node13&#45;&gt;Node5 -->
<g id="edge27" class="edge">
<title>Node13&#45;&gt;Node5</title>
<path fill="none" stroke="#63b8ff" d="M1123.66,-176.28C942.49,-173.42 317.92,-161.5 233.79,-132 206.61,-122.47 153.32,-71.1 128.79,-56 110.45,-44.7 88.95,-33.57 71.91,-25.2"/>
<polygon fill="#63b8ff" stroke="#63b8ff" points="73.84,-22.24 63.31,-21.03 70.78,-28.54 73.84,-22.24"/>
</g>
<!-- Node13&#45;&gt;Node8 -->
<g id="edge26" class="edge">
<title>Node13&#45;&gt;Node8</title>
<path fill="none" stroke="#63b8ff" d="M1222.11,-168.97C1225.04,-168.61 1227.95,-168.28 1230.79,-168 1275.23,-163.57 2002.93,-164.28 2033.79,-132 2141.87,-18.97 1449.09,-11.15 1278.91,-10.92"/>
<polygon fill="#63b8ff" stroke="#63b8ff" points="1279.09,-7.42 1269.09,-10.91 1279.09,-14.42 1279.09,-7.42"/>
</g>
<!-- Node13&#45;&gt;Node10 -->
<g id="edge29" class="edge">
<title>Node13&#45;&gt;Node10</title>
<path fill="none" stroke="#63b8ff" d="M1123.61,-176.4C948.89,-174.05 357.79,-163.99 145.96,-131.85"/>
<polygon fill="#63b8ff" stroke="#63b8ff" points="146.58,-128.4 136.15,-130.29 145.48,-135.31 146.58,-128.4"/>
</g>
<!-- Node13&#45;&gt;Node11 -->
<g id="edge32" class="edge">
<title>Node13&#45;&gt;Node11</title>
<path fill="none" stroke="#63b8ff" d="M1123.69,-176.26C952.31,-173.43 381.3,-161.95 200.79,-132 200.12,-131.89 199.44,-131.77 198.75,-131.64"/>
<polygon fill="#63b8ff" stroke="#63b8ff" points="199.67,-128.26 189.13,-129.32 198.03,-135.06 199.67,-128.26"/>
</g>
<!-- Node14 -->
<g id="node14" class="node">
<title>Node14</title>
<g id="a_node14"><a xlink:title=" ">
<polygon fill="#e0e0e0" stroke="#999999" points="2136.67,-132 2080.92,-132 2080.92,-112 2136.67,-112 2136.67,-132"/>
<text text-anchor="middle" x="2108.79" y="-118.5" font-family="Helvetica,sans-Serif" font-size="10.00">algorithm</text>
</a>
</g>
</g>
<!-- Node13&#45;&gt;Node14 -->
<g id="edge20" class="edge">
<title>Node13&#45;&gt;Node14</title>
<path fill="none" stroke="#63b8ff" d="M1222.11,-168.97C1225.04,-168.61 1227.95,-168.28 1230.79,-168 1600.89,-131.43 1697.89,-179.13 2066.79,-132 2067.62,-131.89 2068.46,-131.78 2069.31,-131.66"/>
<polygon fill="#63b8ff" stroke="#63b8ff" points="2069.68,-135.15 2078.95,-130.01 2068.5,-128.25 2069.68,-135.15"/>
</g>
<!-- Node15 -->
<g id="node15" class="node">
<title>Node15</title>
<g id="a_node15"><a xlink:title=" ">
<polygon fill="#e0e0e0" stroke="#999999" points="2202.92,-132 2154.67,-132 2154.67,-112 2202.92,-112 2202.92,-132"/>
<text text-anchor="middle" x="2178.79" y="-118.5" font-family="Helvetica,sans-Serif" font-size="10.00">cstddef</text>
</a>
</g>
</g>
<!-- Node13&#45;&gt;Node15 -->
<g id="edge21" class="edge">
<title>Node13&#45;&gt;Node15</title>
<path fill="none" stroke="#63b8ff" d="M1222.1,-168.95C1225.04,-168.6 1227.95,-168.28 1230.79,-168 1632.12,-129.1 1741.53,-192.74 2143.06,-132.05"/>
<polygon fill="#63b8ff" stroke="#63b8ff" points="2143.57,-135.51 2152.92,-130.54 2142.51,-128.59 2143.57,-135.51"/>
</g>
<!-- Node16 -->
<g id="node16" class="node">
<title>Node16</title>
<g id="a_node16"><a xlink:title=" ">
<polygon fill="#e0e0e0" stroke="#999999" points="2278.79,-132 2220.79,-132 2220.79,-112 2278.79,-112 2278.79,-132"/>
<text text-anchor="middle" x="2249.79" y="-118.5" font-family="Helvetica,sans-Serif" font-size="10.00">functional</text>
</a>
</g>
</g>
<!-- Node13&#45;&gt;Node16 -->
<g id="edge22" class="edge">
<title>Node13&#45;&gt;Node16</title>
<path fill="none" stroke="#63b8ff" d="M1222.1,-168.95C1225.04,-168.59 1227.95,-168.27 1230.79,-168 1661.39,-126.83 1777.47,-189.47 2209.21,-132.06"/>
<polygon fill="#63b8ff" stroke="#63b8ff" points="2209.5,-135.56 2218.94,-130.75 2208.56,-128.62 2209.5,-135.56"/>
</g>
<!-- Node17 -->
<g id="node17" class="node">
<title>Node17</title>
<g id="a_node17"><a xlink:title=" ">
<polygon fill="#e0e0e0" stroke="#999999" points="2368.92,-132 2296.67,-132 2296.67,-112 2368.92,-112 2368.92,-132"/>
<text text-anchor="middle" x="2332.79" y="-118.5" font-family="Helvetica,sans-Serif" font-size="10.00">initializer_list</text>
</a>
</g>
</g>
<!-- Node13&#45;&gt;Node17 -->
<g id="edge23" class="edge">
<title>Node13&#45;&gt;Node17</title>
<path fill="none" stroke="#63b8ff" d="M1222.1,-168.94C1225.04,-168.58 1227.95,-168.27 1230.79,-168 1695,-124.24 1818.9,-185.27 2285.1,-132.1"/>
<polygon fill="#63b8ff" stroke="#63b8ff" points="2285.49,-135.58 2295.02,-130.96 2284.69,-128.63 2285.49,-135.58"/>
</g>
<!-- Node18 -->
<g id="node18" class="node">
<title>Node18</title>
<g id="a_node18"><a xlink:title=" ">
<polygon fill="#e0e0e0" stroke="#999999" points="287.04,-132 242.54,-132 242.54,-112 287.04,-112 287.04,-132"/>
<text text-anchor="middle" x="264.79" y="-118.5" font-family="Helvetica,sans-Serif" font-size="10.00">iosfwd</text>
</a>
</g>
</g>
<!-- Node13&#45;&gt;Node18 -->
<g id="edge24" class="edge">
<title>Node13&#45;&gt;Node18</title>
<path fill="none" stroke="#63b8ff" d="M1123.55,-175.97C966.55,-172.46 478.04,-159.7 298.46,-132"/>
<polygon fill="#63b8ff" stroke="#63b8ff" points="299.26,-128.59 288.83,-130.44 298.14,-135.5 299.26,-128.59"/>
</g>
<!-- Node19 -->
<g id="node19" class="node">
<title>Node19</title>
<g id="a_node19"><a xlink:title=" ">
<polygon fill="#e0e0e0" stroke="#999999" points="350.79,-132 304.79,-132 304.79,-112 350.79,-112 350.79,-132"/>
<text text-anchor="middle" x="327.79" y="-118.5" font-family="Helvetica,sans-Serif" font-size="10.00">iterator</text>
</a>
</g>
</g>
<!-- Node13&#45;&gt;Node19 -->
<g id="edge25" class="edge">
<title>Node13&#45;&gt;Node19</title>
<path fill="none" stroke="#63b8ff" d="M1123.45,-175.68C974.3,-171.49 528.68,-157.3 362.11,-131.95"/>
<polygon fill="#63b8ff" stroke="#63b8ff" points="363,-128.55 352.57,-130.42 361.89,-135.46 363,-128.55"/>
</g>
<!-- Node20 -->
<g id="node20" class="node">
<title>Node20</title>
<g id="a_node20"><a xlink:title=" ">
<polygon fill="#e0e0e0" stroke="#999999" points="408.42,-132 369.17,-132 369.17,-112 408.42,-112 408.42,-132"/>
<text text-anchor="middle" x="388.79" y="-118.5" font-family="Helvetica,sans-Serif" font-size="10.00">utility</text>
</a>
</g>
</g>
<!-- Node13&#45;&gt;Node20 -->
<g id="edge28" class="edge">
<title>Node13&#45;&gt;Node20</title>
<path fill="none" stroke="#63b8ff" d="M1123.64,-175.62C982.15,-171.41 574.64,-157.53 419.75,-131.79"/>
<polygon fill="#63b8ff" stroke="#63b8ff" points="420.55,-128.38 410.09,-130.1 419.34,-135.28 420.55,-128.38"/>
</g>
<!-- Node21 -->
<g id="node21" class="node">
<title>Node21</title>
<g id="a_node21"><a xlink:title=" ">
<polygon fill="#e0e0e0" stroke="#999999" points="464.67,-132 426.92,-132 426.92,-112 464.67,-112 464.67,-132"/>
<text text-anchor="middle" x="445.79" y="-118.5" font-family="Helvetica,sans-Serif" font-size="10.00">array</text>
</a>
</g>
</g>
<!-- Node13&#45;&gt;Node21 -->
<g id="edge30" class="edge">
<title>Node13&#45;&gt;Node21</title>
<path fill="none" stroke="#63b8ff" d="M1123.88,-175.42C990.08,-170.86 619.06,-156.52 476.02,-131.86"/>
<polygon fill="#63b8ff" stroke="#63b8ff" points="476.86,-128.45 466.4,-130.1 475.61,-135.34 476.86,-128.45"/>
</g>
<!-- Node22 -->
<g id="node22" class="node">
<title>Node22</title>
<g id="a_node22"><a xlink:title=" ">
<polygon fill="#e0e0e0" stroke="#999999" points="548.92,-132 482.67,-132 482.67,-112 548.92,-112 548.92,-132"/>
<text text-anchor="middle" x="515.79" y="-118.5" font-family="Helvetica,sans-Serif" font-size="10.00">forward_list</text>
</a>
</g>
</g>
<!-- Node13&#45;&gt;Node22 -->
<g id="edge31" class="edge">
<title>Node13&#45;&gt;Node22</title>
<path fill="none" stroke="#63b8ff" d="M1123.61,-175.62C1020.92,-172.25 776.12,-161.73 560.28,-131.99"/>
<polygon fill="#63b8ff" stroke="#63b8ff" points="560.94,-128.54 550.55,-130.63 559.97,-135.48 560.94,-128.54"/>
</g>
<!-- Node23 -->
<g id="node23" class="node">
<title>Node23</title>
<g id="a_node23"><a xlink:title=" ">
<polygon fill="#e0e0e0" stroke="#999999" points="604.29,-132 567.29,-132 567.29,-112 604.29,-112 604.29,-132"/>
<text text-anchor="middle" x="585.79" y="-118.5" font-family="Helvetica,sans-Serif" font-size="10.00">tuple</text>
</a>
</g>
</g>
<!-- Node13&#45;&gt;Node23 -->
<g id="edge33" class="edge">
<title>Node13&#45;&gt;Node23</title>
<path fill="none" stroke="#63b8ff" d="M1123.55,-177.01C1027.23,-176.19 807.27,-170.11 615.64,-132.13"/>
<polygon fill="#63b8ff" stroke="#63b8ff" points="616.5,-128.73 606,-130.18 615.11,-135.6 616.5,-128.73"/>
</g>
<!-- Node24 -->
<g id="node24" class="node">
<title>Node24</title>
<g id="a_node24"><a xlink:title=" ">
<polygon fill="#e0e0e0" stroke="#999999" points="683.67,-132 621.92,-132 621.92,-112 683.67,-112 683.67,-132"/>
<text text-anchor="middle" x="652.79" y="-118.5" font-family="Helvetica,sans-Serif" font-size="10.00">type_traits</text>
</a>
</g>
</g>
<!-- Node13&#45;&gt;Node24 -->
<g id="edge34" class="edge">
<title>Node13&#45;&gt;Node24</title>
<path fill="none" stroke="#63b8ff" d="M1123.47,-174.46C1038.16,-169.62 857.39,-157.36 695.3,-132.21"/>
<polygon fill="#63b8ff" stroke="#63b8ff" points="696.08,-128.79 685.66,-130.69 694.99,-135.7 696.08,-128.79"/>
</g>
<!-- Node25 -->
<g id="node25" class="node">
<title>Node25</title>
<g id="a_node25"><a xlink:title=" ">
<polygon fill="#e0e0e0" stroke="#999999" points="784.17,-132 701.42,-132 701.42,-112 784.17,-112 784.17,-132"/>
<text text-anchor="middle" x="742.79" y="-118.5" font-family="Helvetica,sans-Serif" font-size="10.00">unordered_map</text>
</a>
</g>
</g>
<!-- Node13&#45;&gt;Node25 -->
<g id="edge35" class="edge">
<title>Node13&#45;&gt;Node25</title>
<path fill="none" stroke="#63b8ff" d="M1123.61,-172.06C1053.34,-164.8 919.9,-150.28 795.73,-132.21"/>
<polygon fill="#63b8ff" stroke="#63b8ff" points="796.41,-128.77 786.01,-130.78 795.39,-135.69 796.41,-128.77"/>
</g>
<!-- Node26 -->
<g id="node26" class="node">
<title>Node26</title>
<g id="a_node26"><a xlink:title=" ">
<polygon fill="#e0e0e0" stroke="#999999" points="853.04,-132 802.54,-132 802.54,-112 853.04,-112 853.04,-132"/>
<text text-anchor="middle" x="827.79" y="-118.5" font-family="Helvetica,sans-Serif" font-size="10.00">valarray</text>
</a>
</g>
</g>
<!-- Node13&#45;&gt;Node26 -->
<g id="edge36" class="edge">
<title>Node13&#45;&gt;Node26</title>
<path fill="none" stroke="#63b8ff" d="M1123.47,-171.64C1064.17,-164.8 961.45,-151.72 864.52,-132.36"/>
<polygon fill="#63b8ff" stroke="#63b8ff" points="865.32,-128.96 854.82,-130.4 863.93,-135.82 865.32,-128.96"/>
</g>
<!-- Node27 -->
<g id="node27" class="node">
<title>Node27</title>
<g id="a_node27"><a xlink:title=" ">
<polygon fill="#e0e0e0" stroke="#999999" points="928.79,-132 870.79,-132 870.79,-112 928.79,-112 928.79,-132"/>
<text text-anchor="middle" x="899.79" y="-118.5" font-family="Helvetica,sans-Serif" font-size="10.00">exception</text>
</a>
</g>
</g>
<!-- Node13&#45;&gt;Node27 -->
<g id="edge37" class="edge">
<title>Node13&#45;&gt;Node27</title>
<path fill="none" stroke="#63b8ff" d="M1123.61,-168.22C1078.39,-160.01 1009.24,-147.09 940.28,-132.46"/>
<polygon fill="#63b8ff" stroke="#63b8ff" points="941.21,-129.08 930.7,-130.42 939.75,-135.93 941.21,-129.08"/>
</g>
<!-- Node28 -->
<g id="node28" class="node">
<title>Node28</title>
<g id="a_node28"><a xlink:title=" ">
<polygon fill="#e0e0e0" stroke="#999999" points="1005.17,-132 946.42,-132 946.42,-112 1005.17,-112 1005.17,-132"/>
<text text-anchor="middle" x="975.79" y="-118.5" font-family="Helvetica,sans-Serif" font-size="10.00">stdexcept</text>
</a>
</g>
</g>
<!-- Node13&#45;&gt;Node28 -->
<g id="edge38" class="edge">
<title>Node13&#45;&gt;Node28</title>
<path fill="none" stroke="#63b8ff" d="M1138.48,-167.59C1104.56,-158.3 1052.65,-144.07 1016.63,-134.19"/>
<polygon fill="#63b8ff" stroke="#63b8ff" points="1017.56,-130.82 1006.99,-131.55 1015.71,-137.57 1017.56,-130.82"/>
</g>
<!-- Node29 -->
<g id="node29" class="node">
<title>Node29</title>
<g id="a_node29"><a xlink:title=" ">
<polygon fill="#e0e0e0" stroke="#999999" points="1068.42,-132 1023.17,-132 1023.17,-112 1068.42,-112 1068.42,-132"/>
<text text-anchor="middle" x="1045.79" y="-118.5" font-family="Helvetica,sans-Serif" font-size="10.00">cstdint</text>
</a>
</g>
</g>
<!-- Node13&#45;&gt;Node29 -->
<g id="edge39" class="edge">
<title>Node13&#45;&gt;Node29</title>
<path fill="none" stroke="#63b8ff" d="M1150.67,-167.59C1130.76,-159.13 1101.24,-146.58 1078.58,-136.94"/>
<polygon fill="#63b8ff" stroke="#63b8ff" points="1080.05,-133.76 1069.48,-133.07 1077.31,-140.21 1080.05,-133.76"/>
</g>
<!-- Node30 -->
<g id="node30" class="node">
<title>Node30</title>
<g id="a_node30"><a xlink:title=" ">
<polygon fill="#e0e0e0" stroke="#999999" points="1131.04,-132 1086.54,-132 1086.54,-112 1131.04,-112 1131.04,-132"/>
<text text-anchor="middle" x="1108.79" y="-118.5" font-family="Helvetica,sans-Serif" font-size="10.00">cstdlib</text>
</a>
</g>
</g>
<!-- Node13&#45;&gt;Node30 -->
<g id="edge40" class="edge">
<title>Node13&#45;&gt;Node30</title>
<path fill="none" stroke="#63b8ff" d="M1161.64,-167.59C1152.47,-159.85 1139.24,-148.69 1128.31,-139.47"/>
<polygon fill="#63b8ff" stroke="#63b8ff" points="1130.87,-137.05 1120.97,-133.27 1126.36,-142.4 1130.87,-137.05"/>
</g>
<!-- Node31 -->
<g id="node31" class="node">
<title>Node31</title>
<g id="a_node31"><a xlink:title=" ">
<polygon fill="#e0e0e0" stroke="#999999" points="1196.92,-132 1148.67,-132 1148.67,-112 1196.92,-112 1196.92,-132"/>
<text text-anchor="middle" x="1172.79" y="-118.5" font-family="Helvetica,sans-Serif" font-size="10.00">cassert</text>
</a>
</g>
</g>
<!-- Node13&#45;&gt;Node31 -->
<g id="edge41" class="edge">
<title>Node13&#45;&gt;Node31</title>
<path fill="none" stroke="#63b8ff" d="M1172.79,-167.59C1172.79,-161.01 1172.79,-151.96 1172.79,-143.73"/>
<polygon fill="#63b8ff" stroke="#63b8ff" points="1176.29,-143.81 1172.79,-133.81 1169.29,-143.81 1176.29,-143.81"/>
</g>
<!-- Node32 -->
<g id="node32" class="node">
<title>Node32</title>
<g id="a_node32"><a xlink:title=" ">
<polygon fill="#e0e0e0" stroke="#999999" points="1254.42,-132 1215.17,-132 1215.17,-112 1254.42,-112 1254.42,-132"/>
<text text-anchor="middle" x="1234.79" y="-118.5" font-family="Helvetica,sans-Serif" font-size="10.00">limits</text>
</a>
</g>
</g>
<!-- Node13&#45;&gt;Node32 -->
<g id="edge42" class="edge">
<title>Node13&#45;&gt;Node32</title>
<path fill="none" stroke="#63b8ff" d="M1183.59,-167.59C1192.39,-159.93 1205.04,-148.91 1215.57,-139.75"/>
<polygon fill="#63b8ff" stroke="#63b8ff" points="1217.73,-142.5 1222.98,-133.29 1213.14,-137.22 1217.73,-142.5"/>
</g>
<!-- Node33 -->
<g id="node33" class="node">
<title>Node33</title>
<g id="a_node33"><a xlink:title=" ">
<polygon fill="#e0e0e0" stroke="#999999" points="1317.42,-132 1272.17,-132 1272.17,-112 1317.42,-112 1317.42,-132"/>
<text text-anchor="middle" x="1294.79" y="-118.5" font-family="Helvetica,sans-Serif" font-size="10.00">cstring</text>
</a>
</g>
</g>
<!-- Node13&#45;&gt;Node33 -->
<g id="edge43" class="edge">
<title>Node13&#45;&gt;Node33</title>
<path fill="none" stroke="#63b8ff" d="M1194.04,-167.59C1213.08,-159.17 1241.27,-146.69 1262.99,-137.07"/>
<polygon fill="#63b8ff" stroke="#63b8ff" points="1264.26,-140.34 1271.99,-133.09 1261.43,-133.94 1264.26,-140.34"/>
</g>
<!-- Node34 -->
<g id="node34" class="node">
<title>Node34</title>
<g id="a_node34"><a xlink:title=" ">
<polygon fill="#e0e0e0" stroke="#999999" points="1378.29,-132 1335.29,-132 1335.29,-112 1378.29,-112 1378.29,-132"/>
<text text-anchor="middle" x="1356.79" y="-118.5" font-family="Helvetica,sans-Serif" font-size="10.00">cmath</text>
</a>
</g>
</g>
<!-- Node13&#45;&gt;Node34 -->
<g id="edge44" class="edge">
<title>Node13&#45;&gt;Node34</title>
<path fill="none" stroke="#63b8ff" d="M1205.26,-167.59C1234.19,-159.18 1277.95,-146.43 1324.04,-132.8"/>
<polygon fill="#63b8ff" stroke="#63b8ff" points="1324.8,-136.23 1333.39,-130.03 1322.81,-129.52 1324.8,-136.23"/>
</g>
<!-- Node35 -->
<g id="node35" class="node">
<title>Node35</title>
<g id="a_node35"><a xlink:title=" ">
<polygon fill="#e0e0e0" stroke="#999999" points="1438.92,-132 1396.67,-132 1396.67,-112 1438.92,-112 1438.92,-132"/>
<text text-anchor="middle" x="1417.79" y="-118.5" font-family="Helvetica,sans-Serif" font-size="10.00">cstdio</text>
</a>
</g>
</g>
<!-- Node13&#45;&gt;Node35 -->
<g id="edge45" class="edge">
<title>Node13&#45;&gt;Node35</title>
<path fill="none" stroke="#63b8ff" d="M1222.17,-167.91C1263.44,-160.03 1324.08,-147.81 1385.21,-132.5"/>
<polygon fill="#63b8ff" stroke="#63b8ff" points="1385.92,-135.93 1394.76,-130.08 1384.2,-129.15 1385.92,-135.93"/>
</g>
<!-- Node36 -->
<g id="node36" class="node">
<title>Node36</title>
<g id="a_node36"><a xlink:title=" ">
<polygon fill="#e0e0e0" stroke="#999999" points="1507.04,-132 1456.54,-132 1456.54,-112 1507.04,-112 1507.04,-132"/>
<text text-anchor="middle" x="1481.79" y="-118.5" font-family="Helvetica,sans-Serif" font-size="10.00">numeric</text>
</a>
</g>
</g>
<!-- Node13&#45;&gt;Node36 -->
<g id="edge46" class="edge">
<title>Node13&#45;&gt;Node36</title>
<path fill="none" stroke="#63b8ff" d="M1222.14,-169.19C1288.28,-158.69 1401.65,-140.54 1444.97,-132.31"/>
<polygon fill="#63b8ff" stroke="#63b8ff" points="1445.64,-135.75 1454.75,-130.35 1444.26,-128.88 1445.64,-135.75"/>
</g>
<!-- Node37 -->
<g id="node37" class="node">
<title>Node37</title>
<g id="a_node37"><a xlink:title=" ">
<polygon fill="#e0e0e0" stroke="#999999" points="1584.54,-132 1525.04,-132 1525.04,-112 1584.54,-112 1584.54,-132"/>
<text text-anchor="middle" x="1554.79" y="-118.5" font-family="Helvetica,sans-Serif" font-size="10.00">streambuf</text>
</a>
</g>
</g>
<!-- Node13&#45;&gt;Node37 -->
<g id="edge47" class="edge">
<title>Node13&#45;&gt;Node37</title>
<path fill="none" stroke="#63b8ff" d="M1222.14,-169.25C1225.07,-168.82 1227.97,-168.4 1230.79,-168 1353.64,-150.71 1388.16,-154.16 1513.43,-132.26"/>
<polygon fill="#63b8ff" stroke="#63b8ff" points="1513.89,-135.73 1523.13,-130.54 1512.67,-128.84 1513.89,-135.73"/>
</g>
<!-- Node38 -->
<g id="node38" class="node">
<title>Node38</title>
<g id="a_node38"><a xlink:title=" ">
<polygon fill="#e0e0e0" stroke="#999999" points="1650.92,-132 1602.67,-132 1602.67,-112 1650.92,-112 1650.92,-132"/>
<text text-anchor="middle" x="1626.79" y="-118.5" font-family="Helvetica,sans-Serif" font-size="10.00">istream</text>
</a>
</g>
</g>
<!-- Node13&#45;&gt;Node38 -->
<g id="edge48" class="edge">
<title>Node13&#45;&gt;Node38</title>
<path fill="none" stroke="#63b8ff" d="M1222.13,-169.16C1225.06,-168.75 1227.96,-168.36 1230.79,-168 1388.01,-148.02 1432.38,-160.83 1591.25,-132.19"/>
<polygon fill="#63b8ff" stroke="#63b8ff" points="1591.7,-135.66 1600.9,-130.42 1590.43,-128.78 1591.7,-135.66"/>
</g>
<!-- Node39 -->
<g id="node39" class="node">
<title>Node39</title>
<g id="a_node39"><a xlink:title=" ">
<polygon fill="#e0e0e0" stroke="#999999" points="1716.17,-132 1669.42,-132 1669.42,-112 1716.17,-112 1716.17,-132"/>
<text text-anchor="middle" x="1692.79" y="-118.5" font-family="Helvetica,sans-Serif" font-size="10.00">clocale</text>
</a>
</g>
</g>
<!-- Node13&#45;&gt;Node39 -->
<g id="edge49" class="edge">
<title>Node13&#45;&gt;Node39</title>
<path fill="none" stroke="#63b8ff" d="M1222.12,-169.1C1225.05,-168.71 1227.96,-168.34 1230.79,-168 1417.16,-145.75 1469.4,-164.56 1657.98,-131.97"/>
<polygon fill="#63b8ff" stroke="#63b8ff" points="1658.38,-135.45 1667.63,-130.27 1657.17,-128.56 1658.38,-135.45"/>
</g>
<!-- Node40 -->
<g id="node40" class="node">
<title>Node40</title>
<g id="a_node40"><a xlink:title=" ">
<polygon fill="#e0e0e0" stroke="#999999" points="1779.42,-132 1734.17,-132 1734.17,-112 1779.42,-112 1779.42,-132"/>
<text text-anchor="middle" x="1756.79" y="-118.5" font-family="Helvetica,sans-Serif" font-size="10.00">cctype</text>
</a>
</g>
</g>
<!-- Node13&#45;&gt;Node40 -->
<g id="edge50" class="edge">
<title>Node13&#45;&gt;Node40</title>
<path fill="none" stroke="#63b8ff" d="M1222.12,-169.07C1225.05,-168.68 1227.96,-168.32 1230.79,-168 1445.89,-143.52 1505.97,-169.11 1722.73,-131.98"/>
<polygon fill="#63b8ff" stroke="#63b8ff" points="1723.11,-135.47 1732.36,-130.31 1721.9,-128.58 1723.11,-135.47"/>
</g>
<!-- Node41 -->
<g id="node41" class="node">
<title>Node41</title>
<g id="a_node41"><a xlink:title=" ">
<polygon fill="#e0e0e0" stroke="#999999" points="1840.29,-132 1797.29,-132 1797.29,-112 1840.29,-112 1840.29,-132"/>
<text text-anchor="middle" x="1818.79" y="-118.5" font-family="Helvetica,sans-Serif" font-size="10.00">cerrno</text>
</a>
</g>
</g>
<!-- Node13&#45;&gt;Node41 -->
<g id="edge51" class="edge">
<title>Node13&#45;&gt;Node41</title>
<path fill="none" stroke="#63b8ff" d="M1222.11,-169.04C1225.05,-168.66 1227.96,-168.31 1230.79,-168 1474.21,-141.32 1542.22,-174.97 1785.99,-132.13"/>
<polygon fill="#63b8ff" stroke="#63b8ff" points="1786.26,-135.64 1795.49,-130.44 1785.03,-128.75 1786.26,-135.64"/>
</g>
<!-- Node42 -->
<g id="node42" class="node">
<title>Node42</title>
<g id="a_node42"><a xlink:title=" ">
<polygon fill="#e0e0e0" stroke="#999999" points="1887.19,-132 1858.39,-132 1858.39,-112 1887.19,-112 1887.19,-132"/>
<text text-anchor="middle" x="1872.79" y="-118.5" font-family="Helvetica,sans-Serif" font-size="10.00">ios</text>
</a>
</g>
</g>
<!-- Node13&#45;&gt;Node42 -->
<g id="edge52" class="edge">
<title>Node13&#45;&gt;Node42</title>
<path fill="none" stroke="#63b8ff" d="M1222.11,-169.02C1225.04,-168.65 1227.96,-168.3 1230.79,-168 1501.21,-139.22 1578.56,-189.58 1847.05,-131.97"/>
<polygon fill="#63b8ff" stroke="#63b8ff" points="1847.41,-135.47 1856.43,-129.93 1845.91,-128.63 1847.41,-135.47"/>
</g>
<!-- Node43 -->
<g id="node43" class="node">
<title>Node43</title>
<g id="a_node43"><a xlink:title=" ">
<polygon fill="#e0e0e0" stroke="#999999" points="1956.42,-132 1905.17,-132 1905.17,-112 1956.42,-112 1956.42,-132"/>
<text text-anchor="middle" x="1930.79" y="-118.5" font-family="Helvetica,sans-Serif" font-size="10.00">ostream</text>
</a>
</g>
</g>
<!-- Node13&#45;&gt;Node43 -->
<g id="edge53" class="edge">
<title>Node13&#45;&gt;Node43</title>
<path fill="none" stroke="#63b8ff" d="M1222.11,-169C1225.04,-168.64 1227.95,-168.3 1230.79,-168 1521.59,-137.64 1601.32,-176.12 1893.97,-131.94"/>
<polygon fill="#63b8ff" stroke="#63b8ff" points="1894.07,-135.46 1903.42,-130.49 1893.01,-128.54 1894.07,-135.46"/>
</g>
<!-- Node44 -->
<g id="node44" class="node">
<title>Node44</title>
<g id="a_node44"><a xlink:title=" ">
<polygon fill="#e0e0e0" stroke="#999999" points="2024.67,-132 1974.92,-132 1974.92,-112 2024.67,-112 2024.67,-132"/>
<text text-anchor="middle" x="1999.79" y="-118.5" font-family="Helvetica,sans-Serif" font-size="10.00">iomanip</text>
</a>
</g>
</g>
<!-- Node13&#45;&gt;Node44 -->
<g id="edge54" class="edge">
<title>Node13&#45;&gt;Node44</title>
<path fill="none" stroke="#63b8ff" d="M1222.11,-168.99C1225.04,-168.62 1227.95,-168.29 1230.79,-168 1552.52,-135.25 1640.63,-181.07 1963.57,-131.99"/>
<polygon fill="#63b8ff" stroke="#63b8ff" points="1963.82,-135.49 1973.17,-130.51 1962.75,-128.57 1963.82,-135.49"/>
</g>
</g>
</svg>
