<?xml version="1.0" encoding="UTF-8" standalone="no"?>
<!DOCTYPE svg PUBLIC "-//W3C//DTD SVG 1.1//EN"
 "http://www.w3.org/Graphics/SVG/1.1/DTD/svg11.dtd">
<!-- Generated by graphviz version 12.2.1 (20241206.2353)
 -->
<!-- Title: src/managers/ManagerSentencing.h Pages: 1 -->
<svg width="181pt" height="84pt"
 viewBox="0.00 0.00 180.75 84.00" xmlns="http://www.w3.org/2000/svg" xmlns:xlink="http://www.w3.org/1999/xlink">
<g id="graph0" class="graph" transform="scale(1 1) rotate(0) translate(4 80)">
<title>src/managers/ManagerSentencing.h</title>
<!-- Node1 -->
<g id="node1" class="node">
<title>Node1</title>
<g id="a_node1"><a xlink:title=" ">
<polygon fill="#999999" stroke="#666666" points="172.75,-76 0,-76 0,-56 172.75,-56 172.75,-76"/>
<text text-anchor="middle" x="86.38" y="-62.5" font-family="Helvetica,sans-Serif" font-size="10.00">src/managers/ManagerSentencing.h</text>
</a>
</g>
</g>
<!-- Node2 -->
<g id="node2" class="node">
<title>Node2</title>
<g id="a_node2"><a xlink:title=" ">
<polygon fill="#e0e0e0" stroke="#999999" points="75.88,-20 32.88,-20 32.88,0 75.88,0 75.88,-20"/>
<text text-anchor="middle" x="54.38" y="-6.5" font-family="Helvetica,sans-Serif" font-size="10.00">vector</text>
</a>
</g>
</g>
<!-- Node1&#45;&gt;Node2 -->
<g id="edge1" class="edge">
<title>Node1&#45;&gt;Node2</title>
<path fill="none" stroke="#63b8ff" d="M80.8,-55.59C76.63,-48.55 70.77,-38.67 65.63,-30"/>
<polygon fill="#63b8ff" stroke="#63b8ff" points="68.77,-28.42 60.66,-21.6 62.74,-31.99 68.77,-28.42"/>
</g>
<!-- Node3 -->
<g id="node3" class="node">
<title>Node3</title>
<g id="a_node3"><a xlink:title=" ">
<polygon fill="#e0e0e0" stroke="#999999" points="145,-20 93.75,-20 93.75,0 145,0 145,-20"/>
<text text-anchor="middle" x="119.38" y="-6.5" font-family="Helvetica,sans-Serif" font-size="10.00">memory</text>
</a>
</g>
</g>
<!-- Node1&#45;&gt;Node3 -->
<g id="edge2" class="edge">
<title>Node1&#45;&gt;Node3</title>
<path fill="none" stroke="#63b8ff" d="M92.12,-55.59C96.43,-48.55 102.47,-38.67 107.76,-30"/>
<polygon fill="#63b8ff" stroke="#63b8ff" points="110.68,-31.95 112.9,-21.59 104.7,-28.3 110.68,-31.95"/>
</g>
</g>
</svg>
