<?xml version="1.0" encoding="UTF-8" standalone="no"?>
<!DOCTYPE svg PUBLIC "-//W3C//DTD SVG 1.1//EN"
 "http://www.w3.org/Graphics/SVG/1.1/DTD/svg11.dtd">
<!-- Generated by graphviz version 12.2.1 (20241206.2353)
 -->
<!-- Title: src/managers/ManagerLexicon.cpp Pages: 1 -->
<svg width="2666pt" height="308pt"
 viewBox="0.00 0.00 2665.51 308.00" xmlns="http://www.w3.org/2000/svg" xmlns:xlink="http://www.w3.org/1999/xlink">
<g id="graph0" class="graph" transform="scale(1 1) rotate(0) translate(4 304)">
<title>src/managers/ManagerLexicon.cpp</title>
<!-- Node1 -->
<g id="node1" class="node">
<title>Node1</title>
<g id="a_node1"><a xlink:title=" ">
<polygon fill="#999999" stroke="#666666" points="2549.89,-300 2381.64,-300 2381.64,-280 2549.89,-280 2549.89,-300"/>
<text text-anchor="middle" x="2465.76" y="-286.5" font-family="Helvetica,sans-Serif" font-size="10.00">src/managers/ManagerLexicon.cpp</text>
</a>
</g>
</g>
<!-- Node2 -->
<g id="node2" class="node">
<title>Node2</title>
<g id="a_node2"><a xlink:href="ManagerLexicon_8h.html" target="_top" xlink:title=" ">
<polygon fill="white" stroke="#666666" points="314.51,-244 219.01,-244 219.01,-224 314.51,-224 314.51,-244"/>
<text text-anchor="middle" x="266.76" y="-230.5" font-family="Helvetica,sans-Serif" font-size="10.00">ManagerLexicon.h</text>
</a>
</g>
</g>
<!-- Node1&#45;&gt;Node2 -->
<g id="edge1" class="edge">
<title>Node1&#45;&gt;Node2</title>
<path fill="none" stroke="#63b8ff" d="M2381.24,-286.92C2022.53,-278.12 630.61,-243.93 325.92,-236.45"/>
<polygon fill="#63b8ff" stroke="#63b8ff" points="326.3,-232.96 316.22,-236.21 326.13,-239.96 326.3,-232.96"/>
</g>
<!-- Node13 -->
<g id="node13" class="node">
<title>Node13</title>
<g id="a_node13"><a xlink:title=" ">
<polygon fill="#e0e0e0" stroke="#999999" points="2411.89,-188 2363.64,-188 2363.64,-168 2411.89,-168 2411.89,-188"/>
<text text-anchor="middle" x="2387.76" y="-174.5" font-family="Helvetica,sans-Serif" font-size="10.00">random</text>
</a>
</g>
</g>
<!-- Node1&#45;&gt;Node13 -->
<g id="edge61" class="edge">
<title>Node1&#45;&gt;Node13</title>
<path fill="none" stroke="#63b8ff" d="M2456.6,-279.81C2448.1,-271.02 2435.34,-257.2 2425.76,-244 2415.09,-229.29 2404.79,-211.38 2397.62,-198.09"/>
<polygon fill="#63b8ff" stroke="#63b8ff" points="2400.86,-196.73 2393.1,-189.52 2394.67,-200 2400.86,-196.73"/>
</g>
<!-- Node15 -->
<g id="node15" class="node">
<title>Node15</title>
<g id="a_node15"><a xlink:title=" ">
<polygon fill="#e0e0e0" stroke="#999999" points="2455.64,-132 2399.89,-132 2399.89,-112 2455.64,-112 2455.64,-132"/>
<text text-anchor="middle" x="2427.76" y="-118.5" font-family="Helvetica,sans-Serif" font-size="10.00">algorithm</text>
</a>
</g>
</g>
<!-- Node1&#45;&gt;Node15 -->
<g id="edge60" class="edge">
<title>Node1&#45;&gt;Node15</title>
<path fill="none" stroke="#63b8ff" d="M2463.61,-279.6C2457.63,-253.46 2440.69,-179.48 2432.42,-143.36"/>
<polygon fill="#63b8ff" stroke="#63b8ff" points="2435.87,-142.74 2430.23,-133.77 2429.05,-144.3 2435.87,-142.74"/>
</g>
<!-- Node47 -->
<g id="node47" class="node">
<title>Node47</title>
<g id="a_node47"><a xlink:title=" ">
<polygon fill="#e0e0e0" stroke="#999999" points="2517.26,-244 2468.26,-244 2468.26,-224 2517.26,-224 2517.26,-244"/>
<text text-anchor="middle" x="2492.76" y="-230.5" font-family="Helvetica,sans-Serif" font-size="10.00">fstream</text>
</a>
</g>
</g>
<!-- Node1&#45;&gt;Node47 -->
<g id="edge57" class="edge">
<title>Node1&#45;&gt;Node47</title>
<path fill="none" stroke="#63b8ff" d="M2470.47,-279.59C2473.91,-272.7 2478.71,-263.1 2482.98,-254.57"/>
<polygon fill="#63b8ff" stroke="#63b8ff" points="2486.09,-256.16 2487.44,-245.65 2479.83,-253.03 2486.09,-256.16"/>
</g>
<!-- Node48 -->
<g id="node48" class="node">
<title>Node48</title>
<g id="a_node48"><a xlink:title=" ">
<polygon fill="#e0e0e0" stroke="#999999" points="2586.39,-244 2535.14,-244 2535.14,-224 2586.39,-224 2586.39,-244"/>
<text text-anchor="middle" x="2560.76" y="-230.5" font-family="Helvetica,sans-Serif" font-size="10.00">sstream</text>
</a>
</g>
</g>
<!-- Node1&#45;&gt;Node48 -->
<g id="edge58" class="edge">
<title>Node1&#45;&gt;Node48</title>
<path fill="none" stroke="#63b8ff" d="M2482.31,-279.59C2496.66,-271.44 2517.69,-259.48 2534.36,-250"/>
<polygon fill="#63b8ff" stroke="#63b8ff" points="2535.81,-253.21 2542.77,-245.23 2532.35,-247.13 2535.81,-253.21"/>
</g>
<!-- Node49 -->
<g id="node49" class="node">
<title>Node49</title>
<g id="a_node49"><a xlink:title=" ">
<polygon fill="#e0e0e0" stroke="#999999" points="2657.51,-244 2604.01,-244 2604.01,-224 2657.51,-224 2657.51,-244"/>
<text text-anchor="middle" x="2630.76" y="-230.5" font-family="Helvetica,sans-Serif" font-size="10.00">iostream</text>
</a>
</g>
</g>
<!-- Node1&#45;&gt;Node49 -->
<g id="edge59" class="edge">
<title>Node1&#45;&gt;Node49</title>
<path fill="none" stroke="#63b8ff" d="M2494.5,-279.59C2521.77,-270.67 2562.9,-257.21 2592.84,-247.41"/>
<polygon fill="#63b8ff" stroke="#63b8ff" points="2593.86,-250.76 2602.28,-244.32 2591.69,-244.11 2593.86,-250.76"/>
</g>
<!-- Node3 -->
<g id="node3" class="node">
<title>Node3</title>
<g id="a_node3"><a xlink:href="ManagerEntity_8h.html" target="_top" xlink:title=" ">
<polygon fill="white" stroke="#666666" points="238.64,-188 152.89,-188 152.89,-168 238.64,-168 238.64,-188"/>
<text text-anchor="middle" x="195.76" y="-174.5" font-family="Helvetica,sans-Serif" font-size="10.00">ManagerEntity.h</text>
</a>
</g>
</g>
<!-- Node2&#45;&gt;Node3 -->
<g id="edge2" class="edge">
<title>Node2&#45;&gt;Node3</title>
<path fill="none" stroke="#63b8ff" d="M254.4,-223.59C244.11,-215.77 229.24,-204.46 217.05,-195.19"/>
<polygon fill="#63b8ff" stroke="#63b8ff" points="219.27,-192.48 209.19,-189.21 215.03,-198.05 219.27,-192.48"/>
</g>
<!-- Node6 -->
<g id="node6" class="node">
<title>Node6</title>
<g id="a_node6"><a xlink:title=" ">
<polygon fill="#e0e0e0" stroke="#999999" points="321.76,-20 281.76,-20 281.76,0 321.76,0 321.76,-20"/>
<text text-anchor="middle" x="301.76" y="-6.5" font-family="Helvetica,sans-Serif" font-size="10.00">string</text>
</a>
</g>
</g>
<!-- Node2&#45;&gt;Node6 -->
<g id="edge15" class="edge">
<title>Node2&#45;&gt;Node6</title>
<path fill="none" stroke="#63b8ff" d="M314.86,-232.5C618.33,-229.14 2257.19,-207.52 2328.76,-132 2447.34,-6.88 1728.89,-65.33 1556.76,-56 1069.7,-29.61 475.43,-14.98 333.34,-11.71"/>
<polygon fill="#63b8ff" stroke="#63b8ff" points="333.68,-8.21 323.6,-11.48 333.52,-15.21 333.68,-8.21"/>
</g>
<!-- Node9 -->
<g id="node9" class="node">
<title>Node9</title>
<g id="a_node9"><a xlink:title=" ">
<polygon fill="#e0e0e0" stroke="#999999" points="55.39,-20 4.14,-20 4.14,0 55.39,0 55.39,-20"/>
<text text-anchor="middle" x="29.76" y="-6.5" font-family="Helvetica,sans-Serif" font-size="10.00">memory</text>
</a>
</g>
</g>
<!-- Node2&#45;&gt;Node9 -->
<g id="edge18" class="edge">
<title>Node2&#45;&gt;Node9</title>
<path fill="none" stroke="#63b8ff" d="M218.54,-228.85C158.33,-222.82 59.7,-209.9 30.76,-188 8.57,-171.21 9.16,-159.08 2.76,-132 -5.65,-96.36 9.05,-54.64 19.85,-30.67"/>
<polygon fill="#63b8ff" stroke="#63b8ff" points="22.94,-32.33 24.07,-21.8 16.62,-29.32 22.94,-32.33"/>
</g>
<!-- Node11 -->
<g id="node11" class="node">
<title>Node11</title>
<g id="a_node11"><a xlink:title=" ">
<polygon fill="#e0e0e0" stroke="#999999" points="250.26,-132 207.26,-132 207.26,-112 250.26,-112 250.26,-132"/>
<text text-anchor="middle" x="228.76" y="-118.5" font-family="Helvetica,sans-Serif" font-size="10.00">vector</text>
</a>
</g>
</g>
<!-- Node2&#45;&gt;Node11 -->
<g id="edge17" class="edge">
<title>Node2&#45;&gt;Node11</title>
<path fill="none" stroke="#63b8ff" d="M264.39,-223.64C261.08,-210.91 254.7,-187.49 247.76,-168 244.74,-159.52 240.96,-150.33 237.57,-142.49"/>
<polygon fill="#63b8ff" stroke="#63b8ff" points="240.87,-141.3 233.62,-133.57 234.47,-144.13 240.87,-141.3"/>
</g>
<!-- Node12 -->
<g id="node12" class="node">
<title>Node12</title>
<g id="a_node12"><a xlink:title=" ">
<polygon fill="#e0e0e0" stroke="#999999" points="46.14,-132 11.39,-132 11.39,-112 46.14,-112 46.14,-132"/>
<text text-anchor="middle" x="28.76" y="-118.5" font-family="Helvetica,sans-Serif" font-size="10.00">map</text>
</a>
</g>
</g>
<!-- Node2&#45;&gt;Node12 -->
<g id="edge16" class="edge">
<title>Node2&#45;&gt;Node12</title>
<path fill="none" stroke="#63b8ff" d="M218.93,-228.9C162.21,-223.09 72.24,-210.55 47.76,-188 35.46,-176.66 30.96,-157.84 29.4,-143.36"/>
<polygon fill="#63b8ff" stroke="#63b8ff" points="32.9,-143.31 28.75,-133.56 25.92,-143.77 32.9,-143.31"/>
</g>
<!-- Node2&#45;&gt;Node13 -->
<g id="edge19" class="edge">
<title>Node2&#45;&gt;Node13</title>
<path fill="none" stroke="#63b8ff" d="M314.64,-232.57C606.64,-229.88 2142.11,-214.53 2349.76,-188 2350.59,-187.89 2351.44,-187.78 2352.28,-187.65"/>
<polygon fill="#63b8ff" stroke="#63b8ff" points="2352.7,-191.13 2361.88,-185.85 2351.41,-184.25 2352.7,-191.13"/>
</g>
<!-- Node14 -->
<g id="node14" class="node">
<title>Node14</title>
<g id="a_node14"><a xlink:href="json_8hpp.html" target="_top" xlink:title=" ">
<polygon fill="white" stroke="#666666" points="1276.64,-188 1178.89,-188 1178.89,-168 1276.64,-168 1276.64,-188"/>
<text text-anchor="middle" x="1227.76" y="-174.5" font-family="Helvetica,sans-Serif" font-size="10.00">nlohmann/json.hpp</text>
</a>
</g>
</g>
<!-- Node2&#45;&gt;Node14 -->
<g id="edge20" class="edge">
<title>Node2&#45;&gt;Node14</title>
<path fill="none" stroke="#63b8ff" d="M314.75,-230.3C474.7,-221.32 989.57,-192.38 1167,-182.41"/>
<polygon fill="#63b8ff" stroke="#63b8ff" points="1167.14,-185.91 1176.93,-181.86 1166.75,-178.92 1167.14,-185.91"/>
</g>
<!-- Node46 -->
<g id="node46" class="node">
<title>Node46</title>
<g id="a_node46"><a xlink:title=" ">
<polygon fill="#e0e0e0" stroke="#999999" points="134.51,-188 57.01,-188 57.01,-168 134.51,-168 134.51,-188"/>
<text text-anchor="middle" x="95.76" y="-174.5" font-family="Helvetica,sans-Serif" font-size="10.00">unordered_set</text>
</a>
</g>
</g>
<!-- Node2&#45;&gt;Node46 -->
<g id="edge56" class="edge">
<title>Node2&#45;&gt;Node46</title>
<path fill="none" stroke="#63b8ff" d="M236.98,-223.59C209.19,-214.82 167.51,-201.66 136.63,-191.9"/>
<polygon fill="#63b8ff" stroke="#63b8ff" points="137.81,-188.61 127.22,-188.94 135.71,-195.28 137.81,-188.61"/>
</g>
<!-- Node4 -->
<g id="node4" class="node">
<title>Node4</title>
<g id="a_node4"><a xlink:href="Entity_8h.html" target="_top" xlink:title=" ">
<polygon fill="white" stroke="#666666" points="150.89,-132 102.64,-132 102.64,-112 150.89,-112 150.89,-132"/>
<text text-anchor="middle" x="126.76" y="-118.5" font-family="Helvetica,sans-Serif" font-size="10.00">Entity.h</text>
</a>
</g>
</g>
<!-- Node3&#45;&gt;Node4 -->
<g id="edge3" class="edge">
<title>Node3&#45;&gt;Node4</title>
<path fill="none" stroke="#63b8ff" d="M183.74,-167.59C173.75,-159.77 159.3,-148.46 147.45,-139.19"/>
<polygon fill="#63b8ff" stroke="#63b8ff" points="149.87,-136.64 139.84,-133.23 145.55,-142.15 149.87,-136.64"/>
</g>
<!-- Node3&#45;&gt;Node6 -->
<g id="edge13" class="edge">
<title>Node3&#45;&gt;Node6</title>
<path fill="none" stroke="#63b8ff" d="M193.29,-167.74C190.27,-154.3 186.81,-129.12 197.76,-112 217.04,-81.86 244.54,-101.38 269.76,-76 282.24,-63.44 290.67,-45.04 295.73,-31.02"/>
<polygon fill="#63b8ff" stroke="#63b8ff" points="299.06,-32.11 298.86,-21.52 292.41,-29.93 299.06,-32.11"/>
</g>
<!-- Node3&#45;&gt;Node11 -->
<g id="edge12" class="edge">
<title>Node3&#45;&gt;Node11</title>
<path fill="none" stroke="#63b8ff" d="M201.51,-167.59C205.82,-160.55 211.85,-150.67 217.15,-142"/>
<polygon fill="#63b8ff" stroke="#63b8ff" points="220.06,-143.95 222.29,-133.59 214.09,-140.3 220.06,-143.95"/>
</g>
<!-- Node3&#45;&gt;Node12 -->
<g id="edge14" class="edge">
<title>Node3&#45;&gt;Node12</title>
<path fill="none" stroke="#63b8ff" d="M166.67,-167.59C135.85,-157.63 87.5,-141.99 57,-132.13"/>
<polygon fill="#63b8ff" stroke="#63b8ff" points="58.29,-128.87 47.7,-129.12 56.14,-135.53 58.29,-128.87"/>
</g>
<!-- Node5 -->
<g id="node5" class="node">
<title>Node5</title>
<g id="a_node5"><a xlink:href="Components_8h.html" target="_top" xlink:title=" ">
<polygon fill="white" stroke="#666666" points="167.64,-76 87.89,-76 87.89,-56 167.64,-56 167.64,-76"/>
<text text-anchor="middle" x="127.76" y="-62.5" font-family="Helvetica,sans-Serif" font-size="10.00">Components.h</text>
</a>
</g>
</g>
<!-- Node4&#45;&gt;Node5 -->
<g id="edge4" class="edge">
<title>Node4&#45;&gt;Node5</title>
<path fill="none" stroke="#63b8ff" d="M126.94,-111.59C127.06,-105.01 127.23,-95.96 127.38,-87.73"/>
<polygon fill="#63b8ff" stroke="#63b8ff" points="130.88,-87.87 127.56,-77.81 123.88,-87.75 130.88,-87.87"/>
</g>
<!-- Node4&#45;&gt;Node6 -->
<g id="edge10" class="edge">
<title>Node4&#45;&gt;Node6</title>
<path fill="none" stroke="#63b8ff" d="M151.01,-115.46C176.09,-108.91 215.6,-96.28 244.76,-76 262.81,-63.45 278.86,-43.99 289.3,-29.63"/>
<polygon fill="#63b8ff" stroke="#63b8ff" points="292.13,-31.69 294.98,-21.49 286.39,-27.68 292.13,-31.69"/>
</g>
<!-- Node4&#45;&gt;Node9 -->
<g id="edge9" class="edge">
<title>Node4&#45;&gt;Node9</title>
<path fill="none" stroke="#63b8ff" d="M115.96,-111.83C105.89,-103.07 90.67,-89.26 78.76,-76 65.37,-61.09 51.77,-42.74 42.31,-29.35"/>
<polygon fill="#63b8ff" stroke="#63b8ff" points="45.4,-27.67 36.82,-21.46 39.66,-31.66 45.4,-27.67"/>
</g>
<!-- Node10 -->
<g id="node10" class="node">
<title>Node10</title>
<g id="a_node10"><a xlink:title=" ">
<polygon fill="#e0e0e0" stroke="#999999" points="235.64,-76 185.89,-76 185.89,-56 235.64,-56 235.64,-76"/>
<text text-anchor="middle" x="210.76" y="-62.5" font-family="Helvetica,sans-Serif" font-size="10.00">optional</text>
</a>
</g>
</g>
<!-- Node4&#45;&gt;Node10 -->
<g id="edge11" class="edge">
<title>Node4&#45;&gt;Node10</title>
<path fill="none" stroke="#63b8ff" d="M141.39,-111.59C153.84,-103.59 171.98,-91.93 186.58,-82.54"/>
<polygon fill="#63b8ff" stroke="#63b8ff" points="188.22,-85.65 194.74,-77.3 184.44,-79.76 188.22,-85.65"/>
</g>
<!-- Node5&#45;&gt;Node6 -->
<g id="edge5" class="edge">
<title>Node5&#45;&gt;Node6</title>
<path fill="none" stroke="#63b8ff" d="M158.07,-55.59C189.55,-45.82 238.57,-30.61 270.42,-20.73"/>
<polygon fill="#63b8ff" stroke="#63b8ff" points="271.36,-24.1 279.87,-17.79 269.28,-17.41 271.36,-24.1"/>
</g>
<!-- Node7 -->
<g id="node7" class="node">
<title>Node7</title>
<g id="a_node7"><a xlink:title=" ">
<polygon fill="#e0e0e0" stroke="#999999" points="256.26,-20 153.26,-20 153.26,0 256.26,0 256.26,-20"/>
<text text-anchor="middle" x="204.76" y="-6.5" font-family="Helvetica,sans-Serif" font-size="10.00">SFML/Graphics.hpp</text>
</a>
</g>
</g>
<!-- Node5&#45;&gt;Node7 -->
<g id="edge6" class="edge">
<title>Node5&#45;&gt;Node7</title>
<path fill="none" stroke="#63b8ff" d="M141.17,-55.59C152.37,-47.74 168.57,-36.38 181.82,-27.09"/>
<polygon fill="#63b8ff" stroke="#63b8ff" points="183.83,-29.96 190.01,-21.35 179.81,-24.22 183.83,-29.96"/>
</g>
<!-- Node8 -->
<g id="node8" class="node">
<title>Node8</title>
<g id="a_node8"><a xlink:title=" ">
<polygon fill="#e0e0e0" stroke="#999999" points="135.14,-20 88.39,-20 88.39,0 135.14,0 135.14,-20"/>
<text text-anchor="middle" x="111.76" y="-6.5" font-family="Helvetica,sans-Serif" font-size="10.00">Vec2.h</text>
</a>
</g>
</g>
<!-- Node5&#45;&gt;Node8 -->
<g id="edge7" class="edge">
<title>Node5&#45;&gt;Node8</title>
<path fill="none" stroke="#63b8ff" d="M124.98,-55.59C122.98,-48.86 120.22,-39.53 117.73,-31.15"/>
<polygon fill="#63b8ff" stroke="#63b8ff" points="121.14,-30.34 114.95,-21.75 114.43,-32.33 121.14,-30.34"/>
</g>
<!-- Node5&#45;&gt;Node9 -->
<g id="edge8" class="edge">
<title>Node5&#45;&gt;Node9</title>
<path fill="none" stroke="#63b8ff" d="M110.69,-55.59C95.89,-47.44 74.19,-35.48 56.99,-26"/>
<polygon fill="#63b8ff" stroke="#63b8ff" points="58.74,-22.97 48.29,-21.21 55.36,-29.1 58.74,-22.97"/>
</g>
<!-- Node14&#45;&gt;Node6 -->
<g id="edge28" class="edge">
<title>Node14&#45;&gt;Node6</title>
<path fill="none" stroke="#63b8ff" d="M1276.95,-177.34C1420.99,-177.84 1834.25,-175.43 1874.76,-132 1880.83,-125.5 1880.84,-118.48 1874.76,-112 1820.02,-53.63 551.55,-17.59 333.52,-11.82"/>
<polygon fill="#63b8ff" stroke="#63b8ff" points="333.63,-8.32 323.54,-11.56 333.44,-15.32 333.63,-8.32"/>
</g>
<!-- Node14&#45;&gt;Node9 -->
<g id="edge27" class="edge">
<title>Node14&#45;&gt;Node9</title>
<path fill="none" stroke="#63b8ff" d="M1178.46,-176.32C966.49,-173.25 141.26,-159.57 93.76,-132 56.88,-110.59 40.26,-59.74 33.61,-31.25"/>
<polygon fill="#63b8ff" stroke="#63b8ff" points="37.09,-30.77 31.6,-21.71 30.24,-32.22 37.09,-30.77"/>
</g>
<!-- Node14&#45;&gt;Node11 -->
<g id="edge30" class="edge">
<title>Node14&#45;&gt;Node11</title>
<path fill="none" stroke="#63b8ff" d="M1178.51,-176.31C1010.52,-173.69 459.99,-163.07 261.71,-132.05"/>
<polygon fill="#63b8ff" stroke="#63b8ff" points="262.5,-128.63 252.06,-130.46 261.36,-135.54 262.5,-128.63"/>
</g>
<!-- Node14&#45;&gt;Node12 -->
<g id="edge33" class="edge">
<title>Node14&#45;&gt;Node12</title>
<path fill="none" stroke="#63b8ff" d="M1178.7,-176.7C985.94,-175.29 280.36,-167.72 59.76,-132 59.09,-131.89 58.41,-131.77 57.72,-131.64"/>
<polygon fill="#63b8ff" stroke="#63b8ff" points="58.64,-128.26 48.1,-129.34 57.01,-135.07 58.64,-128.26"/>
</g>
<!-- Node14&#45;&gt;Node15 -->
<g id="edge21" class="edge">
<title>Node14&#45;&gt;Node15</title>
<path fill="none" stroke="#63b8ff" d="M1276.92,-175.86C1431.71,-172.1 1922.88,-158.73 2328.76,-132 2348.4,-130.71 2370.18,-128.78 2388.31,-127.04"/>
<polygon fill="#63b8ff" stroke="#63b8ff" points="2388.51,-130.54 2398.12,-126.08 2387.83,-123.57 2388.51,-130.54"/>
</g>
<!-- Node16 -->
<g id="node16" class="node">
<title>Node16</title>
<g id="a_node16"><a xlink:title=" ">
<polygon fill="#e0e0e0" stroke="#999999" points="1969.89,-132 1921.64,-132 1921.64,-112 1969.89,-112 1969.89,-132"/>
<text text-anchor="middle" x="1945.76" y="-118.5" font-family="Helvetica,sans-Serif" font-size="10.00">cstddef</text>
</a>
</g>
</g>
<!-- Node14&#45;&gt;Node16 -->
<g id="edge22" class="edge">
<title>Node14&#45;&gt;Node16</title>
<path fill="none" stroke="#63b8ff" d="M1277.13,-176.54C1389.64,-174.89 1673.48,-167.25 1907.76,-132 1908.59,-131.88 1909.43,-131.74 1910.27,-131.6"/>
<polygon fill="#63b8ff" stroke="#63b8ff" points="1910.73,-135.08 1919.86,-129.71 1909.38,-128.21 1910.73,-135.08"/>
</g>
<!-- Node17 -->
<g id="node17" class="node">
<title>Node17</title>
<g id="a_node17"><a xlink:title=" ">
<polygon fill="#e0e0e0" stroke="#999999" points="2045.76,-132 1987.76,-132 1987.76,-112 2045.76,-112 2045.76,-132"/>
<text text-anchor="middle" x="2016.76" y="-118.5" font-family="Helvetica,sans-Serif" font-size="10.00">functional</text>
</a>
</g>
</g>
<!-- Node14&#45;&gt;Node17 -->
<g id="edge23" class="edge">
<title>Node14&#45;&gt;Node17</title>
<path fill="none" stroke="#63b8ff" d="M1276.83,-176.98C1395.49,-176.31 1707.43,-170.83 1976.25,-132.11"/>
<polygon fill="#63b8ff" stroke="#63b8ff" points="1976.51,-135.61 1985.9,-130.7 1975.5,-128.68 1976.51,-135.61"/>
</g>
<!-- Node18 -->
<g id="node18" class="node">
<title>Node18</title>
<g id="a_node18"><a xlink:title=" ">
<polygon fill="#e0e0e0" stroke="#999999" points="2135.89,-132 2063.64,-132 2063.64,-112 2135.89,-112 2135.89,-132"/>
<text text-anchor="middle" x="2099.76" y="-118.5" font-family="Helvetica,sans-Serif" font-size="10.00">initializer_list</text>
</a>
</g>
</g>
<!-- Node14&#45;&gt;Node18 -->
<g id="edge24" class="edge">
<title>Node14&#45;&gt;Node18</title>
<path fill="none" stroke="#63b8ff" d="M1276.92,-176.77C1403.77,-175.66 1752.6,-169.3 2052.39,-132.11"/>
<polygon fill="#63b8ff" stroke="#63b8ff" points="2052.5,-135.63 2061.98,-130.91 2051.63,-128.68 2052.5,-135.63"/>
</g>
<!-- Node19 -->
<g id="node19" class="node">
<title>Node19</title>
<g id="a_node19"><a xlink:title=" ">
<polygon fill="#e0e0e0" stroke="#999999" points="2198.01,-132 2153.51,-132 2153.51,-112 2198.01,-112 2198.01,-132"/>
<text text-anchor="middle" x="2175.76" y="-118.5" font-family="Helvetica,sans-Serif" font-size="10.00">iosfwd</text>
</a>
</g>
</g>
<!-- Node14&#45;&gt;Node19 -->
<g id="edge25" class="edge">
<title>Node14&#45;&gt;Node19</title>
<path fill="none" stroke="#63b8ff" d="M1276.92,-176.1C1438.67,-172.91 1954.26,-160.83 2142.12,-131.99"/>
<polygon fill="#63b8ff" stroke="#63b8ff" points="2142.41,-135.49 2151.72,-130.45 2141.29,-128.58 2142.41,-135.49"/>
</g>
<!-- Node20 -->
<g id="node20" class="node">
<title>Node20</title>
<g id="a_node20"><a xlink:title=" ">
<polygon fill="#e0e0e0" stroke="#999999" points="2261.76,-132 2215.76,-132 2215.76,-112 2261.76,-112 2261.76,-132"/>
<text text-anchor="middle" x="2238.76" y="-118.5" font-family="Helvetica,sans-Serif" font-size="10.00">iterator</text>
</a>
</g>
</g>
<!-- Node14&#45;&gt;Node20 -->
<g id="edge26" class="edge">
<title>Node14&#45;&gt;Node20</title>
<path fill="none" stroke="#63b8ff" d="M1276.91,-176.22C1445.85,-173.33 2002.95,-161.84 2204.17,-131.97"/>
<polygon fill="#63b8ff" stroke="#63b8ff" points="2204.64,-135.44 2213.99,-130.44 2203.57,-128.52 2204.64,-135.44"/>
</g>
<!-- Node21 -->
<g id="node21" class="node">
<title>Node21</title>
<g id="a_node21"><a xlink:title=" ">
<polygon fill="#e0e0e0" stroke="#999999" points="2319.39,-132 2280.14,-132 2280.14,-112 2319.39,-112 2319.39,-132"/>
<text text-anchor="middle" x="2299.76" y="-118.5" font-family="Helvetica,sans-Serif" font-size="10.00">utility</text>
</a>
</g>
</g>
<!-- Node14&#45;&gt;Node21 -->
<g id="edge29" class="edge">
<title>Node14&#45;&gt;Node21</title>
<path fill="none" stroke="#63b8ff" d="M1277.02,-176.56C1453.48,-174.7 2054.48,-166.13 2268.53,-131.84"/>
<polygon fill="#63b8ff" stroke="#63b8ff" points="2268.87,-135.33 2278.15,-130.22 2267.71,-128.43 2268.87,-135.33"/>
</g>
<!-- Node22 -->
<g id="node22" class="node">
<title>Node22</title>
<g id="a_node22"><a xlink:title=" ">
<polygon fill="#e0e0e0" stroke="#999999" points="305.64,-132 267.89,-132 267.89,-112 305.64,-112 305.64,-132"/>
<text text-anchor="middle" x="286.76" y="-118.5" font-family="Helvetica,sans-Serif" font-size="10.00">array</text>
</a>
</g>
</g>
<!-- Node14&#45;&gt;Node22 -->
<g id="edge31" class="edge">
<title>Node14&#45;&gt;Node22</title>
<path fill="none" stroke="#63b8ff" d="M1178.5,-176.27C1017.11,-173.61 504.42,-163.04 317.2,-131.86"/>
<polygon fill="#63b8ff" stroke="#63b8ff" points="317.82,-128.41 307.36,-130.13 316.61,-135.31 317.82,-128.41"/>
</g>
<!-- Node23 -->
<g id="node23" class="node">
<title>Node23</title>
<g id="a_node23"><a xlink:title=" ">
<polygon fill="#e0e0e0" stroke="#999999" points="389.89,-132 323.64,-132 323.64,-112 389.89,-112 389.89,-132"/>
<text text-anchor="middle" x="356.76" y="-118.5" font-family="Helvetica,sans-Serif" font-size="10.00">forward_list</text>
</a>
</g>
</g>
<!-- Node14&#45;&gt;Node23 -->
<g id="edge32" class="edge">
<title>Node14&#45;&gt;Node23</title>
<path fill="none" stroke="#63b8ff" d="M1178.46,-177.01C1051.23,-176.47 701.4,-171.35 401.25,-132.12"/>
<polygon fill="#63b8ff" stroke="#63b8ff" points="402.02,-128.69 391.65,-130.85 401.1,-135.63 402.02,-128.69"/>
</g>
<!-- Node24 -->
<g id="node24" class="node">
<title>Node24</title>
<g id="a_node24"><a xlink:title=" ">
<polygon fill="#e0e0e0" stroke="#999999" points="445.26,-132 408.26,-132 408.26,-112 445.26,-112 445.26,-132"/>
<text text-anchor="middle" x="426.76" y="-118.5" font-family="Helvetica,sans-Serif" font-size="10.00">tuple</text>
</a>
</g>
</g>
<!-- Node14&#45;&gt;Node24 -->
<g id="edge34" class="edge">
<title>Node14&#45;&gt;Node24</title>
<path fill="none" stroke="#63b8ff" d="M1178.4,-175.83C1034.12,-172.15 613.88,-159.48 456.36,-131.95"/>
<polygon fill="#63b8ff" stroke="#63b8ff" points="457.43,-128.59 446.96,-130.21 456.16,-135.47 457.43,-128.59"/>
</g>
<!-- Node25 -->
<g id="node25" class="node">
<title>Node25</title>
<g id="a_node25"><a xlink:title=" ">
<polygon fill="#e0e0e0" stroke="#999999" points="524.64,-132 462.89,-132 462.89,-112 524.64,-112 524.64,-132"/>
<text text-anchor="middle" x="493.76" y="-118.5" font-family="Helvetica,sans-Serif" font-size="10.00">type_traits</text>
</a>
</g>
</g>
<!-- Node14&#45;&gt;Node25 -->
<g id="edge35" class="edge">
<title>Node14&#45;&gt;Node25</title>
<path fill="none" stroke="#63b8ff" d="M1178.69,-176.45C1066.53,-174.63 782.73,-166.83 536.45,-132.16"/>
<polygon fill="#63b8ff" stroke="#63b8ff" points="537.01,-128.71 526.62,-130.76 536.02,-135.64 537.01,-128.71"/>
</g>
<!-- Node26 -->
<g id="node26" class="node">
<title>Node26</title>
<g id="a_node26"><a xlink:title=" ">
<polygon fill="#e0e0e0" stroke="#999999" points="625.14,-132 542.39,-132 542.39,-112 625.14,-112 625.14,-132"/>
<text text-anchor="middle" x="583.76" y="-118.5" font-family="Helvetica,sans-Serif" font-size="10.00">unordered_map</text>
</a>
</g>
</g>
<!-- Node14&#45;&gt;Node26 -->
<g id="edge36" class="edge">
<title>Node14&#45;&gt;Node26</title>
<path fill="none" stroke="#63b8ff" d="M1178.4,-174.91C1078.33,-170.31 844.2,-157.74 636.88,-132.13"/>
<polygon fill="#63b8ff" stroke="#63b8ff" points="637.32,-128.66 626.96,-130.89 636.45,-135.61 637.32,-128.66"/>
</g>
<!-- Node27 -->
<g id="node27" class="node">
<title>Node27</title>
<g id="a_node27"><a xlink:title=" ">
<polygon fill="#e0e0e0" stroke="#999999" points="694.01,-132 643.51,-132 643.51,-112 694.01,-112 694.01,-132"/>
<text text-anchor="middle" x="668.76" y="-118.5" font-family="Helvetica,sans-Serif" font-size="10.00">valarray</text>
</a>
</g>
</g>
<!-- Node14&#45;&gt;Node27 -->
<g id="edge37" class="edge">
<title>Node14&#45;&gt;Node27</title>
<path fill="none" stroke="#63b8ff" d="M1178.54,-175.62C1087.06,-172.45 884.56,-162.54 705.49,-132.19"/>
<polygon fill="#63b8ff" stroke="#63b8ff" points="706.22,-128.77 695.77,-130.52 705.03,-135.67 706.22,-128.77"/>
</g>
<!-- Node28 -->
<g id="node28" class="node">
<title>Node28</title>
<g id="a_node28"><a xlink:title=" ">
<polygon fill="#e0e0e0" stroke="#999999" points="769.76,-132 711.76,-132 711.76,-112 769.76,-112 769.76,-132"/>
<text text-anchor="middle" x="740.76" y="-118.5" font-family="Helvetica,sans-Serif" font-size="10.00">exception</text>
</a>
</g>
</g>
<!-- Node14&#45;&gt;Node28 -->
<g id="edge38" class="edge">
<title>Node14&#45;&gt;Node28</title>
<path fill="none" stroke="#63b8ff" d="M1178.65,-174.22C1097.79,-169.17 931.43,-156.83 781.38,-132.23"/>
<polygon fill="#63b8ff" stroke="#63b8ff" points="782.07,-128.8 771.64,-130.61 780.93,-135.71 782.07,-128.8"/>
</g>
<!-- Node29 -->
<g id="node29" class="node">
<title>Node29</title>
<g id="a_node29"><a xlink:title=" ">
<polygon fill="#e0e0e0" stroke="#999999" points="846.14,-132 787.39,-132 787.39,-112 846.14,-112 846.14,-132"/>
<text text-anchor="middle" x="816.76" y="-118.5" font-family="Helvetica,sans-Serif" font-size="10.00">stdexcept</text>
</a>
</g>
</g>
<!-- Node14&#45;&gt;Node29 -->
<g id="edge39" class="edge">
<title>Node14&#45;&gt;Node29</title>
<path fill="none" stroke="#63b8ff" d="M1178.62,-172.85C1109.2,-166.59 978.26,-153.37 857.82,-132.38"/>
<polygon fill="#63b8ff" stroke="#63b8ff" points="858.51,-128.95 848.06,-130.66 857.3,-135.84 858.51,-128.95"/>
</g>
<!-- Node30 -->
<g id="node30" class="node">
<title>Node30</title>
<g id="a_node30"><a xlink:title=" ">
<polygon fill="#e0e0e0" stroke="#999999" points="909.39,-132 864.14,-132 864.14,-112 909.39,-112 909.39,-132"/>
<text text-anchor="middle" x="886.76" y="-118.5" font-family="Helvetica,sans-Serif" font-size="10.00">cstdint</text>
</a>
</g>
</g>
<!-- Node14&#45;&gt;Node30 -->
<g id="edge40" class="edge">
<title>Node14&#45;&gt;Node30</title>
<path fill="none" stroke="#63b8ff" d="M1178.45,-171.81C1119.44,-165.17 1017.49,-152.3 920.89,-132.2"/>
<polygon fill="#63b8ff" stroke="#63b8ff" points="921.73,-128.81 911.23,-130.16 920.29,-135.65 921.73,-128.81"/>
</g>
<!-- Node31 -->
<g id="node31" class="node">
<title>Node31</title>
<g id="a_node31"><a xlink:title=" ">
<polygon fill="#e0e0e0" stroke="#999999" points="972.01,-132 927.51,-132 927.51,-112 972.01,-112 972.01,-132"/>
<text text-anchor="middle" x="949.76" y="-118.5" font-family="Helvetica,sans-Serif" font-size="10.00">cstdlib</text>
</a>
</g>
</g>
<!-- Node14&#45;&gt;Node31 -->
<g id="edge41" class="edge">
<title>Node14&#45;&gt;Node31</title>
<path fill="none" stroke="#63b8ff" d="M1178.72,-169.58C1131,-162.03 1056.27,-149.31 983.15,-132.38"/>
<polygon fill="#63b8ff" stroke="#63b8ff" points="984.39,-129.08 973.85,-130.2 982.79,-135.89 984.39,-129.08"/>
</g>
<!-- Node32 -->
<g id="node32" class="node">
<title>Node32</title>
<g id="a_node32"><a xlink:title=" ">
<polygon fill="#e0e0e0" stroke="#999999" points="1037.89,-132 989.64,-132 989.64,-112 1037.89,-112 1037.89,-132"/>
<text text-anchor="middle" x="1013.76" y="-118.5" font-family="Helvetica,sans-Serif" font-size="10.00">cassert</text>
</a>
</g>
</g>
<!-- Node14&#45;&gt;Node32 -->
<g id="edge42" class="edge">
<title>Node14&#45;&gt;Node32</title>
<path fill="none" stroke="#63b8ff" d="M1188.51,-167.51C1154.17,-159.15 1102.66,-146.47 1049.3,-132.62"/>
<polygon fill="#63b8ff" stroke="#63b8ff" points="1050.28,-129.26 1039.72,-130.13 1048.51,-136.03 1050.28,-129.26"/>
</g>
<!-- Node33 -->
<g id="node33" class="node">
<title>Node33</title>
<g id="a_node33"><a xlink:title=" ">
<polygon fill="#e0e0e0" stroke="#999999" points="1095.39,-132 1056.14,-132 1056.14,-112 1095.39,-112 1095.39,-132"/>
<text text-anchor="middle" x="1075.76" y="-118.5" font-family="Helvetica,sans-Serif" font-size="10.00">limits</text>
</a>
</g>
</g>
<!-- Node14&#45;&gt;Node33 -->
<g id="edge43" class="edge">
<title>Node14&#45;&gt;Node33</title>
<path fill="none" stroke="#63b8ff" d="M1201.29,-167.59C1174.82,-158.19 1134.17,-143.75 1106.34,-133.86"/>
<polygon fill="#63b8ff" stroke="#63b8ff" points="1107.66,-130.62 1097.07,-130.57 1105.32,-137.22 1107.66,-130.62"/>
</g>
<!-- Node34 -->
<g id="node34" class="node">
<title>Node34</title>
<g id="a_node34"><a xlink:title=" ">
<polygon fill="#e0e0e0" stroke="#999999" points="1158.39,-132 1113.14,-132 1113.14,-112 1158.39,-112 1158.39,-132"/>
<text text-anchor="middle" x="1135.76" y="-118.5" font-family="Helvetica,sans-Serif" font-size="10.00">cstring</text>
</a>
</g>
</g>
<!-- Node14&#45;&gt;Node34 -->
<g id="edge44" class="edge">
<title>Node14&#45;&gt;Node34</title>
<path fill="none" stroke="#63b8ff" d="M1211.74,-167.59C1197.97,-159.51 1177.86,-147.71 1161.78,-138.27"/>
<polygon fill="#63b8ff" stroke="#63b8ff" points="1163.61,-135.29 1153.22,-133.25 1160.07,-141.33 1163.61,-135.29"/>
</g>
<!-- Node35 -->
<g id="node35" class="node">
<title>Node35</title>
<g id="a_node35"><a xlink:title=" ">
<polygon fill="#e0e0e0" stroke="#999999" points="1219.26,-132 1176.26,-132 1176.26,-112 1219.26,-112 1219.26,-132"/>
<text text-anchor="middle" x="1197.76" y="-118.5" font-family="Helvetica,sans-Serif" font-size="10.00">cmath</text>
</a>
</g>
</g>
<!-- Node14&#45;&gt;Node35 -->
<g id="edge45" class="edge">
<title>Node14&#45;&gt;Node35</title>
<path fill="none" stroke="#63b8ff" d="M1222.54,-167.59C1218.67,-160.63 1213.25,-150.89 1208.48,-142.29"/>
<polygon fill="#63b8ff" stroke="#63b8ff" points="1211.58,-140.66 1203.66,-133.62 1205.46,-144.06 1211.58,-140.66"/>
</g>
<!-- Node36 -->
<g id="node36" class="node">
<title>Node36</title>
<g id="a_node36"><a xlink:title=" ">
<polygon fill="#e0e0e0" stroke="#999999" points="1279.89,-132 1237.64,-132 1237.64,-112 1279.89,-112 1279.89,-132"/>
<text text-anchor="middle" x="1258.76" y="-118.5" font-family="Helvetica,sans-Serif" font-size="10.00">cstdio</text>
</a>
</g>
</g>
<!-- Node14&#45;&gt;Node36 -->
<g id="edge46" class="edge">
<title>Node14&#45;&gt;Node36</title>
<path fill="none" stroke="#63b8ff" d="M1233.16,-167.59C1237.21,-160.55 1242.88,-150.67 1247.85,-142"/>
<polygon fill="#63b8ff" stroke="#63b8ff" points="1250.73,-144.03 1252.67,-133.61 1244.66,-140.54 1250.73,-144.03"/>
</g>
<!-- Node37 -->
<g id="node37" class="node">
<title>Node37</title>
<g id="a_node37"><a xlink:title=" ">
<polygon fill="#e0e0e0" stroke="#999999" points="1348.01,-132 1297.51,-132 1297.51,-112 1348.01,-112 1348.01,-132"/>
<text text-anchor="middle" x="1322.76" y="-118.5" font-family="Helvetica,sans-Serif" font-size="10.00">numeric</text>
</a>
</g>
</g>
<!-- Node14&#45;&gt;Node37 -->
<g id="edge47" class="edge">
<title>Node14&#45;&gt;Node37</title>
<path fill="none" stroke="#63b8ff" d="M1244.31,-167.59C1258.66,-159.44 1279.69,-147.48 1296.36,-138"/>
<polygon fill="#63b8ff" stroke="#63b8ff" points="1297.81,-141.21 1304.77,-133.23 1294.35,-135.13 1297.81,-141.21"/>
</g>
<!-- Node38 -->
<g id="node38" class="node">
<title>Node38</title>
<g id="a_node38"><a xlink:title=" ">
<polygon fill="#e0e0e0" stroke="#999999" points="1425.51,-132 1366.01,-132 1366.01,-112 1425.51,-112 1425.51,-132"/>
<text text-anchor="middle" x="1395.76" y="-118.5" font-family="Helvetica,sans-Serif" font-size="10.00">streambuf</text>
</a>
</g>
</g>
<!-- Node14&#45;&gt;Node38 -->
<g id="edge48" class="edge">
<title>Node14&#45;&gt;Node38</title>
<path fill="none" stroke="#63b8ff" d="M1257.03,-167.59C1284.32,-158.82 1325.27,-145.66 1355.62,-135.9"/>
<polygon fill="#63b8ff" stroke="#63b8ff" points="1356.38,-139.33 1364.83,-132.94 1354.24,-132.67 1356.38,-139.33"/>
</g>
<!-- Node39 -->
<g id="node39" class="node">
<title>Node39</title>
<g id="a_node39"><a xlink:title=" ">
<polygon fill="#e0e0e0" stroke="#999999" points="1491.89,-132 1443.64,-132 1443.64,-112 1491.89,-112 1491.89,-132"/>
<text text-anchor="middle" x="1467.76" y="-118.5" font-family="Helvetica,sans-Serif" font-size="10.00">istream</text>
</a>
</g>
</g>
<!-- Node14&#45;&gt;Node39 -->
<g id="edge49" class="edge">
<title>Node14&#45;&gt;Node39</title>
<path fill="none" stroke="#63b8ff" d="M1274.78,-167.51C1314.38,-159.35 1372.77,-146.94 1432.19,-132.54"/>
<polygon fill="#63b8ff" stroke="#63b8ff" points="1432.94,-135.96 1441.82,-130.19 1431.28,-129.16 1432.94,-135.96"/>
</g>
<!-- Node40 -->
<g id="node40" class="node">
<title>Node40</title>
<g id="a_node40"><a xlink:title=" ">
<polygon fill="#e0e0e0" stroke="#999999" points="1557.14,-132 1510.39,-132 1510.39,-112 1557.14,-112 1557.14,-132"/>
<text text-anchor="middle" x="1533.76" y="-118.5" font-family="Helvetica,sans-Serif" font-size="10.00">clocale</text>
</a>
</g>
</g>
<!-- Node14&#45;&gt;Node40 -->
<g id="edge50" class="edge">
<title>Node14&#45;&gt;Node40</title>
<path fill="none" stroke="#63b8ff" d="M1276.87,-170.46C1329.39,-163.12 1415.31,-150.12 1498.81,-132.22"/>
<polygon fill="#63b8ff" stroke="#63b8ff" points="1499.53,-135.65 1508.56,-130.1 1498.05,-128.81 1499.53,-135.65"/>
</g>
<!-- Node41 -->
<g id="node41" class="node">
<title>Node41</title>
<g id="a_node41"><a xlink:title=" ">
<polygon fill="#e0e0e0" stroke="#999999" points="1620.39,-132 1575.14,-132 1575.14,-112 1620.39,-112 1620.39,-132"/>
<text text-anchor="middle" x="1597.76" y="-118.5" font-family="Helvetica,sans-Serif" font-size="10.00">cctype</text>
</a>
</g>
</g>
<!-- Node14&#45;&gt;Node41 -->
<g id="edge51" class="edge">
<title>Node14&#45;&gt;Node41</title>
<path fill="none" stroke="#63b8ff" d="M1277.11,-172.64C1341.07,-166.51 1456.19,-153.82 1563.73,-132.15"/>
<polygon fill="#63b8ff" stroke="#63b8ff" points="1564.21,-135.62 1573.3,-130.19 1562.8,-128.77 1564.21,-135.62"/>
</g>
<!-- Node42 -->
<g id="node42" class="node">
<title>Node42</title>
<g id="a_node42"><a xlink:title=" ">
<polygon fill="#e0e0e0" stroke="#999999" points="1681.26,-132 1638.26,-132 1638.26,-112 1681.26,-112 1681.26,-132"/>
<text text-anchor="middle" x="1659.76" y="-118.5" font-family="Helvetica,sans-Serif" font-size="10.00">cerrno</text>
</a>
</g>
</g>
<!-- Node14&#45;&gt;Node42 -->
<g id="edge52" class="edge">
<title>Node14&#45;&gt;Node42</title>
<path fill="none" stroke="#63b8ff" d="M1277.09,-174.34C1351.27,-169.73 1496,-158.29 1626.92,-132.28"/>
<polygon fill="#63b8ff" stroke="#63b8ff" points="1627.33,-135.76 1636.44,-130.35 1625.94,-128.9 1627.33,-135.76"/>
</g>
<!-- Node43 -->
<g id="node43" class="node">
<title>Node43</title>
<g id="a_node43"><a xlink:title=" ">
<polygon fill="#e0e0e0" stroke="#999999" points="1728.16,-132 1699.36,-132 1699.36,-112 1728.16,-112 1728.16,-132"/>
<text text-anchor="middle" x="1713.76" y="-118.5" font-family="Helvetica,sans-Serif" font-size="10.00">ios</text>
</a>
</g>
</g>
<!-- Node14&#45;&gt;Node43 -->
<g id="edge53" class="edge">
<title>Node14&#45;&gt;Node43</title>
<path fill="none" stroke="#63b8ff" d="M1277,-176.41C1360.2,-174.5 1533.79,-166.62 1687.91,-131.79"/>
<polygon fill="#63b8ff" stroke="#63b8ff" points="1688.54,-135.24 1697.5,-129.58 1686.96,-128.42 1688.54,-135.24"/>
</g>
<!-- Node44 -->
<g id="node44" class="node">
<title>Node44</title>
<g id="a_node44"><a xlink:title=" ">
<polygon fill="#e0e0e0" stroke="#999999" points="1797.39,-132 1746.14,-132 1746.14,-112 1797.39,-112 1797.39,-132"/>
<text text-anchor="middle" x="1771.76" y="-118.5" font-family="Helvetica,sans-Serif" font-size="10.00">ostream</text>
</a>
</g>
</g>
<!-- Node14&#45;&gt;Node44 -->
<g id="edge54" class="edge">
<title>Node14&#45;&gt;Node44</title>
<path fill="none" stroke="#63b8ff" d="M1276.89,-175.33C1366.18,-171.71 1561.13,-161.15 1734.73,-132.06"/>
<polygon fill="#63b8ff" stroke="#63b8ff" points="1735.11,-135.54 1744.38,-130.41 1733.93,-128.64 1735.11,-135.54"/>
</g>
<!-- Node45 -->
<g id="node45" class="node">
<title>Node45</title>
<g id="a_node45"><a xlink:title=" ">
<polygon fill="#e0e0e0" stroke="#999999" points="1865.64,-132 1815.89,-132 1815.89,-112 1865.64,-112 1865.64,-132"/>
<text text-anchor="middle" x="1840.76" y="-118.5" font-family="Helvetica,sans-Serif" font-size="10.00">iomanip</text>
</a>
</g>
</g>
<!-- Node14&#45;&gt;Node45 -->
<g id="edge55" class="edge">
<title>Node14&#45;&gt;Node45</title>
<path fill="none" stroke="#63b8ff" d="M1276.93,-176.18C1375.38,-173.88 1603.75,-165.32 1804.28,-132.11"/>
<polygon fill="#63b8ff" stroke="#63b8ff" points="1804.85,-135.56 1814.13,-130.45 1803.69,-128.66 1804.85,-135.56"/>
</g>
</g>
</svg>
