<?xml version="1.0" encoding="UTF-8" standalone="no"?>
<!DOCTYPE svg PUBLIC "-//W3C//DTD SVG 1.1//EN"
 "http://www.w3.org/Graphics/SVG/1.1/DTD/svg11.dtd">
<!-- Generated by graphviz version 12.2.1 (20241206.2353)
 -->
<!-- Title: src/managers/ManagerActionFormation.h Pages: 1 -->
<svg width="603pt" height="332pt"
 viewBox="0.00 0.00 602.50 332.00" xmlns="http://www.w3.org/2000/svg" xmlns:xlink="http://www.w3.org/1999/xlink">
<g id="graph0" class="graph" transform="scale(1 1) rotate(0) translate(4 328)">
<title>src/managers/ManagerActionFormation.h</title>
<!-- Node1 -->
<g id="node1" class="node">
<title>Node1</title>
<g id="a_node1"><a xlink:title=" ">
<polygon fill="#999999" stroke="#666666" points="305.5,-324 162,-324 162,-292 305.5,-292 305.5,-324"/>
<text text-anchor="start" x="170" y="-310.5" font-family="Helvetica,sans-Serif" font-size="10.00">src/managers/ManagerAction</text>
<text text-anchor="middle" x="233.75" y="-298.5" font-family="Helvetica,sans-Serif" font-size="10.00">Formation.h</text>
</a>
</g>
</g>
<!-- Node2 -->
<g id="node2" class="node">
<title>Node2</title>
<g id="a_node2"><a xlink:href="ManagerActionFormation_8cpp.html" target="_top" xlink:title=" ">
<polygon fill="white" stroke="#666666" points="143.5,-256 0,-256 0,-224 143.5,-224 143.5,-256"/>
<text text-anchor="start" x="8" y="-242.5" font-family="Helvetica,sans-Serif" font-size="10.00">src/managers/ManagerAction</text>
<text text-anchor="middle" x="71.75" y="-230.5" font-family="Helvetica,sans-Serif" font-size="10.00">Formation.cpp</text>
</a>
</g>
</g>
<!-- Node1&#45;&gt;Node2 -->
<g id="edge1" class="edge">
<title>Node1&#45;&gt;Node2</title>
<path fill="none" stroke="#63b8ff" d="M185.37,-287.29C161.19,-277.44 132.35,-265.69 109.77,-256.49"/>
<polygon fill="#63b8ff" stroke="#63b8ff" points="183.79,-290.42 194.37,-290.95 186.43,-283.94 183.79,-290.42"/>
</g>
<!-- Node3 -->
<g id="node3" class="node">
<title>Node3</title>
<g id="a_node3"><a xlink:href="ManagerActionResolution_8h.html" target="_top" xlink:title=" ">
<polygon fill="white" stroke="#666666" points="305.5,-256 162,-256 162,-224 305.5,-224 305.5,-256"/>
<text text-anchor="start" x="170" y="-242.5" font-family="Helvetica,sans-Serif" font-size="10.00">src/managers/ManagerAction</text>
<text text-anchor="middle" x="233.75" y="-230.5" font-family="Helvetica,sans-Serif" font-size="10.00">Resolution.h</text>
</a>
</g>
</g>
<!-- Node1&#45;&gt;Node3 -->
<g id="edge2" class="edge">
<title>Node1&#45;&gt;Node3</title>
<path fill="none" stroke="#63b8ff" d="M233.75,-280.31C233.75,-272.12 233.75,-263.38 233.75,-256.22"/>
<polygon fill="#63b8ff" stroke="#63b8ff" points="230.25,-280.18 233.75,-290.18 237.25,-280.18 230.25,-280.18"/>
</g>
<!-- Node4 -->
<g id="node4" class="node">
<title>Node4</title>
<g id="a_node4"><a xlink:href="ManagerTurn_8h.html" target="_top" xlink:title=" ">
<polygon fill="white" stroke="#666666" points="355.5,-188 212,-188 212,-168 355.5,-168 355.5,-188"/>
<text text-anchor="middle" x="283.75" y="-174.5" font-family="Helvetica,sans-Serif" font-size="10.00">src/managers/ManagerTurn.h</text>
</a>
</g>
</g>
<!-- Node1&#45;&gt;Node4 -->
<g id="edge10" class="edge">
<title>Node1&#45;&gt;Node4</title>
<path fill="none" stroke="#63b8ff" d="M284.33,-285.95C296.43,-278.37 307.84,-268.51 314.75,-256 327.57,-232.79 305.94,-203.16 292.77,-188.34"/>
<polygon fill="#63b8ff" stroke="#63b8ff" points="282.8,-282.8 275.86,-290.8 286.27,-288.87 282.8,-282.8"/>
</g>
<!-- Node3&#45;&gt;Node4 -->
<g id="edge3" class="edge">
<title>Node3&#45;&gt;Node4</title>
<path fill="none" stroke="#63b8ff" d="M253.77,-214.98C261.53,-205.66 269.97,-195.54 275.91,-188.41"/>
<polygon fill="#63b8ff" stroke="#63b8ff" points="251.31,-212.46 247.6,-222.39 256.69,-216.94 251.31,-212.46"/>
</g>
<!-- Node5 -->
<g id="node5" class="node">
<title>Node5</title>
<g id="a_node5"><a xlink:href="ManagerTurn_8cpp.html" target="_top" xlink:title=" ">
<polygon fill="white" stroke="#666666" points="276.75,-132 122.75,-132 122.75,-112 276.75,-112 276.75,-132"/>
<text text-anchor="middle" x="199.75" y="-118.5" font-family="Helvetica,sans-Serif" font-size="10.00">src/managers/ManagerTurn.cpp</text>
</a>
</g>
</g>
<!-- Node4&#45;&gt;Node5 -->
<g id="edge4" class="edge">
<title>Node4&#45;&gt;Node5</title>
<path fill="none" stroke="#63b8ff" d="M259.7,-161.54C245.12,-152.17 226.98,-140.51 214.5,-132.48"/>
<polygon fill="#63b8ff" stroke="#63b8ff" points="257.54,-164.31 267.85,-166.78 261.33,-158.42 257.54,-164.31"/>
</g>
<!-- Node6 -->
<g id="node6" class="node">
<title>Node6</title>
<g id="a_node6"><a xlink:href="SceneEspionage_8h.html" target="_top" xlink:title=" ">
<polygon fill="white" stroke="#666666" points="443.12,-132 294.38,-132 294.38,-112 443.12,-112 443.12,-132"/>
<text text-anchor="middle" x="368.75" y="-118.5" font-family="Helvetica,sans-Serif" font-size="10.00">src/scenes/SceneEspionage.h</text>
</a>
</g>
</g>
<!-- Node4&#45;&gt;Node6 -->
<g id="edge5" class="edge">
<title>Node4&#45;&gt;Node6</title>
<path fill="none" stroke="#63b8ff" d="M308.08,-161.54C322.84,-152.17 341.19,-140.51 353.83,-132.48"/>
<polygon fill="#63b8ff" stroke="#63b8ff" points="306.4,-158.47 299.83,-166.78 310.15,-164.37 306.4,-158.47"/>
</g>
<!-- Node7 -->
<g id="node7" class="node">
<title>Node7</title>
<g id="a_node7"><a xlink:href="SceneEspionage_8cpp.html" target="_top" xlink:title=" ">
<polygon fill="white" stroke="#666666" points="368.38,-76 209.12,-76 209.12,-56 368.38,-56 368.38,-76"/>
<text text-anchor="middle" x="288.75" y="-62.5" font-family="Helvetica,sans-Serif" font-size="10.00">src/scenes/SceneEspionage.cpp</text>
</a>
</g>
</g>
<!-- Node6&#45;&gt;Node7 -->
<g id="edge6" class="edge">
<title>Node6&#45;&gt;Node7</title>
<path fill="none" stroke="#63b8ff" d="M345.45,-105.27C331.63,-95.94 314.57,-84.43 302.79,-76.48"/>
<polygon fill="#63b8ff" stroke="#63b8ff" points="343.31,-108.05 353.56,-110.75 347.23,-102.25 343.31,-108.05"/>
</g>
<!-- Node8 -->
<g id="node8" class="node">
<title>Node8</title>
<g id="a_node8"><a xlink:href="SceneMain_8h.html" target="_top" xlink:title=" ">
<polygon fill="white" stroke="#666666" points="510.75,-76 386.75,-76 386.75,-56 510.75,-56 510.75,-76"/>
<text text-anchor="middle" x="448.75" y="-62.5" font-family="Helvetica,sans-Serif" font-size="10.00">src/scenes/SceneMain.h</text>
</a>
</g>
</g>
<!-- Node6&#45;&gt;Node8 -->
<g id="edge7" class="edge">
<title>Node6&#45;&gt;Node8</title>
<path fill="none" stroke="#63b8ff" d="M392.05,-105.27C405.87,-95.94 422.93,-84.43 434.71,-76.48"/>
<polygon fill="#63b8ff" stroke="#63b8ff" points="390.27,-102.25 383.94,-110.75 394.19,-108.05 390.27,-102.25"/>
</g>
<!-- Node9 -->
<g id="node9" class="node">
<title>Node9</title>
<g id="a_node9"><a xlink:href="SceneMain_8cpp.html" target="_top" xlink:title=" ">
<polygon fill="white" stroke="#666666" points="439,-20 304.5,-20 304.5,0 439,0 439,-20"/>
<text text-anchor="middle" x="371.75" y="-6.5" font-family="Helvetica,sans-Serif" font-size="10.00">src/scenes/SceneMain.cpp</text>
</a>
</g>
</g>
<!-- Node8&#45;&gt;Node9 -->
<g id="edge8" class="edge">
<title>Node8&#45;&gt;Node9</title>
<path fill="none" stroke="#63b8ff" d="M425.93,-49C412.7,-39.72 396.49,-28.35 385.27,-20.48"/>
<polygon fill="#63b8ff" stroke="#63b8ff" points="423.9,-51.85 434.1,-54.72 427.92,-46.12 423.9,-51.85"/>
</g>
<!-- Node10 -->
<g id="node10" class="node">
<title>Node10</title>
<g id="a_node10"><a xlink:href="SceneMenu_8cpp.html" target="_top" xlink:title=" ">
<polygon fill="white" stroke="#666666" points="594.5,-20 457,-20 457,0 594.5,0 594.5,-20"/>
<text text-anchor="middle" x="525.75" y="-6.5" font-family="Helvetica,sans-Serif" font-size="10.00">src/scenes/SceneMenu.cpp</text>
</a>
</g>
</g>
<!-- Node8&#45;&gt;Node10 -->
<g id="edge9" class="edge">
<title>Node8&#45;&gt;Node10</title>
<path fill="none" stroke="#63b8ff" d="M471.57,-49C484.8,-39.72 501.01,-28.35 512.23,-20.48"/>
<polygon fill="#63b8ff" stroke="#63b8ff" points="469.58,-46.12 463.4,-54.72 473.6,-51.85 469.58,-46.12"/>
</g>
</g>
</svg>
