<?xml version="1.0" encoding="UTF-8" standalone="no"?>
<!DOCTYPE svg PUBLIC "-//W3C//DTD SVG 1.1//EN"
 "http://www.w3.org/Graphics/SVG/1.1/DTD/svg11.dtd">
<!-- Generated by graphviz version 12.2.1 (20241206.2353)
 -->
<!-- Title: src/managers/ManagerActionFormation.h Pages: 1 -->
<svg width="613pt" height="208pt"
 viewBox="0.00 0.00 612.62 208.00" xmlns="http://www.w3.org/2000/svg" xmlns:xlink="http://www.w3.org/1999/xlink">
<g id="graph0" class="graph" transform="scale(1 1) rotate(0) translate(4 204)">
<title>src/managers/ManagerActionFormation.h</title>
<!-- Node1 -->
<g id="node1" class="node">
<title>Node1</title>
<g id="a_node1"><a xlink:title=" ">
<polygon fill="#999999" stroke="#666666" points="442.75,-200 299.25,-200 299.25,-168 442.75,-168 442.75,-200"/>
<text text-anchor="start" x="307.25" y="-186.5" font-family="Helvetica,sans-Serif" font-size="10.00">src/managers/ManagerAction</text>
<text text-anchor="middle" x="371" y="-174.5" font-family="Helvetica,sans-Serif" font-size="10.00">Formation.h</text>
</a>
</g>
</g>
<!-- Node2 -->
<g id="node2" class="node">
<title>Node2</title>
<g id="a_node2"><a xlink:href="Entity_8h.html" target="_top" xlink:title=" ">
<polygon fill="white" stroke="#666666" points="210.12,-132 161.88,-132 161.88,-112 210.12,-112 210.12,-132"/>
<text text-anchor="middle" x="186" y="-118.5" font-family="Helvetica,sans-Serif" font-size="10.00">Entity.h</text>
</a>
</g>
</g>
<!-- Node1&#45;&gt;Node2 -->
<g id="edge1" class="edge">
<title>Node1&#45;&gt;Node2</title>
<path fill="none" stroke="#63b8ff" d="M323.36,-167.55C291.51,-157.22 250.29,-143.85 221.35,-134.47"/>
<polygon fill="#63b8ff" stroke="#63b8ff" points="222.56,-131.18 211.97,-131.42 220.4,-137.84 222.56,-131.18"/>
</g>
<!-- Node4 -->
<g id="node4" class="node">
<title>Node4</title>
<g id="a_node4"><a xlink:title=" ">
<polygon fill="#e0e0e0" stroke="#999999" points="40,-20 0,-20 0,0 40,0 40,-20"/>
<text text-anchor="middle" x="20" y="-6.5" font-family="Helvetica,sans-Serif" font-size="10.00">string</text>
</a>
</g>
</g>
<!-- Node1&#45;&gt;Node4 -->
<g id="edge15" class="edge">
<title>Node1&#45;&gt;Node4</title>
<path fill="none" stroke="#63b8ff" d="M298.84,-179.31C224.56,-171.51 110.8,-147.75 46,-76 34.66,-63.44 27.96,-45.32 24.21,-31.4"/>
<polygon fill="#63b8ff" stroke="#63b8ff" points="27.69,-30.89 21.98,-21.97 20.88,-32.5 27.69,-30.89"/>
</g>
<!-- Node7 -->
<g id="node7" class="node">
<title>Node7</title>
<g id="a_node7"><a xlink:title=" ">
<polygon fill="#e0e0e0" stroke="#999999" points="295.62,-20 244.38,-20 244.38,0 295.62,0 295.62,-20"/>
<text text-anchor="middle" x="270" y="-6.5" font-family="Helvetica,sans-Serif" font-size="10.00">memory</text>
</a>
</g>
</g>
<!-- Node1&#45;&gt;Node7 -->
<g id="edge12" class="edge">
<title>Node1&#45;&gt;Node7</title>
<path fill="none" stroke="#63b8ff" d="M347.49,-167.71C335.13,-158.63 320.6,-146.14 311,-132 289.58,-100.45 278.43,-56.69 273.43,-31.36"/>
<polygon fill="#63b8ff" stroke="#63b8ff" points="276.91,-30.94 271.67,-21.74 270.02,-32.2 276.91,-30.94"/>
</g>
<!-- Node9 -->
<g id="node9" class="node">
<title>Node9</title>
<g id="a_node9"><a xlink:href="ManagerGrammar_8h.html" target="_top" xlink:title=" ">
<polygon fill="white" stroke="#666666" points="421.75,-132 320.25,-132 320.25,-112 421.75,-112 421.75,-132"/>
<text text-anchor="middle" x="371" y="-118.5" font-family="Helvetica,sans-Serif" font-size="10.00">ManagerGrammar.h</text>
</a>
</g>
</g>
<!-- Node1&#45;&gt;Node9 -->
<g id="edge10" class="edge">
<title>Node1&#45;&gt;Node9</title>
<path fill="none" stroke="#63b8ff" d="M371,-167.55C371,-160.34 371,-151.66 371,-143.88"/>
<polygon fill="#63b8ff" stroke="#63b8ff" points="374.5,-143.92 371,-133.92 367.5,-143.92 374.5,-143.92"/>
</g>
<!-- Node11 -->
<g id="node11" class="node">
<title>Node11</title>
<g id="a_node11"><a xlink:title=" ">
<polygon fill="#e0e0e0" stroke="#999999" points="474.38,-132 439.62,-132 439.62,-112 474.38,-112 474.38,-132"/>
<text text-anchor="middle" x="457" y="-118.5" font-family="Helvetica,sans-Serif" font-size="10.00">map</text>
</a>
</g>
</g>
<!-- Node1&#45;&gt;Node11 -->
<g id="edge13" class="edge">
<title>Node1&#45;&gt;Node11</title>
<path fill="none" stroke="#63b8ff" d="M393.15,-167.55C405.71,-158.78 421.42,-147.83 434.1,-138.97"/>
<polygon fill="#63b8ff" stroke="#63b8ff" points="436.08,-141.87 442.27,-133.27 432.07,-136.13 436.08,-141.87"/>
</g>
<!-- Node12 -->
<g id="node12" class="node">
<title>Node12</title>
<g id="a_node12"><a xlink:title=" ">
<polygon fill="#e0e0e0" stroke="#999999" points="535.5,-132 492.5,-132 492.5,-112 535.5,-112 535.5,-132"/>
<text text-anchor="middle" x="514" y="-118.5" font-family="Helvetica,sans-Serif" font-size="10.00">vector</text>
</a>
</g>
</g>
<!-- Node1&#45;&gt;Node12 -->
<g id="edge14" class="edge">
<title>Node1&#45;&gt;Node12</title>
<path fill="none" stroke="#63b8ff" d="M407.83,-167.55C430.76,-157.92 459.98,-145.67 481.96,-136.44"/>
<polygon fill="#63b8ff" stroke="#63b8ff" points="483.15,-139.74 491.02,-132.64 480.44,-133.29 483.15,-139.74"/>
</g>
<!-- Node13 -->
<g id="node13" class="node">
<title>Node13</title>
<g id="a_node13"><a xlink:title=" ">
<polygon fill="#e0e0e0" stroke="#999999" points="604.62,-132 553.38,-132 553.38,-112 604.62,-112 604.62,-132"/>
<text text-anchor="middle" x="579" y="-118.5" font-family="Helvetica,sans-Serif" font-size="10.00">sstream</text>
</a>
</g>
</g>
<!-- Node1&#45;&gt;Node13 -->
<g id="edge16" class="edge">
<title>Node1&#45;&gt;Node13</title>
<path fill="none" stroke="#63b8ff" d="M424.57,-167.55C461.5,-156.9 509.63,-143.01 542.27,-133.6"/>
<polygon fill="#63b8ff" stroke="#63b8ff" points="543.03,-137.02 551.67,-130.88 541.09,-130.29 543.03,-137.02"/>
</g>
<!-- Node3 -->
<g id="node3" class="node">
<title>Node3</title>
<g id="a_node3"><a xlink:href="Components_8h.html" target="_top" xlink:title=" ">
<polygon fill="white" stroke="#666666" points="157.88,-76 78.12,-76 78.12,-56 157.88,-56 157.88,-76"/>
<text text-anchor="middle" x="118" y="-62.5" font-family="Helvetica,sans-Serif" font-size="10.00">Components.h</text>
</a>
</g>
</g>
<!-- Node2&#45;&gt;Node3 -->
<g id="edge2" class="edge">
<title>Node2&#45;&gt;Node3</title>
<path fill="none" stroke="#63b8ff" d="M174.16,-111.59C164.31,-103.77 150.07,-92.46 138.39,-83.19"/>
<polygon fill="#63b8ff" stroke="#63b8ff" points="140.9,-80.72 130.89,-77.24 136.55,-86.2 140.9,-80.72"/>
</g>
<!-- Node2&#45;&gt;Node4 -->
<g id="edge8" class="edge">
<title>Node2&#45;&gt;Node4</title>
<path fill="none" stroke="#63b8ff" d="M161.65,-115.84C136.53,-109.61 97.15,-97.22 69,-76 52.63,-63.66 39.09,-44.44 30.41,-30.1"/>
<polygon fill="#63b8ff" stroke="#63b8ff" points="33.54,-28.51 25.52,-21.58 27.47,-32 33.54,-28.51"/>
</g>
<!-- Node2&#45;&gt;Node7 -->
<g id="edge7" class="edge">
<title>Node2&#45;&gt;Node7</title>
<path fill="none" stroke="#63b8ff" d="M186.76,-111.75C188.26,-98.33 192.62,-73.16 205,-56 213.91,-43.65 227.3,-33.55 239.62,-26.08"/>
<polygon fill="#63b8ff" stroke="#63b8ff" points="241.31,-29.14 248.28,-21.17 237.85,-23.06 241.31,-29.14"/>
</g>
<!-- Node8 -->
<g id="node8" class="node">
<title>Node8</title>
<g id="a_node8"><a xlink:title=" ">
<polygon fill="#e0e0e0" stroke="#999999" points="263.88,-76 214.12,-76 214.12,-56 263.88,-56 263.88,-76"/>
<text text-anchor="middle" x="239" y="-62.5" font-family="Helvetica,sans-Serif" font-size="10.00">optional</text>
</a>
</g>
</g>
<!-- Node2&#45;&gt;Node8 -->
<g id="edge9" class="edge">
<title>Node2&#45;&gt;Node8</title>
<path fill="none" stroke="#63b8ff" d="M195.23,-111.59C202.6,-104.08 213.13,-93.35 222.02,-84.3"/>
<polygon fill="#63b8ff" stroke="#63b8ff" points="224.31,-86.97 228.81,-77.38 219.31,-82.06 224.31,-86.97"/>
</g>
<!-- Node3&#45;&gt;Node4 -->
<g id="edge3" class="edge">
<title>Node3&#45;&gt;Node4</title>
<path fill="none" stroke="#63b8ff" d="M100.93,-55.59C86.12,-47.44 64.43,-35.48 47.23,-26"/>
<polygon fill="#63b8ff" stroke="#63b8ff" points="48.98,-22.97 38.53,-21.21 45.6,-29.1 48.98,-22.97"/>
</g>
<!-- Node5 -->
<g id="node5" class="node">
<title>Node5</title>
<g id="a_node5"><a xlink:title=" ">
<polygon fill="#e0e0e0" stroke="#999999" points="161.5,-20 58.5,-20 58.5,0 161.5,0 161.5,-20"/>
<text text-anchor="middle" x="110" y="-6.5" font-family="Helvetica,sans-Serif" font-size="10.00">SFML/Graphics.hpp</text>
</a>
</g>
</g>
<!-- Node3&#45;&gt;Node5 -->
<g id="edge4" class="edge">
<title>Node3&#45;&gt;Node5</title>
<path fill="none" stroke="#63b8ff" d="M116.61,-55.59C115.62,-48.93 114.26,-39.75 113.03,-31.44"/>
<polygon fill="#63b8ff" stroke="#63b8ff" points="116.53,-31.17 111.6,-21.8 109.6,-32.2 116.53,-31.17"/>
</g>
<!-- Node6 -->
<g id="node6" class="node">
<title>Node6</title>
<g id="a_node6"><a xlink:title=" ">
<polygon fill="#e0e0e0" stroke="#999999" points="226.38,-20 179.62,-20 179.62,0 226.38,0 226.38,-20"/>
<text text-anchor="middle" x="203" y="-6.5" font-family="Helvetica,sans-Serif" font-size="10.00">Vec2.h</text>
</a>
</g>
</g>
<!-- Node3&#45;&gt;Node6 -->
<g id="edge5" class="edge">
<title>Node3&#45;&gt;Node6</title>
<path fill="none" stroke="#63b8ff" d="M132.81,-55.59C145.4,-47.59 163.75,-35.93 178.53,-26.54"/>
<polygon fill="#63b8ff" stroke="#63b8ff" points="180.24,-29.61 186.8,-21.29 176.48,-23.7 180.24,-29.61"/>
</g>
<!-- Node3&#45;&gt;Node7 -->
<g id="edge6" class="edge">
<title>Node3&#45;&gt;Node7</title>
<path fill="none" stroke="#63b8ff" d="M144.48,-55.59C169.07,-46.86 205.92,-33.76 233.34,-24.02"/>
<polygon fill="#63b8ff" stroke="#63b8ff" points="234.4,-27.36 242.65,-20.71 232.06,-20.76 234.4,-27.36"/>
</g>
<!-- Node10 -->
<g id="node10" class="node">
<title>Node10</title>
<g id="a_node10"><a xlink:title=" ">
<polygon fill="#e0e0e0" stroke="#999999" points="413.88,-76 328.12,-76 328.12,-56 413.88,-56 413.88,-76"/>
<text text-anchor="middle" x="371" y="-62.5" font-family="Helvetica,sans-Serif" font-size="10.00">BicolGrammar.h</text>
</a>
</g>
</g>
<!-- Node9&#45;&gt;Node10 -->
<g id="edge11" class="edge">
<title>Node9&#45;&gt;Node10</title>
<path fill="none" stroke="#63b8ff" d="M371,-111.59C371,-105.01 371,-95.96 371,-87.73"/>
<polygon fill="#63b8ff" stroke="#63b8ff" points="374.5,-87.81 371,-77.81 367.5,-87.81 374.5,-87.81"/>
</g>
</g>
</svg>
