<?xml version="1.0" encoding="UTF-8" standalone="no"?>
<!DOCTYPE svg PUBLIC "-//W3C//DTD SVG 1.1//EN"
 "http://www.w3.org/Graphics/SVG/1.1/DTD/svg11.dtd">
<!-- Generated by graphviz version 12.2.1 (20241206.2353)
 -->
<!-- Title: src/managers/ManagerGrammar.h Pages: 1 -->
<svg width="591pt" height="388pt"
 viewBox="0.00 0.00 590.50 388.00" xmlns="http://www.w3.org/2000/svg" xmlns:xlink="http://www.w3.org/1999/xlink">
<g id="graph0" class="graph" transform="scale(1 1) rotate(0) translate(4 384)">
<title>src/managers/ManagerGrammar.h</title>
<!-- Node1 -->
<g id="node1" class="node">
<title>Node1</title>
<g id="a_node1"><a xlink:title=" ">
<polygon fill="#999999" stroke="#666666" points="352.62,-380 188.88,-380 188.88,-360 352.62,-360 352.62,-380"/>
<text text-anchor="middle" x="270.75" y="-366.5" font-family="Helvetica,sans-Serif" font-size="10.00">src/managers/ManagerGrammar.h</text>
</a>
</g>
</g>
<!-- Node2 -->
<g id="node2" class="node">
<title>Node2</title>
<g id="a_node2"><a xlink:href="ManagerActionFormation_8h.html" target="_top" xlink:title=" ">
<polygon fill="white" stroke="#666666" points="258.5,-324 115,-324 115,-292 258.5,-292 258.5,-324"/>
<text text-anchor="start" x="123" y="-310.5" font-family="Helvetica,sans-Serif" font-size="10.00">src/managers/ManagerAction</text>
<text text-anchor="middle" x="186.75" y="-298.5" font-family="Helvetica,sans-Serif" font-size="10.00">Formation.h</text>
</a>
</g>
</g>
<!-- Node1&#45;&gt;Node2 -->
<g id="edge1" class="edge">
<title>Node1&#45;&gt;Node2</title>
<path fill="none" stroke="#63b8ff" d="M248.41,-353.04C235.97,-344.16 220.57,-333.16 208.27,-324.37"/>
<polygon fill="#63b8ff" stroke="#63b8ff" points="246.22,-355.78 256.39,-358.75 250.29,-350.08 246.22,-355.78"/>
</g>
<!-- Node12 -->
<g id="node12" class="node">
<title>Node12</title>
<g id="a_node12"><a xlink:href="ManagerSystem_8h.html" target="_top" xlink:title=" ">
<polygon fill="white" stroke="#666666" points="442.62,-318 284.88,-318 284.88,-298 442.62,-298 442.62,-318"/>
<text text-anchor="middle" x="363.75" y="-304.5" font-family="Helvetica,sans-Serif" font-size="10.00">src/managers/ManagerSystem.h</text>
</a>
</g>
</g>
<!-- Node1&#45;&gt;Node12 -->
<g id="edge12" class="edge">
<title>Node1&#45;&gt;Node12</title>
<path fill="none" stroke="#63b8ff" d="M294.72,-353.54C312,-342.39 334.75,-327.71 349.32,-318.31"/>
<polygon fill="#63b8ff" stroke="#63b8ff" points="293.06,-350.44 286.55,-358.8 296.85,-356.32 293.06,-350.44"/>
</g>
<!-- Node3 -->
<g id="node3" class="node">
<title>Node3</title>
<g id="a_node3"><a xlink:href="ManagerActionFormation_8cpp.html" target="_top" xlink:title=" ">
<polygon fill="white" stroke="#666666" points="143.5,-256 0,-256 0,-224 143.5,-224 143.5,-256"/>
<text text-anchor="start" x="8" y="-242.5" font-family="Helvetica,sans-Serif" font-size="10.00">src/managers/ManagerAction</text>
<text text-anchor="middle" x="71.75" y="-230.5" font-family="Helvetica,sans-Serif" font-size="10.00">Formation.cpp</text>
</a>
</g>
</g>
<!-- Node2&#45;&gt;Node3 -->
<g id="edge2" class="edge">
<title>Node2&#45;&gt;Node3</title>
<path fill="none" stroke="#63b8ff" d="M149.81,-285.8C133.13,-276.23 113.8,-265.13 98.54,-256.38"/>
<polygon fill="#63b8ff" stroke="#63b8ff" points="148.06,-288.83 158.47,-290.77 151.54,-282.76 148.06,-288.83"/>
</g>
<!-- Node4 -->
<g id="node4" class="node">
<title>Node4</title>
<g id="a_node4"><a xlink:href="ManagerActionResolution_8h.html" target="_top" xlink:title=" ">
<polygon fill="white" stroke="#666666" points="343.5,-256 200,-256 200,-224 343.5,-224 343.5,-256"/>
<text text-anchor="start" x="208" y="-242.5" font-family="Helvetica,sans-Serif" font-size="10.00">src/managers/ManagerAction</text>
<text text-anchor="middle" x="271.75" y="-230.5" font-family="Helvetica,sans-Serif" font-size="10.00">Resolution.h</text>
</a>
</g>
</g>
<!-- Node2&#45;&gt;Node4 -->
<g id="edge3" class="edge">
<title>Node2&#45;&gt;Node4</title>
<path fill="none" stroke="#63b8ff" d="M215.25,-284.87C227.26,-275.55 240.95,-264.91 251.85,-256.45"/>
<polygon fill="#63b8ff" stroke="#63b8ff" points="213.41,-281.87 207.66,-290.76 217.7,-287.4 213.41,-281.87"/>
</g>
<!-- Node5 -->
<g id="node5" class="node">
<title>Node5</title>
<g id="a_node5"><a xlink:href="ManagerTurn_8h.html" target="_top" xlink:title=" ">
<polygon fill="white" stroke="#666666" points="343.5,-188 200,-188 200,-168 343.5,-168 343.5,-188"/>
<text text-anchor="middle" x="271.75" y="-174.5" font-family="Helvetica,sans-Serif" font-size="10.00">src/managers/ManagerTurn.h</text>
</a>
</g>
</g>
<!-- Node2&#45;&gt;Node5 -->
<g id="edge11" class="edge">
<title>Node2&#45;&gt;Node5</title>
<path fill="none" stroke="#63b8ff" d="M181.73,-280.31C179.92,-263 180.41,-240.65 190.75,-224 201.62,-206.51 221.87,-195.26 239.4,-188.38"/>
<polygon fill="#63b8ff" stroke="#63b8ff" points="178.25,-280.7 183.1,-290.12 185.18,-279.73 178.25,-280.7"/>
</g>
<!-- Node4&#45;&gt;Node5 -->
<g id="edge4" class="edge">
<title>Node4&#45;&gt;Node5</title>
<path fill="none" stroke="#63b8ff" d="M271.75,-212.08C271.75,-203.6 271.75,-194.8 271.75,-188.41"/>
<polygon fill="#63b8ff" stroke="#63b8ff" points="268.25,-212.03 271.75,-222.03 275.25,-212.03 268.25,-212.03"/>
</g>
<!-- Node6 -->
<g id="node6" class="node">
<title>Node6</title>
<g id="a_node6"><a xlink:href="ManagerTurn_8cpp.html" target="_top" xlink:title=" ">
<polygon fill="white" stroke="#666666" points="264.75,-132 110.75,-132 110.75,-112 264.75,-112 264.75,-132"/>
<text text-anchor="middle" x="187.75" y="-118.5" font-family="Helvetica,sans-Serif" font-size="10.00">src/managers/ManagerTurn.cpp</text>
</a>
</g>
</g>
<!-- Node5&#45;&gt;Node6 -->
<g id="edge5" class="edge">
<title>Node5&#45;&gt;Node6</title>
<path fill="none" stroke="#63b8ff" d="M247.7,-161.54C233.12,-152.17 214.98,-140.51 202.5,-132.48"/>
<polygon fill="#63b8ff" stroke="#63b8ff" points="245.54,-164.31 255.85,-166.78 249.33,-158.42 245.54,-164.31"/>
</g>
<!-- Node7 -->
<g id="node7" class="node">
<title>Node7</title>
<g id="a_node7"><a xlink:href="SceneEspionage_8h.html" target="_top" xlink:title=" ">
<polygon fill="white" stroke="#666666" points="431.12,-132 282.38,-132 282.38,-112 431.12,-112 431.12,-132"/>
<text text-anchor="middle" x="356.75" y="-118.5" font-family="Helvetica,sans-Serif" font-size="10.00">src/scenes/SceneEspionage.h</text>
</a>
</g>
</g>
<!-- Node5&#45;&gt;Node7 -->
<g id="edge6" class="edge">
<title>Node5&#45;&gt;Node7</title>
<path fill="none" stroke="#63b8ff" d="M296.08,-161.54C310.84,-152.17 329.19,-140.51 341.83,-132.48"/>
<polygon fill="#63b8ff" stroke="#63b8ff" points="294.4,-158.47 287.83,-166.78 298.15,-164.37 294.4,-158.47"/>
</g>
<!-- Node8 -->
<g id="node8" class="node">
<title>Node8</title>
<g id="a_node8"><a xlink:href="SceneEspionage_8cpp.html" target="_top" xlink:title=" ">
<polygon fill="white" stroke="#666666" points="356.38,-76 197.12,-76 197.12,-56 356.38,-56 356.38,-76"/>
<text text-anchor="middle" x="276.75" y="-62.5" font-family="Helvetica,sans-Serif" font-size="10.00">src/scenes/SceneEspionage.cpp</text>
</a>
</g>
</g>
<!-- Node7&#45;&gt;Node8 -->
<g id="edge7" class="edge">
<title>Node7&#45;&gt;Node8</title>
<path fill="none" stroke="#63b8ff" d="M333.45,-105.27C319.63,-95.94 302.57,-84.43 290.79,-76.48"/>
<polygon fill="#63b8ff" stroke="#63b8ff" points="331.31,-108.05 341.56,-110.75 335.23,-102.25 331.31,-108.05"/>
</g>
<!-- Node9 -->
<g id="node9" class="node">
<title>Node9</title>
<g id="a_node9"><a xlink:href="SceneMain_8h.html" target="_top" xlink:title=" ">
<polygon fill="white" stroke="#666666" points="498.75,-76 374.75,-76 374.75,-56 498.75,-56 498.75,-76"/>
<text text-anchor="middle" x="436.75" y="-62.5" font-family="Helvetica,sans-Serif" font-size="10.00">src/scenes/SceneMain.h</text>
</a>
</g>
</g>
<!-- Node7&#45;&gt;Node9 -->
<g id="edge8" class="edge">
<title>Node7&#45;&gt;Node9</title>
<path fill="none" stroke="#63b8ff" d="M380.05,-105.27C393.87,-95.94 410.93,-84.43 422.71,-76.48"/>
<polygon fill="#63b8ff" stroke="#63b8ff" points="378.27,-102.25 371.94,-110.75 382.19,-108.05 378.27,-102.25"/>
</g>
<!-- Node10 -->
<g id="node10" class="node">
<title>Node10</title>
<g id="a_node10"><a xlink:href="SceneMain_8cpp.html" target="_top" xlink:title=" ">
<polygon fill="white" stroke="#666666" points="427,-20 292.5,-20 292.5,0 427,0 427,-20"/>
<text text-anchor="middle" x="359.75" y="-6.5" font-family="Helvetica,sans-Serif" font-size="10.00">src/scenes/SceneMain.cpp</text>
</a>
</g>
</g>
<!-- Node9&#45;&gt;Node10 -->
<g id="edge9" class="edge">
<title>Node9&#45;&gt;Node10</title>
<path fill="none" stroke="#63b8ff" d="M413.93,-49C400.7,-39.72 384.49,-28.35 373.27,-20.48"/>
<polygon fill="#63b8ff" stroke="#63b8ff" points="411.9,-51.85 422.1,-54.72 415.92,-46.12 411.9,-51.85"/>
</g>
<!-- Node11 -->
<g id="node11" class="node">
<title>Node11</title>
<g id="a_node11"><a xlink:href="SceneMenu_8cpp.html" target="_top" xlink:title=" ">
<polygon fill="white" stroke="#666666" points="582.5,-20 445,-20 445,0 582.5,0 582.5,-20"/>
<text text-anchor="middle" x="513.75" y="-6.5" font-family="Helvetica,sans-Serif" font-size="10.00">src/scenes/SceneMenu.cpp</text>
</a>
</g>
</g>
<!-- Node9&#45;&gt;Node11 -->
<g id="edge10" class="edge">
<title>Node9&#45;&gt;Node11</title>
<path fill="none" stroke="#63b8ff" d="M459.57,-49C472.8,-39.72 489.01,-28.35 500.23,-20.48"/>
<polygon fill="#63b8ff" stroke="#63b8ff" points="457.58,-46.12 451.4,-54.72 461.6,-51.85 457.58,-46.12"/>
</g>
<!-- Node12&#45;&gt;Node4 -->
<g id="edge13" class="edge">
<title>Node12&#45;&gt;Node4</title>
<path fill="none" stroke="#63b8ff" d="M341.64,-291.14C326.9,-280.57 307.65,-266.75 293.08,-256.3"/>
<polygon fill="#63b8ff" stroke="#63b8ff" points="339.17,-293.68 349.34,-296.66 343.25,-287.99 339.17,-293.68"/>
</g>
<!-- Node12&#45;&gt;Node5 -->
<g id="edge15" class="edge">
<title>Node12&#45;&gt;Node5</title>
<path fill="none" stroke="#63b8ff" d="M365.93,-286.11C366.73,-268.13 365.19,-242.27 352.75,-224 340.98,-206.71 320.28,-195.38 302.75,-188.41"/>
<polygon fill="#63b8ff" stroke="#63b8ff" points="362.44,-285.84 365.18,-296.08 369.42,-286.37 362.44,-285.84"/>
</g>
<!-- Node13 -->
<g id="node13" class="node">
<title>Node13</title>
<g id="a_node13"><a xlink:href="ManagerSystem_8cpp.html" target="_top" xlink:title=" ">
<polygon fill="white" stroke="#666666" points="567.88,-250 399.62,-250 399.62,-230 567.88,-230 567.88,-250"/>
<text text-anchor="middle" x="483.75" y="-236.5" font-family="Helvetica,sans-Serif" font-size="10.00">src/managers/ManagerSystem.cpp</text>
</a>
</g>
</g>
<!-- Node12&#45;&gt;Node13 -->
<g id="edge14" class="edge">
<title>Node12&#45;&gt;Node13</title>
<path fill="none" stroke="#63b8ff" d="M390.86,-292.09C414.09,-279.32 446.82,-261.31 466.59,-250.44"/>
<polygon fill="#63b8ff" stroke="#63b8ff" points="389.34,-288.93 382.27,-296.81 392.72,-295.06 389.34,-288.93"/>
</g>
</g>
</svg>
