<?xml version="1.0" encoding="UTF-8" standalone="no"?>
<!DOCTYPE svg PUBLIC "-//W3C//DTD SVG 1.1//EN"
 "http://www.w3.org/Graphics/SVG/1.1/DTD/svg11.dtd">
<!-- Generated by graphviz version 12.2.1 (20241206.2353)
 -->
<!-- Title: detail::from_json Pages: 1 -->
<svg width="769pt" height="135pt"
 viewBox="0.00 0.00 769.25 135.00" xmlns="http://www.w3.org/2000/svg" xmlns:xlink="http://www.w3.org/1999/xlink">
<g id="graph0" class="graph" transform="scale(1 1) rotate(0) translate(4 131)">
<title>detail::from_json</title>
<!-- Node1 -->
<g id="node1" class="node">
<title>Node1</title>
<g id="a_node1"><a xlink:title=" ">
<polygon fill="#999999" stroke="#666666" points="88,-105 0,-105 0,-85 88,-85 88,-105"/>
<text text-anchor="middle" x="44" y="-91.5" font-family="Helvetica,sans-Serif" font-size="10.00">detail::from_json</text>
</a>
</g>
</g>
<!-- Node2 -->
<g id="node2" class="node">
<title>Node2</title>
<g id="a_node2"><a xlink:href="namespacedetail.html#ad10dc6af43ec8e72954eb2ac08c8698b" target="_top" xlink:title=" ">
<polygon fill="white" stroke="#666666" points="230.75,-111 124,-111 124,-79 230.75,-79 230.75,-111"/>
<text text-anchor="start" x="132" y="-97.5" font-family="Helvetica,sans-Serif" font-size="10.00">detail::get_arithmetic</text>
<text text-anchor="middle" x="177.38" y="-85.5" font-family="Helvetica,sans-Serif" font-size="10.00">_value</text>
</a>
</g>
</g>
<!-- Node1&#45;&gt;Node2 -->
<g id="edge1" class="edge">
<title>Node1&#45;&gt;Node2</title>
<path fill="none" stroke="#63b8ff" d="M88.38,-95C96.1,-95 104.29,-95 112.44,-95"/>
<polygon fill="#63b8ff" stroke="#63b8ff" points="112.38,-98.5 122.38,-95 112.38,-91.5 112.38,-98.5"/>
</g>
<!-- Node3 -->
<g id="node3" class="node">
<title>Node3</title>
<g id="a_node3"><a xlink:href="namespacedetail.html#a266fb3d4bf633ad6c506434cc91164da" target="_top" xlink:title=" ">
<polygon fill="white" stroke="#666666" points="619.25,-108 544.75,-108 544.75,-88 619.25,-88 619.25,-108"/>
<text text-anchor="middle" x="582" y="-94.5" font-family="Helvetica,sans-Serif" font-size="10.00">detail::concat</text>
</a>
</g>
</g>
<!-- Node2&#45;&gt;Node3 -->
<g id="edge2" class="edge">
<title>Node2&#45;&gt;Node3</title>
<path fill="none" stroke="#63b8ff" d="M231.18,-96.95C242.89,-97.34 255.24,-97.71 266.75,-98 374.28,-100.69 401.2,-101.49 508.75,-100 516.68,-99.89 525.1,-99.71 533.28,-99.51"/>
<polygon fill="#63b8ff" stroke="#63b8ff" points="533.2,-103.01 543.11,-99.24 533.02,-96.01 533.2,-103.01"/>
</g>
<!-- Node6 -->
<g id="node6" class="node">
<title>Node6</title>
<g id="a_node6"><a xlink:href="classdetail_1_1type__error.html#a2d25372628cf1e09ec67718f4bc42762" target="_top" xlink:title=" ">
<polygon fill="white" stroke="#666666" points="355.5,-89 266.75,-89 266.75,-57 355.5,-57 355.5,-89"/>
<text text-anchor="start" x="274.75" y="-75.5" font-family="Helvetica,sans-Serif" font-size="10.00">detail::type_error</text>
<text text-anchor="middle" x="311.12" y="-63.5" font-family="Helvetica,sans-Serif" font-size="10.00">::create</text>
</a>
</g>
</g>
<!-- Node2&#45;&gt;Node6 -->
<g id="edge5" class="edge">
<title>Node2&#45;&gt;Node6</title>
<path fill="none" stroke="#63b8ff" d="M231.2,-86.18C239.18,-84.85 247.43,-83.47 255.45,-82.13"/>
<polygon fill="#63b8ff" stroke="#63b8ff" points="255.8,-85.62 265.09,-80.52 254.65,-78.72 255.8,-85.62"/>
</g>
<!-- Node4 -->
<g id="node4" class="node">
<title>Node4</title>
<g id="a_node4"><a xlink:href="namespacedetail.html#a89f967b745cf8df11ba9d59f93d97753" target="_top" xlink:title=" ">
<polygon fill="white" stroke="#666666" points="756,-127 660.5,-127 660.5,-107 756,-107 756,-127"/>
<text text-anchor="middle" x="708.25" y="-113.5" font-family="Helvetica,sans-Serif" font-size="10.00">detail::concat_into</text>
</a>
</g>
</g>
<!-- Node3&#45;&gt;Node4 -->
<g id="edge3" class="edge">
<title>Node3&#45;&gt;Node4</title>
<path fill="none" stroke="#63b8ff" d="M619.61,-103.6C628.86,-105.01 639.04,-106.57 649.07,-108.1"/>
<polygon fill="#63b8ff" stroke="#63b8ff" points="648.38,-111.54 658.79,-109.59 649.44,-104.62 648.38,-111.54"/>
</g>
<!-- Node5 -->
<g id="node5" class="node">
<title>Node5</title>
<g id="a_node5"><a xlink:href="namespacedetail.html#ac185140ed8c8fcc07a302a890b714b0d" target="_top" xlink:title=" ">
<polygon fill="white" stroke="#666666" points="761.25,-89 655.25,-89 655.25,-69 761.25,-69 761.25,-89"/>
<text text-anchor="middle" x="708.25" y="-75.5" font-family="Helvetica,sans-Serif" font-size="10.00">detail::concat_length</text>
</a>
</g>
</g>
<!-- Node3&#45;&gt;Node5 -->
<g id="edge4" class="edge">
<title>Node3&#45;&gt;Node5</title>
<path fill="none" stroke="#63b8ff" d="M619.61,-92.4C627.19,-91.24 635.38,-89.99 643.61,-88.73"/>
<polygon fill="#63b8ff" stroke="#63b8ff" points="643.94,-92.22 653.3,-87.25 642.88,-85.3 643.94,-92.22"/>
</g>
<!-- Node6&#45;&gt;Node3 -->
<g id="edge6" class="edge">
<title>Node6&#45;&gt;Node3</title>
<path fill="none" stroke="#63b8ff" d="M355.92,-77.07C404.66,-81.6 483.13,-88.9 533.36,-93.57"/>
<polygon fill="#63b8ff" stroke="#63b8ff" points="532.77,-97.03 543.05,-94.47 533.42,-90.06 532.77,-97.03"/>
</g>
<!-- Node7 -->
<g id="node7" class="node">
<title>Node7</title>
<g id="a_node7"><a xlink:href="classdetail_1_1exception.html#a6b4a786b5c1c25dd3edaceb1bf2d5120" target="_top" xlink:title=" ">
<polygon fill="white" stroke="#666666" points="496.75,-70 403.5,-70 403.5,-38 496.75,-38 496.75,-70"/>
<text text-anchor="start" x="411.5" y="-56.5" font-family="Helvetica,sans-Serif" font-size="10.00">detail::exception::</text>
<text text-anchor="middle" x="450.12" y="-44.5" font-family="Helvetica,sans-Serif" font-size="10.00">diagnostics</text>
</a>
</g>
</g>
<!-- Node6&#45;&gt;Node7 -->
<g id="edge7" class="edge">
<title>Node6&#45;&gt;Node7</title>
<path fill="none" stroke="#63b8ff" d="M355.85,-66.94C367.36,-65.34 379.95,-63.59 392.06,-61.91"/>
<polygon fill="#63b8ff" stroke="#63b8ff" points="392.53,-65.38 401.96,-60.54 391.57,-58.45 392.53,-65.38"/>
</g>
<!-- Node8 -->
<g id="node8" class="node">
<title>Node8</title>
<g id="a_node8"><a xlink:href="classdetail_1_1exception.html#a8f1eb56b9964c8dd84d89d0da98d883b" target="_top" xlink:title=" ">
<polygon fill="white" stroke="#666666" points="508.75,-20 391.5,-20 391.5,0 508.75,0 508.75,-20"/>
<text text-anchor="middle" x="450.12" y="-6.5" font-family="Helvetica,sans-Serif" font-size="10.00">detail::exception::name</text>
</a>
</g>
</g>
<!-- Node6&#45;&gt;Node8 -->
<g id="edge8" class="edge">
<title>Node6&#45;&gt;Node8</title>
<path fill="none" stroke="#63b8ff" d="M338.67,-56.64C353.8,-47.74 373.31,-36.96 391.5,-29 395.29,-27.34 399.28,-25.74 403.31,-24.23"/>
<polygon fill="#63b8ff" stroke="#63b8ff" points="404.32,-27.58 412.56,-20.93 401.97,-20.99 404.32,-27.58"/>
</g>
<!-- Node8&#45;&gt;Node3 -->
<g id="edge9" class="edge">
<title>Node8&#45;&gt;Node3</title>
<path fill="none" stroke="#63b8ff" d="M490.6,-20.41C496.88,-22.79 503.15,-25.64 508.75,-29 530.92,-42.3 551.77,-63.51 565.32,-78.9"/>
<polygon fill="#63b8ff" stroke="#63b8ff" points="562.62,-81.13 571.77,-86.46 567.94,-76.59 562.62,-81.13"/>
</g>
</g>
</svg>
