<?xml version="1.0" encoding="UTF-8" standalone="no"?>
<!DOCTYPE svg PUBLIC "-//W3C//DTD SVG 1.1//EN"
 "http://www.w3.org/Graphics/SVG/1.1/DTD/svg11.dtd">
<!-- Generated by graphviz version 12.2.1 (20241206.2353)
 -->
<!-- Title: detail::to_string Pages: 1 -->
<svg width="225pt" height="28pt"
 viewBox="0.00 0.00 225.25 28.00" xmlns="http://www.w3.org/2000/svg" xmlns:xlink="http://www.w3.org/1999/xlink">
<g id="graph0" class="graph" transform="scale(1 1) rotate(0) translate(4 24)">
<title>detail::to_string</title>
<!-- Node1 -->
<g id="node1" class="node">
<title>Node1</title>
<g id="a_node1"><a xlink:title=" ">
<polygon fill="#999999" stroke="#666666" points="82.75,-20 0,-20 0,0 82.75,0 82.75,-20"/>
<text text-anchor="middle" x="41.38" y="-6.5" font-family="Helvetica,sans-Serif" font-size="10.00">detail::to_string</text>
</a>
</g>
</g>
<!-- Node2 -->
<g id="node2" class="node">
<title>Node2</title>
<g id="a_node2"><a xlink:href="namespacedetail.html#a5c44faccf48735587df161d056c084e5" target="_top" xlink:title=" ">
<polygon fill="white" stroke="#666666" points="217.25,-20 118.75,-20 118.75,0 217.25,0 217.25,-20"/>
<text text-anchor="middle" x="168" y="-6.5" font-family="Helvetica,sans-Serif" font-size="10.00">detail::int_to_string</text>
</a>
</g>
</g>
<!-- Node1&#45;&gt;Node2 -->
<g id="edge1" class="edge">
<title>Node1&#45;&gt;Node2</title>
<path fill="none" stroke="#63b8ff" d="M83.18,-3.62C90.81,-3.35 98.92,-3.23 106.98,-3.25"/>
<polygon fill="#63b8ff" stroke="#63b8ff" points="106.73,-6.75 116.77,-3.38 106.82,0.25 106.73,-6.75"/>
</g>
<!-- Node2&#45;&gt;Node1 -->
<g id="edge2" class="edge">
<title>Node2&#45;&gt;Node1</title>
<path fill="none" stroke="#63b8ff" d="M118.29,-16.61C110.48,-16.77 102.38,-16.8 94.5,-16.67"/>
<polygon fill="#63b8ff" stroke="#63b8ff" points="94.78,-13.18 84.69,-16.42 94.6,-20.17 94.78,-13.18"/>
</g>
</g>
</svg>
