<?xml version="1.0" encoding="UTF-8" standalone="no"?>
<!DOCTYPE svg PUBLIC "-//W3C//DTD SVG 1.1//EN"
 "http://www.w3.org/Graphics/SVG/1.1/DTD/svg11.dtd">
<!-- Generated by graphviz version 12.2.1 (20241206.2353)
 -->
<!-- Title: detail::from_json Pages: 1 -->
<svg width="627pt" height="135pt"
 viewBox="0.00 0.00 626.50 135.00" xmlns="http://www.w3.org/2000/svg" xmlns:xlink="http://www.w3.org/1999/xlink">
<g id="graph0" class="graph" transform="scale(1 1) rotate(0) translate(4 131)">
<title>detail::from_json</title>
<!-- Node1 -->
<g id="node1" class="node">
<title>Node1</title>
<g id="a_node1"><a xlink:title=" ">
<polygon fill="#999999" stroke="#666666" points="88,-105 0,-105 0,-85 88,-85 88,-105"/>
<text text-anchor="middle" x="44" y="-91.5" font-family="Helvetica,sans-Serif" font-size="10.00">detail::from_json</text>
</a>
</g>
</g>
<!-- Node2 -->
<g id="node2" class="node">
<title>Node2</title>
<g id="a_node2"><a xlink:href="namespacedetail.html#a266fb3d4bf633ad6c506434cc91164da" target="_top" xlink:title=" ">
<polygon fill="white" stroke="#666666" points="476.5,-108 402,-108 402,-88 476.5,-88 476.5,-108"/>
<text text-anchor="middle" x="439.25" y="-94.5" font-family="Helvetica,sans-Serif" font-size="10.00">detail::concat</text>
</a>
</g>
</g>
<!-- Node1&#45;&gt;Node2 -->
<g id="edge1" class="edge">
<title>Node1&#45;&gt;Node2</title>
<path fill="none" stroke="#63b8ff" d="M88.46,-96.82C100.01,-97.26 112.48,-97.69 124,-98 231.52,-100.9 258.45,-101.49 366,-100 373.93,-99.89 382.35,-99.71 390.53,-99.51"/>
<polygon fill="#63b8ff" stroke="#63b8ff" points="390.45,-103.01 400.36,-99.24 390.27,-96.01 390.45,-103.01"/>
</g>
<!-- Node5 -->
<g id="node5" class="node">
<title>Node5</title>
<g id="a_node5"><a xlink:href="classdetail_1_1type__error.html#a2d25372628cf1e09ec67718f4bc42762" target="_top" xlink:title=" ">
<polygon fill="white" stroke="#666666" points="212.75,-89 124,-89 124,-57 212.75,-57 212.75,-89"/>
<text text-anchor="start" x="132" y="-75.5" font-family="Helvetica,sans-Serif" font-size="10.00">detail::type_error</text>
<text text-anchor="middle" x="168.38" y="-63.5" font-family="Helvetica,sans-Serif" font-size="10.00">::create</text>
</a>
</g>
</g>
<!-- Node1&#45;&gt;Node5 -->
<g id="edge4" class="edge">
<title>Node1&#45;&gt;Node5</title>
<path fill="none" stroke="#63b8ff" d="M88.49,-87.18C96.24,-85.79 104.41,-84.32 112.43,-82.88"/>
<polygon fill="#63b8ff" stroke="#63b8ff" points="112.9,-86.35 122.12,-81.14 111.66,-79.46 112.9,-86.35"/>
</g>
<!-- Node3 -->
<g id="node3" class="node">
<title>Node3</title>
<g id="a_node3"><a xlink:href="namespacedetail.html#a89f967b745cf8df11ba9d59f93d97753" target="_top" xlink:title=" ">
<polygon fill="white" stroke="#666666" points="613.25,-127 517.75,-127 517.75,-107 613.25,-107 613.25,-127"/>
<text text-anchor="middle" x="565.5" y="-113.5" font-family="Helvetica,sans-Serif" font-size="10.00">detail::concat_into</text>
</a>
</g>
</g>
<!-- Node2&#45;&gt;Node3 -->
<g id="edge2" class="edge">
<title>Node2&#45;&gt;Node3</title>
<path fill="none" stroke="#63b8ff" d="M476.86,-103.6C486.11,-105.01 496.29,-106.57 506.32,-108.1"/>
<polygon fill="#63b8ff" stroke="#63b8ff" points="505.63,-111.54 516.04,-109.59 506.69,-104.62 505.63,-111.54"/>
</g>
<!-- Node4 -->
<g id="node4" class="node">
<title>Node4</title>
<g id="a_node4"><a xlink:href="namespacedetail.html#ac185140ed8c8fcc07a302a890b714b0d" target="_top" xlink:title=" ">
<polygon fill="white" stroke="#666666" points="618.5,-89 512.5,-89 512.5,-69 618.5,-69 618.5,-89"/>
<text text-anchor="middle" x="565.5" y="-75.5" font-family="Helvetica,sans-Serif" font-size="10.00">detail::concat_length</text>
</a>
</g>
</g>
<!-- Node2&#45;&gt;Node4 -->
<g id="edge3" class="edge">
<title>Node2&#45;&gt;Node4</title>
<path fill="none" stroke="#63b8ff" d="M476.86,-92.4C484.44,-91.24 492.63,-89.99 500.86,-88.73"/>
<polygon fill="#63b8ff" stroke="#63b8ff" points="501.19,-92.22 510.55,-87.25 500.13,-85.3 501.19,-92.22"/>
</g>
<!-- Node5&#45;&gt;Node2 -->
<g id="edge5" class="edge">
<title>Node5&#45;&gt;Node2</title>
<path fill="none" stroke="#63b8ff" d="M213.17,-77.07C261.91,-81.6 340.38,-88.9 390.61,-93.57"/>
<polygon fill="#63b8ff" stroke="#63b8ff" points="390.02,-97.03 400.3,-94.47 390.67,-90.06 390.02,-97.03"/>
</g>
<!-- Node6 -->
<g id="node6" class="node">
<title>Node6</title>
<g id="a_node6"><a xlink:href="classdetail_1_1exception.html#a6b4a786b5c1c25dd3edaceb1bf2d5120" target="_top" xlink:title=" ">
<polygon fill="white" stroke="#666666" points="354,-70 260.75,-70 260.75,-38 354,-38 354,-70"/>
<text text-anchor="start" x="268.75" y="-56.5" font-family="Helvetica,sans-Serif" font-size="10.00">detail::exception::</text>
<text text-anchor="middle" x="307.38" y="-44.5" font-family="Helvetica,sans-Serif" font-size="10.00">diagnostics</text>
</a>
</g>
</g>
<!-- Node5&#45;&gt;Node6 -->
<g id="edge6" class="edge">
<title>Node5&#45;&gt;Node6</title>
<path fill="none" stroke="#63b8ff" d="M213.1,-66.94C224.61,-65.34 237.2,-63.59 249.31,-61.91"/>
<polygon fill="#63b8ff" stroke="#63b8ff" points="249.78,-65.38 259.21,-60.54 248.82,-58.45 249.78,-65.38"/>
</g>
<!-- Node7 -->
<g id="node7" class="node">
<title>Node7</title>
<g id="a_node7"><a xlink:href="classdetail_1_1exception.html#a8f1eb56b9964c8dd84d89d0da98d883b" target="_top" xlink:title=" ">
<polygon fill="white" stroke="#666666" points="366,-20 248.75,-20 248.75,0 366,0 366,-20"/>
<text text-anchor="middle" x="307.38" y="-6.5" font-family="Helvetica,sans-Serif" font-size="10.00">detail::exception::name</text>
</a>
</g>
</g>
<!-- Node5&#45;&gt;Node7 -->
<g id="edge7" class="edge">
<title>Node5&#45;&gt;Node7</title>
<path fill="none" stroke="#63b8ff" d="M195.92,-56.64C211.05,-47.74 230.56,-36.96 248.75,-29 252.54,-27.34 256.53,-25.74 260.56,-24.23"/>
<polygon fill="#63b8ff" stroke="#63b8ff" points="261.57,-27.58 269.81,-20.93 259.22,-20.99 261.57,-27.58"/>
</g>
<!-- Node7&#45;&gt;Node2 -->
<g id="edge8" class="edge">
<title>Node7&#45;&gt;Node2</title>
<path fill="none" stroke="#63b8ff" d="M347.85,-20.41C354.13,-22.79 360.4,-25.64 366,-29 388.17,-42.3 409.02,-63.51 422.57,-78.9"/>
<polygon fill="#63b8ff" stroke="#63b8ff" points="419.87,-81.13 429.02,-86.46 425.19,-76.59 419.87,-81.13"/>
</g>
</g>
</svg>
