<?xml version="1.0" encoding="UTF-8" standalone="no"?>
<!DOCTYPE svg PUBLIC "-//W3C//DTD SVG 1.1//EN"
 "http://www.w3.org/Graphics/SVG/1.1/DTD/svg11.dtd">
<!-- Generated by graphviz version 12.2.1 (20241206.2353)
 -->
<!-- Title: detail::hash Pages: 1 -->
<svg width="192pt" height="46pt"
 viewBox="0.00 0.00 192.25 46.00" xmlns="http://www.w3.org/2000/svg" xmlns:xlink="http://www.w3.org/1999/xlink">
<g id="graph0" class="graph" transform="scale(1 1) rotate(0) translate(4 42)">
<title>detail::hash</title>
<!-- Node1 -->
<g id="node1" class="node">
<title>Node1</title>
<g id="a_node1"><a xlink:title="hash a JSON value">
<polygon fill="#999999" stroke="#666666" points="66.25,-20 0,-20 0,0 66.25,0 66.25,-20"/>
<text text-anchor="middle" x="33.12" y="-6.5" font-family="Helvetica,sans-Serif" font-size="10.00">detail::hash</text>
</a>
</g>
</g>
<!-- Node1&#45;&gt;Node1 -->
<g id="edge2" class="edge">
<title>Node1&#45;&gt;Node1</title>
<path fill="none" stroke="#63b8ff" d="M15.63,-20.34C8.15,-28.98 13.98,-38 33.12,-38 43.59,-38 50.08,-35.3 52.59,-31.44"/>
<polygon fill="#63b8ff" stroke="#63b8ff" points="56.08,-31.07 50.89,-21.83 49.18,-32.29 56.08,-31.07"/>
</g>
<!-- Node2 -->
<g id="node2" class="node">
<title>Node2</title>
<g id="a_node2"><a xlink:href="namespacedetail.html#aa723590713a6396b0306897a2cadfb08" target="_top" xlink:title=" ">
<polygon fill="white" stroke="#666666" points="184.25,-20 102.25,-20 102.25,0 184.25,0 184.25,-20"/>
<text text-anchor="middle" x="143.25" y="-6.5" font-family="Helvetica,sans-Serif" font-size="10.00">detail::combine</text>
</a>
</g>
</g>
<!-- Node1&#45;&gt;Node2 -->
<g id="edge1" class="edge">
<title>Node1&#45;&gt;Node2</title>
<path fill="none" stroke="#63b8ff" d="M66.57,-10C74.09,-10 82.29,-10 90.41,-10"/>
<polygon fill="#63b8ff" stroke="#63b8ff" points="90.27,-13.5 100.27,-10 90.27,-6.5 90.27,-13.5"/>
</g>
</g>
</svg>
