<?xml version="1.0" encoding="UTF-8" standalone="no"?>
<!DOCTYPE svg PUBLIC "-//W3C//DTD SVG 1.1//EN"
 "http://www.w3.org/Graphics/SVG/1.1/DTD/svg11.dtd">
<!-- Generated by graphviz version 12.2.1 (20241206.2353)
 -->
<!-- Title: detail::to_string Pages: 1 -->
<svg width="370pt" height="40pt"
 viewBox="0.00 0.00 370.25 40.00" xmlns="http://www.w3.org/2000/svg" xmlns:xlink="http://www.w3.org/1999/xlink">
<g id="graph0" class="graph" transform="scale(1 1) rotate(0) translate(4 36)">
<title>detail::to_string</title>
<!-- Node1 -->
<g id="node1" class="node">
<title>Node1</title>
<g id="a_node1"><a xlink:title=" ">
<polygon fill="#999999" stroke="#666666" points="362.25,-26 279.5,-26 279.5,-6 362.25,-6 362.25,-26"/>
<text text-anchor="middle" x="320.88" y="-12.5" font-family="Helvetica,sans-Serif" font-size="10.00">detail::to_string</text>
</a>
</g>
</g>
<!-- Node2 -->
<g id="node2" class="node">
<title>Node2</title>
<g id="a_node2"><a xlink:href="namespacedetail.html#a5c44faccf48735587df161d056c084e5" target="_top" xlink:title=" ">
<polygon fill="white" stroke="#666666" points="243.5,-26 145,-26 145,-6 243.5,-6 243.5,-26"/>
<text text-anchor="middle" x="194.25" y="-12.5" font-family="Helvetica,sans-Serif" font-size="10.00">detail::int_to_string</text>
</a>
</g>
</g>
<!-- Node1&#45;&gt;Node2 -->
<g id="edge1" class="edge">
<title>Node1&#45;&gt;Node2</title>
<path fill="none" stroke="#63b8ff" d="M267.75,-9.33C259.87,-9.2 251.77,-9.23 243.96,-9.39"/>
<polygon fill="#63b8ff" stroke="#63b8ff" points="267.47,-12.82 277.56,-9.58 267.65,-5.83 267.47,-12.82"/>
</g>
<!-- Node2&#45;&gt;Node1 -->
<g id="edge3" class="edge">
<title>Node2&#45;&gt;Node1</title>
<path fill="none" stroke="#63b8ff" d="M255.27,-22.75C263.33,-22.77 271.44,-22.65 279.07,-22.38"/>
<polygon fill="#63b8ff" stroke="#63b8ff" points="255.52,-19.25 245.48,-22.62 255.43,-26.25 255.52,-19.25"/>
</g>
<!-- Node3 -->
<g id="node3" class="node">
<title>Node3</title>
<g id="a_node3"><a xlink:href="classdetail_1_1iteration__proxy__value.html#ad12633bc0d3ac7a651381b174a7914ee" target="_top" xlink:title="return key of the iterator">
<polygon fill="white" stroke="#666666" points="109,-32 0,-32 0,0 109,0 109,-32"/>
<text text-anchor="start" x="8" y="-18.5" font-family="Helvetica,sans-Serif" font-size="10.00">detail::iteration_proxy</text>
<text text-anchor="middle" x="54.5" y="-6.5" font-family="Helvetica,sans-Serif" font-size="10.00">_value::key</text>
</a>
</g>
</g>
<!-- Node2&#45;&gt;Node3 -->
<g id="edge2" class="edge">
<title>Node2&#45;&gt;Node3</title>
<path fill="none" stroke="#63b8ff" d="M133.18,-16C125.22,-16 117.1,-16 109.25,-16"/>
<polygon fill="#63b8ff" stroke="#63b8ff" points="133.17,-19.5 143.17,-16 133.17,-12.5 133.17,-19.5"/>
</g>
</g>
</svg>
