<?xml version="1.0" encoding="UTF-8" standalone="no"?>
<!DOCTYPE svg PUBLIC "-//W3C//DTD SVG 1.1//EN"
 "http://www.w3.org/Graphics/SVG/1.1/DTD/svg11.dtd">
<!-- Generated by graphviz version 12.2.1 (20241206.2353)
 -->
<!-- Title: detail::int_to_string Pages: 1 -->
<svg width="252pt" height="78pt"
 viewBox="0.00 0.00 251.50 78.00" xmlns="http://www.w3.org/2000/svg" xmlns:xlink="http://www.w3.org/1999/xlink">
<g id="graph0" class="graph" transform="scale(1 1) rotate(0) translate(4 74)">
<title>detail::int_to_string</title>
<!-- Node1 -->
<g id="node1" class="node">
<title>Node1</title>
<g id="a_node1"><a xlink:title=" ">
<polygon fill="#999999" stroke="#666666" points="243.5,-20 145,-20 145,0 243.5,0 243.5,-20"/>
<text text-anchor="middle" x="194.25" y="-6.5" font-family="Helvetica,sans-Serif" font-size="10.00">detail::int_to_string</text>
</a>
</g>
</g>
<!-- Node2 -->
<g id="node2" class="node">
<title>Node2</title>
<g id="a_node2"><a xlink:href="classdetail_1_1iteration__proxy__value.html#ad12633bc0d3ac7a651381b174a7914ee" target="_top" xlink:title="return key of the iterator">
<polygon fill="white" stroke="#666666" points="109,-70 0,-70 0,-38 109,-38 109,-70"/>
<text text-anchor="start" x="8" y="-56.5" font-family="Helvetica,sans-Serif" font-size="10.00">detail::iteration_proxy</text>
<text text-anchor="middle" x="54.5" y="-44.5" font-family="Helvetica,sans-Serif" font-size="10.00">_value::key</text>
</a>
</g>
</g>
<!-- Node1&#45;&gt;Node2 -->
<g id="edge1" class="edge">
<title>Node1&#45;&gt;Node2</title>
<path fill="none" stroke="#63b8ff" d="M149.64,-23.93C136.1,-28.25 121.05,-33.06 107.03,-37.54"/>
<polygon fill="#63b8ff" stroke="#63b8ff" points="150.7,-27.26 159.16,-20.89 148.57,-20.6 150.7,-27.26"/>
</g>
<!-- Node3 -->
<g id="node3" class="node">
<title>Node3</title>
<g id="a_node3"><a xlink:href="namespacedetail.html#a9bbdd7186f0615ca14f4f79fc41f013c" target="_top" xlink:title=" ">
<polygon fill="white" stroke="#666666" points="95.88,-20 13.12,-20 13.12,0 95.88,0 95.88,-20"/>
<text text-anchor="middle" x="54.5" y="-6.5" font-family="Helvetica,sans-Serif" font-size="10.00">detail::to_string</text>
</a>
</g>
</g>
<!-- Node1&#45;&gt;Node3 -->
<g id="edge2" class="edge">
<title>Node1&#45;&gt;Node3</title>
<path fill="none" stroke="#63b8ff" d="M133.36,-3.3C120.86,-3.16 107.96,-3.32 96.34,-3.77"/>
<polygon fill="#63b8ff" stroke="#63b8ff" points="133.11,-6.8 143.17,-3.49 133.24,0.2 133.11,-6.8"/>
</g>
<!-- Node3&#45;&gt;Node1 -->
<g id="edge3" class="edge">
<title>Node3&#45;&gt;Node1</title>
<path fill="none" stroke="#63b8ff" d="M107.7,-16.57C119.84,-16.84 132.71,-16.81 144.68,-16.48"/>
<polygon fill="#63b8ff" stroke="#63b8ff" points="107.95,-13.08 97.85,-16.27 107.74,-20.07 107.95,-13.08"/>
</g>
</g>
</svg>
