<?xml version="1.0" encoding="UTF-8" standalone="no"?>
<!DOCTYPE svg PUBLIC "-//W3C//DTD SVG 1.1//EN"
 "http://www.w3.org/Graphics/SVG/1.1/DTD/svg11.dtd">
<!-- Generated by graphviz version 12.2.1 (20241206.2353)
 -->
<!-- Title: detail::dtoa_impl::get_cached_power_for_binary_exponent Pages: 1 -->
<svg width="381pt" height="70pt"
 viewBox="0.00 0.00 380.75 70.00" xmlns="http://www.w3.org/2000/svg" xmlns:xlink="http://www.w3.org/1999/xlink">
<g id="graph0" class="graph" transform="scale(1 1) rotate(0) translate(4 66)">
<title>detail::dtoa_impl::get_cached_power_for_binary_exponent</title>
<!-- Node1 -->
<g id="node1" class="node">
<title>Node1</title>
<g id="a_node1"><a xlink:title=" ">
<polygon fill="#999999" stroke="#666666" points="372.75,-44 258.5,-44 258.5,0 372.75,0 372.75,-44"/>
<text text-anchor="start" x="266.5" y="-30.5" font-family="Helvetica,sans-Serif" font-size="10.00">detail::dtoa_impl::</text>
<text text-anchor="start" x="266.5" y="-18.5" font-family="Helvetica,sans-Serif" font-size="10.00">get_cached_power_for</text>
<text text-anchor="middle" x="315.62" y="-6.5" font-family="Helvetica,sans-Serif" font-size="10.00">_binary_exponent</text>
</a>
</g>
</g>
<!-- Node1&#45;&gt;Node1 -->
<g id="edge1" class="edge">
<title>Node1&#45;&gt;Node1</title>
<path fill="none" stroke="#63b8ff" d="M338.46,-55.09C334.44,-59.26 326.83,-62 315.62,-62 296.25,-62 287.62,-53.8 289.74,-44.21"/>
<polygon fill="#63b8ff" stroke="#63b8ff" points="341.77,-56.24 341.11,-45.67 335.03,-54.35 341.77,-56.24"/>
</g>
<!-- Node2 -->
<g id="node2" class="node">
<title>Node2</title>
<g id="a_node2"><a xlink:href="namespacedetail_1_1dtoa__impl.html#ad549352ed1a9676a092d143a2daa3dee" target="_top" xlink:title=" ">
<polygon fill="white" stroke="#666666" points="222.5,-38 129.25,-38 129.25,-6 222.5,-6 222.5,-38"/>
<text text-anchor="start" x="137.25" y="-24.5" font-family="Helvetica,sans-Serif" font-size="10.00">detail::dtoa_impl::</text>
<text text-anchor="middle" x="175.88" y="-12.5" font-family="Helvetica,sans-Serif" font-size="10.00">grisu2</text>
</a>
</g>
</g>
<!-- Node1&#45;&gt;Node2 -->
<g id="edge2" class="edge">
<title>Node1&#45;&gt;Node2</title>
<path fill="none" stroke="#63b8ff" d="M246.81,-22C238.71,-22 230.6,-22 222.91,-22"/>
<polygon fill="#63b8ff" stroke="#63b8ff" points="246.69,-25.5 256.69,-22 246.69,-18.5 246.69,-25.5"/>
</g>
<!-- Node3 -->
<g id="node3" class="node">
<title>Node3</title>
<g id="a_node3"><a xlink:href="namespacedetail_1_1dtoa__impl.html#abdf6bc05c54068a5930f66c2e803e8b8" target="_top" xlink:title=" ">
<polygon fill="white" stroke="#666666" points="93.25,-38 0,-38 0,-6 93.25,-6 93.25,-38"/>
<text text-anchor="start" x="8" y="-24.5" font-family="Helvetica,sans-Serif" font-size="10.00">detail::dtoa_impl::</text>
<text text-anchor="middle" x="46.62" y="-12.5" font-family="Helvetica,sans-Serif" font-size="10.00">grisu2</text>
</a>
</g>
</g>
<!-- Node2&#45;&gt;Node3 -->
<g id="edge3" class="edge">
<title>Node2&#45;&gt;Node3</title>
<path fill="none" stroke="#63b8ff" d="M117.65,-22C109.56,-22 101.33,-22 93.5,-22"/>
<polygon fill="#63b8ff" stroke="#63b8ff" points="117.42,-25.5 127.42,-22 117.42,-18.5 117.42,-25.5"/>
</g>
</g>
</svg>
