<?xml version="1.0" encoding="UTF-8" standalone="no"?>
<!DOCTYPE svg PUBLIC "-//W3C//DTD SVG 1.1//EN"
 "http://www.w3.org/Graphics/SVG/1.1/DTD/svg11.dtd">
<!-- Generated by graphviz version 12.2.1 (20241206.2353)
 -->
<!-- Title: detail::input_adapter Pages: 1 -->
<svg width="483pt" height="378pt"
 viewBox="0.00 0.00 482.75 378.00" xmlns="http://www.w3.org/2000/svg" xmlns:xlink="http://www.w3.org/1999/xlink">
<g id="graph0" class="graph" transform="scale(1 1) rotate(0) translate(4 374)">
<title>detail::input_adapter</title>
<!-- Node1 -->
<g id="node1" class="node">
<title>Node1</title>
<g id="a_node1"><a xlink:title=" ">
<polygon fill="#999999" stroke="#666666" points="474.75,-153 371,-153 371,-133 474.75,-133 474.75,-153"/>
<text text-anchor="middle" x="422.88" y="-139.5" font-family="Helvetica,sans-Serif" font-size="10.00">detail::input_adapter</text>
</a>
</g>
</g>
<!-- Node2 -->
<g id="node2" class="node">
<title>Node2</title>
<g id="a_node2"><a xlink:href="structdetail_1_1container__input__adapter__factory__impl_1_1container__input__adapter__factory_3983614ac0e8828aa386ca24b1ddc2bd1.html#a6b9ccb1f4f7503123e553956abde9b85" target="_top" xlink:title=" ">
<polygon fill="white" stroke="#666666" points="335,-370 169,-370 169,-266 335,-266 335,-370"/>
<text text-anchor="start" x="177" y="-356.5" font-family="Helvetica,sans-Serif" font-size="10.00">detail::container_input</text>
<text text-anchor="start" x="177" y="-344.5" font-family="Helvetica,sans-Serif" font-size="10.00">_adapter_factory_impl</text>
<text text-anchor="start" x="177" y="-332.5" font-family="Helvetica,sans-Serif" font-size="10.00">::container_input_adapter</text>
<text text-anchor="start" x="177" y="-320.5" font-family="Helvetica,sans-Serif" font-size="10.00">_factory&lt; ContainerType,</text>
<text text-anchor="start" x="177" y="-308.5" font-family="Helvetica,sans-Serif" font-size="10.00"> void_t&lt; decltype(begin(std</text>
<text text-anchor="start" x="177" y="-296.5" font-family="Helvetica,sans-Serif" font-size="10.00">::declval&lt; ContainerType &gt;()</text>
<text text-anchor="start" x="177" y="-284.5" font-family="Helvetica,sans-Serif" font-size="10.00">), end(std::declval&lt; ContainerType</text>
<text text-anchor="middle" x="252" y="-272.5" font-family="Helvetica,sans-Serif" font-size="10.00"> &gt;()))&gt; &gt;::create</text>
</a>
</g>
</g>
<!-- Node1&#45;&gt;Node2 -->
<g id="edge1" class="edge">
<title>Node1&#45;&gt;Node2</title>
<path fill="none" stroke="#63b8ff" d="M408.37,-162.48C392.21,-185.14 363.72,-223.14 335,-252 330.36,-256.66 325.4,-261.32 320.31,-265.88"/>
<polygon fill="#63b8ff" stroke="#63b8ff" points="411.11,-164.66 414.01,-154.47 405.39,-160.63 411.11,-164.66"/>
</g>
<!-- Node3 -->
<g id="node3" class="node">
<title>Node3</title>
<g id="a_node3"><a xlink:href="classbasic__json.html#a59327f708c0555e2928487bcddf71293" target="_top" xlink:title="create a JSON value from an input in BJData format">
<polygon fill="white" stroke="#666666" points="126.25,-243 6.75,-243 6.75,-223 126.25,-223 126.25,-243"/>
<text text-anchor="middle" x="66.5" y="-229.5" font-family="Helvetica,sans-Serif" font-size="10.00">basic_json::from_bjdata</text>
</a>
</g>
</g>
<!-- Node1&#45;&gt;Node3 -->
<g id="edge2" class="edge">
<title>Node1&#45;&gt;Node3</title>
<path fill="none" stroke="#63b8ff" d="M402.21,-160.48C385.55,-174.22 360.38,-192.56 335,-202 266.53,-227.46 181.99,-233.39 126.5,-234.14"/>
<polygon fill="#63b8ff" stroke="#63b8ff" points="404.03,-163.53 409.38,-154.39 399.5,-158.19 404.03,-163.53"/>
</g>
<!-- Node4 -->
<g id="node4" class="node">
<title>Node4</title>
<g id="a_node4"><a xlink:href="classbasic__json.html#a4b0dfca88b11ea59a2568707767622d8" target="_top" xlink:title="create a JSON value from an input in BSON format">
<polygon fill="white" stroke="#666666" points="123.62,-200 9.37,-200 9.37,-180 123.62,-180 123.62,-200"/>
<text text-anchor="middle" x="66.5" y="-186.5" font-family="Helvetica,sans-Serif" font-size="10.00">basic_json::from_bson</text>
</a>
</g>
</g>
<!-- Node1&#45;&gt;Node4 -->
<g id="edge3" class="edge">
<title>Node1&#45;&gt;Node4</title>
<path fill="none" stroke="#63b8ff" d="M393.52,-158.67C376.98,-166.97 355.41,-176.37 335,-181 263.51,-197.21 178.55,-196.86 123.87,-194.2"/>
<polygon fill="#63b8ff" stroke="#63b8ff" points="394.99,-161.85 402.25,-154.14 391.77,-155.64 394.99,-161.85"/>
</g>
<!-- Node5 -->
<g id="node5" class="node">
<title>Node5</title>
<g id="a_node5"><a xlink:href="classbasic__json.html#a5bc3c67eaf6e9b22c8b446f9695249e9" target="_top" xlink:title="create a JSON value from an input in CBOR format">
<polygon fill="white" stroke="#666666" points="122.5,-153 10.5,-153 10.5,-133 122.5,-133 122.5,-153"/>
<text text-anchor="middle" x="66.5" y="-139.5" font-family="Helvetica,sans-Serif" font-size="10.00">basic_json::from_cbor</text>
</a>
</g>
</g>
<!-- Node1&#45;&gt;Node5 -->
<g id="edge4" class="edge">
<title>Node1&#45;&gt;Node5</title>
<path fill="none" stroke="#63b8ff" d="M359.49,-143C292.43,-143 186.86,-143 122.72,-143"/>
<polygon fill="#63b8ff" stroke="#63b8ff" points="359.21,-146.5 369.21,-143 359.21,-139.5 359.21,-146.5"/>
</g>
<!-- Node6 -->
<g id="node6" class="node">
<title>Node6</title>
<g id="a_node6"><a xlink:href="classbasic__json.html#ab0c025488572f913ca5529a2ef62d066" target="_top" xlink:title="create a JSON value from an input in MessagePack format">
<polygon fill="white" stroke="#666666" points="133,-115 0,-115 0,-95 133,-95 133,-115"/>
<text text-anchor="middle" x="66.5" y="-101.5" font-family="Helvetica,sans-Serif" font-size="10.00">basic_json::from_msgpack</text>
</a>
</g>
</g>
<!-- Node1&#45;&gt;Node6 -->
<g id="edge5" class="edge">
<title>Node1&#45;&gt;Node6</title>
<path fill="none" stroke="#63b8ff" d="M359.29,-136.29C295.84,-129.49 198.05,-119 133.42,-112.07"/>
<polygon fill="#63b8ff" stroke="#63b8ff" points="358.9,-139.77 369.22,-137.35 359.65,-132.81 358.9,-139.77"/>
</g>
<!-- Node7 -->
<g id="node7" class="node">
<title>Node7</title>
<g id="a_node7"><a xlink:href="classbasic__json.html#a4588941095d03624ada4f0023d93944a" target="_top" xlink:title="create a JSON value from an input in UBJSON format">
<polygon fill="white" stroke="#666666" points="127.38,-77 5.62,-77 5.62,-57 127.38,-57 127.38,-77"/>
<text text-anchor="middle" x="66.5" y="-63.5" font-family="Helvetica,sans-Serif" font-size="10.00">basic_json::from_ubjson</text>
</a>
</g>
</g>
<!-- Node1&#45;&gt;Node7 -->
<g id="edge6" class="edge">
<title>Node1&#45;&gt;Node7</title>
<path fill="none" stroke="#63b8ff" d="M385.73,-128.49C370.3,-122.72 351.96,-116.42 335,-112 264.82,-93.73 182.27,-81.15 127.63,-74.04"/>
<polygon fill="#63b8ff" stroke="#63b8ff" points="384.39,-131.73 394.98,-132.03 386.89,-125.19 384.39,-131.73"/>
</g>
<!-- Node8 -->
<g id="node8" class="node">
<title>Node8</title>
<g id="a_node8"><a xlink:href="namespacedetail.html#a53fa6fb154a643a2202e31cb18f47c97" target="_top" xlink:title=" ">
<polygon fill="white" stroke="#666666" points="303.88,-20 200.12,-20 200.12,0 303.88,0 303.88,-20"/>
<text text-anchor="middle" x="252" y="-6.5" font-family="Helvetica,sans-Serif" font-size="10.00">detail::input_adapter</text>
</a>
</g>
</g>
<!-- Node1&#45;&gt;Node8 -->
<g id="edge7" class="edge">
<title>Node1&#45;&gt;Node8</title>
<path fill="none" stroke="#63b8ff" d="M411.02,-122.82C396.77,-98.24 369.48,-57.15 335,-34 325.76,-27.8 314.9,-23.17 304.16,-19.73"/>
<polygon fill="#63b8ff" stroke="#63b8ff" points="407.78,-124.2 415.72,-131.21 413.89,-120.78 407.78,-124.2"/>
</g>
<!-- Node9 -->
<g id="node9" class="node">
<title>Node9</title>
<g id="a_node9"><a xlink:href="classbasic__json.html#a602b1c389d92f2c7db21f89bb6fb9817" target="_top" xlink:title=" ">
<polygon fill="white" stroke="#666666" points="308.75,-172 195.25,-172 195.25,-152 308.75,-152 308.75,-172"/>
<text text-anchor="middle" x="252" y="-158.5" font-family="Helvetica,sans-Serif" font-size="10.00">basic_json::sax_parse</text>
</a>
</g>
</g>
<!-- Node1&#45;&gt;Node9 -->
<g id="edge8" class="edge">
<title>Node1&#45;&gt;Node9</title>
<path fill="none" stroke="#63b8ff" d="M359.51,-150.02C342.94,-151.88 325.16,-153.88 308.96,-155.7"/>
<polygon fill="#63b8ff" stroke="#63b8ff" points="359.7,-153.52 369.24,-148.92 358.92,-146.56 359.7,-153.52"/>
</g>
<!-- Node9&#45;&gt;Node3 -->
<g id="edge9" class="edge">
<title>Node9&#45;&gt;Node3</title>
<path fill="none" stroke="#63b8ff" d="M214.85,-176.7C191.55,-186.1 160.56,-198.46 133,-209 121.12,-213.54 107.97,-218.39 96.58,-222.54"/>
<polygon fill="#63b8ff" stroke="#63b8ff" points="215.94,-180.04 223.9,-173.04 213.31,-173.55 215.94,-180.04"/>
</g>
<!-- Node9&#45;&gt;Node4 -->
<g id="edge10" class="edge">
<title>Node9&#45;&gt;Node4</title>
<path fill="none" stroke="#63b8ff" d="M183.6,-172.28C163.96,-175.28 142.72,-178.52 123.84,-181.4"/>
<polygon fill="#63b8ff" stroke="#63b8ff" points="184.09,-175.75 193.45,-170.78 183.04,-168.83 184.09,-175.75"/>
</g>
<!-- Node9&#45;&gt;Node5 -->
<g id="edge11" class="edge">
<title>Node9&#45;&gt;Node5</title>
<path fill="none" stroke="#63b8ff" d="M183.72,-155.03C163.72,-152.96 142.05,-150.72 122.89,-148.74"/>
<polygon fill="#63b8ff" stroke="#63b8ff" points="183.13,-158.49 193.44,-156.04 183.86,-151.53 183.13,-158.49"/>
</g>
<!-- Node9&#45;&gt;Node6 -->
<g id="edge12" class="edge">
<title>Node9&#45;&gt;Node6</title>
<path fill="none" stroke="#63b8ff" d="M208.68,-148.04C186.24,-140.72 158.18,-131.7 133,-124 123.72,-121.16 113.66,-118.19 104.28,-115.46"/>
<polygon fill="#63b8ff" stroke="#63b8ff" points="207.49,-151.34 218.09,-151.12 209.67,-144.68 207.49,-151.34"/>
</g>
<!-- Node9&#45;&gt;Node7 -->
<g id="edge13" class="edge">
<title>Node9&#45;&gt;Node7</title>
<path fill="none" stroke="#63b8ff" d="M228.75,-144.86C205.84,-127.89 168.55,-102.18 133,-86 125.78,-82.71 117.85,-79.84 110.08,-77.4"/>
<polygon fill="#63b8ff" stroke="#63b8ff" points="226.62,-147.64 236.72,-150.85 230.83,-142.04 226.62,-147.64"/>
</g>
</g>
</svg>
