<?xml version="1.0" encoding="UTF-8" standalone="no"?>
<!DOCTYPE svg PUBLIC "-//W3C//DTD SVG 1.1//EN"
 "http://www.w3.org/Graphics/SVG/1.1/DTD/svg11.dtd">
<!-- Generated by graphviz version 12.2.1 (20241206.2353)
 -->
<!-- Title: detail::dtoa_impl::grisu2 Pages: 1 -->
<svg width="530pt" height="179pt"
 viewBox="0.00 0.00 529.50 179.00" xmlns="http://www.w3.org/2000/svg" xmlns:xlink="http://www.w3.org/1999/xlink">
<g id="graph0" class="graph" transform="scale(1 1) rotate(0) translate(4 175)">
<title>detail::dtoa_impl::grisu2</title>
<!-- Node1 -->
<g id="node1" class="node">
<title>Node1</title>
<g id="a_node1"><a xlink:title=" ">
<polygon fill="#999999" stroke="#666666" points="93.25,-128 0,-128 0,-96 93.25,-96 93.25,-128"/>
<text text-anchor="start" x="8" y="-114.5" font-family="Helvetica,sans-Serif" font-size="10.00">detail::dtoa_impl::</text>
<text text-anchor="middle" x="46.62" y="-102.5" font-family="Helvetica,sans-Serif" font-size="10.00">grisu2</text>
</a>
</g>
</g>
<!-- Node2 -->
<g id="node2" class="node">
<title>Node2</title>
<g id="a_node2"><a xlink:href="namespacedetail_1_1dtoa__impl.html#a6a5ccf11847aab7a0f42f587b33935df" target="_top" xlink:title=" ">
<polygon fill="white" stroke="#666666" points="235.25,-153 129.25,-153 129.25,-121 235.25,-121 235.25,-153"/>
<text text-anchor="start" x="137.25" y="-139.5" font-family="Helvetica,sans-Serif" font-size="10.00">detail::dtoa_impl::</text>
<text text-anchor="middle" x="182.25" y="-127.5" font-family="Helvetica,sans-Serif" font-size="10.00">compute_boundaries</text>
</a>
</g>
</g>
<!-- Node1&#45;&gt;Node2 -->
<g id="edge1" class="edge">
<title>Node1&#45;&gt;Node2</title>
<path fill="none" stroke="#63b8ff" d="M93.61,-120.6C101.31,-122.04 109.41,-123.56 117.46,-125.07"/>
<polygon fill="#63b8ff" stroke="#63b8ff" points="116.79,-128.5 127.26,-126.9 118.08,-121.62 116.79,-128.5"/>
</g>
<!-- Node3 -->
<g id="node3" class="node">
<title>Node3</title>
<g id="a_node3"><a xlink:href="namespacedetail_1_1dtoa__impl.html#ad549352ed1a9676a092d143a2daa3dee" target="_top" xlink:title=" ">
<polygon fill="white" stroke="#666666" points="228.88,-103 135.62,-103 135.62,-71 228.88,-71 228.88,-103"/>
<text text-anchor="start" x="143.62" y="-89.5" font-family="Helvetica,sans-Serif" font-size="10.00">detail::dtoa_impl::</text>
<text text-anchor="middle" x="182.25" y="-77.5" font-family="Helvetica,sans-Serif" font-size="10.00">grisu2</text>
</a>
</g>
</g>
<!-- Node1&#45;&gt;Node3 -->
<g id="edge3" class="edge">
<title>Node1&#45;&gt;Node3</title>
<path fill="none" stroke="#63b8ff" d="M93.61,-103.4C103.37,-101.57 113.8,-99.62 123.92,-97.73"/>
<polygon fill="#63b8ff" stroke="#63b8ff" points="124.51,-101.18 133.69,-95.9 123.22,-94.3 124.51,-101.18"/>
</g>
<!-- Node2&#45;&gt;Node2 -->
<g id="edge2" class="edge">
<title>Node2&#45;&gt;Node2</title>
<path fill="none" stroke="#63b8ff" d="M158.04,-153.44C153.52,-162.58 161.59,-171 182.25,-171 193.55,-171 201.08,-168.48 204.85,-164.71"/>
<polygon fill="#63b8ff" stroke="#63b8ff" points="208.3,-165.34 206.25,-154.94 201.37,-164.34 208.3,-165.34"/>
</g>
<!-- Node4 -->
<g id="node4" class="node">
<title>Node4</title>
<g id="a_node4"><a xlink:href="namespacedetail_1_1dtoa__impl.html#a29ae6574f6be09a5c8ab08da9a3f71b4" target="_top" xlink:title=" ">
<polygon fill="white" stroke="#666666" points="385.5,-146 271.25,-146 271.25,-102 385.5,-102 385.5,-146"/>
<text text-anchor="start" x="279.25" y="-132.5" font-family="Helvetica,sans-Serif" font-size="10.00">detail::dtoa_impl::</text>
<text text-anchor="start" x="279.25" y="-120.5" font-family="Helvetica,sans-Serif" font-size="10.00">get_cached_power_for</text>
<text text-anchor="middle" x="328.38" y="-108.5" font-family="Helvetica,sans-Serif" font-size="10.00">_binary_exponent</text>
</a>
</g>
</g>
<!-- Node3&#45;&gt;Node4 -->
<g id="edge4" class="edge">
<title>Node3&#45;&gt;Node4</title>
<path fill="none" stroke="#63b8ff" d="M229.25,-98.81C238.99,-101.31 249.46,-104 259.81,-106.66"/>
<polygon fill="#63b8ff" stroke="#63b8ff" points="258.93,-110.04 269.49,-109.14 260.67,-103.26 258.93,-110.04"/>
</g>
<!-- Node5 -->
<g id="node5" class="node">
<title>Node5</title>
<g id="a_node5"><a xlink:href="namespacedetail_1_1dtoa__impl.html#ae877aa13ab872c99a1c614e5e1524807" target="_top" xlink:title=" ">
<polygon fill="white" stroke="#666666" points="375,-66 281.75,-66 281.75,-34 375,-34 375,-66"/>
<text text-anchor="start" x="289.75" y="-52.5" font-family="Helvetica,sans-Serif" font-size="10.00">detail::dtoa_impl::</text>
<text text-anchor="middle" x="328.38" y="-40.5" font-family="Helvetica,sans-Serif" font-size="10.00">grisu2_digit_gen</text>
</a>
</g>
</g>
<!-- Node3&#45;&gt;Node5 -->
<g id="edge6" class="edge">
<title>Node3&#45;&gt;Node5</title>
<path fill="none" stroke="#63b8ff" d="M229.25,-75.19C242.38,-71.82 256.84,-68.11 270.54,-64.59"/>
<polygon fill="#63b8ff" stroke="#63b8ff" points="271.04,-68.08 279.85,-62.2 269.3,-61.3 271.04,-68.08"/>
</g>
<!-- Node4&#45;&gt;Node4 -->
<g id="edge5" class="edge">
<title>Node4&#45;&gt;Node4</title>
<path fill="none" stroke="#63b8ff" d="M301.86,-146.21C299.69,-155.8 308.53,-164 328.38,-164 339.85,-164 347.64,-161.26 351.76,-157.09"/>
<polygon fill="#63b8ff" stroke="#63b8ff" points="355.07,-158.24 354.47,-147.67 348.34,-156.31 355.07,-158.24"/>
</g>
<!-- Node5&#45;&gt;Node5 -->
<g id="edge9" class="edge">
<title>Node5&#45;&gt;Node5</title>
<path fill="none" stroke="#63b8ff" d="M302.82,-66.44C298.05,-75.58 306.57,-84 328.38,-84 340.3,-84 348.25,-81.48 352.23,-77.71"/>
<polygon fill="#63b8ff" stroke="#63b8ff" points="355.67,-78.35 353.7,-67.94 348.75,-77.3 355.67,-78.35"/>
</g>
<!-- Node6 -->
<g id="node6" class="node">
<title>Node6</title>
<g id="a_node6"><a xlink:href="namespacedetail_1_1dtoa__impl.html#a04eb234a28617519974fc962cd4da666" target="_top" xlink:title=" ">
<polygon fill="white" stroke="#666666" points="521.5,-100 421.5,-100 421.5,-68 521.5,-68 521.5,-100"/>
<text text-anchor="start" x="429.5" y="-86.5" font-family="Helvetica,sans-Serif" font-size="10.00">detail::dtoa_impl::</text>
<text text-anchor="middle" x="471.5" y="-74.5" font-family="Helvetica,sans-Serif" font-size="10.00">find_largest_pow10</text>
</a>
</g>
</g>
<!-- Node5&#45;&gt;Node6 -->
<g id="edge7" class="edge">
<title>Node5&#45;&gt;Node6</title>
<path fill="none" stroke="#63b8ff" d="M375.19,-61.04C386.29,-63.71 398.33,-66.61 409.99,-69.42"/>
<polygon fill="#63b8ff" stroke="#63b8ff" points="409,-72.78 419.54,-71.72 410.64,-65.98 409,-72.78"/>
</g>
<!-- Node7 -->
<g id="node7" class="node">
<title>Node7</title>
<g id="a_node7"><a xlink:href="namespacedetail_1_1dtoa__impl.html#a73a15efcb5c2157ea0e1375b98ef0e83" target="_top" xlink:title=" ">
<polygon fill="white" stroke="#666666" points="518.12,-32 424.88,-32 424.88,0 518.12,0 518.12,-32"/>
<text text-anchor="start" x="432.88" y="-18.5" font-family="Helvetica,sans-Serif" font-size="10.00">detail::dtoa_impl::</text>
<text text-anchor="middle" x="471.5" y="-6.5" font-family="Helvetica,sans-Serif" font-size="10.00">grisu2_round</text>
</a>
</g>
</g>
<!-- Node5&#45;&gt;Node7 -->
<g id="edge10" class="edge">
<title>Node5&#45;&gt;Node7</title>
<path fill="none" stroke="#63b8ff" d="M375.19,-38.96C387.4,-36.02 400.73,-32.81 413.45,-29.75"/>
<polygon fill="#63b8ff" stroke="#63b8ff" points="414.05,-33.2 422.96,-27.45 412.41,-26.39 414.05,-33.2"/>
</g>
<!-- Node6&#45;&gt;Node6 -->
<g id="edge8" class="edge">
<title>Node6&#45;&gt;Node6</title>
<path fill="none" stroke="#63b8ff" d="M445.95,-100.44C441.18,-109.58 449.7,-118 471.5,-118 483.42,-118 491.37,-115.48 495.35,-111.71"/>
<polygon fill="#63b8ff" stroke="#63b8ff" points="498.79,-112.35 496.83,-101.94 491.87,-111.3 498.79,-112.35"/>
</g>
<!-- Node7&#45;&gt;Node7 -->
<g id="edge11" class="edge">
<title>Node7&#45;&gt;Node7</title>
<path fill="none" stroke="#63b8ff" d="M445.95,-32.44C441.18,-41.58 449.7,-50 471.5,-50 483.42,-50 491.37,-47.48 495.35,-43.71"/>
<polygon fill="#63b8ff" stroke="#63b8ff" points="498.79,-44.35 496.83,-33.94 491.87,-43.3 498.79,-44.35"/>
</g>
</g>
</svg>
