<?xml version="1.0" encoding="UTF-8" standalone="no"?>
<!DOCTYPE svg PUBLIC "-//W3C//DTD SVG 1.1//EN"
 "http://www.w3.org/Graphics/SVG/1.1/DTD/svg11.dtd">
<!-- Generated by graphviz version 12.2.1 (20241206.2353)
 -->
<!-- Title: std::swap Pages: 1 -->
<svg width="213pt" height="66pt"
 viewBox="0.00 0.00 212.50 66.00" xmlns="http://www.w3.org/2000/svg" xmlns:xlink="http://www.w3.org/1999/xlink">
<g id="graph0" class="graph" transform="scale(1 1) rotate(0) translate(4 62)">
<title>std::swap</title>
<!-- Node1 -->
<g id="node1" class="node">
<title>Node1</title>
<g id="a_node1"><a xlink:title="exchanges the values of two JSON objects">
<polygon fill="#999999" stroke="#666666" points="204.5,-39 145.75,-39 145.75,-19 204.5,-19 204.5,-39"/>
<text text-anchor="middle" x="175.12" y="-25.5" font-family="Helvetica,sans-Serif" font-size="10.00">std::swap</text>
</a>
</g>
</g>
<!-- Node1&#45;&gt;Node1 -->
<g id="edge2" class="edge">
<title>Node1&#45;&gt;Node1</title>
<path fill="none" stroke="#63b8ff" d="M196.38,-50.44C193.64,-54.3 186.56,-57 175.12,-57 154.22,-57 147.85,-47.98 156.02,-39.34"/>
<polygon fill="#63b8ff" stroke="#63b8ff" points="199.85,-49.98 194.52,-40.82 192.98,-51.31 199.85,-49.98"/>
</g>
<!-- Node2 -->
<g id="node2" class="node">
<title>Node2</title>
<g id="a_node2"><a xlink:href="classbasic__json.html#a40c01f55bc2a0ecd99907ea85fd1e6bf" target="_top" xlink:title="copy assignment">
<polygon fill="white" stroke="#666666" points="109.75,-58 0,-58 0,-38 109.75,-38 109.75,-58"/>
<text text-anchor="middle" x="54.88" y="-44.5" font-family="Helvetica,sans-Serif" font-size="10.00">basic_json::operator=</text>
</a>
</g>
</g>
<!-- Node1&#45;&gt;Node2 -->
<g id="edge1" class="edge">
<title>Node1&#45;&gt;Node2</title>
<path fill="none" stroke="#63b8ff" d="M134.22,-35.41C126.48,-36.66 118.25,-37.98 110.14,-39.28"/>
<polygon fill="#63b8ff" stroke="#63b8ff" points="134.69,-38.88 144.01,-33.84 133.58,-31.97 134.69,-38.88"/>
</g>
<!-- Node3 -->
<g id="node3" class="node">
<title>Node3</title>
<g id="a_node3"><a xlink:href="classbasic__json.html#a1a94e5348ebb34852092d51a44e21d24" target="_top" xlink:title="exchanges the values">
<polygon fill="white" stroke="#666666" points="100.75,-20 9,-20 9,0 100.75,0 100.75,-20"/>
<text text-anchor="middle" x="54.88" y="-6.5" font-family="Helvetica,sans-Serif" font-size="10.00">basic_json::swap</text>
</a>
</g>
</g>
<!-- Node1&#45;&gt;Node3 -->
<g id="edge3" class="edge">
<title>Node1&#45;&gt;Node3</title>
<path fill="none" stroke="#63b8ff" d="M134.29,-22.6C123.55,-20.87 111.85,-18.99 100.84,-17.23"/>
<polygon fill="#63b8ff" stroke="#63b8ff" points="133.58,-26.03 144.01,-24.16 134.69,-19.12 133.58,-26.03"/>
</g>
</g>
</svg>
