<?xml version="1.0" encoding="UTF-8" standalone="no"?>
<!DOCTYPE svg PUBLIC "-//W3C//DTD SVG 1.1//EN"
 "http://www.w3.org/Graphics/SVG/1.1/DTD/svg11.dtd">
<!-- Generated by graphviz version 12.2.1 (20241206.2353)
 -->
<!-- Title: detail::get_arithmetic_value Pages: 1 -->
<svg width="645pt" height="135pt"
 viewBox="0.00 0.00 645.25 135.00" xmlns="http://www.w3.org/2000/svg" xmlns:xlink="http://www.w3.org/1999/xlink">
<g id="graph0" class="graph" transform="scale(1 1) rotate(0) translate(4 131)">
<title>detail::get_arithmetic_value</title>
<!-- Node1 -->
<g id="node1" class="node">
<title>Node1</title>
<g id="a_node1"><a xlink:title=" ">
<polygon fill="#999999" stroke="#666666" points="106.75,-111 0,-111 0,-79 106.75,-79 106.75,-111"/>
<text text-anchor="start" x="8" y="-97.5" font-family="Helvetica,sans-Serif" font-size="10.00">detail::get_arithmetic</text>
<text text-anchor="middle" x="53.38" y="-85.5" font-family="Helvetica,sans-Serif" font-size="10.00">_value</text>
</a>
</g>
</g>
<!-- Node2 -->
<g id="node2" class="node">
<title>Node2</title>
<g id="a_node2"><a xlink:href="namespacedetail.html#a266fb3d4bf633ad6c506434cc91164da" target="_top" xlink:title=" ">
<polygon fill="white" stroke="#666666" points="495.25,-108 420.75,-108 420.75,-88 495.25,-88 495.25,-108"/>
<text text-anchor="middle" x="458" y="-94.5" font-family="Helvetica,sans-Serif" font-size="10.00">detail::concat</text>
</a>
</g>
</g>
<!-- Node1&#45;&gt;Node2 -->
<g id="edge1" class="edge">
<title>Node1&#45;&gt;Node2</title>
<path fill="none" stroke="#63b8ff" d="M107.18,-96.95C118.89,-97.34 131.24,-97.71 142.75,-98 250.28,-100.69 277.2,-101.49 384.75,-100 392.68,-99.89 401.1,-99.71 409.28,-99.51"/>
<polygon fill="#63b8ff" stroke="#63b8ff" points="409.2,-103.01 419.11,-99.24 409.02,-96.01 409.2,-103.01"/>
</g>
<!-- Node5 -->
<g id="node5" class="node">
<title>Node5</title>
<g id="a_node5"><a xlink:href="classdetail_1_1type__error.html#a2d25372628cf1e09ec67718f4bc42762" target="_top" xlink:title=" ">
<polygon fill="white" stroke="#666666" points="231.5,-89 142.75,-89 142.75,-57 231.5,-57 231.5,-89"/>
<text text-anchor="start" x="150.75" y="-75.5" font-family="Helvetica,sans-Serif" font-size="10.00">detail::type_error</text>
<text text-anchor="middle" x="187.12" y="-63.5" font-family="Helvetica,sans-Serif" font-size="10.00">::create</text>
</a>
</g>
</g>
<!-- Node1&#45;&gt;Node5 -->
<g id="edge4" class="edge">
<title>Node1&#45;&gt;Node5</title>
<path fill="none" stroke="#63b8ff" d="M107.2,-86.18C115.18,-84.85 123.43,-83.47 131.45,-82.13"/>
<polygon fill="#63b8ff" stroke="#63b8ff" points="131.8,-85.62 141.09,-80.52 130.65,-78.72 131.8,-85.62"/>
</g>
<!-- Node3 -->
<g id="node3" class="node">
<title>Node3</title>
<g id="a_node3"><a xlink:href="namespacedetail.html#a89f967b745cf8df11ba9d59f93d97753" target="_top" xlink:title=" ">
<polygon fill="white" stroke="#666666" points="632,-127 536.5,-127 536.5,-107 632,-107 632,-127"/>
<text text-anchor="middle" x="584.25" y="-113.5" font-family="Helvetica,sans-Serif" font-size="10.00">detail::concat_into</text>
</a>
</g>
</g>
<!-- Node2&#45;&gt;Node3 -->
<g id="edge2" class="edge">
<title>Node2&#45;&gt;Node3</title>
<path fill="none" stroke="#63b8ff" d="M495.61,-103.6C504.86,-105.01 515.04,-106.57 525.07,-108.1"/>
<polygon fill="#63b8ff" stroke="#63b8ff" points="524.38,-111.54 534.79,-109.59 525.44,-104.62 524.38,-111.54"/>
</g>
<!-- Node4 -->
<g id="node4" class="node">
<title>Node4</title>
<g id="a_node4"><a xlink:href="namespacedetail.html#ac185140ed8c8fcc07a302a890b714b0d" target="_top" xlink:title=" ">
<polygon fill="white" stroke="#666666" points="637.25,-89 531.25,-89 531.25,-69 637.25,-69 637.25,-89"/>
<text text-anchor="middle" x="584.25" y="-75.5" font-family="Helvetica,sans-Serif" font-size="10.00">detail::concat_length</text>
</a>
</g>
</g>
<!-- Node2&#45;&gt;Node4 -->
<g id="edge3" class="edge">
<title>Node2&#45;&gt;Node4</title>
<path fill="none" stroke="#63b8ff" d="M495.61,-92.4C503.19,-91.24 511.38,-89.99 519.61,-88.73"/>
<polygon fill="#63b8ff" stroke="#63b8ff" points="519.94,-92.22 529.3,-87.25 518.88,-85.3 519.94,-92.22"/>
</g>
<!-- Node5&#45;&gt;Node2 -->
<g id="edge5" class="edge">
<title>Node5&#45;&gt;Node2</title>
<path fill="none" stroke="#63b8ff" d="M231.92,-77.07C280.66,-81.6 359.13,-88.9 409.36,-93.57"/>
<polygon fill="#63b8ff" stroke="#63b8ff" points="408.77,-97.03 419.05,-94.47 409.42,-90.06 408.77,-97.03"/>
</g>
<!-- Node6 -->
<g id="node6" class="node">
<title>Node6</title>
<g id="a_node6"><a xlink:href="classdetail_1_1exception.html#a6b4a786b5c1c25dd3edaceb1bf2d5120" target="_top" xlink:title=" ">
<polygon fill="white" stroke="#666666" points="372.75,-70 279.5,-70 279.5,-38 372.75,-38 372.75,-70"/>
<text text-anchor="start" x="287.5" y="-56.5" font-family="Helvetica,sans-Serif" font-size="10.00">detail::exception::</text>
<text text-anchor="middle" x="326.12" y="-44.5" font-family="Helvetica,sans-Serif" font-size="10.00">diagnostics</text>
</a>
</g>
</g>
<!-- Node5&#45;&gt;Node6 -->
<g id="edge6" class="edge">
<title>Node5&#45;&gt;Node6</title>
<path fill="none" stroke="#63b8ff" d="M231.85,-66.94C243.36,-65.34 255.95,-63.59 268.06,-61.91"/>
<polygon fill="#63b8ff" stroke="#63b8ff" points="268.53,-65.38 277.96,-60.54 267.57,-58.45 268.53,-65.38"/>
</g>
<!-- Node7 -->
<g id="node7" class="node">
<title>Node7</title>
<g id="a_node7"><a xlink:href="classdetail_1_1exception.html#a8f1eb56b9964c8dd84d89d0da98d883b" target="_top" xlink:title=" ">
<polygon fill="white" stroke="#666666" points="384.75,-20 267.5,-20 267.5,0 384.75,0 384.75,-20"/>
<text text-anchor="middle" x="326.12" y="-6.5" font-family="Helvetica,sans-Serif" font-size="10.00">detail::exception::name</text>
</a>
</g>
</g>
<!-- Node5&#45;&gt;Node7 -->
<g id="edge7" class="edge">
<title>Node5&#45;&gt;Node7</title>
<path fill="none" stroke="#63b8ff" d="M214.67,-56.64C229.8,-47.74 249.31,-36.96 267.5,-29 271.29,-27.34 275.28,-25.74 279.31,-24.23"/>
<polygon fill="#63b8ff" stroke="#63b8ff" points="280.32,-27.58 288.56,-20.93 277.97,-20.99 280.32,-27.58"/>
</g>
<!-- Node7&#45;&gt;Node2 -->
<g id="edge8" class="edge">
<title>Node7&#45;&gt;Node2</title>
<path fill="none" stroke="#63b8ff" d="M366.6,-20.41C372.88,-22.79 379.15,-25.64 384.75,-29 406.92,-42.3 427.77,-63.51 441.32,-78.9"/>
<polygon fill="#63b8ff" stroke="#63b8ff" points="438.62,-81.13 447.77,-86.46 443.94,-76.59 438.62,-81.13"/>
</g>
</g>
</svg>
