<?xml version="1.0" encoding="UTF-8" standalone="no"?>
<!DOCTYPE svg PUBLIC "-//W3C//DTD SVG 1.1//EN"
 "http://www.w3.org/Graphics/SVG/1.1/DTD/svg11.dtd">
<!-- Generated by graphviz version 12.2.1 (20241206.2353)
 -->
<!-- Title: detail::dtoa_impl::grisu2 Pages: 1 -->
<svg width="388pt" height="172pt"
 viewBox="0.00 0.00 387.50 172.00" xmlns="http://www.w3.org/2000/svg" xmlns:xlink="http://www.w3.org/1999/xlink">
<g id="graph0" class="graph" transform="scale(1 1) rotate(0) translate(4 168)">
<title>detail::dtoa_impl::grisu2</title>
<!-- Node1 -->
<g id="node1" class="node">
<title>Node1</title>
<g id="a_node1"><a xlink:title=" ">
<polygon fill="#999999" stroke="#666666" points="93.25,-103 0,-103 0,-71 93.25,-71 93.25,-103"/>
<text text-anchor="start" x="8" y="-89.5" font-family="Helvetica,sans-Serif" font-size="10.00">detail::dtoa_impl::</text>
<text text-anchor="middle" x="46.62" y="-77.5" font-family="Helvetica,sans-Serif" font-size="10.00">grisu2</text>
</a>
</g>
</g>
<!-- Node2 -->
<g id="node2" class="node">
<title>Node2</title>
<g id="a_node2"><a xlink:href="namespacedetail_1_1dtoa__impl.html#a29ae6574f6be09a5c8ab08da9a3f71b4" target="_top" xlink:title=" ">
<polygon fill="white" stroke="#666666" points="243.5,-146 129.25,-146 129.25,-102 243.5,-102 243.5,-146"/>
<text text-anchor="start" x="137.25" y="-132.5" font-family="Helvetica,sans-Serif" font-size="10.00">detail::dtoa_impl::</text>
<text text-anchor="start" x="137.25" y="-120.5" font-family="Helvetica,sans-Serif" font-size="10.00">get_cached_power_for</text>
<text text-anchor="middle" x="186.38" y="-108.5" font-family="Helvetica,sans-Serif" font-size="10.00">_binary_exponent</text>
</a>
</g>
</g>
<!-- Node1&#45;&gt;Node2 -->
<g id="edge1" class="edge">
<title>Node1&#45;&gt;Node2</title>
<path fill="none" stroke="#63b8ff" d="M93.49,-99.32C101.44,-101.45 109.85,-103.71 118.22,-105.96"/>
<polygon fill="#63b8ff" stroke="#63b8ff" points="117.14,-109.29 127.7,-108.51 118.95,-102.53 117.14,-109.29"/>
</g>
<!-- Node3 -->
<g id="node3" class="node">
<title>Node3</title>
<g id="a_node3"><a xlink:href="namespacedetail_1_1dtoa__impl.html#ae877aa13ab872c99a1c614e5e1524807" target="_top" xlink:title=" ">
<polygon fill="white" stroke="#666666" points="233,-66 139.75,-66 139.75,-34 233,-34 233,-66"/>
<text text-anchor="start" x="147.75" y="-52.5" font-family="Helvetica,sans-Serif" font-size="10.00">detail::dtoa_impl::</text>
<text text-anchor="middle" x="186.38" y="-40.5" font-family="Helvetica,sans-Serif" font-size="10.00">grisu2_digit_gen</text>
</a>
</g>
</g>
<!-- Node1&#45;&gt;Node3 -->
<g id="edge3" class="edge">
<title>Node1&#45;&gt;Node3</title>
<path fill="none" stroke="#63b8ff" d="M93.49,-74.68C104.76,-71.65 116.96,-68.38 128.67,-65.23"/>
<polygon fill="#63b8ff" stroke="#63b8ff" points="129.5,-68.63 138.24,-62.66 127.68,-61.87 129.5,-68.63"/>
</g>
<!-- Node2&#45;&gt;Node2 -->
<g id="edge2" class="edge">
<title>Node2&#45;&gt;Node2</title>
<path fill="none" stroke="#63b8ff" d="M160.49,-146.21C158.37,-155.8 167,-164 186.38,-164 197.58,-164 205.19,-161.26 209.21,-157.09"/>
<polygon fill="#63b8ff" stroke="#63b8ff" points="212.52,-158.24 211.86,-147.67 205.78,-156.35 212.52,-158.24"/>
</g>
<!-- Node3&#45;&gt;Node3 -->
<g id="edge6" class="edge">
<title>Node3&#45;&gt;Node3</title>
<path fill="none" stroke="#63b8ff" d="M161.43,-66.44C156.77,-75.58 165.08,-84 186.38,-84 198.02,-84 205.78,-81.48 209.66,-77.71"/>
<polygon fill="#63b8ff" stroke="#63b8ff" points="213.11,-78.34 211.1,-67.94 206.18,-77.32 213.11,-78.34"/>
</g>
<!-- Node4 -->
<g id="node4" class="node">
<title>Node4</title>
<g id="a_node4"><a xlink:href="namespacedetail_1_1dtoa__impl.html#a04eb234a28617519974fc962cd4da666" target="_top" xlink:title=" ">
<polygon fill="white" stroke="#666666" points="379.5,-100 279.5,-100 279.5,-68 379.5,-68 379.5,-100"/>
<text text-anchor="start" x="287.5" y="-86.5" font-family="Helvetica,sans-Serif" font-size="10.00">detail::dtoa_impl::</text>
<text text-anchor="middle" x="329.5" y="-74.5" font-family="Helvetica,sans-Serif" font-size="10.00">find_largest_pow10</text>
</a>
</g>
</g>
<!-- Node3&#45;&gt;Node4 -->
<g id="edge4" class="edge">
<title>Node3&#45;&gt;Node4</title>
<path fill="none" stroke="#63b8ff" d="M233.19,-61.04C244.29,-63.71 256.33,-66.61 267.99,-69.42"/>
<polygon fill="#63b8ff" stroke="#63b8ff" points="267,-72.78 277.54,-71.72 268.64,-65.98 267,-72.78"/>
</g>
<!-- Node5 -->
<g id="node5" class="node">
<title>Node5</title>
<g id="a_node5"><a xlink:href="namespacedetail_1_1dtoa__impl.html#a73a15efcb5c2157ea0e1375b98ef0e83" target="_top" xlink:title=" ">
<polygon fill="white" stroke="#666666" points="376.12,-32 282.88,-32 282.88,0 376.12,0 376.12,-32"/>
<text text-anchor="start" x="290.88" y="-18.5" font-family="Helvetica,sans-Serif" font-size="10.00">detail::dtoa_impl::</text>
<text text-anchor="middle" x="329.5" y="-6.5" font-family="Helvetica,sans-Serif" font-size="10.00">grisu2_round</text>
</a>
</g>
</g>
<!-- Node3&#45;&gt;Node5 -->
<g id="edge7" class="edge">
<title>Node3&#45;&gt;Node5</title>
<path fill="none" stroke="#63b8ff" d="M233.19,-38.96C245.4,-36.02 258.73,-32.81 271.45,-29.75"/>
<polygon fill="#63b8ff" stroke="#63b8ff" points="272.05,-33.2 280.96,-27.45 270.41,-26.39 272.05,-33.2"/>
</g>
<!-- Node4&#45;&gt;Node4 -->
<g id="edge5" class="edge">
<title>Node4&#45;&gt;Node4</title>
<path fill="none" stroke="#63b8ff" d="M303.95,-100.44C299.18,-109.58 307.7,-118 329.5,-118 341.42,-118 349.37,-115.48 353.35,-111.71"/>
<polygon fill="#63b8ff" stroke="#63b8ff" points="356.79,-112.35 354.83,-101.94 349.87,-111.3 356.79,-112.35"/>
</g>
<!-- Node5&#45;&gt;Node5 -->
<g id="edge8" class="edge">
<title>Node5&#45;&gt;Node5</title>
<path fill="none" stroke="#63b8ff" d="M303.95,-32.44C299.18,-41.58 307.7,-50 329.5,-50 341.42,-50 349.37,-47.48 353.35,-43.71"/>
<polygon fill="#63b8ff" stroke="#63b8ff" points="356.79,-44.35 354.83,-33.94 349.87,-43.3 356.79,-44.35"/>
</g>
</g>
</svg>
