<?xml version="1.0" encoding="UTF-8" standalone="no"?>
<!DOCTYPE svg PUBLIC "-//W3C//DTD SVG 1.1//EN"
 "http://www.w3.org/Graphics/SVG/1.1/DTD/svg11.dtd">
<!-- Generated by graphviz version 12.2.1 (20241206.2353)
 -->
<!-- Title: detail::concat Pages: 1 -->
<svg width="872pt" height="1274pt"
 viewBox="0.00 0.00 872.00 1274.00" xmlns="http://www.w3.org/2000/svg" xmlns:xlink="http://www.w3.org/1999/xlink">
<g id="graph0" class="graph" transform="scale(1 1) rotate(0) translate(4 1270)">
<title>detail::concat</title>
<!-- Node1 -->
<g id="node1" class="node">
<title>Node1</title>
<g id="a_node1"><a xlink:title=" ">
<polygon fill="#999999" stroke="#666666" points="864,-658 789.5,-658 789.5,-638 864,-638 864,-658"/>
<text text-anchor="middle" x="826.75" y="-644.5" font-family="Helvetica,sans-Serif" font-size="10.00">detail::concat</text>
</a>
</g>
</g>
<!-- Node2 -->
<g id="node2" class="node">
<title>Node2</title>
<g id="a_node2"><a xlink:href="classbasic__json.html#a899e4623fe377af5c9ad14c40c64280c" target="_top" xlink:title="access specified array element with bounds checking">
<polygon fill="white" stroke="#666666" points="557.12,-1266 480.38,-1266 480.38,-1246 557.12,-1246 557.12,-1266"/>
<text text-anchor="middle" x="518.75" y="-1252.5" font-family="Helvetica,sans-Serif" font-size="10.00">basic_json::at</text>
</a>
</g>
</g>
<!-- Node1&#45;&gt;Node2 -->
<g id="edge1" class="edge">
<title>Node1&#45;&gt;Node2</title>
<path fill="none" stroke="#63b8ff" d="M826.04,-669.38C826.84,-760.95 825.25,-1118.99 753.5,-1199 703.72,-1254.51 609.72,-1260.32 557.36,-1258.75"/>
<polygon fill="#63b8ff" stroke="#63b8ff" points="829.54,-669.55 825.93,-659.59 822.54,-669.63 829.54,-669.55"/>
</g>
<!-- Node3 -->
<g id="node3" class="node">
<title>Node3</title>
<g id="a_node3"><a xlink:href="classbasic__json.html#a693812b31e106dec9166e93d8f6dd7d7" target="_top" xlink:title="applies a JSON patch in&#45;place without copying the object">
<polygon fill="white" stroke="#666666" points="257,-1114 128.5,-1114 128.5,-1094 257,-1094 257,-1114"/>
<text text-anchor="middle" x="192.75" y="-1100.5" font-family="Helvetica,sans-Serif" font-size="10.00">basic_json::patch_inplace</text>
</a>
</g>
</g>
<!-- Node1&#45;&gt;Node3 -->
<g id="edge41" class="edge">
<title>Node1&#45;&gt;Node3</title>
<path fill="none" stroke="#63b8ff" d="M824.74,-669.24C820.89,-740.74 804.66,-970.91 753.5,-1020 718.05,-1054.02 396.35,-1086.15 257.3,-1098.58"/>
<polygon fill="#63b8ff" stroke="#63b8ff" points="828.22,-669.83 825.23,-659.67 821.22,-669.47 828.22,-669.83"/>
</g>
<!-- Node5 -->
<g id="node5" class="node">
<title>Node5</title>
<g id="a_node5"><a xlink:href="classbasic__json.html#af97b4fcd01509076c8a7b32ec1a10aec" target="_top" xlink:title="construct a JSON container given an iterator range">
<polygon fill="white" stroke="#666666" points="740,-724 625,-724 625,-704 740,-704 740,-724"/>
<text text-anchor="middle" x="682.5" y="-710.5" font-family="Helvetica,sans-Serif" font-size="10.00">basic_json::basic_json</text>
</a>
</g>
</g>
<!-- Node1&#45;&gt;Node5 -->
<g id="edge4" class="edge">
<title>Node1&#45;&gt;Node5</title>
<path fill="none" stroke="#63b8ff" d="M803.49,-665.09C789.71,-674.99 771.3,-687.03 753.5,-695 746.14,-698.29 738.09,-701.13 730.15,-703.53"/>
<polygon fill="#63b8ff" stroke="#63b8ff" points="805.44,-668 811.41,-659.25 801.29,-662.37 805.44,-668"/>
</g>
<!-- Node6 -->
<g id="node6" class="node">
<title>Node6</title>
<g id="a_node6"><a xlink:href="classdetail_1_1parse__error.html#a07046ea9f33d28f120af188ed674d6df" target="_top" xlink:title="create a parse error exception">
<polygon fill="white" stroke="#666666" points="565.75,-988 471.75,-988 471.75,-956 565.75,-956 565.75,-988"/>
<text text-anchor="start" x="479.75" y="-974.5" font-family="Helvetica,sans-Serif" font-size="10.00">detail::parse_error</text>
<text text-anchor="middle" x="518.75" y="-962.5" font-family="Helvetica,sans-Serif" font-size="10.00">::create</text>
</a>
</g>
</g>
<!-- Node1&#45;&gt;Node6 -->
<g id="edge5" class="edge">
<title>Node1&#45;&gt;Node6</title>
<path fill="none" stroke="#63b8ff" d="M823.83,-669.37C817.74,-732.1 796.64,-913.68 753.5,-951 702.04,-995.52 618.25,-990.89 566.2,-982.29"/>
<polygon fill="#63b8ff" stroke="#63b8ff" points="827.29,-669.97 824.74,-659.69 820.32,-669.32 827.29,-669.97"/>
</g>
<!-- Node9 -->
<g id="node9" class="node">
<title>Node9</title>
<g id="a_node9"><a xlink:href="classdetail_1_1invalid__iterator.html#a35d0b713b151188622791891314949f9" target="_top" xlink:title=" ">
<polygon fill="white" stroke="#666666" points="572.88,-938 464.62,-938 464.62,-906 572.88,-906 572.88,-938"/>
<text text-anchor="start" x="472.62" y="-924.5" font-family="Helvetica,sans-Serif" font-size="10.00">detail::invalid_iterator</text>
<text text-anchor="middle" x="518.75" y="-912.5" font-family="Helvetica,sans-Serif" font-size="10.00">::create</text>
</a>
</g>
</g>
<!-- Node1&#45;&gt;Node9 -->
<g id="edge8" class="edge">
<title>Node1&#45;&gt;Node9</title>
<path fill="none" stroke="#63b8ff" d="M823.44,-669.48C816.59,-728.63 794.29,-891.54 753.5,-923 701.28,-963.27 621.17,-952.02 569.62,-938.42"/>
<polygon fill="#63b8ff" stroke="#63b8ff" points="826.89,-670.07 824.53,-659.74 819.94,-669.29 826.89,-670.07"/>
</g>
<!-- Node10 -->
<g id="node10" class="node">
<title>Node10</title>
<g id="a_node10"><a xlink:href="classdetail_1_1type__error.html#a2d25372628cf1e09ec67718f4bc42762" target="_top" xlink:title=" ">
<polygon fill="white" stroke="#666666" points="563.12,-800 474.38,-800 474.38,-768 563.12,-768 563.12,-800"/>
<text text-anchor="start" x="482.38" y="-786.5" font-family="Helvetica,sans-Serif" font-size="10.00">detail::type_error</text>
<text text-anchor="middle" x="518.75" y="-774.5" font-family="Helvetica,sans-Serif" font-size="10.00">::create</text>
</a>
</g>
</g>
<!-- Node1&#45;&gt;Node10 -->
<g id="edge9" class="edge">
<title>Node1&#45;&gt;Node10</title>
<path fill="none" stroke="#63b8ff" d="M819.55,-668.92C810.18,-696.46 789.55,-743.94 753.5,-766 695.35,-801.58 613.22,-798.31 563.39,-791.79"/>
<polygon fill="#63b8ff" stroke="#63b8ff" points="822.82,-670.19 822.53,-659.6 816.15,-668.06 822.82,-670.19"/>
</g>
<!-- Node11 -->
<g id="node11" class="node">
<title>Node11</title>
<g id="a_node11"><a xlink:href="namespacedetail.html#ac8fc7fc4703cbd8edd7bb43a94adf92b" target="_top" xlink:title=" ">
<polygon fill="white" stroke="#666666" points="403.5,-827 315.5,-827 315.5,-807 403.5,-807 403.5,-827"/>
<text text-anchor="middle" x="359.5" y="-813.5" font-family="Helvetica,sans-Serif" font-size="10.00">detail::from_json</text>
</a>
</g>
</g>
<!-- Node1&#45;&gt;Node11 -->
<g id="edge27" class="edge">
<title>Node1&#45;&gt;Node11</title>
<path fill="none" stroke="#63b8ff" d="M822.04,-669.61C815.09,-702.84 796.69,-765.69 753.5,-795 697.66,-832.89 494.07,-825.41 403.94,-820.01"/>
<polygon fill="#63b8ff" stroke="#63b8ff" points="825.45,-670.43 823.89,-659.95 818.58,-669.11 825.45,-670.43"/>
</g>
<!-- Node13 -->
<g id="node13" class="node">
<title>Node13</title>
<g id="a_node13"><a xlink:href="namespacedetail.html#ad10dc6af43ec8e72954eb2ac08c8698b" target="_top" xlink:title=" ">
<polygon fill="white" stroke="#666666" points="412.88,-767 306.12,-767 306.12,-735 412.88,-735 412.88,-767"/>
<text text-anchor="start" x="314.12" y="-753.5" font-family="Helvetica,sans-Serif" font-size="10.00">detail::get_arithmetic</text>
<text text-anchor="middle" x="359.5" y="-741.5" font-family="Helvetica,sans-Serif" font-size="10.00">_value</text>
</a>
</g>
</g>
<!-- Node1&#45;&gt;Node13 -->
<g id="edge28" class="edge">
<title>Node1&#45;&gt;Node13</title>
<path fill="none" stroke="#63b8ff" d="M815.24,-668.09C803.32,-688.53 781.8,-719.12 753.5,-733 695.09,-761.65 505.99,-757.63 413.05,-753.69"/>
<polygon fill="#63b8ff" stroke="#63b8ff" points="818.2,-669.98 819.99,-659.53 812.08,-666.58 818.2,-669.98"/>
</g>
<!-- Node15 -->
<g id="node15" class="node">
<title>Node15</title>
<g id="a_node15"><a xlink:href="classdetail_1_1out__of__range.html#a79ea0d3ec02a853629dc827e045ecff5" target="_top" xlink:title=" ">
<polygon fill="white" stroke="#666666" points="569.5,-1038 468,-1038 468,-1006 569.5,-1006 569.5,-1038"/>
<text text-anchor="start" x="476" y="-1024.5" font-family="Helvetica,sans-Serif" font-size="10.00">detail::out_of_range</text>
<text text-anchor="middle" x="518.75" y="-1012.5" font-family="Helvetica,sans-Serif" font-size="10.00">::create</text>
</a>
</g>
</g>
<!-- Node1&#45;&gt;Node15 -->
<g id="edge14" class="edge">
<title>Node1&#45;&gt;Node15</title>
<path fill="none" stroke="#63b8ff" d="M824.18,-669.68C818.88,-736.8 799.3,-939.31 753.5,-983 704.68,-1029.57 622.48,-1032.48 569.7,-1028.56"/>
<polygon fill="#63b8ff" stroke="#63b8ff" points="827.65,-670.21 824.92,-659.98 820.67,-669.68 827.65,-670.21"/>
</g>
<!-- Node19 -->
<g id="node19" class="node">
<title>Node19</title>
<g id="a_node19"><a xlink:href="classdetail_1_1other__error.html#a687565ec69bfdf7a15f9a672038b0f0f" target="_top" xlink:title=" ">
<polygon fill="white" stroke="#666666" points="564.62,-888 472.88,-888 472.88,-856 564.62,-856 564.62,-888"/>
<text text-anchor="start" x="480.88" y="-874.5" font-family="Helvetica,sans-Serif" font-size="10.00">detail::other_error</text>
<text text-anchor="middle" x="518.75" y="-862.5" font-family="Helvetica,sans-Serif" font-size="10.00">::create</text>
</a>
</g>
</g>
<!-- Node1&#45;&gt;Node19 -->
<g id="edge20" class="edge">
<title>Node1&#45;&gt;Node19</title>
<path fill="none" stroke="#63b8ff" d="M824.65,-669.56C821.32,-710.42 807.86,-798.85 753.5,-842 699.82,-884.61 616.32,-884.3 565,-879"/>
<polygon fill="#63b8ff" stroke="#63b8ff" points="828.14,-669.81 825.32,-659.6 821.16,-669.35 828.14,-669.81"/>
</g>
<!-- Node20 -->
<g id="node20" class="node">
<title>Node20</title>
<g id="a_node20"><a xlink:href="classdetail_1_1exception.html#af3739c53fe56a1712754d13dfa561f80" target="_top" xlink:title=" ">
<polygon fill="white" stroke="#666666" points="729.12,-686 635.88,-686 635.88,-654 729.12,-654 729.12,-686"/>
<text text-anchor="start" x="643.88" y="-672.5" font-family="Helvetica,sans-Serif" font-size="10.00">detail::exception::</text>
<text text-anchor="middle" x="682.5" y="-660.5" font-family="Helvetica,sans-Serif" font-size="10.00">diagnostics</text>
</a>
</g>
</g>
<!-- Node1&#45;&gt;Node20 -->
<g id="edge21" class="edge">
<title>Node1&#45;&gt;Node20</title>
<path fill="none" stroke="#63b8ff" d="M778.05,-655.38C762.37,-657.8 744.99,-660.49 729.44,-662.89"/>
<polygon fill="#63b8ff" stroke="#63b8ff" points="778.27,-658.88 787.62,-653.9 777.2,-651.97 778.27,-658.88"/>
</g>
<!-- Node21 -->
<g id="node21" class="node">
<title>Node21</title>
<g id="a_node21"><a xlink:href="classbasic__json.html#af298488e59ff260d2ca950070cf19196" target="_top" xlink:title="add an object to an object if key does not exist">
<polygon fill="white" stroke="#666666" points="735.12,-636 629.88,-636 629.88,-616 735.12,-616 735.12,-636"/>
<text text-anchor="middle" x="682.5" y="-622.5" font-family="Helvetica,sans-Serif" font-size="10.00">basic_json::emplace</text>
</a>
</g>
</g>
<!-- Node1&#45;&gt;Node21 -->
<g id="edge22" class="edge">
<title>Node1&#45;&gt;Node21</title>
<path fill="none" stroke="#63b8ff" d="M778.01,-640.62C764.37,-638.51 749.44,-636.2 735.56,-634.05"/>
<polygon fill="#63b8ff" stroke="#63b8ff" points="777.2,-644.03 787.62,-642.1 778.27,-637.12 777.2,-644.03"/>
</g>
<!-- Node22 -->
<g id="node22" class="node">
<title>Node22</title>
<g id="a_node22"><a xlink:href="classbasic__json.html#ac5f0a15957842b188826aea98a9cfd3d" target="_top" xlink:title="add an object to an array">
<polygon fill="white" stroke="#666666" points="748.25,-598 616.75,-598 616.75,-578 748.25,-578 748.25,-598"/>
<text text-anchor="middle" x="682.5" y="-584.5" font-family="Helvetica,sans-Serif" font-size="10.00">basic_json::emplace_back</text>
</a>
</g>
</g>
<!-- Node1&#45;&gt;Node22 -->
<g id="edge23" class="edge">
<title>Node1&#45;&gt;Node22</title>
<path fill="none" stroke="#63b8ff" d="M800.43,-631.55C786.92,-623.31 769.76,-613.7 753.5,-607 745.58,-603.74 736.93,-600.87 728.5,-598.42"/>
<polygon fill="#63b8ff" stroke="#63b8ff" points="798.36,-634.38 808.7,-636.71 802.07,-628.44 798.36,-634.38"/>
</g>
<!-- Node23 -->
<g id="node23" class="node">
<title>Node23</title>
<g id="a_node23"><a xlink:href="classbasic__json.html#a7d0fef086b1b72372113db6ce7446189" target="_top" xlink:title="remove element given an iterator">
<polygon fill="white" stroke="#666666" points="565,-1114 472.5,-1114 472.5,-1094 565,-1094 565,-1114"/>
<text text-anchor="middle" x="518.75" y="-1100.5" font-family="Helvetica,sans-Serif" font-size="10.00">basic_json::erase</text>
</a>
</g>
</g>
<!-- Node1&#45;&gt;Node23 -->
<g id="edge24" class="edge">
<title>Node1&#45;&gt;Node23</title>
<path fill="none" stroke="#63b8ff" d="M825.45,-669.6C823.87,-749.03 814.03,-1023.19 753.5,-1080 703.38,-1127.04 617.97,-1122.55 565.44,-1113.99"/>
<polygon fill="#63b8ff" stroke="#63b8ff" points="828.95,-669.79 825.62,-659.73 821.95,-669.67 828.95,-669.79"/>
</g>
<!-- Node24 -->
<g id="node24" class="node">
<title>Node24</title>
<g id="a_node24"><a xlink:href="classdetail_1_1serializer.html#a491abc2de2affbc9c3490bde110b7f07" target="_top" xlink:title=" ">
<polygon fill="white" stroke="#666666" points="733.25,-560 631.75,-560 631.75,-540 733.25,-540 733.25,-560"/>
<text text-anchor="middle" x="682.5" y="-546.5" font-family="Helvetica,sans-Serif" font-size="10.00">detail::serializer::for</text>
</a>
</g>
</g>
<!-- Node1&#45;&gt;Node24 -->
<g id="edge26" class="edge">
<title>Node1&#45;&gt;Node24</title>
<path fill="none" stroke="#63b8ff" d="M812.67,-628.24C799.73,-610.2 778.29,-584.11 753.5,-569 747.37,-565.26 740.5,-562.25 733.52,-559.82"/>
<polygon fill="#63b8ff" stroke="#63b8ff" points="809.69,-630.07 818.26,-636.3 815.44,-626.09 809.69,-630.07"/>
</g>
<!-- Node25 -->
<g id="node25" class="node">
<title>Node25</title>
<g id="a_node25"><a xlink:href="classbasic__json.html#aaa2432a7c01833b02c6330709211ede7" target="_top" xlink:title="get a binary value">
<polygon fill="white" stroke="#666666" points="739.25,-522 625.75,-522 625.75,-502 739.25,-502 739.25,-522"/>
<text text-anchor="middle" x="682.5" y="-508.5" font-family="Helvetica,sans-Serif" font-size="10.00">basic_json::get_binary</text>
</a>
</g>
</g>
<!-- Node1&#45;&gt;Node25 -->
<g id="edge29" class="edge">
<title>Node1&#45;&gt;Node25</title>
<path fill="none" stroke="#63b8ff" d="M818.41,-627.07C808.06,-600.68 786.68,-555.77 753.5,-531 748.86,-527.53 743.62,-524.7 738.16,-522.38"/>
<polygon fill="#63b8ff" stroke="#63b8ff" points="815.09,-628.19 821.85,-636.34 821.65,-625.74 815.09,-628.19"/>
</g>
<!-- Node26 -->
<g id="node26" class="node">
<title>Node26</title>
<g id="a_node26"><a xlink:href="classbasic__json.html#a7f3817060c2bec896a99cb2c236b9c27" target="_top" xlink:title="inserts element into array">
<polygon fill="white" stroke="#666666" points="728.75,-1190 636.25,-1190 636.25,-1170 728.75,-1170 728.75,-1190"/>
<text text-anchor="middle" x="682.5" y="-1176.5" font-family="Helvetica,sans-Serif" font-size="10.00">basic_json::insert</text>
</a>
</g>
</g>
<!-- Node1&#45;&gt;Node26 -->
<g id="edge30" class="edge">
<title>Node1&#45;&gt;Node26</title>
<path fill="none" stroke="#63b8ff" d="M825.76,-669.52C825.34,-757.19 819.36,-1086.34 753.5,-1161 747.09,-1168.27 738.2,-1172.89 728.9,-1175.79"/>
<polygon fill="#63b8ff" stroke="#63b8ff" points="829.26,-669.71 825.78,-659.71 822.26,-669.7 829.26,-669.71"/>
</g>
<!-- Node28 -->
<g id="node28" class="node">
<title>Node28</title>
<g id="a_node28"><a xlink:href="classbasic__json.html#a7b435c2ed2db99cb1daa78ae3c6c4580" target="_top" xlink:title="returns version information on the library">
<polygon fill="white" stroke="#666666" points="727.62,-484 637.38,-484 637.38,-464 727.62,-464 727.62,-484"/>
<text text-anchor="middle" x="682.5" y="-470.5" font-family="Helvetica,sans-Serif" font-size="10.00">basic_json::meta</text>
</a>
</g>
</g>
<!-- Node1&#45;&gt;Node28 -->
<g id="edge33" class="edge">
<title>Node1&#45;&gt;Node28</title>
<path fill="none" stroke="#63b8ff" d="M821.79,-626.7C814.42,-593.17 795.39,-528.27 753.5,-493 746.18,-486.84 737.04,-482.66 727.8,-479.83"/>
<polygon fill="#63b8ff" stroke="#63b8ff" points="818.34,-627.31 823.76,-636.41 825.2,-625.91 818.34,-627.31"/>
</g>
<!-- Node29 -->
<g id="node29" class="node">
<title>Node29</title>
<g id="a_node29"><a xlink:href="classdetail_1_1exception.html#a8f1eb56b9964c8dd84d89d0da98d883b" target="_top" xlink:title=" ">
<polygon fill="white" stroke="#666666" points="741.12,-914 623.88,-914 623.88,-894 741.12,-894 741.12,-914"/>
<text text-anchor="middle" x="682.5" y="-900.5" font-family="Helvetica,sans-Serif" font-size="10.00">detail::exception::name</text>
</a>
</g>
</g>
<!-- Node1&#45;&gt;Node29 -->
<g id="edge34" class="edge">
<title>Node1&#45;&gt;Node29</title>
<path fill="none" stroke="#63b8ff" d="M825.24,-669.78C822.99,-715.13 811.43,-820.4 753.5,-880 747.86,-885.8 740.75,-890.2 733.25,-893.54"/>
<polygon fill="#63b8ff" stroke="#63b8ff" points="828.73,-670.07 825.6,-659.95 821.73,-669.81 828.73,-670.07"/>
</g>
<!-- Node30 -->
<g id="node30" class="node">
<title>Node30</title>
<g id="a_node30"><a xlink:href="classbasic__json.html#ab4f511db82b9d5eba85d5b2b8e1c6dbb" target="_top" xlink:title="access specified array element">
<polygon fill="white" stroke="#666666" points="737.38,-446 627.62,-446 627.62,-426 737.38,-426 737.38,-446"/>
<text text-anchor="middle" x="682.5" y="-432.5" font-family="Helvetica,sans-Serif" font-size="10.00">basic_json::operator[]</text>
</a>
</g>
</g>
<!-- Node1&#45;&gt;Node30 -->
<g id="edge40" class="edge">
<title>Node1&#45;&gt;Node30</title>
<path fill="none" stroke="#63b8ff" d="M823.97,-626.38C819.5,-586.5 804.23,-501.21 753.5,-455 748.94,-450.84 743.56,-447.58 737.84,-445.03"/>
<polygon fill="#63b8ff" stroke="#63b8ff" points="820.48,-626.72 824.94,-636.33 827.45,-626.04 820.48,-626.72"/>
</g>
<!-- Node31 -->
<g id="node31" class="node">
<title>Node31</title>
<g id="a_node31"><a xlink:href="classbasic__json.html#a3d13acce4e49e0d5ee768643a7b89010" target="_top" xlink:title="add an object to an array">
<polygon fill="white" stroke="#666666" points="740.38,-1152 624.62,-1152 624.62,-1132 740.38,-1132 740.38,-1152"/>
<text text-anchor="middle" x="682.5" y="-1138.5" font-family="Helvetica,sans-Serif" font-size="10.00">basic_json::push_back</text>
</a>
</g>
</g>
<!-- Node1&#45;&gt;Node31 -->
<g id="edge42" class="edge">
<title>Node1&#45;&gt;Node31</title>
<path fill="none" stroke="#63b8ff" d="M825.3,-669.96C823.17,-753.27 811.57,-1048.57 753.5,-1118 748.64,-1123.81 742.3,-1128.22 735.42,-1131.57"/>
<polygon fill="#63b8ff" stroke="#63b8ff" points="828.8,-670.07 825.53,-659.99 821.8,-669.91 828.8,-670.07"/>
</g>
<!-- Node32 -->
<g id="node32" class="node">
<title>Node32</title>
<g id="a_node32"><a xlink:href="classdetail_1_1binary__reader.html#a8e1b5452ae426e1d7b48761859e7f52d" target="_top" xlink:title=" ">
<polygon fill="white" stroke="#666666" points="734.38,-408 630.62,-408 630.62,-376 734.38,-376 734.38,-408"/>
<text text-anchor="start" x="638.62" y="-394.5" font-family="Helvetica,sans-Serif" font-size="10.00">detail::binary_reader</text>
<text text-anchor="middle" x="682.5" y="-382.5" font-family="Helvetica,sans-Serif" font-size="10.00">::sax_parse</text>
</a>
</g>
</g>
<!-- Node1&#45;&gt;Node32 -->
<g id="edge45" class="edge">
<title>Node1&#45;&gt;Node32</title>
<path fill="none" stroke="#63b8ff" d="M825.15,-626.37C822.72,-581.32 810.86,-476.69 753.5,-417 748.22,-411.51 741.66,-407.22 734.69,-403.88"/>
<polygon fill="#63b8ff" stroke="#63b8ff" points="821.64,-626.28 825.55,-636.12 828.63,-625.99 821.64,-626.28"/>
</g>
<!-- Node39 -->
<g id="node39" class="node">
<title>Node39</title>
<g id="a_node39"><a xlink:href="classdetail_1_1json__sax__dom__parser.html#ab47560ea9aebc6a25c0e2939bc8c95d0" target="_top" xlink:title=" ">
<polygon fill="white" stroke="#666666" points="736.62,-358 628.38,-358 628.38,-326 736.62,-326 736.62,-358"/>
<text text-anchor="start" x="636.38" y="-344.5" font-family="Helvetica,sans-Serif" font-size="10.00">detail::json_sax_dom</text>
<text text-anchor="middle" x="682.5" y="-332.5" font-family="Helvetica,sans-Serif" font-size="10.00">_parser::start_array</text>
</a>
</g>
</g>
<!-- Node1&#45;&gt;Node39 -->
<g id="edge52" class="edge">
<title>Node1&#45;&gt;Node39</title>
<path fill="none" stroke="#63b8ff" d="M826.61,-626.42C827.46,-574.72 822.36,-442.46 753.5,-367 748.89,-361.95 743.19,-357.92 737.04,-354.7"/>
<polygon fill="#63b8ff" stroke="#63b8ff" points="823.11,-626.14 826.34,-636.24 830.11,-626.34 823.11,-626.14"/>
</g>
<!-- Node40 -->
<g id="node40" class="node">
<title>Node40</title>
<g id="a_node40"><a xlink:href="classdetail_1_1json__sax__dom__callback__parser.html#a003acf2b06ffaf639bb6d34f5eb1695a" target="_top" xlink:title=" ">
<polygon fill="white" stroke="#666666" points="753.5,-308 611.5,-308 611.5,-276 753.5,-276 753.5,-308"/>
<text text-anchor="start" x="619.5" y="-294.5" font-family="Helvetica,sans-Serif" font-size="10.00">detail::json_sax_dom</text>
<text text-anchor="middle" x="682.5" y="-282.5" font-family="Helvetica,sans-Serif" font-size="10.00">_callback_parser::start_array</text>
</a>
</g>
</g>
<!-- Node1&#45;&gt;Node40 -->
<g id="edge53" class="edge">
<title>Node1&#45;&gt;Node40</title>
<path fill="none" stroke="#63b8ff" d="M823.76,-626.5C817.27,-560.73 794.74,-363.89 753.5,-317 750.6,-313.71 747.24,-310.84 743.59,-308.36"/>
<polygon fill="#63b8ff" stroke="#63b8ff" points="820.26,-626.69 824.7,-636.31 827.23,-626.02 820.26,-626.69"/>
</g>
<!-- Node41 -->
<g id="node41" class="node">
<title>Node41</title>
<g id="a_node41"><a xlink:href="classdetail_1_1json__sax__dom__parser.html#a65c9afecd60c3774278a37efe4f34518" target="_top" xlink:title=" ">
<polygon fill="white" stroke="#666666" points="736.62,-258 628.38,-258 628.38,-226 736.62,-226 736.62,-258"/>
<text text-anchor="start" x="636.38" y="-244.5" font-family="Helvetica,sans-Serif" font-size="10.00">detail::json_sax_dom</text>
<text text-anchor="middle" x="682.5" y="-232.5" font-family="Helvetica,sans-Serif" font-size="10.00">_parser::start_object</text>
</a>
</g>
</g>
<!-- Node1&#45;&gt;Node41 -->
<g id="edge54" class="edge">
<title>Node1&#45;&gt;Node41</title>
<path fill="none" stroke="#63b8ff" d="M824.44,-626.61C819.63,-554.55 800.67,-322.14 753.5,-267 748.97,-261.7 743.24,-257.53 737.01,-254.24"/>
<polygon fill="#63b8ff" stroke="#63b8ff" points="820.93,-626.51 825.06,-636.27 827.91,-626.06 820.93,-626.51"/>
</g>
<!-- Node42 -->
<g id="node42" class="node">
<title>Node42</title>
<g id="a_node42"><a xlink:href="classdetail_1_1json__sax__dom__callback__parser.html#ae6016c3811e0c22532a589caf470a21e" target="_top" xlink:title=" ">
<polygon fill="white" stroke="#666666" points="740,-208 625,-208 625,-164 740,-164 740,-208"/>
<text text-anchor="start" x="633" y="-194.5" font-family="Helvetica,sans-Serif" font-size="10.00">detail::json_sax_dom</text>
<text text-anchor="start" x="633" y="-182.5" font-family="Helvetica,sans-Serif" font-size="10.00">_callback_parser::start</text>
<text text-anchor="middle" x="682.5" y="-170.5" font-family="Helvetica,sans-Serif" font-size="10.00">_object</text>
</a>
</g>
</g>
<!-- Node1&#45;&gt;Node42 -->
<g id="edge55" class="edge">
<title>Node1&#45;&gt;Node42</title>
<path fill="none" stroke="#63b8ff" d="M824.79,-626.51C820.93,-548.62 804.17,-282.29 753.5,-217 749.83,-212.28 745.29,-208.25 740.3,-204.83"/>
<polygon fill="#63b8ff" stroke="#63b8ff" points="821.28,-626.36 825.25,-636.19 828.27,-626.03 821.28,-626.36"/>
</g>
<!-- Node43 -->
<g id="node43" class="node">
<title>Node43</title>
<g id="a_node43"><a xlink:href="classbasic__json.html#ac1e32c91d5e641c25c52486341f5a9db" target="_top" xlink:title="exchanges the values">
<polygon fill="white" stroke="#666666" points="728.38,-146 636.62,-146 636.62,-126 728.38,-126 728.38,-146"/>
<text text-anchor="middle" x="682.5" y="-132.5" font-family="Helvetica,sans-Serif" font-size="10.00">basic_json::swap</text>
</a>
</g>
</g>
<!-- Node1&#45;&gt;Node43 -->
<g id="edge56" class="edge">
<title>Node1&#45;&gt;Node43</title>
<path fill="none" stroke="#63b8ff" d="M825.62,-626.5C824.67,-541.03 816.84,-226.4 753.5,-155 747.07,-147.75 738.17,-143.14 728.87,-140.24"/>
<polygon fill="#63b8ff" stroke="#63b8ff" points="822.12,-626.31 825.71,-636.28 829.12,-626.25 822.12,-626.31"/>
</g>
<!-- Node44 -->
<g id="node44" class="node">
<title>Node44</title>
<g id="a_node44"><a xlink:href="classbasic__json.html#a4ea2b8cef5e4aba5b92d14e6ebe25936" target="_top" xlink:title="updates a JSON object from another object, overwriting existing keys">
<polygon fill="white" stroke="#666666" points="731.38,-108 633.62,-108 633.62,-88 731.38,-88 731.38,-108"/>
<text text-anchor="middle" x="682.5" y="-94.5" font-family="Helvetica,sans-Serif" font-size="10.00">basic_json::update</text>
</a>
</g>
</g>
<!-- Node1&#45;&gt;Node44 -->
<g id="edge57" class="edge">
<title>Node1&#45;&gt;Node44</title>
<path fill="none" stroke="#63b8ff" d="M825.87,-626.59C825.93,-537.17 821.66,-194.63 753.5,-117 747.77,-110.47 740.04,-106.08 731.81,-103.15"/>
<polygon fill="#63b8ff" stroke="#63b8ff" points="822.37,-626.36 825.84,-636.37 829.37,-626.38 822.37,-626.36"/>
</g>
<!-- Node45 -->
<g id="node45" class="node">
<title>Node45</title>
<g id="a_node45"><a xlink:href="classbasic__json.html#a80c2436388fd16a1529ce9afce8229ef" target="_top" xlink:title="access specified object element with default value">
<polygon fill="white" stroke="#666666" points="728.38,-70 636.62,-70 636.62,-50 728.38,-50 728.38,-70"/>
<text text-anchor="middle" x="682.5" y="-56.5" font-family="Helvetica,sans-Serif" font-size="10.00">basic_json::value</text>
</a>
</g>
</g>
<!-- Node1&#45;&gt;Node45 -->
<g id="edge58" class="edge">
<title>Node1&#45;&gt;Node45</title>
<path fill="none" stroke="#63b8ff" d="M826.09,-626.26C827.11,-532.39 826.38,-162.77 753.5,-79 747.05,-71.59 738.04,-66.93 728.61,-64.04"/>
<polygon fill="#63b8ff" stroke="#63b8ff" points="822.59,-626.06 825.96,-636.11 829.59,-626.15 822.59,-626.06"/>
</g>
<!-- Node46 -->
<g id="node46" class="node">
<title>Node46</title>
<g id="a_node46"><a xlink:href="classdetail_1_1binary__writer.html#a1aae361b7492825979cbb80245b9c0d6" target="_top" xlink:title=" ">
<polygon fill="white" stroke="#666666" points="732.88,-32 632.12,-32 632.12,0 732.88,0 732.88,-32"/>
<text text-anchor="start" x="640.12" y="-18.5" font-family="Helvetica,sans-Serif" font-size="10.00">detail::binary_writer</text>
<text text-anchor="middle" x="682.5" y="-6.5" font-family="Helvetica,sans-Serif" font-size="10.00">::write_bson</text>
</a>
</g>
</g>
<!-- Node1&#45;&gt;Node46 -->
<g id="edge59" class="edge">
<title>Node1&#45;&gt;Node46</title>
<path fill="none" stroke="#63b8ff" d="M826.12,-626.53C827.34,-529.66 827.67,-134.02 753.5,-41 748.19,-34.34 740.97,-29.45 733.17,-25.87"/>
<polygon fill="#63b8ff" stroke="#63b8ff" points="822.62,-626.37 825.97,-636.42 829.62,-626.47 822.62,-626.37"/>
</g>
<!-- Node2&#45;&gt;Node3 -->
<g id="edge2" class="edge">
<title>Node2&#45;&gt;Node3</title>
<path fill="none" stroke="#63b8ff" d="M468.78,-1261.37C420.9,-1264.29 347.45,-1262.37 293,-1232 242.9,-1204.06 209.62,-1139.37 198.17,-1114.24"/>
<polygon fill="#63b8ff" stroke="#63b8ff" points="468.84,-1264.88 478.57,-1260.67 468.34,-1257.89 468.84,-1264.88"/>
</g>
<!-- Node4 -->
<g id="node4" class="node">
<title>Node4</title>
<g id="a_node4"><a xlink:href="classbasic__json.html#a145a004c0a2fa5be84b260ecc98ab5d9" target="_top" xlink:title="applies a JSON patch to a copy of the current object">
<polygon fill="white" stroke="#666666" points="92.5,-1114 0,-1114 0,-1094 92.5,-1094 92.5,-1114"/>
<text text-anchor="middle" x="46.25" y="-1100.5" font-family="Helvetica,sans-Serif" font-size="10.00">basic_json::patch</text>
</a>
</g>
</g>
<!-- Node3&#45;&gt;Node4 -->
<g id="edge3" class="edge">
<title>Node3&#45;&gt;Node4</title>
<path fill="none" stroke="#63b8ff" d="M117.08,-1104C108.79,-1104 100.55,-1104 92.78,-1104"/>
<polygon fill="#63b8ff" stroke="#63b8ff" points="116.86,-1107.5 126.86,-1104 116.86,-1100.5 116.86,-1107.5"/>
</g>
<!-- Node7 -->
<g id="node7" class="node">
<title>Node7</title>
<g id="a_node7"><a xlink:href="classdetail_1_1wide__string__input__adapter.html#a12c464bdf348096f8ac250fb8f415a42" target="_top" xlink:title=" ">
<polygon fill="white" stroke="#666666" points="409.12,-962 309.88,-962 309.88,-918 409.12,-918 409.12,-962"/>
<text text-anchor="start" x="317.88" y="-948.5" font-family="Helvetica,sans-Serif" font-size="10.00">detail::wide_string</text>
<text text-anchor="start" x="317.88" y="-936.5" font-family="Helvetica,sans-Serif" font-size="10.00">_input_adapter::get</text>
<text text-anchor="middle" x="359.5" y="-924.5" font-family="Helvetica,sans-Serif" font-size="10.00">_elements</text>
</a>
</g>
</g>
<!-- Node6&#45;&gt;Node7 -->
<g id="edge6" class="edge">
<title>Node6&#45;&gt;Node7</title>
<path fill="none" stroke="#63b8ff" d="M460.17,-960.28C443.54,-956.9 425.56,-953.24 409.51,-949.97"/>
<polygon fill="#63b8ff" stroke="#63b8ff" points="459.44,-963.71 469.94,-962.27 460.84,-956.85 459.44,-963.71"/>
</g>
<!-- Node8 -->
<g id="node8" class="node">
<title>Node8</title>
<g id="a_node8"><a xlink:href="namespacedetail.html#aa7b34bd54868366a47c9adad778867bc" target="_top" xlink:title=" ">
<polygon fill="white" stroke="#666666" points="411.38,-900 307.62,-900 307.62,-880 411.38,-880 411.38,-900"/>
<text text-anchor="middle" x="359.5" y="-886.5" font-family="Helvetica,sans-Serif" font-size="10.00">detail::input_adapter</text>
</a>
</g>
</g>
<!-- Node6&#45;&gt;Node8 -->
<g id="edge7" class="edge">
<title>Node6&#45;&gt;Node8</title>
<path fill="none" stroke="#63b8ff" d="M466.7,-950.14C465.09,-949.12 463.52,-948.08 462,-947 443.02,-933.54 445.87,-921.11 426,-909 420.44,-905.61 414.24,-902.8 407.95,-900.48"/>
<polygon fill="#63b8ff" stroke="#63b8ff" points="464.51,-952.92 474.93,-954.85 467.99,-946.84 464.51,-952.92"/>
</g>
<!-- Node10&#45;&gt;Node11 -->
<g id="edge10" class="edge">
<title>Node10&#45;&gt;Node11</title>
<path fill="none" stroke="#63b8ff" d="M462.84,-795.52C443.5,-799.58 422.05,-804.08 403.8,-807.91"/>
<polygon fill="#63b8ff" stroke="#63b8ff" points="463.4,-798.98 472.47,-793.5 461.96,-792.13 463.4,-798.98"/>
</g>
<!-- Node10&#45;&gt;Node13 -->
<g id="edge12" class="edge">
<title>Node10&#45;&gt;Node13</title>
<path fill="none" stroke="#63b8ff" d="M463.05,-772.52C446.92,-769.14 429.3,-765.44 413.28,-762.08"/>
<polygon fill="#63b8ff" stroke="#63b8ff" points="461.96,-775.87 472.47,-774.5 463.4,-769.02 461.96,-775.87"/>
</g>
<!-- Node12 -->
<g id="node12" class="node">
<title>Node12</title>
<g id="a_node12"><a xlink:href="structdetail_1_1from__json__fn.html#a98f7c5bf6d2857ac7281d2b0fd98a907" target="_top" xlink:title=" ">
<polygon fill="white" stroke="#666666" points="243.5,-833 142,-833 142,-801 243.5,-801 243.5,-833"/>
<text text-anchor="start" x="150" y="-819.5" font-family="Helvetica,sans-Serif" font-size="10.00">detail::from_json_fn</text>
<text text-anchor="middle" x="192.75" y="-807.5" font-family="Helvetica,sans-Serif" font-size="10.00">::operator()</text>
</a>
</g>
</g>
<!-- Node11&#45;&gt;Node12 -->
<g id="edge11" class="edge">
<title>Node11&#45;&gt;Node12</title>
<path fill="none" stroke="#63b8ff" d="M303.8,-817C284.42,-817 262.72,-817 243.75,-817"/>
<polygon fill="#63b8ff" stroke="#63b8ff" points="303.7,-820.5 313.7,-817 303.7,-813.5 303.7,-820.5"/>
</g>
<!-- Node14 -->
<g id="node14" class="node">
<title>Node14</title>
<g id="a_node14"><a xlink:href="namespacedetail.html#a4c4e5abfc7ef24404781b5d8662891c0" target="_top" xlink:title=" ">
<polygon fill="white" stroke="#666666" points="236.75,-761 148.75,-761 148.75,-741 236.75,-741 236.75,-761"/>
<text text-anchor="middle" x="192.75" y="-747.5" font-family="Helvetica,sans-Serif" font-size="10.00">detail::from_json</text>
</a>
</g>
</g>
<!-- Node13&#45;&gt;Node14 -->
<g id="edge13" class="edge">
<title>Node13&#45;&gt;Node14</title>
<path fill="none" stroke="#63b8ff" d="M294.47,-751C275.23,-751 254.58,-751 237.02,-751"/>
<polygon fill="#63b8ff" stroke="#63b8ff" points="294.41,-754.5 304.41,-751 294.41,-747.5 294.41,-754.5"/>
</g>
<!-- Node16 -->
<g id="node16" class="node">
<title>Node16</title>
<g id="a_node16"><a xlink:href="classjson__pointer.html#aba71e63e4032cfc46dd90aeb09e5cb0f" target="_top" xlink:title="return last reference token">
<polygon fill="white" stroke="#666666" points="407.25,-1038 311.75,-1038 311.75,-1018 407.25,-1018 407.25,-1038"/>
<text text-anchor="middle" x="359.5" y="-1024.5" font-family="Helvetica,sans-Serif" font-size="10.00">json_pointer::back</text>
</a>
</g>
</g>
<!-- Node15&#45;&gt;Node16 -->
<g id="edge15" class="edge">
<title>Node15&#45;&gt;Node16</title>
<path fill="none" stroke="#63b8ff" d="M456.5,-1024.34C440.23,-1024.96 422.92,-1025.62 407.54,-1026.21"/>
<polygon fill="#63b8ff" stroke="#63b8ff" points="456.19,-1027.85 466.05,-1023.97 455.92,-1020.86 456.19,-1027.85"/>
</g>
<!-- Node17 -->
<g id="node17" class="node">
<title>Node17</title>
<g id="a_node17"><a xlink:href="classjson__pointer.html#a662118b470c87a1b564946c2602c49ce" target="_top" xlink:title="remove last reference token">
<polygon fill="white" stroke="#666666" points="417.75,-1000 301.25,-1000 301.25,-980 417.75,-980 417.75,-1000"/>
<text text-anchor="middle" x="359.5" y="-986.5" font-family="Helvetica,sans-Serif" font-size="10.00">json_pointer::pop_back</text>
</a>
</g>
</g>
<!-- Node15&#45;&gt;Node17 -->
<g id="edge17" class="edge">
<title>Node15&#45;&gt;Node17</title>
<path fill="none" stroke="#63b8ff" d="M456.48,-1009.53C441.71,-1006.53 426.09,-1003.35 411.83,-1000.45"/>
<polygon fill="#63b8ff" stroke="#63b8ff" points="455.58,-1012.92 466.08,-1011.49 456.98,-1006.06 455.58,-1012.92"/>
</g>
<!-- Node16&#45;&gt;Node3 -->
<g id="edge16" class="edge">
<title>Node16&#45;&gt;Node3</title>
<path fill="none" stroke="#63b8ff" d="M316.85,-1042.33C308.86,-1045.34 300.61,-1048.63 293,-1052 263.83,-1064.92 231.3,-1082.63 211.69,-1093.68"/>
<polygon fill="#63b8ff" stroke="#63b8ff" points="317.91,-1045.67 326.09,-1038.93 315.5,-1039.1 317.91,-1045.67"/>
</g>
<!-- Node17&#45;&gt;Node3 -->
<g id="edge19" class="edge">
<title>Node17&#45;&gt;Node3</title>
<path fill="none" stroke="#63b8ff" d="M301.29,-1004.75C298.43,-1006.06 295.65,-1007.47 293,-1009 253.12,-1031.99 216.96,-1074.31 201.58,-1093.75"/>
<polygon fill="#63b8ff" stroke="#63b8ff" points="302.52,-1008.03 310.49,-1001.05 299.91,-1001.54 302.52,-1008.03"/>
</g>
<!-- Node18 -->
<g id="node18" class="node">
<title>Node18</title>
<g id="a_node18"><a xlink:href="classjson__pointer.html#aa03c0c1206e171342d27a4583258858b" target="_top" xlink:title="returns the parent of this JSON pointer">
<polygon fill="white" stroke="#666666" points="243.5,-1006 142,-1006 142,-974 243.5,-974 243.5,-1006"/>
<text text-anchor="start" x="150" y="-992.5" font-family="Helvetica,sans-Serif" font-size="10.00">json_pointer::parent</text>
<text text-anchor="middle" x="192.75" y="-980.5" font-family="Helvetica,sans-Serif" font-size="10.00">_pointer</text>
</a>
</g>
</g>
<!-- Node17&#45;&gt;Node18 -->
<g id="edge18" class="edge">
<title>Node17&#45;&gt;Node18</title>
<path fill="none" stroke="#63b8ff" d="M289.38,-990C274.13,-990 258.26,-990 243.94,-990"/>
<polygon fill="#63b8ff" stroke="#63b8ff" points="289.36,-993.5 299.36,-990 289.36,-986.5 289.36,-993.5"/>
</g>
<!-- Node23&#45;&gt;Node3 -->
<g id="edge25" class="edge">
<title>Node23&#45;&gt;Node3</title>
<path fill="none" stroke="#63b8ff" d="M460.7,-1104C403.77,-1104 316.49,-1104 257.36,-1104"/>
<polygon fill="#63b8ff" stroke="#63b8ff" points="460.5,-1107.5 470.5,-1104 460.5,-1100.5 460.5,-1107.5"/>
</g>
<!-- Node26&#45;&gt;Node3 -->
<g id="edge32" class="edge">
<title>Node26&#45;&gt;Node3</title>
<path fill="none" stroke="#63b8ff" d="M624.59,-1192.11C608.77,-1194.96 591.53,-1197.57 575.5,-1199 525.25,-1203.47 511.72,-1207.54 462,-1199 366.32,-1182.56 259.48,-1135.39 214.98,-1114.35"/>
<polygon fill="#63b8ff" stroke="#63b8ff" points="625.15,-1195.57 634.34,-1190.29 623.86,-1188.69 625.15,-1195.57"/>
</g>
<!-- Node27 -->
<g id="node27" class="node">
<title>Node27</title>
<g id="a_node27"><a xlink:href="classbasic__json.html#a940e724a2e8d5400ab772eb22af0387c" target="_top" xlink:title="creates a diff as a JSON patch">
<polygon fill="white" stroke="#666666" points="559.75,-1190 477.75,-1190 477.75,-1170 559.75,-1170 559.75,-1190"/>
<text text-anchor="middle" x="518.75" y="-1176.5" font-family="Helvetica,sans-Serif" font-size="10.00">basic_json::diff</text>
</a>
</g>
</g>
<!-- Node26&#45;&gt;Node27 -->
<g id="edge31" class="edge">
<title>Node26&#45;&gt;Node27</title>
<path fill="none" stroke="#63b8ff" d="M624.51,-1180C603.29,-1180 579.65,-1180 560.21,-1180"/>
<polygon fill="#63b8ff" stroke="#63b8ff" points="624.5,-1183.5 634.5,-1180 624.5,-1176.5 624.5,-1183.5"/>
</g>
<!-- Node29&#45;&gt;Node6 -->
<g id="edge35" class="edge">
<title>Node29&#45;&gt;Node6</title>
<path fill="none" stroke="#63b8ff" d="M646.15,-918.86C620.38,-929.69 585.48,-944.37 558.87,-955.55"/>
<polygon fill="#63b8ff" stroke="#63b8ff" points="647.32,-922.16 655.19,-915.06 644.61,-915.71 647.32,-922.16"/>
</g>
<!-- Node29&#45;&gt;Node9 -->
<g id="edge36" class="edge">
<title>Node29&#45;&gt;Node9</title>
<path fill="none" stroke="#63b8ff" d="M612.23,-911.71C599.18,-913.16 585.72,-914.66 573.24,-916.05"/>
<polygon fill="#63b8ff" stroke="#63b8ff" points="612.51,-915.2 622.06,-910.61 611.73,-908.24 612.51,-915.2"/>
</g>
<!-- Node29&#45;&gt;Node10 -->
<g id="edge37" class="edge">
<title>Node29&#45;&gt;Node10</title>
<path fill="none" stroke="#63b8ff" d="M658.21,-886.72C627.07,-863.62 572.28,-822.97 541.79,-800.35"/>
<polygon fill="#63b8ff" stroke="#63b8ff" points="656.1,-889.51 666.21,-892.66 660.27,-883.89 656.1,-889.51"/>
</g>
<!-- Node29&#45;&gt;Node15 -->
<g id="edge38" class="edge">
<title>Node29&#45;&gt;Node15</title>
<path fill="none" stroke="#63b8ff" d="M663.91,-922.44C643.91,-942.65 609.59,-975.11 575.5,-997 570.77,-1000.04 565.61,-1002.89 560.4,-1005.5"/>
<polygon fill="#63b8ff" stroke="#63b8ff" points="666.27,-925.03 670.74,-915.43 661.26,-920.15 666.27,-925.03"/>
</g>
<!-- Node29&#45;&gt;Node19 -->
<g id="edge39" class="edge">
<title>Node29&#45;&gt;Node19</title>
<path fill="none" stroke="#63b8ff" d="M617.73,-891.38C600.09,-887.89 581.31,-884.18 564.96,-880.95"/>
<polygon fill="#63b8ff" stroke="#63b8ff" points="616.56,-894.72 627.05,-893.23 617.92,-887.85 616.56,-894.72"/>
</g>
<!-- Node31&#45;&gt;Node3 -->
<g id="edge44" class="edge">
<title>Node31&#45;&gt;Node3</title>
<path fill="none" stroke="#63b8ff" d="M613.38,-1139.41C535.7,-1136.08 404.98,-1129.34 293,-1118 281.49,-1116.83 269.26,-1115.33 257.46,-1113.74"/>
<polygon fill="#63b8ff" stroke="#63b8ff" points="612.79,-1142.89 622.93,-1139.81 613.09,-1135.9 612.79,-1142.89"/>
</g>
<!-- Node31&#45;&gt;Node27 -->
<g id="edge43" class="edge">
<title>Node31&#45;&gt;Node27</title>
<path fill="none" stroke="#63b8ff" d="M625.85,-1155.07C604.24,-1160.15 579.96,-1165.85 560.08,-1170.52"/>
<polygon fill="#63b8ff" stroke="#63b8ff" points="626.47,-1158.52 635.4,-1152.83 624.86,-1151.71 626.47,-1158.52"/>
</g>
<!-- Node33 -->
<g id="node33" class="node">
<title>Node33</title>
<g id="a_node33"><a xlink:href="classbasic__json.html#a602b1c389d92f2c7db21f89bb6fb9817" target="_top" xlink:title=" ">
<polygon fill="white" stroke="#666666" points="575.5,-402 462,-402 462,-382 575.5,-382 575.5,-402"/>
<text text-anchor="middle" x="518.75" y="-388.5" font-family="Helvetica,sans-Serif" font-size="10.00">basic_json::sax_parse</text>
</a>
</g>
</g>
<!-- Node32&#45;&gt;Node33 -->
<g id="edge46" class="edge">
<title>Node32&#45;&gt;Node33</title>
<path fill="none" stroke="#63b8ff" d="M619.12,-392C604.9,-392 589.87,-392 575.93,-392"/>
<polygon fill="#63b8ff" stroke="#63b8ff" points="618.81,-395.5 628.81,-392 618.81,-388.5 618.81,-395.5"/>
</g>
<!-- Node34 -->
<g id="node34" class="node">
<title>Node34</title>
<g id="a_node34"><a xlink:href="classbasic__json.html#a59327f708c0555e2928487bcddf71293" target="_top" xlink:title="create a JSON value from an input in BJData format">
<polygon fill="white" stroke="#666666" points="419.25,-364 299.75,-364 299.75,-344 419.25,-344 419.25,-364"/>
<text text-anchor="middle" x="359.5" y="-350.5" font-family="Helvetica,sans-Serif" font-size="10.00">basic_json::from_bjdata</text>
</a>
</g>
</g>
<!-- Node33&#45;&gt;Node34 -->
<g id="edge47" class="edge">
<title>Node33&#45;&gt;Node34</title>
<path fill="none" stroke="#63b8ff" d="M463.2,-378.82C443.75,-374.12 422.12,-368.89 403.74,-364.45"/>
<polygon fill="#63b8ff" stroke="#63b8ff" points="462.35,-382.21 472.89,-381.16 464,-375.41 462.35,-382.21"/>
</g>
<!-- Node35 -->
<g id="node35" class="node">
<title>Node35</title>
<g id="a_node35"><a xlink:href="classbasic__json.html#a4b0dfca88b11ea59a2568707767622d8" target="_top" xlink:title="create a JSON value from an input in BSON format">
<polygon fill="white" stroke="#666666" points="416.62,-326 302.38,-326 302.38,-306 416.62,-306 416.62,-326"/>
<text text-anchor="middle" x="359.5" y="-312.5" font-family="Helvetica,sans-Serif" font-size="10.00">basic_json::from_bson</text>
</a>
</g>
</g>
<!-- Node33&#45;&gt;Node35 -->
<g id="edge48" class="edge">
<title>Node33&#45;&gt;Node35</title>
<path fill="none" stroke="#63b8ff" d="M494.45,-375.03C476.47,-362.56 450.6,-345.96 426,-335 418.75,-331.77 410.81,-328.93 403.04,-326.5"/>
<polygon fill="#63b8ff" stroke="#63b8ff" points="492.39,-377.85 502.57,-380.76 496.43,-372.14 492.39,-377.85"/>
</g>
<!-- Node36 -->
<g id="node36" class="node">
<title>Node36</title>
<g id="a_node36"><a xlink:href="classbasic__json.html#a5bc3c67eaf6e9b22c8b446f9695249e9" target="_top" xlink:title="create a JSON value from an input in CBOR format">
<polygon fill="white" stroke="#666666" points="415.5,-478 303.5,-478 303.5,-458 415.5,-458 415.5,-478"/>
<text text-anchor="middle" x="359.5" y="-464.5" font-family="Helvetica,sans-Serif" font-size="10.00">basic_json::from_cbor</text>
</a>
</g>
</g>
<!-- Node33&#45;&gt;Node36 -->
<g id="edge49" class="edge">
<title>Node33&#45;&gt;Node36</title>
<path fill="none" stroke="#63b8ff" d="M494.45,-408.97C476.47,-421.44 450.6,-438.04 426,-449 418.75,-452.23 410.81,-455.07 403.04,-457.5"/>
<polygon fill="#63b8ff" stroke="#63b8ff" points="496.43,-411.86 502.57,-403.24 492.39,-406.15 496.43,-411.86"/>
</g>
<!-- Node37 -->
<g id="node37" class="node">
<title>Node37</title>
<g id="a_node37"><a xlink:href="classbasic__json.html#ab0c025488572f913ca5529a2ef62d066" target="_top" xlink:title="create a JSON value from an input in MessagePack format">
<polygon fill="white" stroke="#666666" points="426,-440 293,-440 293,-420 426,-420 426,-440"/>
<text text-anchor="middle" x="359.5" y="-426.5" font-family="Helvetica,sans-Serif" font-size="10.00">basic_json::from_msgpack</text>
</a>
</g>
</g>
<!-- Node33&#45;&gt;Node37 -->
<g id="edge50" class="edge">
<title>Node33&#45;&gt;Node37</title>
<path fill="none" stroke="#63b8ff" d="M463.2,-405.18C443.75,-409.88 422.12,-415.11 403.74,-419.55"/>
<polygon fill="#63b8ff" stroke="#63b8ff" points="464,-408.59 472.89,-402.84 462.35,-401.79 464,-408.59"/>
</g>
<!-- Node38 -->
<g id="node38" class="node">
<title>Node38</title>
<g id="a_node38"><a xlink:href="classbasic__json.html#a4588941095d03624ada4f0023d93944a" target="_top" xlink:title="create a JSON value from an input in UBJSON format">
<polygon fill="white" stroke="#666666" points="420.38,-402 298.62,-402 298.62,-382 420.38,-382 420.38,-402"/>
<text text-anchor="middle" x="359.5" y="-388.5" font-family="Helvetica,sans-Serif" font-size="10.00">basic_json::from_ubjson</text>
</a>
</g>
</g>
<!-- Node33&#45;&gt;Node38 -->
<g id="edge51" class="edge">
<title>Node33&#45;&gt;Node38</title>
<path fill="none" stroke="#63b8ff" d="M450.43,-392C440.56,-392 430.45,-392 420.74,-392"/>
<polygon fill="#63b8ff" stroke="#63b8ff" points="450.35,-395.5 460.35,-392 450.35,-388.5 450.35,-395.5"/>
</g>
</g>
</svg>
