<?xml version="1.0" encoding="UTF-8" standalone="no"?>
<!DOCTYPE svg PUBLIC "-//W3C//DTD SVG 1.1//EN"
 "http://www.w3.org/Graphics/SVG/1.1/DTD/svg11.dtd">
<!-- Generated by graphviz version 12.2.1 (20241206.2353)
 -->
<!-- Title: detail::unknown_size Pages: 1 -->
<svg width="294pt" height="202pt"
 viewBox="0.00 0.00 293.50 202.00" xmlns="http://www.w3.org/2000/svg" xmlns:xlink="http://www.w3.org/1999/xlink">
<g id="graph0" class="graph" transform="scale(1 1) rotate(0) translate(4 198)">
<title>detail::unknown_size</title>
<!-- Node1 -->
<g id="node1" class="node">
<title>Node1</title>
<g id="a_node1"><a xlink:title=" ">
<polygon fill="#999999" stroke="#666666" points="285.5,-113 178,-113 178,-93 285.5,-93 285.5,-113"/>
<text text-anchor="middle" x="231.75" y="-99.5" font-family="Helvetica,sans-Serif" font-size="10.00">detail::unknown_size</text>
</a>
</g>
</g>
<!-- Node1&#45;&gt;Node1 -->
<g id="edge5" class="edge">
<title>Node1&#45;&gt;Node1</title>
<path fill="none" stroke="#63b8ff" d="M260.16,-124.44C256.5,-128.3 247.03,-131 231.75,-131 203.81,-131 195.29,-121.98 206.21,-113.34"/>
<polygon fill="#63b8ff" stroke="#63b8ff" points="263.56,-123.61 257.67,-114.8 256.78,-125.36 263.56,-123.61"/>
</g>
<!-- Node2 -->
<g id="node2" class="node">
<title>Node2</title>
<g id="a_node2"><a xlink:href="classdetail_1_1json__sax__dom__parser.html#ab47560ea9aebc6a25c0e2939bc8c95d0" target="_top" xlink:title=" ">
<polygon fill="white" stroke="#666666" points="125.12,-194 16.88,-194 16.88,-162 125.12,-162 125.12,-194"/>
<text text-anchor="start" x="24.88" y="-180.5" font-family="Helvetica,sans-Serif" font-size="10.00">detail::json_sax_dom</text>
<text text-anchor="middle" x="71" y="-168.5" font-family="Helvetica,sans-Serif" font-size="10.00">_parser::start_array</text>
</a>
</g>
</g>
<!-- Node1&#45;&gt;Node2 -->
<g id="edge1" class="edge">
<title>Node1&#45;&gt;Node2</title>
<path fill="none" stroke="#63b8ff" d="M204.73,-119.21C187.36,-129.64 163.79,-143.06 142,-153 135.43,-156 128.38,-158.88 121.38,-161.56"/>
<polygon fill="#63b8ff" stroke="#63b8ff" points="206.16,-122.44 212.89,-114.25 202.53,-116.46 206.16,-122.44"/>
</g>
<!-- Node3 -->
<g id="node3" class="node">
<title>Node3</title>
<g id="a_node3"><a xlink:href="classdetail_1_1json__sax__dom__callback__parser.html#a003acf2b06ffaf639bb6d34f5eb1695a" target="_top" xlink:title=" ">
<polygon fill="white" stroke="#666666" points="142,-144 0,-144 0,-112 142,-112 142,-144"/>
<text text-anchor="start" x="8" y="-130.5" font-family="Helvetica,sans-Serif" font-size="10.00">detail::json_sax_dom</text>
<text text-anchor="middle" x="71" y="-118.5" font-family="Helvetica,sans-Serif" font-size="10.00">_callback_parser::start_array</text>
</a>
</g>
</g>
<!-- Node1&#45;&gt;Node3 -->
<g id="edge2" class="edge">
<title>Node1&#45;&gt;Node3</title>
<path fill="none" stroke="#63b8ff" d="M166.75,-113.08C158.75,-114.34 150.52,-115.63 142.43,-116.91"/>
<polygon fill="#63b8ff" stroke="#63b8ff" points="167.06,-116.57 176.39,-111.56 165.97,-109.66 167.06,-116.57"/>
</g>
<!-- Node4 -->
<g id="node4" class="node">
<title>Node4</title>
<g id="a_node4"><a xlink:href="classdetail_1_1json__sax__dom__parser.html#a65c9afecd60c3774278a37efe4f34518" target="_top" xlink:title=" ">
<polygon fill="white" stroke="#666666" points="125.12,-94 16.88,-94 16.88,-62 125.12,-62 125.12,-94"/>
<text text-anchor="start" x="24.88" y="-80.5" font-family="Helvetica,sans-Serif" font-size="10.00">detail::json_sax_dom</text>
<text text-anchor="middle" x="71" y="-68.5" font-family="Helvetica,sans-Serif" font-size="10.00">_parser::start_object</text>
</a>
</g>
</g>
<!-- Node1&#45;&gt;Node4 -->
<g id="edge3" class="edge">
<title>Node1&#45;&gt;Node4</title>
<path fill="none" stroke="#63b8ff" d="M166.6,-92.9C152.94,-90.75 138.65,-88.5 125.44,-86.42"/>
<polygon fill="#63b8ff" stroke="#63b8ff" points="165.97,-96.34 176.39,-94.44 167.06,-89.43 165.97,-96.34"/>
</g>
<!-- Node5 -->
<g id="node5" class="node">
<title>Node5</title>
<g id="a_node5"><a xlink:href="classdetail_1_1json__sax__dom__callback__parser.html#ae6016c3811e0c22532a589caf470a21e" target="_top" xlink:title=" ">
<polygon fill="white" stroke="#666666" points="128.5,-44 13.5,-44 13.5,0 128.5,0 128.5,-44"/>
<text text-anchor="start" x="21.5" y="-30.5" font-family="Helvetica,sans-Serif" font-size="10.00">detail::json_sax_dom</text>
<text text-anchor="start" x="21.5" y="-18.5" font-family="Helvetica,sans-Serif" font-size="10.00">_callback_parser::start</text>
<text text-anchor="middle" x="71" y="-6.5" font-family="Helvetica,sans-Serif" font-size="10.00">_object</text>
</a>
</g>
</g>
<!-- Node1&#45;&gt;Node5 -->
<g id="edge4" class="edge">
<title>Node1&#45;&gt;Node5</title>
<path fill="none" stroke="#63b8ff" d="M203.83,-86.94C186.42,-76.78 163.14,-63.61 142,-53 136.3,-50.14 130.27,-47.26 124.25,-44.47"/>
<polygon fill="#63b8ff" stroke="#63b8ff" points="201.64,-89.71 212.03,-91.77 205.19,-83.68 201.64,-89.71"/>
</g>
</g>
</svg>
