<?xml version="1.0" encoding="UTF-8" standalone="no"?>
<!DOCTYPE svg PUBLIC "-//W3C//DTD SVG 1.1//EN"
 "http://www.w3.org/Graphics/SVG/1.1/DTD/svg11.dtd">
<!-- Generated by graphviz version 12.2.1 (20241206.2353)
 -->
<!-- Title: detail::input_adapter Pages: 1 -->
<svg width="648pt" height="93pt"
 viewBox="0.00 0.00 647.50 93.24" xmlns="http://www.w3.org/2000/svg" xmlns:xlink="http://www.w3.org/1999/xlink">
<g id="graph0" class="graph" transform="scale(1 1) rotate(0) translate(4 89.24)">
<title>detail::input_adapter</title>
<!-- Node1 -->
<g id="node1" class="node">
<title>Node1</title>
<g id="a_node1"><a xlink:title=" ">
<polygon fill="#999999" stroke="#666666" points="103.75,-64 0,-64 0,-44 103.75,-44 103.75,-64"/>
<text text-anchor="middle" x="51.88" y="-50.5" font-family="Helvetica,sans-Serif" font-size="10.00">detail::input_adapter</text>
</a>
</g>
</g>
<!-- Node2 -->
<g id="node2" class="node">
<title>Node2</title>
<g id="a_node2"><a xlink:href="classdetail_1_1parse__error.html#a07046ea9f33d28f120af188ed674d6df" target="_top" xlink:title="create a parse error exception">
<polygon fill="white" stroke="#666666" points="233.75,-70 139.75,-70 139.75,-38 233.75,-38 233.75,-70"/>
<text text-anchor="start" x="147.75" y="-56.5" font-family="Helvetica,sans-Serif" font-size="10.00">detail::parse_error</text>
<text text-anchor="middle" x="186.75" y="-44.5" font-family="Helvetica,sans-Serif" font-size="10.00">::create</text>
</a>
</g>
</g>
<!-- Node1&#45;&gt;Node2 -->
<g id="edge1" class="edge">
<title>Node1&#45;&gt;Node2</title>
<path fill="none" stroke="#63b8ff" d="M104.25,-54C112,-54 120.04,-54 127.92,-54"/>
<polygon fill="#63b8ff" stroke="#63b8ff" points="127.78,-57.5 137.78,-54 127.78,-50.5 127.78,-57.5"/>
</g>
<!-- Node3 -->
<g id="node3" class="node">
<title>Node3</title>
<g id="a_node3"><a xlink:href="namespacedetail.html#a266fb3d4bf633ad6c506434cc91164da" target="_top" xlink:title=" ">
<polygon fill="white" stroke="#666666" points="497.5,-64 423,-64 423,-44 497.5,-44 497.5,-64"/>
<text text-anchor="middle" x="460.25" y="-50.5" font-family="Helvetica,sans-Serif" font-size="10.00">detail::concat</text>
</a>
</g>
</g>
<!-- Node2&#45;&gt;Node3 -->
<g id="edge2" class="edge">
<title>Node2&#45;&gt;Node3</title>
<path fill="none" stroke="#63b8ff" d="M233.17,-70.45C244.93,-73.99 257.68,-77.2 269.75,-79 321.29,-86.68 335.61,-87.64 387,-79 399.7,-76.87 413.14,-72.76 424.95,-68.48"/>
<polygon fill="#63b8ff" stroke="#63b8ff" points="426.18,-71.76 434.28,-64.93 423.69,-65.22 426.18,-71.76"/>
</g>
<!-- Node6 -->
<g id="node6" class="node">
<title>Node6</title>
<g id="a_node6"><a xlink:href="classdetail_1_1exception.html#a6b4a786b5c1c25dd3edaceb1bf2d5120" target="_top" xlink:title=" ">
<polygon fill="white" stroke="#666666" points="375,-70 281.75,-70 281.75,-38 375,-38 375,-70"/>
<text text-anchor="start" x="289.75" y="-56.5" font-family="Helvetica,sans-Serif" font-size="10.00">detail::exception::</text>
<text text-anchor="middle" x="328.38" y="-44.5" font-family="Helvetica,sans-Serif" font-size="10.00">diagnostics</text>
</a>
</g>
</g>
<!-- Node2&#45;&gt;Node6 -->
<g id="edge5" class="edge">
<title>Node2&#45;&gt;Node6</title>
<path fill="none" stroke="#63b8ff" d="M234.24,-54C245.79,-54 258.29,-54 270.27,-54"/>
<polygon fill="#63b8ff" stroke="#63b8ff" points="270.05,-57.5 280.05,-54 270.05,-50.5 270.05,-57.5"/>
</g>
<!-- Node7 -->
<g id="node7" class="node">
<title>Node7</title>
<g id="a_node7"><a xlink:href="classdetail_1_1exception.html#a8f1eb56b9964c8dd84d89d0da98d883b" target="_top" xlink:title=" ">
<polygon fill="white" stroke="#666666" points="387,-20 269.75,-20 269.75,0 387,0 387,-20"/>
<text text-anchor="middle" x="328.38" y="-6.5" font-family="Helvetica,sans-Serif" font-size="10.00">detail::exception::name</text>
</a>
</g>
</g>
<!-- Node2&#45;&gt;Node7 -->
<g id="edge6" class="edge">
<title>Node2&#45;&gt;Node7</title>
<path fill="none" stroke="#63b8ff" d="M234.24,-39.35C250.07,-34.36 267.71,-28.8 283.35,-23.88"/>
<polygon fill="#63b8ff" stroke="#63b8ff" points="284.39,-27.22 292.88,-20.87 282.29,-20.54 284.39,-27.22"/>
</g>
<!-- Node4 -->
<g id="node4" class="node">
<title>Node4</title>
<g id="a_node4"><a xlink:href="namespacedetail.html#a89f967b745cf8df11ba9d59f93d97753" target="_top" xlink:title=" ">
<polygon fill="white" stroke="#666666" points="634.25,-83 538.75,-83 538.75,-63 634.25,-63 634.25,-83"/>
<text text-anchor="middle" x="586.5" y="-69.5" font-family="Helvetica,sans-Serif" font-size="10.00">detail::concat_into</text>
</a>
</g>
</g>
<!-- Node3&#45;&gt;Node4 -->
<g id="edge3" class="edge">
<title>Node3&#45;&gt;Node4</title>
<path fill="none" stroke="#63b8ff" d="M497.86,-59.6C507.11,-61.01 517.29,-62.57 527.32,-64.1"/>
<polygon fill="#63b8ff" stroke="#63b8ff" points="526.63,-67.54 537.04,-65.59 527.69,-60.62 526.63,-67.54"/>
</g>
<!-- Node5 -->
<g id="node5" class="node">
<title>Node5</title>
<g id="a_node5"><a xlink:href="namespacedetail.html#ac185140ed8c8fcc07a302a890b714b0d" target="_top" xlink:title=" ">
<polygon fill="white" stroke="#666666" points="639.5,-45 533.5,-45 533.5,-25 639.5,-25 639.5,-45"/>
<text text-anchor="middle" x="586.5" y="-31.5" font-family="Helvetica,sans-Serif" font-size="10.00">detail::concat_length</text>
</a>
</g>
</g>
<!-- Node3&#45;&gt;Node5 -->
<g id="edge4" class="edge">
<title>Node3&#45;&gt;Node5</title>
<path fill="none" stroke="#63b8ff" d="M497.86,-48.4C505.44,-47.24 513.63,-45.99 521.86,-44.73"/>
<polygon fill="#63b8ff" stroke="#63b8ff" points="522.19,-48.22 531.55,-43.25 521.13,-41.3 522.19,-48.22"/>
</g>
<!-- Node7&#45;&gt;Node3 -->
<g id="edge7" class="edge">
<title>Node7&#45;&gt;Node3</title>
<path fill="none" stroke="#63b8ff" d="M361.41,-20.47C369.75,-23.22 378.72,-26.2 387,-29 397.25,-32.46 408.3,-36.26 418.6,-39.82"/>
<polygon fill="#63b8ff" stroke="#63b8ff" points="417.38,-43.1 427.97,-43.07 419.67,-36.48 417.38,-43.1"/>
</g>
</g>
</svg>
