<?xml version="1.0" encoding="UTF-8" standalone="no"?>
<!DOCTYPE svg PUBLIC "-//W3C//DTD SVG 1.1//EN"
 "http://www.w3.org/Graphics/SVG/1.1/DTD/svg11.dtd">
<!-- Generated by graphviz version 12.2.1 (20241206.2353)
 -->
<!-- Title: detail::input_adapter Pages: 1 -->
<svg width="657pt" height="93pt"
 viewBox="0.00 0.00 657.25 93.14" xmlns="http://www.w3.org/2000/svg" xmlns:xlink="http://www.w3.org/1999/xlink">
<g id="graph0" class="graph" transform="scale(1 1) rotate(0) translate(4 89.14)">
<title>detail::input_adapter</title>
<!-- Node1 -->
<g id="node1" class="node">
<title>Node1</title>
<g id="a_node1"><a xlink:title=" ">
<polygon fill="#999999" stroke="#666666" points="103.75,-42 0,-42 0,-22 103.75,-22 103.75,-42"/>
<text text-anchor="middle" x="51.88" y="-28.5" font-family="Helvetica,sans-Serif" font-size="10.00">detail::input_adapter</text>
</a>
</g>
</g>
<!-- Node2 -->
<g id="node2" class="node">
<title>Node2</title>
<g id="a_node2"><a xlink:href="classdetail_1_1parse__error.html#a07046ea9f33d28f120af188ed674d6df" target="_top" xlink:title="create a parse error exception">
<polygon fill="white" stroke="#666666" points="238.62,-70 144.62,-70 144.62,-38 238.62,-38 238.62,-70"/>
<text text-anchor="start" x="152.62" y="-56.5" font-family="Helvetica,sans-Serif" font-size="10.00">detail::parse_error</text>
<text text-anchor="middle" x="191.62" y="-44.5" font-family="Helvetica,sans-Serif" font-size="10.00">::create</text>
</a>
</g>
</g>
<!-- Node1&#45;&gt;Node2 -->
<g id="edge1" class="edge">
<title>Node1&#45;&gt;Node2</title>
<path fill="none" stroke="#63b8ff" d="M104.17,-40.19C113.62,-41.7 123.55,-43.29 133.18,-44.83"/>
<polygon fill="#63b8ff" stroke="#63b8ff" points="132.37,-48.24 142.79,-46.36 133.47,-41.33 132.37,-48.24"/>
</g>
<!-- Node8 -->
<g id="node8" class="node">
<title>Node8</title>
<g id="a_node8"><a xlink:href="namespacedetail.html#aada1510d1b55ad2faf4a71c70cffb374" target="_top" xlink:title=" ">
<polygon fill="white" stroke="#666666" points="243.5,-20 139.75,-20 139.75,0 243.5,0 243.5,-20"/>
<text text-anchor="middle" x="191.62" y="-6.5" font-family="Helvetica,sans-Serif" font-size="10.00">detail::input_adapter</text>
</a>
</g>
</g>
<!-- Node1&#45;&gt;Node8 -->
<g id="edge8" class="edge">
<title>Node1&#45;&gt;Node8</title>
<path fill="none" stroke="#63b8ff" d="M104.17,-23.81C111.97,-22.56 120.09,-21.27 128.09,-19.99"/>
<polygon fill="#63b8ff" stroke="#63b8ff" points="128.47,-23.47 137.79,-18.44 127.37,-16.56 128.47,-23.47"/>
</g>
<!-- Node3 -->
<g id="node3" class="node">
<title>Node3</title>
<g id="a_node3"><a xlink:href="namespacedetail.html#a266fb3d4bf633ad6c506434cc91164da" target="_top" xlink:title=" ">
<polygon fill="white" stroke="#666666" points="507.25,-64 432.75,-64 432.75,-44 507.25,-44 507.25,-64"/>
<text text-anchor="middle" x="470" y="-50.5" font-family="Helvetica,sans-Serif" font-size="10.00">detail::concat</text>
</a>
</g>
</g>
<!-- Node2&#45;&gt;Node3 -->
<g id="edge2" class="edge">
<title>Node2&#45;&gt;Node3</title>
<path fill="none" stroke="#63b8ff" d="M238.99,-69.94C251.95,-73.68 266.13,-77.12 279.5,-79 331.1,-86.28 345.36,-87.64 396.75,-79 409.45,-76.87 422.89,-72.76 434.7,-68.48"/>
<polygon fill="#63b8ff" stroke="#63b8ff" points="435.93,-71.76 444.03,-64.93 433.44,-65.22 435.93,-71.76"/>
</g>
<!-- Node6 -->
<g id="node6" class="node">
<title>Node6</title>
<g id="a_node6"><a xlink:href="classdetail_1_1exception.html#a6b4a786b5c1c25dd3edaceb1bf2d5120" target="_top" xlink:title=" ">
<polygon fill="white" stroke="#666666" points="384.75,-70 291.5,-70 291.5,-38 384.75,-38 384.75,-70"/>
<text text-anchor="start" x="299.5" y="-56.5" font-family="Helvetica,sans-Serif" font-size="10.00">detail::exception::</text>
<text text-anchor="middle" x="338.12" y="-44.5" font-family="Helvetica,sans-Serif" font-size="10.00">diagnostics</text>
</a>
</g>
</g>
<!-- Node2&#45;&gt;Node6 -->
<g id="edge5" class="edge">
<title>Node2&#45;&gt;Node6</title>
<path fill="none" stroke="#63b8ff" d="M238.74,-54C251.91,-54 266.41,-54 280.14,-54"/>
<polygon fill="#63b8ff" stroke="#63b8ff" points="279.93,-57.5 289.93,-54 279.93,-50.5 279.93,-57.5"/>
</g>
<!-- Node7 -->
<g id="node7" class="node">
<title>Node7</title>
<g id="a_node7"><a xlink:href="classdetail_1_1exception.html#a8f1eb56b9964c8dd84d89d0da98d883b" target="_top" xlink:title=" ">
<polygon fill="white" stroke="#666666" points="396.75,-20 279.5,-20 279.5,0 396.75,0 396.75,-20"/>
<text text-anchor="middle" x="338.12" y="-6.5" font-family="Helvetica,sans-Serif" font-size="10.00">detail::exception::name</text>
</a>
</g>
</g>
<!-- Node2&#45;&gt;Node7 -->
<g id="edge6" class="edge">
<title>Node2&#45;&gt;Node7</title>
<path fill="none" stroke="#63b8ff" d="M238.74,-39.96C255.82,-34.76 275.14,-28.87 292.12,-23.71"/>
<polygon fill="#63b8ff" stroke="#63b8ff" points="292.89,-27.13 301.44,-20.87 290.85,-20.43 292.89,-27.13"/>
</g>
<!-- Node4 -->
<g id="node4" class="node">
<title>Node4</title>
<g id="a_node4"><a xlink:href="namespacedetail.html#a89f967b745cf8df11ba9d59f93d97753" target="_top" xlink:title=" ">
<polygon fill="white" stroke="#666666" points="644,-83 548.5,-83 548.5,-63 644,-63 644,-83"/>
<text text-anchor="middle" x="596.25" y="-69.5" font-family="Helvetica,sans-Serif" font-size="10.00">detail::concat_into</text>
</a>
</g>
</g>
<!-- Node3&#45;&gt;Node4 -->
<g id="edge3" class="edge">
<title>Node3&#45;&gt;Node4</title>
<path fill="none" stroke="#63b8ff" d="M507.61,-59.6C516.86,-61.01 527.04,-62.57 537.07,-64.1"/>
<polygon fill="#63b8ff" stroke="#63b8ff" points="536.38,-67.54 546.79,-65.59 537.44,-60.62 536.38,-67.54"/>
</g>
<!-- Node5 -->
<g id="node5" class="node">
<title>Node5</title>
<g id="a_node5"><a xlink:href="namespacedetail.html#ac185140ed8c8fcc07a302a890b714b0d" target="_top" xlink:title=" ">
<polygon fill="white" stroke="#666666" points="649.25,-45 543.25,-45 543.25,-25 649.25,-25 649.25,-45"/>
<text text-anchor="middle" x="596.25" y="-31.5" font-family="Helvetica,sans-Serif" font-size="10.00">detail::concat_length</text>
</a>
</g>
</g>
<!-- Node3&#45;&gt;Node5 -->
<g id="edge4" class="edge">
<title>Node3&#45;&gt;Node5</title>
<path fill="none" stroke="#63b8ff" d="M507.61,-48.4C515.19,-47.24 523.38,-45.99 531.61,-44.73"/>
<polygon fill="#63b8ff" stroke="#63b8ff" points="531.94,-48.22 541.3,-43.25 530.88,-41.3 531.94,-48.22"/>
</g>
<!-- Node7&#45;&gt;Node3 -->
<g id="edge7" class="edge">
<title>Node7&#45;&gt;Node3</title>
<path fill="none" stroke="#63b8ff" d="M371.16,-20.47C379.5,-23.22 388.47,-26.2 396.75,-29 407,-32.46 418.05,-36.26 428.35,-39.82"/>
<polygon fill="#63b8ff" stroke="#63b8ff" points="427.13,-43.1 437.72,-43.07 429.42,-36.48 427.13,-43.1"/>
</g>
</g>
</svg>
