<?xml version="1.0" encoding="UTF-8" standalone="no"?>
<!DOCTYPE svg PUBLIC "-//W3C//DTD SVG 1.1//EN"
 "http://www.w3.org/Graphics/SVG/1.1/DTD/svg11.dtd">
<!-- Generated by graphviz version 12.2.1 (20241206.2353)
 -->
<!-- Title: detail::dtoa_impl::grisu2_digit_gen Pages: 1 -->
<svg width="360pt" height="58pt"
 viewBox="0.00 0.00 359.75 58.00" xmlns="http://www.w3.org/2000/svg" xmlns:xlink="http://www.w3.org/1999/xlink">
<g id="graph0" class="graph" transform="scale(1 1) rotate(0) translate(4 54)">
<title>detail::dtoa_impl::grisu2_digit_gen</title>
<!-- Node1 -->
<g id="node1" class="node">
<title>Node1</title>
<g id="a_node1"><a xlink:title=" ">
<polygon fill="#999999" stroke="#666666" points="351.75,-32 258.5,-32 258.5,0 351.75,0 351.75,-32"/>
<text text-anchor="start" x="266.5" y="-18.5" font-family="Helvetica,sans-Serif" font-size="10.00">detail::dtoa_impl::</text>
<text text-anchor="middle" x="305.12" y="-6.5" font-family="Helvetica,sans-Serif" font-size="10.00">grisu2_digit_gen</text>
</a>
</g>
</g>
<!-- Node1&#45;&gt;Node1 -->
<g id="edge3" class="edge">
<title>Node1&#45;&gt;Node1</title>
<path fill="none" stroke="#63b8ff" d="M326.66,-43.71C323.07,-47.48 315.89,-50 305.12,-50 285.43,-50 277.74,-41.58 282.05,-32.44"/>
<polygon fill="#63b8ff" stroke="#63b8ff" points="330.11,-44.32 328,-33.94 323.18,-43.38 330.11,-44.32"/>
</g>
<!-- Node2 -->
<g id="node2" class="node">
<title>Node2</title>
<g id="a_node2"><a xlink:href="namespacedetail_1_1dtoa__impl.html#ad549352ed1a9676a092d143a2daa3dee" target="_top" xlink:title=" ">
<polygon fill="white" stroke="#666666" points="222.5,-32 129.25,-32 129.25,0 222.5,0 222.5,-32"/>
<text text-anchor="start" x="137.25" y="-18.5" font-family="Helvetica,sans-Serif" font-size="10.00">detail::dtoa_impl::</text>
<text text-anchor="middle" x="175.88" y="-6.5" font-family="Helvetica,sans-Serif" font-size="10.00">grisu2</text>
</a>
</g>
</g>
<!-- Node1&#45;&gt;Node2 -->
<g id="edge1" class="edge">
<title>Node1&#45;&gt;Node2</title>
<path fill="none" stroke="#63b8ff" d="M246.9,-16C238.81,-16 230.58,-16 222.75,-16"/>
<polygon fill="#63b8ff" stroke="#63b8ff" points="246.67,-19.5 256.67,-16 246.67,-12.5 246.67,-19.5"/>
</g>
<!-- Node3 -->
<g id="node3" class="node">
<title>Node3</title>
<g id="a_node3"><a xlink:href="namespacedetail_1_1dtoa__impl.html#abdf6bc05c54068a5930f66c2e803e8b8" target="_top" xlink:title=" ">
<polygon fill="white" stroke="#666666" points="93.25,-32 0,-32 0,0 93.25,0 93.25,-32"/>
<text text-anchor="start" x="8" y="-18.5" font-family="Helvetica,sans-Serif" font-size="10.00">detail::dtoa_impl::</text>
<text text-anchor="middle" x="46.62" y="-6.5" font-family="Helvetica,sans-Serif" font-size="10.00">grisu2</text>
</a>
</g>
</g>
<!-- Node2&#45;&gt;Node3 -->
<g id="edge2" class="edge">
<title>Node2&#45;&gt;Node3</title>
<path fill="none" stroke="#63b8ff" d="M117.65,-16C109.56,-16 101.33,-16 93.5,-16"/>
<polygon fill="#63b8ff" stroke="#63b8ff" points="117.42,-19.5 127.42,-16 117.42,-12.5 117.42,-19.5"/>
</g>
</g>
</svg>
