<?xml version="1.0" encoding="UTF-8" standalone="no"?>
<!DOCTYPE svg PUBLIC "-//W3C//DTD SVG 1.1//EN"
 "http://www.w3.org/Graphics/SVG/1.1/DTD/svg11.dtd">
<!-- Generated by graphviz version 12.2.1 (20241206.2353)
 -->
<!-- Title: detail::dtoa_impl::compute_boundaries Pages: 1 -->
<svg width="243pt" height="58pt"
 viewBox="0.00 0.00 243.25 58.00" xmlns="http://www.w3.org/2000/svg" xmlns:xlink="http://www.w3.org/1999/xlink">
<g id="graph0" class="graph" transform="scale(1 1) rotate(0) translate(4 54)">
<title>detail::dtoa_impl::compute_boundaries</title>
<!-- Node1 -->
<g id="node1" class="node">
<title>Node1</title>
<g id="a_node1"><a xlink:title=" ">
<polygon fill="#999999" stroke="#666666" points="235.25,-32 129.25,-32 129.25,0 235.25,0 235.25,-32"/>
<text text-anchor="start" x="137.25" y="-18.5" font-family="Helvetica,sans-Serif" font-size="10.00">detail::dtoa_impl::</text>
<text text-anchor="middle" x="182.25" y="-6.5" font-family="Helvetica,sans-Serif" font-size="10.00">compute_boundaries</text>
</a>
</g>
</g>
<!-- Node1&#45;&gt;Node1 -->
<g id="edge1" class="edge">
<title>Node1&#45;&gt;Node1</title>
<path fill="none" stroke="#63b8ff" d="M204.85,-43.71C201.08,-47.48 193.55,-50 182.25,-50 161.59,-50 153.52,-41.58 158.04,-32.44"/>
<polygon fill="#63b8ff" stroke="#63b8ff" points="208.3,-44.34 206.25,-33.94 201.37,-43.34 208.3,-44.34"/>
</g>
<!-- Node2 -->
<g id="node2" class="node">
<title>Node2</title>
<g id="a_node2"><a xlink:href="namespacedetail_1_1dtoa__impl.html#abdf6bc05c54068a5930f66c2e803e8b8" target="_top" xlink:title=" ">
<polygon fill="white" stroke="#666666" points="93.25,-32 0,-32 0,0 93.25,0 93.25,-32"/>
<text text-anchor="start" x="8" y="-18.5" font-family="Helvetica,sans-Serif" font-size="10.00">detail::dtoa_impl::</text>
<text text-anchor="middle" x="46.62" y="-6.5" font-family="Helvetica,sans-Serif" font-size="10.00">grisu2</text>
</a>
</g>
</g>
<!-- Node1&#45;&gt;Node2 -->
<g id="edge2" class="edge">
<title>Node1&#45;&gt;Node2</title>
<path fill="none" stroke="#63b8ff" d="M117.44,-16C109.33,-16 101.15,-16 93.4,-16"/>
<polygon fill="#63b8ff" stroke="#63b8ff" points="117.31,-19.5 127.31,-16 117.31,-12.5 117.31,-19.5"/>
</g>
</g>
</svg>
