<?xml version="1.0" encoding="UTF-8" standalone="no"?>
<!DOCTYPE svg PUBLIC "-//W3C//DTD SVG 1.1//EN"
 "http://www.w3.org/Graphics/SVG/1.1/DTD/svg11.dtd">
<!-- Generated by graphviz version 12.2.1 (20241206.2353)
 -->
<!-- Title: detail::replace_substring Pages: 1 -->
<svg width="371pt" height="66pt"
 viewBox="0.00 0.00 371.00 66.00" xmlns="http://www.w3.org/2000/svg" xmlns:xlink="http://www.w3.org/1999/xlink">
<g id="graph0" class="graph" transform="scale(1 1) rotate(0) translate(4 62)">
<title>detail::replace_substring</title>
<!-- Node1 -->
<g id="node1" class="node">
<title>Node1</title>
<g id="a_node1"><a xlink:title="replace all occurrences of a substring by another string">
<polygon fill="#999999" stroke="#666666" points="363,-39 241.25,-39 241.25,-19 363,-19 363,-39"/>
<text text-anchor="middle" x="302.12" y="-25.5" font-family="Helvetica,sans-Serif" font-size="10.00">detail::replace_substring</text>
</a>
</g>
</g>
<!-- Node2 -->
<g id="node2" class="node">
<title>Node2</title>
<g id="a_node2"><a xlink:href="namespacedetail.html#af2a9ce4740e0b45d33129e2c8e53a0a8" target="_top" xlink:title="string escaping as described in RFC 6901 (Sect. 4)">
<polygon fill="white" stroke="#666666" points="200,-58 123.25,-58 123.25,-38 200,-38 200,-58"/>
<text text-anchor="middle" x="161.62" y="-44.5" font-family="Helvetica,sans-Serif" font-size="10.00">detail::escape</text>
</a>
</g>
</g>
<!-- Node1&#45;&gt;Node2 -->
<g id="edge1" class="edge">
<title>Node1&#45;&gt;Node2</title>
<path fill="none" stroke="#63b8ff" d="M229.48,-38.83C219.45,-40.2 209.49,-41.57 200.44,-42.81"/>
<polygon fill="#63b8ff" stroke="#63b8ff" points="229.85,-42.31 239.28,-37.48 228.9,-35.38 229.85,-42.31"/>
</g>
<!-- Node4 -->
<g id="node4" class="node">
<title>Node4</title>
<g id="a_node4"><a xlink:href="namespacedetail.html#aa45018148d8569ca6f4d10a983221df1" target="_top" xlink:title="string unescaping as described in RFC 6901 (Sect. 4)">
<polygon fill="white" stroke="#666666" points="205.25,-20 118,-20 118,0 205.25,0 205.25,-20"/>
<text text-anchor="middle" x="161.62" y="-6.5" font-family="Helvetica,sans-Serif" font-size="10.00">detail::unescape</text>
</a>
</g>
</g>
<!-- Node1&#45;&gt;Node4 -->
<g id="edge3" class="edge">
<title>Node1&#45;&gt;Node4</title>
<path fill="none" stroke="#63b8ff" d="M229.65,-19.19C221.47,-18.07 213.34,-16.96 205.7,-15.91"/>
<polygon fill="#63b8ff" stroke="#63b8ff" points="228.9,-22.62 239.28,-20.52 229.85,-15.69 228.9,-22.62"/>
</g>
<!-- Node3 -->
<g id="node3" class="node">
<title>Node3</title>
<g id="a_node3"><a xlink:href="classbasic__json.html#a940e724a2e8d5400ab772eb22af0387c" target="_top" xlink:title="creates a diff as a JSON patch">
<polygon fill="white" stroke="#666666" points="82,-58 0,-58 0,-38 82,-38 82,-58"/>
<text text-anchor="middle" x="41" y="-44.5" font-family="Helvetica,sans-Serif" font-size="10.00">basic_json::diff</text>
</a>
</g>
</g>
<!-- Node2&#45;&gt;Node3 -->
<g id="edge2" class="edge">
<title>Node2&#45;&gt;Node3</title>
<path fill="none" stroke="#63b8ff" d="M111.27,-48C101.65,-48 91.66,-48 82.37,-48"/>
<polygon fill="#63b8ff" stroke="#63b8ff" points="111.25,-51.5 121.25,-48 111.25,-44.5 111.25,-51.5"/>
</g>
</g>
</svg>
