<?xml version="1.0" encoding="UTF-8" standalone="no"?>
<!DOCTYPE svg PUBLIC "-//W3C//DTD SVG 1.1//EN"
 "http://www.w3.org/Graphics/SVG/1.1/DTD/svg11.dtd">
<!-- Generated by graphviz version 12.2.1 (20241206.2353)
 -->
<!-- Title: detail::dtoa_impl::grisu2_digit_gen Pages: 1 -->
<svg width="237pt" height="126pt"
 viewBox="0.00 0.00 237.25 126.00" xmlns="http://www.w3.org/2000/svg" xmlns:xlink="http://www.w3.org/1999/xlink">
<g id="graph0" class="graph" transform="scale(1 1) rotate(0) translate(4 122)">
<title>detail::dtoa_impl::grisu2_digit_gen</title>
<!-- Node1 -->
<g id="node1" class="node">
<title>Node1</title>
<g id="a_node1"><a xlink:title=" ">
<polygon fill="#999999" stroke="#666666" points="93.25,-66 0,-66 0,-34 93.25,-34 93.25,-66"/>
<text text-anchor="start" x="8" y="-52.5" font-family="Helvetica,sans-Serif" font-size="10.00">detail::dtoa_impl::</text>
<text text-anchor="middle" x="46.62" y="-40.5" font-family="Helvetica,sans-Serif" font-size="10.00">grisu2_digit_gen</text>
</a>
</g>
</g>
<!-- Node1&#45;&gt;Node1 -->
<g id="edge3" class="edge">
<title>Node1&#45;&gt;Node1</title>
<path fill="none" stroke="#63b8ff" d="M22.95,-66.44C18.53,-75.58 26.42,-84 46.62,-84 57.67,-84 65.04,-81.48 68.73,-77.71"/>
<polygon fill="#63b8ff" stroke="#63b8ff" points="72.17,-78.33 70.09,-67.94 65.24,-77.36 72.17,-78.33"/>
</g>
<!-- Node2 -->
<g id="node2" class="node">
<title>Node2</title>
<g id="a_node2"><a xlink:href="namespacedetail_1_1dtoa__impl.html#a04eb234a28617519974fc962cd4da666" target="_top" xlink:title=" ">
<polygon fill="white" stroke="#666666" points="229.25,-100 129.25,-100 129.25,-68 229.25,-68 229.25,-100"/>
<text text-anchor="start" x="137.25" y="-86.5" font-family="Helvetica,sans-Serif" font-size="10.00">detail::dtoa_impl::</text>
<text text-anchor="middle" x="179.25" y="-74.5" font-family="Helvetica,sans-Serif" font-size="10.00">find_largest_pow10</text>
</a>
</g>
</g>
<!-- Node1&#45;&gt;Node2 -->
<g id="edge1" class="edge">
<title>Node1&#45;&gt;Node2</title>
<path fill="none" stroke="#63b8ff" d="M93.68,-61.99C101.56,-64.04 109.84,-66.19 118.03,-68.32"/>
<polygon fill="#63b8ff" stroke="#63b8ff" points="117.04,-71.69 127.6,-70.82 118.81,-64.91 117.04,-71.69"/>
</g>
<!-- Node3 -->
<g id="node3" class="node">
<title>Node3</title>
<g id="a_node3"><a xlink:href="namespacedetail_1_1dtoa__impl.html#a73a15efcb5c2157ea0e1375b98ef0e83" target="_top" xlink:title=" ">
<polygon fill="white" stroke="#666666" points="225.88,-32 132.62,-32 132.62,0 225.88,0 225.88,-32"/>
<text text-anchor="start" x="140.62" y="-18.5" font-family="Helvetica,sans-Serif" font-size="10.00">detail::dtoa_impl::</text>
<text text-anchor="middle" x="179.25" y="-6.5" font-family="Helvetica,sans-Serif" font-size="10.00">grisu2_round</text>
</a>
</g>
</g>
<!-- Node1&#45;&gt;Node3 -->
<g id="edge4" class="edge">
<title>Node1&#45;&gt;Node3</title>
<path fill="none" stroke="#63b8ff" d="M93.68,-38.01C102.56,-35.7 111.95,-33.26 121.13,-30.87"/>
<polygon fill="#63b8ff" stroke="#63b8ff" points="121.91,-34.28 130.71,-28.37 120.15,-27.51 121.91,-34.28"/>
</g>
<!-- Node2&#45;&gt;Node2 -->
<g id="edge2" class="edge">
<title>Node2&#45;&gt;Node2</title>
<path fill="none" stroke="#63b8ff" d="M155.57,-100.44C151.15,-109.58 159.05,-118 179.25,-118 190.3,-118 197.67,-115.48 201.35,-111.71"/>
<polygon fill="#63b8ff" stroke="#63b8ff" points="204.8,-112.33 202.72,-101.94 197.87,-111.36 204.8,-112.33"/>
</g>
<!-- Node3&#45;&gt;Node3 -->
<g id="edge5" class="edge">
<title>Node3&#45;&gt;Node3</title>
<path fill="none" stroke="#63b8ff" d="M155.57,-32.44C151.15,-41.58 159.05,-50 179.25,-50 190.3,-50 197.67,-47.48 201.35,-43.71"/>
<polygon fill="#63b8ff" stroke="#63b8ff" points="204.8,-44.33 202.72,-33.94 197.87,-43.36 204.8,-44.33"/>
</g>
</g>
</svg>
