<?xml version="1.0" encoding="UTF-8" standalone="no"?>
<!DOCTYPE svg PUBLIC "-//W3C//DTD SVG 1.1//EN"
 "http://www.w3.org/Graphics/SVG/1.1/DTD/svg11.dtd">
<!-- Generated by graphviz version 12.2.1 (20241206.2353)
 -->
<!-- Title: detail::get Pages: 1 -->
<svg width="536pt" height="198pt"
 viewBox="0.00 0.00 535.50 198.00" xmlns="http://www.w3.org/2000/svg" xmlns:xlink="http://www.w3.org/1999/xlink">
<g id="graph0" class="graph" transform="scale(1 1) rotate(0) translate(4 194)">
<title>detail::get</title>
<!-- Node1 -->
<g id="node1" class="node">
<title>Node1</title>
<g id="a_node1"><a xlink:title=" ">
<polygon fill="#999999" stroke="#666666" points="527.5,-70 468.75,-70 468.75,-50 527.5,-50 527.5,-70"/>
<text text-anchor="middle" x="498.12" y="-56.5" font-family="Helvetica,sans-Serif" font-size="10.00">detail::get</text>
</a>
</g>
</g>
<!-- Node2 -->
<g id="node2" class="node">
<title>Node2</title>
<g id="a_node2"><a xlink:href="classdetail_1_1binary__reader.html#a8e1b5452ae426e1d7b48761859e7f52d" target="_top" xlink:title=" ">
<polygon fill="white" stroke="#666666" points="427.5,-120 323.75,-120 323.75,-88 427.5,-88 427.5,-120"/>
<text text-anchor="start" x="331.75" y="-106.5" font-family="Helvetica,sans-Serif" font-size="10.00">detail::binary_reader</text>
<text text-anchor="middle" x="375.62" y="-94.5" font-family="Helvetica,sans-Serif" font-size="10.00">::sax_parse</text>
</a>
</g>
</g>
<!-- Node1&#45;&gt;Node2 -->
<g id="edge1" class="edge">
<title>Node1&#45;&gt;Node2</title>
<path fill="none" stroke="#63b8ff" d="M457.85,-74.34C446.23,-78.58 433.41,-83.26 421.47,-87.63"/>
<polygon fill="#63b8ff" stroke="#63b8ff" points="458.95,-77.66 467.15,-70.95 456.55,-71.09 458.95,-77.66"/>
</g>
<!-- Node9 -->
<g id="node9" class="node">
<title>Node9</title>
<g id="a_node9"><a xlink:href="classdetail_1_1lexer.html#a04ae0c7807a761f4162ff42290be5490" target="_top" xlink:title="skip the UTF&#45;8 byte order mark">
<polygon fill="white" stroke="#666666" points="432.75,-70 318.5,-70 318.5,-50 432.75,-50 432.75,-70"/>
<text text-anchor="middle" x="375.62" y="-56.5" font-family="Helvetica,sans-Serif" font-size="10.00">detail::lexer::skip_bom</text>
</a>
</g>
</g>
<!-- Node1&#45;&gt;Node9 -->
<g id="edge8" class="edge">
<title>Node1&#45;&gt;Node9</title>
<path fill="none" stroke="#63b8ff" d="M456.79,-60C449.19,-60 441.12,-60 433.13,-60"/>
<polygon fill="#63b8ff" stroke="#63b8ff" points="456.75,-63.5 466.75,-60 456.75,-56.5 456.75,-63.5"/>
</g>
<!-- Node10 -->
<g id="node10" class="node">
<title>Node10</title>
<g id="a_node10"><a xlink:href="classdetail_1_1lexer.html#a230468eb9130a7173e0636fc1fc5606b" target="_top" xlink:title=" ">
<polygon fill="white" stroke="#666666" points="420.75,-32 330.5,-32 330.5,0 420.75,0 420.75,-32"/>
<text text-anchor="start" x="338.5" y="-18.5" font-family="Helvetica,sans-Serif" font-size="10.00">detail::lexer::skip</text>
<text text-anchor="middle" x="375.62" y="-6.5" font-family="Helvetica,sans-Serif" font-size="10.00">_whitespace</text>
</a>
</g>
</g>
<!-- Node1&#45;&gt;Node10 -->
<g id="edge9" class="edge">
<title>Node1&#45;&gt;Node10</title>
<path fill="none" stroke="#63b8ff" d="M458.11,-45.75C446.26,-41.43 433.17,-36.65 421,-32.2"/>
<polygon fill="#63b8ff" stroke="#63b8ff" points="456.55,-48.91 467.15,-49.05 458.95,-42.34 456.55,-48.91"/>
</g>
<!-- Node3 -->
<g id="node3" class="node">
<title>Node3</title>
<g id="a_node3"><a xlink:href="classbasic__json.html#a602b1c389d92f2c7db21f89bb6fb9817" target="_top" xlink:title=" ">
<polygon fill="white" stroke="#666666" points="282.5,-114 169,-114 169,-94 282.5,-94 282.5,-114"/>
<text text-anchor="middle" x="225.75" y="-100.5" font-family="Helvetica,sans-Serif" font-size="10.00">basic_json::sax_parse</text>
</a>
</g>
</g>
<!-- Node2&#45;&gt;Node3 -->
<g id="edge2" class="edge">
<title>Node2&#45;&gt;Node3</title>
<path fill="none" stroke="#63b8ff" d="M312.06,-104C302.33,-104 292.33,-104 282.76,-104"/>
<polygon fill="#63b8ff" stroke="#63b8ff" points="311.81,-107.5 321.81,-104 311.81,-100.5 311.81,-107.5"/>
</g>
<!-- Node4 -->
<g id="node4" class="node">
<title>Node4</title>
<g id="a_node4"><a xlink:href="classbasic__json.html#a59327f708c0555e2928487bcddf71293" target="_top" xlink:title="create a JSON value from an input in BJData format">
<polygon fill="white" stroke="#666666" points="126.25,-190 6.75,-190 6.75,-170 126.25,-170 126.25,-190"/>
<text text-anchor="middle" x="66.5" y="-176.5" font-family="Helvetica,sans-Serif" font-size="10.00">basic_json::from_bjdata</text>
</a>
</g>
</g>
<!-- Node3&#45;&gt;Node4 -->
<g id="edge3" class="edge">
<title>Node3&#45;&gt;Node4</title>
<path fill="none" stroke="#63b8ff" d="M201.45,-120.97C183.47,-133.44 157.6,-150.04 133,-161 125.75,-164.23 117.81,-167.07 110.04,-169.5"/>
<polygon fill="#63b8ff" stroke="#63b8ff" points="203.43,-123.86 209.57,-115.24 199.39,-118.15 203.43,-123.86"/>
</g>
<!-- Node5 -->
<g id="node5" class="node">
<title>Node5</title>
<g id="a_node5"><a xlink:href="classbasic__json.html#a4b0dfca88b11ea59a2568707767622d8" target="_top" xlink:title="create a JSON value from an input in BSON format">
<polygon fill="white" stroke="#666666" points="123.62,-152 9.37,-152 9.37,-132 123.62,-132 123.62,-152"/>
<text text-anchor="middle" x="66.5" y="-138.5" font-family="Helvetica,sans-Serif" font-size="10.00">basic_json::from_bson</text>
</a>
</g>
</g>
<!-- Node3&#45;&gt;Node5 -->
<g id="edge4" class="edge">
<title>Node3&#45;&gt;Node5</title>
<path fill="none" stroke="#63b8ff" d="M170.2,-117.18C150.75,-121.88 129.12,-127.11 110.74,-131.55"/>
<polygon fill="#63b8ff" stroke="#63b8ff" points="171,-120.59 179.89,-114.84 169.35,-113.79 171,-120.59"/>
</g>
<!-- Node6 -->
<g id="node6" class="node">
<title>Node6</title>
<g id="a_node6"><a xlink:href="classbasic__json.html#a5bc3c67eaf6e9b22c8b446f9695249e9" target="_top" xlink:title="create a JSON value from an input in CBOR format">
<polygon fill="white" stroke="#666666" points="122.5,-114 10.5,-114 10.5,-94 122.5,-94 122.5,-114"/>
<text text-anchor="middle" x="66.5" y="-100.5" font-family="Helvetica,sans-Serif" font-size="10.00">basic_json::from_cbor</text>
</a>
</g>
</g>
<!-- Node3&#45;&gt;Node6 -->
<g id="edge5" class="edge">
<title>Node3&#45;&gt;Node6</title>
<path fill="none" stroke="#63b8ff" d="M157.49,-104C145.97,-104 134.11,-104 122.94,-104"/>
<polygon fill="#63b8ff" stroke="#63b8ff" points="157.35,-107.5 167.35,-104 157.35,-100.5 157.35,-107.5"/>
</g>
<!-- Node7 -->
<g id="node7" class="node">
<title>Node7</title>
<g id="a_node7"><a xlink:href="classbasic__json.html#ab0c025488572f913ca5529a2ef62d066" target="_top" xlink:title="create a JSON value from an input in MessagePack format">
<polygon fill="white" stroke="#666666" points="133,-76 0,-76 0,-56 133,-56 133,-76"/>
<text text-anchor="middle" x="66.5" y="-62.5" font-family="Helvetica,sans-Serif" font-size="10.00">basic_json::from_msgpack</text>
</a>
</g>
</g>
<!-- Node3&#45;&gt;Node7 -->
<g id="edge6" class="edge">
<title>Node3&#45;&gt;Node7</title>
<path fill="none" stroke="#63b8ff" d="M170.2,-90.82C150.75,-86.12 129.12,-80.89 110.74,-76.45"/>
<polygon fill="#63b8ff" stroke="#63b8ff" points="169.35,-94.21 179.89,-93.16 171,-87.41 169.35,-94.21"/>
</g>
<!-- Node8 -->
<g id="node8" class="node">
<title>Node8</title>
<g id="a_node8"><a xlink:href="classbasic__json.html#a4588941095d03624ada4f0023d93944a" target="_top" xlink:title="create a JSON value from an input in UBJSON format">
<polygon fill="white" stroke="#666666" points="127.38,-38 5.62,-38 5.62,-18 127.38,-18 127.38,-38"/>
<text text-anchor="middle" x="66.5" y="-24.5" font-family="Helvetica,sans-Serif" font-size="10.00">basic_json::from_ubjson</text>
</a>
</g>
</g>
<!-- Node3&#45;&gt;Node8 -->
<g id="edge7" class="edge">
<title>Node3&#45;&gt;Node8</title>
<path fill="none" stroke="#63b8ff" d="M201.45,-87.03C183.47,-74.56 157.6,-57.96 133,-47 125.75,-43.77 117.81,-40.93 110.04,-38.5"/>
<polygon fill="#63b8ff" stroke="#63b8ff" points="199.39,-89.85 209.57,-92.76 203.43,-84.14 199.39,-89.85"/>
</g>
</g>
</svg>
