<?xml version="1.0" encoding="UTF-8" standalone="no"?>
<!DOCTYPE svg PUBLIC "-//W3C//DTD SVG 1.1//EN"
 "http://www.w3.org/Graphics/SVG/1.1/DTD/svg11.dtd">
<!-- Generated by graphviz version 12.2.1 (20241206.2353)
 -->
<!-- Title: detail::concat_length Pages: 1 -->
<svg width="1046pt" height="1274pt"
 viewBox="0.00 0.00 1045.50 1274.00" xmlns="http://www.w3.org/2000/svg" xmlns:xlink="http://www.w3.org/1999/xlink">
<g id="graph0" class="graph" transform="scale(1 1) rotate(0) translate(4 1270)">
<title>detail::concat_length</title>
<!-- Node1 -->
<g id="node1" class="node">
<title>Node1</title>
<g id="a_node1"><a xlink:title=" ">
<polygon fill="#999999" stroke="#666666" points="1037.5,-639 931.5,-639 931.5,-619 1037.5,-619 1037.5,-639"/>
<text text-anchor="middle" x="984.5" y="-625.5" font-family="Helvetica,sans-Serif" font-size="10.00">detail::concat_length</text>
</a>
</g>
</g>
<!-- Node2 -->
<g id="node2" class="node">
<title>Node2</title>
<g id="a_node2"><a xlink:href="namespacedetail.html#a266fb3d4bf633ad6c506434cc91164da" target="_top" xlink:title=" ">
<polygon fill="white" stroke="#666666" points="879.75,-658 805.25,-658 805.25,-638 879.75,-638 879.75,-658"/>
<text text-anchor="middle" x="842.5" y="-644.5" font-family="Helvetica,sans-Serif" font-size="10.00">detail::concat</text>
</a>
</g>
</g>
<!-- Node1&#45;&gt;Node2 -->
<g id="edge1" class="edge">
<title>Node1&#45;&gt;Node2</title>
<path fill="none" stroke="#63b8ff" d="M919.97,-637.62C906.26,-639.48 892.21,-641.39 879.95,-643.05"/>
<polygon fill="#63b8ff" stroke="#63b8ff" points="920.43,-641.09 929.87,-636.28 919.49,-634.16 920.43,-641.09"/>
</g>
<!-- Node48 -->
<g id="node48" class="node">
<title>Node48</title>
<g id="a_node48"><a xlink:href="namespacedetail.html#aa5f189c556ba621b4bbb57fe03cd4800" target="_top" xlink:title=" ">
<polygon fill="white" stroke="#666666" points="895.5,-620 789.5,-620 789.5,-600 895.5,-600 895.5,-620"/>
<text text-anchor="middle" x="842.5" y="-606.5" font-family="Helvetica,sans-Serif" font-size="10.00">detail::concat_length</text>
</a>
</g>
</g>
<!-- Node1&#45;&gt;Node48 -->
<g id="edge61" class="edge">
<title>Node1&#45;&gt;Node48</title>
<path fill="none" stroke="#63b8ff" d="M919.99,-620.38C911.86,-619.28 903.6,-618.16 895.67,-617.08"/>
<polygon fill="#63b8ff" stroke="#63b8ff" points="919.49,-623.84 929.87,-621.72 920.43,-616.91 919.49,-623.84"/>
</g>
<!-- Node3 -->
<g id="node3" class="node">
<title>Node3</title>
<g id="a_node3"><a xlink:href="classbasic__json.html#a899e4623fe377af5c9ad14c40c64280c" target="_top" xlink:title="access specified array element with bounds checking">
<polygon fill="white" stroke="#666666" points="557.12,-1266 480.38,-1266 480.38,-1246 557.12,-1246 557.12,-1266"/>
<text text-anchor="middle" x="518.75" y="-1252.5" font-family="Helvetica,sans-Serif" font-size="10.00">basic_json::at</text>
</a>
</g>
</g>
<!-- Node2&#45;&gt;Node3 -->
<g id="edge2" class="edge">
<title>Node2&#45;&gt;Node3</title>
<path fill="none" stroke="#63b8ff" d="M841.13,-669.42C839.13,-761.13 826.66,-1119.68 753.5,-1199 703.09,-1253.66 609.77,-1259.86 557.59,-1258.57"/>
<polygon fill="#63b8ff" stroke="#63b8ff" points="844.63,-669.67 841.33,-659.61 837.63,-669.54 844.63,-669.67"/>
</g>
<!-- Node4 -->
<g id="node4" class="node">
<title>Node4</title>
<g id="a_node4"><a xlink:href="classbasic__json.html#a693812b31e106dec9166e93d8f6dd7d7" target="_top" xlink:title="applies a JSON patch in&#45;place without copying the object">
<polygon fill="white" stroke="#666666" points="257,-1114 128.5,-1114 128.5,-1094 257,-1094 257,-1114"/>
<text text-anchor="middle" x="192.75" y="-1100.5" font-family="Helvetica,sans-Serif" font-size="10.00">basic_json::patch_inplace</text>
</a>
</g>
</g>
<!-- Node2&#45;&gt;Node4 -->
<g id="edge42" class="edge">
<title>Node2&#45;&gt;Node4</title>
<path fill="none" stroke="#63b8ff" d="M839.52,-669.22C832.43,-740.65 805.85,-970.53 753.5,-1019 717.46,-1052.37 396.48,-1085.45 257.47,-1098.35"/>
<polygon fill="#63b8ff" stroke="#63b8ff" points="842.97,-669.94 840.45,-659.65 836,-669.27 842.97,-669.94"/>
</g>
<!-- Node6 -->
<g id="node6" class="node">
<title>Node6</title>
<g id="a_node6"><a xlink:href="classbasic__json.html#af97b4fcd01509076c8a7b32ec1a10aec" target="_top" xlink:title="construct a JSON container given an iterator range">
<polygon fill="white" stroke="#666666" points="740,-724 625,-724 625,-704 740,-704 740,-724"/>
<text text-anchor="middle" x="682.5" y="-710.5" font-family="Helvetica,sans-Serif" font-size="10.00">basic_json::basic_json</text>
</a>
</g>
</g>
<!-- Node2&#45;&gt;Node6 -->
<g id="edge5" class="edge">
<title>Node2&#45;&gt;Node6</title>
<path fill="none" stroke="#63b8ff" d="M815.03,-664.17C797.94,-674.09 774.96,-686.48 753.5,-695 745.42,-698.21 736.62,-701.06 728.06,-703.53"/>
<polygon fill="#63b8ff" stroke="#63b8ff" points="816.72,-667.24 823.54,-659.13 813.15,-661.21 816.72,-667.24"/>
</g>
<!-- Node7 -->
<g id="node7" class="node">
<title>Node7</title>
<g id="a_node7"><a xlink:href="classdetail_1_1parse__error.html#a07046ea9f33d28f120af188ed674d6df" target="_top" xlink:title="create a parse error exception">
<polygon fill="white" stroke="#666666" points="565.75,-988 471.75,-988 471.75,-956 565.75,-956 565.75,-988"/>
<text text-anchor="start" x="479.75" y="-974.5" font-family="Helvetica,sans-Serif" font-size="10.00">detail::parse_error</text>
<text text-anchor="middle" x="518.75" y="-962.5" font-family="Helvetica,sans-Serif" font-size="10.00">::create</text>
</a>
</g>
</g>
<!-- Node2&#45;&gt;Node7 -->
<g id="edge6" class="edge">
<title>Node2&#45;&gt;Node7</title>
<path fill="none" stroke="#63b8ff" d="M838.35,-669.76C828.75,-732.8 797.81,-913.39 753.5,-950 701.02,-993.36 617.54,-989.51 565.84,-981.59"/>
<polygon fill="#63b8ff" stroke="#63b8ff" points="841.79,-670.39 839.8,-659.99 834.87,-669.36 841.79,-670.39"/>
</g>
<!-- Node10 -->
<g id="node10" class="node">
<title>Node10</title>
<g id="a_node10"><a xlink:href="classdetail_1_1invalid__iterator.html#a35d0b713b151188622791891314949f9" target="_top" xlink:title=" ">
<polygon fill="white" stroke="#666666" points="572.88,-938 464.62,-938 464.62,-906 572.88,-906 572.88,-938"/>
<text text-anchor="start" x="472.62" y="-924.5" font-family="Helvetica,sans-Serif" font-size="10.00">detail::invalid_iterator</text>
<text text-anchor="middle" x="518.75" y="-912.5" font-family="Helvetica,sans-Serif" font-size="10.00">::create</text>
</a>
</g>
</g>
<!-- Node2&#45;&gt;Node10 -->
<g id="edge9" class="edge">
<title>Node2&#45;&gt;Node10</title>
<path fill="none" stroke="#63b8ff" d="M842.3,-669.84C842.95,-723.65 836.16,-862.66 753.5,-923 701.05,-961.28 622.86,-951.32 571.58,-938.47"/>
<polygon fill="#63b8ff" stroke="#63b8ff" points="845.8,-669.78 842.07,-659.87 838.81,-669.95 845.8,-669.78"/>
</g>
<!-- Node11 -->
<g id="node11" class="node">
<title>Node11</title>
<g id="a_node11"><a xlink:href="classdetail_1_1type__error.html#a2d25372628cf1e09ec67718f4bc42762" target="_top" xlink:title=" ">
<polygon fill="white" stroke="#666666" points="563.12,-800 474.38,-800 474.38,-768 563.12,-768 563.12,-800"/>
<text text-anchor="start" x="482.38" y="-786.5" font-family="Helvetica,sans-Serif" font-size="10.00">detail::type_error</text>
<text text-anchor="middle" x="518.75" y="-774.5" font-family="Helvetica,sans-Serif" font-size="10.00">::create</text>
</a>
</g>
</g>
<!-- Node2&#45;&gt;Node11 -->
<g id="edge10" class="edge">
<title>Node2&#45;&gt;Node11</title>
<path fill="none" stroke="#63b8ff" d="M832.8,-668.66C819.95,-696.26 793.07,-744.21 753.5,-766 693.96,-798.79 612.63,-796.46 563.27,-790.88"/>
<polygon fill="#63b8ff" stroke="#63b8ff" points="835.96,-670.15 836.83,-659.59 829.57,-667.31 835.96,-670.15"/>
</g>
<!-- Node12 -->
<g id="node12" class="node">
<title>Node12</title>
<g id="a_node12"><a xlink:href="namespacedetail.html#ac8fc7fc4703cbd8edd7bb43a94adf92b" target="_top" xlink:title=" ">
<polygon fill="white" stroke="#666666" points="403.5,-827 315.5,-827 315.5,-807 403.5,-807 403.5,-827"/>
<text text-anchor="middle" x="359.5" y="-813.5" font-family="Helvetica,sans-Serif" font-size="10.00">detail::from_json</text>
</a>
</g>
</g>
<!-- Node2&#45;&gt;Node12 -->
<g id="edge28" class="edge">
<title>Node2&#45;&gt;Node12</title>
<path fill="none" stroke="#63b8ff" d="M835.57,-669.13C825.07,-702.16 799.84,-765.19 753.5,-794 643.36,-862.47 480.58,-842.08 403.71,-826.93"/>
<polygon fill="#63b8ff" stroke="#63b8ff" points="838.82,-670.48 838.35,-659.89 832.12,-668.46 838.82,-670.48"/>
</g>
<!-- Node14 -->
<g id="node14" class="node">
<title>Node14</title>
<g id="a_node14"><a xlink:href="namespacedetail.html#ad10dc6af43ec8e72954eb2ac08c8698b" target="_top" xlink:title=" ">
<polygon fill="white" stroke="#666666" points="412.88,-767 306.12,-767 306.12,-735 412.88,-735 412.88,-767"/>
<text text-anchor="start" x="314.12" y="-753.5" font-family="Helvetica,sans-Serif" font-size="10.00">detail::get_arithmetic</text>
<text text-anchor="middle" x="359.5" y="-741.5" font-family="Helvetica,sans-Serif" font-size="10.00">_value</text>
</a>
</g>
</g>
<!-- Node2&#45;&gt;Node14 -->
<g id="edge29" class="edge">
<title>Node2&#45;&gt;Node14</title>
<path fill="none" stroke="#63b8ff" d="M828.25,-667.33C812.94,-687.83 785.69,-719.13 753.5,-733 693.83,-758.71 505.8,-756.15 413.15,-753.14"/>
<polygon fill="#63b8ff" stroke="#63b8ff" points="830.89,-669.65 833.89,-659.48 825.21,-665.56 830.89,-669.65"/>
</g>
<!-- Node16 -->
<g id="node16" class="node">
<title>Node16</title>
<g id="a_node16"><a xlink:href="classdetail_1_1out__of__range.html#a79ea0d3ec02a853629dc827e045ecff5" target="_top" xlink:title=" ">
<polygon fill="white" stroke="#666666" points="569.5,-1038 468,-1038 468,-1006 569.5,-1006 569.5,-1038"/>
<text text-anchor="start" x="476" y="-1024.5" font-family="Helvetica,sans-Serif" font-size="10.00">detail::out_of_range</text>
<text text-anchor="middle" x="518.75" y="-1012.5" font-family="Helvetica,sans-Serif" font-size="10.00">::create</text>
</a>
</g>
</g>
<!-- Node2&#45;&gt;Node16 -->
<g id="edge15" class="edge">
<title>Node2&#45;&gt;Node16</title>
<path fill="none" stroke="#63b8ff" d="M838.85,-669.66C830.18,-736.7 800.56,-938.92 753.5,-982 703.85,-1027.46 622.27,-1031.17 569.8,-1027.91"/>
<polygon fill="#63b8ff" stroke="#63b8ff" points="842.29,-670.32 840.07,-659.96 835.35,-669.44 842.29,-670.32"/>
</g>
<!-- Node20 -->
<g id="node20" class="node">
<title>Node20</title>
<g id="a_node20"><a xlink:href="classdetail_1_1other__error.html#a687565ec69bfdf7a15f9a672038b0f0f" target="_top" xlink:title=" ">
<polygon fill="white" stroke="#666666" points="564.62,-888 472.88,-888 472.88,-856 564.62,-856 564.62,-888"/>
<text text-anchor="start" x="480.88" y="-874.5" font-family="Helvetica,sans-Serif" font-size="10.00">detail::other_error</text>
<text text-anchor="middle" x="518.75" y="-862.5" font-family="Helvetica,sans-Serif" font-size="10.00">::create</text>
</a>
</g>
</g>
<!-- Node2&#45;&gt;Node20 -->
<g id="edge21" class="edge">
<title>Node2&#45;&gt;Node20</title>
<path fill="none" stroke="#63b8ff" d="M838.62,-669.43C831.89,-710.38 811.06,-799.47 753.5,-842 698.54,-882.6 615.82,-883 564.94,-878.37"/>
<polygon fill="#63b8ff" stroke="#63b8ff" points="842.06,-670.06 840.09,-659.65 835.14,-669.02 842.06,-670.06"/>
</g>
<!-- Node21 -->
<g id="node21" class="node">
<title>Node21</title>
<g id="a_node21"><a xlink:href="classdetail_1_1exception.html#af3739c53fe56a1712754d13dfa561f80" target="_top" xlink:title=" ">
<polygon fill="white" stroke="#666666" points="729.12,-686 635.88,-686 635.88,-654 729.12,-654 729.12,-686"/>
<text text-anchor="start" x="643.88" y="-672.5" font-family="Helvetica,sans-Serif" font-size="10.00">detail::exception::</text>
<text text-anchor="middle" x="682.5" y="-660.5" font-family="Helvetica,sans-Serif" font-size="10.00">diagnostics</text>
</a>
</g>
</g>
<!-- Node2&#45;&gt;Node21 -->
<g id="edge22" class="edge">
<title>Node2&#45;&gt;Node21</title>
<path fill="none" stroke="#63b8ff" d="M793.63,-654.67C773.3,-657.5 749.7,-660.78 729.57,-663.58"/>
<polygon fill="#63b8ff" stroke="#63b8ff" points="793.93,-658.16 803.36,-653.31 792.97,-651.22 793.93,-658.16"/>
</g>
<!-- Node22 -->
<g id="node22" class="node">
<title>Node22</title>
<g id="a_node22"><a xlink:href="classbasic__json.html#af298488e59ff260d2ca950070cf19196" target="_top" xlink:title="add an object to an object if key does not exist">
<polygon fill="white" stroke="#666666" points="735.12,-636 629.88,-636 629.88,-616 735.12,-616 735.12,-636"/>
<text text-anchor="middle" x="682.5" y="-622.5" font-family="Helvetica,sans-Serif" font-size="10.00">basic_json::emplace</text>
</a>
</g>
</g>
<!-- Node2&#45;&gt;Node22 -->
<g id="edge23" class="edge">
<title>Node2&#45;&gt;Node22</title>
<path fill="none" stroke="#63b8ff" d="M793.53,-641.32C775.19,-638.77 754.21,-635.85 735.51,-633.24"/>
<polygon fill="#63b8ff" stroke="#63b8ff" points="792.97,-644.78 803.36,-642.69 793.93,-637.84 792.97,-644.78"/>
</g>
<!-- Node23 -->
<g id="node23" class="node">
<title>Node23</title>
<g id="a_node23"><a xlink:href="classbasic__json.html#ac5f0a15957842b188826aea98a9cfd3d" target="_top" xlink:title="add an object to an array">
<polygon fill="white" stroke="#666666" points="748.25,-598 616.75,-598 616.75,-578 748.25,-578 748.25,-598"/>
<text text-anchor="middle" x="682.5" y="-584.5" font-family="Helvetica,sans-Serif" font-size="10.00">basic_json::emplace_back</text>
</a>
</g>
</g>
<!-- Node2&#45;&gt;Node23 -->
<g id="edge24" class="edge">
<title>Node2&#45;&gt;Node23</title>
<path fill="none" stroke="#63b8ff" d="M799.16,-633.33C795.86,-631.95 792.6,-630.5 789.5,-629 772.61,-620.85 770.72,-614.42 753.5,-607 745.87,-603.71 737.52,-600.86 729.33,-598.43"/>
<polygon fill="#63b8ff" stroke="#63b8ff" points="797.74,-636.54 808.33,-636.97 800.32,-630.03 797.74,-636.54"/>
</g>
<!-- Node24 -->
<g id="node24" class="node">
<title>Node24</title>
<g id="a_node24"><a xlink:href="classbasic__json.html#a7d0fef086b1b72372113db6ce7446189" target="_top" xlink:title="remove element given an iterator">
<polygon fill="white" stroke="#666666" points="565,-1114 472.5,-1114 472.5,-1094 565,-1094 565,-1114"/>
<text text-anchor="middle" x="518.75" y="-1100.5" font-family="Helvetica,sans-Serif" font-size="10.00">basic_json::erase</text>
</a>
</g>
</g>
<!-- Node2&#45;&gt;Node24 -->
<g id="edge25" class="edge">
<title>Node2&#45;&gt;Node24</title>
<path fill="none" stroke="#63b8ff" d="M840.37,-669.65C835.73,-749.24 815.43,-1023.9 753.5,-1080 702.56,-1126.15 617.41,-1121.95 565.15,-1113.68"/>
<polygon fill="#63b8ff" stroke="#63b8ff" points="843.86,-669.93 840.92,-659.75 836.87,-669.54 843.86,-669.93"/>
</g>
<!-- Node25 -->
<g id="node25" class="node">
<title>Node25</title>
<g id="a_node25"><a xlink:href="classdetail_1_1serializer.html#a491abc2de2affbc9c3490bde110b7f07" target="_top" xlink:title=" ">
<polygon fill="white" stroke="#666666" points="733.25,-560 631.75,-560 631.75,-540 733.25,-540 733.25,-560"/>
<text text-anchor="middle" x="682.5" y="-546.5" font-family="Helvetica,sans-Serif" font-size="10.00">detail::serializer::for</text>
</a>
</g>
</g>
<!-- Node2&#45;&gt;Node25 -->
<g id="edge27" class="edge">
<title>Node2&#45;&gt;Node25</title>
<path fill="none" stroke="#63b8ff" d="M794.89,-632.91C793,-631.7 791.2,-630.4 789.5,-629 765.52,-609.2 778.3,-587.76 753.5,-569 747.58,-564.52 740.66,-561.09 733.53,-558.47"/>
<polygon fill="#63b8ff" stroke="#63b8ff" points="793.02,-635.88 803.48,-637.51 796.32,-629.71 793.02,-635.88"/>
</g>
<!-- Node26 -->
<g id="node26" class="node">
<title>Node26</title>
<g id="a_node26"><a xlink:href="classbasic__json.html#aaa2432a7c01833b02c6330709211ede7" target="_top" xlink:title="get a binary value">
<polygon fill="white" stroke="#666666" points="739.25,-522 625.75,-522 625.75,-502 739.25,-502 739.25,-522"/>
<text text-anchor="middle" x="682.5" y="-508.5" font-family="Helvetica,sans-Serif" font-size="10.00">basic_json::get_binary</text>
</a>
</g>
</g>
<!-- Node2&#45;&gt;Node26 -->
<g id="edge30" class="edge">
<title>Node2&#45;&gt;Node26</title>
<path fill="none" stroke="#63b8ff" d="M795.28,-633.82C793.21,-632.37 791.27,-630.77 789.5,-629 756.66,-596.22 787.71,-562.35 753.5,-531 749.42,-527.26 744.67,-524.24 739.6,-521.81"/>
<polygon fill="#63b8ff" stroke="#63b8ff" points="793.23,-636.68 803.65,-638.56 796.67,-630.59 793.23,-636.68"/>
</g>
<!-- Node27 -->
<g id="node27" class="node">
<title>Node27</title>
<g id="a_node27"><a xlink:href="classbasic__json.html#a7f3817060c2bec896a99cb2c236b9c27" target="_top" xlink:title="inserts element into array">
<polygon fill="white" stroke="#666666" points="728.75,-1190 636.25,-1190 636.25,-1170 728.75,-1170 728.75,-1190"/>
<text text-anchor="middle" x="682.5" y="-1176.5" font-family="Helvetica,sans-Serif" font-size="10.00">basic_json::insert</text>
</a>
</g>
</g>
<!-- Node2&#45;&gt;Node27 -->
<g id="edge31" class="edge">
<title>Node2&#45;&gt;Node27</title>
<path fill="none" stroke="#63b8ff" d="M840.8,-669.55C837.51,-757.37 820.78,-1086.99 753.5,-1161 747.06,-1168.08 738.28,-1172.63 729.11,-1175.53"/>
<polygon fill="#63b8ff" stroke="#63b8ff" points="844.29,-669.84 841.14,-659.72 837.29,-669.59 844.29,-669.84"/>
</g>
<!-- Node29 -->
<g id="node29" class="node">
<title>Node29</title>
<g id="a_node29"><a xlink:href="classbasic__json.html#a7b435c2ed2db99cb1daa78ae3c6c4580" target="_top" xlink:title="returns version information on the library">
<polygon fill="white" stroke="#666666" points="727.62,-484 637.38,-484 637.38,-464 727.62,-464 727.62,-484"/>
<text text-anchor="middle" x="682.5" y="-470.5" font-family="Helvetica,sans-Serif" font-size="10.00">basic_json::meta</text>
</a>
</g>
</g>
<!-- Node2&#45;&gt;Node29 -->
<g id="edge34" class="edge">
<title>Node2&#45;&gt;Node29</title>
<path fill="none" stroke="#63b8ff" d="M795.17,-634.09C793.12,-632.57 791.21,-630.87 789.5,-629 747.36,-582.81 797.57,-537.35 753.5,-493 746.58,-486.03 737.37,-481.55 727.92,-478.68"/>
<polygon fill="#63b8ff" stroke="#63b8ff" points="793.18,-636.98 803.58,-639 796.71,-630.93 793.18,-636.98"/>
</g>
<!-- Node30 -->
<g id="node30" class="node">
<title>Node30</title>
<g id="a_node30"><a xlink:href="classdetail_1_1exception.html#a8f1eb56b9964c8dd84d89d0da98d883b" target="_top" xlink:title=" ">
<polygon fill="white" stroke="#666666" points="741.12,-914 623.88,-914 623.88,-894 741.12,-894 741.12,-914"/>
<text text-anchor="middle" x="682.5" y="-900.5" font-family="Helvetica,sans-Serif" font-size="10.00">detail::exception::name</text>
</a>
</g>
</g>
<!-- Node2&#45;&gt;Node30 -->
<g id="edge35" class="edge">
<title>Node2&#45;&gt;Node30</title>
<path fill="none" stroke="#63b8ff" d="M839.35,-669.87C833.72,-715.39 814.47,-820.96 753.5,-880 747.5,-885.81 740.04,-890.22 732.23,-893.56"/>
<polygon fill="#63b8ff" stroke="#63b8ff" points="842.82,-670.31 840.45,-659.99 835.86,-669.53 842.82,-670.31"/>
</g>
<!-- Node31 -->
<g id="node31" class="node">
<title>Node31</title>
<g id="a_node31"><a xlink:href="classbasic__json.html#ab4f511db82b9d5eba85d5b2b8e1c6dbb" target="_top" xlink:title="access specified array element">
<polygon fill="white" stroke="#666666" points="737.38,-446 627.62,-446 627.62,-426 737.38,-426 737.38,-446"/>
<text text-anchor="middle" x="682.5" y="-432.5" font-family="Helvetica,sans-Serif" font-size="10.00">basic_json::operator[]</text>
</a>
</g>
</g>
<!-- Node2&#45;&gt;Node31 -->
<g id="edge41" class="edge">
<title>Node2&#45;&gt;Node31</title>
<path fill="none" stroke="#63b8ff" d="M795.14,-634.27C793.09,-632.7 791.18,-630.95 789.5,-629 737.89,-569.23 807.61,-512.52 753.5,-455 749.1,-450.32 743.67,-446.75 737.81,-444.04"/>
<polygon fill="#63b8ff" stroke="#63b8ff" points="793.25,-637.22 803.64,-639.3 796.81,-631.19 793.25,-637.22"/>
</g>
<!-- Node32 -->
<g id="node32" class="node">
<title>Node32</title>
<g id="a_node32"><a xlink:href="classbasic__json.html#a3d13acce4e49e0d5ee768643a7b89010" target="_top" xlink:title="add an object to an array">
<polygon fill="white" stroke="#666666" points="740.38,-1152 624.62,-1152 624.62,-1132 740.38,-1132 740.38,-1152"/>
<text text-anchor="middle" x="682.5" y="-1138.5" font-family="Helvetica,sans-Serif" font-size="10.00">basic_json::push_back</text>
</a>
</g>
</g>
<!-- Node2&#45;&gt;Node32 -->
<g id="edge43" class="edge">
<title>Node2&#45;&gt;Node32</title>
<path fill="none" stroke="#63b8ff" d="M840.28,-669.74C835.18,-752.83 813.08,-1049.07 753.5,-1118 748.46,-1123.83 741.94,-1128.25 734.9,-1131.59"/>
<polygon fill="#63b8ff" stroke="#63b8ff" points="843.76,-670.2 840.85,-660.01 836.77,-669.78 843.76,-670.2"/>
</g>
<!-- Node33 -->
<g id="node33" class="node">
<title>Node33</title>
<g id="a_node33"><a xlink:href="classdetail_1_1binary__reader.html#a8e1b5452ae426e1d7b48761859e7f52d" target="_top" xlink:title=" ">
<polygon fill="white" stroke="#666666" points="734.38,-408 630.62,-408 630.62,-376 734.38,-376 734.38,-408"/>
<text text-anchor="start" x="638.62" y="-394.5" font-family="Helvetica,sans-Serif" font-size="10.00">detail::binary_reader</text>
<text text-anchor="middle" x="682.5" y="-382.5" font-family="Helvetica,sans-Serif" font-size="10.00">::sax_parse</text>
</a>
</g>
</g>
<!-- Node2&#45;&gt;Node33 -->
<g id="edge46" class="edge">
<title>Node2&#45;&gt;Node33</title>
<path fill="none" stroke="#63b8ff" d="M795.06,-634.34C793.02,-632.75 791.15,-630.98 789.5,-629 728.35,-555.56 814.92,-490.22 753.5,-417 748.44,-410.97 741.82,-406.39 734.66,-402.92"/>
<polygon fill="#63b8ff" stroke="#63b8ff" points="793.12,-637.26 803.5,-639.41 796.73,-631.26 793.12,-637.26"/>
</g>
<!-- Node40 -->
<g id="node40" class="node">
<title>Node40</title>
<g id="a_node40"><a xlink:href="classdetail_1_1json__sax__dom__parser.html#ab47560ea9aebc6a25c0e2939bc8c95d0" target="_top" xlink:title=" ">
<polygon fill="white" stroke="#666666" points="736.62,-358 628.38,-358 628.38,-326 736.62,-326 736.62,-358"/>
<text text-anchor="start" x="636.38" y="-344.5" font-family="Helvetica,sans-Serif" font-size="10.00">detail::json_sax_dom</text>
<text text-anchor="middle" x="682.5" y="-332.5" font-family="Helvetica,sans-Serif" font-size="10.00">_parser::start_array</text>
</a>
</g>
</g>
<!-- Node2&#45;&gt;Node40 -->
<g id="edge53" class="edge">
<title>Node2&#45;&gt;Node40</title>
<path fill="none" stroke="#63b8ff" d="M795.07,-634.48C793.02,-632.86 791.14,-631.04 789.5,-629 715.73,-537.5 827.6,-458.23 753.5,-367 749.03,-361.49 743.24,-357.19 736.92,-353.85"/>
<polygon fill="#63b8ff" stroke="#63b8ff" points="793.26,-637.47 803.63,-639.64 796.88,-631.48 793.26,-637.47"/>
</g>
<!-- Node41 -->
<g id="node41" class="node">
<title>Node41</title>
<g id="a_node41"><a xlink:href="classdetail_1_1json__sax__dom__callback__parser.html#a003acf2b06ffaf639bb6d34f5eb1695a" target="_top" xlink:title=" ">
<polygon fill="white" stroke="#666666" points="753.5,-308 611.5,-308 611.5,-276 753.5,-276 753.5,-308"/>
<text text-anchor="start" x="619.5" y="-294.5" font-family="Helvetica,sans-Serif" font-size="10.00">detail::json_sax_dom</text>
<text text-anchor="middle" x="682.5" y="-282.5" font-family="Helvetica,sans-Serif" font-size="10.00">_callback_parser::start_array</text>
</a>
</g>
</g>
<!-- Node2&#45;&gt;Node41 -->
<g id="edge54" class="edge">
<title>Node2&#45;&gt;Node41</title>
<path fill="none" stroke="#63b8ff" d="M795.02,-634.52C792.98,-632.89 791.12,-631.05 789.5,-629 703.07,-519.39 840.33,-426.3 753.5,-317 750.93,-313.77 747.91,-310.95 744.59,-308.5"/>
<polygon fill="#63b8ff" stroke="#63b8ff" points="793.18,-637.5 803.55,-639.71 796.82,-631.52 793.18,-637.5"/>
</g>
<!-- Node42 -->
<g id="node42" class="node">
<title>Node42</title>
<g id="a_node42"><a xlink:href="classdetail_1_1json__sax__dom__parser.html#a65c9afecd60c3774278a37efe4f34518" target="_top" xlink:title=" ">
<polygon fill="white" stroke="#666666" points="736.62,-258 628.38,-258 628.38,-226 736.62,-226 736.62,-258"/>
<text text-anchor="start" x="636.38" y="-244.5" font-family="Helvetica,sans-Serif" font-size="10.00">detail::json_sax_dom</text>
<text text-anchor="middle" x="682.5" y="-232.5" font-family="Helvetica,sans-Serif" font-size="10.00">_parser::start_object</text>
</a>
</g>
</g>
<!-- Node2&#45;&gt;Node42 -->
<g id="edge55" class="edge">
<title>Node2&#45;&gt;Node42</title>
<path fill="none" stroke="#63b8ff" d="M794.98,-634.55C792.95,-632.91 791.1,-631.07 789.5,-629 690.4,-501.25 853.07,-394.39 753.5,-267 749.13,-261.41 743.41,-257.06 737.11,-253.69"/>
<polygon fill="#63b8ff" stroke="#63b8ff" points="793.13,-637.52 803.48,-639.75 796.78,-631.55 793.13,-637.52"/>
</g>
<!-- Node43 -->
<g id="node43" class="node">
<title>Node43</title>
<g id="a_node43"><a xlink:href="classdetail_1_1json__sax__dom__callback__parser.html#ae6016c3811e0c22532a589caf470a21e" target="_top" xlink:title=" ">
<polygon fill="white" stroke="#666666" points="740,-208 625,-208 625,-164 740,-164 740,-208"/>
<text text-anchor="start" x="633" y="-194.5" font-family="Helvetica,sans-Serif" font-size="10.00">detail::json_sax_dom</text>
<text text-anchor="start" x="633" y="-182.5" font-family="Helvetica,sans-Serif" font-size="10.00">_callback_parser::start</text>
<text text-anchor="middle" x="682.5" y="-170.5" font-family="Helvetica,sans-Serif" font-size="10.00">_object</text>
</a>
</g>
</g>
<!-- Node2&#45;&gt;Node43 -->
<g id="edge56" class="edge">
<title>Node2&#45;&gt;Node43</title>
<path fill="none" stroke="#63b8ff" d="M795.52,-635.03C793.28,-633.27 791.24,-631.27 789.5,-629 733.6,-556.05 806.94,-291.77 753.5,-217 749.94,-212.03 745.41,-207.84 740.36,-204.32"/>
<polygon fill="#63b8ff" stroke="#63b8ff" points="793.31,-637.79 803.69,-639.93 796.91,-631.78 793.31,-637.79"/>
</g>
<!-- Node44 -->
<g id="node44" class="node">
<title>Node44</title>
<g id="a_node44"><a xlink:href="classbasic__json.html#ac1e32c91d5e641c25c52486341f5a9db" target="_top" xlink:title="exchanges the values">
<polygon fill="white" stroke="#666666" points="728.38,-146 636.62,-146 636.62,-126 728.38,-126 728.38,-146"/>
<text text-anchor="middle" x="682.5" y="-132.5" font-family="Helvetica,sans-Serif" font-size="10.00">basic_json::swap</text>
</a>
</g>
</g>
<!-- Node2&#45;&gt;Node44 -->
<g id="edge57" class="edge">
<title>Node2&#45;&gt;Node44</title>
<path fill="none" stroke="#63b8ff" d="M795.49,-635.05C793.25,-633.29 791.23,-631.28 789.5,-629 725.73,-544.79 820.81,-236.42 753.5,-155 747.16,-147.33 738.07,-142.59 728.53,-139.69"/>
<polygon fill="#63b8ff" stroke="#63b8ff" points="793.27,-637.8 803.64,-639.96 796.88,-631.8 793.27,-637.8"/>
</g>
<!-- Node45 -->
<g id="node45" class="node">
<title>Node45</title>
<g id="a_node45"><a xlink:href="classbasic__json.html#a4ea2b8cef5e4aba5b92d14e6ebe25936" target="_top" xlink:title="updates a JSON object from another object, overwriting existing keys">
<polygon fill="white" stroke="#666666" points="731.38,-108 633.62,-108 633.62,-88 731.38,-88 731.38,-108"/>
<text text-anchor="middle" x="682.5" y="-94.5" font-family="Helvetica,sans-Serif" font-size="10.00">basic_json::update</text>
</a>
</g>
</g>
<!-- Node2&#45;&gt;Node45 -->
<g id="edge58" class="edge">
<title>Node2&#45;&gt;Node45</title>
<path fill="none" stroke="#63b8ff" d="M795.47,-635.06C793.24,-633.29 791.22,-631.28 789.5,-629 720.9,-537.88 825.92,-205.11 753.5,-117 747.9,-110.19 740.13,-105.68 731.8,-102.73"/>
<polygon fill="#63b8ff" stroke="#63b8ff" points="793.25,-637.81 803.62,-639.98 796.87,-631.82 793.25,-637.81"/>
</g>
<!-- Node46 -->
<g id="node46" class="node">
<title>Node46</title>
<g id="a_node46"><a xlink:href="classbasic__json.html#a80c2436388fd16a1529ce9afce8229ef" target="_top" xlink:title="access specified object element with default value">
<polygon fill="white" stroke="#666666" points="728.38,-70 636.62,-70 636.62,-50 728.38,-50 728.38,-70"/>
<text text-anchor="middle" x="682.5" y="-56.5" font-family="Helvetica,sans-Serif" font-size="10.00">basic_json::value</text>
</a>
</g>
</g>
<!-- Node2&#45;&gt;Node46 -->
<g id="edge59" class="edge">
<title>Node2&#45;&gt;Node46</title>
<path fill="none" stroke="#63b8ff" d="M795.46,-635.07C793.23,-633.3 791.21,-631.29 789.5,-629 716.07,-530.97 831.05,-173.81 753.5,-79 747.2,-71.3 738.12,-66.54 728.58,-63.65"/>
<polygon fill="#63b8ff" stroke="#63b8ff" points="793.23,-637.82 803.6,-639.99 796.85,-631.82 793.23,-637.82"/>
</g>
<!-- Node47 -->
<g id="node47" class="node">
<title>Node47</title>
<g id="a_node47"><a xlink:href="classdetail_1_1binary__writer.html#a1aae361b7492825979cbb80245b9c0d6" target="_top" xlink:title=" ">
<polygon fill="white" stroke="#666666" points="732.88,-32 632.12,-32 632.12,0 732.88,0 732.88,-32"/>
<text text-anchor="start" x="640.12" y="-18.5" font-family="Helvetica,sans-Serif" font-size="10.00">detail::binary_writer</text>
<text text-anchor="middle" x="682.5" y="-6.5" font-family="Helvetica,sans-Serif" font-size="10.00">::write_bson</text>
</a>
</g>
</g>
<!-- Node2&#45;&gt;Node47 -->
<g id="edge60" class="edge">
<title>Node2&#45;&gt;Node47</title>
<path fill="none" stroke="#63b8ff" d="M795.45,-635.08C793.22,-633.31 791.21,-631.29 789.5,-629 711.23,-524.06 832.15,-145.65 753.5,-41 748.31,-34.09 741.04,-29.08 733.13,-25.46"/>
<polygon fill="#63b8ff" stroke="#63b8ff" points="793.22,-637.82 803.58,-640 796.84,-631.83 793.22,-637.82"/>
</g>
<!-- Node3&#45;&gt;Node4 -->
<g id="edge3" class="edge">
<title>Node3&#45;&gt;Node4</title>
<path fill="none" stroke="#63b8ff" d="M468.78,-1261.37C420.9,-1264.29 347.45,-1262.37 293,-1232 242.9,-1204.06 209.62,-1139.37 198.17,-1114.24"/>
<polygon fill="#63b8ff" stroke="#63b8ff" points="468.84,-1264.88 478.57,-1260.67 468.34,-1257.89 468.84,-1264.88"/>
</g>
<!-- Node5 -->
<g id="node5" class="node">
<title>Node5</title>
<g id="a_node5"><a xlink:href="classbasic__json.html#a145a004c0a2fa5be84b260ecc98ab5d9" target="_top" xlink:title="applies a JSON patch to a copy of the current object">
<polygon fill="white" stroke="#666666" points="92.5,-1114 0,-1114 0,-1094 92.5,-1094 92.5,-1114"/>
<text text-anchor="middle" x="46.25" y="-1100.5" font-family="Helvetica,sans-Serif" font-size="10.00">basic_json::patch</text>
</a>
</g>
</g>
<!-- Node4&#45;&gt;Node5 -->
<g id="edge4" class="edge">
<title>Node4&#45;&gt;Node5</title>
<path fill="none" stroke="#63b8ff" d="M117.08,-1104C108.79,-1104 100.55,-1104 92.78,-1104"/>
<polygon fill="#63b8ff" stroke="#63b8ff" points="116.86,-1107.5 126.86,-1104 116.86,-1100.5 116.86,-1107.5"/>
</g>
<!-- Node8 -->
<g id="node8" class="node">
<title>Node8</title>
<g id="a_node8"><a xlink:href="classdetail_1_1wide__string__input__adapter.html#a12c464bdf348096f8ac250fb8f415a42" target="_top" xlink:title=" ">
<polygon fill="white" stroke="#666666" points="409.12,-962 309.88,-962 309.88,-918 409.12,-918 409.12,-962"/>
<text text-anchor="start" x="317.88" y="-948.5" font-family="Helvetica,sans-Serif" font-size="10.00">detail::wide_string</text>
<text text-anchor="start" x="317.88" y="-936.5" font-family="Helvetica,sans-Serif" font-size="10.00">_input_adapter::get</text>
<text text-anchor="middle" x="359.5" y="-924.5" font-family="Helvetica,sans-Serif" font-size="10.00">_elements</text>
</a>
</g>
</g>
<!-- Node7&#45;&gt;Node8 -->
<g id="edge7" class="edge">
<title>Node7&#45;&gt;Node8</title>
<path fill="none" stroke="#63b8ff" d="M460.17,-960.28C443.54,-956.9 425.56,-953.24 409.51,-949.97"/>
<polygon fill="#63b8ff" stroke="#63b8ff" points="459.44,-963.71 469.94,-962.27 460.84,-956.85 459.44,-963.71"/>
</g>
<!-- Node9 -->
<g id="node9" class="node">
<title>Node9</title>
<g id="a_node9"><a xlink:href="namespacedetail.html#aa7b34bd54868366a47c9adad778867bc" target="_top" xlink:title=" ">
<polygon fill="white" stroke="#666666" points="411.38,-900 307.62,-900 307.62,-880 411.38,-880 411.38,-900"/>
<text text-anchor="middle" x="359.5" y="-886.5" font-family="Helvetica,sans-Serif" font-size="10.00">detail::input_adapter</text>
</a>
</g>
</g>
<!-- Node7&#45;&gt;Node9 -->
<g id="edge8" class="edge">
<title>Node7&#45;&gt;Node9</title>
<path fill="none" stroke="#63b8ff" d="M466.7,-950.14C465.09,-949.12 463.52,-948.08 462,-947 443.02,-933.54 445.87,-921.11 426,-909 420.44,-905.61 414.24,-902.8 407.95,-900.48"/>
<polygon fill="#63b8ff" stroke="#63b8ff" points="464.51,-952.92 474.93,-954.85 467.99,-946.84 464.51,-952.92"/>
</g>
<!-- Node11&#45;&gt;Node12 -->
<g id="edge11" class="edge">
<title>Node11&#45;&gt;Node12</title>
<path fill="none" stroke="#63b8ff" d="M462.84,-795.52C443.5,-799.58 422.05,-804.08 403.8,-807.91"/>
<polygon fill="#63b8ff" stroke="#63b8ff" points="463.4,-798.98 472.47,-793.5 461.96,-792.13 463.4,-798.98"/>
</g>
<!-- Node11&#45;&gt;Node14 -->
<g id="edge13" class="edge">
<title>Node11&#45;&gt;Node14</title>
<path fill="none" stroke="#63b8ff" d="M463.05,-772.52C446.92,-769.14 429.3,-765.44 413.28,-762.08"/>
<polygon fill="#63b8ff" stroke="#63b8ff" points="461.96,-775.87 472.47,-774.5 463.4,-769.02 461.96,-775.87"/>
</g>
<!-- Node13 -->
<g id="node13" class="node">
<title>Node13</title>
<g id="a_node13"><a xlink:href="structdetail_1_1from__json__fn.html#a98f7c5bf6d2857ac7281d2b0fd98a907" target="_top" xlink:title=" ">
<polygon fill="white" stroke="#666666" points="243.5,-833 142,-833 142,-801 243.5,-801 243.5,-833"/>
<text text-anchor="start" x="150" y="-819.5" font-family="Helvetica,sans-Serif" font-size="10.00">detail::from_json_fn</text>
<text text-anchor="middle" x="192.75" y="-807.5" font-family="Helvetica,sans-Serif" font-size="10.00">::operator()</text>
</a>
</g>
</g>
<!-- Node12&#45;&gt;Node13 -->
<g id="edge12" class="edge">
<title>Node12&#45;&gt;Node13</title>
<path fill="none" stroke="#63b8ff" d="M303.8,-817C284.42,-817 262.72,-817 243.75,-817"/>
<polygon fill="#63b8ff" stroke="#63b8ff" points="303.7,-820.5 313.7,-817 303.7,-813.5 303.7,-820.5"/>
</g>
<!-- Node15 -->
<g id="node15" class="node">
<title>Node15</title>
<g id="a_node15"><a xlink:href="namespacedetail.html#a4c4e5abfc7ef24404781b5d8662891c0" target="_top" xlink:title=" ">
<polygon fill="white" stroke="#666666" points="236.75,-761 148.75,-761 148.75,-741 236.75,-741 236.75,-761"/>
<text text-anchor="middle" x="192.75" y="-747.5" font-family="Helvetica,sans-Serif" font-size="10.00">detail::from_json</text>
</a>
</g>
</g>
<!-- Node14&#45;&gt;Node15 -->
<g id="edge14" class="edge">
<title>Node14&#45;&gt;Node15</title>
<path fill="none" stroke="#63b8ff" d="M294.47,-751C275.23,-751 254.58,-751 237.02,-751"/>
<polygon fill="#63b8ff" stroke="#63b8ff" points="294.41,-754.5 304.41,-751 294.41,-747.5 294.41,-754.5"/>
</g>
<!-- Node17 -->
<g id="node17" class="node">
<title>Node17</title>
<g id="a_node17"><a xlink:href="classjson__pointer.html#aba71e63e4032cfc46dd90aeb09e5cb0f" target="_top" xlink:title="return last reference token">
<polygon fill="white" stroke="#666666" points="407.25,-1038 311.75,-1038 311.75,-1018 407.25,-1018 407.25,-1038"/>
<text text-anchor="middle" x="359.5" y="-1024.5" font-family="Helvetica,sans-Serif" font-size="10.00">json_pointer::back</text>
</a>
</g>
</g>
<!-- Node16&#45;&gt;Node17 -->
<g id="edge16" class="edge">
<title>Node16&#45;&gt;Node17</title>
<path fill="none" stroke="#63b8ff" d="M456.5,-1024.34C440.23,-1024.96 422.92,-1025.62 407.54,-1026.21"/>
<polygon fill="#63b8ff" stroke="#63b8ff" points="456.19,-1027.85 466.05,-1023.97 455.92,-1020.86 456.19,-1027.85"/>
</g>
<!-- Node18 -->
<g id="node18" class="node">
<title>Node18</title>
<g id="a_node18"><a xlink:href="classjson__pointer.html#a662118b470c87a1b564946c2602c49ce" target="_top" xlink:title="remove last reference token">
<polygon fill="white" stroke="#666666" points="417.75,-1000 301.25,-1000 301.25,-980 417.75,-980 417.75,-1000"/>
<text text-anchor="middle" x="359.5" y="-986.5" font-family="Helvetica,sans-Serif" font-size="10.00">json_pointer::pop_back</text>
</a>
</g>
</g>
<!-- Node16&#45;&gt;Node18 -->
<g id="edge18" class="edge">
<title>Node16&#45;&gt;Node18</title>
<path fill="none" stroke="#63b8ff" d="M456.48,-1009.53C441.71,-1006.53 426.09,-1003.35 411.83,-1000.45"/>
<polygon fill="#63b8ff" stroke="#63b8ff" points="455.58,-1012.92 466.08,-1011.49 456.98,-1006.06 455.58,-1012.92"/>
</g>
<!-- Node17&#45;&gt;Node4 -->
<g id="edge17" class="edge">
<title>Node17&#45;&gt;Node4</title>
<path fill="none" stroke="#63b8ff" d="M316.85,-1042.33C308.86,-1045.34 300.61,-1048.63 293,-1052 263.83,-1064.92 231.3,-1082.63 211.69,-1093.68"/>
<polygon fill="#63b8ff" stroke="#63b8ff" points="317.91,-1045.67 326.09,-1038.93 315.5,-1039.1 317.91,-1045.67"/>
</g>
<!-- Node18&#45;&gt;Node4 -->
<g id="edge20" class="edge">
<title>Node18&#45;&gt;Node4</title>
<path fill="none" stroke="#63b8ff" d="M301.29,-1004.75C298.43,-1006.06 295.65,-1007.47 293,-1009 253.12,-1031.99 216.96,-1074.31 201.58,-1093.75"/>
<polygon fill="#63b8ff" stroke="#63b8ff" points="302.52,-1008.03 310.49,-1001.05 299.91,-1001.54 302.52,-1008.03"/>
</g>
<!-- Node19 -->
<g id="node19" class="node">
<title>Node19</title>
<g id="a_node19"><a xlink:href="classjson__pointer.html#aa03c0c1206e171342d27a4583258858b" target="_top" xlink:title="returns the parent of this JSON pointer">
<polygon fill="white" stroke="#666666" points="243.5,-1006 142,-1006 142,-974 243.5,-974 243.5,-1006"/>
<text text-anchor="start" x="150" y="-992.5" font-family="Helvetica,sans-Serif" font-size="10.00">json_pointer::parent</text>
<text text-anchor="middle" x="192.75" y="-980.5" font-family="Helvetica,sans-Serif" font-size="10.00">_pointer</text>
</a>
</g>
</g>
<!-- Node18&#45;&gt;Node19 -->
<g id="edge19" class="edge">
<title>Node18&#45;&gt;Node19</title>
<path fill="none" stroke="#63b8ff" d="M289.38,-990C274.13,-990 258.26,-990 243.94,-990"/>
<polygon fill="#63b8ff" stroke="#63b8ff" points="289.36,-993.5 299.36,-990 289.36,-986.5 289.36,-993.5"/>
</g>
<!-- Node24&#45;&gt;Node4 -->
<g id="edge26" class="edge">
<title>Node24&#45;&gt;Node4</title>
<path fill="none" stroke="#63b8ff" d="M460.7,-1104C403.77,-1104 316.49,-1104 257.36,-1104"/>
<polygon fill="#63b8ff" stroke="#63b8ff" points="460.5,-1107.5 470.5,-1104 460.5,-1100.5 460.5,-1107.5"/>
</g>
<!-- Node27&#45;&gt;Node4 -->
<g id="edge33" class="edge">
<title>Node27&#45;&gt;Node4</title>
<path fill="none" stroke="#63b8ff" d="M624.59,-1192.11C608.77,-1194.96 591.53,-1197.57 575.5,-1199 525.25,-1203.47 511.72,-1207.54 462,-1199 366.32,-1182.56 259.48,-1135.39 214.98,-1114.35"/>
<polygon fill="#63b8ff" stroke="#63b8ff" points="625.15,-1195.57 634.34,-1190.29 623.86,-1188.69 625.15,-1195.57"/>
</g>
<!-- Node28 -->
<g id="node28" class="node">
<title>Node28</title>
<g id="a_node28"><a xlink:href="classbasic__json.html#a940e724a2e8d5400ab772eb22af0387c" target="_top" xlink:title="creates a diff as a JSON patch">
<polygon fill="white" stroke="#666666" points="559.75,-1190 477.75,-1190 477.75,-1170 559.75,-1170 559.75,-1190"/>
<text text-anchor="middle" x="518.75" y="-1176.5" font-family="Helvetica,sans-Serif" font-size="10.00">basic_json::diff</text>
</a>
</g>
</g>
<!-- Node27&#45;&gt;Node28 -->
<g id="edge32" class="edge">
<title>Node27&#45;&gt;Node28</title>
<path fill="none" stroke="#63b8ff" d="M624.51,-1180C603.29,-1180 579.65,-1180 560.21,-1180"/>
<polygon fill="#63b8ff" stroke="#63b8ff" points="624.5,-1183.5 634.5,-1180 624.5,-1176.5 624.5,-1183.5"/>
</g>
<!-- Node30&#45;&gt;Node7 -->
<g id="edge36" class="edge">
<title>Node30&#45;&gt;Node7</title>
<path fill="none" stroke="#63b8ff" d="M646.15,-918.86C620.38,-929.69 585.48,-944.37 558.87,-955.55"/>
<polygon fill="#63b8ff" stroke="#63b8ff" points="647.32,-922.16 655.19,-915.06 644.61,-915.71 647.32,-922.16"/>
</g>
<!-- Node30&#45;&gt;Node10 -->
<g id="edge37" class="edge">
<title>Node30&#45;&gt;Node10</title>
<path fill="none" stroke="#63b8ff" d="M612.23,-911.71C599.18,-913.16 585.72,-914.66 573.24,-916.05"/>
<polygon fill="#63b8ff" stroke="#63b8ff" points="612.51,-915.2 622.06,-910.61 611.73,-908.24 612.51,-915.2"/>
</g>
<!-- Node30&#45;&gt;Node11 -->
<g id="edge38" class="edge">
<title>Node30&#45;&gt;Node11</title>
<path fill="none" stroke="#63b8ff" d="M658.21,-886.72C627.07,-863.62 572.28,-822.97 541.79,-800.35"/>
<polygon fill="#63b8ff" stroke="#63b8ff" points="656.1,-889.51 666.21,-892.66 660.27,-883.89 656.1,-889.51"/>
</g>
<!-- Node30&#45;&gt;Node16 -->
<g id="edge39" class="edge">
<title>Node30&#45;&gt;Node16</title>
<path fill="none" stroke="#63b8ff" d="M663.91,-922.44C643.91,-942.65 609.59,-975.11 575.5,-997 570.77,-1000.04 565.61,-1002.89 560.4,-1005.5"/>
<polygon fill="#63b8ff" stroke="#63b8ff" points="666.27,-925.03 670.74,-915.43 661.26,-920.15 666.27,-925.03"/>
</g>
<!-- Node30&#45;&gt;Node20 -->
<g id="edge40" class="edge">
<title>Node30&#45;&gt;Node20</title>
<path fill="none" stroke="#63b8ff" d="M617.73,-891.38C600.09,-887.89 581.31,-884.18 564.96,-880.95"/>
<polygon fill="#63b8ff" stroke="#63b8ff" points="616.56,-894.72 627.05,-893.23 617.92,-887.85 616.56,-894.72"/>
</g>
<!-- Node32&#45;&gt;Node4 -->
<g id="edge45" class="edge">
<title>Node32&#45;&gt;Node4</title>
<path fill="none" stroke="#63b8ff" d="M613.38,-1139.41C535.7,-1136.08 404.98,-1129.34 293,-1118 281.49,-1116.83 269.26,-1115.33 257.46,-1113.74"/>
<polygon fill="#63b8ff" stroke="#63b8ff" points="612.79,-1142.89 622.93,-1139.81 613.09,-1135.9 612.79,-1142.89"/>
</g>
<!-- Node32&#45;&gt;Node28 -->
<g id="edge44" class="edge">
<title>Node32&#45;&gt;Node28</title>
<path fill="none" stroke="#63b8ff" d="M625.85,-1155.07C604.24,-1160.15 579.96,-1165.85 560.08,-1170.52"/>
<polygon fill="#63b8ff" stroke="#63b8ff" points="626.47,-1158.52 635.4,-1152.83 624.86,-1151.71 626.47,-1158.52"/>
</g>
<!-- Node34 -->
<g id="node34" class="node">
<title>Node34</title>
<g id="a_node34"><a xlink:href="classbasic__json.html#a602b1c389d92f2c7db21f89bb6fb9817" target="_top" xlink:title=" ">
<polygon fill="white" stroke="#666666" points="575.5,-402 462,-402 462,-382 575.5,-382 575.5,-402"/>
<text text-anchor="middle" x="518.75" y="-388.5" font-family="Helvetica,sans-Serif" font-size="10.00">basic_json::sax_parse</text>
</a>
</g>
</g>
<!-- Node33&#45;&gt;Node34 -->
<g id="edge47" class="edge">
<title>Node33&#45;&gt;Node34</title>
<path fill="none" stroke="#63b8ff" d="M619.12,-392C604.9,-392 589.87,-392 575.93,-392"/>
<polygon fill="#63b8ff" stroke="#63b8ff" points="618.81,-395.5 628.81,-392 618.81,-388.5 618.81,-395.5"/>
</g>
<!-- Node35 -->
<g id="node35" class="node">
<title>Node35</title>
<g id="a_node35"><a xlink:href="classbasic__json.html#a59327f708c0555e2928487bcddf71293" target="_top" xlink:title="create a JSON value from an input in BJData format">
<polygon fill="white" stroke="#666666" points="419.25,-364 299.75,-364 299.75,-344 419.25,-344 419.25,-364"/>
<text text-anchor="middle" x="359.5" y="-350.5" font-family="Helvetica,sans-Serif" font-size="10.00">basic_json::from_bjdata</text>
</a>
</g>
</g>
<!-- Node34&#45;&gt;Node35 -->
<g id="edge48" class="edge">
<title>Node34&#45;&gt;Node35</title>
<path fill="none" stroke="#63b8ff" d="M463.2,-378.82C443.75,-374.12 422.12,-368.89 403.74,-364.45"/>
<polygon fill="#63b8ff" stroke="#63b8ff" points="462.35,-382.21 472.89,-381.16 464,-375.41 462.35,-382.21"/>
</g>
<!-- Node36 -->
<g id="node36" class="node">
<title>Node36</title>
<g id="a_node36"><a xlink:href="classbasic__json.html#a4b0dfca88b11ea59a2568707767622d8" target="_top" xlink:title="create a JSON value from an input in BSON format">
<polygon fill="white" stroke="#666666" points="416.62,-326 302.38,-326 302.38,-306 416.62,-306 416.62,-326"/>
<text text-anchor="middle" x="359.5" y="-312.5" font-family="Helvetica,sans-Serif" font-size="10.00">basic_json::from_bson</text>
</a>
</g>
</g>
<!-- Node34&#45;&gt;Node36 -->
<g id="edge49" class="edge">
<title>Node34&#45;&gt;Node36</title>
<path fill="none" stroke="#63b8ff" d="M494.45,-375.03C476.47,-362.56 450.6,-345.96 426,-335 418.75,-331.77 410.81,-328.93 403.04,-326.5"/>
<polygon fill="#63b8ff" stroke="#63b8ff" points="492.39,-377.85 502.57,-380.76 496.43,-372.14 492.39,-377.85"/>
</g>
<!-- Node37 -->
<g id="node37" class="node">
<title>Node37</title>
<g id="a_node37"><a xlink:href="classbasic__json.html#a5bc3c67eaf6e9b22c8b446f9695249e9" target="_top" xlink:title="create a JSON value from an input in CBOR format">
<polygon fill="white" stroke="#666666" points="415.5,-478 303.5,-478 303.5,-458 415.5,-458 415.5,-478"/>
<text text-anchor="middle" x="359.5" y="-464.5" font-family="Helvetica,sans-Serif" font-size="10.00">basic_json::from_cbor</text>
</a>
</g>
</g>
<!-- Node34&#45;&gt;Node37 -->
<g id="edge50" class="edge">
<title>Node34&#45;&gt;Node37</title>
<path fill="none" stroke="#63b8ff" d="M494.45,-408.97C476.47,-421.44 450.6,-438.04 426,-449 418.75,-452.23 410.81,-455.07 403.04,-457.5"/>
<polygon fill="#63b8ff" stroke="#63b8ff" points="496.43,-411.86 502.57,-403.24 492.39,-406.15 496.43,-411.86"/>
</g>
<!-- Node38 -->
<g id="node38" class="node">
<title>Node38</title>
<g id="a_node38"><a xlink:href="classbasic__json.html#ab0c025488572f913ca5529a2ef62d066" target="_top" xlink:title="create a JSON value from an input in MessagePack format">
<polygon fill="white" stroke="#666666" points="426,-440 293,-440 293,-420 426,-420 426,-440"/>
<text text-anchor="middle" x="359.5" y="-426.5" font-family="Helvetica,sans-Serif" font-size="10.00">basic_json::from_msgpack</text>
</a>
</g>
</g>
<!-- Node34&#45;&gt;Node38 -->
<g id="edge51" class="edge">
<title>Node34&#45;&gt;Node38</title>
<path fill="none" stroke="#63b8ff" d="M463.2,-405.18C443.75,-409.88 422.12,-415.11 403.74,-419.55"/>
<polygon fill="#63b8ff" stroke="#63b8ff" points="464,-408.59 472.89,-402.84 462.35,-401.79 464,-408.59"/>
</g>
<!-- Node39 -->
<g id="node39" class="node">
<title>Node39</title>
<g id="a_node39"><a xlink:href="classbasic__json.html#a4588941095d03624ada4f0023d93944a" target="_top" xlink:title="create a JSON value from an input in UBJSON format">
<polygon fill="white" stroke="#666666" points="420.38,-402 298.62,-402 298.62,-382 420.38,-382 420.38,-402"/>
<text text-anchor="middle" x="359.5" y="-388.5" font-family="Helvetica,sans-Serif" font-size="10.00">basic_json::from_ubjson</text>
</a>
</g>
</g>
<!-- Node34&#45;&gt;Node39 -->
<g id="edge52" class="edge">
<title>Node34&#45;&gt;Node39</title>
<path fill="none" stroke="#63b8ff" d="M450.43,-392C440.56,-392 430.45,-392 420.74,-392"/>
<polygon fill="#63b8ff" stroke="#63b8ff" points="450.35,-395.5 460.35,-392 450.35,-388.5 450.35,-395.5"/>
</g>
</g>
</svg>
