<?xml version="1.0" encoding="UTF-8" standalone="no"?>
<!DOCTYPE svg PUBLIC "-//W3C//DTD SVG 1.1//EN"
 "http://www.w3.org/Graphics/SVG/1.1/DTD/svg11.dtd">
<!-- Generated by graphviz version 12.2.1 (20241206.2353)
 -->
<!-- Title: src/scenes/SceneCombat.h Pages: 1 -->
<svg width="523pt" height="252pt"
 viewBox="0.00 0.00 522.75 252.00" xmlns="http://www.w3.org/2000/svg" xmlns:xlink="http://www.w3.org/1999/xlink">
<g id="graph0" class="graph" transform="scale(1 1) rotate(0) translate(4 248)">
<title>src/scenes/SceneCombat.h</title>
<!-- Node1 -->
<g id="node1" class="node">
<title>Node1</title>
<g id="a_node1"><a xlink:title=" ">
<polygon fill="#999999" stroke="#666666" points="279.24,-244 141.74,-244 141.74,-224 279.24,-224 279.24,-244"/>
<text text-anchor="middle" x="210.49" y="-230.5" font-family="Helvetica,sans-Serif" font-size="10.00">src/scenes/SceneCombat.h</text>
</a>
</g>
</g>
<!-- Node2 -->
<g id="node2" class="node">
<title>Node2</title>
<g id="a_node2"><a xlink:href="Scene_8h.html" target="_top" xlink:title=" ">
<polygon fill="white" stroke="#666666" points="75.49,-188 23.49,-188 23.49,-168 75.49,-168 75.49,-188"/>
<text text-anchor="middle" x="49.49" y="-174.5" font-family="Helvetica,sans-Serif" font-size="10.00">Scene.h</text>
</a>
</g>
</g>
<!-- Node1&#45;&gt;Node2 -->
<g id="edge1" class="edge">
<title>Node1&#45;&gt;Node2</title>
<path fill="none" stroke="#63b8ff" d="M182.45,-223.59C155.85,-214.67 115.71,-201.21 86.49,-191.41"/>
<polygon fill="#63b8ff" stroke="#63b8ff" points="87.91,-188.19 77.32,-188.33 85.69,-194.83 87.91,-188.19"/>
</g>
<!-- Node3 -->
<g id="node3" class="node">
<title>Node3</title>
<g id="a_node3"><a xlink:href="GameEngine_8h.html" target="_top" xlink:title=" ">
<polygon fill="white" stroke="#666666" points="163.74,-132 83.24,-132 83.24,-112 163.74,-112 163.74,-132"/>
<text text-anchor="middle" x="123.49" y="-118.5" font-family="Helvetica,sans-Serif" font-size="10.00">GameEngine.h</text>
</a>
</g>
</g>
<!-- Node1&#45;&gt;Node3 -->
<g id="edge10" class="edge">
<title>Node1&#45;&gt;Node3</title>
<path fill="none" stroke="#63b8ff" d="M203.08,-223.62C188.69,-205.44 156.79,-165.09 138.04,-141.38"/>
<polygon fill="#63b8ff" stroke="#63b8ff" points="140.78,-139.21 131.83,-133.54 135.29,-143.56 140.78,-139.21"/>
</g>
<!-- Node5 -->
<g id="node5" class="node">
<title>Node5</title>
<g id="a_node5"><a xlink:title=" ">
<polygon fill="#e0e0e0" stroke="#999999" points="261.12,-20 209.87,-20 209.87,0 261.12,0 261.12,-20"/>
<text text-anchor="middle" x="235.49" y="-6.5" font-family="Helvetica,sans-Serif" font-size="10.00">memory</text>
</a>
</g>
</g>
<!-- Node1&#45;&gt;Node5 -->
<g id="edge25" class="edge">
<title>Node1&#45;&gt;Node5</title>
<path fill="none" stroke="#63b8ff" d="M209.89,-223.66C208.4,-197.09 205.52,-118.97 218.49,-56 220.24,-47.53 223.36,-38.54 226.45,-30.85"/>
<polygon fill="#63b8ff" stroke="#63b8ff" points="229.61,-32.35 230.34,-21.78 223.18,-29.59 229.61,-32.35"/>
</g>
<!-- Node7 -->
<g id="node7" class="node">
<title>Node7</title>
<g id="a_node7"><a xlink:title=" ">
<polygon fill="#e0e0e0" stroke="#999999" points="261.87,-76 227.12,-76 227.12,-56 261.87,-56 261.87,-76"/>
<text text-anchor="middle" x="244.49" y="-62.5" font-family="Helvetica,sans-Serif" font-size="10.00">map</text>
</a>
</g>
</g>
<!-- Node1&#45;&gt;Node7 -->
<g id="edge26" class="edge">
<title>Node1&#45;&gt;Node7</title>
<path fill="none" stroke="#63b8ff" d="M212.42,-223.6C217.77,-197.46 232.93,-123.48 240.33,-87.36"/>
<polygon fill="#63b8ff" stroke="#63b8ff" points="243.71,-88.28 242.29,-77.78 236.85,-86.87 243.71,-88.28"/>
</g>
<!-- Node9 -->
<g id="node9" class="node">
<title>Node9</title>
<g id="a_node9"><a xlink:href="ManagerEntity_8h.html" target="_top" xlink:title=" ">
<polygon fill="white" stroke="#666666" points="419.37,-188 333.62,-188 333.62,-168 419.37,-168 419.37,-188"/>
<text text-anchor="middle" x="376.49" y="-174.5" font-family="Helvetica,sans-Serif" font-size="10.00">ManagerEntity.h</text>
</a>
</g>
</g>
<!-- Node1&#45;&gt;Node9 -->
<g id="edge11" class="edge">
<title>Node1&#45;&gt;Node9</title>
<path fill="none" stroke="#63b8ff" d="M239.41,-223.59C266.26,-214.86 306.49,-201.77 336.43,-192.03"/>
<polygon fill="#63b8ff" stroke="#63b8ff" points="337.49,-195.37 345.91,-188.95 335.32,-188.71 337.49,-195.37"/>
</g>
<!-- Node11 -->
<g id="node11" class="node">
<title>Node11</title>
<g id="a_node11"><a xlink:href="Components_8h.html" target="_top" xlink:title=" ">
<polygon fill="white" stroke="#666666" points="397.37,-76 317.62,-76 317.62,-56 397.37,-56 397.37,-76"/>
<text text-anchor="middle" x="357.49" y="-62.5" font-family="Helvetica,sans-Serif" font-size="10.00">Components.h</text>
</a>
</g>
</g>
<!-- Node1&#45;&gt;Node11 -->
<g id="edge24" class="edge">
<title>Node1&#45;&gt;Node11</title>
<path fill="none" stroke="#63b8ff" d="M218.82,-223.6C242.57,-196.78 310.94,-119.57 341.91,-84.6"/>
<polygon fill="#63b8ff" stroke="#63b8ff" points="344.25,-87.24 348.26,-77.43 339.01,-82.6 344.25,-87.24"/>
</g>
<!-- Node2&#45;&gt;Node2 -->
<g id="edge2" class="edge">
<title>Node2&#45;&gt;Node2</title>
<path fill="none" stroke="#63b8ff" d="M75.69,-188.48C85.46,-188.82 93.49,-185.33 93.49,-178 93.49,-173.88 90.95,-170.97 86.99,-169.27"/>
<polygon fill="#63b8ff" stroke="#63b8ff" points="87.61,-165.83 77.19,-167.76 86.54,-172.75 87.61,-165.83"/>
</g>
<!-- Node2&#45;&gt;Node3 -->
<g id="edge3" class="edge">
<title>Node2&#45;&gt;Node3</title>
<path fill="none" stroke="#63b8ff" d="M62.38,-167.59C73.21,-159.7 88.91,-148.24 101.68,-138.92"/>
<polygon fill="#63b8ff" stroke="#63b8ff" points="103.52,-141.91 109.53,-133.19 99.39,-136.26 103.52,-141.91"/>
</g>
<!-- Node4 -->
<g id="node4" class="node">
<title>Node4</title>
<g id="a_node4"><a xlink:title=" ">
<polygon fill="#e0e0e0" stroke="#999999" points="136.99,-20 33.99,-20 33.99,0 136.99,0 136.99,-20"/>
<text text-anchor="middle" x="85.49" y="-6.5" font-family="Helvetica,sans-Serif" font-size="10.00">SFML/Graphics.hpp</text>
</a>
</g>
</g>
<!-- Node2&#45;&gt;Node4 -->
<g id="edge8" class="edge">
<title>Node2&#45;&gt;Node4</title>
<path fill="none" stroke="#63b8ff" d="M34.51,-167.62C23.35,-159.67 8.97,-147.17 2.49,-132 -1,-123.83 -0.5,-120.37 2.49,-112 14.91,-77.35 44.9,-46.07 65.22,-27.8"/>
<polygon fill="#63b8ff" stroke="#63b8ff" points="67.39,-30.55 72.63,-21.34 62.79,-25.27 67.39,-30.55"/>
</g>
<!-- Node8 -->
<g id="node8" class="node">
<title>Node8</title>
<g id="a_node8"><a xlink:title=" ">
<polygon fill="#e0e0e0" stroke="#999999" points="65.24,-132 11.74,-132 11.74,-112 65.24,-112 65.24,-132"/>
<text text-anchor="middle" x="38.49" y="-118.5" font-family="Helvetica,sans-Serif" font-size="10.00">iostream</text>
</a>
</g>
</g>
<!-- Node2&#45;&gt;Node8 -->
<g id="edge9" class="edge">
<title>Node2&#45;&gt;Node8</title>
<path fill="none" stroke="#63b8ff" d="M47.58,-167.59C46.22,-160.93 44.35,-151.75 42.66,-143.44"/>
<polygon fill="#63b8ff" stroke="#63b8ff" points="46.12,-142.88 40.69,-133.78 39.26,-144.28 46.12,-142.88"/>
</g>
<!-- Node3&#45;&gt;Node4 -->
<g id="edge4" class="edge">
<title>Node3&#45;&gt;Node4</title>
<path fill="none" stroke="#63b8ff" d="M120.25,-111.62C114.11,-93.84 100.65,-54.88 92.4,-31"/>
<polygon fill="#63b8ff" stroke="#63b8ff" points="95.79,-30.09 89.22,-21.79 89.18,-32.38 95.79,-30.09"/>
</g>
<!-- Node3&#45;&gt;Node5 -->
<g id="edge5" class="edge">
<title>Node3&#45;&gt;Node5</title>
<path fill="none" stroke="#63b8ff" d="M124.71,-111.95C126.96,-98.32 132.96,-72.37 147.49,-56 161.17,-40.59 181.38,-29.74 198.98,-22.55"/>
<polygon fill="#63b8ff" stroke="#63b8ff" points="200,-25.91 208.11,-19.09 197.52,-19.37 200,-25.91"/>
</g>
<!-- Node6 -->
<g id="node6" class="node">
<title>Node6</title>
<g id="a_node6"><a xlink:title=" ">
<polygon fill="#e0e0e0" stroke="#999999" points="441.49,-20 401.49,-20 401.49,0 441.49,0 441.49,-20"/>
<text text-anchor="middle" x="421.49" y="-6.5" font-family="Helvetica,sans-Serif" font-size="10.00">string</text>
</a>
</g>
</g>
<!-- Node3&#45;&gt;Node6 -->
<g id="edge6" class="edge">
<title>Node3&#45;&gt;Node6</title>
<path fill="none" stroke="#63b8ff" d="M134.06,-111.66C150.77,-97.41 184.86,-70.37 218.49,-56 289.92,-25.49 314.07,-38.52 389.49,-20 389.73,-19.94 389.97,-19.88 390.21,-19.82"/>
<polygon fill="#63b8ff" stroke="#63b8ff" points="390.99,-23.24 399.77,-17.3 389.21,-16.47 390.99,-23.24"/>
</g>
<!-- Node3&#45;&gt;Node7 -->
<g id="edge7" class="edge">
<title>Node3&#45;&gt;Node7</title>
<path fill="none" stroke="#63b8ff" d="M144.57,-111.59C164.5,-102.7 194.53,-89.3 216.47,-79.51"/>
<polygon fill="#63b8ff" stroke="#63b8ff" points="217.72,-82.78 225.42,-75.51 214.86,-76.39 217.72,-82.78"/>
</g>
<!-- Node9&#45;&gt;Node6 -->
<g id="edge22" class="edge">
<title>Node9&#45;&gt;Node6</title>
<path fill="none" stroke="#63b8ff" d="M402.17,-167.56C435.7,-153.57 492.47,-123.73 512.49,-76 524.87,-46.5 483.62,-28.05 452.64,-18.64"/>
<polygon fill="#63b8ff" stroke="#63b8ff" points="453.85,-15.35 443.27,-15.99 451.94,-22.08 453.85,-15.35"/>
</g>
<!-- Node9&#45;&gt;Node7 -->
<g id="edge23" class="edge">
<title>Node9&#45;&gt;Node7</title>
<path fill="none" stroke="#63b8ff" d="M365.24,-167.62C342.83,-148.95 292.39,-106.92 264.31,-83.52"/>
<polygon fill="#63b8ff" stroke="#63b8ff" points="266.81,-81.04 256.88,-77.32 262.32,-86.41 266.81,-81.04"/>
</g>
<!-- Node10 -->
<g id="node10" class="node">
<title>Node10</title>
<g id="a_node10"><a xlink:href="Entity_8h.html" target="_top" xlink:title=" ">
<polygon fill="white" stroke="#666666" points="446.62,-132 398.37,-132 398.37,-112 446.62,-112 446.62,-132"/>
<text text-anchor="middle" x="422.49" y="-118.5" font-family="Helvetica,sans-Serif" font-size="10.00">Entity.h</text>
</a>
</g>
</g>
<!-- Node9&#45;&gt;Node10 -->
<g id="edge12" class="edge">
<title>Node9&#45;&gt;Node10</title>
<path fill="none" stroke="#63b8ff" d="M384.51,-167.59C390.77,-160.24 399.67,-149.8 407.28,-140.87"/>
<polygon fill="#63b8ff" stroke="#63b8ff" points="409.77,-143.33 413.59,-133.45 404.44,-138.79 409.77,-143.33"/>
</g>
<!-- Node14 -->
<g id="node14" class="node">
<title>Node14</title>
<g id="a_node14"><a xlink:title=" ">
<polygon fill="#e0e0e0" stroke="#999999" points="379.99,-132 336.99,-132 336.99,-112 379.99,-112 379.99,-132"/>
<text text-anchor="middle" x="358.49" y="-118.5" font-family="Helvetica,sans-Serif" font-size="10.00">vector</text>
</a>
</g>
</g>
<!-- Node9&#45;&gt;Node14 -->
<g id="edge21" class="edge">
<title>Node9&#45;&gt;Node14</title>
<path fill="none" stroke="#63b8ff" d="M373.36,-167.59C371.11,-160.86 368.01,-151.53 365.21,-143.15"/>
<polygon fill="#63b8ff" stroke="#63b8ff" points="368.56,-142.11 362.07,-133.73 361.91,-144.33 368.56,-142.11"/>
</g>
<!-- Node10&#45;&gt;Node5 -->
<g id="edge18" class="edge">
<title>Node10&#45;&gt;Node5</title>
<path fill="none" stroke="#63b8ff" d="M398.21,-114.15C374.3,-106.8 337.31,-93.73 308.49,-76 286.71,-62.59 265.28,-42.44 251.33,-28.14"/>
<polygon fill="#63b8ff" stroke="#63b8ff" points="254.15,-26.02 244.72,-21.19 249.08,-30.85 254.15,-26.02"/>
</g>
<!-- Node10&#45;&gt;Node6 -->
<g id="edge19" class="edge">
<title>Node10&#45;&gt;Node6</title>
<path fill="none" stroke="#63b8ff" d="M422.41,-111.62C422.25,-94.01 421.9,-55.59 421.68,-31.65"/>
<polygon fill="#63b8ff" stroke="#63b8ff" points="425.18,-31.84 421.59,-21.87 418.18,-31.9 425.18,-31.84"/>
</g>
<!-- Node10&#45;&gt;Node11 -->
<g id="edge13" class="edge">
<title>Node10&#45;&gt;Node11</title>
<path fill="none" stroke="#63b8ff" d="M411.17,-111.59C401.85,-103.85 388.42,-92.69 377.32,-83.47"/>
<polygon fill="#63b8ff" stroke="#63b8ff" points="379.78,-80.96 369.85,-77.27 375.31,-86.35 379.78,-80.96"/>
</g>
<!-- Node13 -->
<g id="node13" class="node">
<title>Node13</title>
<g id="a_node13"><a xlink:title=" ">
<polygon fill="#e0e0e0" stroke="#999999" points="503.37,-76 453.62,-76 453.62,-56 503.37,-56 503.37,-76"/>
<text text-anchor="middle" x="478.49" y="-62.5" font-family="Helvetica,sans-Serif" font-size="10.00">optional</text>
</a>
</g>
</g>
<!-- Node10&#45;&gt;Node13 -->
<g id="edge20" class="edge">
<title>Node10&#45;&gt;Node13</title>
<path fill="none" stroke="#63b8ff" d="M432.25,-111.59C440.12,-104.01 451.39,-93.13 460.84,-84.02"/>
<polygon fill="#63b8ff" stroke="#63b8ff" points="462.99,-86.81 467.76,-77.35 458.13,-81.77 462.99,-86.81"/>
</g>
<!-- Node11&#45;&gt;Node4 -->
<g id="edge15" class="edge">
<title>Node11&#45;&gt;Node4</title>
<path fill="none" stroke="#63b8ff" d="M317.36,-57.03C271.65,-47.96 196.55,-33.05 144.25,-22.66"/>
<polygon fill="#63b8ff" stroke="#63b8ff" points="145.1,-19.27 134.61,-20.75 143.74,-26.13 145.1,-19.27"/>
</g>
<!-- Node11&#45;&gt;Node5 -->
<g id="edge17" class="edge">
<title>Node11&#45;&gt;Node5</title>
<path fill="none" stroke="#63b8ff" d="M336.24,-55.59C317.2,-47.17 289.02,-34.69 267.29,-25.07"/>
<polygon fill="#63b8ff" stroke="#63b8ff" points="268.86,-21.94 258.3,-21.09 266.02,-28.34 268.86,-21.94"/>
</g>
<!-- Node11&#45;&gt;Node6 -->
<g id="edge14" class="edge">
<title>Node11&#45;&gt;Node6</title>
<path fill="none" stroke="#63b8ff" d="M368.64,-55.59C377.82,-47.85 391.05,-36.69 401.98,-27.47"/>
<polygon fill="#63b8ff" stroke="#63b8ff" points="403.93,-30.4 409.32,-21.27 399.42,-25.05 403.93,-30.4"/>
</g>
<!-- Node12 -->
<g id="node12" class="node">
<title>Node12</title>
<g id="a_node12"><a xlink:title=" ">
<polygon fill="#e0e0e0" stroke="#999999" points="380.87,-20 334.12,-20 334.12,0 380.87,0 380.87,-20"/>
<text text-anchor="middle" x="357.49" y="-6.5" font-family="Helvetica,sans-Serif" font-size="10.00">Vec2.h</text>
</a>
</g>
</g>
<!-- Node11&#45;&gt;Node12 -->
<g id="edge16" class="edge">
<title>Node11&#45;&gt;Node12</title>
<path fill="none" stroke="#63b8ff" d="M357.49,-55.59C357.49,-49.01 357.49,-39.96 357.49,-31.73"/>
<polygon fill="#63b8ff" stroke="#63b8ff" points="360.99,-31.81 357.49,-21.81 353.99,-31.81 360.99,-31.81"/>
</g>
</g>
</svg>
