<?xml version="1.0" encoding="UTF-8" standalone="no"?>
<!DOCTYPE svg PUBLIC "-//W3C//DTD SVG 1.1//EN"
 "http://www.w3.org/Graphics/SVG/1.1/DTD/svg11.dtd">
<!-- Generated by graphviz version 12.2.1 (20241206.2353)
 -->
<!-- Title: src/scenes/SceneMain.h Pages: 1 -->
<svg width="298pt" height="84pt"
 viewBox="0.00 0.00 298.00 84.00" xmlns="http://www.w3.org/2000/svg" xmlns:xlink="http://www.w3.org/1999/xlink">
<g id="graph0" class="graph" transform="scale(1 1) rotate(0) translate(4 80)">
<title>src/scenes/SceneMain.h</title>
<!-- Node1 -->
<g id="node1" class="node">
<title>Node1</title>
<g id="a_node1"><a xlink:title=" ">
<polygon fill="#999999" stroke="#666666" points="206.25,-76 82.25,-76 82.25,-56 206.25,-56 206.25,-76"/>
<text text-anchor="middle" x="144.25" y="-62.5" font-family="Helvetica,sans-Serif" font-size="10.00">src/scenes/SceneMain.h</text>
</a>
</g>
</g>
<!-- Node2 -->
<g id="node2" class="node">
<title>Node2</title>
<g id="a_node2"><a xlink:href="SceneMain_8cpp.html" target="_top" xlink:title=" ">
<polygon fill="white" stroke="#666666" points="134.5,-20 0,-20 0,0 134.5,0 134.5,-20"/>
<text text-anchor="middle" x="67.25" y="-6.5" font-family="Helvetica,sans-Serif" font-size="10.00">src/scenes/SceneMain.cpp</text>
</a>
</g>
</g>
<!-- Node1&#45;&gt;Node2 -->
<g id="edge1" class="edge">
<title>Node1&#45;&gt;Node2</title>
<path fill="none" stroke="#63b8ff" d="M121.43,-49C108.2,-39.72 91.99,-28.35 80.77,-20.48"/>
<polygon fill="#63b8ff" stroke="#63b8ff" points="119.4,-51.85 129.6,-54.72 123.42,-46.12 119.4,-51.85"/>
</g>
<!-- Node3 -->
<g id="node3" class="node">
<title>Node3</title>
<g id="a_node3"><a xlink:href="SceneMenu_8cpp.html" target="_top" xlink:title=" ">
<polygon fill="white" stroke="#666666" points="290,-20 152.5,-20 152.5,0 290,0 290,-20"/>
<text text-anchor="middle" x="221.25" y="-6.5" font-family="Helvetica,sans-Serif" font-size="10.00">src/scenes/SceneMenu.cpp</text>
</a>
</g>
</g>
<!-- Node1&#45;&gt;Node3 -->
<g id="edge2" class="edge">
<title>Node1&#45;&gt;Node3</title>
<path fill="none" stroke="#63b8ff" d="M167.07,-49C180.3,-39.72 196.51,-28.35 207.73,-20.48"/>
<polygon fill="#63b8ff" stroke="#63b8ff" points="165.08,-46.12 158.9,-54.72 169.1,-51.85 165.08,-46.12"/>
</g>
</g>
</svg>
