<?xml version="1.0" encoding="UTF-8" standalone="no"?>
<!DOCTYPE svg PUBLIC "-//W3C//DTD SVG 1.1//EN"
 "http://www.w3.org/Graphics/SVG/1.1/DTD/svg11.dtd">
<!-- Generated by graphviz version 12.2.1 (20241206.2353)
 -->
<!-- Title: src/scenes/SceneMenu.h Pages: 1 -->
<svg width="738pt" height="308pt"
 viewBox="0.00 0.00 737.66 308.00" xmlns="http://www.w3.org/2000/svg" xmlns:xlink="http://www.w3.org/1999/xlink">
<g id="graph0" class="graph" transform="scale(1 1) rotate(0) translate(4 304)">
<title>src/scenes/SceneMenu.h</title>
<!-- Node1 -->
<g id="node1" class="node">
<title>Node1</title>
<g id="a_node1"><a xlink:title=" ">
<polygon fill="#999999" stroke="#666666" points="272.5,-300 145.5,-300 145.5,-280 272.5,-280 272.5,-300"/>
<text text-anchor="middle" x="209" y="-286.5" font-family="Helvetica,sans-Serif" font-size="10.00">src/scenes/SceneMenu.h</text>
</a>
</g>
</g>
<!-- Node2 -->
<g id="node2" class="node">
<title>Node2</title>
<g id="a_node2"><a xlink:href="Scene_8h.html" target="_top" xlink:title=" ">
<polygon fill="white" stroke="#666666" points="235,-188 183,-188 183,-168 235,-168 235,-188"/>
<text text-anchor="middle" x="209" y="-174.5" font-family="Helvetica,sans-Serif" font-size="10.00">Scene.h</text>
</a>
</g>
</g>
<!-- Node1&#45;&gt;Node2 -->
<g id="edge1" class="edge">
<title>Node1&#45;&gt;Node2</title>
<path fill="none" stroke="#63b8ff" d="M209,-279.62C209,-262.01 209,-223.59 209,-199.65"/>
<polygon fill="#63b8ff" stroke="#63b8ff" points="212.5,-199.87 209,-189.87 205.5,-199.87 212.5,-199.87"/>
</g>
<!-- Node3 -->
<g id="node3" class="node">
<title>Node3</title>
<g id="a_node3"><a xlink:href="GameEngine_8h.html" target="_top" xlink:title=" ">
<polygon fill="white" stroke="#666666" points="116.25,-132 35.75,-132 35.75,-112 116.25,-112 116.25,-132"/>
<text text-anchor="middle" x="76" y="-118.5" font-family="Helvetica,sans-Serif" font-size="10.00">GameEngine.h</text>
</a>
</g>
</g>
<!-- Node1&#45;&gt;Node3 -->
<g id="edge10" class="edge">
<title>Node1&#45;&gt;Node3</title>
<path fill="none" stroke="#63b8ff" d="M183.81,-279.58C166.76,-272.13 144.74,-260.26 130,-244 103.18,-214.41 87.9,-169.31 80.85,-143.34"/>
<polygon fill="#63b8ff" stroke="#63b8ff" points="84.26,-142.58 78.4,-133.75 77.48,-144.31 84.26,-142.58"/>
</g>
<!-- Node4 -->
<g id="node4" class="node">
<title>Node4</title>
<g id="a_node4"><a xlink:title=" ">
<polygon fill="#e0e0e0" stroke="#999999" points="255.5,-20 152.5,-20 152.5,0 255.5,0 255.5,-20"/>
<text text-anchor="middle" x="204" y="-6.5" font-family="Helvetica,sans-Serif" font-size="10.00">SFML/Graphics.hpp</text>
</a>
</g>
</g>
<!-- Node1&#45;&gt;Node4 -->
<g id="edge33" class="edge">
<title>Node1&#45;&gt;Node4</title>
<path fill="none" stroke="#63b8ff" d="M145.16,-282.27C83.69,-271.83 0,-245.43 0,-179 0,-179 0,-179 0,-121 0,-56.08 81.04,-29.3 140.96,-18.37"/>
<polygon fill="#63b8ff" stroke="#63b8ff" points="141.49,-21.83 150.77,-16.7 140.32,-14.93 141.49,-21.83"/>
</g>
<!-- Node5 -->
<g id="node5" class="node">
<title>Node5</title>
<g id="a_node5"><a xlink:title=" ">
<polygon fill="#e0e0e0" stroke="#999999" points="355.62,-20 304.38,-20 304.38,0 355.62,0 355.62,-20"/>
<text text-anchor="middle" x="330" y="-6.5" font-family="Helvetica,sans-Serif" font-size="10.00">memory</text>
</a>
</g>
</g>
<!-- Node1&#45;&gt;Node5 -->
<g id="edge35" class="edge">
<title>Node1&#45;&gt;Node5</title>
<path fill="none" stroke="#63b8ff" d="M214.34,-279.71C224.35,-262.13 246.32,-222.64 262,-188 287.27,-132.18 311.74,-63.95 323.22,-30.88"/>
<polygon fill="#63b8ff" stroke="#63b8ff" points="326.4,-32.4 326.34,-21.8 319.78,-30.12 326.4,-32.4"/>
</g>
<!-- Node7 -->
<g id="node7" class="node">
<title>Node7</title>
<g id="a_node7"><a xlink:title=" ">
<polygon fill="#e0e0e0" stroke="#999999" points="176.38,-76 141.62,-76 141.62,-56 176.38,-56 176.38,-76"/>
<text text-anchor="middle" x="159" y="-62.5" font-family="Helvetica,sans-Serif" font-size="10.00">map</text>
</a>
</g>
</g>
<!-- Node1&#45;&gt;Node7 -->
<g id="edge34" class="edge">
<title>Node1&#45;&gt;Node7</title>
<path fill="none" stroke="#63b8ff" d="M205.04,-279.73C197.72,-262.16 182.07,-222.7 174,-188 165.91,-153.22 161.97,-111.74 160.22,-87.49"/>
<polygon fill="#63b8ff" stroke="#63b8ff" points="163.73,-87.48 159.58,-77.73 156.74,-87.94 163.73,-87.48"/>
</g>
<!-- Node9 -->
<g id="node9" class="node">
<title>Node9</title>
<g id="a_node9"><a xlink:href="SceneApprenticeship_8h.html" target="_top" xlink:title=" ">
<polygon fill="white" stroke="#666666" points="526.25,-244 409.75,-244 409.75,-224 526.25,-224 526.25,-244"/>
<text text-anchor="middle" x="468" y="-230.5" font-family="Helvetica,sans-Serif" font-size="10.00">SceneApprenticeship.h</text>
</a>
</g>
</g>
<!-- Node1&#45;&gt;Node9 -->
<g id="edge11" class="edge">
<title>Node1&#45;&gt;Node9</title>
<path fill="none" stroke="#63b8ff" d="M254.41,-279.53C298.1,-270.42 364.3,-256.62 411.4,-246.8"/>
<polygon fill="#63b8ff" stroke="#63b8ff" points="412.08,-250.23 421.16,-244.77 410.66,-243.38 412.08,-250.23"/>
</g>
<!-- Node12 -->
<g id="node12" class="node">
<title>Node12</title>
<g id="a_node12"><a xlink:href="Components_8h.html" target="_top" xlink:title=" ">
<polygon fill="white" stroke="#666666" points="437.88,-76 358.12,-76 358.12,-56 437.88,-56 437.88,-76"/>
<text text-anchor="middle" x="398" y="-62.5" font-family="Helvetica,sans-Serif" font-size="10.00">Components.h</text>
</a>
</g>
</g>
<!-- Node1&#45;&gt;Node12 -->
<g id="edge32" class="edge">
<title>Node1&#45;&gt;Node12</title>
<path fill="none" stroke="#63b8ff" d="M238.81,-279.52C258.06,-272.22 282.66,-260.55 300,-244 348.39,-197.8 379.02,-122.37 391.54,-86.78"/>
<polygon fill="#63b8ff" stroke="#63b8ff" points="394.69,-88.36 394.6,-77.77 388.07,-86.11 394.69,-88.36"/>
</g>
<!-- Node2&#45;&gt;Node2 -->
<g id="edge2" class="edge">
<title>Node2&#45;&gt;Node2</title>
<path fill="none" stroke="#63b8ff" d="M235.2,-188.48C244.96,-188.82 253,-185.33 253,-178 253,-173.88 250.46,-170.97 246.49,-169.27"/>
<polygon fill="#63b8ff" stroke="#63b8ff" points="247.11,-165.83 236.7,-167.76 246.04,-172.75 247.11,-165.83"/>
</g>
<!-- Node2&#45;&gt;Node3 -->
<g id="edge3" class="edge">
<title>Node2&#45;&gt;Node3</title>
<path fill="none" stroke="#63b8ff" d="M185.83,-167.59C164.79,-159.05 133.5,-146.35 109.7,-136.68"/>
<polygon fill="#63b8ff" stroke="#63b8ff" points="111.33,-133.57 100.75,-133.05 108.7,-140.05 111.33,-133.57"/>
</g>
<!-- Node2&#45;&gt;Node4 -->
<g id="edge8" class="edge">
<title>Node2&#45;&gt;Node4</title>
<path fill="none" stroke="#63b8ff" d="M206.86,-167.76C204.89,-158.7 202.1,-144.49 201,-132 197.9,-96.87 200.16,-55.79 202.08,-31.67"/>
<polygon fill="#63b8ff" stroke="#63b8ff" points="205.54,-32.21 202.91,-21.94 198.57,-31.61 205.54,-32.21"/>
</g>
<!-- Node8 -->
<g id="node8" class="node">
<title>Node8</title>
<g id="a_node8"><a xlink:title=" ">
<polygon fill="#e0e0e0" stroke="#999999" points="263.75,-132 210.25,-132 210.25,-112 263.75,-112 263.75,-132"/>
<text text-anchor="middle" x="237" y="-118.5" font-family="Helvetica,sans-Serif" font-size="10.00">iostream</text>
</a>
</g>
</g>
<!-- Node2&#45;&gt;Node8 -->
<g id="edge9" class="edge">
<title>Node2&#45;&gt;Node8</title>
<path fill="none" stroke="#63b8ff" d="M213.88,-167.59C217.49,-160.63 222.54,-150.89 227,-142.29"/>
<polygon fill="#63b8ff" stroke="#63b8ff" points="229.99,-144.13 231.48,-133.64 223.77,-140.91 229.99,-144.13"/>
</g>
<!-- Node3&#45;&gt;Node4 -->
<g id="edge4" class="edge">
<title>Node3&#45;&gt;Node4</title>
<path fill="none" stroke="#63b8ff" d="M69.79,-111.65C61.63,-98.09 49.73,-72.77 62,-56 80.14,-31.22 112,-19.75 140.95,-14.57"/>
<polygon fill="#63b8ff" stroke="#63b8ff" points="141.44,-18.03 150.79,-13.05 140.38,-11.12 141.44,-18.03"/>
</g>
<!-- Node3&#45;&gt;Node5 -->
<g id="edge5" class="edge">
<title>Node3&#45;&gt;Node5</title>
<path fill="none" stroke="#63b8ff" d="M76.63,-111.87C78.12,-97.65 83.14,-70.35 100,-56 114.55,-43.61 231.64,-25.17 292.91,-16.23"/>
<polygon fill="#63b8ff" stroke="#63b8ff" points="293.13,-19.74 302.52,-14.84 292.13,-12.81 293.13,-19.74"/>
</g>
<!-- Node6 -->
<g id="node6" class="node">
<title>Node6</title>
<g id="a_node6"><a xlink:title=" ">
<polygon fill="#e0e0e0" stroke="#999999" points="524,-20 484,-20 484,0 524,0 524,-20"/>
<text text-anchor="middle" x="504" y="-6.5" font-family="Helvetica,sans-Serif" font-size="10.00">string</text>
</a>
</g>
</g>
<!-- Node3&#45;&gt;Node6 -->
<g id="edge6" class="edge">
<title>Node3&#45;&gt;Node6</title>
<path fill="none" stroke="#63b8ff" d="M81.19,-111.53C89.82,-96.83 108.58,-68.89 133,-56 250.59,6.08 298,-36.03 430,-20 443.87,-18.32 459.2,-16.45 472.29,-14.86"/>
<polygon fill="#63b8ff" stroke="#63b8ff" points="472.58,-18.35 482.08,-13.67 471.73,-11.4 472.58,-18.35"/>
</g>
<!-- Node3&#45;&gt;Node7 -->
<g id="edge7" class="edge">
<title>Node3&#45;&gt;Node7</title>
<path fill="none" stroke="#63b8ff" d="M90.46,-111.59C102.76,-103.59 120.68,-91.93 135.11,-82.54"/>
<polygon fill="#63b8ff" stroke="#63b8ff" points="136.69,-85.69 143.16,-77.3 132.87,-79.82 136.69,-85.69"/>
</g>
<!-- Node9&#45;&gt;Node2 -->
<g id="edge28" class="edge">
<title>Node9&#45;&gt;Node2</title>
<path fill="none" stroke="#63b8ff" d="M422.59,-223.53C372.57,-213.1 293.06,-196.53 246.46,-186.81"/>
<polygon fill="#63b8ff" stroke="#63b8ff" points="247.35,-183.42 236.84,-184.8 245.92,-190.27 247.35,-183.42"/>
</g>
<!-- Node9&#45;&gt;Node4 -->
<g id="edge31" class="edge">
<title>Node9&#45;&gt;Node4</title>
<path fill="none" stroke="#63b8ff" d="M456.99,-223.74C416.57,-189.75 275.97,-71.52 223.73,-27.6"/>
<polygon fill="#63b8ff" stroke="#63b8ff" points="226.12,-25.03 216.21,-21.27 221.61,-30.38 226.12,-25.03"/>
</g>
<!-- Node10 -->
<g id="node10" class="node">
<title>Node10</title>
<g id="a_node10"><a xlink:href="Actions_8h.html" target="_top" xlink:title=" ">
<polygon fill="white" stroke="#666666" points="729.62,-76 672.38,-76 672.38,-56 729.62,-56 729.62,-76"/>
<text text-anchor="middle" x="701" y="-62.5" font-family="Helvetica,sans-Serif" font-size="10.00">Actions.h</text>
</a>
</g>
</g>
<!-- Node9&#45;&gt;Node10 -->
<g id="edge12" class="edge">
<title>Node9&#45;&gt;Node10</title>
<path fill="none" stroke="#63b8ff" d="M526.48,-230.81C592.31,-226.97 693.2,-216.49 717,-188 740.91,-159.39 724.39,-112.94 711.72,-86.7"/>
<polygon fill="#63b8ff" stroke="#63b8ff" points="714.86,-85.15 707.19,-77.84 708.63,-88.34 714.86,-85.15"/>
</g>
<!-- Node11 -->
<g id="node11" class="node">
<title>Node11</title>
<g id="a_node11"><a xlink:href="Entity_8h.html" target="_top" xlink:title=" ">
<polygon fill="white" stroke="#666666" points="520.12,-132 471.88,-132 471.88,-112 520.12,-112 520.12,-132"/>
<text text-anchor="middle" x="496" y="-118.5" font-family="Helvetica,sans-Serif" font-size="10.00">Entity.h</text>
</a>
</g>
</g>
<!-- Node9&#45;&gt;Node11 -->
<g id="edge14" class="edge">
<title>Node9&#45;&gt;Node11</title>
<path fill="none" stroke="#63b8ff" d="M470.39,-223.62C474.89,-205.92 484.74,-167.24 490.83,-143.32"/>
<polygon fill="#63b8ff" stroke="#63b8ff" points="494.17,-144.38 493.25,-133.82 487.39,-142.65 494.17,-144.38"/>
</g>
<!-- Node9&#45;&gt;Node12 -->
<g id="edge30" class="edge">
<title>Node9&#45;&gt;Node12</title>
<path fill="none" stroke="#63b8ff" d="M464.04,-223.6C452.97,-197.35 421.55,-122.84 406.39,-86.89"/>
<polygon fill="#63b8ff" stroke="#63b8ff" points="409.62,-85.55 402.51,-77.69 403.17,-88.27 409.62,-85.55"/>
</g>
<!-- Node15 -->
<g id="node15" class="node">
<title>Node15</title>
<g id="a_node15"><a xlink:href="ManagerEntity_8h.html" target="_top" xlink:title=" ">
<polygon fill="white" stroke="#666666" points="595.88,-188 510.12,-188 510.12,-168 595.88,-168 595.88,-188"/>
<text text-anchor="middle" x="553" y="-174.5" font-family="Helvetica,sans-Serif" font-size="10.00">ManagerEntity.h</text>
</a>
</g>
</g>
<!-- Node9&#45;&gt;Node15 -->
<g id="edge23" class="edge">
<title>Node9&#45;&gt;Node15</title>
<path fill="none" stroke="#63b8ff" d="M482.81,-223.59C495.4,-215.59 513.75,-203.93 528.53,-194.54"/>
<polygon fill="#63b8ff" stroke="#63b8ff" points="530.24,-197.61 536.8,-189.29 526.48,-191.7 530.24,-197.61"/>
</g>
<!-- Node17 -->
<g id="node17" class="node">
<title>Node17</title>
<g id="a_node17"><a xlink:title=" ">
<polygon fill="#e0e0e0" stroke="#999999" points="708,-188 614,-188 614,-168 708,-168 708,-188"/>
<text text-anchor="middle" x="661" y="-174.5" font-family="Helvetica,sans-Serif" font-size="10.00">StructsDialogue.h</text>
</a>
</g>
</g>
<!-- Node9&#45;&gt;Node17 -->
<g id="edge29" class="edge">
<title>Node9&#45;&gt;Node17</title>
<path fill="none" stroke="#63b8ff" d="M501.62,-223.59C533.39,-214.71 581.26,-201.31 616.25,-191.52"/>
<polygon fill="#63b8ff" stroke="#63b8ff" points="616.97,-194.95 625.66,-188.89 615.09,-188.21 616.97,-194.95"/>
</g>
<!-- Node10&#45;&gt;Node6 -->
<g id="edge13" class="edge">
<title>Node10&#45;&gt;Node6</title>
<path fill="none" stroke="#63b8ff" d="M671.93,-57.03C635.36,-47.01 572.82,-29.86 535.25,-19.57"/>
<polygon fill="#63b8ff" stroke="#63b8ff" points="536.48,-16.27 525.91,-17.01 534.63,-23.03 536.48,-16.27"/>
</g>
<!-- Node11&#45;&gt;Node5 -->
<g id="edge20" class="edge">
<title>Node11&#45;&gt;Node5</title>
<path fill="none" stroke="#63b8ff" d="M491.23,-111.73C483.64,-97.8 467.54,-71.48 447,-56 433.94,-46.15 395.89,-32.36 366.69,-22.64"/>
<polygon fill="#63b8ff" stroke="#63b8ff" points="368.03,-19.4 357.44,-19.61 365.85,-26.05 368.03,-19.4"/>
</g>
<!-- Node11&#45;&gt;Node6 -->
<g id="edge21" class="edge">
<title>Node11&#45;&gt;Node6</title>
<path fill="none" stroke="#63b8ff" d="M496.68,-111.62C497.96,-94.01 500.76,-55.59 502.5,-31.65"/>
<polygon fill="#63b8ff" stroke="#63b8ff" points="505.98,-32.09 503.21,-21.86 498.99,-31.58 505.98,-32.09"/>
</g>
<!-- Node11&#45;&gt;Node12 -->
<g id="edge15" class="edge">
<title>Node11&#45;&gt;Node12</title>
<path fill="none" stroke="#63b8ff" d="M478.93,-111.59C464.12,-103.44 442.43,-91.48 425.23,-82"/>
<polygon fill="#63b8ff" stroke="#63b8ff" points="426.98,-78.97 416.53,-77.21 423.6,-85.1 426.98,-78.97"/>
</g>
<!-- Node14 -->
<g id="node14" class="node">
<title>Node14</title>
<g id="a_node14"><a xlink:title=" ">
<polygon fill="#e0e0e0" stroke="#999999" points="581.88,-76 532.12,-76 532.12,-56 581.88,-56 581.88,-76"/>
<text text-anchor="middle" x="557" y="-62.5" font-family="Helvetica,sans-Serif" font-size="10.00">optional</text>
</a>
</g>
</g>
<!-- Node11&#45;&gt;Node14 -->
<g id="edge22" class="edge">
<title>Node11&#45;&gt;Node14</title>
<path fill="none" stroke="#63b8ff" d="M506.63,-111.59C515.28,-103.93 527.73,-92.91 538.08,-83.75"/>
<polygon fill="#63b8ff" stroke="#63b8ff" points="540.2,-86.55 545.36,-77.3 535.56,-81.31 540.2,-86.55"/>
</g>
<!-- Node12&#45;&gt;Node4 -->
<g id="edge17" class="edge">
<title>Node12&#45;&gt;Node4</title>
<path fill="none" stroke="#63b8ff" d="M364.21,-55.59C332.27,-46.71 284.15,-33.31 248.98,-23.52"/>
<polygon fill="#63b8ff" stroke="#63b8ff" points="250.09,-20.2 239.51,-20.89 248.21,-26.94 250.09,-20.2"/>
</g>
<!-- Node12&#45;&gt;Node5 -->
<g id="edge19" class="edge">
<title>Node12&#45;&gt;Node5</title>
<path fill="none" stroke="#63b8ff" d="M386.16,-55.59C376.31,-47.77 362.07,-36.46 350.39,-27.19"/>
<polygon fill="#63b8ff" stroke="#63b8ff" points="352.9,-24.72 342.89,-21.24 348.55,-30.2 352.9,-24.72"/>
</g>
<!-- Node12&#45;&gt;Node6 -->
<g id="edge16" class="edge">
<title>Node12&#45;&gt;Node6</title>
<path fill="none" stroke="#63b8ff" d="M416.46,-55.59C432.7,-47.32 456.61,-35.14 475.33,-25.6"/>
<polygon fill="#63b8ff" stroke="#63b8ff" points="476.72,-28.82 484.04,-21.17 473.54,-22.59 476.72,-28.82"/>
</g>
<!-- Node13 -->
<g id="node13" class="node">
<title>Node13</title>
<g id="a_node13"><a xlink:title=" ">
<polygon fill="#e0e0e0" stroke="#999999" points="421.38,-20 374.62,-20 374.62,0 421.38,0 421.38,-20"/>
<text text-anchor="middle" x="398" y="-6.5" font-family="Helvetica,sans-Serif" font-size="10.00">Vec2.h</text>
</a>
</g>
</g>
<!-- Node12&#45;&gt;Node13 -->
<g id="edge18" class="edge">
<title>Node12&#45;&gt;Node13</title>
<path fill="none" stroke="#63b8ff" d="M398,-55.59C398,-49.01 398,-39.96 398,-31.73"/>
<polygon fill="#63b8ff" stroke="#63b8ff" points="401.5,-31.81 398,-21.81 394.5,-31.81 401.5,-31.81"/>
</g>
<!-- Node15&#45;&gt;Node6 -->
<g id="edge26" class="edge">
<title>Node15&#45;&gt;Node6</title>
<path fill="none" stroke="#63b8ff" d="M564.44,-167.65C573.59,-159.38 585.73,-146.4 591,-132 602.6,-100.28 608.56,-84.85 591,-56 578.95,-36.21 555.08,-24.74 535.39,-18.33"/>
<polygon fill="#63b8ff" stroke="#63b8ff" points="536.43,-14.99 525.85,-15.55 534.47,-21.71 536.43,-14.99"/>
</g>
<!-- Node15&#45;&gt;Node7 -->
<g id="edge27" class="edge">
<title>Node15&#45;&gt;Node7</title>
<path fill="none" stroke="#63b8ff" d="M519.07,-167.53C442.68,-146.2 258.39,-94.75 187.47,-74.95"/>
<polygon fill="#63b8ff" stroke="#63b8ff" points="188.75,-71.67 178.18,-72.35 186.87,-78.41 188.75,-71.67"/>
</g>
<!-- Node15&#45;&gt;Node11 -->
<g id="edge24" class="edge">
<title>Node15&#45;&gt;Node11</title>
<path fill="none" stroke="#63b8ff" d="M543.07,-167.59C535.06,-160.01 523.58,-149.13 513.97,-140.02"/>
<polygon fill="#63b8ff" stroke="#63b8ff" points="516.58,-137.68 506.91,-133.34 511.77,-142.76 516.58,-137.68"/>
</g>
<!-- Node16 -->
<g id="node16" class="node">
<title>Node16</title>
<g id="a_node16"><a xlink:title=" ">
<polygon fill="#e0e0e0" stroke="#999999" points="581.5,-132 538.5,-132 538.5,-112 581.5,-112 581.5,-132"/>
<text text-anchor="middle" x="560" y="-118.5" font-family="Helvetica,sans-Serif" font-size="10.00">vector</text>
</a>
</g>
</g>
<!-- Node15&#45;&gt;Node16 -->
<g id="edge25" class="edge">
<title>Node15&#45;&gt;Node16</title>
<path fill="none" stroke="#63b8ff" d="M554.22,-167.59C555.08,-160.93 556.27,-151.75 557.35,-143.44"/>
<polygon fill="#63b8ff" stroke="#63b8ff" points="560.79,-144.17 558.6,-133.8 553.84,-143.27 560.79,-144.17"/>
</g>
</g>
</svg>
