<?xml version="1.0" encoding="UTF-8" standalone="no"?>
<!DOCTYPE svg PUBLIC "-//W3C//DTD SVG 1.1//EN"
 "http://www.w3.org/Graphics/SVG/1.1/DTD/svg11.dtd">
<!-- Generated by graphviz version 12.2.1 (20241206.2353)
 -->
<!-- Title: src/scenes/Scene.cpp Pages: 1 -->
<svg width="291pt" height="196pt"
 viewBox="0.00 0.00 291.12 196.00" xmlns="http://www.w3.org/2000/svg" xmlns:xlink="http://www.w3.org/1999/xlink">
<g id="graph0" class="graph" transform="scale(1 1) rotate(0) translate(4 192)">
<title>src/scenes/Scene.cpp</title>
<!-- Node1 -->
<g id="node1" class="node">
<title>Node1</title>
<g id="a_node1"><a xlink:title=" ">
<polygon fill="#999999" stroke="#666666" points="274.38,-188 160.88,-188 160.88,-168 274.38,-168 274.38,-188"/>
<text text-anchor="middle" x="217.62" y="-174.5" font-family="Helvetica,sans-Serif" font-size="10.00">src/scenes/Scene.cpp</text>
</a>
</g>
</g>
<!-- Node2 -->
<g id="node2" class="node">
<title>Node2</title>
<g id="a_node2"><a xlink:href="Scene_8h.html" target="_top" xlink:title=" ">
<polygon fill="white" stroke="#666666" points="207.62,-132 155.62,-132 155.62,-112 207.62,-112 207.62,-132"/>
<text text-anchor="middle" x="181.62" y="-118.5" font-family="Helvetica,sans-Serif" font-size="10.00">Scene.h</text>
</a>
</g>
</g>
<!-- Node1&#45;&gt;Node2 -->
<g id="edge1" class="edge">
<title>Node1&#45;&gt;Node2</title>
<path fill="none" stroke="#63b8ff" d="M211.35,-167.59C206.61,-160.47 199.93,-150.45 194.1,-141.72"/>
<polygon fill="#63b8ff" stroke="#63b8ff" points="197.12,-139.94 188.66,-133.56 191.3,-143.82 197.12,-139.94"/>
</g>
<!-- Node3 -->
<g id="node3" class="node">
<title>Node3</title>
<g id="a_node3"><a xlink:href="GameEngine_8h.html" target="_top" xlink:title=" ">
<polygon fill="white" stroke="#666666" points="156.88,-76 76.38,-76 76.38,-56 156.88,-56 156.88,-76"/>
<text text-anchor="middle" x="116.62" y="-62.5" font-family="Helvetica,sans-Serif" font-size="10.00">GameEngine.h</text>
</a>
</g>
</g>
<!-- Node1&#45;&gt;Node3 -->
<g id="edge10" class="edge">
<title>Node1&#45;&gt;Node3</title>
<path fill="none" stroke="#63b8ff" d="M196.37,-167.61C180.92,-159.9 160.37,-147.7 146.62,-132 135.23,-118.98 127.35,-100.9 122.54,-87.11"/>
<polygon fill="#63b8ff" stroke="#63b8ff" points="125.94,-86.23 119.55,-77.78 119.27,-88.37 125.94,-86.23"/>
</g>
<!-- Node4 -->
<g id="node4" class="node">
<title>Node4</title>
<g id="a_node4"><a xlink:title=" ">
<polygon fill="#e0e0e0" stroke="#999999" points="283.12,-20 180.12,-20 180.12,0 283.12,0 283.12,-20"/>
<text text-anchor="middle" x="231.62" y="-6.5" font-family="Helvetica,sans-Serif" font-size="10.00">SFML/Graphics.hpp</text>
</a>
</g>
</g>
<!-- Node1&#45;&gt;Node4 -->
<g id="edge11" class="edge">
<title>Node1&#45;&gt;Node4</title>
<path fill="none" stroke="#63b8ff" d="M225.83,-167.55C239.84,-150.62 267.66,-113.38 275.62,-76 277.48,-67.31 278.98,-64.23 275.62,-56 271.09,-44.89 262.35,-35.02 253.84,-27.39"/>
<polygon fill="#63b8ff" stroke="#63b8ff" points="256.35,-24.92 246.42,-21.24 251.89,-30.31 256.35,-24.92"/>
</g>
<!-- Node8 -->
<g id="node8" class="node">
<title>Node8</title>
<g id="a_node8"><a xlink:title=" ">
<polygon fill="#e0e0e0" stroke="#999999" points="266.38,-76 212.88,-76 212.88,-56 266.38,-56 266.38,-76"/>
<text text-anchor="middle" x="239.62" y="-62.5" font-family="Helvetica,sans-Serif" font-size="10.00">iostream</text>
</a>
</g>
</g>
<!-- Node1&#45;&gt;Node8 -->
<g id="edge12" class="edge">
<title>Node1&#45;&gt;Node8</title>
<path fill="none" stroke="#63b8ff" d="M222.08,-167.59C226.1,-158.65 231.79,-144.72 234.62,-132 237.87,-117.42 239.1,-100.59 239.53,-87.71"/>
<polygon fill="#63b8ff" stroke="#63b8ff" points="243.02,-87.95 239.71,-77.89 236.02,-87.83 243.02,-87.95"/>
</g>
<!-- Node2&#45;&gt;Node2 -->
<g id="edge2" class="edge">
<title>Node2&#45;&gt;Node2</title>
<path fill="none" stroke="#63b8ff" d="M207.82,-132.48C217.59,-132.82 225.62,-129.33 225.62,-122 225.62,-117.88 223.08,-114.97 219.12,-113.27"/>
<polygon fill="#63b8ff" stroke="#63b8ff" points="219.74,-109.83 209.32,-111.76 218.67,-116.75 219.74,-109.83"/>
</g>
<!-- Node2&#45;&gt;Node3 -->
<g id="edge3" class="edge">
<title>Node2&#45;&gt;Node3</title>
<path fill="none" stroke="#63b8ff" d="M170.3,-111.59C160.98,-103.85 147.55,-92.69 136.45,-83.47"/>
<polygon fill="#63b8ff" stroke="#63b8ff" points="138.91,-80.96 128.98,-77.27 134.44,-86.35 138.91,-80.96"/>
</g>
<!-- Node2&#45;&gt;Node4 -->
<g id="edge8" class="edge">
<title>Node2&#45;&gt;Node4</title>
<path fill="none" stroke="#63b8ff" d="M183.98,-111.91C187.47,-99.11 194.56,-75.17 203.62,-56 207.89,-46.98 213.57,-37.52 218.69,-29.62"/>
<polygon fill="#63b8ff" stroke="#63b8ff" points="221.44,-31.8 224.11,-21.55 215.63,-27.9 221.44,-31.8"/>
</g>
<!-- Node2&#45;&gt;Node8 -->
<g id="edge9" class="edge">
<title>Node2&#45;&gt;Node8</title>
<path fill="none" stroke="#63b8ff" d="M191.73,-111.59C199.88,-104.01 211.56,-93.13 221.34,-84.02"/>
<polygon fill="#63b8ff" stroke="#63b8ff" points="223.6,-86.71 228.53,-77.33 218.83,-81.58 223.6,-86.71"/>
</g>
<!-- Node3&#45;&gt;Node4 -->
<g id="edge4" class="edge">
<title>Node3&#45;&gt;Node4</title>
<path fill="none" stroke="#63b8ff" d="M136.66,-55.59C154.44,-47.24 180.69,-34.92 201.09,-25.34"/>
<polygon fill="#63b8ff" stroke="#63b8ff" points="202.5,-28.54 210.07,-21.12 199.53,-22.21 202.5,-28.54"/>
</g>
<!-- Node5 -->
<g id="node5" class="node">
<title>Node5</title>
<g id="a_node5"><a xlink:title=" ">
<polygon fill="#e0e0e0" stroke="#999999" points="51.25,-20 0,-20 0,0 51.25,0 51.25,-20"/>
<text text-anchor="middle" x="25.62" y="-6.5" font-family="Helvetica,sans-Serif" font-size="10.00">memory</text>
</a>
</g>
</g>
<!-- Node3&#45;&gt;Node5 -->
<g id="edge5" class="edge">
<title>Node3&#45;&gt;Node5</title>
<path fill="none" stroke="#63b8ff" d="M100.77,-55.59C87.16,-47.51 67.26,-35.71 51.36,-26.27"/>
<polygon fill="#63b8ff" stroke="#63b8ff" points="53.29,-23.35 42.9,-21.25 49.72,-29.37 53.29,-23.35"/>
</g>
<!-- Node6 -->
<g id="node6" class="node">
<title>Node6</title>
<g id="a_node6"><a xlink:title=" ">
<polygon fill="#e0e0e0" stroke="#999999" points="109.62,-20 69.62,-20 69.62,0 109.62,0 109.62,-20"/>
<text text-anchor="middle" x="89.62" y="-6.5" font-family="Helvetica,sans-Serif" font-size="10.00">string</text>
</a>
</g>
</g>
<!-- Node3&#45;&gt;Node6 -->
<g id="edge6" class="edge">
<title>Node3&#45;&gt;Node6</title>
<path fill="none" stroke="#63b8ff" d="M111.92,-55.59C108.48,-48.7 103.68,-39.1 99.41,-30.57"/>
<polygon fill="#63b8ff" stroke="#63b8ff" points="102.55,-29.03 94.95,-21.65 96.29,-32.16 102.55,-29.03"/>
</g>
<!-- Node7 -->
<g id="node7" class="node">
<title>Node7</title>
<g id="a_node7"><a xlink:title=" ">
<polygon fill="#e0e0e0" stroke="#999999" points="162,-20 127.25,-20 127.25,0 162,0 162,-20"/>
<text text-anchor="middle" x="144.62" y="-6.5" font-family="Helvetica,sans-Serif" font-size="10.00">map</text>
</a>
</g>
</g>
<!-- Node3&#45;&gt;Node7 -->
<g id="edge7" class="edge">
<title>Node3&#45;&gt;Node7</title>
<path fill="none" stroke="#63b8ff" d="M121.5,-55.59C125.12,-48.63 130.17,-38.89 134.62,-30.29"/>
<polygon fill="#63b8ff" stroke="#63b8ff" points="137.61,-32.13 139.11,-21.64 131.4,-28.91 137.61,-32.13"/>
</g>
</g>
</svg>
