<?xml version="1.0" encoding="UTF-8" standalone="no"?>
<!DOCTYPE svg PUBLIC "-//W3C//DTD SVG 1.1//EN"
 "http://www.w3.org/Graphics/SVG/1.1/DTD/svg11.dtd">
<!-- Generated by graphviz version 12.2.1 (20241206.2353)
 -->
<!-- Title: src/scenes/SceneCombat.h Pages: 1 -->
<svg width="382pt" height="140pt"
 viewBox="0.00 0.00 381.75 140.00" xmlns="http://www.w3.org/2000/svg" xmlns:xlink="http://www.w3.org/1999/xlink">
<g id="graph0" class="graph" transform="scale(1 1) rotate(0) translate(4 136)">
<title>src/scenes/SceneCombat.h</title>
<!-- Node1 -->
<g id="node1" class="node">
<title>Node1</title>
<g id="a_node1"><a xlink:title=" ">
<polygon fill="#999999" stroke="#666666" points="219.75,-132 82.25,-132 82.25,-112 219.75,-112 219.75,-132"/>
<text text-anchor="middle" x="151" y="-118.5" font-family="Helvetica,sans-Serif" font-size="10.00">src/scenes/SceneCombat.h</text>
</a>
</g>
</g>
<!-- Node2 -->
<g id="node2" class="node">
<title>Node2</title>
<g id="a_node2"><a xlink:href="SceneCombat_8cpp.html" target="_top" xlink:title=" ">
<polygon fill="white" stroke="#666666" points="148,-76 0,-76 0,-56 148,-56 148,-76"/>
<text text-anchor="middle" x="74" y="-62.5" font-family="Helvetica,sans-Serif" font-size="10.00">src/scenes/SceneCombat.cpp</text>
</a>
</g>
</g>
<!-- Node1&#45;&gt;Node2 -->
<g id="edge1" class="edge">
<title>Node1&#45;&gt;Node2</title>
<path fill="none" stroke="#63b8ff" d="M128.18,-105C114.95,-95.72 98.74,-84.35 87.52,-76.48"/>
<polygon fill="#63b8ff" stroke="#63b8ff" points="126.15,-107.85 136.35,-110.72 130.17,-102.12 126.15,-107.85"/>
</g>
<!-- Node3 -->
<g id="node3" class="node">
<title>Node3</title>
<g id="a_node3"><a xlink:href="SceneMain_8h.html" target="_top" xlink:title=" ">
<polygon fill="white" stroke="#666666" points="290,-76 166,-76 166,-56 290,-56 290,-76"/>
<text text-anchor="middle" x="228" y="-62.5" font-family="Helvetica,sans-Serif" font-size="10.00">src/scenes/SceneMain.h</text>
</a>
</g>
</g>
<!-- Node1&#45;&gt;Node3 -->
<g id="edge2" class="edge">
<title>Node1&#45;&gt;Node3</title>
<path fill="none" stroke="#63b8ff" d="M173.82,-105C187.05,-95.72 203.26,-84.35 214.48,-76.48"/>
<polygon fill="#63b8ff" stroke="#63b8ff" points="171.83,-102.12 165.65,-110.72 175.85,-107.85 171.83,-102.12"/>
</g>
<!-- Node4 -->
<g id="node4" class="node">
<title>Node4</title>
<g id="a_node4"><a xlink:href="SceneMain_8cpp.html" target="_top" xlink:title=" ">
<polygon fill="white" stroke="#666666" points="218.25,-20 83.75,-20 83.75,0 218.25,0 218.25,-20"/>
<text text-anchor="middle" x="151" y="-6.5" font-family="Helvetica,sans-Serif" font-size="10.00">src/scenes/SceneMain.cpp</text>
</a>
</g>
</g>
<!-- Node3&#45;&gt;Node4 -->
<g id="edge3" class="edge">
<title>Node3&#45;&gt;Node4</title>
<path fill="none" stroke="#63b8ff" d="M205.18,-49C191.95,-39.72 175.74,-28.35 164.52,-20.48"/>
<polygon fill="#63b8ff" stroke="#63b8ff" points="203.15,-51.85 213.35,-54.72 207.17,-46.12 203.15,-51.85"/>
</g>
<!-- Node5 -->
<g id="node5" class="node">
<title>Node5</title>
<g id="a_node5"><a xlink:href="SceneMenu_8cpp.html" target="_top" xlink:title=" ">
<polygon fill="white" stroke="#666666" points="373.75,-20 236.25,-20 236.25,0 373.75,0 373.75,-20"/>
<text text-anchor="middle" x="305" y="-6.5" font-family="Helvetica,sans-Serif" font-size="10.00">src/scenes/SceneMenu.cpp</text>
</a>
</g>
</g>
<!-- Node3&#45;&gt;Node5 -->
<g id="edge4" class="edge">
<title>Node3&#45;&gt;Node5</title>
<path fill="none" stroke="#63b8ff" d="M250.82,-49C264.05,-39.72 280.26,-28.35 291.48,-20.48"/>
<polygon fill="#63b8ff" stroke="#63b8ff" points="248.83,-46.12 242.65,-54.72 252.85,-51.85 248.83,-46.12"/>
</g>
</g>
</svg>
