<?xml version="1.0" encoding="UTF-8" standalone="no"?>
<!DOCTYPE svg PUBLIC "-//W3C//DTD SVG 1.1//EN"
 "http://www.w3.org/Graphics/SVG/1.1/DTD/svg11.dtd">
<!-- Generated by graphviz version 12.2.1 (20241206.2353)
 -->
<!-- Title: src/scenes/Scene.h Pages: 1 -->
<svg width="899pt" height="196pt"
 viewBox="0.00 0.00 898.88 196.00" xmlns="http://www.w3.org/2000/svg" xmlns:xlink="http://www.w3.org/1999/xlink">
<g id="graph0" class="graph" transform="scale(1 1) rotate(0) translate(4 192)">
<title>src/scenes/Scene.h</title>
<!-- Node1 -->
<g id="node1" class="node">
<title>Node1</title>
<g id="a_node1"><a xlink:title=" ">
<polygon fill="#999999" stroke="#666666" points="505.5,-188 402.5,-188 402.5,-168 505.5,-168 505.5,-188"/>
<text text-anchor="middle" x="454" y="-174.5" font-family="Helvetica,sans-Serif" font-size="10.00">src/scenes/Scene.h</text>
</a>
</g>
</g>
<!-- Node1&#45;&gt;Node1 -->
<g id="edge2" class="edge">
<title>Node1&#45;&gt;Node1</title>
<path fill="none" stroke="#63b8ff" d="M516.97,-185.45C521.04,-183.71 523.5,-181.22 523.5,-178 523.5,-172.42 516.14,-169.07 505.83,-167.93"/>
<polygon fill="#63b8ff" stroke="#63b8ff" points="516.24,-182.02 507.3,-187.72 517.84,-188.84 516.24,-182.02"/>
</g>
<!-- Node2 -->
<g id="node2" class="node">
<title>Node2</title>
<g id="a_node2"><a xlink:href="Scene_8cpp.html" target="_top" xlink:title=" ">
<polygon fill="white" stroke="#666666" points="142.75,-132 29.25,-132 29.25,-112 142.75,-112 142.75,-132"/>
<text text-anchor="middle" x="86" y="-118.5" font-family="Helvetica,sans-Serif" font-size="10.00">src/scenes/Scene.cpp</text>
</a>
</g>
</g>
<!-- Node1&#45;&gt;Node2 -->
<g id="edge1" class="edge">
<title>Node1&#45;&gt;Node2</title>
<path fill="none" stroke="#63b8ff" d="M390.83,-167.73C321.21,-157.51 210.23,-141.23 143.12,-131.38"/>
<polygon fill="#63b8ff" stroke="#63b8ff" points="390.16,-171.17 400.56,-169.16 391.17,-164.24 390.16,-171.17"/>
</g>
<!-- Node3 -->
<g id="node3" class="node">
<title>Node3</title>
<g id="a_node3"><a xlink:href="SceneApprenticeship_8h.html" target="_top" xlink:title=" ">
<polygon fill="white" stroke="#666666" points="328.75,-132 161.25,-132 161.25,-112 328.75,-112 328.75,-132"/>
<text text-anchor="middle" x="245" y="-118.5" font-family="Helvetica,sans-Serif" font-size="10.00">src/scenes/SceneApprenticeship.h</text>
</a>
</g>
</g>
<!-- Node1&#45;&gt;Node3 -->
<g id="edge3" class="edge">
<title>Node1&#45;&gt;Node3</title>
<path fill="none" stroke="#63b8ff" d="M406.83,-164.81C368.94,-155.02 316.49,-141.47 281.69,-132.48"/>
<polygon fill="#63b8ff" stroke="#63b8ff" points="405.57,-168.1 416.13,-167.22 407.32,-161.32 405.57,-168.1"/>
</g>
<!-- Node6 -->
<g id="node6" class="node">
<title>Node6</title>
<g id="a_node6"><a xlink:href="SceneMenu_8h.html" target="_top" xlink:title=" ">
<polygon fill="white" stroke="#666666" points="361.5,-76 234.5,-76 234.5,-56 361.5,-56 361.5,-76"/>
<text text-anchor="middle" x="298" y="-62.5" font-family="Helvetica,sans-Serif" font-size="10.00">src/scenes/SceneMenu.h</text>
</a>
</g>
</g>
<!-- Node1&#45;&gt;Node6 -->
<g id="edge17" class="edge">
<title>Node1&#45;&gt;Node6</title>
<path fill="none" stroke="#63b8ff" d="M425.97,-162.35C410.79,-154.05 391.94,-143.12 376,-132 350.26,-114.05 322.61,-89.64 308.14,-76.43"/>
<polygon fill="#63b8ff" stroke="#63b8ff" points="424.01,-165.27 434.48,-166.94 427.33,-159.11 424.01,-165.27"/>
</g>
<!-- Node7 -->
<g id="node7" class="node">
<title>Node7</title>
<g id="a_node7"><a xlink:href="SceneCombat_8h.html" target="_top" xlink:title=" ">
<polygon fill="white" stroke="#666666" points="522.75,-132 385.25,-132 385.25,-112 522.75,-112 522.75,-132"/>
<text text-anchor="middle" x="454" y="-118.5" font-family="Helvetica,sans-Serif" font-size="10.00">src/scenes/SceneCombat.h</text>
</a>
</g>
</g>
<!-- Node1&#45;&gt;Node7 -->
<g id="edge8" class="edge">
<title>Node1&#45;&gt;Node7</title>
<path fill="none" stroke="#63b8ff" d="M454,-156.13C454,-147.9 454,-138.85 454,-132.3"/>
<polygon fill="#63b8ff" stroke="#63b8ff" points="450.5,-156.08 454,-166.08 457.5,-156.08 450.5,-156.08"/>
</g>
<!-- Node9 -->
<g id="node9" class="node">
<title>Node9</title>
<g id="a_node9"><a xlink:href="SceneMain_8h.html" target="_top" xlink:title=" ">
<polygon fill="white" stroke="#666666" points="670,-76 546,-76 546,-56 670,-56 670,-76"/>
<text text-anchor="middle" x="608" y="-62.5" font-family="Helvetica,sans-Serif" font-size="10.00">src/scenes/SceneMain.h</text>
</a>
</g>
</g>
<!-- Node1&#45;&gt;Node9 -->
<g id="edge16" class="edge">
<title>Node1&#45;&gt;Node9</title>
<path fill="none" stroke="#63b8ff" d="M482.39,-162.27C497.53,-154.01 516.23,-143.15 532,-132 557.23,-114.16 584.12,-89.7 598.16,-76.46"/>
<polygon fill="#63b8ff" stroke="#63b8ff" points="481.04,-159.02 473.89,-166.83 484.35,-165.19 481.04,-159.02"/>
</g>
<!-- Node11 -->
<g id="node11" class="node">
<title>Node11</title>
<g id="a_node11"><a xlink:href="SceneEspionage_8h.html" target="_top" xlink:title=" ">
<polygon fill="white" stroke="#666666" points="727.38,-132 578.62,-132 578.62,-112 727.38,-112 727.38,-132"/>
<text text-anchor="middle" x="653" y="-118.5" font-family="Helvetica,sans-Serif" font-size="10.00">src/scenes/SceneEspionage.h</text>
</a>
</g>
</g>
<!-- Node1&#45;&gt;Node11 -->
<g id="edge13" class="edge">
<title>Node1&#45;&gt;Node11</title>
<path fill="none" stroke="#63b8ff" d="M499.38,-164.69C535.42,-154.91 585.08,-141.43 618.07,-132.48"/>
<polygon fill="#63b8ff" stroke="#63b8ff" points="498.86,-161.2 490.12,-167.2 500.69,-167.96 498.86,-161.2"/>
</g>
<!-- Node13 -->
<g id="node13" class="node">
<title>Node13</title>
<g id="a_node13"><a xlink:href="dummyScene_8cpp.html" target="_top" xlink:title=" ">
<polygon fill="white" stroke="#666666" points="890.88,-132 745.12,-132 745.12,-112 890.88,-112 890.88,-132"/>
<text text-anchor="middle" x="818" y="-118.5" font-family="Helvetica,sans-Serif" font-size="10.00">src/scenes/dummyScene.cpp</text>
</a>
</g>
</g>
<!-- Node1&#45;&gt;Node13 -->
<g id="edge18" class="edge">
<title>Node1&#45;&gt;Node13</title>
<path fill="none" stroke="#63b8ff" d="M516.9,-167.67C583.3,-157.82 687.41,-142.37 754.16,-132.47"/>
<polygon fill="#63b8ff" stroke="#63b8ff" points="516.64,-164.17 507.26,-169.1 517.67,-171.09 516.64,-164.17"/>
</g>
<!-- Node4 -->
<g id="node4" class="node">
<title>Node4</title>
<g id="a_node4"><a xlink:href="SceneApprenticeship_8cpp.html" target="_top" xlink:title=" ">
<polygon fill="white" stroke="#666666" points="178,-76 0,-76 0,-56 178,-56 178,-76"/>
<text text-anchor="middle" x="89" y="-62.5" font-family="Helvetica,sans-Serif" font-size="10.00">src/scenes/SceneApprenticeship.cpp</text>
</a>
</g>
</g>
<!-- Node3&#45;&gt;Node4 -->
<g id="edge4" class="edge">
<title>Node3&#45;&gt;Node4</title>
<path fill="none" stroke="#63b8ff" d="M207.21,-107.92C179.17,-98.21 141.58,-85.2 116.39,-76.48"/>
<polygon fill="#63b8ff" stroke="#63b8ff" points="205.8,-111.14 216.4,-111.1 208.09,-104.52 205.8,-111.14"/>
</g>
<!-- Node5 -->
<g id="node5" class="node">
<title>Node5</title>
<g id="a_node5"><a xlink:href="SceneMenu_8cpp.html" target="_top" xlink:title=" ">
<polygon fill="white" stroke="#666666" points="366.75,-20 229.25,-20 229.25,0 366.75,0 366.75,-20"/>
<text text-anchor="middle" x="298" y="-6.5" font-family="Helvetica,sans-Serif" font-size="10.00">src/scenes/SceneMenu.cpp</text>
</a>
</g>
</g>
<!-- Node3&#45;&gt;Node5 -->
<g id="edge5" class="edge">
<title>Node3&#45;&gt;Node5</title>
<path fill="none" stroke="#63b8ff" d="M231.99,-102.05C224.49,-88.6 218,-70.44 226,-56 235.43,-38.98 254.28,-27.55 270.33,-20.47"/>
<polygon fill="#63b8ff" stroke="#63b8ff" points="228.91,-103.73 237.16,-110.39 234.86,-100.04 228.91,-103.73"/>
</g>
<!-- Node3&#45;&gt;Node6 -->
<g id="edge6" class="edge">
<title>Node3&#45;&gt;Node6</title>
<path fill="none" stroke="#63b8ff" d="M262.11,-103.57C271.01,-94.5 281.53,-83.78 288.87,-76.3"/>
<polygon fill="#63b8ff" stroke="#63b8ff" points="259.8,-100.93 255.29,-110.51 264.79,-105.83 259.8,-100.93"/>
</g>
<!-- Node6&#45;&gt;Node5 -->
<g id="edge7" class="edge">
<title>Node6&#45;&gt;Node5</title>
<path fill="none" stroke="#63b8ff" d="M298,-44.13C298,-35.9 298,-26.85 298,-20.3"/>
<polygon fill="#63b8ff" stroke="#63b8ff" points="294.5,-44.08 298,-54.08 301.5,-44.08 294.5,-44.08"/>
</g>
<!-- Node8 -->
<g id="node8" class="node">
<title>Node8</title>
<g id="a_node8"><a xlink:href="SceneCombat_8cpp.html" target="_top" xlink:title=" ">
<polygon fill="white" stroke="#666666" points="528,-76 380,-76 380,-56 528,-56 528,-76"/>
<text text-anchor="middle" x="454" y="-62.5" font-family="Helvetica,sans-Serif" font-size="10.00">src/scenes/SceneCombat.cpp</text>
</a>
</g>
</g>
<!-- Node7&#45;&gt;Node8 -->
<g id="edge9" class="edge">
<title>Node7&#45;&gt;Node8</title>
<path fill="none" stroke="#63b8ff" d="M454,-100.13C454,-91.9 454,-82.85 454,-76.3"/>
<polygon fill="#63b8ff" stroke="#63b8ff" points="450.5,-100.08 454,-110.08 457.5,-100.08 450.5,-100.08"/>
</g>
<!-- Node7&#45;&gt;Node9 -->
<g id="edge10" class="edge">
<title>Node7&#45;&gt;Node9</title>
<path fill="none" stroke="#63b8ff" d="M491.67,-107.79C519.31,-98.1 556.21,-85.16 580.97,-76.48"/>
<polygon fill="#63b8ff" stroke="#63b8ff" points="490.53,-104.48 482.25,-111.09 492.85,-111.09 490.53,-104.48"/>
</g>
<!-- Node9&#45;&gt;Node5 -->
<g id="edge12" class="edge">
<title>Node9&#45;&gt;Node5</title>
<path fill="none" stroke="#63b8ff" d="M542.33,-53.56C485.81,-43.71 405.23,-29.68 352.29,-20.46"/>
<polygon fill="#63b8ff" stroke="#63b8ff" points="541.7,-57 552.16,-55.27 542.91,-50.11 541.7,-57"/>
</g>
<!-- Node10 -->
<g id="node10" class="node">
<title>Node10</title>
<g id="a_node10"><a xlink:href="SceneMain_8cpp.html" target="_top" xlink:title=" ">
<polygon fill="white" stroke="#666666" points="675.25,-20 540.75,-20 540.75,0 675.25,0 675.25,-20"/>
<text text-anchor="middle" x="608" y="-6.5" font-family="Helvetica,sans-Serif" font-size="10.00">src/scenes/SceneMain.cpp</text>
</a>
</g>
</g>
<!-- Node9&#45;&gt;Node10 -->
<g id="edge11" class="edge">
<title>Node9&#45;&gt;Node10</title>
<path fill="none" stroke="#63b8ff" d="M608,-44.13C608,-35.9 608,-26.85 608,-20.3"/>
<polygon fill="#63b8ff" stroke="#63b8ff" points="604.5,-44.08 608,-54.08 611.5,-44.08 604.5,-44.08"/>
</g>
<!-- Node11&#45;&gt;Node9 -->
<g id="edge15" class="edge">
<title>Node11&#45;&gt;Node9</title>
<path fill="none" stroke="#63b8ff" d="M638,-103C630.55,-94.06 621.85,-83.62 615.75,-76.3"/>
<polygon fill="#63b8ff" stroke="#63b8ff" points="635.1,-104.99 644.19,-110.43 640.48,-100.51 635.1,-104.99"/>
</g>
<!-- Node12 -->
<g id="node12" class="node">
<title>Node12</title>
<g id="a_node12"><a xlink:href="SceneEspionage_8cpp.html" target="_top" xlink:title=" ">
<polygon fill="white" stroke="#666666" points="847.62,-76 688.38,-76 688.38,-56 847.62,-56 847.62,-76"/>
<text text-anchor="middle" x="768" y="-62.5" font-family="Helvetica,sans-Serif" font-size="10.00">src/scenes/SceneEspionage.cpp</text>
</a>
</g>
</g>
<!-- Node11&#45;&gt;Node12 -->
<g id="edge14" class="edge">
<title>Node11&#45;&gt;Node12</title>
<path fill="none" stroke="#63b8ff" d="M683.36,-106.75C703.72,-97.18 729.98,-84.85 747.81,-76.48"/>
<polygon fill="#63b8ff" stroke="#63b8ff" points="681.97,-103.53 674.4,-110.95 684.94,-109.87 681.97,-103.53"/>
</g>
</g>
</svg>
