<?xml version="1.0" encoding="UTF-8" standalone="no"?>
<!DOCTYPE svg PUBLIC "-//W3C//DTD SVG 1.1//EN"
 "http://www.w3.org/Graphics/SVG/1.1/DTD/svg11.dtd">
<!-- Generated by graphviz version 12.2.1 (20241206.2353)
 -->
<!-- Title: src/scenes/SceneEspionage.h Pages: 1 -->
<svg width="393pt" height="140pt"
 viewBox="0.00 0.00 393.38 140.00" xmlns="http://www.w3.org/2000/svg" xmlns:xlink="http://www.w3.org/1999/xlink">
<g id="graph0" class="graph" transform="scale(1 1) rotate(0) translate(4 136)">
<title>src/scenes/SceneEspionage.h</title>
<!-- Node1 -->
<g id="node1" class="node">
<title>Node1</title>
<g id="a_node1"><a xlink:title=" ">
<polygon fill="#999999" stroke="#666666" points="234,-132 85.25,-132 85.25,-112 234,-112 234,-132"/>
<text text-anchor="middle" x="159.62" y="-118.5" font-family="Helvetica,sans-Serif" font-size="10.00">src/scenes/SceneEspionage.h</text>
</a>
</g>
</g>
<!-- Node2 -->
<g id="node2" class="node">
<title>Node2</title>
<g id="a_node2"><a xlink:href="SceneEspionage_8cpp.html" target="_top" xlink:title=" ">
<polygon fill="white" stroke="#666666" points="159.25,-76 0,-76 0,-56 159.25,-56 159.25,-76"/>
<text text-anchor="middle" x="79.62" y="-62.5" font-family="Helvetica,sans-Serif" font-size="10.00">src/scenes/SceneEspionage.cpp</text>
</a>
</g>
</g>
<!-- Node1&#45;&gt;Node2 -->
<g id="edge1" class="edge">
<title>Node1&#45;&gt;Node2</title>
<path fill="none" stroke="#63b8ff" d="M136.32,-105.27C122.5,-95.94 105.44,-84.43 93.67,-76.48"/>
<polygon fill="#63b8ff" stroke="#63b8ff" points="134.19,-108.05 144.44,-110.75 138.11,-102.25 134.19,-108.05"/>
</g>
<!-- Node3 -->
<g id="node3" class="node">
<title>Node3</title>
<g id="a_node3"><a xlink:href="SceneMain_8h.html" target="_top" xlink:title=" ">
<polygon fill="white" stroke="#666666" points="301.62,-76 177.62,-76 177.62,-56 301.62,-56 301.62,-76"/>
<text text-anchor="middle" x="239.62" y="-62.5" font-family="Helvetica,sans-Serif" font-size="10.00">src/scenes/SceneMain.h</text>
</a>
</g>
</g>
<!-- Node1&#45;&gt;Node3 -->
<g id="edge2" class="edge">
<title>Node1&#45;&gt;Node3</title>
<path fill="none" stroke="#63b8ff" d="M182.93,-105.27C196.75,-95.94 213.81,-84.43 225.58,-76.48"/>
<polygon fill="#63b8ff" stroke="#63b8ff" points="181.14,-102.25 174.81,-110.75 185.06,-108.05 181.14,-102.25"/>
</g>
<!-- Node4 -->
<g id="node4" class="node">
<title>Node4</title>
<g id="a_node4"><a xlink:href="SceneMain_8cpp.html" target="_top" xlink:title=" ">
<polygon fill="white" stroke="#666666" points="229.88,-20 95.38,-20 95.38,0 229.88,0 229.88,-20"/>
<text text-anchor="middle" x="162.62" y="-6.5" font-family="Helvetica,sans-Serif" font-size="10.00">src/scenes/SceneMain.cpp</text>
</a>
</g>
</g>
<!-- Node3&#45;&gt;Node4 -->
<g id="edge3" class="edge">
<title>Node3&#45;&gt;Node4</title>
<path fill="none" stroke="#63b8ff" d="M216.81,-49C203.58,-39.72 187.37,-28.35 176.14,-20.48"/>
<polygon fill="#63b8ff" stroke="#63b8ff" points="214.78,-51.85 224.97,-54.72 218.8,-46.12 214.78,-51.85"/>
</g>
<!-- Node5 -->
<g id="node5" class="node">
<title>Node5</title>
<g id="a_node5"><a xlink:href="SceneMenu_8cpp.html" target="_top" xlink:title=" ">
<polygon fill="white" stroke="#666666" points="385.38,-20 247.88,-20 247.88,0 385.38,0 385.38,-20"/>
<text text-anchor="middle" x="316.62" y="-6.5" font-family="Helvetica,sans-Serif" font-size="10.00">src/scenes/SceneMenu.cpp</text>
</a>
</g>
</g>
<!-- Node3&#45;&gt;Node5 -->
<g id="edge4" class="edge">
<title>Node3&#45;&gt;Node5</title>
<path fill="none" stroke="#63b8ff" d="M262.44,-49C275.67,-39.72 291.88,-28.35 303.11,-20.48"/>
<polygon fill="#63b8ff" stroke="#63b8ff" points="260.45,-46.12 254.28,-54.72 264.47,-51.85 260.45,-46.12"/>
</g>
</g>
</svg>
