<?xml version="1.0" encoding="UTF-8" standalone="no"?>
<!DOCTYPE svg PUBLIC "-//W3C//DTD SVG 1.1//EN"
 "http://www.w3.org/Graphics/SVG/1.1/DTD/svg11.dtd">
<!-- Generated by graphviz version 12.2.1 (20241206.2353)
 -->
<!-- Title: src/scenes/SceneApprenticeship.h Pages: 1 -->
<svg width="370pt" height="140pt"
 viewBox="0.00 0.00 369.50 140.00" xmlns="http://www.w3.org/2000/svg" xmlns:xlink="http://www.w3.org/1999/xlink">
<g id="graph0" class="graph" transform="scale(1 1) rotate(0) translate(4 136)">
<title>src/scenes/SceneApprenticeship.h</title>
<!-- Node1 -->
<g id="node1" class="node">
<title>Node1</title>
<g id="a_node1"><a xlink:title=" ">
<polygon fill="#999999" stroke="#666666" points="289.75,-132 122.25,-132 122.25,-112 289.75,-112 289.75,-132"/>
<text text-anchor="middle" x="206" y="-118.5" font-family="Helvetica,sans-Serif" font-size="10.00">src/scenes/SceneApprenticeship.h</text>
</a>
</g>
</g>
<!-- Node2 -->
<g id="node2" class="node">
<title>Node2</title>
<g id="a_node2"><a xlink:href="SceneApprenticeship_8cpp.html" target="_top" xlink:title=" ">
<polygon fill="white" stroke="#666666" points="178,-76 0,-76 0,-56 178,-56 178,-76"/>
<text text-anchor="middle" x="89" y="-62.5" font-family="Helvetica,sans-Serif" font-size="10.00">src/scenes/SceneApprenticeship.cpp</text>
</a>
</g>
</g>
<!-- Node1&#45;&gt;Node2 -->
<g id="edge1" class="edge">
<title>Node1&#45;&gt;Node2</title>
<path fill="none" stroke="#63b8ff" d="M175.4,-106.88C154.64,-97.3 127.76,-84.89 109.54,-76.48"/>
<polygon fill="#63b8ff" stroke="#63b8ff" points="173.7,-109.95 184.25,-110.96 176.63,-103.59 173.7,-109.95"/>
</g>
<!-- Node3 -->
<g id="node3" class="node">
<title>Node3</title>
<g id="a_node3"><a xlink:href="SceneMenu_8cpp.html" target="_top" xlink:title=" ">
<polygon fill="white" stroke="#666666" points="320.75,-20 183.25,-20 183.25,0 320.75,0 320.75,-20"/>
<text text-anchor="middle" x="252" y="-6.5" font-family="Helvetica,sans-Serif" font-size="10.00">src/scenes/SceneMenu.cpp</text>
</a>
</g>
</g>
<!-- Node1&#45;&gt;Node3 -->
<g id="edge2" class="edge">
<title>Node1&#45;&gt;Node3</title>
<path fill="none" stroke="#63b8ff" d="M211.04,-100.48C214.54,-87.47 219.71,-70.43 226,-56 231.63,-43.1 240.05,-29.21 245.77,-20.33"/>
<polygon fill="#63b8ff" stroke="#63b8ff" points="207.68,-99.48 208.58,-110.04 214.46,-101.22 207.68,-99.48"/>
</g>
<!-- Node4 -->
<g id="node4" class="node">
<title>Node4</title>
<g id="a_node4"><a xlink:href="SceneMenu_8h.html" target="_top" xlink:title=" ">
<polygon fill="white" stroke="#666666" points="361.5,-76 234.5,-76 234.5,-56 361.5,-56 361.5,-76"/>
<text text-anchor="middle" x="298" y="-62.5" font-family="Helvetica,sans-Serif" font-size="10.00">src/scenes/SceneMenu.h</text>
</a>
</g>
</g>
<!-- Node1&#45;&gt;Node4 -->
<g id="edge3" class="edge">
<title>Node1&#45;&gt;Node4</title>
<path fill="none" stroke="#63b8ff" d="M231.88,-105.81C247.93,-96.39 268.04,-84.58 281.85,-76.48"/>
<polygon fill="#63b8ff" stroke="#63b8ff" points="230.18,-102.75 223.33,-110.83 233.73,-108.78 230.18,-102.75"/>
</g>
<!-- Node4&#45;&gt;Node3 -->
<g id="edge4" class="edge">
<title>Node4&#45;&gt;Node3</title>
<path fill="none" stroke="#63b8ff" d="M282.67,-47C275.05,-38.06 266.16,-27.62 259.92,-20.3"/>
<polygon fill="#63b8ff" stroke="#63b8ff" points="279.86,-49.1 289.01,-54.44 285.19,-44.56 279.86,-49.1"/>
</g>
</g>
</svg>
