<?xml version="1.0" encoding="UTF-8" standalone="no"?>
<!DOCTYPE svg PUBLIC "-//W3C//DTD SVG 1.1//EN"
 "http://www.w3.org/Graphics/SVG/1.1/DTD/svg11.dtd">
<!-- Generated by graphviz version 12.2.1 (20241206.2353)
 -->
<!-- Title: src/scenes/SceneApprenticeship.cpp Pages: 1 -->
<svg width="2821pt" height="308pt"
 viewBox="0.00 0.00 2821.12 308.00" xmlns="http://www.w3.org/2000/svg" xmlns:xlink="http://www.w3.org/1999/xlink">
<g id="graph0" class="graph" transform="scale(1 1) rotate(0) translate(4 304)">
<title>src/scenes/SceneApprenticeship.cpp</title>
<!-- Node1 -->
<g id="node1" class="node">
<title>Node1</title>
<g id="a_node1"><a xlink:title=" ">
<polygon fill="#999999" stroke="#666666" points="1640.75,-300 1462.75,-300 1462.75,-280 1640.75,-280 1640.75,-300"/>
<text text-anchor="middle" x="1551.75" y="-286.5" font-family="Helvetica,sans-Serif" font-size="10.00">src/scenes/SceneApprenticeship.cpp</text>
</a>
</g>
</g>
<!-- Node2 -->
<g id="node2" class="node">
<title>Node2</title>
<g id="a_node2"><a xlink:href="SceneApprenticeship_8h.html" target="_top" xlink:title=" ">
<polygon fill="white" stroke="#666666" points="360,-244 243.5,-244 243.5,-224 360,-224 360,-244"/>
<text text-anchor="middle" x="301.75" y="-230.5" font-family="Helvetica,sans-Serif" font-size="10.00">SceneApprenticeship.h</text>
</a>
</g>
</g>
<!-- Node1&#45;&gt;Node2 -->
<g id="edge1" class="edge">
<title>Node1&#45;&gt;Node2</title>
<path fill="none" stroke="#63b8ff" d="M1462.52,-286.93C1269.58,-282.13 799.21,-268.74 405.75,-244 394.69,-243.3 382.99,-242.43 371.57,-241.5"/>
<polygon fill="#63b8ff" stroke="#63b8ff" points="372.06,-238.03 361.8,-240.68 371.47,-245 372.06,-238.03"/>
</g>
<!-- Node15 -->
<g id="node15" class="node">
<title>Node15</title>
<g id="a_node15"><a xlink:href="GameEngine_8h.html" target="_top" xlink:title=" ">
<polygon fill="white" stroke="#666666" points="416,-132 335.5,-132 335.5,-112 416,-112 416,-132"/>
<text text-anchor="middle" x="375.75" y="-118.5" font-family="Helvetica,sans-Serif" font-size="10.00">GameEngine.h</text>
</a>
</g>
</g>
<!-- Node1&#45;&gt;Node15 -->
<g id="edge67" class="edge">
<title>Node1&#45;&gt;Node15</title>
<path fill="none" stroke="#63b8ff" d="M1462.44,-288.81C1231.36,-287.09 619.28,-274.27 438.75,-188 417.11,-177.66 398.89,-156.56 387.7,-141.19"/>
<polygon fill="#63b8ff" stroke="#63b8ff" points="390.83,-139.56 382.25,-133.34 385.07,-143.55 390.83,-139.56"/>
</g>
<!-- Node16 -->
<g id="node16" class="node">
<title>Node16</title>
<g id="a_node16"><a xlink:title=" ">
<polygon fill="#e0e0e0" stroke="#999999" points="53.5,-132 0,-132 0,-112 53.5,-112 53.5,-132"/>
<text text-anchor="middle" x="26.75" y="-118.5" font-family="Helvetica,sans-Serif" font-size="10.00">iostream</text>
</a>
</g>
</g>
<!-- Node1&#45;&gt;Node16 -->
<g id="edge70" class="edge">
<title>Node1&#45;&gt;Node16</title>
<path fill="none" stroke="#63b8ff" d="M1462.36,-289.3C1205.93,-289.64 471.14,-286.73 234.75,-244 157.71,-230.07 129.31,-236.36 67.75,-188 52.68,-176.16 41.62,-157.15 34.81,-142.74"/>
<polygon fill="#63b8ff" stroke="#63b8ff" points="38.1,-141.53 30.87,-133.78 31.69,-144.34 38.1,-141.53"/>
</g>
<!-- Node18 -->
<g id="node18" class="node">
<title>Node18</title>
<g id="a_node18"><a xlink:href="json_8hpp.html" target="_top" xlink:title=" ">
<polygon fill="white" stroke="#666666" points="1571.62,-188 1473.88,-188 1473.88,-168 1571.62,-168 1571.62,-188"/>
<text text-anchor="middle" x="1522.75" y="-174.5" font-family="Helvetica,sans-Serif" font-size="10.00">nlohmann/json.hpp</text>
</a>
</g>
</g>
<!-- Node1&#45;&gt;Node18 -->
<g id="edge30" class="edge">
<title>Node1&#45;&gt;Node18</title>
<path fill="none" stroke="#63b8ff" d="M1549.28,-279.62C1544.61,-261.92 1534.41,-223.24 1528.11,-199.32"/>
<polygon fill="#63b8ff" stroke="#63b8ff" points="1531.54,-198.6 1525.6,-189.82 1524.77,-200.38 1531.54,-198.6"/>
</g>
<!-- Node33 -->
<g id="node33" class="node">
<title>Node33</title>
<g id="a_node33"><a xlink:title=" ">
<polygon fill="#e0e0e0" stroke="#999999" points="2813.12,-132 2754.38,-132 2754.38,-112 2813.12,-112 2813.12,-132"/>
<text text-anchor="middle" x="2783.75" y="-118.5" font-family="Helvetica,sans-Serif" font-size="10.00">stdexcept</text>
</a>
</g>
</g>
<!-- Node1&#45;&gt;Node33 -->
<g id="edge71" class="edge">
<title>Node1&#45;&gt;Node33</title>
<path fill="none" stroke="#63b8ff" d="M1556.61,-279.89C1565.02,-265.17 1583.81,-236.54 1608.75,-224 1832.03,-111.76 2476.75,-169.84 2742.74,-132.19"/>
<polygon fill="#63b8ff" stroke="#63b8ff" points="2743.1,-135.67 2752.47,-130.73 2742.06,-128.75 2743.1,-135.67"/>
</g>
<!-- Node50 -->
<g id="node50" class="node">
<title>Node50</title>
<g id="a_node50"><a xlink:title=" ">
<polygon fill="#e0e0e0" stroke="#999999" points="1704,-244 1617.5,-244 1617.5,-224 1704,-224 1704,-244"/>
<text text-anchor="middle" x="1660.75" y="-230.5" font-family="Helvetica,sans-Serif" font-size="10.00">EntityManager.h</text>
</a>
</g>
</g>
<!-- Node1&#45;&gt;Node50 -->
<g id="edge66" class="edge">
<title>Node1&#45;&gt;Node50</title>
<path fill="none" stroke="#63b8ff" d="M1570.74,-279.59C1587.51,-271.28 1612.24,-259.03 1631.54,-249.47"/>
<polygon fill="#63b8ff" stroke="#63b8ff" points="1632.85,-252.73 1640.26,-245.15 1629.74,-246.45 1632.85,-252.73"/>
</g>
<!-- Node51 -->
<g id="node51" class="node">
<title>Node51</title>
<g id="a_node51"><a xlink:title=" ">
<polygon fill="#e0e0e0" stroke="#999999" points="1865.5,-244 1722,-244 1722,-224 1865.5,-224 1865.5,-244"/>
<text text-anchor="middle" x="1793.75" y="-230.5" font-family="Helvetica,sans-Serif" font-size="10.00">SFML/Window/Keyboard.hpp</text>
</a>
</g>
</g>
<!-- Node1&#45;&gt;Node51 -->
<g id="edge68" class="edge">
<title>Node1&#45;&gt;Node51</title>
<path fill="none" stroke="#63b8ff" d="M1594.18,-279.53C1634.83,-270.46 1696.33,-256.74 1740.31,-246.93"/>
<polygon fill="#63b8ff" stroke="#63b8ff" points="1740.89,-250.38 1749.89,-244.79 1739.37,-243.55 1740.89,-250.38"/>
</g>
<!-- Node52 -->
<g id="node52" class="node">
<title>Node52</title>
<g id="a_node52"><a xlink:title=" ">
<polygon fill="#e0e0e0" stroke="#999999" points="1932.25,-244 1883.25,-244 1883.25,-224 1932.25,-224 1932.25,-244"/>
<text text-anchor="middle" x="1907.75" y="-230.5" font-family="Helvetica,sans-Serif" font-size="10.00">fstream</text>
</a>
</g>
</g>
<!-- Node1&#45;&gt;Node52 -->
<g id="edge69" class="edge">
<title>Node1&#45;&gt;Node52</title>
<path fill="none" stroke="#63b8ff" d="M1641.04,-279.67C1703.39,-272.43 1788.7,-261.1 1871.79,-244.41"/>
<polygon fill="#63b8ff" stroke="#63b8ff" points="1872.38,-247.86 1881.48,-242.43 1870.98,-241 1872.38,-247.86"/>
</g>
<!-- Node3 -->
<g id="node3" class="node">
<title>Node3</title>
<g id="a_node3"><a xlink:href="Actions_8h.html" target="_top" xlink:title=" ">
<polygon fill="white" stroke="#666666" points="689.38,-76 632.12,-76 632.12,-56 689.38,-56 689.38,-76"/>
<text text-anchor="middle" x="660.75" y="-62.5" font-family="Helvetica,sans-Serif" font-size="10.00">Actions.h</text>
</a>
</g>
</g>
<!-- Node2&#45;&gt;Node3 -->
<g id="edge2" class="edge">
<title>Node2&#45;&gt;Node3</title>
<path fill="none" stroke="#63b8ff" d="M360.26,-231.88C411.19,-228.7 485.61,-218.57 542.75,-188 589.55,-162.96 629.13,-112.89 648.32,-85.67"/>
<polygon fill="#63b8ff" stroke="#63b8ff" points="651.02,-87.93 653.8,-77.7 645.25,-83.96 651.02,-87.93"/>
</g>
<!-- Node5 -->
<g id="node5" class="node">
<title>Node5</title>
<g id="a_node5"><a xlink:href="Entity_8h.html" target="_top" xlink:title=" ">
<polygon fill="white" stroke="#666666" points="317.88,-132 269.62,-132 269.62,-112 317.88,-112 317.88,-132"/>
<text text-anchor="middle" x="293.75" y="-118.5" font-family="Helvetica,sans-Serif" font-size="10.00">Entity.h</text>
</a>
</g>
</g>
<!-- Node2&#45;&gt;Node5 -->
<g id="edge4" class="edge">
<title>Node2&#45;&gt;Node5</title>
<path fill="none" stroke="#63b8ff" d="M298.16,-223.51C294.97,-214.52 290.53,-200.56 288.75,-188 286.66,-173.21 288.05,-156.39 289.89,-143.57"/>
<polygon fill="#63b8ff" stroke="#63b8ff" points="293.33,-144.23 291.52,-133.79 286.43,-143.08 293.33,-144.23"/>
</g>
<!-- Node6 -->
<g id="node6" class="node">
<title>Node6</title>
<g id="a_node6"><a xlink:href="Components_8h.html" target="_top" xlink:title=" ">
<polygon fill="white" stroke="#666666" points="333.62,-76 253.88,-76 253.88,-56 333.62,-56 333.62,-76"/>
<text text-anchor="middle" x="293.75" y="-62.5" font-family="Helvetica,sans-Serif" font-size="10.00">Components.h</text>
</a>
</g>
</g>
<!-- Node2&#45;&gt;Node6 -->
<g id="edge28" class="edge">
<title>Node2&#45;&gt;Node6</title>
<path fill="none" stroke="#63b8ff" d="M296.5,-223.63C287.09,-206.24 267.68,-167.48 260.75,-132 259.05,-123.28 257.98,-120.45 260.75,-112 264.01,-102.05 270.39,-92.48 276.69,-84.75"/>
<polygon fill="#63b8ff" stroke="#63b8ff" points="279.13,-87.27 283.1,-77.45 273.87,-82.65 279.13,-87.27"/>
</g>
<!-- Node7 -->
<g id="node7" class="node">
<title>Node7</title>
<g id="a_node7"><a xlink:title=" ">
<polygon fill="#e0e0e0" stroke="#999999" points="212.25,-20 109.25,-20 109.25,0 212.25,0 212.25,-20"/>
<text text-anchor="middle" x="160.75" y="-6.5" font-family="Helvetica,sans-Serif" font-size="10.00">SFML/Graphics.hpp</text>
</a>
</g>
</g>
<!-- Node2&#45;&gt;Node7 -->
<g id="edge29" class="edge">
<title>Node2&#45;&gt;Node7</title>
<path fill="none" stroke="#63b8ff" d="M243.31,-226.97C193.97,-220.53 128.85,-208.38 112.75,-188 74.67,-139.79 121.26,-63.7 146.52,-29.15"/>
<polygon fill="#63b8ff" stroke="#63b8ff" points="149.13,-31.49 152.36,-21.4 143.55,-27.28 149.13,-31.49"/>
</g>
<!-- Node11 -->
<g id="node11" class="node">
<title>Node11</title>
<g id="a_node11"><a xlink:href="ManagerEntity_8h.html" target="_top" xlink:title=" ">
<polygon fill="white" stroke="#666666" points="533.62,-188 447.88,-188 447.88,-168 533.62,-168 533.62,-188"/>
<text text-anchor="middle" x="490.75" y="-174.5" font-family="Helvetica,sans-Serif" font-size="10.00">ManagerEntity.h</text>
</a>
</g>
</g>
<!-- Node2&#45;&gt;Node11 -->
<g id="edge13" class="edge">
<title>Node2&#45;&gt;Node11</title>
<path fill="none" stroke="#63b8ff" d="M334.67,-223.59C365.78,-214.71 412.67,-201.31 446.93,-191.52"/>
<polygon fill="#63b8ff" stroke="#63b8ff" points="447.46,-195.01 456.12,-188.9 445.54,-188.28 447.46,-195.01"/>
</g>
<!-- Node14 -->
<g id="node14" class="node">
<title>Node14</title>
<g id="a_node14"><a xlink:href="Scene_8h.html" target="_top" xlink:title=" ">
<polygon fill="white" stroke="#666666" points="173.75,-188 121.75,-188 121.75,-168 173.75,-168 173.75,-188"/>
<text text-anchor="middle" x="147.75" y="-174.5" font-family="Helvetica,sans-Serif" font-size="10.00">Scene.h</text>
</a>
</g>
</g>
<!-- Node2&#45;&gt;Node14 -->
<g id="edge18" class="edge">
<title>Node2&#45;&gt;Node14</title>
<path fill="none" stroke="#63b8ff" d="M274.93,-223.59C249.9,-214.82 212.34,-201.65 184.52,-191.89"/>
<polygon fill="#63b8ff" stroke="#63b8ff" points="186.03,-188.72 175.44,-188.71 183.72,-195.32 186.03,-188.72"/>
</g>
<!-- Node17 -->
<g id="node17" class="node">
<title>Node17</title>
<g id="a_node17"><a xlink:title=" ">
<polygon fill="#e0e0e0" stroke="#999999" points="391.75,-188 297.75,-188 297.75,-168 391.75,-168 391.75,-188"/>
<text text-anchor="middle" x="344.75" y="-174.5" font-family="Helvetica,sans-Serif" font-size="10.00">StructsDialogue.h</text>
</a>
</g>
</g>
<!-- Node2&#45;&gt;Node17 -->
<g id="edge27" class="edge">
<title>Node2&#45;&gt;Node17</title>
<path fill="none" stroke="#63b8ff" d="M309.24,-223.59C315.04,-216.32 323.24,-206.02 330.3,-197.15"/>
<polygon fill="#63b8ff" stroke="#63b8ff" points="332.91,-199.49 336.4,-189.48 327.44,-195.12 332.91,-199.49"/>
</g>
<!-- Node4 -->
<g id="node4" class="node">
<title>Node4</title>
<g id="a_node4"><a xlink:title=" ">
<polygon fill="#e0e0e0" stroke="#999999" points="559.75,-20 519.75,-20 519.75,0 559.75,0 559.75,-20"/>
<text text-anchor="middle" x="539.75" y="-6.5" font-family="Helvetica,sans-Serif" font-size="10.00">string</text>
</a>
</g>
</g>
<!-- Node3&#45;&gt;Node4 -->
<g id="edge3" class="edge">
<title>Node3&#45;&gt;Node4</title>
<path fill="none" stroke="#63b8ff" d="M639.67,-55.59C620.56,-47.06 592.14,-34.38 570.5,-24.72"/>
<polygon fill="#63b8ff" stroke="#63b8ff" points="572.12,-21.61 561.56,-20.74 569.27,-28.01 572.12,-21.61"/>
</g>
<!-- Node5&#45;&gt;Node4 -->
<g id="edge11" class="edge">
<title>Node5&#45;&gt;Node4</title>
<path fill="none" stroke="#63b8ff" d="M314.88,-111.51C343.1,-98.84 394.67,-75.7 438.75,-56 462.41,-45.43 489.2,-33.49 509.25,-24.57"/>
<polygon fill="#63b8ff" stroke="#63b8ff" points="510.53,-27.83 518.24,-20.57 507.68,-21.43 510.53,-27.83"/>
</g>
<!-- Node5&#45;&gt;Node6 -->
<g id="edge5" class="edge">
<title>Node5&#45;&gt;Node6</title>
<path fill="none" stroke="#63b8ff" d="M293.75,-111.59C293.75,-105.01 293.75,-95.96 293.75,-87.73"/>
<polygon fill="#63b8ff" stroke="#63b8ff" points="297.25,-87.81 293.75,-77.81 290.25,-87.81 297.25,-87.81"/>
</g>
<!-- Node9 -->
<g id="node9" class="node">
<title>Node9</title>
<g id="a_node9"><a xlink:title=" ">
<polygon fill="#e0e0e0" stroke="#999999" points="425.38,-20 374.12,-20 374.12,0 425.38,0 425.38,-20"/>
<text text-anchor="middle" x="399.75" y="-6.5" font-family="Helvetica,sans-Serif" font-size="10.00">memory</text>
</a>
</g>
</g>
<!-- Node5&#45;&gt;Node9 -->
<g id="edge10" class="edge">
<title>Node5&#45;&gt;Node9</title>
<path fill="none" stroke="#63b8ff" d="M304.57,-111.66C314.72,-102.78 330.16,-88.89 342.75,-76 357.78,-60.63 373.83,-42.11 385.06,-28.78"/>
<polygon fill="#63b8ff" stroke="#63b8ff" points="387.61,-31.19 391.33,-21.27 382.23,-26.7 387.61,-31.19"/>
</g>
<!-- Node10 -->
<g id="node10" class="node">
<title>Node10</title>
<g id="a_node10"><a xlink:title=" ">
<polygon fill="#e0e0e0" stroke="#999999" points="197.62,-76 147.88,-76 147.88,-56 197.62,-56 197.62,-76"/>
<text text-anchor="middle" x="172.75" y="-62.5" font-family="Helvetica,sans-Serif" font-size="10.00">optional</text>
</a>
</g>
</g>
<!-- Node5&#45;&gt;Node10 -->
<g id="edge12" class="edge">
<title>Node5&#45;&gt;Node10</title>
<path fill="none" stroke="#63b8ff" d="M272.67,-111.59C253.79,-103.17 225.83,-90.69 204.29,-81.07"/>
<polygon fill="#63b8ff" stroke="#63b8ff" points="205.93,-77.98 195.37,-77.1 203.08,-84.37 205.93,-77.98"/>
</g>
<!-- Node6&#45;&gt;Node4 -->
<g id="edge6" class="edge">
<title>Node6&#45;&gt;Node4</title>
<path fill="none" stroke="#63b8ff" d="M334.1,-56.14C382.9,-45.43 464,-27.63 508.37,-17.89"/>
<polygon fill="#63b8ff" stroke="#63b8ff" points="508.84,-21.37 517.86,-15.8 507.34,-14.53 508.84,-21.37"/>
</g>
<!-- Node6&#45;&gt;Node7 -->
<g id="edge7" class="edge">
<title>Node6&#45;&gt;Node7</title>
<path fill="none" stroke="#63b8ff" d="M270.58,-55.59C249.54,-47.05 218.25,-34.35 194.45,-24.68"/>
<polygon fill="#63b8ff" stroke="#63b8ff" points="196.08,-21.57 185.5,-21.05 193.45,-28.05 196.08,-21.57"/>
</g>
<!-- Node8 -->
<g id="node8" class="node">
<title>Node8</title>
<g id="a_node8"><a xlink:title=" ">
<polygon fill="#e0e0e0" stroke="#999999" points="317.12,-20 270.38,-20 270.38,0 317.12,0 317.12,-20"/>
<text text-anchor="middle" x="293.75" y="-6.5" font-family="Helvetica,sans-Serif" font-size="10.00">Vec2.h</text>
</a>
</g>
</g>
<!-- Node6&#45;&gt;Node8 -->
<g id="edge8" class="edge">
<title>Node6&#45;&gt;Node8</title>
<path fill="none" stroke="#63b8ff" d="M293.75,-55.59C293.75,-49.01 293.75,-39.96 293.75,-31.73"/>
<polygon fill="#63b8ff" stroke="#63b8ff" points="297.25,-31.81 293.75,-21.81 290.25,-31.81 297.25,-31.81"/>
</g>
<!-- Node6&#45;&gt;Node9 -->
<g id="edge9" class="edge">
<title>Node6&#45;&gt;Node9</title>
<path fill="none" stroke="#63b8ff" d="M312.21,-55.59C328.45,-47.32 352.36,-35.14 371.08,-25.6"/>
<polygon fill="#63b8ff" stroke="#63b8ff" points="372.47,-28.82 379.79,-21.17 369.29,-22.59 372.47,-28.82"/>
</g>
<!-- Node11&#45;&gt;Node4 -->
<g id="edge16" class="edge">
<title>Node11&#45;&gt;Node4</title>
<path fill="none" stroke="#63b8ff" d="M490.32,-167.91C490.11,-154.68 491.3,-129.76 501.75,-112 514.74,-89.93 535.65,-99.08 546.75,-76 553.45,-62.06 551.03,-44.54 547.31,-31.2"/>
<polygon fill="#63b8ff" stroke="#63b8ff" points="550.66,-30.2 544.21,-21.79 544.01,-32.39 550.66,-30.2"/>
</g>
<!-- Node11&#45;&gt;Node5 -->
<g id="edge14" class="edge">
<title>Node11&#45;&gt;Node5</title>
<path fill="none" stroke="#63b8ff" d="M456.44,-167.59C420.82,-157.83 365.39,-142.64 329.32,-132.75"/>
<polygon fill="#63b8ff" stroke="#63b8ff" points="330.37,-129.41 319.8,-130.14 328.52,-136.16 330.37,-129.41"/>
</g>
<!-- Node12 -->
<g id="node12" class="node">
<title>Node12</title>
<g id="a_node12"><a xlink:title=" ">
<polygon fill="#e0e0e0" stroke="#999999" points="553.25,-132 510.25,-132 510.25,-112 553.25,-112 553.25,-132"/>
<text text-anchor="middle" x="531.75" y="-118.5" font-family="Helvetica,sans-Serif" font-size="10.00">vector</text>
</a>
</g>
</g>
<!-- Node11&#45;&gt;Node12 -->
<g id="edge15" class="edge">
<title>Node11&#45;&gt;Node12</title>
<path fill="none" stroke="#63b8ff" d="M497.89,-167.59C503.36,-160.39 511.07,-150.23 517.76,-141.43"/>
<polygon fill="#63b8ff" stroke="#63b8ff" points="520.52,-143.58 523.77,-133.5 514.94,-139.35 520.52,-143.58"/>
</g>
<!-- Node13 -->
<g id="node13" class="node">
<title>Node13</title>
<g id="a_node13"><a xlink:title=" ">
<polygon fill="#e0e0e0" stroke="#999999" points="538.12,-76 503.38,-76 503.38,-56 538.12,-56 538.12,-76"/>
<text text-anchor="middle" x="520.75" y="-62.5" font-family="Helvetica,sans-Serif" font-size="10.00">map</text>
</a>
</g>
</g>
<!-- Node11&#45;&gt;Node13 -->
<g id="edge17" class="edge">
<title>Node11&#45;&gt;Node13</title>
<path fill="none" stroke="#63b8ff" d="M482.82,-167.53C473.09,-154.67 458.9,-131.12 467.75,-112 473.24,-100.13 483.58,-90.24 493.68,-82.79"/>
<polygon fill="#63b8ff" stroke="#63b8ff" points="495.55,-85.76 501.87,-77.25 491.63,-79.96 495.55,-85.76"/>
</g>
<!-- Node14&#45;&gt;Node7 -->
<g id="edge25" class="edge">
<title>Node14&#45;&gt;Node7</title>
<path fill="none" stroke="#63b8ff" d="M145.2,-167.75C139.98,-147.3 129.3,-96.84 138.75,-56 140.83,-47.02 144.96,-37.76 149.09,-29.99"/>
<polygon fill="#63b8ff" stroke="#63b8ff" points="152.01,-31.91 153.95,-21.5 145.94,-28.43 152.01,-31.91"/>
</g>
<!-- Node14&#45;&gt;Node14 -->
<g id="edge19" class="edge">
<title>Node14&#45;&gt;Node14</title>
<path fill="none" stroke="#63b8ff" d="M173.95,-188.48C183.71,-188.82 191.75,-185.33 191.75,-178 191.75,-173.88 189.21,-170.97 185.24,-169.27"/>
<polygon fill="#63b8ff" stroke="#63b8ff" points="185.86,-165.83 175.45,-167.76 184.79,-172.75 185.86,-165.83"/>
</g>
<!-- Node14&#45;&gt;Node15 -->
<g id="edge20" class="edge">
<title>Node14&#45;&gt;Node15</title>
<path fill="none" stroke="#63b8ff" d="M173.9,-170.81C210.54,-162.13 277.87,-146.18 324.65,-135.1"/>
<polygon fill="#63b8ff" stroke="#63b8ff" points="325.37,-138.53 334.3,-132.82 323.76,-131.72 325.37,-138.53"/>
</g>
<!-- Node14&#45;&gt;Node16 -->
<g id="edge26" class="edge">
<title>Node14&#45;&gt;Node16</title>
<path fill="none" stroke="#63b8ff" d="M126.67,-167.59C107.79,-159.17 79.83,-146.69 58.29,-137.07"/>
<polygon fill="#63b8ff" stroke="#63b8ff" points="59.93,-133.98 49.37,-133.1 57.08,-140.37 59.93,-133.98"/>
</g>
<!-- Node15&#45;&gt;Node4 -->
<g id="edge23" class="edge">
<title>Node15&#45;&gt;Node4</title>
<path fill="none" stroke="#63b8ff" d="M389.73,-111.62C417.93,-92.71 481.88,-49.82 516.48,-26.61"/>
<polygon fill="#63b8ff" stroke="#63b8ff" points="518.19,-29.68 524.55,-21.2 514.29,-23.86 518.19,-29.68"/>
</g>
<!-- Node15&#45;&gt;Node7 -->
<g id="edge21" class="edge">
<title>Node15&#45;&gt;Node7</title>
<path fill="none" stroke="#63b8ff" d="M337.68,-111.5C310.78,-103.94 274.38,-91.98 244.75,-76 220.06,-62.68 195.05,-42.23 178.82,-27.84"/>
<polygon fill="#63b8ff" stroke="#63b8ff" points="181.23,-25.3 171.47,-21.18 176.53,-30.48 181.23,-25.3"/>
</g>
<!-- Node15&#45;&gt;Node9 -->
<g id="edge22" class="edge">
<title>Node15&#45;&gt;Node9</title>
<path fill="none" stroke="#63b8ff" d="M377.8,-111.62C381.66,-93.92 390.1,-55.24 395.32,-31.32"/>
<polygon fill="#63b8ff" stroke="#63b8ff" points="398.67,-32.35 397.39,-21.83 391.84,-30.86 398.67,-32.35"/>
</g>
<!-- Node15&#45;&gt;Node13 -->
<g id="edge24" class="edge">
<title>Node15&#45;&gt;Node13</title>
<path fill="none" stroke="#63b8ff" d="M401.01,-111.59C426.57,-102.08 466,-87.39 492.56,-77.5"/>
<polygon fill="#63b8ff" stroke="#63b8ff" points="493.51,-80.88 501.66,-74.11 491.07,-74.32 493.51,-80.88"/>
</g>
<!-- Node18&#45;&gt;Node4 -->
<g id="edge38" class="edge">
<title>Node18&#45;&gt;Node4</title>
<path fill="none" stroke="#63b8ff" d="M1515.58,-167.96C1503.4,-153.34 1477.11,-124.85 1447.75,-112 1285.02,-40.8 712.02,-16.88 571.19,-12"/>
<polygon fill="#63b8ff" stroke="#63b8ff" points="571.62,-8.52 561.51,-11.68 571.39,-15.51 571.62,-8.52"/>
</g>
<!-- Node18&#45;&gt;Node9 -->
<g id="edge37" class="edge">
<title>Node18&#45;&gt;Node9</title>
<path fill="none" stroke="#63b8ff" d="M1473.53,-177.41C1316.25,-178.26 827.33,-177.11 676.75,-132 612.64,-112.79 608.05,-82.86 546.75,-56 510.44,-40.09 466.78,-27.49 436.52,-19.72"/>
<polygon fill="#63b8ff" stroke="#63b8ff" points="437.65,-16.39 427.1,-17.35 435.94,-23.18 437.65,-16.39"/>
</g>
<!-- Node18&#45;&gt;Node12 -->
<g id="edge40" class="edge">
<title>Node18&#45;&gt;Node12</title>
<path fill="none" stroke="#63b8ff" d="M1473.67,-175.97C1304.34,-172.22 745.31,-158.12 567.75,-132 566.75,-131.85 565.73,-131.69 564.71,-131.51"/>
<polygon fill="#63b8ff" stroke="#63b8ff" points="565.68,-128.14 555.18,-129.53 564.25,-134.99 565.68,-128.14"/>
</g>
<!-- Node18&#45;&gt;Node13 -->
<g id="edge43" class="edge">
<title>Node18&#45;&gt;Node13</title>
<path fill="none" stroke="#63b8ff" d="M1473.53,-176.29C1294.94,-173.5 687.32,-161.86 605.75,-132 578.37,-121.98 552.62,-99.82 536.78,-84.16"/>
<polygon fill="#63b8ff" stroke="#63b8ff" points="539.61,-82.05 530.12,-77.34 534.6,-86.94 539.61,-82.05"/>
</g>
<!-- Node19 -->
<g id="node19" class="node">
<title>Node19</title>
<g id="a_node19"><a xlink:title=" ">
<polygon fill="#e0e0e0" stroke="#999999" points="1550.62,-132 1494.88,-132 1494.88,-112 1550.62,-112 1550.62,-132"/>
<text text-anchor="middle" x="1522.75" y="-118.5" font-family="Helvetica,sans-Serif" font-size="10.00">algorithm</text>
</a>
</g>
</g>
<!-- Node18&#45;&gt;Node19 -->
<g id="edge31" class="edge">
<title>Node18&#45;&gt;Node19</title>
<path fill="none" stroke="#63b8ff" d="M1522.75,-167.59C1522.75,-161.01 1522.75,-151.96 1522.75,-143.73"/>
<polygon fill="#63b8ff" stroke="#63b8ff" points="1526.25,-143.81 1522.75,-133.81 1519.25,-143.81 1526.25,-143.81"/>
</g>
<!-- Node20 -->
<g id="node20" class="node">
<title>Node20</title>
<g id="a_node20"><a xlink:title=" ">
<polygon fill="#e0e0e0" stroke="#999999" points="1616.88,-132 1568.62,-132 1568.62,-112 1616.88,-112 1616.88,-132"/>
<text text-anchor="middle" x="1592.75" y="-118.5" font-family="Helvetica,sans-Serif" font-size="10.00">cstddef</text>
</a>
</g>
</g>
<!-- Node18&#45;&gt;Node20 -->
<g id="edge32" class="edge">
<title>Node18&#45;&gt;Node20</title>
<path fill="none" stroke="#63b8ff" d="M1534.94,-167.59C1545.08,-159.77 1559.74,-148.46 1571.76,-139.19"/>
<polygon fill="#63b8ff" stroke="#63b8ff" points="1573.72,-142.1 1579.5,-133.22 1569.44,-136.56 1573.72,-142.1"/>
</g>
<!-- Node21 -->
<g id="node21" class="node">
<title>Node21</title>
<g id="a_node21"><a xlink:title=" ">
<polygon fill="#e0e0e0" stroke="#999999" points="1692.75,-132 1634.75,-132 1634.75,-112 1692.75,-112 1692.75,-132"/>
<text text-anchor="middle" x="1663.75" y="-118.5" font-family="Helvetica,sans-Serif" font-size="10.00">functional</text>
</a>
</g>
</g>
<!-- Node18&#45;&gt;Node21 -->
<g id="edge33" class="edge">
<title>Node18&#45;&gt;Node21</title>
<path fill="none" stroke="#63b8ff" d="M1547.31,-167.59C1569.72,-159.01 1603.09,-146.23 1628.37,-136.55"/>
<polygon fill="#63b8ff" stroke="#63b8ff" points="1629.5,-139.87 1637.58,-133.02 1626.99,-133.33 1629.5,-139.87"/>
</g>
<!-- Node22 -->
<g id="node22" class="node">
<title>Node22</title>
<g id="a_node22"><a xlink:title=" ">
<polygon fill="#e0e0e0" stroke="#999999" points="1782.88,-132 1710.62,-132 1710.62,-112 1782.88,-112 1782.88,-132"/>
<text text-anchor="middle" x="1746.75" y="-118.5" font-family="Helvetica,sans-Serif" font-size="10.00">initializer_list</text>
</a>
</g>
</g>
<!-- Node18&#45;&gt;Node22 -->
<g id="edge34" class="edge">
<title>Node18&#45;&gt;Node22</title>
<path fill="none" stroke="#63b8ff" d="M1562.02,-167.53C1600.33,-158.3 1658.63,-144.24 1699.47,-134.4"/>
<polygon fill="#63b8ff" stroke="#63b8ff" points="1700.12,-137.84 1709.02,-132.1 1698.48,-131.04 1700.12,-137.84"/>
</g>
<!-- Node23 -->
<g id="node23" class="node">
<title>Node23</title>
<g id="a_node23"><a xlink:title=" ">
<polygon fill="#e0e0e0" stroke="#999999" points="1845,-132 1800.5,-132 1800.5,-112 1845,-112 1845,-132"/>
<text text-anchor="middle" x="1822.75" y="-118.5" font-family="Helvetica,sans-Serif" font-size="10.00">iosfwd</text>
</a>
</g>
</g>
<!-- Node18&#45;&gt;Node23 -->
<g id="edge35" class="edge">
<title>Node18&#45;&gt;Node23</title>
<path fill="none" stroke="#63b8ff" d="M1572.12,-169.45C1633.44,-159.96 1735.67,-143.73 1789.19,-132.32"/>
<polygon fill="#63b8ff" stroke="#63b8ff" points="1789.66,-135.8 1798.67,-130.22 1788.14,-128.97 1789.66,-135.8"/>
</g>
<!-- Node24 -->
<g id="node24" class="node">
<title>Node24</title>
<g id="a_node24"><a xlink:title=" ">
<polygon fill="#e0e0e0" stroke="#999999" points="1908.75,-132 1862.75,-132 1862.75,-112 1908.75,-112 1908.75,-132"/>
<text text-anchor="middle" x="1885.75" y="-118.5" font-family="Helvetica,sans-Serif" font-size="10.00">iterator</text>
</a>
</g>
</g>
<!-- Node18&#45;&gt;Node24 -->
<g id="edge36" class="edge">
<title>Node18&#45;&gt;Node24</title>
<path fill="none" stroke="#63b8ff" d="M1571.93,-169.93C1576.6,-169.28 1581.26,-168.62 1585.75,-168 1701.19,-152 1734.08,-156.06 1851.2,-132.28"/>
<polygon fill="#63b8ff" stroke="#63b8ff" points="1851.85,-135.72 1860.94,-130.27 1850.44,-128.86 1851.85,-135.72"/>
</g>
<!-- Node25 -->
<g id="node25" class="node">
<title>Node25</title>
<g id="a_node25"><a xlink:title=" ">
<polygon fill="#e0e0e0" stroke="#999999" points="1966.38,-132 1927.12,-132 1927.12,-112 1966.38,-112 1966.38,-132"/>
<text text-anchor="middle" x="1946.75" y="-118.5" font-family="Helvetica,sans-Serif" font-size="10.00">utility</text>
</a>
</g>
</g>
<!-- Node18&#45;&gt;Node25 -->
<g id="edge39" class="edge">
<title>Node18&#45;&gt;Node25</title>
<path fill="none" stroke="#63b8ff" d="M1571.91,-169.81C1576.58,-169.18 1581.26,-168.56 1585.75,-168 1729.42,-149.95 1770.43,-161.54 1915.8,-132"/>
<polygon fill="#63b8ff" stroke="#63b8ff" points="1916.35,-135.47 1925.43,-130.02 1914.93,-128.61 1916.35,-135.47"/>
</g>
<!-- Node26 -->
<g id="node26" class="node">
<title>Node26</title>
<g id="a_node26"><a xlink:title=" ">
<polygon fill="#e0e0e0" stroke="#999999" points="2022.62,-132 1984.88,-132 1984.88,-112 2022.62,-112 2022.62,-132"/>
<text text-anchor="middle" x="2003.75" y="-118.5" font-family="Helvetica,sans-Serif" font-size="10.00">array</text>
</a>
</g>
</g>
<!-- Node18&#45;&gt;Node26 -->
<g id="edge41" class="edge">
<title>Node18&#45;&gt;Node26</title>
<path fill="none" stroke="#63b8ff" d="M1571.9,-169.74C1576.58,-169.12 1581.25,-168.53 1585.75,-168 1755,-148.11 1803.19,-166.06 1973.49,-132.02"/>
<polygon fill="#63b8ff" stroke="#63b8ff" points="1974.03,-135.48 1983.13,-130.06 1972.64,-128.62 1974.03,-135.48"/>
</g>
<!-- Node27 -->
<g id="node27" class="node">
<title>Node27</title>
<g id="a_node27"><a xlink:title=" ">
<polygon fill="#e0e0e0" stroke="#999999" points="2106.88,-132 2040.62,-132 2040.62,-112 2106.88,-112 2106.88,-132"/>
<text text-anchor="middle" x="2073.75" y="-118.5" font-family="Helvetica,sans-Serif" font-size="10.00">forward_list</text>
</a>
</g>
</g>
<!-- Node18&#45;&gt;Node27 -->
<g id="edge42" class="edge">
<title>Node18&#45;&gt;Node27</title>
<path fill="none" stroke="#63b8ff" d="M1571.89,-169.68C1576.57,-169.08 1581.25,-168.5 1585.75,-168 1779.72,-146.34 1833.03,-160.35 2029.08,-132.21"/>
<polygon fill="#63b8ff" stroke="#63b8ff" points="2029.46,-135.69 2038.85,-130.79 2028.45,-128.76 2029.46,-135.69"/>
</g>
<!-- Node28 -->
<g id="node28" class="node">
<title>Node28</title>
<g id="a_node28"><a xlink:title=" ">
<polygon fill="#e0e0e0" stroke="#999999" points="2162.25,-132 2125.25,-132 2125.25,-112 2162.25,-112 2162.25,-132"/>
<text text-anchor="middle" x="2143.75" y="-118.5" font-family="Helvetica,sans-Serif" font-size="10.00">tuple</text>
</a>
</g>
</g>
<!-- Node18&#45;&gt;Node28 -->
<g id="edge44" class="edge">
<title>Node18&#45;&gt;Node28</title>
<path fill="none" stroke="#63b8ff" d="M1571.89,-169.62C1576.57,-169.03 1581.24,-168.47 1585.75,-168 1816.88,-143.67 1881.85,-175.43 2113.76,-131.87"/>
<polygon fill="#63b8ff" stroke="#63b8ff" points="2114.28,-135.33 2123.45,-130.02 2112.97,-128.45 2114.28,-135.33"/>
</g>
<!-- Node29 -->
<g id="node29" class="node">
<title>Node29</title>
<g id="a_node29"><a xlink:title=" ">
<polygon fill="#e0e0e0" stroke="#999999" points="2241.62,-132 2179.88,-132 2179.88,-112 2241.62,-112 2241.62,-132"/>
<text text-anchor="middle" x="2210.75" y="-118.5" font-family="Helvetica,sans-Serif" font-size="10.00">type_traits</text>
</a>
</g>
</g>
<!-- Node18&#45;&gt;Node29 -->
<g id="edge45" class="edge">
<title>Node18&#45;&gt;Node29</title>
<path fill="none" stroke="#63b8ff" d="M1571.88,-169.59C1576.56,-169 1581.24,-168.46 1585.75,-168 1841.66,-141.9 1911.55,-168.68 2168.57,-132.25"/>
<polygon fill="#63b8ff" stroke="#63b8ff" points="2168.86,-135.74 2178.26,-130.85 2167.86,-128.81 2168.86,-135.74"/>
</g>
<!-- Node30 -->
<g id="node30" class="node">
<title>Node30</title>
<g id="a_node30"><a xlink:title=" ">
<polygon fill="#e0e0e0" stroke="#999999" points="2342.12,-132 2259.38,-132 2259.38,-112 2342.12,-112 2342.12,-132"/>
<text text-anchor="middle" x="2300.75" y="-118.5" font-family="Helvetica,sans-Serif" font-size="10.00">unordered_map</text>
</a>
</g>
</g>
<!-- Node18&#45;&gt;Node30 -->
<g id="edge46" class="edge">
<title>Node18&#45;&gt;Node30</title>
<path fill="none" stroke="#63b8ff" d="M1571.88,-169.56C1576.56,-168.98 1581.24,-168.44 1585.75,-168 1876.58,-139.41 1954.78,-165.6 2247.66,-132.22"/>
<polygon fill="#63b8ff" stroke="#63b8ff" points="2248.03,-135.7 2257.56,-131.08 2247.23,-128.75 2248.03,-135.7"/>
</g>
<!-- Node31 -->
<g id="node31" class="node">
<title>Node31</title>
<g id="a_node31"><a xlink:title=" ">
<polygon fill="#e0e0e0" stroke="#999999" points="2411,-132 2360.5,-132 2360.5,-112 2411,-112 2411,-132"/>
<text text-anchor="middle" x="2385.75" y="-118.5" font-family="Helvetica,sans-Serif" font-size="10.00">valarray</text>
</a>
</g>
</g>
<!-- Node18&#45;&gt;Node31 -->
<g id="edge47" class="edge">
<title>Node18&#45;&gt;Node31</title>
<path fill="none" stroke="#63b8ff" d="M1571.88,-169.52C1576.56,-168.95 1581.24,-168.43 1585.75,-168 1920.97,-136.24 2012.21,-181.65 2349.19,-131.85"/>
<polygon fill="#63b8ff" stroke="#63b8ff" points="2349.39,-135.36 2358.76,-130.42 2348.36,-128.44 2349.39,-135.36"/>
</g>
<!-- Node32 -->
<g id="node32" class="node">
<title>Node32</title>
<g id="a_node32"><a xlink:title=" ">
<polygon fill="#e0e0e0" stroke="#999999" points="2486.75,-132 2428.75,-132 2428.75,-112 2486.75,-112 2486.75,-132"/>
<text text-anchor="middle" x="2457.75" y="-118.5" font-family="Helvetica,sans-Serif" font-size="10.00">exception</text>
</a>
</g>
</g>
<!-- Node18&#45;&gt;Node32 -->
<g id="edge48" class="edge">
<title>Node18&#45;&gt;Node32</title>
<path fill="none" stroke="#63b8ff" d="M1571.88,-169.5C1576.56,-168.93 1581.24,-168.42 1585.75,-168 1951.48,-134.07 2050.29,-182 2417.18,-132.08"/>
<polygon fill="#63b8ff" stroke="#63b8ff" points="2417.47,-135.57 2426.9,-130.74 2416.51,-128.64 2417.47,-135.57"/>
</g>
<!-- Node18&#45;&gt;Node33 -->
<g id="edge49" class="edge">
<title>Node18&#45;&gt;Node33</title>
<path fill="none" stroke="#63b8ff" d="M1571.87,-169.45C1576.55,-168.89 1581.24,-168.39 1585.75,-168 2095.86,-123.78 2232.42,-198.67 2742.63,-132.14"/>
<polygon fill="#63b8ff" stroke="#63b8ff" points="2743.03,-135.62 2752.48,-130.85 2742.11,-128.68 2743.03,-135.62"/>
</g>
<!-- Node34 -->
<g id="node34" class="node">
<title>Node34</title>
<g id="a_node34"><a xlink:title=" ">
<polygon fill="#e0e0e0" stroke="#999999" points="2550.38,-132 2505.12,-132 2505.12,-112 2550.38,-112 2550.38,-132"/>
<text text-anchor="middle" x="2527.75" y="-118.5" font-family="Helvetica,sans-Serif" font-size="10.00">cstdint</text>
</a>
</g>
</g>
<!-- Node18&#45;&gt;Node34 -->
<g id="edge50" class="edge">
<title>Node18&#45;&gt;Node34</title>
<path fill="none" stroke="#63b8ff" d="M1571.87,-169.49C1576.56,-168.92 1581.24,-168.41 1585.75,-168 1985.11,-131.67 2093.95,-194.05 2493.52,-131.92"/>
<polygon fill="#63b8ff" stroke="#63b8ff" points="2493.99,-135.39 2503.33,-130.38 2492.9,-128.48 2493.99,-135.39"/>
</g>
<!-- Node35 -->
<g id="node35" class="node">
<title>Node35</title>
<g id="a_node35"><a xlink:title=" ">
<polygon fill="#e0e0e0" stroke="#999999" points="2613,-132 2568.5,-132 2568.5,-112 2613,-112 2613,-132"/>
<text text-anchor="middle" x="2590.75" y="-118.5" font-family="Helvetica,sans-Serif" font-size="10.00">cstdlib</text>
</a>
</g>
</g>
<!-- Node18&#45;&gt;Node35 -->
<g id="edge51" class="edge">
<title>Node18&#45;&gt;Node35</title>
<path fill="none" stroke="#63b8ff" d="M1571.87,-169.47C1576.56,-168.91 1581.24,-168.4 1585.75,-168 2013.52,-129.65 2130.09,-199.69 2557.1,-132.02"/>
<polygon fill="#63b8ff" stroke="#63b8ff" points="2557.4,-135.52 2566.72,-130.48 2556.29,-128.6 2557.4,-135.52"/>
</g>
<!-- Node36 -->
<g id="node36" class="node">
<title>Node36</title>
<g id="a_node36"><a xlink:title=" ">
<polygon fill="#e0e0e0" stroke="#999999" points="2678.88,-132 2630.62,-132 2630.62,-112 2678.88,-112 2678.88,-132"/>
<text text-anchor="middle" x="2654.75" y="-118.5" font-family="Helvetica,sans-Serif" font-size="10.00">cassert</text>
</a>
</g>
</g>
<!-- Node18&#45;&gt;Node36 -->
<g id="edge52" class="edge">
<title>Node18&#45;&gt;Node36</title>
<path fill="none" stroke="#63b8ff" d="M1571.87,-169.46C1576.55,-168.9 1581.24,-168.4 1585.75,-168 2040.98,-127.69 2164.25,-199.89 2619.22,-132.01"/>
<polygon fill="#63b8ff" stroke="#63b8ff" points="2619.51,-135.5 2628.88,-130.55 2618.47,-128.58 2619.51,-135.5"/>
</g>
<!-- Node37 -->
<g id="node37" class="node">
<title>Node37</title>
<g id="a_node37"><a xlink:title=" ">
<polygon fill="#e0e0e0" stroke="#999999" points="2736.38,-132 2697.12,-132 2697.12,-112 2736.38,-112 2736.38,-132"/>
<text text-anchor="middle" x="2716.75" y="-118.5" font-family="Helvetica,sans-Serif" font-size="10.00">limits</text>
</a>
</g>
</g>
<!-- Node18&#45;&gt;Node37 -->
<g id="edge53" class="edge">
<title>Node18&#45;&gt;Node37</title>
<path fill="none" stroke="#63b8ff" d="M1571.87,-169.45C1576.55,-168.89 1581.24,-168.39 1585.75,-168 1826.26,-146.96 2428.15,-171.92 2685.39,-131.83"/>
<polygon fill="#63b8ff" stroke="#63b8ff" points="2685.84,-135.31 2695.14,-130.24 2684.71,-128.4 2685.84,-135.31"/>
</g>
<!-- Node38 -->
<g id="node38" class="node">
<title>Node38</title>
<g id="a_node38"><a xlink:title=" ">
<polygon fill="#e0e0e0" stroke="#999999" points="731.38,-132 686.12,-132 686.12,-112 731.38,-112 731.38,-132"/>
<text text-anchor="middle" x="708.75" y="-118.5" font-family="Helvetica,sans-Serif" font-size="10.00">cstring</text>
</a>
</g>
</g>
<!-- Node18&#45;&gt;Node38 -->
<g id="edge54" class="edge">
<title>Node18&#45;&gt;Node38</title>
<path fill="none" stroke="#63b8ff" d="M1473.46,-175.56C1328.35,-171.11 903.32,-156.47 742.78,-131.88"/>
<polygon fill="#63b8ff" stroke="#63b8ff" points="743.61,-128.47 733.18,-130.33 742.5,-135.38 743.61,-128.47"/>
</g>
<!-- Node39 -->
<g id="node39" class="node">
<title>Node39</title>
<g id="a_node39"><a xlink:title=" ">
<polygon fill="#e0e0e0" stroke="#999999" points="792.25,-132 749.25,-132 749.25,-112 792.25,-112 792.25,-132"/>
<text text-anchor="middle" x="770.75" y="-118.5" font-family="Helvetica,sans-Serif" font-size="10.00">cmath</text>
</a>
</g>
</g>
<!-- Node18&#45;&gt;Node39 -->
<g id="edge55" class="edge">
<title>Node18&#45;&gt;Node39</title>
<path fill="none" stroke="#63b8ff" d="M1473.79,-177.64C1358.36,-178.35 1060.25,-175.6 803.66,-131.91"/>
<polygon fill="#63b8ff" stroke="#63b8ff" points="804.57,-128.51 794.12,-130.26 803.37,-135.41 804.57,-128.51"/>
</g>
<!-- Node40 -->
<g id="node40" class="node">
<title>Node40</title>
<g id="a_node40"><a xlink:title=" ">
<polygon fill="#e0e0e0" stroke="#999999" points="852.88,-132 810.62,-132 810.62,-112 852.88,-112 852.88,-132"/>
<text text-anchor="middle" x="831.75" y="-118.5" font-family="Helvetica,sans-Serif" font-size="10.00">cstdio</text>
</a>
</g>
</g>
<!-- Node18&#45;&gt;Node40 -->
<g id="edge56" class="edge">
<title>Node18&#45;&gt;Node40</title>
<path fill="none" stroke="#63b8ff" d="M1473.78,-177.39C1365.25,-177.44 1096.38,-173.2 864.26,-132.06"/>
<polygon fill="#63b8ff" stroke="#63b8ff" points="865.19,-128.67 854.73,-130.34 863.95,-135.56 865.19,-128.67"/>
</g>
<!-- Node41 -->
<g id="node41" class="node">
<title>Node41</title>
<g id="a_node41"><a xlink:title=" ">
<polygon fill="#e0e0e0" stroke="#999999" points="921,-132 870.5,-132 870.5,-112 921,-112 921,-132"/>
<text text-anchor="middle" x="895.75" y="-118.5" font-family="Helvetica,sans-Serif" font-size="10.00">numeric</text>
</a>
</g>
</g>
<!-- Node18&#45;&gt;Node41 -->
<g id="edge57" class="edge">
<title>Node18&#45;&gt;Node41</title>
<path fill="none" stroke="#63b8ff" d="M1473.57,-176.3C1373.35,-174.23 1138.24,-166.04 932.58,-132.18"/>
<polygon fill="#63b8ff" stroke="#63b8ff" points="933.19,-128.74 922.75,-130.54 932.04,-135.64 933.19,-128.74"/>
</g>
<!-- Node42 -->
<g id="node42" class="node">
<title>Node42</title>
<g id="a_node42"><a xlink:title=" ">
<polygon fill="#e0e0e0" stroke="#999999" points="998.5,-132 939,-132 939,-112 998.5,-112 998.5,-132"/>
<text text-anchor="middle" x="968.75" y="-118.5" font-family="Helvetica,sans-Serif" font-size="10.00">streambuf</text>
</a>
</g>
</g>
<!-- Node18&#45;&gt;Node42 -->
<g id="edge58" class="edge">
<title>Node18&#45;&gt;Node42</title>
<path fill="none" stroke="#63b8ff" d="M1473.48,-174.99C1383.4,-170.81 1186.02,-159.36 1010.18,-132.17"/>
<polygon fill="#63b8ff" stroke="#63b8ff" points="1010.82,-128.72 1000.4,-130.63 1009.73,-135.64 1010.82,-128.72"/>
</g>
<!-- Node43 -->
<g id="node43" class="node">
<title>Node43</title>
<g id="a_node43"><a xlink:title=" ">
<polygon fill="#e0e0e0" stroke="#999999" points="1064.88,-132 1016.62,-132 1016.62,-112 1064.88,-112 1064.88,-132"/>
<text text-anchor="middle" x="1040.75" y="-118.5" font-family="Helvetica,sans-Serif" font-size="10.00">istream</text>
</a>
</g>
</g>
<!-- Node18&#45;&gt;Node43 -->
<g id="edge59" class="edge">
<title>Node18&#45;&gt;Node43</title>
<path fill="none" stroke="#63b8ff" d="M1473.67,-174.62C1392.89,-170.15 1226.76,-158.64 1076.42,-131.99"/>
<polygon fill="#63b8ff" stroke="#63b8ff" points="1077.11,-128.56 1066.65,-130.23 1075.87,-135.44 1077.11,-128.56"/>
</g>
<!-- Node44 -->
<g id="node44" class="node">
<title>Node44</title>
<g id="a_node44"><a xlink:title=" ">
<polygon fill="#e0e0e0" stroke="#999999" points="1130.12,-132 1083.38,-132 1083.38,-112 1130.12,-112 1130.12,-132"/>
<text text-anchor="middle" x="1106.75" y="-118.5" font-family="Helvetica,sans-Serif" font-size="10.00">clocale</text>
</a>
</g>
</g>
<!-- Node18&#45;&gt;Node44 -->
<g id="edge60" class="edge">
<title>Node18&#45;&gt;Node44</title>
<path fill="none" stroke="#63b8ff" d="M1473.57,-173.73C1402.3,-168.44 1266.05,-156.3 1141.64,-132.31"/>
<polygon fill="#63b8ff" stroke="#63b8ff" points="1142.39,-128.89 1131.9,-130.4 1141.04,-135.76 1142.39,-128.89"/>
</g>
<!-- Node45 -->
<g id="node45" class="node">
<title>Node45</title>
<g id="a_node45"><a xlink:title=" ">
<polygon fill="#e0e0e0" stroke="#999999" points="1193.38,-132 1148.12,-132 1148.12,-112 1193.38,-112 1193.38,-132"/>
<text text-anchor="middle" x="1170.75" y="-118.5" font-family="Helvetica,sans-Serif" font-size="10.00">cctype</text>
</a>
</g>
</g>
<!-- Node18&#45;&gt;Node45 -->
<g id="edge61" class="edge">
<title>Node18&#45;&gt;Node45</title>
<path fill="none" stroke="#63b8ff" d="M1473.6,-172.17C1412.7,-165.72 1305.6,-152.89 1204.73,-132.16"/>
<polygon fill="#63b8ff" stroke="#63b8ff" points="1205.72,-128.79 1195.21,-130.17 1204.29,-135.64 1205.72,-128.79"/>
</g>
<!-- Node46 -->
<g id="node46" class="node">
<title>Node46</title>
<g id="a_node46"><a xlink:title=" ">
<polygon fill="#e0e0e0" stroke="#999999" points="1254.25,-132 1211.25,-132 1211.25,-112 1254.25,-112 1254.25,-132"/>
<text text-anchor="middle" x="1232.75" y="-118.5" font-family="Helvetica,sans-Serif" font-size="10.00">cerrno</text>
</a>
</g>
</g>
<!-- Node18&#45;&gt;Node46 -->
<g id="edge62" class="edge">
<title>Node18&#45;&gt;Node46</title>
<path fill="none" stroke="#63b8ff" d="M1473.74,-170.14C1423.76,-162.77 1343.81,-149.98 1265.69,-132.23"/>
<polygon fill="#63b8ff" stroke="#63b8ff" points="1266.69,-128.87 1256.16,-130.03 1265.12,-135.69 1266.69,-128.87"/>
</g>
<!-- Node47 -->
<g id="node47" class="node">
<title>Node47</title>
<g id="a_node47"><a xlink:title=" ">
<polygon fill="#e0e0e0" stroke="#999999" points="1301.15,-132 1272.35,-132 1272.35,-112 1301.15,-112 1301.15,-132"/>
<text text-anchor="middle" x="1286.75" y="-118.5" font-family="Helvetica,sans-Serif" font-size="10.00">ios</text>
</a>
</g>
</g>
<!-- Node18&#45;&gt;Node47 -->
<g id="edge63" class="edge">
<title>Node18&#45;&gt;Node47</title>
<path fill="none" stroke="#63b8ff" d="M1473.53,-168.98C1432.45,-161.76 1372.27,-149.95 1312.06,-132.32"/>
<polygon fill="#63b8ff" stroke="#63b8ff" points="1313.26,-129.02 1302.67,-129.51 1311.25,-135.73 1313.26,-129.02"/>
</g>
<!-- Node48 -->
<g id="node48" class="node">
<title>Node48</title>
<g id="a_node48"><a xlink:title=" ">
<polygon fill="#e0e0e0" stroke="#999999" points="1370.38,-132 1319.12,-132 1319.12,-112 1370.38,-112 1370.38,-132"/>
<text text-anchor="middle" x="1344.75" y="-118.5" font-family="Helvetica,sans-Serif" font-size="10.00">ostream</text>
</a>
</g>
</g>
<!-- Node18&#45;&gt;Node48 -->
<g id="edge64" class="edge">
<title>Node18&#45;&gt;Node48</title>
<path fill="none" stroke="#63b8ff" d="M1491.74,-167.59C1461.09,-158.3 1414.19,-144.07 1381.64,-134.19"/>
<polygon fill="#63b8ff" stroke="#63b8ff" points="1382.81,-130.89 1372.22,-131.33 1380.78,-137.59 1382.81,-130.89"/>
</g>
<!-- Node49 -->
<g id="node49" class="node">
<title>Node49</title>
<g id="a_node49"><a xlink:title=" ">
<polygon fill="#e0e0e0" stroke="#999999" points="1438.62,-132 1388.88,-132 1388.88,-112 1438.62,-112 1438.62,-132"/>
<text text-anchor="middle" x="1413.75" y="-118.5" font-family="Helvetica,sans-Serif" font-size="10.00">iomanip</text>
</a>
</g>
</g>
<!-- Node18&#45;&gt;Node49 -->
<g id="edge65" class="edge">
<title>Node18&#45;&gt;Node49</title>
<path fill="none" stroke="#63b8ff" d="M1503.76,-167.59C1486.99,-159.28 1462.26,-147.03 1442.96,-137.47"/>
<polygon fill="#63b8ff" stroke="#63b8ff" points="1444.76,-134.45 1434.24,-133.15 1441.65,-140.73 1444.76,-134.45"/>
</g>
</g>
</svg>
