<?xml version="1.0" encoding="UTF-8" standalone="no"?>
<!DOCTYPE svg PUBLIC "-//W3C//DTD SVG 1.1//EN"
 "http://www.w3.org/Graphics/SVG/1.1/DTD/svg11.dtd">
<!-- Generated by graphviz version 12.2.1 (20241206.2353)
 -->
<!-- Title: src/scenes/SceneCombat.cpp Pages: 1 -->
<svg width="550pt" height="308pt"
 viewBox="0.00 0.00 550.30 308.00" xmlns="http://www.w3.org/2000/svg" xmlns:xlink="http://www.w3.org/1999/xlink">
<g id="graph0" class="graph" transform="scale(1 1) rotate(0) translate(4 304)">
<title>src/scenes/SceneCombat.cpp</title>
<!-- Node1 -->
<g id="node1" class="node">
<title>Node1</title>
<g id="a_node1"><a xlink:title=" ">
<polygon fill="#999999" stroke="#666666" points="376.75,-300 228.75,-300 228.75,-280 376.75,-280 376.75,-300"/>
<text text-anchor="middle" x="302.75" y="-286.5" font-family="Helvetica,sans-Serif" font-size="10.00">src/scenes/SceneCombat.cpp</text>
</a>
</g>
</g>
<!-- Node2 -->
<g id="node2" class="node">
<title>Node2</title>
<g id="a_node2"><a xlink:href="SceneCombat_8h.html" target="_top" xlink:title=" ">
<polygon fill="white" stroke="#666666" points="261,-244 174.5,-244 174.5,-224 261,-224 261,-244"/>
<text text-anchor="middle" x="217.75" y="-230.5" font-family="Helvetica,sans-Serif" font-size="10.00">SceneCombat.h</text>
</a>
</g>
</g>
<!-- Node1&#45;&gt;Node2 -->
<g id="edge1" class="edge">
<title>Node1&#45;&gt;Node2</title>
<path fill="none" stroke="#63b8ff" d="M287.94,-279.59C275.35,-271.59 257,-259.93 242.22,-250.54"/>
<polygon fill="#63b8ff" stroke="#63b8ff" points="244.27,-247.7 233.95,-245.29 240.51,-253.61 244.27,-247.7"/>
</g>
<!-- Node9 -->
<g id="node9" class="node">
<title>Node9</title>
<g id="a_node9"><a xlink:title=" ">
<polygon fill="#e0e0e0" stroke="#999999" points="53.5,-132 0,-132 0,-112 53.5,-112 53.5,-132"/>
<text text-anchor="middle" x="26.75" y="-118.5" font-family="Helvetica,sans-Serif" font-size="10.00">iostream</text>
</a>
</g>
</g>
<!-- Node1&#45;&gt;Node9 -->
<g id="edge28" class="edge">
<title>Node1&#45;&gt;Node9</title>
<path fill="none" stroke="#63b8ff" d="M252.92,-279.59C199.58,-267.15 115.54,-240.38 62.75,-188 49.87,-175.22 40.28,-156.87 34.25,-142.92"/>
<polygon fill="#63b8ff" stroke="#63b8ff" points="37.58,-141.83 30.59,-133.86 31.09,-144.45 37.58,-141.83"/>
</g>
<!-- Node16 -->
<g id="node16" class="node">
<title>Node16</title>
<g id="a_node16"><a xlink:title=" ">
<polygon fill="#e0e0e0" stroke="#999999" points="326.88,-244 278.62,-244 278.62,-224 326.88,-224 326.88,-244"/>
<text text-anchor="middle" x="302.75" y="-230.5" font-family="Helvetica,sans-Serif" font-size="10.00">random</text>
</a>
</g>
</g>
<!-- Node1&#45;&gt;Node16 -->
<g id="edge29" class="edge">
<title>Node1&#45;&gt;Node16</title>
<path fill="none" stroke="#63b8ff" d="M302.75,-279.59C302.75,-273.01 302.75,-263.96 302.75,-255.73"/>
<polygon fill="#63b8ff" stroke="#63b8ff" points="306.25,-255.81 302.75,-245.81 299.25,-255.81 306.25,-255.81"/>
</g>
<!-- Node17 -->
<g id="node17" class="node">
<title>Node17</title>
<g id="a_node17"><a xlink:title=" ">
<polygon fill="#e0e0e0" stroke="#999999" points="400.62,-244 344.88,-244 344.88,-224 400.62,-224 400.62,-244"/>
<text text-anchor="middle" x="372.75" y="-230.5" font-family="Helvetica,sans-Serif" font-size="10.00">algorithm</text>
</a>
</g>
</g>
<!-- Node1&#45;&gt;Node17 -->
<g id="edge30" class="edge">
<title>Node1&#45;&gt;Node17</title>
<path fill="none" stroke="#63b8ff" d="M314.94,-279.59C325.08,-271.77 339.74,-260.46 351.76,-251.19"/>
<polygon fill="#63b8ff" stroke="#63b8ff" points="353.72,-254.1 359.5,-245.22 349.44,-248.56 353.72,-254.1"/>
</g>
<!-- Node18 -->
<g id="node18" class="node">
<title>Node18</title>
<g id="a_node18"><a xlink:title=" ">
<polygon fill="#e0e0e0" stroke="#999999" points="461.25,-244 418.25,-244 418.25,-224 461.25,-224 461.25,-244"/>
<text text-anchor="middle" x="439.75" y="-230.5" font-family="Helvetica,sans-Serif" font-size="10.00">cmath</text>
</a>
</g>
</g>
<!-- Node1&#45;&gt;Node18 -->
<g id="edge31" class="edge">
<title>Node1&#45;&gt;Node18</title>
<path fill="none" stroke="#63b8ff" d="M326.61,-279.59C348.95,-270.79 382.51,-257.56 407.28,-247.8"/>
<polygon fill="#63b8ff" stroke="#63b8ff" points="408.54,-251.06 416.56,-244.14 405.97,-244.55 408.54,-251.06"/>
</g>
<!-- Node3 -->
<g id="node3" class="node">
<title>Node3</title>
<g id="a_node3"><a xlink:href="Scene_8h.html" target="_top" xlink:title=" ">
<polygon fill="white" stroke="#666666" points="123.75,-188 71.75,-188 71.75,-168 123.75,-168 123.75,-188"/>
<text text-anchor="middle" x="97.75" y="-174.5" font-family="Helvetica,sans-Serif" font-size="10.00">Scene.h</text>
</a>
</g>
</g>
<!-- Node2&#45;&gt;Node3 -->
<g id="edge2" class="edge">
<title>Node2&#45;&gt;Node3</title>
<path fill="none" stroke="#63b8ff" d="M196.85,-223.59C178.12,-215.17 150.39,-202.69 129.03,-193.07"/>
<polygon fill="#63b8ff" stroke="#63b8ff" points="130.75,-190.01 120.2,-189.1 127.88,-196.4 130.75,-190.01"/>
</g>
<!-- Node4 -->
<g id="node4" class="node">
<title>Node4</title>
<g id="a_node4"><a xlink:href="GameEngine_8h.html" target="_top" xlink:title=" ">
<polygon fill="white" stroke="#666666" points="190,-132 109.5,-132 109.5,-112 190,-112 190,-132"/>
<text text-anchor="middle" x="149.75" y="-118.5" font-family="Helvetica,sans-Serif" font-size="10.00">GameEngine.h</text>
</a>
</g>
</g>
<!-- Node2&#45;&gt;Node4 -->
<g id="edge11" class="edge">
<title>Node2&#45;&gt;Node4</title>
<path fill="none" stroke="#63b8ff" d="M211.95,-223.62C200.81,-205.6 176.22,-165.81 161.51,-142.02"/>
<polygon fill="#63b8ff" stroke="#63b8ff" points="164.56,-140.31 156.33,-133.64 158.61,-143.99 164.56,-140.31"/>
</g>
<!-- Node6 -->
<g id="node6" class="node">
<title>Node6</title>
<g id="a_node6"><a xlink:title=" ">
<polygon fill="#e0e0e0" stroke="#999999" points="291.38,-20 240.12,-20 240.12,0 291.38,0 291.38,-20"/>
<text text-anchor="middle" x="265.75" y="-6.5" font-family="Helvetica,sans-Serif" font-size="10.00">memory</text>
</a>
</g>
</g>
<!-- Node2&#45;&gt;Node6 -->
<g id="edge26" class="edge">
<title>Node2&#45;&gt;Node6</title>
<path fill="none" stroke="#63b8ff" d="M216.5,-223.75C213.24,-196.77 206.29,-116.27 229.75,-56 233.71,-45.81 240.85,-36.13 247.73,-28.37"/>
<polygon fill="#63b8ff" stroke="#63b8ff" points="250.08,-30.98 254.44,-21.33 245.01,-26.15 250.08,-30.98"/>
</g>
<!-- Node8 -->
<g id="node8" class="node">
<title>Node8</title>
<g id="a_node8"><a xlink:title=" ">
<polygon fill="#e0e0e0" stroke="#999999" points="273.12,-76 238.38,-76 238.38,-56 273.12,-56 273.12,-76"/>
<text text-anchor="middle" x="255.75" y="-62.5" font-family="Helvetica,sans-Serif" font-size="10.00">map</text>
</a>
</g>
</g>
<!-- Node2&#45;&gt;Node8 -->
<g id="edge27" class="edge">
<title>Node2&#45;&gt;Node8</title>
<path fill="none" stroke="#63b8ff" d="M220.94,-223.77C223.98,-214.73 228.57,-200.53 231.75,-188 240.6,-153.16 248.16,-112 252.32,-87.77"/>
<polygon fill="#63b8ff" stroke="#63b8ff" points="255.76,-88.42 253.97,-77.98 248.86,-87.26 255.76,-88.42"/>
</g>
<!-- Node10 -->
<g id="node10" class="node">
<title>Node10</title>
<g id="a_node10"><a xlink:href="ManagerEntity_8h.html" target="_top" xlink:title=" ">
<polygon fill="white" stroke="#666666" points="424.62,-188 338.88,-188 338.88,-168 424.62,-168 424.62,-188"/>
<text text-anchor="middle" x="381.75" y="-174.5" font-family="Helvetica,sans-Serif" font-size="10.00">ManagerEntity.h</text>
</a>
</g>
</g>
<!-- Node2&#45;&gt;Node10 -->
<g id="edge12" class="edge">
<title>Node2&#45;&gt;Node10</title>
<path fill="none" stroke="#63b8ff" d="M246.32,-223.59C272.85,-214.86 312.59,-201.77 342.17,-192.03"/>
<polygon fill="#63b8ff" stroke="#63b8ff" points="343.12,-195.4 351.52,-188.95 340.93,-188.76 343.12,-195.4"/>
</g>
<!-- Node12 -->
<g id="node12" class="node">
<title>Node12</title>
<g id="a_node12"><a xlink:href="Components_8h.html" target="_top" xlink:title=" ">
<polygon fill="white" stroke="#666666" points="408.62,-76 328.88,-76 328.88,-56 408.62,-56 408.62,-76"/>
<text text-anchor="middle" x="368.75" y="-62.5" font-family="Helvetica,sans-Serif" font-size="10.00">Components.h</text>
</a>
</g>
</g>
<!-- Node2&#45;&gt;Node12 -->
<g id="edge25" class="edge">
<title>Node2&#45;&gt;Node12</title>
<path fill="none" stroke="#63b8ff" d="M226.3,-223.6C250.7,-196.78 320.93,-119.57 352.74,-84.6"/>
<polygon fill="#63b8ff" stroke="#63b8ff" points="355.13,-87.17 359.27,-77.42 349.96,-82.46 355.13,-87.17"/>
</g>
<!-- Node3&#45;&gt;Node3 -->
<g id="edge3" class="edge">
<title>Node3&#45;&gt;Node3</title>
<path fill="none" stroke="#63b8ff" d="M123.95,-188.48C133.71,-188.82 141.75,-185.33 141.75,-178 141.75,-173.88 139.21,-170.97 135.24,-169.27"/>
<polygon fill="#63b8ff" stroke="#63b8ff" points="135.86,-165.83 125.45,-167.76 134.79,-172.75 135.86,-165.83"/>
</g>
<!-- Node3&#45;&gt;Node4 -->
<g id="edge4" class="edge">
<title>Node3&#45;&gt;Node4</title>
<path fill="none" stroke="#63b8ff" d="M106.81,-167.59C113.97,-160.16 124.16,-149.58 132.82,-140.58"/>
<polygon fill="#63b8ff" stroke="#63b8ff" points="135.33,-143.02 139.75,-133.39 130.29,-138.16 135.33,-143.02"/>
</g>
<!-- Node5 -->
<g id="node5" class="node">
<title>Node5</title>
<g id="a_node5"><a xlink:title=" ">
<polygon fill="#e0e0e0" stroke="#999999" points="186.25,-20 83.25,-20 83.25,0 186.25,0 186.25,-20"/>
<text text-anchor="middle" x="134.75" y="-6.5" font-family="Helvetica,sans-Serif" font-size="10.00">SFML/Graphics.hpp</text>
</a>
</g>
</g>
<!-- Node3&#45;&gt;Node5 -->
<g id="edge9" class="edge">
<title>Node3&#45;&gt;Node5</title>
<path fill="none" stroke="#63b8ff" d="M97.37,-167.65C97.04,-154.94 97.08,-131.54 100.75,-112 106.2,-82.95 118.09,-50.83 126.26,-30.78"/>
<polygon fill="#63b8ff" stroke="#63b8ff" points="129.45,-32.21 130.08,-21.63 122.99,-29.51 129.45,-32.21"/>
</g>
<!-- Node3&#45;&gt;Node9 -->
<g id="edge10" class="edge">
<title>Node3&#45;&gt;Node9</title>
<path fill="none" stroke="#63b8ff" d="M85.38,-167.59C75.1,-159.77 60.23,-148.46 48.04,-139.19"/>
<polygon fill="#63b8ff" stroke="#63b8ff" points="50.26,-136.48 40.18,-133.21 46.02,-142.05 50.26,-136.48"/>
</g>
<!-- Node4&#45;&gt;Node5 -->
<g id="edge5" class="edge">
<title>Node4&#45;&gt;Node5</title>
<path fill="none" stroke="#63b8ff" d="M148.47,-111.62C146.07,-94.01 140.83,-55.59 137.57,-31.65"/>
<polygon fill="#63b8ff" stroke="#63b8ff" points="141.05,-31.29 136.23,-21.85 134.11,-32.24 141.05,-31.29"/>
</g>
<!-- Node4&#45;&gt;Node6 -->
<g id="edge6" class="edge">
<title>Node4&#45;&gt;Node6</title>
<path fill="none" stroke="#63b8ff" d="M154.92,-111.79C162.74,-98.4 178.6,-73.29 196.75,-56 208.96,-44.36 224.56,-33.9 237.84,-25.99"/>
<polygon fill="#63b8ff" stroke="#63b8ff" points="239.21,-29.24 246.14,-21.23 235.73,-23.18 239.21,-29.24"/>
</g>
<!-- Node7 -->
<g id="node7" class="node">
<title>Node7</title>
<g id="a_node7"><a xlink:title=" ">
<polygon fill="#e0e0e0" stroke="#999999" points="509.75,-20 469.75,-20 469.75,0 509.75,0 509.75,-20"/>
<text text-anchor="middle" x="489.75" y="-6.5" font-family="Helvetica,sans-Serif" font-size="10.00">string</text>
</a>
</g>
</g>
<!-- Node4&#45;&gt;Node7 -->
<g id="edge7" class="edge">
<title>Node4&#45;&gt;Node7</title>
<path fill="none" stroke="#63b8ff" d="M190.47,-121.14C244.92,-119.82 343.21,-112.04 417.75,-76 440.85,-64.83 461.96,-43.93 475.26,-28.84"/>
<polygon fill="#63b8ff" stroke="#63b8ff" points="477.7,-31.37 481.51,-21.49 472.37,-26.84 477.7,-31.37"/>
</g>
<!-- Node4&#45;&gt;Node8 -->
<g id="edge8" class="edge">
<title>Node4&#45;&gt;Node8</title>
<path fill="none" stroke="#63b8ff" d="M168.21,-111.59C184.75,-103.17 209.24,-90.69 228.11,-81.08"/>
<polygon fill="#63b8ff" stroke="#63b8ff" points="229.53,-84.28 236.85,-76.63 226.35,-78.05 229.53,-84.28"/>
</g>
<!-- Node10&#45;&gt;Node7 -->
<g id="edge23" class="edge">
<title>Node10&#45;&gt;Node7</title>
<path fill="none" stroke="#63b8ff" d="M416.07,-167.5C455.48,-154.42 517.55,-126.52 539.75,-76 547.94,-57.37 531.39,-39.28 515.18,-26.93"/>
<polygon fill="#63b8ff" stroke="#63b8ff" points="517.29,-24.14 507.1,-21.24 513.26,-29.86 517.29,-24.14"/>
</g>
<!-- Node10&#45;&gt;Node8 -->
<g id="edge24" class="edge">
<title>Node10&#45;&gt;Node8</title>
<path fill="none" stroke="#63b8ff" d="M371.01,-167.62C349.71,-149.03 301.89,-107.28 275.02,-83.82"/>
<polygon fill="#63b8ff" stroke="#63b8ff" points="277.44,-81.29 267.61,-77.35 272.84,-86.56 277.44,-81.29"/>
</g>
<!-- Node11 -->
<g id="node11" class="node">
<title>Node11</title>
<g id="a_node11"><a xlink:href="Entity_8h.html" target="_top" xlink:title=" ">
<polygon fill="white" stroke="#666666" points="469.88,-132 421.62,-132 421.62,-112 469.88,-112 469.88,-132"/>
<text text-anchor="middle" x="445.75" y="-118.5" font-family="Helvetica,sans-Serif" font-size="10.00">Entity.h</text>
</a>
</g>
</g>
<!-- Node10&#45;&gt;Node11 -->
<g id="edge13" class="edge">
<title>Node10&#45;&gt;Node11</title>
<path fill="none" stroke="#63b8ff" d="M392.9,-167.59C402.08,-159.85 415.3,-148.69 426.23,-139.47"/>
<polygon fill="#63b8ff" stroke="#63b8ff" points="428.19,-142.4 433.57,-133.27 423.67,-137.05 428.19,-142.4"/>
</g>
<!-- Node15 -->
<g id="node15" class="node">
<title>Node15</title>
<g id="a_node15"><a xlink:title=" ">
<polygon fill="#e0e0e0" stroke="#999999" points="403.25,-132 360.25,-132 360.25,-112 403.25,-112 403.25,-132"/>
<text text-anchor="middle" x="381.75" y="-118.5" font-family="Helvetica,sans-Serif" font-size="10.00">vector</text>
</a>
</g>
</g>
<!-- Node10&#45;&gt;Node15 -->
<g id="edge22" class="edge">
<title>Node10&#45;&gt;Node15</title>
<path fill="none" stroke="#63b8ff" d="M381.75,-167.59C381.75,-161.01 381.75,-151.96 381.75,-143.73"/>
<polygon fill="#63b8ff" stroke="#63b8ff" points="385.25,-143.81 381.75,-133.81 378.25,-143.81 385.25,-143.81"/>
</g>
<!-- Node11&#45;&gt;Node6 -->
<g id="edge19" class="edge">
<title>Node11&#45;&gt;Node6</title>
<path fill="none" stroke="#63b8ff" d="M421.16,-113.91C389.47,-104.5 336.45,-87.68 319.75,-76 302.14,-63.69 287.01,-44.19 277.28,-29.76"/>
<polygon fill="#63b8ff" stroke="#63b8ff" points="280.37,-28.1 272.01,-21.59 274.49,-31.89 280.37,-28.1"/>
</g>
<!-- Node11&#45;&gt;Node7 -->
<g id="edge20" class="edge">
<title>Node11&#45;&gt;Node7</title>
<path fill="none" stroke="#63b8ff" d="M470.25,-114.16C488.57,-107.62 512.33,-95.77 523.75,-76 532.95,-60.08 520.96,-41.44 508.75,-28.22"/>
<polygon fill="#63b8ff" stroke="#63b8ff" points="511.54,-26.05 501.99,-21.46 506.59,-31 511.54,-26.05"/>
</g>
<!-- Node11&#45;&gt;Node12 -->
<g id="edge14" class="edge">
<title>Node11&#45;&gt;Node12</title>
<path fill="none" stroke="#63b8ff" d="M432.34,-111.59C421.14,-103.74 404.94,-92.38 391.69,-83.09"/>
<polygon fill="#63b8ff" stroke="#63b8ff" points="393.7,-80.22 383.51,-77.35 389.68,-85.96 393.7,-80.22"/>
</g>
<!-- Node14 -->
<g id="node14" class="node">
<title>Node14</title>
<g id="a_node14"><a xlink:title=" ">
<polygon fill="#e0e0e0" stroke="#999999" points="514.62,-76 464.88,-76 464.88,-56 514.62,-56 514.62,-76"/>
<text text-anchor="middle" x="489.75" y="-62.5" font-family="Helvetica,sans-Serif" font-size="10.00">optional</text>
</a>
</g>
</g>
<!-- Node11&#45;&gt;Node14 -->
<g id="edge21" class="edge">
<title>Node11&#45;&gt;Node14</title>
<path fill="none" stroke="#63b8ff" d="M453.41,-111.59C459.34,-104.32 467.74,-94.02 474.96,-85.15"/>
<polygon fill="#63b8ff" stroke="#63b8ff" points="477.61,-87.43 481.22,-77.47 472.19,-83.01 477.61,-87.43"/>
</g>
<!-- Node12&#45;&gt;Node5 -->
<g id="edge16" class="edge">
<title>Node12&#45;&gt;Node5</title>
<path fill="none" stroke="#63b8ff" d="M328.52,-55.72C289.3,-46.67 229.46,-32.86 186.67,-22.98"/>
<polygon fill="#63b8ff" stroke="#63b8ff" points="187.63,-19.61 177.1,-20.77 186.06,-26.43 187.63,-19.61"/>
</g>
<!-- Node12&#45;&gt;Node6 -->
<g id="edge18" class="edge">
<title>Node12&#45;&gt;Node6</title>
<path fill="none" stroke="#63b8ff" d="M350.81,-55.59C335.1,-47.36 312.02,-35.26 293.86,-25.74"/>
<polygon fill="#63b8ff" stroke="#63b8ff" points="295.65,-22.73 285.17,-21.18 292.4,-28.93 295.65,-22.73"/>
</g>
<!-- Node12&#45;&gt;Node7 -->
<g id="edge15" class="edge">
<title>Node12&#45;&gt;Node7</title>
<path fill="none" stroke="#63b8ff" d="M389.83,-55.59C408.94,-47.06 437.36,-34.38 459,-24.72"/>
<polygon fill="#63b8ff" stroke="#63b8ff" points="460.23,-28.01 467.94,-20.74 457.38,-21.61 460.23,-28.01"/>
</g>
<!-- Node13 -->
<g id="node13" class="node">
<title>Node13</title>
<g id="a_node13"><a xlink:title=" ">
<polygon fill="#e0e0e0" stroke="#999999" points="392.12,-20 345.38,-20 345.38,0 392.12,0 392.12,-20"/>
<text text-anchor="middle" x="368.75" y="-6.5" font-family="Helvetica,sans-Serif" font-size="10.00">Vec2.h</text>
</a>
</g>
</g>
<!-- Node12&#45;&gt;Node13 -->
<g id="edge17" class="edge">
<title>Node12&#45;&gt;Node13</title>
<path fill="none" stroke="#63b8ff" d="M368.75,-55.59C368.75,-49.01 368.75,-39.96 368.75,-31.73"/>
<polygon fill="#63b8ff" stroke="#63b8ff" points="372.25,-31.81 368.75,-21.81 365.25,-31.81 372.25,-31.81"/>
</g>
</g>
</svg>
