<?xml version="1.0" encoding="UTF-8" standalone="no"?>
<!DOCTYPE svg PUBLIC "-//W3C//DTD SVG 1.1//EN"
 "http://www.w3.org/Graphics/SVG/1.1/DTD/svg11.dtd">
<!-- Generated by graphviz version 12.2.1 (20241206.2353)
 -->
<!-- Title: src/scenes/SceneApprenticeship.h Pages: 1 -->
<svg width="699pt" height="252pt"
 viewBox="0.00 0.00 698.62 252.00" xmlns="http://www.w3.org/2000/svg" xmlns:xlink="http://www.w3.org/1999/xlink">
<g id="graph0" class="graph" transform="scale(1 1) rotate(0) translate(4 248)">
<title>src/scenes/SceneApprenticeship.h</title>
<!-- Node1 -->
<g id="node1" class="node">
<title>Node1</title>
<g id="a_node1"><a xlink:title=" ">
<polygon fill="#999999" stroke="#666666" points="474.38,-244 306.88,-244 306.88,-224 474.38,-224 474.38,-244"/>
<text text-anchor="middle" x="390.62" y="-230.5" font-family="Helvetica,sans-Serif" font-size="10.00">src/scenes/SceneApprenticeship.h</text>
</a>
</g>
</g>
<!-- Node2 -->
<g id="node2" class="node">
<title>Node2</title>
<g id="a_node2"><a xlink:href="Actions_8h.html" target="_top" xlink:title=" ">
<polygon fill="white" stroke="#666666" points="57.25,-188 0,-188 0,-168 57.25,-168 57.25,-188"/>
<text text-anchor="middle" x="28.62" y="-174.5" font-family="Helvetica,sans-Serif" font-size="10.00">Actions.h</text>
</a>
</g>
</g>
<!-- Node1&#45;&gt;Node2 -->
<g id="edge1" class="edge">
<title>Node1&#45;&gt;Node2</title>
<path fill="none" stroke="#63b8ff" d="M327.16,-223.53C252.67,-212.42 131.4,-194.33 68.82,-185"/>
<polygon fill="#63b8ff" stroke="#63b8ff" points="69.38,-181.54 58.98,-183.53 68.35,-188.46 69.38,-181.54"/>
</g>
<!-- Node4 -->
<g id="node4" class="node">
<title>Node4</title>
<g id="a_node4"><a xlink:href="Entity_8h.html" target="_top" xlink:title=" ">
<polygon fill="white" stroke="#666666" points="226.75,-132 178.5,-132 178.5,-112 226.75,-112 226.75,-132"/>
<text text-anchor="middle" x="202.62" y="-118.5" font-family="Helvetica,sans-Serif" font-size="10.00">Entity.h</text>
</a>
</g>
</g>
<!-- Node1&#45;&gt;Node4 -->
<g id="edge3" class="edge">
<title>Node1&#45;&gt;Node4</title>
<path fill="none" stroke="#63b8ff" d="M374.6,-223.62C342.06,-204.58 268.02,-161.26 228.54,-138.16"/>
<polygon fill="#63b8ff" stroke="#63b8ff" points="230.32,-135.15 219.92,-133.12 226.78,-141.19 230.32,-135.15"/>
</g>
<!-- Node5 -->
<g id="node5" class="node">
<title>Node5</title>
<g id="a_node5"><a xlink:href="Components_8h.html" target="_top" xlink:title=" ">
<polygon fill="white" stroke="#666666" points="430.5,-76 350.75,-76 350.75,-56 430.5,-56 430.5,-76"/>
<text text-anchor="middle" x="390.62" y="-62.5" font-family="Helvetica,sans-Serif" font-size="10.00">Components.h</text>
</a>
</g>
</g>
<!-- Node1&#45;&gt;Node5 -->
<g id="edge27" class="edge">
<title>Node1&#45;&gt;Node5</title>
<path fill="none" stroke="#63b8ff" d="M390.62,-223.6C390.62,-197.46 390.62,-123.48 390.62,-87.36"/>
<polygon fill="#63b8ff" stroke="#63b8ff" points="394.13,-87.81 390.63,-77.81 387.13,-87.81 394.13,-87.81"/>
</g>
<!-- Node6 -->
<g id="node6" class="node">
<title>Node6</title>
<g id="a_node6"><a xlink:title=" ">
<polygon fill="#e0e0e0" stroke="#999999" points="510.12,-20 407.12,-20 407.12,0 510.12,0 510.12,-20"/>
<text text-anchor="middle" x="458.62" y="-6.5" font-family="Helvetica,sans-Serif" font-size="10.00">SFML/Graphics.hpp</text>
</a>
</g>
</g>
<!-- Node1&#45;&gt;Node6 -->
<g id="edge28" class="edge">
<title>Node1&#45;&gt;Node6</title>
<path fill="none" stroke="#63b8ff" d="M407.48,-223.63C442.95,-202.75 524.12,-148.45 549.62,-76 552.58,-67.62 554.31,-63.55 549.62,-56 540.56,-41.4 525.2,-31.4 509.65,-24.6"/>
<polygon fill="#63b8ff" stroke="#63b8ff" points="510.93,-21.34 500.35,-20.95 508.38,-27.86 510.93,-21.34"/>
</g>
<!-- Node10 -->
<g id="node10" class="node">
<title>Node10</title>
<g id="a_node10"><a xlink:href="ManagerEntity_8h.html" target="_top" xlink:title=" ">
<polygon fill="white" stroke="#666666" points="185.5,-188 99.75,-188 99.75,-168 185.5,-168 185.5,-188"/>
<text text-anchor="middle" x="142.62" y="-174.5" font-family="Helvetica,sans-Serif" font-size="10.00">ManagerEntity.h</text>
</a>
</g>
</g>
<!-- Node1&#45;&gt;Node10 -->
<g id="edge12" class="edge">
<title>Node1&#45;&gt;Node10</title>
<path fill="none" stroke="#63b8ff" d="M347.14,-223.53C305.27,-214.41 241.8,-200.6 196.69,-190.77"/>
<polygon fill="#63b8ff" stroke="#63b8ff" points="197.64,-187.4 187.12,-188.69 196.15,-194.24 197.64,-187.4"/>
</g>
<!-- Node13 -->
<g id="node13" class="node">
<title>Node13</title>
<g id="a_node13"><a xlink:href="Scene_8h.html" target="_top" xlink:title=" ">
<polygon fill="white" stroke="#666666" points="477.62,-132 425.62,-132 425.62,-112 477.62,-112 477.62,-132"/>
<text text-anchor="middle" x="451.62" y="-118.5" font-family="Helvetica,sans-Serif" font-size="10.00">Scene.h</text>
</a>
</g>
</g>
<!-- Node1&#45;&gt;Node13 -->
<g id="edge17" class="edge">
<title>Node1&#45;&gt;Node13</title>
<path fill="none" stroke="#63b8ff" d="M395.83,-223.62C405.77,-205.68 427.69,-166.17 440.9,-142.35"/>
<polygon fill="#63b8ff" stroke="#63b8ff" points="443.91,-144.12 445.7,-133.68 437.79,-140.73 443.91,-144.12"/>
</g>
<!-- Node16 -->
<g id="node16" class="node">
<title>Node16</title>
<g id="a_node16"><a xlink:title=" ">
<polygon fill="#e0e0e0" stroke="#999999" points="690.62,-188 596.62,-188 596.62,-168 690.62,-168 690.62,-188"/>
<text text-anchor="middle" x="643.62" y="-174.5" font-family="Helvetica,sans-Serif" font-size="10.00">StructsDialogue.h</text>
</a>
</g>
</g>
<!-- Node1&#45;&gt;Node16 -->
<g id="edge26" class="edge">
<title>Node1&#45;&gt;Node16</title>
<path fill="none" stroke="#63b8ff" d="M434.98,-223.53C477.66,-214.42 542.32,-200.62 588.34,-190.8"/>
<polygon fill="#63b8ff" stroke="#63b8ff" points="588.79,-194.28 597.84,-188.77 587.33,-187.44 588.79,-194.28"/>
</g>
<!-- Node3 -->
<g id="node3" class="node">
<title>Node3</title>
<g id="a_node3"><a xlink:title=" ">
<polygon fill="#e0e0e0" stroke="#999999" points="138.62,-20 98.62,-20 98.62,0 138.62,0 138.62,-20"/>
<text text-anchor="middle" x="118.62" y="-6.5" font-family="Helvetica,sans-Serif" font-size="10.00">string</text>
</a>
</g>
</g>
<!-- Node2&#45;&gt;Node3 -->
<g id="edge2" class="edge">
<title>Node2&#45;&gt;Node3</title>
<path fill="none" stroke="#63b8ff" d="M33.4,-167.71C39.91,-155.06 52,-131.73 62.62,-112 78.03,-83.4 96.36,-50.55 107.75,-30.29"/>
<polygon fill="#63b8ff" stroke="#63b8ff" points="110.7,-32.18 112.56,-21.75 104.6,-28.74 110.7,-32.18"/>
</g>
<!-- Node4&#45;&gt;Node3 -->
<g id="edge10" class="edge">
<title>Node4&#45;&gt;Node3</title>
<path fill="none" stroke="#63b8ff" d="M185.2,-111.66C171.9,-103.74 153.99,-91.24 142.62,-76 132.72,-62.71 126.52,-44.89 122.91,-31.27"/>
<polygon fill="#63b8ff" stroke="#63b8ff" points="126.35,-30.59 120.64,-21.67 119.54,-32.2 126.35,-30.59"/>
</g>
<!-- Node4&#45;&gt;Node5 -->
<g id="edge4" class="edge">
<title>Node4&#45;&gt;Node5</title>
<path fill="none" stroke="#63b8ff" d="M227.2,-113.94C257.51,-105.24 309.57,-90.28 346.79,-79.59"/>
<polygon fill="#63b8ff" stroke="#63b8ff" points="347.72,-82.96 356.37,-76.84 345.79,-76.24 347.72,-82.96"/>
</g>
<!-- Node8 -->
<g id="node8" class="node">
<title>Node8</title>
<g id="a_node8"><a xlink:title=" ">
<polygon fill="#e0e0e0" stroke="#999999" points="318.25,-20 267,-20 267,0 318.25,0 318.25,-20"/>
<text text-anchor="middle" x="292.62" y="-6.5" font-family="Helvetica,sans-Serif" font-size="10.00">memory</text>
</a>
</g>
</g>
<!-- Node4&#45;&gt;Node8 -->
<g id="edge9" class="edge">
<title>Node4&#45;&gt;Node8</title>
<path fill="none" stroke="#63b8ff" d="M193.2,-111.57C181.17,-98.35 163.31,-73.93 175.62,-56 193.47,-30.02 228.56,-19.03 255.68,-14.39"/>
<polygon fill="#63b8ff" stroke="#63b8ff" points="255.86,-17.9 265.25,-12.98 254.84,-10.98 255.86,-17.9"/>
</g>
<!-- Node9 -->
<g id="node9" class="node">
<title>Node9</title>
<g id="a_node9"><a xlink:title=" ">
<polygon fill="#e0e0e0" stroke="#999999" points="234.5,-76 184.75,-76 184.75,-56 234.5,-56 234.5,-76"/>
<text text-anchor="middle" x="209.62" y="-62.5" font-family="Helvetica,sans-Serif" font-size="10.00">optional</text>
</a>
</g>
</g>
<!-- Node4&#45;&gt;Node9 -->
<g id="edge11" class="edge">
<title>Node4&#45;&gt;Node9</title>
<path fill="none" stroke="#63b8ff" d="M203.84,-111.59C204.71,-104.93 205.9,-95.75 206.98,-87.44"/>
<polygon fill="#63b8ff" stroke="#63b8ff" points="210.41,-88.17 208.23,-77.8 203.47,-87.27 210.41,-88.17"/>
</g>
<!-- Node5&#45;&gt;Node3 -->
<g id="edge5" class="edge">
<title>Node5&#45;&gt;Node3</title>
<path fill="none" stroke="#63b8ff" d="M350.49,-57.03C296.02,-46.22 199.8,-27.12 150.18,-17.26"/>
<polygon fill="#63b8ff" stroke="#63b8ff" points="150.88,-13.84 140.39,-15.32 149.52,-20.7 150.88,-13.84"/>
</g>
<!-- Node5&#45;&gt;Node6 -->
<g id="edge6" class="edge">
<title>Node5&#45;&gt;Node6</title>
<path fill="none" stroke="#63b8ff" d="M402.47,-55.59C412.32,-47.77 426.56,-36.46 438.23,-27.19"/>
<polygon fill="#63b8ff" stroke="#63b8ff" points="440.08,-30.2 445.73,-21.24 435.72,-24.72 440.08,-30.2"/>
</g>
<!-- Node7 -->
<g id="node7" class="node">
<title>Node7</title>
<g id="a_node7"><a xlink:title=" ">
<polygon fill="#e0e0e0" stroke="#999999" points="389,-20 342.25,-20 342.25,0 389,0 389,-20"/>
<text text-anchor="middle" x="365.62" y="-6.5" font-family="Helvetica,sans-Serif" font-size="10.00">Vec2.h</text>
</a>
</g>
</g>
<!-- Node5&#45;&gt;Node7 -->
<g id="edge7" class="edge">
<title>Node5&#45;&gt;Node7</title>
<path fill="none" stroke="#63b8ff" d="M386.27,-55.59C383.08,-48.7 378.64,-39.1 374.69,-30.57"/>
<polygon fill="#63b8ff" stroke="#63b8ff" points="377.94,-29.28 370.57,-21.67 371.59,-32.22 377.94,-29.28"/>
</g>
<!-- Node5&#45;&gt;Node8 -->
<g id="edge8" class="edge">
<title>Node5&#45;&gt;Node8</title>
<path fill="none" stroke="#63b8ff" d="M373.55,-55.59C358.75,-47.44 337.06,-35.48 319.86,-26"/>
<polygon fill="#63b8ff" stroke="#63b8ff" points="321.6,-22.97 311.15,-21.21 318.22,-29.1 321.6,-22.97"/>
</g>
<!-- Node10&#45;&gt;Node3 -->
<g id="edge15" class="edge">
<title>Node10&#45;&gt;Node3</title>
<path fill="none" stroke="#63b8ff" d="M141.19,-167.54C138.48,-149.66 132.46,-109.69 127.62,-76 125.49,-61.11 123.16,-44.3 121.41,-31.5"/>
<polygon fill="#63b8ff" stroke="#63b8ff" points="124.9,-31.2 120.08,-21.76 117.97,-32.14 124.9,-31.2"/>
</g>
<!-- Node10&#45;&gt;Node4 -->
<g id="edge13" class="edge">
<title>Node10&#45;&gt;Node4</title>
<path fill="none" stroke="#63b8ff" d="M153.08,-167.59C161.59,-159.93 173.84,-148.91 184.02,-139.75"/>
<polygon fill="#63b8ff" stroke="#63b8ff" points="186.08,-142.6 191.17,-133.31 181.39,-137.4 186.08,-142.6"/>
</g>
<!-- Node11 -->
<g id="node11" class="node">
<title>Node11</title>
<g id="a_node11"><a xlink:title=" ">
<polygon fill="#e0e0e0" stroke="#999999" points="114.12,-132 71.12,-132 71.12,-112 114.12,-112 114.12,-132"/>
<text text-anchor="middle" x="92.62" y="-118.5" font-family="Helvetica,sans-Serif" font-size="10.00">vector</text>
</a>
</g>
</g>
<!-- Node10&#45;&gt;Node11 -->
<g id="edge14" class="edge">
<title>Node10&#45;&gt;Node11</title>
<path fill="none" stroke="#63b8ff" d="M133.92,-167.59C127.03,-160.16 117.23,-149.58 108.91,-140.58"/>
<polygon fill="#63b8ff" stroke="#63b8ff" points="111.63,-138.37 102.26,-133.41 106.49,-143.12 111.63,-138.37"/>
</g>
<!-- Node12 -->
<g id="node12" class="node">
<title>Node12</title>
<g id="a_node12"><a xlink:title=" ">
<polygon fill="#e0e0e0" stroke="#999999" points="71,-20 36.25,-20 36.25,0 71,0 71,-20"/>
<text text-anchor="middle" x="53.62" y="-6.5" font-family="Helvetica,sans-Serif" font-size="10.00">map</text>
</a>
</g>
</g>
<!-- Node10&#45;&gt;Node12 -->
<g id="edge16" class="edge">
<title>Node10&#45;&gt;Node12</title>
<path fill="none" stroke="#63b8ff" d="M111.24,-167.57C93.88,-160.64 73.65,-149.35 62.62,-132 43.19,-101.43 45.8,-57.34 49.61,-31.68"/>
<polygon fill="#63b8ff" stroke="#63b8ff" points="53.05,-32.35 51.29,-21.9 46.15,-31.16 53.05,-32.35"/>
</g>
<!-- Node13&#45;&gt;Node6 -->
<g id="edge24" class="edge">
<title>Node13&#45;&gt;Node6</title>
<path fill="none" stroke="#63b8ff" d="M452.22,-111.62C453.34,-94.01 455.79,-55.59 457.31,-31.65"/>
<polygon fill="#63b8ff" stroke="#63b8ff" points="460.79,-32.07 457.93,-21.87 453.81,-31.62 460.79,-32.07"/>
</g>
<!-- Node13&#45;&gt;Node13 -->
<g id="edge18" class="edge">
<title>Node13&#45;&gt;Node13</title>
<path fill="none" stroke="#63b8ff" d="M477.82,-132.48C487.59,-132.82 495.62,-129.33 495.62,-122 495.62,-117.88 493.08,-114.97 489.12,-113.27"/>
<polygon fill="#63b8ff" stroke="#63b8ff" points="489.74,-109.83 479.32,-111.76 488.67,-116.75 489.74,-109.83"/>
</g>
<!-- Node14 -->
<g id="node14" class="node">
<title>Node14</title>
<g id="a_node14"><a xlink:href="GameEngine_8h.html" target="_top" xlink:title=" ">
<polygon fill="white" stroke="#666666" points="332.88,-76 252.38,-76 252.38,-56 332.88,-56 332.88,-76"/>
<text text-anchor="middle" x="292.62" y="-62.5" font-family="Helvetica,sans-Serif" font-size="10.00">GameEngine.h</text>
</a>
</g>
</g>
<!-- Node13&#45;&gt;Node14 -->
<g id="edge19" class="edge">
<title>Node13&#45;&gt;Node14</title>
<path fill="none" stroke="#63b8ff" d="M425.37,-112.08C399.72,-103.37 360.37,-90.01 331.17,-80.09"/>
<polygon fill="#63b8ff" stroke="#63b8ff" points="332.55,-76.86 321.96,-76.96 330.3,-83.49 332.55,-76.86"/>
</g>
<!-- Node15 -->
<g id="node15" class="node">
<title>Node15</title>
<g id="a_node15"><a xlink:title=" ">
<polygon fill="#e0e0e0" stroke="#999999" points="540.38,-76 486.88,-76 486.88,-56 540.38,-56 540.38,-76"/>
<text text-anchor="middle" x="513.62" y="-62.5" font-family="Helvetica,sans-Serif" font-size="10.00">iostream</text>
</a>
</g>
</g>
<!-- Node13&#45;&gt;Node15 -->
<g id="edge25" class="edge">
<title>Node13&#45;&gt;Node15</title>
<path fill="none" stroke="#63b8ff" d="M462.42,-111.59C471.23,-103.93 483.88,-92.91 494.4,-83.75"/>
<polygon fill="#63b8ff" stroke="#63b8ff" points="496.57,-86.5 501.81,-77.29 491.97,-81.22 496.57,-86.5"/>
</g>
<!-- Node14&#45;&gt;Node3 -->
<g id="edge22" class="edge">
<title>Node14&#45;&gt;Node3</title>
<path fill="none" stroke="#63b8ff" d="M262.32,-55.59C230.84,-45.82 181.82,-30.61 149.97,-20.73"/>
<polygon fill="#63b8ff" stroke="#63b8ff" points="151.1,-17.41 140.52,-17.79 149.03,-24.1 151.1,-17.41"/>
</g>
<!-- Node14&#45;&gt;Node6 -->
<g id="edge20" class="edge">
<title>Node14&#45;&gt;Node6</title>
<path fill="none" stroke="#63b8ff" d="M321.54,-55.59C348.39,-46.86 388.62,-33.77 418.56,-24.03"/>
<polygon fill="#63b8ff" stroke="#63b8ff" points="419.62,-27.37 428.05,-20.95 417.45,-20.71 419.62,-27.37"/>
</g>
<!-- Node14&#45;&gt;Node8 -->
<g id="edge21" class="edge">
<title>Node14&#45;&gt;Node8</title>
<path fill="none" stroke="#63b8ff" d="M292.62,-55.59C292.62,-49.01 292.62,-39.96 292.62,-31.73"/>
<polygon fill="#63b8ff" stroke="#63b8ff" points="296.13,-31.81 292.63,-21.81 289.13,-31.81 296.13,-31.81"/>
</g>
<!-- Node14&#45;&gt;Node12 -->
<g id="edge23" class="edge">
<title>Node14&#45;&gt;Node12</title>
<path fill="none" stroke="#63b8ff" d="M252.11,-56.35C211.08,-47.52 145.84,-33.26 89.62,-20 87.18,-19.42 84.64,-18.81 82.1,-18.19"/>
<polygon fill="#63b8ff" stroke="#63b8ff" points="83.2,-14.86 72.65,-15.85 81.51,-21.65 83.2,-14.86"/>
</g>
</g>
</svg>
