<?xml version="1.0" encoding="UTF-8" standalone="no"?>
<!DOCTYPE svg PUBLIC "-//W3C//DTD SVG 1.1//EN"
 "http://www.w3.org/Graphics/SVG/1.1/DTD/svg11.dtd">
<!-- Generated by graphviz version 12.2.1 (20241206.2353)
 -->
<!-- Title: src/world_stage/Stage.h Pages: 1 -->
<svg width="238pt" height="84pt"
 viewBox="0.00 0.00 237.50 84.00" xmlns="http://www.w3.org/2000/svg" xmlns:xlink="http://www.w3.org/1999/xlink">
<g id="graph0" class="graph" transform="scale(1 1) rotate(0) translate(4 80)">
<title>src/world_stage/Stage.h</title>
<!-- Node1 -->
<g id="node1" class="node">
<title>Node1</title>
<g id="a_node1"><a xlink:title=" ">
<polygon fill="#999999" stroke="#666666" points="167.88,-76 46.12,-76 46.12,-56 167.88,-56 167.88,-76"/>
<text text-anchor="middle" x="107" y="-62.5" font-family="Helvetica,sans-Serif" font-size="10.00">src/world_stage/Stage.h</text>
</a>
</g>
</g>
<!-- Node2 -->
<g id="node2" class="node">
<title>Node2</title>
<g id="a_node2"><a xlink:title=" ">
<polygon fill="#e0e0e0" stroke="#999999" points="40,-20 0,-20 0,0 40,0 40,-20"/>
<text text-anchor="middle" x="20" y="-6.5" font-family="Helvetica,sans-Serif" font-size="10.00">string</text>
</a>
</g>
</g>
<!-- Node1&#45;&gt;Node2 -->
<g id="edge1" class="edge">
<title>Node1&#45;&gt;Node2</title>
<path fill="none" stroke="#63b8ff" d="M91.85,-55.59C78.95,-47.59 60.17,-35.93 45.04,-26.54"/>
<polygon fill="#63b8ff" stroke="#63b8ff" points="46.9,-23.58 36.56,-21.28 43.21,-29.53 46.9,-23.58"/>
</g>
<!-- Node3 -->
<g id="node3" class="node">
<title>Node3</title>
<g id="a_node3"><a xlink:title=" ">
<polygon fill="#e0e0e0" stroke="#999999" points="92.38,-20 57.62,-20 57.62,0 92.38,0 92.38,-20"/>
<text text-anchor="middle" x="75" y="-6.5" font-family="Helvetica,sans-Serif" font-size="10.00">map</text>
</a>
</g>
</g>
<!-- Node1&#45;&gt;Node3 -->
<g id="edge2" class="edge">
<title>Node1&#45;&gt;Node3</title>
<path fill="none" stroke="#63b8ff" d="M101.43,-55.59C97.25,-48.55 91.4,-38.67 86.26,-30"/>
<polygon fill="#63b8ff" stroke="#63b8ff" points="89.39,-28.42 81.28,-21.6 83.37,-31.99 89.39,-28.42"/>
</g>
<!-- Node4 -->
<g id="node4" class="node">
<title>Node4</title>
<g id="a_node4"><a xlink:title=" ">
<polygon fill="#e0e0e0" stroke="#999999" points="168,-20 110,-20 110,0 168,0 168,-20"/>
<text text-anchor="middle" x="139" y="-6.5" font-family="Helvetica,sans-Serif" font-size="10.00">functional</text>
</a>
</g>
</g>
<!-- Node1&#45;&gt;Node4 -->
<g id="edge3" class="edge">
<title>Node1&#45;&gt;Node4</title>
<path fill="none" stroke="#63b8ff" d="M112.57,-55.59C116.75,-48.55 122.6,-38.67 127.74,-30"/>
<polygon fill="#63b8ff" stroke="#63b8ff" points="130.63,-31.99 132.72,-21.6 124.61,-28.42 130.63,-31.99"/>
</g>
<!-- Node5 -->
<g id="node5" class="node">
<title>Node5</title>
<g id="a_node5"><a xlink:title=" ">
<polygon fill="#e0e0e0" stroke="#999999" points="229.5,-20 186.5,-20 186.5,0 229.5,0 229.5,-20"/>
<text text-anchor="middle" x="208" y="-6.5" font-family="Helvetica,sans-Serif" font-size="10.00">vector</text>
</a>
</g>
</g>
<!-- Node1&#45;&gt;Node5 -->
<g id="edge4" class="edge">
<title>Node1&#45;&gt;Node5</title>
<path fill="none" stroke="#63b8ff" d="M124.59,-55.59C139.92,-47.4 162.42,-35.37 180.19,-25.87"/>
<polygon fill="#63b8ff" stroke="#63b8ff" points="181.77,-28.99 188.94,-21.19 178.47,-22.82 181.77,-28.99"/>
</g>
</g>
</svg>
