<?xml version="1.0" encoding="UTF-8" standalone="no"?>
<!DOCTYPE svg PUBLIC "-//W3C//DTD SVG 1.1//EN"
 "http://www.w3.org/Graphics/SVG/1.1/DTD/svg11.dtd">
<!-- Generated by graphviz version 12.2.1 (20241206.2353)
 -->
<!-- Title: CBoundingBox Pages: 1 -->
<svg width="104pt" height="226pt"
 viewBox="0.00 0.00 104.25 226.00" xmlns="http://www.w3.org/2000/svg" xmlns:xlink="http://www.w3.org/1999/xlink">
<g id="graph0" class="graph" transform="scale(1 1) rotate(0) translate(4 222)">
<title>CBoundingBox</title>
<!-- Node1 -->
<g id="node1" class="node">
<title>Node1</title>
<g id="a_node1"><a xlink:title=" ">
<polygon fill="#999999" stroke="#666666" points="0,-0.5 0,-120.5 96.25,-120.5 96.25,-0.5 0,-0.5"/>
<text text-anchor="middle" x="48.12" y="-107" font-family="Helvetica,sans-Serif" font-size="10.00">CBoundingBox</text>
<polyline fill="none" stroke="#666666" points="0,-100.5 96.25,-100.5"/>
<text text-anchor="start" x="8" y="-87" font-family="Helvetica,sans-Serif" font-size="10.00">+ size</text>
<text text-anchor="start" x="8" y="-75" font-family="Helvetica,sans-Serif" font-size="10.00">+ halfSize</text>
<text text-anchor="start" x="8" y="-63" font-family="Helvetica,sans-Serif" font-size="10.00">+ blockMove</text>
<text text-anchor="start" x="8" y="-51" font-family="Helvetica,sans-Serif" font-size="10.00">+ blockVision</text>
<polyline fill="none" stroke="#666666" points="0,-44.5 96.25,-44.5"/>
<text text-anchor="start" x="8" y="-31" font-family="Helvetica,sans-Serif" font-size="10.00">+ CBoundingBox()</text>
<text text-anchor="start" x="8" y="-19" font-family="Helvetica,sans-Serif" font-size="10.00">+ CBoundingBox()</text>
<text text-anchor="start" x="8" y="-7" font-family="Helvetica,sans-Serif" font-size="10.00">+ CBoundingBox()</text>
</a>
</g>
</g>
<!-- Node2 -->
<g id="node2" class="node">
<title>Node2</title>
<g id="a_node2"><a xlink:href="structComponent.html" target="_top" xlink:title=" ">
<polygon fill="white" stroke="#666666" points="15,-157.5 15,-217.5 81.25,-217.5 81.25,-157.5 15,-157.5"/>
<text text-anchor="middle" x="48.12" y="-204" font-family="Helvetica,sans-Serif" font-size="10.00">Component</text>
<polyline fill="none" stroke="#666666" points="15,-197.5 81.25,-197.5"/>
<text text-anchor="start" x="23" y="-184" font-family="Helvetica,sans-Serif" font-size="10.00">+ has</text>
<polyline fill="none" stroke="#666666" points="15,-177.5 81.25,-177.5"/>
<text text-anchor="middle" x="48.12" y="-164" font-family="Helvetica,sans-Serif" font-size="10.00"> </text>
</a>
</g>
</g>
<!-- Node2&#45;&gt;Node1 -->
<g id="edge1" class="edge">
<title>Node2&#45;&gt;Node1</title>
<path fill="none" stroke="#63b8ff" d="M48.12,-145.93C48.12,-137.92 48.12,-129.36 48.12,-120.88"/>
<polygon fill="none" stroke="#63b8ff" points="44.63,-145.68 48.13,-155.68 51.63,-145.68 44.63,-145.68"/>
</g>
</g>
</svg>
