<?xml version="1.0" encoding="UTF-8" standalone="no"?>
<!DOCTYPE svg PUBLIC "-//W3C//DTD SVG 1.1//EN"
 "http://www.w3.org/Graphics/SVG/1.1/DTD/svg11.dtd">
<!-- Generated by graphviz version 12.2.1 (20241206.2353)
 -->
<!-- Title: detail::is_json_iterator_of&lt; BasicJsonType, typename BasicJsonType::iterator &gt; Pages: 1 -->
<svg width="162pt" height="190pt"
 viewBox="0.00 0.00 162.00 190.00" xmlns="http://www.w3.org/2000/svg" xmlns:xlink="http://www.w3.org/1999/xlink">
<g id="graph0" class="graph" transform="scale(1 1) rotate(0) translate(4 186)">
<title>detail::is_json_iterator_of&lt; BasicJsonType, typename BasicJsonType::iterator &gt;</title>
<!-- Node1 -->
<g id="node1" class="node">
<title>Node1</title>
<g id="a_node1"><a xlink:title=" ">
<polygon fill="#999999" stroke="#666666" points="0,-0.5 0,-84.5 154,-84.5 154,-0.5 0,-0.5"/>
<text text-anchor="start" x="8" y="-71" font-family="Helvetica,sans-Serif" font-size="10.00">detail::is_json_iterator</text>
<text text-anchor="start" x="8" y="-59" font-family="Helvetica,sans-Serif" font-size="10.00">_of&lt; BasicJsonType, typename</text>
<text text-anchor="middle" x="77" y="-47" font-family="Helvetica,sans-Serif" font-size="10.00"> BasicJsonType::iterator &gt;</text>
<polyline fill="none" stroke="#666666" points="0,-40.5 154,-40.5"/>
<text text-anchor="middle" x="77" y="-27" font-family="Helvetica,sans-Serif" font-size="10.00"> </text>
<polyline fill="none" stroke="#666666" points="0,-20.5 154,-20.5"/>
<text text-anchor="middle" x="77" y="-7" font-family="Helvetica,sans-Serif" font-size="10.00"> </text>
</a>
</g>
</g>
<!-- Node2 -->
<g id="node2" class="node">
<title>Node2</title>
<g id="a_node2"><a xlink:title=" ">
<polygon fill="white" stroke="#666666" points="39,-121.5 39,-181.5 115,-181.5 115,-121.5 39,-121.5"/>
<text text-anchor="middle" x="77" y="-168" font-family="Helvetica,sans-Serif" font-size="10.00">std::true_type</text>
<polyline fill="none" stroke="#666666" points="39,-161.5 115,-161.5"/>
<text text-anchor="middle" x="77" y="-148" font-family="Helvetica,sans-Serif" font-size="10.00"> </text>
<polyline fill="none" stroke="#666666" points="39,-141.5 115,-141.5"/>
<text text-anchor="middle" x="77" y="-128" font-family="Helvetica,sans-Serif" font-size="10.00"> </text>
</a>
</g>
</g>
<!-- Node2&#45;&gt;Node1 -->
<g id="edge1" class="edge">
<title>Node2&#45;&gt;Node1</title>
<path fill="none" stroke="#63b8ff" d="M77,-109.97C77,-101.71 77,-93.02 77,-84.74"/>
<polygon fill="none" stroke="#63b8ff" points="73.5,-109.75 77,-119.75 80.5,-109.75 73.5,-109.75"/>
</g>
</g>
</svg>
