<?xml version="1.0" encoding="UTF-8" standalone="no"?>
<!DOCTYPE svg PUBLIC "-//W3C//DTD SVG 1.1//EN"
 "http://www.w3.org/Graphics/SVG/1.1/DTD/svg11.dtd">
<!-- Generated by graphviz version 12.2.1 (20241206.2353)
 -->
<!-- Title: CPlayer Pages: 1 -->
<svg width="83pt" height="274pt"
 viewBox="0.00 0.00 82.50 274.00" xmlns="http://www.w3.org/2000/svg" xmlns:xlink="http://www.w3.org/1999/xlink">
<g id="graph0" class="graph" transform="scale(1 1) rotate(0) translate(4 270)">
<title>CPlayer</title>
<!-- Node1 -->
<g id="node1" class="node">
<title>Node1</title>
<g id="a_node1"><a xlink:title=" ">
<polygon fill="#999999" stroke="#666666" points="0,-0.5 0,-168.5 74.5,-168.5 74.5,-0.5 0,-0.5"/>
<text text-anchor="middle" x="37.25" y="-155" font-family="Helvetica,sans-Serif" font-size="10.00">CPlayer</text>
<polyline fill="none" stroke="#666666" points="0,-148.5 74.5,-148.5"/>
<text text-anchor="start" x="8" y="-135" font-family="Helvetica,sans-Serif" font-size="10.00">+ health</text>
<text text-anchor="start" x="8" y="-123" font-family="Helvetica,sans-Serif" font-size="10.00">+ mana</text>
<text text-anchor="start" x="8" y="-111" font-family="Helvetica,sans-Serif" font-size="10.00">+ energy</text>
<text text-anchor="start" x="8" y="-99" font-family="Helvetica,sans-Serif" font-size="10.00">+ maxHealth</text>
<text text-anchor="start" x="8" y="-87" font-family="Helvetica,sans-Serif" font-size="10.00">+ maxMana</text>
<text text-anchor="start" x="8" y="-75" font-family="Helvetica,sans-Serif" font-size="10.00">+ maxEnergy</text>
<text text-anchor="start" x="8" y="-63" font-family="Helvetica,sans-Serif" font-size="10.00">+ m</text>
<text text-anchor="start" x="8" y="-51" font-family="Helvetica,sans-Serif" font-size="10.00">+ e</text>
<text text-anchor="start" x="8" y="-39" font-family="Helvetica,sans-Serif" font-size="10.00">+ mh</text>
<text text-anchor="start" x="8" y="-27" font-family="Helvetica,sans-Serif" font-size="10.00">+ mm</text>
<polyline fill="none" stroke="#666666" points="0,-20.5 74.5,-20.5"/>
<text text-anchor="start" x="8" y="-7" font-family="Helvetica,sans-Serif" font-size="10.00">+ CPlayer()</text>
</a>
</g>
</g>
<!-- Node2 -->
<g id="node2" class="node">
<title>Node2</title>
<g id="a_node2"><a xlink:href="structComponent.html" target="_top" xlink:title=" ">
<polygon fill="white" stroke="#666666" points="4.12,-205.5 4.12,-265.5 70.38,-265.5 70.38,-205.5 4.12,-205.5"/>
<text text-anchor="middle" x="37.25" y="-252" font-family="Helvetica,sans-Serif" font-size="10.00">Component</text>
<polyline fill="none" stroke="#666666" points="4.12,-245.5 70.38,-245.5"/>
<text text-anchor="start" x="12.12" y="-232" font-family="Helvetica,sans-Serif" font-size="10.00">+ has</text>
<polyline fill="none" stroke="#666666" points="4.12,-225.5 70.38,-225.5"/>
<text text-anchor="middle" x="37.25" y="-212" font-family="Helvetica,sans-Serif" font-size="10.00"> </text>
</a>
</g>
</g>
<!-- Node2&#45;&gt;Node1 -->
<g id="edge1" class="edge">
<title>Node2&#45;&gt;Node1</title>
<path fill="none" stroke="#63b8ff" d="M37.25,-193.78C37.25,-185.99 37.25,-177.57 37.25,-168.99"/>
<polygon fill="none" stroke="#63b8ff" points="33.75,-193.55 37.25,-203.55 40.75,-193.55 33.75,-193.55"/>
</g>
</g>
</svg>
