<?xml version="1.0" encoding="UTF-8" standalone="no"?>
<!DOCTYPE svg PUBLIC "-//W3C//DTD SVG 1.1//EN"
 "http://www.w3.org/Graphics/SVG/1.1/DTD/svg11.dtd">
<!-- Generated by graphviz version 12.2.1 (20241206.2353)
 -->
<!-- Title: CVerb Pages: 1 -->
<svg width="74pt" height="202pt"
 viewBox="0.00 0.00 74.25 202.00" xmlns="http://www.w3.org/2000/svg" xmlns:xlink="http://www.w3.org/1999/xlink">
<g id="graph0" class="graph" transform="scale(1 1) rotate(0) translate(4 198)">
<title>CVerb</title>
<!-- Node1 -->
<g id="node1" class="node">
<title>Node1</title>
<g id="a_node1"><a xlink:title=" ">
<polygon fill="#999999" stroke="#666666" points="3.75,-0.5 3.75,-96.5 62.5,-96.5 62.5,-0.5 3.75,-0.5"/>
<text text-anchor="middle" x="33.12" y="-83" font-family="Helvetica,sans-Serif" font-size="10.00">CVerb</text>
<polyline fill="none" stroke="#666666" points="3.75,-76.5 62.5,-76.5"/>
<text text-anchor="start" x="11.75" y="-63" font-family="Helvetica,sans-Serif" font-size="10.00">+ aspect</text>
<text text-anchor="start" x="11.75" y="-51" font-family="Helvetica,sans-Serif" font-size="10.00">+ voice</text>
<text text-anchor="start" x="11.75" y="-39" font-family="Helvetica,sans-Serif" font-size="10.00">+ cost</text>
<polyline fill="none" stroke="#666666" points="3.75,-32.5 62.5,-32.5"/>
<text text-anchor="start" x="11.75" y="-19" font-family="Helvetica,sans-Serif" font-size="10.00">+ CVerb()</text>
<text text-anchor="start" x="11.75" y="-7" font-family="Helvetica,sans-Serif" font-size="10.00">+ CVerb()</text>
</a>
</g>
</g>
<!-- Node2 -->
<g id="node2" class="node">
<title>Node2</title>
<g id="a_node2"><a xlink:href="structComponent.html" target="_top" xlink:title=" ">
<polygon fill="white" stroke="#666666" points="0,-133.5 0,-193.5 66.25,-193.5 66.25,-133.5 0,-133.5"/>
<text text-anchor="middle" x="33.12" y="-180" font-family="Helvetica,sans-Serif" font-size="10.00">Component</text>
<polyline fill="none" stroke="#666666" points="0,-173.5 66.25,-173.5"/>
<text text-anchor="start" x="8" y="-160" font-family="Helvetica,sans-Serif" font-size="10.00">+ has</text>
<polyline fill="none" stroke="#666666" points="0,-153.5 66.25,-153.5"/>
<text text-anchor="middle" x="33.12" y="-140" font-family="Helvetica,sans-Serif" font-size="10.00"> </text>
</a>
</g>
</g>
<!-- Node2&#45;&gt;Node1 -->
<g id="edge1" class="edge">
<title>Node2&#45;&gt;Node1</title>
<path fill="none" stroke="#63b8ff" d="M33.12,-121.66C33.12,-113.55 33.12,-104.99 33.12,-96.69"/>
<polygon fill="none" stroke="#63b8ff" points="29.63,-121.59 33.13,-131.59 36.63,-121.59 29.63,-121.59"/>
</g>
</g>
</svg>
