<?xml version="1.0" encoding="UTF-8" standalone="no"?>
<!DOCTYPE svg PUBLIC "-//W3C//DTD SVG 1.1//EN"
 "http://www.w3.org/Graphics/SVG/1.1/DTD/svg11.dtd">
<!-- Generated by graphviz version 12.2.1 (20241206.2353)
 -->
<!-- Title: detail::output_adapter_protocol&lt; CharType &gt; Pages: 1 -->
<svg width="488pt" height="310pt"
 viewBox="0.00 0.00 488.38 310.00" xmlns="http://www.w3.org/2000/svg" xmlns:xlink="http://www.w3.org/1999/xlink">
<g id="graph0" class="graph" transform="scale(1 1) rotate(0) translate(4 306)">
<title>detail::output_adapter_protocol&lt; CharType &gt;</title>
<!-- Node1 -->
<g id="node1" class="node">
<title>Node1</title>
<g id="a_node1"><a xlink:title="abstract output adapter interface">
<polygon fill="#999999" stroke="#666666" points="160.75,-145.5 160.75,-301.5 302,-301.5 302,-145.5 160.75,-145.5"/>
<text text-anchor="start" x="168.75" y="-288" font-family="Helvetica,sans-Serif" font-size="10.00">detail::output_adapter</text>
<text text-anchor="middle" x="231.38" y="-276" font-family="Helvetica,sans-Serif" font-size="10.00">_protocol&lt; CharType &gt;</text>
<polyline fill="none" stroke="#666666" points="160.75,-269.5 302,-269.5"/>
<text text-anchor="middle" x="231.38" y="-256" font-family="Helvetica,sans-Serif" font-size="10.00"> </text>
<polyline fill="none" stroke="#666666" points="160.75,-249.5 302,-249.5"/>
<text text-anchor="start" x="168.75" y="-236" font-family="Helvetica,sans-Serif" font-size="10.00">+ write_character()</text>
<text text-anchor="start" x="168.75" y="-224" font-family="Helvetica,sans-Serif" font-size="10.00">+ write_characters()</text>
<text text-anchor="start" x="168.75" y="-212" font-family="Helvetica,sans-Serif" font-size="10.00">+ ~output_adapter_protocol()</text>
<text text-anchor="start" x="168.75" y="-200" font-family="Helvetica,sans-Serif" font-size="10.00">+ output_adapter_protocol()</text>
<text text-anchor="start" x="168.75" y="-188" font-family="Helvetica,sans-Serif" font-size="10.00">+ output_adapter_protocol()</text>
<text text-anchor="start" x="168.75" y="-176" font-family="Helvetica,sans-Serif" font-size="10.00">+ output_adapter_protocol()</text>
<text text-anchor="start" x="168.75" y="-164" font-family="Helvetica,sans-Serif" font-size="10.00">+ operator=()</text>
<text text-anchor="start" x="168.75" y="-152" font-family="Helvetica,sans-Serif" font-size="10.00">+ operator=()</text>
</a>
</g>
</g>
<!-- Node2 -->
<g id="node2" class="node">
<title>Node2</title>
<g id="a_node2"><a xlink:href="classdetail_1_1output__stream__adapter.html" target="_top" xlink:title="output adapter for output streams">
<polygon fill="white" stroke="#666666" points="0,-6.5 0,-102.5 130.75,-102.5 130.75,-6.5 0,-6.5"/>
<text text-anchor="start" x="8" y="-89" font-family="Helvetica,sans-Serif" font-size="10.00">detail::output_stream</text>
<text text-anchor="middle" x="65.38" y="-77" font-family="Helvetica,sans-Serif" font-size="10.00">_adapter&lt; CharType &gt;</text>
<polyline fill="none" stroke="#666666" points="0,-70.5 130.75,-70.5"/>
<text text-anchor="middle" x="65.38" y="-57" font-family="Helvetica,sans-Serif" font-size="10.00"> </text>
<polyline fill="none" stroke="#666666" points="0,-50.5 130.75,-50.5"/>
<text text-anchor="start" x="8" y="-37" font-family="Helvetica,sans-Serif" font-size="10.00">+ output_stream_adapter()</text>
<text text-anchor="start" x="8" y="-25" font-family="Helvetica,sans-Serif" font-size="10.00">+ write_character()</text>
<text text-anchor="start" x="8" y="-13" font-family="Helvetica,sans-Serif" font-size="10.00">+ write_characters()</text>
</a>
</g>
</g>
<!-- Node1&#45;&gt;Node2 -->
<g id="edge1" class="edge">
<title>Node1&#45;&gt;Node2</title>
<path fill="none" stroke="#63b8ff" d="M152.47,-143.12C138.8,-129.37 124.99,-115.47 112.51,-102.92"/>
<polygon fill="none" stroke="#63b8ff" points="149.9,-145.49 159.43,-150.12 154.86,-140.56 149.9,-145.49"/>
</g>
<!-- Node3 -->
<g id="node3" class="node">
<title>Node3</title>
<g id="a_node3"><a xlink:href="classdetail_1_1output__string__adapter.html" target="_top" xlink:title="output adapter for basic_string">
<polygon fill="white" stroke="#666666" points="148.38,-6.5 148.38,-102.5 314.38,-102.5 314.38,-6.5 148.38,-6.5"/>
<text text-anchor="start" x="156.38" y="-89" font-family="Helvetica,sans-Serif" font-size="10.00">detail::output_string</text>
<text text-anchor="middle" x="231.38" y="-77" font-family="Helvetica,sans-Serif" font-size="10.00">_adapter&lt; CharType, StringType &gt;</text>
<polyline fill="none" stroke="#666666" points="148.38,-70.5 314.38,-70.5"/>
<text text-anchor="middle" x="231.38" y="-57" font-family="Helvetica,sans-Serif" font-size="10.00"> </text>
<polyline fill="none" stroke="#666666" points="148.38,-50.5 314.38,-50.5"/>
<text text-anchor="start" x="156.38" y="-37" font-family="Helvetica,sans-Serif" font-size="10.00">+ output_string_adapter()</text>
<text text-anchor="start" x="156.38" y="-25" font-family="Helvetica,sans-Serif" font-size="10.00">+ write_character()</text>
<text text-anchor="start" x="156.38" y="-13" font-family="Helvetica,sans-Serif" font-size="10.00">+ write_characters()</text>
</a>
</g>
</g>
<!-- Node1&#45;&gt;Node3 -->
<g id="edge2" class="edge">
<title>Node1&#45;&gt;Node3</title>
<path fill="none" stroke="#63b8ff" d="M231.38,-134.1C231.38,-123.3 231.38,-112.62 231.38,-102.77"/>
<polygon fill="none" stroke="#63b8ff" points="227.88,-133.84 231.38,-143.84 234.88,-133.84 227.88,-133.84"/>
</g>
<!-- Node4 -->
<g id="node4" class="node">
<title>Node4</title>
<g id="a_node4"><a xlink:href="classdetail_1_1output__vector__adapter.html" target="_top" xlink:title="output adapter for byte vectors">
<polygon fill="white" stroke="#666666" points="332.38,-0.5 332.38,-108.5 480.38,-108.5 480.38,-0.5 332.38,-0.5"/>
<text text-anchor="start" x="340.38" y="-95" font-family="Helvetica,sans-Serif" font-size="10.00">detail::output_vector</text>
<text text-anchor="start" x="340.38" y="-83" font-family="Helvetica,sans-Serif" font-size="10.00">_adapter&lt; CharType, Allocator</text>
<text text-anchor="middle" x="406.38" y="-71" font-family="Helvetica,sans-Serif" font-size="10.00">Type &gt;</text>
<polyline fill="none" stroke="#666666" points="332.38,-64.5 480.38,-64.5"/>
<text text-anchor="middle" x="406.38" y="-51" font-family="Helvetica,sans-Serif" font-size="10.00"> </text>
<polyline fill="none" stroke="#666666" points="332.38,-44.5 480.38,-44.5"/>
<text text-anchor="start" x="340.38" y="-31" font-family="Helvetica,sans-Serif" font-size="10.00">+ output_vector_adapter()</text>
<text text-anchor="start" x="340.38" y="-19" font-family="Helvetica,sans-Serif" font-size="10.00">+ write_character()</text>
<text text-anchor="start" x="340.38" y="-7" font-family="Helvetica,sans-Serif" font-size="10.00">+ write_characters()</text>
</a>
</g>
</g>
<!-- Node1&#45;&gt;Node4 -->
<g id="edge3" class="edge">
<title>Node1&#45;&gt;Node4</title>
<path fill="none" stroke="#63b8ff" d="M310.61,-146.88C324.04,-134.07 337.72,-121.01 350.39,-108.92"/>
<polygon fill="none" stroke="#63b8ff" points="308.22,-144.33 303.4,-153.77 313.05,-149.4 308.22,-144.33"/>
</g>
</g>
</svg>
