<?xml version="1.0" encoding="UTF-8" standalone="no"?>
<!DOCTYPE svg PUBLIC "-//W3C//DTD SVG 1.1//EN"
 "http://www.w3.org/Graphics/SVG/1.1/DTD/svg11.dtd">
<!-- Generated by graphviz version 12.2.1 (20241206.2353)
 -->
<!-- Title: detail::char_traits&lt; unsigned char &gt; Pages: 1 -->
<svg width="126pt" height="202pt"
 viewBox="0.00 0.00 126.00 202.00" xmlns="http://www.w3.org/2000/svg" xmlns:xlink="http://www.w3.org/1999/xlink">
<g id="graph0" class="graph" transform="scale(1 1) rotate(0) translate(4 198)">
<title>detail::char_traits&lt; unsigned char &gt;</title>
<!-- Node1 -->
<g id="node1" class="node">
<title>Node1</title>
<g id="a_node1"><a xlink:title=" ">
<polygon fill="#999999" stroke="#666666" points="11.62,-0.5 11.62,-96.5 106.38,-96.5 106.38,-0.5 11.62,-0.5"/>
<text text-anchor="start" x="19.62" y="-83" font-family="Helvetica,sans-Serif" font-size="10.00">detail::char_traits</text>
<text text-anchor="middle" x="59" y="-71" font-family="Helvetica,sans-Serif" font-size="10.00">&lt; unsigned char &gt;</text>
<polyline fill="none" stroke="#666666" points="11.62,-64.5 106.38,-64.5"/>
<text text-anchor="middle" x="59" y="-51" font-family="Helvetica,sans-Serif" font-size="10.00"> </text>
<polyline fill="none" stroke="#666666" points="11.62,-44.5 106.38,-44.5"/>
<text text-anchor="start" x="19.62" y="-31" font-family="Helvetica,sans-Serif" font-size="10.00">+ to_int_type()</text>
<text text-anchor="start" x="19.62" y="-19" font-family="Helvetica,sans-Serif" font-size="10.00">+ to_char_type()</text>
<text text-anchor="start" x="19.62" y="-7" font-family="Helvetica,sans-Serif" font-size="10.00">+ eof()</text>
</a>
</g>
</g>
<!-- Node2 -->
<g id="node2" class="node">
<title>Node2</title>
<g id="a_node2"><a xlink:title=" ">
<polygon fill="white" stroke="#666666" points="0,-133.5 0,-193.5 118,-193.5 118,-133.5 0,-133.5"/>
<text text-anchor="middle" x="59" y="-180" font-family="Helvetica,sans-Serif" font-size="10.00">std::char_traits&lt; char &gt;</text>
<polyline fill="none" stroke="#666666" points="0,-173.5 118,-173.5"/>
<text text-anchor="middle" x="59" y="-160" font-family="Helvetica,sans-Serif" font-size="10.00"> </text>
<polyline fill="none" stroke="#666666" points="0,-153.5 118,-153.5"/>
<text text-anchor="middle" x="59" y="-140" font-family="Helvetica,sans-Serif" font-size="10.00"> </text>
</a>
</g>
</g>
<!-- Node2&#45;&gt;Node1 -->
<g id="edge1" class="edge">
<title>Node2&#45;&gt;Node1</title>
<path fill="none" stroke="#63b8ff" d="M59,-121.66C59,-113.55 59,-104.99 59,-96.69"/>
<polygon fill="none" stroke="#63b8ff" points="55.5,-121.59 59,-131.59 62.5,-121.59 55.5,-121.59"/>
</g>
</g>
</svg>
