<?xml version="1.0" encoding="UTF-8" standalone="no"?>
<!DOCTYPE svg PUBLIC "-//W3C//DTD SVG 1.1//EN"
 "http://www.w3.org/Graphics/SVG/1.1/DTD/svg11.dtd">
<!-- Generated by graphviz version 12.2.1 (20241206.2353)
 -->
<!-- Title: detail::is_basic_json_context&lt; BasicJsonContext &gt; Pages: 1 -->
<svg width="180pt" height="250pt"
 viewBox="0.00 0.00 180.00 250.00" xmlns="http://www.w3.org/2000/svg" xmlns:xlink="http://www.w3.org/1999/xlink">
<g id="graph0" class="graph" transform="scale(1 1) rotate(0) translate(4 246)">
<title>detail::is_basic_json_context&lt; BasicJsonContext &gt;</title>
<!-- Node1 -->
<g id="node1" class="node">
<title>Node1</title>
<g id="a_node1"><a xlink:title=" ">
<polygon fill="#999999" stroke="#666666" points="10.12,-0.5 10.12,-72.5 161.88,-72.5 161.88,-0.5 10.12,-0.5"/>
<text text-anchor="start" x="18.12" y="-59" font-family="Helvetica,sans-Serif" font-size="10.00">detail::is_basic_json</text>
<text text-anchor="middle" x="86" y="-47" font-family="Helvetica,sans-Serif" font-size="10.00">_context&lt; BasicJsonContext &gt;</text>
<polyline fill="none" stroke="#666666" points="10.12,-40.5 161.88,-40.5"/>
<text text-anchor="middle" x="86" y="-27" font-family="Helvetica,sans-Serif" font-size="10.00"> </text>
<polyline fill="none" stroke="#666666" points="10.12,-20.5 161.88,-20.5"/>
<text text-anchor="middle" x="86" y="-7" font-family="Helvetica,sans-Serif" font-size="10.00"> </text>
</a>
</g>
</g>
<!-- Node2 -->
<g id="node2" class="node">
<title>Node2</title>
<g id="a_node2"><a xlink:title=" ">
<polygon fill="white" stroke="#666666" points="0,-109.5 0,-241.5 172,-241.5 172,-109.5 0,-109.5"/>
<text text-anchor="start" x="8" y="-228" font-family="Helvetica,sans-Serif" font-size="10.00">std::integral_constant</text>
<text text-anchor="start" x="8" y="-216" font-family="Helvetica,sans-Serif" font-size="10.00">&lt; bool, is_basic_json</text>
<text text-anchor="start" x="8" y="-204" font-family="Helvetica,sans-Serif" font-size="10.00">&lt; std::remove_cv&lt; std::</text>
<text text-anchor="start" x="8" y="-192" font-family="Helvetica,sans-Serif" font-size="10.00">remove_pointer&lt; BasicJsonContext</text>
<text text-anchor="start" x="8" y="-180" font-family="Helvetica,sans-Serif" font-size="10.00"> &gt;::type &gt;::type &gt;::value||std</text>
<text text-anchor="start" x="8" y="-168" font-family="Helvetica,sans-Serif" font-size="10.00">::is_same&lt; BasicJsonContext, std</text>
<text text-anchor="middle" x="86" y="-156" font-family="Helvetica,sans-Serif" font-size="10.00">::nullptr_t &gt;::value &gt;</text>
<polyline fill="none" stroke="#666666" points="0,-149.5 172,-149.5"/>
<text text-anchor="middle" x="86" y="-136" font-family="Helvetica,sans-Serif" font-size="10.00"> </text>
<polyline fill="none" stroke="#666666" points="0,-129.5 172,-129.5"/>
<text text-anchor="middle" x="86" y="-116" font-family="Helvetica,sans-Serif" font-size="10.00"> </text>
</a>
</g>
</g>
<!-- Node2&#45;&gt;Node1 -->
<g id="edge1" class="edge">
<title>Node2&#45;&gt;Node1</title>
<path fill="none" stroke="#63b8ff" d="M86,-97.75C86,-89.08 86,-80.58 86,-72.84"/>
<polygon fill="none" stroke="#63b8ff" points="82.5,-97.7 86,-107.7 89.5,-97.7 82.5,-97.7"/>
</g>
</g>
</svg>
