<?xml version="1.0" encoding="UTF-8" standalone="no"?>
<!DOCTYPE svg PUBLIC "-//W3C//DTD SVG 1.1//EN"
 "http://www.w3.org/Graphics/SVG/1.1/DTD/svg11.dtd">
<!-- Generated by graphviz version 12.2.1 (20241206.2353)
 -->
<!-- Title: detail::is_constructible&lt; T, Args &gt; Pages: 1 -->
<svg width="122pt" height="190pt"
 viewBox="0.00 0.00 121.50 190.00" xmlns="http://www.w3.org/2000/svg" xmlns:xlink="http://www.w3.org/1999/xlink">
<g id="graph0" class="graph" transform="scale(1 1) rotate(0) translate(4 186)">
<title>detail::is_constructible&lt; T, Args &gt;</title>
<!-- Node1 -->
<g id="node1" class="node">
<title>Node1</title>
<g id="a_node1"><a xlink:title=" ">
<polygon fill="#999999" stroke="#666666" points="0,-0.5 0,-72.5 113.5,-72.5 113.5,-0.5 0,-0.5"/>
<text text-anchor="start" x="8" y="-59" font-family="Helvetica,sans-Serif" font-size="10.00">detail::is_constructible</text>
<text text-anchor="middle" x="56.75" y="-47" font-family="Helvetica,sans-Serif" font-size="10.00">&lt; T, Args &gt;</text>
<polyline fill="none" stroke="#666666" points="0,-40.5 113.5,-40.5"/>
<text text-anchor="middle" x="56.75" y="-27" font-family="Helvetica,sans-Serif" font-size="10.00"> </text>
<polyline fill="none" stroke="#666666" points="0,-20.5 113.5,-20.5"/>
<text text-anchor="middle" x="56.75" y="-7" font-family="Helvetica,sans-Serif" font-size="10.00"> </text>
</a>
</g>
</g>
<!-- Node2 -->
<g id="node2" class="node">
<title>Node2</title>
<g id="a_node2"><a xlink:title=" ">
<polygon fill="white" stroke="#666666" points="4.88,-109.5 4.88,-181.5 108.62,-181.5 108.62,-109.5 4.88,-109.5"/>
<text text-anchor="start" x="12.88" y="-168" font-family="Helvetica,sans-Serif" font-size="10.00">std::is_constructible</text>
<text text-anchor="middle" x="56.75" y="-156" font-family="Helvetica,sans-Serif" font-size="10.00">&lt; T, Args... &gt;</text>
<polyline fill="none" stroke="#666666" points="4.88,-149.5 108.62,-149.5"/>
<text text-anchor="middle" x="56.75" y="-136" font-family="Helvetica,sans-Serif" font-size="10.00"> </text>
<polyline fill="none" stroke="#666666" points="4.88,-129.5 108.62,-129.5"/>
<text text-anchor="middle" x="56.75" y="-116" font-family="Helvetica,sans-Serif" font-size="10.00"> </text>
</a>
</g>
</g>
<!-- Node2&#45;&gt;Node1 -->
<g id="edge1" class="edge">
<title>Node2&#45;&gt;Node1</title>
<path fill="none" stroke="#63b8ff" d="M56.75,-97.91C56.75,-89.48 56.75,-80.83 56.75,-72.8"/>
<polygon fill="none" stroke="#63b8ff" points="53.25,-97.65 56.75,-107.65 60.25,-97.65 53.25,-97.65"/>
</g>
</g>
</svg>
