<?xml version="1.0" encoding="UTF-8" standalone="no"?>
<!DOCTYPE svg PUBLIC "-//W3C//DTD SVG 1.1//EN"
 "http://www.w3.org/Graphics/SVG/1.1/DTD/svg11.dtd">
<!-- Generated by graphviz version 12.2.1 (20241206.2353)
 -->
<!-- Title: detail::conjunction&lt; B, Bn... &gt; Pages: 1 -->
<svg width="126pt" height="214pt"
 viewBox="0.00 0.00 126.00 214.00" xmlns="http://www.w3.org/2000/svg" xmlns:xlink="http://www.w3.org/1999/xlink">
<g id="graph0" class="graph" transform="scale(1 1) rotate(0) translate(4 210)">
<title>detail::conjunction&lt; B, Bn... &gt;</title>
<!-- Node1 -->
<g id="node1" class="node">
<title>Node1</title>
<g id="a_node1"><a xlink:title=" ">
<polygon fill="#999999" stroke="#666666" points="11.62,-0.5 11.62,-72.5 106.38,-72.5 106.38,-0.5 11.62,-0.5"/>
<text text-anchor="start" x="19.62" y="-59" font-family="Helvetica,sans-Serif" font-size="10.00">detail::conjunction</text>
<text text-anchor="middle" x="59" y="-47" font-family="Helvetica,sans-Serif" font-size="10.00">&lt; B, Bn... &gt;</text>
<polyline fill="none" stroke="#666666" points="11.62,-40.5 106.38,-40.5"/>
<text text-anchor="middle" x="59" y="-27" font-family="Helvetica,sans-Serif" font-size="10.00"> </text>
<polyline fill="none" stroke="#666666" points="11.62,-20.5 106.38,-20.5"/>
<text text-anchor="middle" x="59" y="-7" font-family="Helvetica,sans-Serif" font-size="10.00"> </text>
</a>
</g>
</g>
<!-- Node2 -->
<g id="node2" class="node">
<title>Node2</title>
<g id="a_node2"><a xlink:title=" ">
<polygon fill="white" stroke="#666666" points="0,-109.5 0,-205.5 118,-205.5 118,-109.5 0,-109.5"/>
<text text-anchor="start" x="8" y="-192" font-family="Helvetica,sans-Serif" font-size="10.00">std::conditional&lt; static</text>
<text text-anchor="start" x="8" y="-180" font-family="Helvetica,sans-Serif" font-size="10.00">_cast&lt; bool &gt;(B::value)</text>
<text text-anchor="start" x="8" y="-168" font-family="Helvetica,sans-Serif" font-size="10.00">, conjunction&lt; Bn... &gt;,</text>
<text text-anchor="middle" x="59" y="-156" font-family="Helvetica,sans-Serif" font-size="10.00"> B &gt;::type</text>
<polyline fill="none" stroke="#666666" points="0,-149.5 118,-149.5"/>
<text text-anchor="middle" x="59" y="-136" font-family="Helvetica,sans-Serif" font-size="10.00"> </text>
<polyline fill="none" stroke="#666666" points="0,-129.5 118,-129.5"/>
<text text-anchor="middle" x="59" y="-116" font-family="Helvetica,sans-Serif" font-size="10.00"> </text>
</a>
</g>
</g>
<!-- Node2&#45;&gt;Node1 -->
<g id="edge1" class="edge">
<title>Node2&#45;&gt;Node1</title>
<path fill="none" stroke="#63b8ff" d="M59,-97.68C59,-89.24 59,-80.78 59,-72.97"/>
<polygon fill="none" stroke="#63b8ff" points="55.5,-97.61 59,-107.61 62.5,-97.61 55.5,-97.61"/>
</g>
</g>
</svg>
