<?xml version="1.0" encoding="UTF-8" standalone="no"?>
<!DOCTYPE svg PUBLIC "-//W3C//DTD SVG 1.1//EN"
 "http://www.w3.org/Graphics/SVG/1.1/DTD/svg11.dtd">
<!-- Generated by graphviz version 12.2.1 (20241206.2353)
 -->
<!-- Title: detail::is_default_constructible&lt; const std::tuple&lt; Ts... &gt; &gt; Pages: 1 -->
<svg width="136pt" height="311pt"
 viewBox="0.00 0.00 135.75 311.00" xmlns="http://www.w3.org/2000/svg" xmlns:xlink="http://www.w3.org/1999/xlink">
<g id="graph0" class="graph" transform="scale(1 1) rotate(0) translate(4 307)">
<title>detail::is_default_constructible&lt; const std::tuple&lt; Ts... &gt; &gt;</title>
<!-- Node1 -->
<g id="node1" class="node">
<title>Node1</title>
<g id="a_node1"><a xlink:title=" ">
<polygon fill="#999999" stroke="#666666" points="9,-0.5 9,-84.5 118.75,-84.5 118.75,-0.5 9,-0.5"/>
<text text-anchor="start" x="17" y="-71" font-family="Helvetica,sans-Serif" font-size="10.00">detail::is_default</text>
<text text-anchor="start" x="17" y="-59" font-family="Helvetica,sans-Serif" font-size="10.00">_constructible&lt; const</text>
<text text-anchor="middle" x="63.88" y="-47" font-family="Helvetica,sans-Serif" font-size="10.00"> std::tuple&lt; Ts... &gt; &gt;</text>
<polyline fill="none" stroke="#666666" points="9,-40.5 118.75,-40.5"/>
<text text-anchor="middle" x="63.88" y="-27" font-family="Helvetica,sans-Serif" font-size="10.00"> </text>
<polyline fill="none" stroke="#666666" points="9,-20.5 118.75,-20.5"/>
<text text-anchor="middle" x="63.88" y="-7" font-family="Helvetica,sans-Serif" font-size="10.00"> </text>
</a>
</g>
</g>
<!-- Node2 -->
<g id="node2" class="node">
<title>Node2</title>
<g id="a_node2"><a xlink:href="structdetail_1_1conjunction.html" target="_top" xlink:title=" ">
<polygon fill="white" stroke="#666666" points="0,-121.5 0,-205.5 127.75,-205.5 127.75,-121.5 0,-121.5"/>
<text text-anchor="start" x="8" y="-192" font-family="Helvetica,sans-Serif" font-size="10.00">detail::conjunction</text>
<text text-anchor="start" x="8" y="-180" font-family="Helvetica,sans-Serif" font-size="10.00">&lt; is_default_constructible</text>
<text text-anchor="middle" x="63.88" y="-168" font-family="Helvetica,sans-Serif" font-size="10.00">&lt; Ts &gt;... &gt;</text>
<polyline fill="none" stroke="#666666" points="0,-161.5 127.75,-161.5"/>
<text text-anchor="middle" x="63.88" y="-148" font-family="Helvetica,sans-Serif" font-size="10.00"> </text>
<polyline fill="none" stroke="#666666" points="0,-141.5 127.75,-141.5"/>
<text text-anchor="middle" x="63.88" y="-128" font-family="Helvetica,sans-Serif" font-size="10.00"> </text>
</a>
</g>
</g>
<!-- Node2&#45;&gt;Node1 -->
<g id="edge1" class="edge">
<title>Node2&#45;&gt;Node1</title>
<path fill="none" stroke="#63b8ff" d="M63.88,-109.89C63.88,-101.46 63.88,-92.83 63.88,-84.71"/>
<polygon fill="none" stroke="#63b8ff" points="60.38,-109.7 63.88,-119.7 67.38,-109.7 60.38,-109.7"/>
</g>
<!-- Node3 -->
<g id="node3" class="node">
<title>Node3</title>
<g id="a_node3"><a xlink:title=" ">
<polygon fill="white" stroke="#666666" points="25.88,-242.5 25.88,-302.5 101.88,-302.5 101.88,-242.5 25.88,-242.5"/>
<text text-anchor="middle" x="63.88" y="-289" font-family="Helvetica,sans-Serif" font-size="10.00">std::true_type</text>
<polyline fill="none" stroke="#666666" points="25.88,-282.5 101.88,-282.5"/>
<text text-anchor="middle" x="63.88" y="-269" font-family="Helvetica,sans-Serif" font-size="10.00"> </text>
<polyline fill="none" stroke="#666666" points="25.88,-262.5 101.88,-262.5"/>
<text text-anchor="middle" x="63.88" y="-249" font-family="Helvetica,sans-Serif" font-size="10.00"> </text>
</a>
</g>
</g>
<!-- Node3&#45;&gt;Node2 -->
<g id="edge2" class="edge">
<title>Node3&#45;&gt;Node2</title>
<path fill="none" stroke="#63b8ff" d="M63.88,-230.97C63.88,-222.71 63.88,-214.02 63.88,-205.74"/>
<polygon fill="none" stroke="#63b8ff" points="60.38,-230.75 63.88,-240.75 67.38,-230.75 60.38,-230.75"/>
</g>
</g>
</svg>
