<?xml version="1.0" encoding="UTF-8" standalone="no"?>
<!DOCTYPE svg PUBLIC "-//W3C//DTD SVG 1.1//EN"
 "http://www.w3.org/Graphics/SVG/1.1/DTD/svg11.dtd">
<!-- Generated by graphviz version 12.2.1 (20241206.2353)
 -->
<!-- Title: detail::negation&lt; B &gt; Pages: 1 -->
<svg width="118pt" height="178pt"
 viewBox="0.00 0.00 117.75 178.00" xmlns="http://www.w3.org/2000/svg" xmlns:xlink="http://www.w3.org/1999/xlink">
<g id="graph0" class="graph" transform="scale(1 1) rotate(0) translate(4 174)">
<title>detail::negation&lt; B &gt;</title>
<!-- Node1 -->
<g id="node1" class="node">
<title>Node1</title>
<g id="a_node1"><a xlink:title=" ">
<polygon fill="#999999" stroke="#666666" points="1.5,-0.5 1.5,-60.5 108.25,-60.5 108.25,-0.5 1.5,-0.5"/>
<text text-anchor="middle" x="54.88" y="-47" font-family="Helvetica,sans-Serif" font-size="10.00">detail::negation&lt; B &gt;</text>
<polyline fill="none" stroke="#666666" points="1.5,-40.5 108.25,-40.5"/>
<text text-anchor="middle" x="54.88" y="-27" font-family="Helvetica,sans-Serif" font-size="10.00"> </text>
<polyline fill="none" stroke="#666666" points="1.5,-20.5 108.25,-20.5"/>
<text text-anchor="middle" x="54.88" y="-7" font-family="Helvetica,sans-Serif" font-size="10.00"> </text>
</a>
</g>
</g>
<!-- Node2 -->
<g id="node2" class="node">
<title>Node2</title>
<g id="a_node2"><a xlink:title=" ">
<polygon fill="white" stroke="#666666" points="0,-97.5 0,-169.5 109.75,-169.5 109.75,-97.5 0,-97.5"/>
<text text-anchor="start" x="8" y="-156" font-family="Helvetica,sans-Serif" font-size="10.00">std::integral_constant</text>
<text text-anchor="middle" x="54.88" y="-144" font-family="Helvetica,sans-Serif" font-size="10.00">&lt; bool, !B::value &gt;</text>
<polyline fill="none" stroke="#666666" points="0,-137.5 109.75,-137.5"/>
<text text-anchor="middle" x="54.88" y="-124" font-family="Helvetica,sans-Serif" font-size="10.00"> </text>
<polyline fill="none" stroke="#666666" points="0,-117.5 109.75,-117.5"/>
<text text-anchor="middle" x="54.88" y="-104" font-family="Helvetica,sans-Serif" font-size="10.00"> </text>
</a>
</g>
</g>
<!-- Node2&#45;&gt;Node1 -->
<g id="edge1" class="edge">
<title>Node2&#45;&gt;Node1</title>
<path fill="none" stroke="#63b8ff" d="M54.88,-85.81C54.88,-77.35 54.88,-68.74 54.88,-60.95"/>
<polygon fill="none" stroke="#63b8ff" points="51.38,-85.66 54.88,-95.66 58.38,-85.66 51.38,-85.66"/>
</g>
</g>
</svg>
