<?xml version="1.0" encoding="UTF-8" standalone="no"?>
<!DOCTYPE svg PUBLIC "-//W3C//DTD SVG 1.1//EN"
 "http://www.w3.org/Graphics/SVG/1.1/DTD/svg11.dtd">
<!-- Generated by graphviz version 12.2.1 (20241206.2353)
 -->
<!-- Title: CTransform Pages: 1 -->
<svg width="91pt" height="214pt"
 viewBox="0.00 0.00 90.75 214.00" xmlns="http://www.w3.org/2000/svg" xmlns:xlink="http://www.w3.org/1999/xlink">
<g id="graph0" class="graph" transform="scale(1 1) rotate(0) translate(4 210)">
<title>CTransform</title>
<!-- Node1 -->
<g id="node1" class="node">
<title>Node1</title>
<g id="a_node1"><a xlink:title=" ">
<polygon fill="#999999" stroke="#666666" points="0,-0.5 0,-108.5 82.75,-108.5 82.75,-0.5 0,-0.5"/>
<text text-anchor="middle" x="41.38" y="-95" font-family="Helvetica,sans-Serif" font-size="10.00">CTransform</text>
<polyline fill="none" stroke="#666666" points="0,-88.5 82.75,-88.5"/>
<text text-anchor="start" x="8" y="-75" font-family="Helvetica,sans-Serif" font-size="10.00">+ position</text>
<text text-anchor="start" x="8" y="-63" font-family="Helvetica,sans-Serif" font-size="10.00">+ scale</text>
<text text-anchor="start" x="8" y="-51" font-family="Helvetica,sans-Serif" font-size="10.00">+ velocity</text>
<text text-anchor="start" x="8" y="-39" font-family="Helvetica,sans-Serif" font-size="10.00">+ rotation</text>
<polyline fill="none" stroke="#666666" points="0,-32.5 82.75,-32.5"/>
<text text-anchor="start" x="8" y="-19" font-family="Helvetica,sans-Serif" font-size="10.00">+ CTransform()</text>
<text text-anchor="start" x="8" y="-7" font-family="Helvetica,sans-Serif" font-size="10.00">+ CTransform()</text>
</a>
</g>
</g>
<!-- Node2 -->
<g id="node2" class="node">
<title>Node2</title>
<g id="a_node2"><a xlink:href="structComponent.html" target="_top" xlink:title=" ">
<polygon fill="white" stroke="#666666" points="8.25,-145.5 8.25,-205.5 74.5,-205.5 74.5,-145.5 8.25,-145.5"/>
<text text-anchor="middle" x="41.38" y="-192" font-family="Helvetica,sans-Serif" font-size="10.00">Component</text>
<polyline fill="none" stroke="#666666" points="8.25,-185.5 74.5,-185.5"/>
<text text-anchor="start" x="16.25" y="-172" font-family="Helvetica,sans-Serif" font-size="10.00">+ has</text>
<polyline fill="none" stroke="#666666" points="8.25,-165.5 74.5,-165.5"/>
<text text-anchor="middle" x="41.38" y="-152" font-family="Helvetica,sans-Serif" font-size="10.00"> </text>
</a>
</g>
</g>
<!-- Node2&#45;&gt;Node1 -->
<g id="edge1" class="edge">
<title>Node2&#45;&gt;Node1</title>
<path fill="none" stroke="#63b8ff" d="M41.38,-133.72C41.38,-125.66 41.38,-117.09 41.38,-108.69"/>
<polygon fill="none" stroke="#63b8ff" points="37.88,-133.57 41.38,-143.57 44.88,-133.57 37.88,-133.57"/>
</g>
</g>
</svg>
