<?xml version="1.0" encoding="UTF-8" standalone="no"?>
<!DOCTYPE svg PUBLIC "-//W3C//DTD SVG 1.1//EN"
 "http://www.w3.org/Graphics/SVG/1.1/DTD/svg11.dtd">
<!-- Generated by graphviz version 12.2.1 (20241206.2353)
 -->
<!-- Title: detail::is_constructible_array_type_impl&lt; BasicJsonType, ConstructibleArrayType, typename &gt; Pages: 1 -->
<svg width="187pt" height="311pt"
 viewBox="0.00 0.00 186.75 311.00" xmlns="http://www.w3.org/2000/svg" xmlns:xlink="http://www.w3.org/1999/xlink">
<g id="graph0" class="graph" transform="scale(1 1) rotate(0) translate(4 307)">
<title>detail::is_constructible_array_type_impl&lt; BasicJsonType, ConstructibleArrayType, typename &gt;</title>
<!-- Node1 -->
<g id="node1" class="node">
<title>Node1</title>
<g id="a_node1"><a xlink:title=" ">
<polygon fill="#999999" stroke="#666666" points="0,-121.5 0,-205.5 178.75,-205.5 178.75,-121.5 0,-121.5"/>
<text text-anchor="start" x="8" y="-192" font-family="Helvetica,sans-Serif" font-size="10.00">detail::is_constructible</text>
<text text-anchor="start" x="8" y="-180" font-family="Helvetica,sans-Serif" font-size="10.00">_array_type_impl&lt; BasicJsonType,</text>
<text text-anchor="middle" x="89.38" y="-168" font-family="Helvetica,sans-Serif" font-size="10.00"> ConstructibleArrayType, typename &gt;</text>
<polyline fill="none" stroke="#666666" points="0,-161.5 178.75,-161.5"/>
<text text-anchor="middle" x="89.38" y="-148" font-family="Helvetica,sans-Serif" font-size="10.00"> </text>
<polyline fill="none" stroke="#666666" points="0,-141.5 178.75,-141.5"/>
<text text-anchor="middle" x="89.38" y="-128" font-family="Helvetica,sans-Serif" font-size="10.00"> </text>
</a>
</g>
</g>
<!-- Node3 -->
<g id="node3" class="node">
<title>Node3</title>
<g id="a_node3"><a xlink:href="structdetail_1_1is__constructible__array__type.html" target="_top" xlink:title=" ">
<polygon fill="white" stroke="#666666" points="16.5,-0.5 16.5,-84.5 162.25,-84.5 162.25,-0.5 16.5,-0.5"/>
<text text-anchor="start" x="24.5" y="-71" font-family="Helvetica,sans-Serif" font-size="10.00">detail::is_constructible</text>
<text text-anchor="start" x="24.5" y="-59" font-family="Helvetica,sans-Serif" font-size="10.00">_array_type&lt; BasicJsonType,</text>
<text text-anchor="middle" x="89.38" y="-47" font-family="Helvetica,sans-Serif" font-size="10.00"> ConstructibleArrayType &gt;</text>
<polyline fill="none" stroke="#666666" points="16.5,-40.5 162.25,-40.5"/>
<text text-anchor="middle" x="89.38" y="-27" font-family="Helvetica,sans-Serif" font-size="10.00"> </text>
<polyline fill="none" stroke="#666666" points="16.5,-20.5 162.25,-20.5"/>
<text text-anchor="middle" x="89.38" y="-7" font-family="Helvetica,sans-Serif" font-size="10.00"> </text>
</a>
</g>
</g>
<!-- Node1&#45;&gt;Node3 -->
<g id="edge2" class="edge">
<title>Node1&#45;&gt;Node3</title>
<path fill="none" stroke="#63b8ff" d="M89.38,-109.89C89.38,-101.46 89.38,-92.83 89.38,-84.71"/>
<polygon fill="none" stroke="#63b8ff" points="85.88,-109.7 89.38,-119.7 92.88,-109.7 85.88,-109.7"/>
</g>
<!-- Node2 -->
<g id="node2" class="node">
<title>Node2</title>
<g id="a_node2"><a xlink:title=" ">
<polygon fill="white" stroke="#666666" points="49.12,-242.5 49.12,-302.5 129.62,-302.5 129.62,-242.5 49.12,-242.5"/>
<text text-anchor="middle" x="89.38" y="-289" font-family="Helvetica,sans-Serif" font-size="10.00">std::false_type</text>
<polyline fill="none" stroke="#666666" points="49.12,-282.5 129.62,-282.5"/>
<text text-anchor="middle" x="89.38" y="-269" font-family="Helvetica,sans-Serif" font-size="10.00"> </text>
<polyline fill="none" stroke="#666666" points="49.12,-262.5 129.62,-262.5"/>
<text text-anchor="middle" x="89.38" y="-249" font-family="Helvetica,sans-Serif" font-size="10.00"> </text>
</a>
</g>
</g>
<!-- Node2&#45;&gt;Node1 -->
<g id="edge1" class="edge">
<title>Node2&#45;&gt;Node1</title>
<path fill="none" stroke="#63b8ff" d="M89.38,-230.97C89.38,-222.71 89.38,-214.02 89.38,-205.74"/>
<polygon fill="none" stroke="#63b8ff" points="85.88,-230.75 89.38,-240.75 92.88,-230.75 85.88,-230.75"/>
</g>
</g>
</svg>
