<?xml version="1.0" encoding="UTF-8" standalone="no"?>
<!DOCTYPE svg PUBLIC "-//W3C//DTD SVG 1.1//EN"
 "http://www.w3.org/Graphics/SVG/1.1/DTD/svg11.dtd">
<!-- Generated by graphviz version 12.2.1 (20241206.2353)
 -->
<!-- Title: detail::from_json_fn::operator() Pages: 1 -->
<svg width="764pt" height="135pt"
 viewBox="0.00 0.00 764.00 135.00" xmlns="http://www.w3.org/2000/svg" xmlns:xlink="http://www.w3.org/1999/xlink">
<g id="graph0" class="graph" transform="scale(1 1) rotate(0) translate(4 131)">
<title>detail::from_json_fn::operator()</title>
<!-- Node1 -->
<g id="node1" class="node">
<title>Node1</title>
<g id="a_node1"><a xlink:title=" ">
<polygon fill="#999999" stroke="#666666" points="101.5,-111 0,-111 0,-79 101.5,-79 101.5,-111"/>
<text text-anchor="start" x="8" y="-97.5" font-family="Helvetica,sans-Serif" font-size="10.00">detail::from_json_fn</text>
<text text-anchor="middle" x="50.75" y="-85.5" font-family="Helvetica,sans-Serif" font-size="10.00">::operator()</text>
</a>
</g>
</g>
<!-- Node2 -->
<g id="node2" class="node">
<title>Node2</title>
<g id="a_node2"><a xlink:href="namespacedetail.html#ac8fc7fc4703cbd8edd7bb43a94adf92b" target="_top" xlink:title=" ">
<polygon fill="white" stroke="#666666" points="225.5,-105 137.5,-105 137.5,-85 225.5,-85 225.5,-105"/>
<text text-anchor="middle" x="181.5" y="-91.5" font-family="Helvetica,sans-Serif" font-size="10.00">detail::from_json</text>
</a>
</g>
</g>
<!-- Node1&#45;&gt;Node2 -->
<g id="edge1" class="edge">
<title>Node1&#45;&gt;Node2</title>
<path fill="none" stroke="#63b8ff" d="M101.9,-95C109.77,-95 117.95,-95 125.91,-95"/>
<polygon fill="#63b8ff" stroke="#63b8ff" points="125.87,-98.5 135.87,-95 125.87,-91.5 125.87,-98.5"/>
</g>
<!-- Node3 -->
<g id="node3" class="node">
<title>Node3</title>
<g id="a_node3"><a xlink:href="namespacedetail.html#a266fb3d4bf633ad6c506434cc91164da" target="_top" xlink:title=" ">
<polygon fill="white" stroke="#666666" points="614,-108 539.5,-108 539.5,-88 614,-88 614,-108"/>
<text text-anchor="middle" x="576.75" y="-94.5" font-family="Helvetica,sans-Serif" font-size="10.00">detail::concat</text>
</a>
</g>
</g>
<!-- Node2&#45;&gt;Node3 -->
<g id="edge2" class="edge">
<title>Node2&#45;&gt;Node3</title>
<path fill="none" stroke="#63b8ff" d="M225.96,-96.82C237.51,-97.26 249.98,-97.69 261.5,-98 369.02,-100.9 395.95,-101.49 503.5,-100 511.43,-99.89 519.85,-99.71 528.03,-99.51"/>
<polygon fill="#63b8ff" stroke="#63b8ff" points="527.95,-103.01 537.86,-99.24 527.77,-96.01 527.95,-103.01"/>
</g>
<!-- Node6 -->
<g id="node6" class="node">
<title>Node6</title>
<g id="a_node6"><a xlink:href="classdetail_1_1type__error.html#a2d25372628cf1e09ec67718f4bc42762" target="_top" xlink:title=" ">
<polygon fill="white" stroke="#666666" points="350.25,-89 261.5,-89 261.5,-57 350.25,-57 350.25,-89"/>
<text text-anchor="start" x="269.5" y="-75.5" font-family="Helvetica,sans-Serif" font-size="10.00">detail::type_error</text>
<text text-anchor="middle" x="305.88" y="-63.5" font-family="Helvetica,sans-Serif" font-size="10.00">::create</text>
</a>
</g>
</g>
<!-- Node2&#45;&gt;Node6 -->
<g id="edge5" class="edge">
<title>Node2&#45;&gt;Node6</title>
<path fill="none" stroke="#63b8ff" d="M225.99,-87.18C233.74,-85.79 241.91,-84.32 249.93,-82.88"/>
<polygon fill="#63b8ff" stroke="#63b8ff" points="250.4,-86.35 259.62,-81.14 249.16,-79.46 250.4,-86.35"/>
</g>
<!-- Node4 -->
<g id="node4" class="node">
<title>Node4</title>
<g id="a_node4"><a xlink:href="namespacedetail.html#a89f967b745cf8df11ba9d59f93d97753" target="_top" xlink:title=" ">
<polygon fill="white" stroke="#666666" points="750.75,-127 655.25,-127 655.25,-107 750.75,-107 750.75,-127"/>
<text text-anchor="middle" x="703" y="-113.5" font-family="Helvetica,sans-Serif" font-size="10.00">detail::concat_into</text>
</a>
</g>
</g>
<!-- Node3&#45;&gt;Node4 -->
<g id="edge3" class="edge">
<title>Node3&#45;&gt;Node4</title>
<path fill="none" stroke="#63b8ff" d="M614.36,-103.6C623.61,-105.01 633.79,-106.57 643.82,-108.1"/>
<polygon fill="#63b8ff" stroke="#63b8ff" points="643.13,-111.54 653.54,-109.59 644.19,-104.62 643.13,-111.54"/>
</g>
<!-- Node5 -->
<g id="node5" class="node">
<title>Node5</title>
<g id="a_node5"><a xlink:href="namespacedetail.html#ac185140ed8c8fcc07a302a890b714b0d" target="_top" xlink:title=" ">
<polygon fill="white" stroke="#666666" points="756,-89 650,-89 650,-69 756,-69 756,-89"/>
<text text-anchor="middle" x="703" y="-75.5" font-family="Helvetica,sans-Serif" font-size="10.00">detail::concat_length</text>
</a>
</g>
</g>
<!-- Node3&#45;&gt;Node5 -->
<g id="edge4" class="edge">
<title>Node3&#45;&gt;Node5</title>
<path fill="none" stroke="#63b8ff" d="M614.36,-92.4C621.94,-91.24 630.13,-89.99 638.36,-88.73"/>
<polygon fill="#63b8ff" stroke="#63b8ff" points="638.69,-92.22 648.05,-87.25 637.63,-85.3 638.69,-92.22"/>
</g>
<!-- Node6&#45;&gt;Node3 -->
<g id="edge6" class="edge">
<title>Node6&#45;&gt;Node3</title>
<path fill="none" stroke="#63b8ff" d="M350.67,-77.07C399.41,-81.6 477.88,-88.9 528.11,-93.57"/>
<polygon fill="#63b8ff" stroke="#63b8ff" points="527.52,-97.03 537.8,-94.47 528.17,-90.06 527.52,-97.03"/>
</g>
<!-- Node7 -->
<g id="node7" class="node">
<title>Node7</title>
<g id="a_node7"><a xlink:href="classdetail_1_1exception.html#a6b4a786b5c1c25dd3edaceb1bf2d5120" target="_top" xlink:title=" ">
<polygon fill="white" stroke="#666666" points="491.5,-70 398.25,-70 398.25,-38 491.5,-38 491.5,-70"/>
<text text-anchor="start" x="406.25" y="-56.5" font-family="Helvetica,sans-Serif" font-size="10.00">detail::exception::</text>
<text text-anchor="middle" x="444.88" y="-44.5" font-family="Helvetica,sans-Serif" font-size="10.00">diagnostics</text>
</a>
</g>
</g>
<!-- Node6&#45;&gt;Node7 -->
<g id="edge7" class="edge">
<title>Node6&#45;&gt;Node7</title>
<path fill="none" stroke="#63b8ff" d="M350.6,-66.94C362.11,-65.34 374.7,-63.59 386.81,-61.91"/>
<polygon fill="#63b8ff" stroke="#63b8ff" points="387.28,-65.38 396.71,-60.54 386.32,-58.45 387.28,-65.38"/>
</g>
<!-- Node8 -->
<g id="node8" class="node">
<title>Node8</title>
<g id="a_node8"><a xlink:href="classdetail_1_1exception.html#a8f1eb56b9964c8dd84d89d0da98d883b" target="_top" xlink:title=" ">
<polygon fill="white" stroke="#666666" points="503.5,-20 386.25,-20 386.25,0 503.5,0 503.5,-20"/>
<text text-anchor="middle" x="444.88" y="-6.5" font-family="Helvetica,sans-Serif" font-size="10.00">detail::exception::name</text>
</a>
</g>
</g>
<!-- Node6&#45;&gt;Node8 -->
<g id="edge8" class="edge">
<title>Node6&#45;&gt;Node8</title>
<path fill="none" stroke="#63b8ff" d="M333.42,-56.64C348.55,-47.74 368.06,-36.96 386.25,-29 390.04,-27.34 394.03,-25.74 398.06,-24.23"/>
<polygon fill="#63b8ff" stroke="#63b8ff" points="399.07,-27.58 407.31,-20.93 396.72,-20.99 399.07,-27.58"/>
</g>
<!-- Node8&#45;&gt;Node3 -->
<g id="edge9" class="edge">
<title>Node8&#45;&gt;Node3</title>
<path fill="none" stroke="#63b8ff" d="M485.35,-20.41C491.63,-22.79 497.9,-25.64 503.5,-29 525.67,-42.3 546.52,-63.51 560.07,-78.9"/>
<polygon fill="#63b8ff" stroke="#63b8ff" points="557.37,-81.13 566.52,-86.46 562.69,-76.59 557.37,-81.13"/>
</g>
</g>
</svg>
