<?xml version="1.0" encoding="UTF-8" standalone="no"?>
<!DOCTYPE svg PUBLIC "-//W3C//DTD SVG 1.1//EN"
 "http://www.w3.org/Graphics/SVG/1.1/DTD/svg11.dtd">
<!-- Generated by graphviz version 12.2.1 (20241206.2353)
 -->
<!-- Title: detail::is_compatible_array_type&lt; BasicJsonType, CompatibleArrayType &gt; Pages: 1 -->
<svg width="154pt" height="323pt"
 viewBox="0.00 0.00 153.75 323.00" xmlns="http://www.w3.org/2000/svg" xmlns:xlink="http://www.w3.org/1999/xlink">
<g id="graph0" class="graph" transform="scale(1 1) rotate(0) translate(4 319)">
<title>detail::is_compatible_array_type&lt; BasicJsonType, CompatibleArrayType &gt;</title>
<!-- Node1 -->
<g id="node1" class="node">
<title>Node1</title>
<g id="a_node1"><a xlink:title=" ">
<polygon fill="#999999" stroke="#666666" points="0,-0.5 0,-84.5 145.75,-84.5 145.75,-0.5 0,-0.5"/>
<text text-anchor="start" x="8" y="-71" font-family="Helvetica,sans-Serif" font-size="10.00">detail::is_compatible</text>
<text text-anchor="start" x="8" y="-59" font-family="Helvetica,sans-Serif" font-size="10.00">_array_type&lt; BasicJsonType,</text>
<text text-anchor="middle" x="72.88" y="-47" font-family="Helvetica,sans-Serif" font-size="10.00"> CompatibleArrayType &gt;</text>
<polyline fill="none" stroke="#666666" points="0,-40.5 145.75,-40.5"/>
<text text-anchor="middle" x="72.88" y="-27" font-family="Helvetica,sans-Serif" font-size="10.00"> </text>
<polyline fill="none" stroke="#666666" points="0,-20.5 145.75,-20.5"/>
<text text-anchor="middle" x="72.88" y="-7" font-family="Helvetica,sans-Serif" font-size="10.00"> </text>
</a>
</g>
</g>
<!-- Node2 -->
<g id="node2" class="node">
<title>Node2</title>
<g id="a_node2"><a xlink:href="structdetail_1_1is__compatible__array__type__impl.html" target="_top" xlink:title=" ">
<polygon fill="white" stroke="#666666" points="0.38,-121.5 0.38,-217.5 145.38,-217.5 145.38,-121.5 0.38,-121.5"/>
<text text-anchor="start" x="8.38" y="-204" font-family="Helvetica,sans-Serif" font-size="10.00">detail::is_compatible</text>
<text text-anchor="start" x="8.38" y="-192" font-family="Helvetica,sans-Serif" font-size="10.00">_array_type_impl&lt; BasicJson</text>
<text text-anchor="start" x="8.38" y="-180" font-family="Helvetica,sans-Serif" font-size="10.00">Type, CompatibleArrayType,</text>
<text text-anchor="middle" x="72.88" y="-168" font-family="Helvetica,sans-Serif" font-size="10.00"> typename &gt;</text>
<polyline fill="none" stroke="#666666" points="0.38,-161.5 145.38,-161.5"/>
<text text-anchor="middle" x="72.88" y="-148" font-family="Helvetica,sans-Serif" font-size="10.00"> </text>
<polyline fill="none" stroke="#666666" points="0.38,-141.5 145.38,-141.5"/>
<text text-anchor="middle" x="72.88" y="-128" font-family="Helvetica,sans-Serif" font-size="10.00"> </text>
</a>
</g>
</g>
<!-- Node2&#45;&gt;Node1 -->
<g id="edge1" class="edge">
<title>Node2&#45;&gt;Node1</title>
<path fill="none" stroke="#63b8ff" d="M72.88,-109.79C72.88,-101.3 72.88,-92.72 72.88,-84.68"/>
<polygon fill="none" stroke="#63b8ff" points="69.38,-109.73 72.88,-119.73 76.38,-109.73 69.38,-109.73"/>
</g>
<!-- Node3 -->
<g id="node3" class="node">
<title>Node3</title>
<g id="a_node3"><a xlink:title=" ">
<polygon fill="white" stroke="#666666" points="32.62,-254.5 32.62,-314.5 113.12,-314.5 113.12,-254.5 32.62,-254.5"/>
<text text-anchor="middle" x="72.88" y="-301" font-family="Helvetica,sans-Serif" font-size="10.00">std::false_type</text>
<polyline fill="none" stroke="#666666" points="32.62,-294.5 113.12,-294.5"/>
<text text-anchor="middle" x="72.88" y="-281" font-family="Helvetica,sans-Serif" font-size="10.00"> </text>
<polyline fill="none" stroke="#666666" points="32.62,-274.5 113.12,-274.5"/>
<text text-anchor="middle" x="72.88" y="-261" font-family="Helvetica,sans-Serif" font-size="10.00"> </text>
</a>
</g>
</g>
<!-- Node3&#45;&gt;Node2 -->
<g id="edge2" class="edge">
<title>Node3&#45;&gt;Node2</title>
<path fill="none" stroke="#63b8ff" d="M72.88,-242.66C72.88,-234.55 72.88,-225.99 72.88,-217.69"/>
<polygon fill="none" stroke="#63b8ff" points="69.38,-242.59 72.88,-252.59 76.38,-242.59 69.38,-242.59"/>
</g>
</g>
</svg>
