<?xml version="1.0" encoding="UTF-8" standalone="no"?>
<!DOCTYPE svg PUBLIC "-//W3C//DTD SVG 1.1//EN"
 "http://www.w3.org/Graphics/SVG/1.1/DTD/svg11.dtd">
<!-- Generated by graphviz version 12.2.1 (20241206.2353)
 -->
<!-- Title: detail::is_constructible_object_type_impl&lt; BasicJsonType, ConstructibleObjectType, typename &gt; Pages: 1 -->
<svg width="192pt" height="190pt"
 viewBox="0.00 0.00 192.00 190.00" xmlns="http://www.w3.org/2000/svg" xmlns:xlink="http://www.w3.org/1999/xlink">
<g id="graph0" class="graph" transform="scale(1 1) rotate(0) translate(4 186)">
<title>detail::is_constructible_object_type_impl&lt; BasicJsonType, ConstructibleObjectType, typename &gt;</title>
<!-- Node1 -->
<g id="node1" class="node">
<title>Node1</title>
<g id="a_node1"><a xlink:title=" ">
<polygon fill="#999999" stroke="#666666" points="0,-0.5 0,-84.5 184,-84.5 184,-0.5 0,-0.5"/>
<text text-anchor="start" x="8" y="-71" font-family="Helvetica,sans-Serif" font-size="10.00">detail::is_constructible</text>
<text text-anchor="start" x="8" y="-59" font-family="Helvetica,sans-Serif" font-size="10.00">_object_type_impl&lt; BasicJsonType,</text>
<text text-anchor="middle" x="92" y="-47" font-family="Helvetica,sans-Serif" font-size="10.00"> ConstructibleObjectType, typename &gt;</text>
<polyline fill="none" stroke="#666666" points="0,-40.5 184,-40.5"/>
<text text-anchor="middle" x="92" y="-27" font-family="Helvetica,sans-Serif" font-size="10.00"> </text>
<polyline fill="none" stroke="#666666" points="0,-20.5 184,-20.5"/>
<text text-anchor="middle" x="92" y="-7" font-family="Helvetica,sans-Serif" font-size="10.00"> </text>
</a>
</g>
</g>
<!-- Node2 -->
<g id="node2" class="node">
<title>Node2</title>
<g id="a_node2"><a xlink:title=" ">
<polygon fill="white" stroke="#666666" points="51.75,-121.5 51.75,-181.5 132.25,-181.5 132.25,-121.5 51.75,-121.5"/>
<text text-anchor="middle" x="92" y="-168" font-family="Helvetica,sans-Serif" font-size="10.00">std::false_type</text>
<polyline fill="none" stroke="#666666" points="51.75,-161.5 132.25,-161.5"/>
<text text-anchor="middle" x="92" y="-148" font-family="Helvetica,sans-Serif" font-size="10.00"> </text>
<polyline fill="none" stroke="#666666" points="51.75,-141.5 132.25,-141.5"/>
<text text-anchor="middle" x="92" y="-128" font-family="Helvetica,sans-Serif" font-size="10.00"> </text>
</a>
</g>
</g>
<!-- Node2&#45;&gt;Node1 -->
<g id="edge1" class="edge">
<title>Node2&#45;&gt;Node1</title>
<path fill="none" stroke="#63b8ff" d="M92,-109.97C92,-101.71 92,-93.02 92,-84.74"/>
<polygon fill="none" stroke="#63b8ff" points="88.5,-109.75 92,-119.75 95.5,-109.75 88.5,-109.75"/>
</g>
</g>
</svg>
