<?xml version="1.0" encoding="UTF-8" standalone="no"?>
<!DOCTYPE svg PUBLIC "-//W3C//DTD SVG 1.1//EN"
 "http://www.w3.org/Graphics/SVG/1.1/DTD/svg11.dtd">
<!-- Generated by graphviz version 12.2.1 (20241206.2353)
 -->
<!-- Title: detail::is_detected_lazy&lt; Op, Args &gt; Pages: 1 -->
<svg width="140pt" height="178pt"
 viewBox="0.00 0.00 139.50 178.00" xmlns="http://www.w3.org/2000/svg" xmlns:xlink="http://www.w3.org/1999/xlink">
<g id="graph0" class="graph" transform="scale(1 1) rotate(0) translate(4 174)">
<title>detail::is_detected_lazy&lt; Op, Args &gt;</title>
<!-- Node1 -->
<g id="node1" class="node">
<title>Node1</title>
<g id="a_node1"><a xlink:title=" ">
<polygon fill="#999999" stroke="#666666" points="18,-0.5 18,-72.5 113.5,-72.5 113.5,-0.5 18,-0.5"/>
<text text-anchor="start" x="26" y="-59" font-family="Helvetica,sans-Serif" font-size="10.00">detail::is_detected</text>
<text text-anchor="middle" x="65.75" y="-47" font-family="Helvetica,sans-Serif" font-size="10.00">_lazy&lt; Op, Args &gt;</text>
<polyline fill="none" stroke="#666666" points="18,-40.5 113.5,-40.5"/>
<text text-anchor="middle" x="65.75" y="-27" font-family="Helvetica,sans-Serif" font-size="10.00"> </text>
<polyline fill="none" stroke="#666666" points="18,-20.5 113.5,-20.5"/>
<text text-anchor="middle" x="65.75" y="-7" font-family="Helvetica,sans-Serif" font-size="10.00"> </text>
</a>
</g>
</g>
<!-- Node2 -->
<g id="node2" class="node">
<title>Node2</title>
<g id="a_node2"><a xlink:title=" ">
<polygon fill="white" stroke="#666666" points="0,-109.5 0,-169.5 131.5,-169.5 131.5,-109.5 0,-109.5"/>
<text text-anchor="middle" x="65.75" y="-156" font-family="Helvetica,sans-Serif" font-size="10.00">is_detected&lt; Op, Args... &gt;</text>
<polyline fill="none" stroke="#666666" points="0,-149.5 131.5,-149.5"/>
<text text-anchor="middle" x="65.75" y="-136" font-family="Helvetica,sans-Serif" font-size="10.00"> </text>
<polyline fill="none" stroke="#666666" points="0,-129.5 131.5,-129.5"/>
<text text-anchor="middle" x="65.75" y="-116" font-family="Helvetica,sans-Serif" font-size="10.00"> </text>
</a>
</g>
</g>
<!-- Node2&#45;&gt;Node1 -->
<g id="edge1" class="edge">
<title>Node2&#45;&gt;Node1</title>
<path fill="none" stroke="#63b8ff" d="M65.75,-97.73C65.75,-89.51 65.75,-80.94 65.75,-72.92"/>
<polygon fill="none" stroke="#63b8ff" points="62.25,-97.5 65.75,-107.5 69.25,-97.5 62.25,-97.5"/>
</g>
</g>
</svg>
