<?xml version="1.0" encoding="UTF-8" standalone="no"?>
<!DOCTYPE svg PUBLIC "-//W3C//DTD SVG 1.1//EN"
 "http://www.w3.org/Graphics/SVG/1.1/DTD/svg11.dtd">
<!-- Generated by graphviz version 12.2.1 (20241206.2353)
 -->
<!-- Title: detail::is_compatible_integer_type_impl&lt; RealIntegerType, CompatibleNumberIntegerType, typename &gt; Pages: 1 -->
<svg width="189pt" height="323pt"
 viewBox="0.00 0.00 189.00 323.00" xmlns="http://www.w3.org/2000/svg" xmlns:xlink="http://www.w3.org/1999/xlink">
<g id="graph0" class="graph" transform="scale(1 1) rotate(0) translate(4 319)">
<title>detail::is_compatible_integer_type_impl&lt; RealIntegerType, CompatibleNumberIntegerType, typename &gt;</title>
<!-- Node1 -->
<g id="node1" class="node">
<title>Node1</title>
<g id="a_node1"><a xlink:title=" ">
<polygon fill="#999999" stroke="#666666" points="0,-121.5 0,-217.5 181,-217.5 181,-121.5 0,-121.5"/>
<text text-anchor="start" x="8" y="-204" font-family="Helvetica,sans-Serif" font-size="10.00">detail::is_compatible</text>
<text text-anchor="start" x="8" y="-192" font-family="Helvetica,sans-Serif" font-size="10.00">_integer_type_impl&lt; RealInteger</text>
<text text-anchor="start" x="8" y="-180" font-family="Helvetica,sans-Serif" font-size="10.00">Type, CompatibleNumberIntegerType,</text>
<text text-anchor="middle" x="90.5" y="-168" font-family="Helvetica,sans-Serif" font-size="10.00"> typename &gt;</text>
<polyline fill="none" stroke="#666666" points="0,-161.5 181,-161.5"/>
<text text-anchor="middle" x="90.5" y="-148" font-family="Helvetica,sans-Serif" font-size="10.00"> </text>
<polyline fill="none" stroke="#666666" points="0,-141.5 181,-141.5"/>
<text text-anchor="middle" x="90.5" y="-128" font-family="Helvetica,sans-Serif" font-size="10.00"> </text>
</a>
</g>
</g>
<!-- Node3 -->
<g id="node3" class="node">
<title>Node3</title>
<g id="a_node3"><a xlink:href="structdetail_1_1is__compatible__integer__type.html" target="_top" xlink:title=" ">
<polygon fill="white" stroke="#666666" points="9,-0.5 9,-84.5 172,-84.5 172,-0.5 9,-0.5"/>
<text text-anchor="start" x="17" y="-71" font-family="Helvetica,sans-Serif" font-size="10.00">detail::is_compatible</text>
<text text-anchor="start" x="17" y="-59" font-family="Helvetica,sans-Serif" font-size="10.00">_integer_type&lt; RealIntegerType,</text>
<text text-anchor="middle" x="90.5" y="-47" font-family="Helvetica,sans-Serif" font-size="10.00"> CompatibleNumberIntegerType &gt;</text>
<polyline fill="none" stroke="#666666" points="9,-40.5 172,-40.5"/>
<text text-anchor="middle" x="90.5" y="-27" font-family="Helvetica,sans-Serif" font-size="10.00"> </text>
<polyline fill="none" stroke="#666666" points="9,-20.5 172,-20.5"/>
<text text-anchor="middle" x="90.5" y="-7" font-family="Helvetica,sans-Serif" font-size="10.00"> </text>
</a>
</g>
</g>
<!-- Node1&#45;&gt;Node3 -->
<g id="edge2" class="edge">
<title>Node1&#45;&gt;Node3</title>
<path fill="none" stroke="#63b8ff" d="M90.5,-109.79C90.5,-101.3 90.5,-92.72 90.5,-84.68"/>
<polygon fill="none" stroke="#63b8ff" points="87,-109.73 90.5,-119.73 94,-109.73 87,-109.73"/>
</g>
<!-- Node2 -->
<g id="node2" class="node">
<title>Node2</title>
<g id="a_node2"><a xlink:title=" ">
<polygon fill="white" stroke="#666666" points="50.25,-254.5 50.25,-314.5 130.75,-314.5 130.75,-254.5 50.25,-254.5"/>
<text text-anchor="middle" x="90.5" y="-301" font-family="Helvetica,sans-Serif" font-size="10.00">std::false_type</text>
<polyline fill="none" stroke="#666666" points="50.25,-294.5 130.75,-294.5"/>
<text text-anchor="middle" x="90.5" y="-281" font-family="Helvetica,sans-Serif" font-size="10.00"> </text>
<polyline fill="none" stroke="#666666" points="50.25,-274.5 130.75,-274.5"/>
<text text-anchor="middle" x="90.5" y="-261" font-family="Helvetica,sans-Serif" font-size="10.00"> </text>
</a>
</g>
</g>
<!-- Node2&#45;&gt;Node1 -->
<g id="edge1" class="edge">
<title>Node2&#45;&gt;Node1</title>
<path fill="none" stroke="#63b8ff" d="M90.5,-242.66C90.5,-234.55 90.5,-225.99 90.5,-217.69"/>
<polygon fill="none" stroke="#63b8ff" points="87,-242.59 90.5,-252.59 94,-242.59 87,-242.59"/>
</g>
</g>
</svg>
