<?xml version="1.0" encoding="UTF-8" standalone="no"?>
<!DOCTYPE svg PUBLIC "-//W3C//DTD SVG 1.1//EN"
 "http://www.w3.org/Graphics/SVG/1.1/DTD/svg11.dtd">
<!-- Generated by graphviz version 12.2.1 (20241206.2353)
 -->
<!-- Title: detail::is_default_constructible&lt; std::pair&lt; T1, T2 &gt; &gt; Pages: 1 -->
<svg width="162pt" height="323pt"
 viewBox="0.00 0.00 162.00 323.00" xmlns="http://www.w3.org/2000/svg" xmlns:xlink="http://www.w3.org/1999/xlink">
<g id="graph0" class="graph" transform="scale(1 1) rotate(0) translate(4 319)">
<title>detail::is_default_constructible&lt; std::pair&lt; T1, T2 &gt; &gt;</title>
<!-- Node1 -->
<g id="node1" class="node">
<title>Node1</title>
<g id="a_node1"><a xlink:title=" ">
<polygon fill="#999999" stroke="#666666" points="27.38,-0.5 27.38,-84.5 126.62,-84.5 126.62,-0.5 27.38,-0.5"/>
<text text-anchor="start" x="35.38" y="-71" font-family="Helvetica,sans-Serif" font-size="10.00">detail::is_default</text>
<text text-anchor="start" x="35.38" y="-59" font-family="Helvetica,sans-Serif" font-size="10.00">_constructible&lt; std</text>
<text text-anchor="middle" x="77" y="-47" font-family="Helvetica,sans-Serif" font-size="10.00">::pair&lt; T1, T2 &gt; &gt;</text>
<polyline fill="none" stroke="#666666" points="27.38,-40.5 126.62,-40.5"/>
<text text-anchor="middle" x="77" y="-27" font-family="Helvetica,sans-Serif" font-size="10.00"> </text>
<polyline fill="none" stroke="#666666" points="27.38,-20.5 126.62,-20.5"/>
<text text-anchor="middle" x="77" y="-7" font-family="Helvetica,sans-Serif" font-size="10.00"> </text>
</a>
</g>
</g>
<!-- Node2 -->
<g id="node2" class="node">
<title>Node2</title>
<g id="a_node2"><a xlink:href="structdetail_1_1conjunction.html" target="_top" xlink:title=" ">
<polygon fill="white" stroke="#666666" points="0,-121.5 0,-217.5 154,-217.5 154,-121.5 0,-121.5"/>
<text text-anchor="start" x="8" y="-204" font-family="Helvetica,sans-Serif" font-size="10.00">detail::conjunction</text>
<text text-anchor="start" x="8" y="-192" font-family="Helvetica,sans-Serif" font-size="10.00">&lt; is_default_constructible</text>
<text text-anchor="start" x="8" y="-180" font-family="Helvetica,sans-Serif" font-size="10.00">&lt; T1 &gt;, is_default_constructible</text>
<text text-anchor="middle" x="77" y="-168" font-family="Helvetica,sans-Serif" font-size="10.00">&lt; T2 &gt; &gt;</text>
<polyline fill="none" stroke="#666666" points="0,-161.5 154,-161.5"/>
<text text-anchor="middle" x="77" y="-148" font-family="Helvetica,sans-Serif" font-size="10.00"> </text>
<polyline fill="none" stroke="#666666" points="0,-141.5 154,-141.5"/>
<text text-anchor="middle" x="77" y="-128" font-family="Helvetica,sans-Serif" font-size="10.00"> </text>
</a>
</g>
</g>
<!-- Node2&#45;&gt;Node1 -->
<g id="edge1" class="edge">
<title>Node2&#45;&gt;Node1</title>
<path fill="none" stroke="#63b8ff" d="M77,-109.79C77,-101.3 77,-92.72 77,-84.68"/>
<polygon fill="none" stroke="#63b8ff" points="73.5,-109.73 77,-119.73 80.5,-109.73 73.5,-109.73"/>
</g>
<!-- Node3 -->
<g id="node3" class="node">
<title>Node3</title>
<g id="a_node3"><a xlink:title=" ">
<polygon fill="white" stroke="#666666" points="39,-254.5 39,-314.5 115,-314.5 115,-254.5 39,-254.5"/>
<text text-anchor="middle" x="77" y="-301" font-family="Helvetica,sans-Serif" font-size="10.00">std::true_type</text>
<polyline fill="none" stroke="#666666" points="39,-294.5 115,-294.5"/>
<text text-anchor="middle" x="77" y="-281" font-family="Helvetica,sans-Serif" font-size="10.00"> </text>
<polyline fill="none" stroke="#666666" points="39,-274.5 115,-274.5"/>
<text text-anchor="middle" x="77" y="-261" font-family="Helvetica,sans-Serif" font-size="10.00"> </text>
</a>
</g>
</g>
<!-- Node3&#45;&gt;Node2 -->
<g id="edge2" class="edge">
<title>Node3&#45;&gt;Node2</title>
<path fill="none" stroke="#63b8ff" d="M77,-242.66C77,-234.55 77,-225.99 77,-217.69"/>
<polygon fill="none" stroke="#63b8ff" points="73.5,-242.59 77,-252.59 80.5,-242.59 73.5,-242.59"/>
</g>
</g>
</svg>
