<?xml version="1.0" encoding="UTF-8" standalone="no"?>
<!DOCTYPE svg PUBLIC "-//W3C//DTD SVG 1.1//EN"
 "http://www.w3.org/Graphics/SVG/1.1/DTD/svg11.dtd">
<!-- Generated by graphviz version 12.2.1 (20241206.2353)
 -->
<!-- Title: CRender Pages: 1 -->
<svg width="78pt" height="178pt"
 viewBox="0.00 0.00 78.00 178.00" xmlns="http://www.w3.org/2000/svg" xmlns:xlink="http://www.w3.org/1999/xlink">
<g id="graph0" class="graph" transform="scale(1 1) rotate(0) translate(4 174)">
<title>CRender</title>
<!-- Node1 -->
<g id="node1" class="node">
<title>Node1</title>
<g id="a_node1"><a xlink:title=" ">
<polygon fill="#999999" stroke="#666666" points="0,-0.5 0,-72.5 70,-72.5 70,-0.5 0,-0.5"/>
<text text-anchor="middle" x="35" y="-59" font-family="Helvetica,sans-Serif" font-size="10.00">CRender</text>
<polyline fill="none" stroke="#666666" points="0,-52.5 70,-52.5"/>
<text text-anchor="start" x="8" y="-39" font-family="Helvetica,sans-Serif" font-size="10.00">+ drawable</text>
<text text-anchor="start" x="8" y="-27" font-family="Helvetica,sans-Serif" font-size="10.00">+ layer</text>
<polyline fill="none" stroke="#666666" points="0,-20.5 70,-20.5"/>
<text text-anchor="start" x="8" y="-7" font-family="Helvetica,sans-Serif" font-size="10.00">+ CRender()</text>
</a>
</g>
</g>
<!-- Node2 -->
<g id="node2" class="node">
<title>Node2</title>
<g id="a_node2"><a xlink:href="structComponent.html" target="_top" xlink:title=" ">
<polygon fill="white" stroke="#666666" points="1.88,-109.5 1.88,-169.5 68.12,-169.5 68.12,-109.5 1.88,-109.5"/>
<text text-anchor="middle" x="35" y="-156" font-family="Helvetica,sans-Serif" font-size="10.00">Component</text>
<polyline fill="none" stroke="#666666" points="1.88,-149.5 68.12,-149.5"/>
<text text-anchor="start" x="9.88" y="-136" font-family="Helvetica,sans-Serif" font-size="10.00">+ has</text>
<polyline fill="none" stroke="#666666" points="1.88,-129.5 68.12,-129.5"/>
<text text-anchor="middle" x="35" y="-116" font-family="Helvetica,sans-Serif" font-size="10.00"> </text>
</a>
</g>
</g>
<!-- Node2&#45;&gt;Node1 -->
<g id="edge1" class="edge">
<title>Node2&#45;&gt;Node1</title>
<path fill="none" stroke="#63b8ff" d="M35,-97.73C35,-89.51 35,-80.94 35,-72.92"/>
<polygon fill="none" stroke="#63b8ff" points="31.5,-97.5 35,-107.5 38.5,-97.5 31.5,-97.5"/>
</g>
</g>
</svg>
