<?xml version="1.0" encoding="UTF-8" standalone="no"?>
<!DOCTYPE svg PUBLIC "-//W3C//DTD SVG 1.1//EN"
 "http://www.w3.org/Graphics/SVG/1.1/DTD/svg11.dtd">
<!-- Generated by graphviz version 12.2.1 (20241206.2353)
 -->
<!-- Title: detail::is_constructible&lt; const std::tuple&lt; Ts... &gt; &gt; Pages: 1 -->
<svg width="146pt" height="420pt"
 viewBox="0.00 0.00 146.25 420.00" xmlns="http://www.w3.org/2000/svg" xmlns:xlink="http://www.w3.org/1999/xlink">
<g id="graph0" class="graph" transform="scale(1 1) rotate(0) translate(4 416)">
<title>detail::is_constructible&lt; const std::tuple&lt; Ts... &gt; &gt;</title>
<!-- Node1 -->
<g id="node1" class="node">
<title>Node1</title>
<g id="a_node1"><a xlink:title=" ">
<polygon fill="#999999" stroke="#666666" points="0,-0.5 0,-72.5 138.25,-72.5 138.25,-0.5 0,-0.5"/>
<text text-anchor="start" x="8" y="-59" font-family="Helvetica,sans-Serif" font-size="10.00">detail::is_constructible</text>
<text text-anchor="middle" x="69.12" y="-47" font-family="Helvetica,sans-Serif" font-size="10.00">&lt; const std::tuple&lt; Ts... &gt; &gt;</text>
<polyline fill="none" stroke="#666666" points="0,-40.5 138.25,-40.5"/>
<text text-anchor="middle" x="69.12" y="-27" font-family="Helvetica,sans-Serif" font-size="10.00"> </text>
<polyline fill="none" stroke="#666666" points="0,-20.5 138.25,-20.5"/>
<text text-anchor="middle" x="69.12" y="-7" font-family="Helvetica,sans-Serif" font-size="10.00"> </text>
</a>
</g>
</g>
<!-- Node2 -->
<g id="node2" class="node">
<title>Node2</title>
<g id="a_node2"><a xlink:href="structdetail_1_1is__default__constructible_3_01const_01std_1_1tuple_3_01Ts_8_8_8_01_4_01_4.html" target="_top" xlink:title=" ">
<polygon fill="white" stroke="#666666" points="14.25,-109.5 14.25,-193.5 124,-193.5 124,-109.5 14.25,-109.5"/>
<text text-anchor="start" x="22.25" y="-180" font-family="Helvetica,sans-Serif" font-size="10.00">detail::is_default</text>
<text text-anchor="start" x="22.25" y="-168" font-family="Helvetica,sans-Serif" font-size="10.00">_constructible&lt; const</text>
<text text-anchor="middle" x="69.12" y="-156" font-family="Helvetica,sans-Serif" font-size="10.00"> std::tuple&lt; Ts... &gt; &gt;</text>
<polyline fill="none" stroke="#666666" points="14.25,-149.5 124,-149.5"/>
<text text-anchor="middle" x="69.12" y="-136" font-family="Helvetica,sans-Serif" font-size="10.00"> </text>
<polyline fill="none" stroke="#666666" points="14.25,-129.5 124,-129.5"/>
<text text-anchor="middle" x="69.12" y="-116" font-family="Helvetica,sans-Serif" font-size="10.00"> </text>
</a>
</g>
</g>
<!-- Node2&#45;&gt;Node1 -->
<g id="edge1" class="edge">
<title>Node2&#45;&gt;Node1</title>
<path fill="none" stroke="#63b8ff" d="M69.12,-97.75C69.12,-89.36 69.12,-80.85 69.12,-72.98"/>
<polygon fill="none" stroke="#63b8ff" points="65.63,-97.55 69.13,-107.55 72.63,-97.55 65.63,-97.55"/>
</g>
<!-- Node3 -->
<g id="node3" class="node">
<title>Node3</title>
<g id="a_node3"><a xlink:href="structdetail_1_1conjunction.html" target="_top" xlink:title=" ">
<polygon fill="white" stroke="#666666" points="5.25,-230.5 5.25,-314.5 133,-314.5 133,-230.5 5.25,-230.5"/>
<text text-anchor="start" x="13.25" y="-301" font-family="Helvetica,sans-Serif" font-size="10.00">detail::conjunction</text>
<text text-anchor="start" x="13.25" y="-289" font-family="Helvetica,sans-Serif" font-size="10.00">&lt; is_default_constructible</text>
<text text-anchor="middle" x="69.12" y="-277" font-family="Helvetica,sans-Serif" font-size="10.00">&lt; Ts &gt;... &gt;</text>
<polyline fill="none" stroke="#666666" points="5.25,-270.5 133,-270.5"/>
<text text-anchor="middle" x="69.12" y="-257" font-family="Helvetica,sans-Serif" font-size="10.00"> </text>
<polyline fill="none" stroke="#666666" points="5.25,-250.5 133,-250.5"/>
<text text-anchor="middle" x="69.12" y="-237" font-family="Helvetica,sans-Serif" font-size="10.00"> </text>
</a>
</g>
</g>
<!-- Node3&#45;&gt;Node2 -->
<g id="edge2" class="edge">
<title>Node3&#45;&gt;Node2</title>
<path fill="none" stroke="#63b8ff" d="M69.12,-218.89C69.12,-210.46 69.12,-201.83 69.12,-193.71"/>
<polygon fill="none" stroke="#63b8ff" points="65.63,-218.7 69.13,-228.7 72.63,-218.7 65.63,-218.7"/>
</g>
<!-- Node4 -->
<g id="node4" class="node">
<title>Node4</title>
<g id="a_node4"><a xlink:title=" ">
<polygon fill="white" stroke="#666666" points="31.12,-351.5 31.12,-411.5 107.12,-411.5 107.12,-351.5 31.12,-351.5"/>
<text text-anchor="middle" x="69.12" y="-398" font-family="Helvetica,sans-Serif" font-size="10.00">std::true_type</text>
<polyline fill="none" stroke="#666666" points="31.12,-391.5 107.12,-391.5"/>
<text text-anchor="middle" x="69.12" y="-378" font-family="Helvetica,sans-Serif" font-size="10.00"> </text>
<polyline fill="none" stroke="#666666" points="31.12,-371.5 107.12,-371.5"/>
<text text-anchor="middle" x="69.12" y="-358" font-family="Helvetica,sans-Serif" font-size="10.00"> </text>
</a>
</g>
</g>
<!-- Node4&#45;&gt;Node3 -->
<g id="edge3" class="edge">
<title>Node4&#45;&gt;Node3</title>
<path fill="none" stroke="#63b8ff" d="M69.12,-339.97C69.12,-331.71 69.12,-323.02 69.12,-314.74"/>
<polygon fill="none" stroke="#63b8ff" points="65.63,-339.75 69.13,-349.75 72.63,-339.75 65.63,-339.75"/>
</g>
</g>
</svg>
