<?xml version="1.0" encoding="UTF-8" standalone="no"?>
<!DOCTYPE svg PUBLIC "-//W3C//DTD SVG 1.1//EN"
 "http://www.w3.org/Graphics/SVG/1.1/DTD/svg11.dtd">
<!-- Generated by graphviz version 12.2.1 (20241206.2353)
 -->
<!-- Title: detail::is_c_string&lt; T &gt; Pages: 1 -->
<svg width="125pt" height="178pt"
 viewBox="0.00 0.00 124.50 178.00" xmlns="http://www.w3.org/2000/svg" xmlns:xlink="http://www.w3.org/1999/xlink">
<g id="graph0" class="graph" transform="scale(1 1) rotate(0) translate(4 174)">
<title>detail::is_c_string&lt; T &gt;</title>
<!-- Node1 -->
<g id="node1" class="node">
<title>Node1</title>
<g id="a_node1"><a xlink:title=" ">
<polygon fill="#999999" stroke="#666666" points="0,-0.5 0,-60.5 116.5,-60.5 116.5,-0.5 0,-0.5"/>
<text text-anchor="middle" x="58.25" y="-47" font-family="Helvetica,sans-Serif" font-size="10.00">detail::is_c_string&lt; T &gt;</text>
<polyline fill="none" stroke="#666666" points="0,-40.5 116.5,-40.5"/>
<text text-anchor="middle" x="58.25" y="-27" font-family="Helvetica,sans-Serif" font-size="10.00"> </text>
<polyline fill="none" stroke="#666666" points="0,-20.5 116.5,-20.5"/>
<text text-anchor="middle" x="58.25" y="-7" font-family="Helvetica,sans-Serif" font-size="10.00"> </text>
</a>
</g>
</g>
<!-- Node2 -->
<g id="node2" class="node">
<title>Node2</title>
<g id="a_node2"><a xlink:title=" ">
<polygon fill="white" stroke="#666666" points="5.62,-97.5 5.62,-169.5 110.88,-169.5 110.88,-97.5 5.62,-97.5"/>
<text text-anchor="start" x="13.62" y="-156" font-family="Helvetica,sans-Serif" font-size="10.00">bool_constant&lt; impl</text>
<text text-anchor="middle" x="58.25" y="-144" font-family="Helvetica,sans-Serif" font-size="10.00">::is_c_string&lt; T &gt;()&gt;</text>
<polyline fill="none" stroke="#666666" points="5.62,-137.5 110.88,-137.5"/>
<text text-anchor="middle" x="58.25" y="-124" font-family="Helvetica,sans-Serif" font-size="10.00"> </text>
<polyline fill="none" stroke="#666666" points="5.62,-117.5 110.88,-117.5"/>
<text text-anchor="middle" x="58.25" y="-104" font-family="Helvetica,sans-Serif" font-size="10.00"> </text>
</a>
</g>
</g>
<!-- Node2&#45;&gt;Node1 -->
<g id="edge1" class="edge">
<title>Node2&#45;&gt;Node1</title>
<path fill="none" stroke="#63b8ff" d="M58.25,-85.81C58.25,-77.35 58.25,-68.74 58.25,-60.95"/>
<polygon fill="none" stroke="#63b8ff" points="54.75,-85.66 58.25,-95.66 61.75,-85.66 54.75,-85.66"/>
</g>
</g>
</svg>
