<?xml version="1.0" encoding="UTF-8" standalone="no"?>
<!DOCTYPE svg PUBLIC "-//W3C//DTD SVG 1.1//EN"
 "http://www.w3.org/Graphics/SVG/1.1/DTD/svg11.dtd">
<!-- Generated by graphviz version 12.2.1 (20241206.2353)
 -->
<!-- Title: Component Pages: 1 -->
<svg width="1231pt" height="274pt"
 viewBox="0.00 0.00 1231.00 274.00" xmlns="http://www.w3.org/2000/svg" xmlns:xlink="http://www.w3.org/1999/xlink">
<g id="graph0" class="graph" transform="scale(1 1) rotate(0) translate(4 270)">
<title>Component</title>
<!-- Node1 -->
<g id="node1" class="node">
<title>Node1</title>
<g id="a_node1"><a xlink:title=" ">
<polygon fill="#999999" stroke="#666666" points="609.5,-205.5 609.5,-265.5 675.75,-265.5 675.75,-205.5 609.5,-205.5"/>
<text text-anchor="middle" x="642.62" y="-252" font-family="Helvetica,sans-Serif" font-size="10.00">Component</text>
<polyline fill="none" stroke="#666666" points="609.5,-245.5 675.75,-245.5"/>
<text text-anchor="start" x="617.5" y="-232" font-family="Helvetica,sans-Serif" font-size="10.00">+ has</text>
<polyline fill="none" stroke="#666666" points="609.5,-225.5 675.75,-225.5"/>
<text text-anchor="middle" x="642.62" y="-212" font-family="Helvetica,sans-Serif" font-size="10.00"> </text>
</a>
</g>
</g>
<!-- Node2 -->
<g id="node2" class="node">
<title>Node2</title>
<g id="a_node2"><a xlink:href="structCAffinity.html" target="_top" xlink:title=" ">
<polygon fill="white" stroke="#666666" points="0,-48.5 0,-120.5 69.25,-120.5 69.25,-48.5 0,-48.5"/>
<text text-anchor="middle" x="34.62" y="-107" font-family="Helvetica,sans-Serif" font-size="10.00">CAffinity</text>
<polyline fill="none" stroke="#666666" points="0,-100.5 69.25,-100.5"/>
<text text-anchor="start" x="8" y="-87" font-family="Helvetica,sans-Serif" font-size="10.00">+ affinity</text>
<polyline fill="none" stroke="#666666" points="0,-80.5 69.25,-80.5"/>
<text text-anchor="start" x="8" y="-67" font-family="Helvetica,sans-Serif" font-size="10.00">+ CAffinity()</text>
<text text-anchor="start" x="8" y="-55" font-family="Helvetica,sans-Serif" font-size="10.00">+ CAffinity()</text>
</a>
</g>
</g>
<!-- Node1&#45;&gt;Node2 -->
<g id="edge1" class="edge">
<title>Node1&#45;&gt;Node2</title>
<path fill="none" stroke="#63b8ff" d="M597.62,-234.56C479.28,-233.89 162.75,-226.64 78.62,-169 62.13,-157.7 51.37,-138.21 44.62,-120.9"/>
<polygon fill="none" stroke="#63b8ff" points="597.56,-238.06 607.58,-234.6 597.59,-231.06 597.56,-238.06"/>
</g>
<!-- Node3 -->
<g id="node3" class="node">
<title>Node3</title>
<g id="a_node3"><a xlink:href="structCBoundingBox.html" target="_top" xlink:title=" ">
<polygon fill="white" stroke="#666666" points="87.5,-24.5 87.5,-144.5 183.75,-144.5 183.75,-24.5 87.5,-24.5"/>
<text text-anchor="middle" x="135.62" y="-131" font-family="Helvetica,sans-Serif" font-size="10.00">CBoundingBox</text>
<polyline fill="none" stroke="#666666" points="87.5,-124.5 183.75,-124.5"/>
<text text-anchor="start" x="95.5" y="-111" font-family="Helvetica,sans-Serif" font-size="10.00">+ size</text>
<text text-anchor="start" x="95.5" y="-99" font-family="Helvetica,sans-Serif" font-size="10.00">+ halfSize</text>
<text text-anchor="start" x="95.5" y="-87" font-family="Helvetica,sans-Serif" font-size="10.00">+ blockMove</text>
<text text-anchor="start" x="95.5" y="-75" font-family="Helvetica,sans-Serif" font-size="10.00">+ blockVision</text>
<polyline fill="none" stroke="#666666" points="87.5,-68.5 183.75,-68.5"/>
<text text-anchor="start" x="95.5" y="-55" font-family="Helvetica,sans-Serif" font-size="10.00">+ CBoundingBox()</text>
<text text-anchor="start" x="95.5" y="-43" font-family="Helvetica,sans-Serif" font-size="10.00">+ CBoundingBox()</text>
<text text-anchor="start" x="95.5" y="-31" font-family="Helvetica,sans-Serif" font-size="10.00">+ CBoundingBox()</text>
</a>
</g>
</g>
<!-- Node1&#45;&gt;Node3 -->
<g id="edge2" class="edge">
<title>Node1&#45;&gt;Node3</title>
<path fill="none" stroke="#63b8ff" d="M597.9,-232.51C497.91,-227.36 259.78,-210.93 192.62,-169 182.65,-162.77 173.99,-154.08 166.64,-144.65"/>
<polygon fill="none" stroke="#63b8ff" points="597.43,-236 607.6,-233 597.78,-229 597.43,-236"/>
</g>
<!-- Node4 -->
<g id="node4" class="node">
<title>Node4</title>
<g id="a_node4"><a xlink:href="structCInput.html" target="_top" xlink:title=" ">
<polygon fill="white" stroke="#666666" points="201.5,-36.5 201.5,-132.5 261.75,-132.5 261.75,-36.5 201.5,-36.5"/>
<text text-anchor="middle" x="231.62" y="-119" font-family="Helvetica,sans-Serif" font-size="10.00">CInput</text>
<polyline fill="none" stroke="#666666" points="201.5,-112.5 261.75,-112.5"/>
<text text-anchor="start" x="209.5" y="-99" font-family="Helvetica,sans-Serif" font-size="10.00">+ up</text>
<text text-anchor="start" x="209.5" y="-87" font-family="Helvetica,sans-Serif" font-size="10.00">+ down</text>
<text text-anchor="start" x="209.5" y="-75" font-family="Helvetica,sans-Serif" font-size="10.00">+ right</text>
<text text-anchor="start" x="209.5" y="-63" font-family="Helvetica,sans-Serif" font-size="10.00">+ left</text>
<polyline fill="none" stroke="#666666" points="201.5,-56.5 261.75,-56.5"/>
<text text-anchor="start" x="209.5" y="-43" font-family="Helvetica,sans-Serif" font-size="10.00">+ CInput()</text>
</a>
</g>
</g>
<!-- Node1&#45;&gt;Node4 -->
<g id="edge3" class="edge">
<title>Node1&#45;&gt;Node4</title>
<path fill="none" stroke="#63b8ff" d="M597.7,-231.72C510.25,-225.51 321.31,-207.86 270.62,-169 258.82,-159.95 250.44,-146.45 244.56,-132.94"/>
<polygon fill="none" stroke="#63b8ff" points="597.36,-235.21 607.58,-232.4 597.84,-228.22 597.36,-235.21"/>
</g>
<!-- Node5 -->
<g id="node5" class="node">
<title>Node5</title>
<g id="a_node5"><a xlink:href="structCLifeSpan.html" target="_top" xlink:title=" ">
<polygon fill="white" stroke="#666666" points="279.5,-42.5 279.5,-126.5 363.75,-126.5 363.75,-42.5 279.5,-42.5"/>
<text text-anchor="middle" x="321.62" y="-113" font-family="Helvetica,sans-Serif" font-size="10.00">CLifeSpan</text>
<polyline fill="none" stroke="#666666" points="279.5,-106.5 363.75,-106.5"/>
<text text-anchor="start" x="287.5" y="-93" font-family="Helvetica,sans-Serif" font-size="10.00">+ lifespan</text>
<text text-anchor="start" x="287.5" y="-81" font-family="Helvetica,sans-Serif" font-size="10.00">+ frameCreated</text>
<polyline fill="none" stroke="#666666" points="279.5,-74.5 363.75,-74.5"/>
<text text-anchor="start" x="287.5" y="-61" font-family="Helvetica,sans-Serif" font-size="10.00">+ CLifeSpan()</text>
<text text-anchor="start" x="287.5" y="-49" font-family="Helvetica,sans-Serif" font-size="10.00">+ CLifeSpan()</text>
</a>
</g>
</g>
<!-- Node1&#45;&gt;Node5 -->
<g id="edge4" class="edge">
<title>Node1&#45;&gt;Node5</title>
<path fill="none" stroke="#63b8ff" d="M598.15,-233.87C540.81,-230.95 440.43,-218.47 372.62,-169 358.08,-158.39 346.83,-142.25 338.65,-126.98"/>
<polygon fill="none" stroke="#63b8ff" points="597.71,-237.35 607.85,-234.28 598.01,-230.36 597.71,-237.35"/>
</g>
<!-- Node6 -->
<g id="node6" class="node">
<title>Node6</title>
<g id="a_node6"><a xlink:href="structCNoun.html" target="_top" xlink:title=" ">
<polygon fill="white" stroke="#666666" points="381.75,-42.5 381.75,-126.5 443.5,-126.5 443.5,-42.5 381.75,-42.5"/>
<text text-anchor="middle" x="412.62" y="-113" font-family="Helvetica,sans-Serif" font-size="10.00">CNoun</text>
<polyline fill="none" stroke="#666666" points="381.75,-106.5 443.5,-106.5"/>
<text text-anchor="start" x="389.75" y="-93" font-family="Helvetica,sans-Serif" font-size="10.00">+ marker</text>
<text text-anchor="start" x="389.75" y="-81" font-family="Helvetica,sans-Serif" font-size="10.00">+ cost</text>
<polyline fill="none" stroke="#666666" points="381.75,-74.5 443.5,-74.5"/>
<text text-anchor="start" x="389.75" y="-61" font-family="Helvetica,sans-Serif" font-size="10.00">+ CNoun()</text>
<text text-anchor="start" x="389.75" y="-49" font-family="Helvetica,sans-Serif" font-size="10.00">+ CNoun()</text>
</a>
</g>
</g>
<!-- Node1&#45;&gt;Node6 -->
<g id="edge5" class="edge">
<title>Node1&#45;&gt;Node6</title>
<path fill="none" stroke="#63b8ff" d="M597.88,-229.07C555.89,-221.87 493.57,-205.5 452.62,-169 440.03,-157.77 431.03,-141.7 424.81,-126.66"/>
<polygon fill="none" stroke="#63b8ff" points="597.23,-232.51 607.66,-230.63 598.33,-225.6 597.23,-232.51"/>
</g>
<!-- Node7 -->
<g id="node7" class="node">
<title>Node7</title>
<g id="a_node7"><a xlink:href="structCPlayer.html" target="_top" xlink:title=" ">
<polygon fill="white" stroke="#666666" points="461.38,-0.5 461.38,-168.5 535.88,-168.5 535.88,-0.5 461.38,-0.5"/>
<text text-anchor="middle" x="498.62" y="-155" font-family="Helvetica,sans-Serif" font-size="10.00">CPlayer</text>
<polyline fill="none" stroke="#666666" points="461.38,-148.5 535.88,-148.5"/>
<text text-anchor="start" x="469.38" y="-135" font-family="Helvetica,sans-Serif" font-size="10.00">+ health</text>
<text text-anchor="start" x="469.38" y="-123" font-family="Helvetica,sans-Serif" font-size="10.00">+ mana</text>
<text text-anchor="start" x="469.38" y="-111" font-family="Helvetica,sans-Serif" font-size="10.00">+ energy</text>
<text text-anchor="start" x="469.38" y="-99" font-family="Helvetica,sans-Serif" font-size="10.00">+ maxHealth</text>
<text text-anchor="start" x="469.38" y="-87" font-family="Helvetica,sans-Serif" font-size="10.00">+ maxMana</text>
<text text-anchor="start" x="469.38" y="-75" font-family="Helvetica,sans-Serif" font-size="10.00">+ maxEnergy</text>
<text text-anchor="start" x="469.38" y="-63" font-family="Helvetica,sans-Serif" font-size="10.00">+ m</text>
<text text-anchor="start" x="469.38" y="-51" font-family="Helvetica,sans-Serif" font-size="10.00">+ e</text>
<text text-anchor="start" x="469.38" y="-39" font-family="Helvetica,sans-Serif" font-size="10.00">+ mh</text>
<text text-anchor="start" x="469.38" y="-27" font-family="Helvetica,sans-Serif" font-size="10.00">+ mm</text>
<polyline fill="none" stroke="#666666" points="461.38,-20.5 535.88,-20.5"/>
<text text-anchor="start" x="469.38" y="-7" font-family="Helvetica,sans-Serif" font-size="10.00">+ CPlayer()</text>
</a>
</g>
</g>
<!-- Node1&#45;&gt;Node7 -->
<g id="edge6" class="edge">
<title>Node1&#45;&gt;Node7</title>
<path fill="none" stroke="#63b8ff" d="M599.56,-211.89C581.09,-200.73 560.23,-186 544.62,-169 541.72,-165.83 538.92,-162.44 536.25,-158.91"/>
<polygon fill="none" stroke="#63b8ff" points="597.54,-214.76 607.93,-216.79 601.07,-208.72 597.54,-214.76"/>
</g>
<!-- Node8 -->
<g id="node8" class="node">
<title>Node8</title>
<g id="a_node8"><a xlink:href="structCPopulation.html" target="_top" xlink:title=" ">
<polygon fill="white" stroke="#666666" points="553.5,-42.5 553.5,-126.5 637.75,-126.5 637.75,-42.5 553.5,-42.5"/>
<text text-anchor="middle" x="595.62" y="-113" font-family="Helvetica,sans-Serif" font-size="10.00">CPopulation</text>
<polyline fill="none" stroke="#666666" points="553.5,-106.5 637.75,-106.5"/>
<text text-anchor="start" x="561.5" y="-93" font-family="Helvetica,sans-Serif" font-size="10.00">+ civilians</text>
<text text-anchor="start" x="561.5" y="-81" font-family="Helvetica,sans-Serif" font-size="10.00">+ recruited</text>
<polyline fill="none" stroke="#666666" points="553.5,-74.5 637.75,-74.5"/>
<text text-anchor="start" x="561.5" y="-61" font-family="Helvetica,sans-Serif" font-size="10.00">+ CPopulation()</text>
<text text-anchor="start" x="561.5" y="-49" font-family="Helvetica,sans-Serif" font-size="10.00">+ CPopulation()</text>
</a>
</g>
</g>
<!-- Node1&#45;&gt;Node8 -->
<g id="edge7" class="edge">
<title>Node1&#45;&gt;Node8</title>
<path fill="none" stroke="#63b8ff" d="M629.94,-194.28C623.33,-173.34 615.28,-147.8 608.63,-126.72"/>
<polygon fill="none" stroke="#63b8ff" points="626.54,-195.14 632.88,-203.62 633.21,-193.03 626.54,-195.14"/>
</g>
<!-- Node9 -->
<g id="node9" class="node">
<title>Node9</title>
<g id="a_node9"><a xlink:href="structCRender.html" target="_top" xlink:title=" ">
<polygon fill="white" stroke="#666666" points="655.62,-48.5 655.62,-120.5 725.62,-120.5 725.62,-48.5 655.62,-48.5"/>
<text text-anchor="middle" x="690.62" y="-107" font-family="Helvetica,sans-Serif" font-size="10.00">CRender</text>
<polyline fill="none" stroke="#666666" points="655.62,-100.5 725.62,-100.5"/>
<text text-anchor="start" x="663.62" y="-87" font-family="Helvetica,sans-Serif" font-size="10.00">+ drawable</text>
<text text-anchor="start" x="663.62" y="-75" font-family="Helvetica,sans-Serif" font-size="10.00">+ layer</text>
<polyline fill="none" stroke="#666666" points="655.62,-68.5 725.62,-68.5"/>
<text text-anchor="start" x="663.62" y="-55" font-family="Helvetica,sans-Serif" font-size="10.00">+ CRender()</text>
</a>
</g>
</g>
<!-- Node1&#45;&gt;Node9 -->
<g id="edge8" class="edge">
<title>Node1&#45;&gt;Node9</title>
<path fill="none" stroke="#63b8ff" d="M655.57,-194.32C662.95,-171.41 672.11,-142.97 679.22,-120.91"/>
<polygon fill="none" stroke="#63b8ff" points="652.31,-193.03 652.57,-203.62 658.97,-195.18 652.31,-193.03"/>
</g>
<!-- Node10 -->
<g id="node10" class="node">
<title>Node10</title>
<g id="a_node10"><a xlink:href="structCShape.html" target="_top" xlink:title=" ">
<polygon fill="white" stroke="#666666" points="743.5,-54.5 743.5,-114.5 809.75,-114.5 809.75,-54.5 743.5,-54.5"/>
<text text-anchor="middle" x="776.62" y="-101" font-family="Helvetica,sans-Serif" font-size="10.00">CShape</text>
<polyline fill="none" stroke="#666666" points="743.5,-94.5 809.75,-94.5"/>
<text text-anchor="start" x="751.5" y="-81" font-family="Helvetica,sans-Serif" font-size="10.00">+ shape</text>
<polyline fill="none" stroke="#666666" points="743.5,-74.5 809.75,-74.5"/>
<text text-anchor="start" x="751.5" y="-61" font-family="Helvetica,sans-Serif" font-size="10.00">+ CShape()</text>
</a>
</g>
</g>
<!-- Node1&#45;&gt;Node10 -->
<g id="edge9" class="edge">
<title>Node1&#45;&gt;Node10</title>
<path fill="none" stroke="#63b8ff" d="M685.57,-210.2C702.37,-199.2 720.86,-185.05 734.62,-169 748.36,-152.99 758.98,-131.71 766.1,-114.64"/>
<polygon fill="none" stroke="#63b8ff" points="683.78,-207.19 677.21,-215.5 687.53,-213.1 683.78,-207.19"/>
</g>
<!-- Node11 -->
<g id="node11" class="node">
<title>Node11</title>
<g id="a_node11"><a xlink:href="structCSkills.html" target="_top" xlink:title=" ">
<polygon fill="white" stroke="#666666" points="827.38,-30.5 827.38,-138.5 889.88,-138.5 889.88,-30.5 827.38,-30.5"/>
<text text-anchor="middle" x="858.62" y="-125" font-family="Helvetica,sans-Serif" font-size="10.00">CSkills</text>
<polyline fill="none" stroke="#666666" points="827.38,-118.5 889.88,-118.5"/>
<text text-anchor="start" x="835.38" y="-105" font-family="Helvetica,sans-Serif" font-size="10.00">+ insight</text>
<text text-anchor="start" x="835.38" y="-93" font-family="Helvetica,sans-Serif" font-size="10.00">+ fluency</text>
<text text-anchor="start" x="835.38" y="-81" font-family="Helvetica,sans-Serif" font-size="10.00">+ literacy</text>
<text text-anchor="start" x="835.38" y="-69" font-family="Helvetica,sans-Serif" font-size="10.00">+ prestige</text>
<polyline fill="none" stroke="#666666" points="827.38,-62.5 889.88,-62.5"/>
<text text-anchor="start" x="835.38" y="-49" font-family="Helvetica,sans-Serif" font-size="10.00">+ CSkills()</text>
<text text-anchor="start" x="835.38" y="-37" font-family="Helvetica,sans-Serif" font-size="10.00">+ CSkills()</text>
</a>
</g>
</g>
<!-- Node1&#45;&gt;Node11 -->
<g id="edge10" class="edge">
<title>Node1&#45;&gt;Node11</title>
<path fill="none" stroke="#63b8ff" d="M687.01,-227.62C725.86,-219.55 781.71,-202.72 818.62,-169 827.76,-160.65 835.02,-149.77 840.71,-138.64"/>
<polygon fill="none" stroke="#63b8ff" points="686.67,-224.12 677.52,-229.47 688.01,-230.99 686.67,-224.12"/>
</g>
<!-- Node12 -->
<g id="node12" class="node">
<title>Node12</title>
<g id="a_node12"><a xlink:href="structCState.html" target="_top" xlink:title=" ">
<polygon fill="white" stroke="#666666" points="907.75,-48.5 907.75,-120.5 969.5,-120.5 969.5,-48.5 907.75,-48.5"/>
<text text-anchor="middle" x="938.62" y="-107" font-family="Helvetica,sans-Serif" font-size="10.00">CState</text>
<polyline fill="none" stroke="#666666" points="907.75,-100.5 969.5,-100.5"/>
<text text-anchor="start" x="915.75" y="-87" font-family="Helvetica,sans-Serif" font-size="10.00">+ state</text>
<polyline fill="none" stroke="#666666" points="907.75,-80.5 969.5,-80.5"/>
<text text-anchor="start" x="915.75" y="-67" font-family="Helvetica,sans-Serif" font-size="10.00">+ CState()</text>
<text text-anchor="start" x="915.75" y="-55" font-family="Helvetica,sans-Serif" font-size="10.00">+ CState()</text>
</a>
</g>
</g>
<!-- Node1&#45;&gt;Node12 -->
<g id="edge11" class="edge">
<title>Node1&#45;&gt;Node12</title>
<path fill="none" stroke="#63b8ff" d="M687.28,-234.15C742.76,-231.46 837.54,-219.13 898.62,-169 913.53,-156.76 923.26,-137.65 929.38,-120.8"/>
<polygon fill="none" stroke="#63b8ff" points="687.44,-230.64 677.58,-234.53 687.71,-237.64 687.44,-230.64"/>
</g>
<!-- Node13 -->
<g id="node13" class="node">
<title>Node13</title>
<g id="a_node13"><a xlink:href="structCText.html" target="_top" xlink:title=" ">
<polygon fill="white" stroke="#666666" points="988,-54.5 988,-114.5 1045.25,-114.5 1045.25,-54.5 988,-54.5"/>
<text text-anchor="middle" x="1016.62" y="-101" font-family="Helvetica,sans-Serif" font-size="10.00">CText</text>
<polyline fill="none" stroke="#666666" points="988,-94.5 1045.25,-94.5"/>
<text text-anchor="start" x="996" y="-81" font-family="Helvetica,sans-Serif" font-size="10.00">+ text</text>
<polyline fill="none" stroke="#666666" points="988,-74.5 1045.25,-74.5"/>
<text text-anchor="start" x="996" y="-61" font-family="Helvetica,sans-Serif" font-size="10.00">+ CText()</text>
</a>
</g>
</g>
<!-- Node1&#45;&gt;Node13 -->
<g id="edge12" class="edge">
<title>Node1&#45;&gt;Node13</title>
<path fill="none" stroke="#63b8ff" d="M687.26,-230.84C767.96,-223.43 933.94,-204.27 978.62,-169 995.5,-155.68 1005.15,-133.19 1010.49,-114.9"/>
<polygon fill="none" stroke="#63b8ff" points="687.15,-227.34 677.5,-231.72 687.78,-234.31 687.15,-227.34"/>
</g>
<!-- Node14 -->
<g id="node14" class="node">
<title>Node14</title>
<g id="a_node14"><a xlink:href="structCTransform.html" target="_top" xlink:title=" ">
<polygon fill="white" stroke="#666666" points="1063.25,-30.5 1063.25,-138.5 1146,-138.5 1146,-30.5 1063.25,-30.5"/>
<text text-anchor="middle" x="1104.62" y="-125" font-family="Helvetica,sans-Serif" font-size="10.00">CTransform</text>
<polyline fill="none" stroke="#666666" points="1063.25,-118.5 1146,-118.5"/>
<text text-anchor="start" x="1071.25" y="-105" font-family="Helvetica,sans-Serif" font-size="10.00">+ position</text>
<text text-anchor="start" x="1071.25" y="-93" font-family="Helvetica,sans-Serif" font-size="10.00">+ scale</text>
<text text-anchor="start" x="1071.25" y="-81" font-family="Helvetica,sans-Serif" font-size="10.00">+ velocity</text>
<text text-anchor="start" x="1071.25" y="-69" font-family="Helvetica,sans-Serif" font-size="10.00">+ rotation</text>
<polyline fill="none" stroke="#666666" points="1063.25,-62.5 1146,-62.5"/>
<text text-anchor="start" x="1071.25" y="-49" font-family="Helvetica,sans-Serif" font-size="10.00">+ CTransform()</text>
<text text-anchor="start" x="1071.25" y="-37" font-family="Helvetica,sans-Serif" font-size="10.00">+ CTransform()</text>
</a>
</g>
</g>
<!-- Node1&#45;&gt;Node14 -->
<g id="edge13" class="edge">
<title>Node1&#45;&gt;Node14</title>
<path fill="none" stroke="#63b8ff" d="M687.64,-232.1C781.7,-226.34 995.29,-209.11 1054.62,-169 1065.82,-161.43 1074.91,-150.44 1082.1,-138.9"/>
<polygon fill="none" stroke="#63b8ff" points="687.53,-228.6 677.76,-232.69 687.95,-235.59 687.53,-228.6"/>
</g>
<!-- Node15 -->
<g id="node15" class="node">
<title>Node15</title>
<g id="a_node15"><a xlink:href="structCVerb.html" target="_top" xlink:title=" ">
<polygon fill="white" stroke="#666666" points="1164.25,-36.5 1164.25,-132.5 1223,-132.5 1223,-36.5 1164.25,-36.5"/>
<text text-anchor="middle" x="1193.62" y="-119" font-family="Helvetica,sans-Serif" font-size="10.00">CVerb</text>
<polyline fill="none" stroke="#666666" points="1164.25,-112.5 1223,-112.5"/>
<text text-anchor="start" x="1172.25" y="-99" font-family="Helvetica,sans-Serif" font-size="10.00">+ aspect</text>
<text text-anchor="start" x="1172.25" y="-87" font-family="Helvetica,sans-Serif" font-size="10.00">+ voice</text>
<text text-anchor="start" x="1172.25" y="-75" font-family="Helvetica,sans-Serif" font-size="10.00">+ cost</text>
<polyline fill="none" stroke="#666666" points="1164.25,-68.5 1223,-68.5"/>
<text text-anchor="start" x="1172.25" y="-55" font-family="Helvetica,sans-Serif" font-size="10.00">+ CVerb()</text>
<text text-anchor="start" x="1172.25" y="-43" font-family="Helvetica,sans-Serif" font-size="10.00">+ CVerb()</text>
</a>
</g>
</g>
<!-- Node1&#45;&gt;Node15 -->
<g id="edge14" class="edge">
<title>Node1&#45;&gt;Node15</title>
<path fill="none" stroke="#63b8ff" d="M687.39,-234.17C798,-232.54 1080.6,-223.04 1154.62,-169 1166.77,-160.13 1175.26,-146.52 1181.13,-132.84"/>
<polygon fill="none" stroke="#63b8ff" points="687.47,-230.67 677.51,-234.3 687.56,-237.67 687.47,-230.67"/>
</g>
</g>
</svg>
