<?xml version="1.0" encoding="UTF-8" standalone="no"?>
<!DOCTYPE svg PUBLIC "-//W3C//DTD SVG 1.1//EN"
 "http://www.w3.org/Graphics/SVG/1.1/DTD/svg11.dtd">
<!-- Generated by graphviz version 12.2.1 (20241206.2353)
 -->
<!-- Title: detail::has_key_compare&lt; T &gt; Pages: 1 -->
<svg width="157pt" height="190pt"
 viewBox="0.00 0.00 156.75 190.00" xmlns="http://www.w3.org/2000/svg" xmlns:xlink="http://www.w3.org/1999/xlink">
<g id="graph0" class="graph" transform="scale(1 1) rotate(0) translate(4 186)">
<title>detail::has_key_compare&lt; T &gt;</title>
<!-- Node1 -->
<g id="node1" class="node">
<title>Node1</title>
<g id="a_node1"><a xlink:title=" ">
<polygon fill="#999999" stroke="#666666" points="0,-0.5 0,-60.5 148.75,-60.5 148.75,-0.5 0,-0.5"/>
<text text-anchor="middle" x="74.38" y="-47" font-family="Helvetica,sans-Serif" font-size="10.00">detail::has_key_compare&lt; T &gt;</text>
<polyline fill="none" stroke="#666666" points="0,-40.5 148.75,-40.5"/>
<text text-anchor="middle" x="74.38" y="-27" font-family="Helvetica,sans-Serif" font-size="10.00"> </text>
<polyline fill="none" stroke="#666666" points="0,-20.5 148.75,-20.5"/>
<text text-anchor="middle" x="74.38" y="-7" font-family="Helvetica,sans-Serif" font-size="10.00"> </text>
</a>
</g>
</g>
<!-- Node2 -->
<g id="node2" class="node">
<title>Node2</title>
<g id="a_node2"><a xlink:title=" ">
<polygon fill="white" stroke="#666666" points="4.88,-97.5 4.88,-181.5 143.88,-181.5 143.88,-97.5 4.88,-97.5"/>
<text text-anchor="start" x="12.88" y="-168" font-family="Helvetica,sans-Serif" font-size="10.00">std::integral_constant</text>
<text text-anchor="start" x="12.88" y="-156" font-family="Helvetica,sans-Serif" font-size="10.00">&lt; bool, is_detected&lt; detect</text>
<text text-anchor="middle" x="74.38" y="-144" font-family="Helvetica,sans-Serif" font-size="10.00">_key_compare, T &gt;::value &gt;</text>
<polyline fill="none" stroke="#666666" points="4.88,-137.5 143.88,-137.5"/>
<text text-anchor="middle" x="74.38" y="-124" font-family="Helvetica,sans-Serif" font-size="10.00"> </text>
<polyline fill="none" stroke="#666666" points="4.88,-117.5 143.88,-117.5"/>
<text text-anchor="middle" x="74.38" y="-104" font-family="Helvetica,sans-Serif" font-size="10.00"> </text>
</a>
</g>
</g>
<!-- Node2&#45;&gt;Node1 -->
<g id="edge1" class="edge">
<title>Node2&#45;&gt;Node1</title>
<path fill="none" stroke="#63b8ff" d="M74.38,-85.89C74.38,-77.27 74.38,-68.61 74.38,-60.83"/>
<polygon fill="none" stroke="#63b8ff" points="70.88,-85.62 74.38,-95.62 77.88,-85.62 70.88,-85.62"/>
</g>
</g>
</svg>
