<?xml version="1.0" encoding="UTF-8" standalone="no"?>
<!DOCTYPE svg PUBLIC "-//W3C//DTD SVG 1.1//EN"
 "http://www.w3.org/Graphics/SVG/1.1/DTD/svg11.dtd">
<!-- Generated by graphviz version 12.2.1 (20241206.2353)
 -->
<!-- Title: detail::char_traits&lt; T &gt; Pages: 1 -->
<svg width="123pt" height="166pt"
 viewBox="0.00 0.00 123.00 166.00" xmlns="http://www.w3.org/2000/svg" xmlns:xlink="http://www.w3.org/1999/xlink">
<g id="graph0" class="graph" transform="scale(1 1) rotate(0) translate(4 162)">
<title>detail::char_traits&lt; T &gt;</title>
<!-- Node1 -->
<g id="node1" class="node">
<title>Node1</title>
<g id="a_node1"><a xlink:title=" ">
<polygon fill="#999999" stroke="#666666" points="0,-0.5 0,-60.5 115,-60.5 115,-0.5 0,-0.5"/>
<text text-anchor="middle" x="57.5" y="-47" font-family="Helvetica,sans-Serif" font-size="10.00">detail::char_traits&lt; T &gt;</text>
<polyline fill="none" stroke="#666666" points="0,-40.5 115,-40.5"/>
<text text-anchor="middle" x="57.5" y="-27" font-family="Helvetica,sans-Serif" font-size="10.00"> </text>
<polyline fill="none" stroke="#666666" points="0,-20.5 115,-20.5"/>
<text text-anchor="middle" x="57.5" y="-7" font-family="Helvetica,sans-Serif" font-size="10.00"> </text>
</a>
</g>
</g>
<!-- Node2 -->
<g id="node2" class="node">
<title>Node2</title>
<g id="a_node2"><a xlink:title=" ">
<polygon fill="white" stroke="#666666" points="4.88,-97.5 4.88,-157.5 110.12,-157.5 110.12,-97.5 4.88,-97.5"/>
<text text-anchor="middle" x="57.5" y="-144" font-family="Helvetica,sans-Serif" font-size="10.00">std::char_traits&lt; T &gt;</text>
<polyline fill="none" stroke="#666666" points="4.88,-137.5 110.12,-137.5"/>
<text text-anchor="middle" x="57.5" y="-124" font-family="Helvetica,sans-Serif" font-size="10.00"> </text>
<polyline fill="none" stroke="#666666" points="4.88,-117.5 110.12,-117.5"/>
<text text-anchor="middle" x="57.5" y="-104" font-family="Helvetica,sans-Serif" font-size="10.00"> </text>
</a>
</g>
</g>
<!-- Node2&#45;&gt;Node1 -->
<g id="edge1" class="edge">
<title>Node2&#45;&gt;Node1</title>
<path fill="none" stroke="#63b8ff" d="M57.5,-85.99C57.5,-77.54 57.5,-68.8 57.5,-60.85"/>
<polygon fill="none" stroke="#63b8ff" points="54,-85.71 57.5,-95.71 61,-85.71 54,-85.71"/>
</g>
</g>
</svg>
