<?xml version="1.0" encoding="UTF-8" standalone="no"?>
<!DOCTYPE svg PUBLIC "-//W3C//DTD SVG 1.1//EN"
 "http://www.w3.org/Graphics/SVG/1.1/DTD/svg11.dtd">
<!-- Generated by graphviz version 12.2.1 (20241206.2353)
 -->
<!-- Title: detail::is_default_constructible&lt; std::tuple&lt; Ts... &gt; &gt; Pages: 1 -->
<svg width="136pt" height="420pt"
 viewBox="0.00 0.00 135.75 420.00" xmlns="http://www.w3.org/2000/svg" xmlns:xlink="http://www.w3.org/1999/xlink">
<g id="graph0" class="graph" transform="scale(1 1) rotate(0) translate(4 416)">
<title>detail::is_default_constructible&lt; std::tuple&lt; Ts... &gt; &gt;</title>
<!-- Node1 -->
<g id="node1" class="node">
<title>Node1</title>
<g id="a_node1"><a xlink:title=" ">
<polygon fill="#999999" stroke="#666666" points="14.25,-109.5 14.25,-193.5 113.5,-193.5 113.5,-109.5 14.25,-109.5"/>
<text text-anchor="start" x="22.25" y="-180" font-family="Helvetica,sans-Serif" font-size="10.00">detail::is_default</text>
<text text-anchor="start" x="22.25" y="-168" font-family="Helvetica,sans-Serif" font-size="10.00">_constructible&lt; std</text>
<text text-anchor="middle" x="63.88" y="-156" font-family="Helvetica,sans-Serif" font-size="10.00">::tuple&lt; Ts... &gt; &gt;</text>
<polyline fill="none" stroke="#666666" points="14.25,-149.5 113.5,-149.5"/>
<text text-anchor="middle" x="63.88" y="-136" font-family="Helvetica,sans-Serif" font-size="10.00"> </text>
<polyline fill="none" stroke="#666666" points="14.25,-129.5 113.5,-129.5"/>
<text text-anchor="middle" x="63.88" y="-116" font-family="Helvetica,sans-Serif" font-size="10.00"> </text>
</a>
</g>
</g>
<!-- Node4 -->
<g id="node4" class="node">
<title>Node4</title>
<g id="a_node4"><a xlink:href="structdetail_1_1is__constructible_3_01std_1_1tuple_3_01Ts_8_8_8_01_4_01_4.html" target="_top" xlink:title=" ">
<polygon fill="white" stroke="#666666" points="7.12,-0.5 7.12,-72.5 120.62,-72.5 120.62,-0.5 7.12,-0.5"/>
<text text-anchor="start" x="15.12" y="-59" font-family="Helvetica,sans-Serif" font-size="10.00">detail::is_constructible</text>
<text text-anchor="middle" x="63.88" y="-47" font-family="Helvetica,sans-Serif" font-size="10.00">&lt; std::tuple&lt; Ts... &gt; &gt;</text>
<polyline fill="none" stroke="#666666" points="7.12,-40.5 120.62,-40.5"/>
<text text-anchor="middle" x="63.88" y="-27" font-family="Helvetica,sans-Serif" font-size="10.00"> </text>
<polyline fill="none" stroke="#666666" points="7.12,-20.5 120.62,-20.5"/>
<text text-anchor="middle" x="63.88" y="-7" font-family="Helvetica,sans-Serif" font-size="10.00"> </text>
</a>
</g>
</g>
<!-- Node1&#45;&gt;Node4 -->
<g id="edge3" class="edge">
<title>Node1&#45;&gt;Node4</title>
<path fill="none" stroke="#63b8ff" d="M63.88,-97.75C63.88,-89.36 63.88,-80.85 63.88,-72.98"/>
<polygon fill="none" stroke="#63b8ff" points="60.38,-97.55 63.88,-107.55 67.38,-97.55 60.38,-97.55"/>
</g>
<!-- Node2 -->
<g id="node2" class="node">
<title>Node2</title>
<g id="a_node2"><a xlink:href="structdetail_1_1conjunction.html" target="_top" xlink:title=" ">
<polygon fill="white" stroke="#666666" points="0,-230.5 0,-314.5 127.75,-314.5 127.75,-230.5 0,-230.5"/>
<text text-anchor="start" x="8" y="-301" font-family="Helvetica,sans-Serif" font-size="10.00">detail::conjunction</text>
<text text-anchor="start" x="8" y="-289" font-family="Helvetica,sans-Serif" font-size="10.00">&lt; is_default_constructible</text>
<text text-anchor="middle" x="63.88" y="-277" font-family="Helvetica,sans-Serif" font-size="10.00">&lt; Ts &gt;... &gt;</text>
<polyline fill="none" stroke="#666666" points="0,-270.5 127.75,-270.5"/>
<text text-anchor="middle" x="63.88" y="-257" font-family="Helvetica,sans-Serif" font-size="10.00"> </text>
<polyline fill="none" stroke="#666666" points="0,-250.5 127.75,-250.5"/>
<text text-anchor="middle" x="63.88" y="-237" font-family="Helvetica,sans-Serif" font-size="10.00"> </text>
</a>
</g>
</g>
<!-- Node2&#45;&gt;Node1 -->
<g id="edge1" class="edge">
<title>Node2&#45;&gt;Node1</title>
<path fill="none" stroke="#63b8ff" d="M63.88,-218.89C63.88,-210.46 63.88,-201.83 63.88,-193.71"/>
<polygon fill="none" stroke="#63b8ff" points="60.38,-218.7 63.88,-228.7 67.38,-218.7 60.38,-218.7"/>
</g>
<!-- Node3 -->
<g id="node3" class="node">
<title>Node3</title>
<g id="a_node3"><a xlink:title=" ">
<polygon fill="white" stroke="#666666" points="25.88,-351.5 25.88,-411.5 101.88,-411.5 101.88,-351.5 25.88,-351.5"/>
<text text-anchor="middle" x="63.88" y="-398" font-family="Helvetica,sans-Serif" font-size="10.00">std::true_type</text>
<polyline fill="none" stroke="#666666" points="25.88,-391.5 101.88,-391.5"/>
<text text-anchor="middle" x="63.88" y="-378" font-family="Helvetica,sans-Serif" font-size="10.00"> </text>
<polyline fill="none" stroke="#666666" points="25.88,-371.5 101.88,-371.5"/>
<text text-anchor="middle" x="63.88" y="-358" font-family="Helvetica,sans-Serif" font-size="10.00"> </text>
</a>
</g>
</g>
<!-- Node3&#45;&gt;Node2 -->
<g id="edge2" class="edge">
<title>Node3&#45;&gt;Node2</title>
<path fill="none" stroke="#63b8ff" d="M63.88,-339.97C63.88,-331.71 63.88,-323.02 63.88,-314.74"/>
<polygon fill="none" stroke="#63b8ff" points="60.38,-339.75 63.88,-349.75 67.38,-339.75 60.38,-339.75"/>
</g>
</g>
</svg>
