<?xml version="1.0" encoding="UTF-8" standalone="no"?>
<!DOCTYPE svg PUBLIC "-//W3C//DTD SVG 1.1//EN"
 "http://www.w3.org/Graphics/SVG/1.1/DTD/svg11.dtd">
<!-- Generated by graphviz version 12.2.1 (20241206.2353)
 -->
<!-- Title: detail::is_constructible_array_type_impl&lt; BasicJsonType, ConstructibleArrayType, typename &gt; Pages: 1 -->
<svg width="187pt" height="190pt"
 viewBox="0.00 0.00 186.75 190.00" xmlns="http://www.w3.org/2000/svg" xmlns:xlink="http://www.w3.org/1999/xlink">
<g id="graph0" class="graph" transform="scale(1 1) rotate(0) translate(4 186)">
<title>detail::is_constructible_array_type_impl&lt; BasicJsonType, ConstructibleArrayType, typename &gt;</title>
<!-- Node1 -->
<g id="node1" class="node">
<title>Node1</title>
<g id="a_node1"><a xlink:title=" ">
<polygon fill="#999999" stroke="#666666" points="0,-0.5 0,-84.5 178.75,-84.5 178.75,-0.5 0,-0.5"/>
<text text-anchor="start" x="8" y="-71" font-family="Helvetica,sans-Serif" font-size="10.00">detail::is_constructible</text>
<text text-anchor="start" x="8" y="-59" font-family="Helvetica,sans-Serif" font-size="10.00">_array_type_impl&lt; BasicJsonType,</text>
<text text-anchor="middle" x="89.38" y="-47" font-family="Helvetica,sans-Serif" font-size="10.00"> ConstructibleArrayType, typename &gt;</text>
<polyline fill="none" stroke="#666666" points="0,-40.5 178.75,-40.5"/>
<text text-anchor="middle" x="89.38" y="-27" font-family="Helvetica,sans-Serif" font-size="10.00"> </text>
<polyline fill="none" stroke="#666666" points="0,-20.5 178.75,-20.5"/>
<text text-anchor="middle" x="89.38" y="-7" font-family="Helvetica,sans-Serif" font-size="10.00"> </text>
</a>
</g>
</g>
<!-- Node2 -->
<g id="node2" class="node">
<title>Node2</title>
<g id="a_node2"><a xlink:title=" ">
<polygon fill="white" stroke="#666666" points="49.12,-121.5 49.12,-181.5 129.62,-181.5 129.62,-121.5 49.12,-121.5"/>
<text text-anchor="middle" x="89.38" y="-168" font-family="Helvetica,sans-Serif" font-size="10.00">std::false_type</text>
<polyline fill="none" stroke="#666666" points="49.12,-161.5 129.62,-161.5"/>
<text text-anchor="middle" x="89.38" y="-148" font-family="Helvetica,sans-Serif" font-size="10.00"> </text>
<polyline fill="none" stroke="#666666" points="49.12,-141.5 129.62,-141.5"/>
<text text-anchor="middle" x="89.38" y="-128" font-family="Helvetica,sans-Serif" font-size="10.00"> </text>
</a>
</g>
</g>
<!-- Node2&#45;&gt;Node1 -->
<g id="edge1" class="edge">
<title>Node2&#45;&gt;Node1</title>
<path fill="none" stroke="#63b8ff" d="M89.38,-109.97C89.38,-101.71 89.38,-93.02 89.38,-84.74"/>
<polygon fill="none" stroke="#63b8ff" points="85.88,-109.75 89.38,-119.75 92.88,-109.75 85.88,-109.75"/>
</g>
</g>
</svg>
