<?xml version="1.0" encoding="UTF-8" standalone="no"?>
<!DOCTYPE svg PUBLIC "-//W3C//DTD SVG 1.1//EN"
 "http://www.w3.org/Graphics/SVG/1.1/DTD/svg11.dtd">
<!-- Generated by graphviz version 12.2.1 (20241206.2353)
 -->
<!-- Title: CText Pages: 1 -->
<svg width="74pt" height="166pt"
 viewBox="0.00 0.00 74.25 166.00" xmlns="http://www.w3.org/2000/svg" xmlns:xlink="http://www.w3.org/1999/xlink">
<g id="graph0" class="graph" transform="scale(1 1) rotate(0) translate(4 162)">
<title>CText</title>
<!-- Node1 -->
<g id="node1" class="node">
<title>Node1</title>
<g id="a_node1"><a xlink:title=" ">
<polygon fill="#999999" stroke="#666666" points="4.5,-0.5 4.5,-60.5 61.75,-60.5 61.75,-0.5 4.5,-0.5"/>
<text text-anchor="middle" x="33.12" y="-47" font-family="Helvetica,sans-Serif" font-size="10.00">CText</text>
<polyline fill="none" stroke="#666666" points="4.5,-40.5 61.75,-40.5"/>
<text text-anchor="start" x="12.5" y="-27" font-family="Helvetica,sans-Serif" font-size="10.00">+ text</text>
<polyline fill="none" stroke="#666666" points="4.5,-20.5 61.75,-20.5"/>
<text text-anchor="start" x="12.5" y="-7" font-family="Helvetica,sans-Serif" font-size="10.00">+ CText()</text>
</a>
</g>
</g>
<!-- Node2 -->
<g id="node2" class="node">
<title>Node2</title>
<g id="a_node2"><a xlink:href="structComponent.html" target="_top" xlink:title=" ">
<polygon fill="white" stroke="#666666" points="0,-97.5 0,-157.5 66.25,-157.5 66.25,-97.5 0,-97.5"/>
<text text-anchor="middle" x="33.12" y="-144" font-family="Helvetica,sans-Serif" font-size="10.00">Component</text>
<polyline fill="none" stroke="#666666" points="0,-137.5 66.25,-137.5"/>
<text text-anchor="start" x="8" y="-124" font-family="Helvetica,sans-Serif" font-size="10.00">+ has</text>
<polyline fill="none" stroke="#666666" points="0,-117.5 66.25,-117.5"/>
<text text-anchor="middle" x="33.12" y="-104" font-family="Helvetica,sans-Serif" font-size="10.00"> </text>
</a>
</g>
</g>
<!-- Node2&#45;&gt;Node1 -->
<g id="edge1" class="edge">
<title>Node2&#45;&gt;Node1</title>
<path fill="none" stroke="#63b8ff" d="M33.12,-85.99C33.12,-77.54 33.12,-68.8 33.12,-60.85"/>
<polygon fill="none" stroke="#63b8ff" points="29.63,-85.71 33.13,-95.71 36.63,-85.71 29.63,-85.71"/>
</g>
</g>
</svg>
