<?xml version="1.0" encoding="UTF-8" standalone="no"?>
<!DOCTYPE svg PUBLIC "-//W3C//DTD SVG 1.1//EN"
 "http://www.w3.org/Graphics/SVG/1.1/DTD/svg11.dtd">
<!-- Generated by graphviz version 12.2.1 (20241206.2353)
 -->
<!-- Title: detail::dtoa_impl::boundaries Pages: 1 -->
<svg width="101pt" height="298pt"
 viewBox="0.00 0.00 101.25 298.00" xmlns="http://www.w3.org/2000/svg" xmlns:xlink="http://www.w3.org/1999/xlink">
<g id="graph0" class="graph" transform="scale(1 1) rotate(0) translate(4 294)">
<title>detail::dtoa_impl::boundaries</title>
<!-- Node1 -->
<g id="node1" class="node">
<title>Node1</title>
<g id="a_node1"><a xlink:title=" ">
<polygon fill="#999999" stroke="#666666" points="0,-0.5 0,-72.5 93.25,-72.5 93.25,-0.5 0,-0.5"/>
<text text-anchor="start" x="8" y="-59" font-family="Helvetica,sans-Serif" font-size="10.00">detail::dtoa_impl::</text>
<text text-anchor="middle" x="46.62" y="-47" font-family="Helvetica,sans-Serif" font-size="10.00">boundaries</text>
<polyline fill="none" stroke="#666666" points="0,-40.5 93.25,-40.5"/>
<text text-anchor="middle" x="46.62" y="-27" font-family="Helvetica,sans-Serif" font-size="10.00"> </text>
<polyline fill="none" stroke="#666666" points="0,-20.5 93.25,-20.5"/>
<text text-anchor="middle" x="46.62" y="-7" font-family="Helvetica,sans-Serif" font-size="10.00"> </text>
</a>
</g>
</g>
<!-- Node2 -->
<g id="node2" class="node">
<title>Node2</title>
<g id="a_node2"><a xlink:href="structdetail_1_1dtoa__impl_1_1diyfp.html" target="_top" xlink:title=" ">
<polygon fill="white" stroke="#666666" points="0,-145.5 0,-289.5 93.25,-289.5 93.25,-145.5 0,-145.5"/>
<text text-anchor="start" x="8" y="-276" font-family="Helvetica,sans-Serif" font-size="10.00">detail::dtoa_impl::</text>
<text text-anchor="middle" x="46.62" y="-264" font-family="Helvetica,sans-Serif" font-size="10.00">diyfp</text>
<polyline fill="none" stroke="#666666" points="0,-257.5 93.25,-257.5"/>
<text text-anchor="start" x="8" y="-244" font-family="Helvetica,sans-Serif" font-size="10.00">+ f</text>
<text text-anchor="start" x="8" y="-232" font-family="Helvetica,sans-Serif" font-size="10.00">+ e</text>
<text text-anchor="start" x="8" y="-220" font-family="Helvetica,sans-Serif" font-size="10.00">+ kPrecision</text>
<polyline fill="none" stroke="#666666" points="0,-213.5 93.25,-213.5"/>
<text text-anchor="start" x="8" y="-200" font-family="Helvetica,sans-Serif" font-size="10.00">+ diyfp()</text>
<text text-anchor="start" x="8" y="-188" font-family="Helvetica,sans-Serif" font-size="10.00">+ sub()</text>
<text text-anchor="start" x="8" y="-176" font-family="Helvetica,sans-Serif" font-size="10.00">+ mul()</text>
<text text-anchor="start" x="8" y="-164" font-family="Helvetica,sans-Serif" font-size="10.00">+ normalize()</text>
<text text-anchor="start" x="8" y="-152" font-family="Helvetica,sans-Serif" font-size="10.00">+ normalize_to()</text>
</a>
</g>
</g>
<!-- Node2&#45;&gt;Node1 -->
<g id="edge1" class="edge">
<title>Node2&#45;&gt;Node1</title>
<path fill="none" stroke="#404040" d="M46.62,-145.24C46.62,-125.25 46.62,-104 46.62,-85.7"/>
<polygon fill="none" stroke="#404040" points="46.63,-85.55 42.63,-79.55 46.63,-73.55 50.63,-79.55 46.63,-85.55"/>
<text text-anchor="middle" x="64.25" y="-117.5" font-family="Helvetica,sans-Serif" font-size="10.00"> +minus</text>
<text text-anchor="middle" x="64.25" y="-105.5" font-family="Helvetica,sans-Serif" font-size="10.00">+plus</text>
<text text-anchor="middle" x="64.25" y="-93.5" font-family="Helvetica,sans-Serif" font-size="10.00">+w</text>
</g>
</g>
</svg>
