<?xml version="1.0" encoding="UTF-8" standalone="no"?>
<!DOCTYPE svg PUBLIC "-//W3C//DTD SVG 1.1//EN"
 "http://www.w3.org/Graphics/SVG/1.1/DTD/svg11.dtd">
<!-- Generated by graphviz version 12.2.1 (20241206.2353)
 -->
<!-- Title: CLifeSpan Pages: 1 -->
<svg width="92pt" height="190pt"
 viewBox="0.00 0.00 92.25 190.00" xmlns="http://www.w3.org/2000/svg" xmlns:xlink="http://www.w3.org/1999/xlink">
<g id="graph0" class="graph" transform="scale(1 1) rotate(0) translate(4 186)">
<title>CLifeSpan</title>
<!-- Node1 -->
<g id="node1" class="node">
<title>Node1</title>
<g id="a_node1"><a xlink:title=" ">
<polygon fill="#999999" stroke="#666666" points="0,-0.5 0,-84.5 84.25,-84.5 84.25,-0.5 0,-0.5"/>
<text text-anchor="middle" x="42.12" y="-71" font-family="Helvetica,sans-Serif" font-size="10.00">CLifeSpan</text>
<polyline fill="none" stroke="#666666" points="0,-64.5 84.25,-64.5"/>
<text text-anchor="start" x="8" y="-51" font-family="Helvetica,sans-Serif" font-size="10.00">+ lifespan</text>
<text text-anchor="start" x="8" y="-39" font-family="Helvetica,sans-Serif" font-size="10.00">+ frameCreated</text>
<polyline fill="none" stroke="#666666" points="0,-32.5 84.25,-32.5"/>
<text text-anchor="start" x="8" y="-19" font-family="Helvetica,sans-Serif" font-size="10.00">+ CLifeSpan()</text>
<text text-anchor="start" x="8" y="-7" font-family="Helvetica,sans-Serif" font-size="10.00">+ CLifeSpan()</text>
</a>
</g>
</g>
<!-- Node2 -->
<g id="node2" class="node">
<title>Node2</title>
<g id="a_node2"><a xlink:href="structComponent.html" target="_top" xlink:title=" ">
<polygon fill="white" stroke="#666666" points="9,-121.5 9,-181.5 75.25,-181.5 75.25,-121.5 9,-121.5"/>
<text text-anchor="middle" x="42.12" y="-168" font-family="Helvetica,sans-Serif" font-size="10.00">Component</text>
<polyline fill="none" stroke="#666666" points="9,-161.5 75.25,-161.5"/>
<text text-anchor="start" x="17" y="-148" font-family="Helvetica,sans-Serif" font-size="10.00">+ has</text>
<polyline fill="none" stroke="#666666" points="9,-141.5 75.25,-141.5"/>
<text text-anchor="middle" x="42.12" y="-128" font-family="Helvetica,sans-Serif" font-size="10.00"> </text>
</a>
</g>
</g>
<!-- Node2&#45;&gt;Node1 -->
<g id="edge1" class="edge">
<title>Node2&#45;&gt;Node1</title>
<path fill="none" stroke="#63b8ff" d="M42.12,-109.97C42.12,-101.71 42.12,-93.02 42.12,-84.74"/>
<polygon fill="none" stroke="#63b8ff" points="38.63,-109.75 42.13,-119.75 45.63,-109.75 38.63,-109.75"/>
</g>
</g>
</svg>
