<?xml version="1.0" encoding="UTF-8" standalone="no"?>
<!DOCTYPE svg PUBLIC "-//W3C//DTD SVG 1.1//EN"
 "http://www.w3.org/Graphics/SVG/1.1/DTD/svg11.dtd">
<!-- Generated by graphviz version 12.2.1 (20241206.2353)
 -->
<!-- Title: detail::is_compatible_type_impl&lt; BasicJsonType, CompatibleType, typename &gt; Pages: 1 -->
<svg width="155pt" height="190pt"
 viewBox="0.00 0.00 155.25 190.00" xmlns="http://www.w3.org/2000/svg" xmlns:xlink="http://www.w3.org/1999/xlink">
<g id="graph0" class="graph" transform="scale(1 1) rotate(0) translate(4 186)">
<title>detail::is_compatible_type_impl&lt; BasicJsonType, CompatibleType, typename &gt;</title>
<!-- Node1 -->
<g id="node1" class="node">
<title>Node1</title>
<g id="a_node1"><a xlink:title=" ">
<polygon fill="#999999" stroke="#666666" points="0,-0.5 0,-84.5 147.25,-84.5 147.25,-0.5 0,-0.5"/>
<text text-anchor="start" x="8" y="-71" font-family="Helvetica,sans-Serif" font-size="10.00">detail::is_compatible</text>
<text text-anchor="start" x="8" y="-59" font-family="Helvetica,sans-Serif" font-size="10.00">_type_impl&lt; BasicJsonType,</text>
<text text-anchor="middle" x="73.62" y="-47" font-family="Helvetica,sans-Serif" font-size="10.00"> CompatibleType, typename &gt;</text>
<polyline fill="none" stroke="#666666" points="0,-40.5 147.25,-40.5"/>
<text text-anchor="middle" x="73.62" y="-27" font-family="Helvetica,sans-Serif" font-size="10.00"> </text>
<polyline fill="none" stroke="#666666" points="0,-20.5 147.25,-20.5"/>
<text text-anchor="middle" x="73.62" y="-7" font-family="Helvetica,sans-Serif" font-size="10.00"> </text>
</a>
</g>
</g>
<!-- Node2 -->
<g id="node2" class="node">
<title>Node2</title>
<g id="a_node2"><a xlink:title=" ">
<polygon fill="white" stroke="#666666" points="33.38,-121.5 33.38,-181.5 113.88,-181.5 113.88,-121.5 33.38,-121.5"/>
<text text-anchor="middle" x="73.62" y="-168" font-family="Helvetica,sans-Serif" font-size="10.00">std::false_type</text>
<polyline fill="none" stroke="#666666" points="33.38,-161.5 113.88,-161.5"/>
<text text-anchor="middle" x="73.62" y="-148" font-family="Helvetica,sans-Serif" font-size="10.00"> </text>
<polyline fill="none" stroke="#666666" points="33.38,-141.5 113.88,-141.5"/>
<text text-anchor="middle" x="73.62" y="-128" font-family="Helvetica,sans-Serif" font-size="10.00"> </text>
</a>
</g>
</g>
<!-- Node2&#45;&gt;Node1 -->
<g id="edge1" class="edge">
<title>Node2&#45;&gt;Node1</title>
<path fill="none" stroke="#63b8ff" d="M73.62,-109.97C73.62,-101.71 73.62,-93.02 73.62,-84.74"/>
<polygon fill="none" stroke="#63b8ff" points="70.13,-109.75 73.63,-119.75 77.13,-109.75 70.13,-109.75"/>
</g>
</g>
</svg>
