<?xml version="1.0" encoding="UTF-8" standalone="no"?>
<!DOCTYPE svg PUBLIC "-//W3C//DTD SVG 1.1//EN"
 "http://www.w3.org/Graphics/SVG/1.1/DTD/svg11.dtd">
<!-- Generated by graphviz version 12.2.1 (20241206.2353)
 -->
<!-- Title: detail::is_compatible_type&lt; BasicJsonType, CompatibleType &gt; Pages: 1 -->
<svg width="155pt" height="311pt"
 viewBox="0.00 0.00 155.25 311.00" xmlns="http://www.w3.org/2000/svg" xmlns:xlink="http://www.w3.org/1999/xlink">
<g id="graph0" class="graph" transform="scale(1 1) rotate(0) translate(4 307)">
<title>detail::is_compatible_type&lt; BasicJsonType, CompatibleType &gt;</title>
<!-- Node1 -->
<g id="node1" class="node">
<title>Node1</title>
<g id="a_node1"><a xlink:title=" ">
<polygon fill="#999999" stroke="#666666" points="14.25,-0.5 14.25,-84.5 133,-84.5 133,-0.5 14.25,-0.5"/>
<text text-anchor="start" x="22.25" y="-71" font-family="Helvetica,sans-Serif" font-size="10.00">detail::is_compatible</text>
<text text-anchor="start" x="22.25" y="-59" font-family="Helvetica,sans-Serif" font-size="10.00">_type&lt; BasicJsonType,</text>
<text text-anchor="middle" x="73.62" y="-47" font-family="Helvetica,sans-Serif" font-size="10.00"> CompatibleType &gt;</text>
<polyline fill="none" stroke="#666666" points="14.25,-40.5 133,-40.5"/>
<text text-anchor="middle" x="73.62" y="-27" font-family="Helvetica,sans-Serif" font-size="10.00"> </text>
<polyline fill="none" stroke="#666666" points="14.25,-20.5 133,-20.5"/>
<text text-anchor="middle" x="73.62" y="-7" font-family="Helvetica,sans-Serif" font-size="10.00"> </text>
</a>
</g>
</g>
<!-- Node2 -->
<g id="node2" class="node">
<title>Node2</title>
<g id="a_node2"><a xlink:href="structdetail_1_1is__compatible__type__impl.html" target="_top" xlink:title=" ">
<polygon fill="white" stroke="#666666" points="0,-121.5 0,-205.5 147.25,-205.5 147.25,-121.5 0,-121.5"/>
<text text-anchor="start" x="8" y="-192" font-family="Helvetica,sans-Serif" font-size="10.00">detail::is_compatible</text>
<text text-anchor="start" x="8" y="-180" font-family="Helvetica,sans-Serif" font-size="10.00">_type_impl&lt; BasicJsonType,</text>
<text text-anchor="middle" x="73.62" y="-168" font-family="Helvetica,sans-Serif" font-size="10.00"> CompatibleType, typename &gt;</text>
<polyline fill="none" stroke="#666666" points="0,-161.5 147.25,-161.5"/>
<text text-anchor="middle" x="73.62" y="-148" font-family="Helvetica,sans-Serif" font-size="10.00"> </text>
<polyline fill="none" stroke="#666666" points="0,-141.5 147.25,-141.5"/>
<text text-anchor="middle" x="73.62" y="-128" font-family="Helvetica,sans-Serif" font-size="10.00"> </text>
</a>
</g>
</g>
<!-- Node2&#45;&gt;Node1 -->
<g id="edge1" class="edge">
<title>Node2&#45;&gt;Node1</title>
<path fill="none" stroke="#63b8ff" d="M73.62,-109.89C73.62,-101.46 73.62,-92.83 73.62,-84.71"/>
<polygon fill="none" stroke="#63b8ff" points="70.13,-109.7 73.63,-119.7 77.13,-109.7 70.13,-109.7"/>
</g>
<!-- Node3 -->
<g id="node3" class="node">
<title>Node3</title>
<g id="a_node3"><a xlink:title=" ">
<polygon fill="white" stroke="#666666" points="33.38,-242.5 33.38,-302.5 113.88,-302.5 113.88,-242.5 33.38,-242.5"/>
<text text-anchor="middle" x="73.62" y="-289" font-family="Helvetica,sans-Serif" font-size="10.00">std::false_type</text>
<polyline fill="none" stroke="#666666" points="33.38,-282.5 113.88,-282.5"/>
<text text-anchor="middle" x="73.62" y="-269" font-family="Helvetica,sans-Serif" font-size="10.00"> </text>
<polyline fill="none" stroke="#666666" points="33.38,-262.5 113.88,-262.5"/>
<text text-anchor="middle" x="73.62" y="-249" font-family="Helvetica,sans-Serif" font-size="10.00"> </text>
</a>
</g>
</g>
<!-- Node3&#45;&gt;Node2 -->
<g id="edge2" class="edge">
<title>Node3&#45;&gt;Node2</title>
<path fill="none" stroke="#63b8ff" d="M73.62,-230.97C73.62,-222.71 73.62,-214.02 73.62,-205.74"/>
<polygon fill="none" stroke="#63b8ff" points="70.13,-230.75 73.63,-240.75 77.13,-230.75 70.13,-230.75"/>
</g>
</g>
</svg>
