<?xml version="1.0" encoding="UTF-8" standalone="no"?>
<!DOCTYPE svg PUBLIC "-//W3C//DTD SVG 1.1//EN"
 "http://www.w3.org/Graphics/SVG/1.1/DTD/svg11.dtd">
<!-- Generated by graphviz version 12.2.1 (20241206.2353)
 -->
<!-- Title: detail::is_basic_json&lt; typename &gt; Pages: 1 -->
<svg width="113pt" height="178pt"
 viewBox="0.00 0.00 112.50 178.00" xmlns="http://www.w3.org/2000/svg" xmlns:xlink="http://www.w3.org/1999/xlink">
<g id="graph0" class="graph" transform="scale(1 1) rotate(0) translate(4 174)">
<title>detail::is_basic_json&lt; typename &gt;</title>
<!-- Node1 -->
<g id="node1" class="node">
<title>Node1</title>
<g id="a_node1"><a xlink:title=" ">
<polygon fill="#999999" stroke="#666666" points="0,-0.5 0,-72.5 104.5,-72.5 104.5,-0.5 0,-0.5"/>
<text text-anchor="start" x="8" y="-59" font-family="Helvetica,sans-Serif" font-size="10.00">detail::is_basic_json</text>
<text text-anchor="middle" x="52.25" y="-47" font-family="Helvetica,sans-Serif" font-size="10.00">&lt; typename &gt;</text>
<polyline fill="none" stroke="#666666" points="0,-40.5 104.5,-40.5"/>
<text text-anchor="middle" x="52.25" y="-27" font-family="Helvetica,sans-Serif" font-size="10.00"> </text>
<polyline fill="none" stroke="#666666" points="0,-20.5 104.5,-20.5"/>
<text text-anchor="middle" x="52.25" y="-7" font-family="Helvetica,sans-Serif" font-size="10.00"> </text>
</a>
</g>
</g>
<!-- Node2 -->
<g id="node2" class="node">
<title>Node2</title>
<g id="a_node2"><a xlink:title=" ">
<polygon fill="white" stroke="#666666" points="12,-109.5 12,-169.5 92.5,-169.5 92.5,-109.5 12,-109.5"/>
<text text-anchor="middle" x="52.25" y="-156" font-family="Helvetica,sans-Serif" font-size="10.00">std::false_type</text>
<polyline fill="none" stroke="#666666" points="12,-149.5 92.5,-149.5"/>
<text text-anchor="middle" x="52.25" y="-136" font-family="Helvetica,sans-Serif" font-size="10.00"> </text>
<polyline fill="none" stroke="#666666" points="12,-129.5 92.5,-129.5"/>
<text text-anchor="middle" x="52.25" y="-116" font-family="Helvetica,sans-Serif" font-size="10.00"> </text>
</a>
</g>
</g>
<!-- Node2&#45;&gt;Node1 -->
<g id="edge1" class="edge">
<title>Node2&#45;&gt;Node1</title>
<path fill="none" stroke="#63b8ff" d="M52.25,-97.73C52.25,-89.51 52.25,-80.94 52.25,-72.92"/>
<polygon fill="none" stroke="#63b8ff" points="48.75,-97.5 52.25,-107.5 55.75,-97.5 48.75,-97.5"/>
</g>
</g>
</svg>
