<?xml version="1.0" encoding="UTF-8" standalone="no"?>
<!DOCTYPE svg PUBLIC "-//W3C//DTD SVG 1.1//EN"
 "http://www.w3.org/Graphics/SVG/1.1/DTD/svg11.dtd">
<!-- Generated by graphviz version 12.2.1 (20241206.2353)
 -->
<!-- Title: CNoun Pages: 1 -->
<svg width="74pt" height="190pt"
 viewBox="0.00 0.00 74.25 190.00" xmlns="http://www.w3.org/2000/svg" xmlns:xlink="http://www.w3.org/1999/xlink">
<g id="graph0" class="graph" transform="scale(1 1) rotate(0) translate(4 186)">
<title>CNoun</title>
<!-- Node1 -->
<g id="node1" class="node">
<title>Node1</title>
<g id="a_node1"><a xlink:title=" ">
<polygon fill="#999999" stroke="#666666" points="2.25,-0.5 2.25,-84.5 64,-84.5 64,-0.5 2.25,-0.5"/>
<text text-anchor="middle" x="33.12" y="-71" font-family="Helvetica,sans-Serif" font-size="10.00">CNoun</text>
<polyline fill="none" stroke="#666666" points="2.25,-64.5 64,-64.5"/>
<text text-anchor="start" x="10.25" y="-51" font-family="Helvetica,sans-Serif" font-size="10.00">+ marker</text>
<text text-anchor="start" x="10.25" y="-39" font-family="Helvetica,sans-Serif" font-size="10.00">+ cost</text>
<polyline fill="none" stroke="#666666" points="2.25,-32.5 64,-32.5"/>
<text text-anchor="start" x="10.25" y="-19" font-family="Helvetica,sans-Serif" font-size="10.00">+ CNoun()</text>
<text text-anchor="start" x="10.25" y="-7" font-family="Helvetica,sans-Serif" font-size="10.00">+ CNoun()</text>
</a>
</g>
</g>
<!-- Node2 -->
<g id="node2" class="node">
<title>Node2</title>
<g id="a_node2"><a xlink:href="structComponent.html" target="_top" xlink:title=" ">
<polygon fill="white" stroke="#666666" points="0,-121.5 0,-181.5 66.25,-181.5 66.25,-121.5 0,-121.5"/>
<text text-anchor="middle" x="33.12" y="-168" font-family="Helvetica,sans-Serif" font-size="10.00">Component</text>
<polyline fill="none" stroke="#666666" points="0,-161.5 66.25,-161.5"/>
<text text-anchor="start" x="8" y="-148" font-family="Helvetica,sans-Serif" font-size="10.00">+ has</text>
<polyline fill="none" stroke="#666666" points="0,-141.5 66.25,-141.5"/>
<text text-anchor="middle" x="33.12" y="-128" font-family="Helvetica,sans-Serif" font-size="10.00"> </text>
</a>
</g>
</g>
<!-- Node2&#45;&gt;Node1 -->
<g id="edge1" class="edge">
<title>Node2&#45;&gt;Node1</title>
<path fill="none" stroke="#63b8ff" d="M33.12,-109.97C33.12,-101.71 33.12,-93.02 33.12,-84.74"/>
<polygon fill="none" stroke="#63b8ff" points="29.63,-109.75 33.13,-119.75 36.63,-109.75 29.63,-109.75"/>
</g>
</g>
</svg>
