<?xml version="1.0" encoding="UTF-8" standalone="no"?>
<!DOCTYPE svg PUBLIC "-//W3C//DTD SVG 1.1//EN"
 "http://www.w3.org/Graphics/SVG/1.1/DTD/svg11.dtd">
<!-- Generated by graphviz version 12.2.1 (20241206.2353)
 -->
<!-- Title: detail::conjunction&lt; B &gt; Pages: 1 -->
<svg width="128pt" height="166pt"
 viewBox="0.00 0.00 127.50 166.00" xmlns="http://www.w3.org/2000/svg" xmlns:xlink="http://www.w3.org/1999/xlink">
<g id="graph0" class="graph" transform="scale(1 1) rotate(0) translate(4 162)">
<title>detail::conjunction&lt; B &gt;</title>
<!-- Node1 -->
<g id="node1" class="node">
<title>Node1</title>
<g id="a_node1"><a xlink:title=" ">
<polygon fill="#999999" stroke="#666666" points="0,-0.5 0,-60.5 119.5,-60.5 119.5,-0.5 0,-0.5"/>
<text text-anchor="middle" x="59.75" y="-47" font-family="Helvetica,sans-Serif" font-size="10.00">detail::conjunction&lt; B &gt;</text>
<polyline fill="none" stroke="#666666" points="0,-40.5 119.5,-40.5"/>
<text text-anchor="middle" x="59.75" y="-27" font-family="Helvetica,sans-Serif" font-size="10.00"> </text>
<polyline fill="none" stroke="#666666" points="0,-20.5 119.5,-20.5"/>
<text text-anchor="middle" x="59.75" y="-7" font-family="Helvetica,sans-Serif" font-size="10.00"> </text>
</a>
</g>
</g>
<!-- Node2 -->
<g id="node2" class="node">
<title>Node2</title>
<g id="a_node2"><a xlink:title=" ">
<polygon fill="white" stroke="#666666" points="45.35,-97.5 45.35,-157.5 74.15,-157.5 74.15,-97.5 45.35,-97.5"/>
<text text-anchor="middle" x="59.73" y="-144" font-family="Helvetica,sans-Serif" font-size="10.00">B</text>
<polyline fill="none" stroke="#666666" points="45.35,-137.5 74.1,-137.5"/>
<text text-anchor="middle" x="59.73" y="-124" font-family="Helvetica,sans-Serif" font-size="10.00"> </text>
<polyline fill="none" stroke="#666666" points="45.35,-117.5 74.1,-117.5"/>
<text text-anchor="middle" x="59.73" y="-104" font-family="Helvetica,sans-Serif" font-size="10.00"> </text>
</a>
</g>
</g>
<!-- Node2&#45;&gt;Node1 -->
<g id="edge1" class="edge">
<title>Node2&#45;&gt;Node1</title>
<path fill="none" stroke="#63b8ff" d="M59.75,-85.99C59.75,-77.54 59.75,-68.8 59.75,-60.85"/>
<polygon fill="none" stroke="#63b8ff" points="56.25,-85.71 59.75,-95.71 63.25,-85.71 56.25,-85.71"/>
</g>
</g>
</svg>
