<?xml version="1.0" encoding="UTF-8" standalone="no"?>
<!DOCTYPE svg PUBLIC "-//W3C//DTD SVG 1.1//EN"
 "http://www.w3.org/Graphics/SVG/1.1/DTD/svg11.dtd">
<!-- Generated by graphviz version 12.2.1 (20241206.2353)
 -->
<!-- Title: detail::is_default_constructible&lt; T &gt; Pages: 1 -->
<svg width="170pt" height="178pt"
 viewBox="0.00 0.00 170.25 178.00" xmlns="http://www.w3.org/2000/svg" xmlns:xlink="http://www.w3.org/1999/xlink">
<g id="graph0" class="graph" transform="scale(1 1) rotate(0) translate(4 174)">
<title>detail::is_default_constructible&lt; T &gt;</title>
<!-- Node1 -->
<g id="node1" class="node">
<title>Node1</title>
<g id="a_node1"><a xlink:title=" ">
<polygon fill="#999999" stroke="#666666" points="30.75,-0.5 30.75,-72.5 131.5,-72.5 131.5,-0.5 30.75,-0.5"/>
<text text-anchor="start" x="38.75" y="-59" font-family="Helvetica,sans-Serif" font-size="10.00">detail::is_default</text>
<text text-anchor="middle" x="81.12" y="-47" font-family="Helvetica,sans-Serif" font-size="10.00">_constructible&lt; T &gt;</text>
<polyline fill="none" stroke="#666666" points="30.75,-40.5 131.5,-40.5"/>
<text text-anchor="middle" x="81.12" y="-27" font-family="Helvetica,sans-Serif" font-size="10.00"> </text>
<polyline fill="none" stroke="#666666" points="30.75,-20.5 131.5,-20.5"/>
<text text-anchor="middle" x="81.12" y="-7" font-family="Helvetica,sans-Serif" font-size="10.00"> </text>
</a>
</g>
</g>
<!-- Node2 -->
<g id="node2" class="node">
<title>Node2</title>
<g id="a_node2"><a xlink:title=" ">
<polygon fill="white" stroke="#666666" points="0,-109.5 0,-169.5 162.25,-169.5 162.25,-109.5 0,-109.5"/>
<text text-anchor="middle" x="81.12" y="-156" font-family="Helvetica,sans-Serif" font-size="10.00">std::is_default_constructible&lt; T &gt;</text>
<polyline fill="none" stroke="#666666" points="0,-149.5 162.25,-149.5"/>
<text text-anchor="middle" x="81.12" y="-136" font-family="Helvetica,sans-Serif" font-size="10.00"> </text>
<polyline fill="none" stroke="#666666" points="0,-129.5 162.25,-129.5"/>
<text text-anchor="middle" x="81.12" y="-116" font-family="Helvetica,sans-Serif" font-size="10.00"> </text>
</a>
</g>
</g>
<!-- Node2&#45;&gt;Node1 -->
<g id="edge1" class="edge">
<title>Node2&#45;&gt;Node1</title>
<path fill="none" stroke="#63b8ff" d="M81.12,-97.73C81.12,-89.51 81.12,-80.94 81.12,-72.92"/>
<polygon fill="none" stroke="#63b8ff" points="77.63,-97.5 81.13,-107.5 84.63,-97.5 77.63,-97.5"/>
</g>
</g>
</svg>
