<?xml version="1.0" encoding="UTF-8" standalone="no"?>
<!DOCTYPE svg PUBLIC "-//W3C//DTD SVG 1.1//EN"
 "http://www.w3.org/Graphics/SVG/1.1/DTD/svg11.dtd">
<!-- Generated by graphviz version 12.2.1 (20241206.2353)
 -->
<!-- Title: detail::is_constructible&lt; const std::pair&lt; T1, T2 &gt; &gt; Pages: 1 -->
<svg width="162pt" height="432pt"
 viewBox="0.00 0.00 162.00 432.00" xmlns="http://www.w3.org/2000/svg" xmlns:xlink="http://www.w3.org/1999/xlink">
<g id="graph0" class="graph" transform="scale(1 1) rotate(0) translate(4 428)">
<title>detail::is_constructible&lt; const std::pair&lt; T1, T2 &gt; &gt;</title>
<!-- Node1 -->
<g id="node1" class="node">
<title>Node1</title>
<g id="a_node1"><a xlink:title=" ">
<polygon fill="#999999" stroke="#666666" points="5.62,-0.5 5.62,-72.5 148.38,-72.5 148.38,-0.5 5.62,-0.5"/>
<text text-anchor="start" x="13.62" y="-59" font-family="Helvetica,sans-Serif" font-size="10.00">detail::is_constructible</text>
<text text-anchor="middle" x="77" y="-47" font-family="Helvetica,sans-Serif" font-size="10.00">&lt; const std::pair&lt; T1, T2 &gt; &gt;</text>
<polyline fill="none" stroke="#666666" points="5.62,-40.5 148.38,-40.5"/>
<text text-anchor="middle" x="77" y="-27" font-family="Helvetica,sans-Serif" font-size="10.00"> </text>
<polyline fill="none" stroke="#666666" points="5.62,-20.5 148.38,-20.5"/>
<text text-anchor="middle" x="77" y="-7" font-family="Helvetica,sans-Serif" font-size="10.00"> </text>
</a>
</g>
</g>
<!-- Node2 -->
<g id="node2" class="node">
<title>Node2</title>
<g id="a_node2"><a xlink:href="structdetail_1_1is__default__constructible_3_01const_01std_1_1pair_3_01T1_00_01T2_01_4_01_4.html" target="_top" xlink:title=" ">
<polygon fill="white" stroke="#666666" points="22.12,-109.5 22.12,-193.5 131.88,-193.5 131.88,-109.5 22.12,-109.5"/>
<text text-anchor="start" x="30.12" y="-180" font-family="Helvetica,sans-Serif" font-size="10.00">detail::is_default</text>
<text text-anchor="start" x="30.12" y="-168" font-family="Helvetica,sans-Serif" font-size="10.00">_constructible&lt; const</text>
<text text-anchor="middle" x="77" y="-156" font-family="Helvetica,sans-Serif" font-size="10.00"> std::pair&lt; T1, T2 &gt; &gt;</text>
<polyline fill="none" stroke="#666666" points="22.12,-149.5 131.88,-149.5"/>
<text text-anchor="middle" x="77" y="-136" font-family="Helvetica,sans-Serif" font-size="10.00"> </text>
<polyline fill="none" stroke="#666666" points="22.12,-129.5 131.88,-129.5"/>
<text text-anchor="middle" x="77" y="-116" font-family="Helvetica,sans-Serif" font-size="10.00"> </text>
</a>
</g>
</g>
<!-- Node2&#45;&gt;Node1 -->
<g id="edge1" class="edge">
<title>Node2&#45;&gt;Node1</title>
<path fill="none" stroke="#63b8ff" d="M77,-97.75C77,-89.36 77,-80.85 77,-72.98"/>
<polygon fill="none" stroke="#63b8ff" points="73.5,-97.55 77,-107.55 80.5,-97.55 73.5,-97.55"/>
</g>
<!-- Node3 -->
<g id="node3" class="node">
<title>Node3</title>
<g id="a_node3"><a xlink:href="structdetail_1_1conjunction.html" target="_top" xlink:title=" ">
<polygon fill="white" stroke="#666666" points="0,-230.5 0,-326.5 154,-326.5 154,-230.5 0,-230.5"/>
<text text-anchor="start" x="8" y="-313" font-family="Helvetica,sans-Serif" font-size="10.00">detail::conjunction</text>
<text text-anchor="start" x="8" y="-301" font-family="Helvetica,sans-Serif" font-size="10.00">&lt; is_default_constructible</text>
<text text-anchor="start" x="8" y="-289" font-family="Helvetica,sans-Serif" font-size="10.00">&lt; T1 &gt;, is_default_constructible</text>
<text text-anchor="middle" x="77" y="-277" font-family="Helvetica,sans-Serif" font-size="10.00">&lt; T2 &gt; &gt;</text>
<polyline fill="none" stroke="#666666" points="0,-270.5 154,-270.5"/>
<text text-anchor="middle" x="77" y="-257" font-family="Helvetica,sans-Serif" font-size="10.00"> </text>
<polyline fill="none" stroke="#666666" points="0,-250.5 154,-250.5"/>
<text text-anchor="middle" x="77" y="-237" font-family="Helvetica,sans-Serif" font-size="10.00"> </text>
</a>
</g>
</g>
<!-- Node3&#45;&gt;Node2 -->
<g id="edge2" class="edge">
<title>Node3&#45;&gt;Node2</title>
<path fill="none" stroke="#63b8ff" d="M77,-218.79C77,-210.3 77,-201.72 77,-193.68"/>
<polygon fill="none" stroke="#63b8ff" points="73.5,-218.73 77,-228.73 80.5,-218.73 73.5,-218.73"/>
</g>
<!-- Node4 -->
<g id="node4" class="node">
<title>Node4</title>
<g id="a_node4"><a xlink:title=" ">
<polygon fill="white" stroke="#666666" points="39,-363.5 39,-423.5 115,-423.5 115,-363.5 39,-363.5"/>
<text text-anchor="middle" x="77" y="-410" font-family="Helvetica,sans-Serif" font-size="10.00">std::true_type</text>
<polyline fill="none" stroke="#666666" points="39,-403.5 115,-403.5"/>
<text text-anchor="middle" x="77" y="-390" font-family="Helvetica,sans-Serif" font-size="10.00"> </text>
<polyline fill="none" stroke="#666666" points="39,-383.5 115,-383.5"/>
<text text-anchor="middle" x="77" y="-370" font-family="Helvetica,sans-Serif" font-size="10.00"> </text>
</a>
</g>
</g>
<!-- Node4&#45;&gt;Node3 -->
<g id="edge3" class="edge">
<title>Node4&#45;&gt;Node3</title>
<path fill="none" stroke="#63b8ff" d="M77,-351.66C77,-343.55 77,-334.99 77,-326.69"/>
<polygon fill="none" stroke="#63b8ff" points="73.5,-351.59 77,-361.59 80.5,-351.59 73.5,-351.59"/>
</g>
</g>
</svg>
