<?xml version="1.0" encoding="UTF-8" standalone="no"?>
<!DOCTYPE svg PUBLIC "-//W3C//DTD SVG 1.1//EN"
 "http://www.w3.org/Graphics/SVG/1.1/DTD/svg11.dtd">
<!-- Generated by graphviz version 12.2.1 (20241206.2353)
 -->
<!-- Title: detail::is_compatible_integer_type_impl&lt; RealIntegerType, CompatibleNumberIntegerType, typename &gt; Pages: 1 -->
<svg width="189pt" height="202pt"
 viewBox="0.00 0.00 189.00 202.00" xmlns="http://www.w3.org/2000/svg" xmlns:xlink="http://www.w3.org/1999/xlink">
<g id="graph0" class="graph" transform="scale(1 1) rotate(0) translate(4 198)">
<title>detail::is_compatible_integer_type_impl&lt; RealIntegerType, CompatibleNumberIntegerType, typename &gt;</title>
<!-- Node1 -->
<g id="node1" class="node">
<title>Node1</title>
<g id="a_node1"><a xlink:title=" ">
<polygon fill="#999999" stroke="#666666" points="0,-0.5 0,-96.5 181,-96.5 181,-0.5 0,-0.5"/>
<text text-anchor="start" x="8" y="-83" font-family="Helvetica,sans-Serif" font-size="10.00">detail::is_compatible</text>
<text text-anchor="start" x="8" y="-71" font-family="Helvetica,sans-Serif" font-size="10.00">_integer_type_impl&lt; RealInteger</text>
<text text-anchor="start" x="8" y="-59" font-family="Helvetica,sans-Serif" font-size="10.00">Type, CompatibleNumberIntegerType,</text>
<text text-anchor="middle" x="90.5" y="-47" font-family="Helvetica,sans-Serif" font-size="10.00"> typename &gt;</text>
<polyline fill="none" stroke="#666666" points="0,-40.5 181,-40.5"/>
<text text-anchor="middle" x="90.5" y="-27" font-family="Helvetica,sans-Serif" font-size="10.00"> </text>
<polyline fill="none" stroke="#666666" points="0,-20.5 181,-20.5"/>
<text text-anchor="middle" x="90.5" y="-7" font-family="Helvetica,sans-Serif" font-size="10.00"> </text>
</a>
</g>
</g>
<!-- Node2 -->
<g id="node2" class="node">
<title>Node2</title>
<g id="a_node2"><a xlink:title=" ">
<polygon fill="white" stroke="#666666" points="50.25,-133.5 50.25,-193.5 130.75,-193.5 130.75,-133.5 50.25,-133.5"/>
<text text-anchor="middle" x="90.5" y="-180" font-family="Helvetica,sans-Serif" font-size="10.00">std::false_type</text>
<polyline fill="none" stroke="#666666" points="50.25,-173.5 130.75,-173.5"/>
<text text-anchor="middle" x="90.5" y="-160" font-family="Helvetica,sans-Serif" font-size="10.00"> </text>
<polyline fill="none" stroke="#666666" points="50.25,-153.5 130.75,-153.5"/>
<text text-anchor="middle" x="90.5" y="-140" font-family="Helvetica,sans-Serif" font-size="10.00"> </text>
</a>
</g>
</g>
<!-- Node2&#45;&gt;Node1 -->
<g id="edge1" class="edge">
<title>Node2&#45;&gt;Node1</title>
<path fill="none" stroke="#63b8ff" d="M90.5,-121.66C90.5,-113.55 90.5,-104.99 90.5,-96.69"/>
<polygon fill="none" stroke="#63b8ff" points="87,-121.59 90.5,-131.59 94,-121.59 87,-121.59"/>
</g>
</g>
</svg>
