<?xml version="1.0" encoding="UTF-8" standalone="no"?>
<!DOCTYPE svg PUBLIC "-//W3C//DTD SVG 1.1//EN"
 "http://www.w3.org/Graphics/SVG/1.1/DTD/svg11.dtd">
<!-- Generated by graphviz version 12.2.1 (20241206.2353)
 -->
<!-- Title: detail::is_constructible_tuple&lt; T1, std::tuple&lt; Args... &gt; &gt; Pages: 1 -->
<svg width="122pt" height="311pt"
 viewBox="0.00 0.00 121.50 311.00" xmlns="http://www.w3.org/2000/svg" xmlns:xlink="http://www.w3.org/1999/xlink">
<g id="graph0" class="graph" transform="scale(1 1) rotate(0) translate(4 307)">
<title>detail::is_constructible_tuple&lt; T1, std::tuple&lt; Args... &gt; &gt;</title>
<!-- Node1 -->
<g id="node1" class="node">
<title>Node1</title>
<g id="a_node1"><a xlink:title=" ">
<polygon fill="#999999" stroke="#666666" points="0,-0.5 0,-84.5 113.5,-84.5 113.5,-0.5 0,-0.5"/>
<text text-anchor="start" x="8" y="-71" font-family="Helvetica,sans-Serif" font-size="10.00">detail::is_constructible</text>
<text text-anchor="start" x="8" y="-59" font-family="Helvetica,sans-Serif" font-size="10.00">_tuple&lt; T1, std::tuple</text>
<text text-anchor="middle" x="56.75" y="-47" font-family="Helvetica,sans-Serif" font-size="10.00">&lt; Args... &gt; &gt;</text>
<polyline fill="none" stroke="#666666" points="0,-40.5 113.5,-40.5"/>
<text text-anchor="middle" x="56.75" y="-27" font-family="Helvetica,sans-Serif" font-size="10.00"> </text>
<polyline fill="none" stroke="#666666" points="0,-20.5 113.5,-20.5"/>
<text text-anchor="middle" x="56.75" y="-7" font-family="Helvetica,sans-Serif" font-size="10.00"> </text>
</a>
</g>
</g>
<!-- Node2 -->
<g id="node2" class="node">
<title>Node2</title>
<g id="a_node2"><a xlink:href="structdetail_1_1conjunction.html" target="_top" xlink:title=" ">
<polygon fill="white" stroke="#666666" points="7.12,-121.5 7.12,-205.5 106.38,-205.5 106.38,-121.5 7.12,-121.5"/>
<text text-anchor="start" x="15.12" y="-192" font-family="Helvetica,sans-Serif" font-size="10.00">detail::conjunction</text>
<text text-anchor="start" x="15.12" y="-180" font-family="Helvetica,sans-Serif" font-size="10.00">&lt; is_constructible&lt;</text>
<text text-anchor="middle" x="56.75" y="-168" font-family="Helvetica,sans-Serif" font-size="10.00"> T1, Args &gt;... &gt;</text>
<polyline fill="none" stroke="#666666" points="7.12,-161.5 106.38,-161.5"/>
<text text-anchor="middle" x="56.75" y="-148" font-family="Helvetica,sans-Serif" font-size="10.00"> </text>
<polyline fill="none" stroke="#666666" points="7.12,-141.5 106.38,-141.5"/>
<text text-anchor="middle" x="56.75" y="-128" font-family="Helvetica,sans-Serif" font-size="10.00"> </text>
</a>
</g>
</g>
<!-- Node2&#45;&gt;Node1 -->
<g id="edge1" class="edge">
<title>Node2&#45;&gt;Node1</title>
<path fill="none" stroke="#63b8ff" d="M56.75,-109.89C56.75,-101.46 56.75,-92.83 56.75,-84.71"/>
<polygon fill="none" stroke="#63b8ff" points="53.25,-109.7 56.75,-119.7 60.25,-109.7 53.25,-109.7"/>
</g>
<!-- Node3 -->
<g id="node3" class="node">
<title>Node3</title>
<g id="a_node3"><a xlink:title=" ">
<polygon fill="white" stroke="#666666" points="18.75,-242.5 18.75,-302.5 94.75,-302.5 94.75,-242.5 18.75,-242.5"/>
<text text-anchor="middle" x="56.75" y="-289" font-family="Helvetica,sans-Serif" font-size="10.00">std::true_type</text>
<polyline fill="none" stroke="#666666" points="18.75,-282.5 94.75,-282.5"/>
<text text-anchor="middle" x="56.75" y="-269" font-family="Helvetica,sans-Serif" font-size="10.00"> </text>
<polyline fill="none" stroke="#666666" points="18.75,-262.5 94.75,-262.5"/>
<text text-anchor="middle" x="56.75" y="-249" font-family="Helvetica,sans-Serif" font-size="10.00"> </text>
</a>
</g>
</g>
<!-- Node3&#45;&gt;Node2 -->
<g id="edge2" class="edge">
<title>Node3&#45;&gt;Node2</title>
<path fill="none" stroke="#63b8ff" d="M56.75,-230.97C56.75,-222.71 56.75,-214.02 56.75,-205.74"/>
<polygon fill="none" stroke="#63b8ff" points="53.25,-230.75 56.75,-240.75 60.25,-230.75 53.25,-230.75"/>
</g>
</g>
</svg>
