<?xml version="1.0" encoding="UTF-8" standalone="no"?>
<!DOCTYPE svg PUBLIC "-//W3C//DTD SVG 1.1//EN"
 "http://www.w3.org/Graphics/SVG/1.1/DTD/svg11.dtd">
<!-- Generated by graphviz version 12.2.1 (20241206.2353)
 -->
<!-- Title: detail::is_transparent&lt; T &gt; Pages: 1 -->
<svg width="139pt" height="178pt"
 viewBox="0.00 0.00 138.75 178.00" xmlns="http://www.w3.org/2000/svg" xmlns:xlink="http://www.w3.org/1999/xlink">
<g id="graph0" class="graph" transform="scale(1 1) rotate(0) translate(4 174)">
<title>detail::is_transparent&lt; T &gt;</title>
<!-- Node1 -->
<g id="node1" class="node">
<title>Node1</title>
<g id="a_node1"><a xlink:title=" ">
<polygon fill="#999999" stroke="#666666" points="0,-0.5 0,-60.5 130.75,-60.5 130.75,-0.5 0,-0.5"/>
<text text-anchor="middle" x="65.38" y="-47" font-family="Helvetica,sans-Serif" font-size="10.00">detail::is_transparent&lt; T &gt;</text>
<polyline fill="none" stroke="#666666" points="0,-40.5 130.75,-40.5"/>
<text text-anchor="middle" x="65.38" y="-27" font-family="Helvetica,sans-Serif" font-size="10.00"> </text>
<polyline fill="none" stroke="#666666" points="0,-20.5 130.75,-20.5"/>
<text text-anchor="middle" x="65.38" y="-7" font-family="Helvetica,sans-Serif" font-size="10.00"> </text>
</a>
</g>
</g>
<!-- Node2 -->
<g id="node2" class="node">
<title>Node2</title>
<g id="a_node2"><a xlink:title=" ">
<polygon fill="white" stroke="#666666" points="5.62,-97.5 5.62,-169.5 125.12,-169.5 125.12,-97.5 5.62,-97.5"/>
<text text-anchor="start" x="13.62" y="-156" font-family="Helvetica,sans-Serif" font-size="10.00">bool_constant&lt; impl</text>
<text text-anchor="middle" x="65.38" y="-144" font-family="Helvetica,sans-Serif" font-size="10.00">::is_transparent&lt; T &gt;()&gt;</text>
<polyline fill="none" stroke="#666666" points="5.62,-137.5 125.12,-137.5"/>
<text text-anchor="middle" x="65.38" y="-124" font-family="Helvetica,sans-Serif" font-size="10.00"> </text>
<polyline fill="none" stroke="#666666" points="5.62,-117.5 125.12,-117.5"/>
<text text-anchor="middle" x="65.38" y="-104" font-family="Helvetica,sans-Serif" font-size="10.00"> </text>
</a>
</g>
</g>
<!-- Node2&#45;&gt;Node1 -->
<g id="edge1" class="edge">
<title>Node2&#45;&gt;Node1</title>
<path fill="none" stroke="#63b8ff" d="M65.38,-85.81C65.38,-77.35 65.38,-68.74 65.38,-60.95"/>
<polygon fill="none" stroke="#63b8ff" points="61.88,-85.66 65.38,-95.66 68.88,-85.66 61.88,-85.66"/>
</g>
</g>
</svg>
