<?xml version="1.0" encoding="UTF-8" standalone="no"?>
<!DOCTYPE svg PUBLIC "-//W3C//DTD SVG 1.1//EN"
 "http://www.w3.org/Graphics/SVG/1.1/DTD/svg11.dtd">
<!-- Generated by graphviz version 12.2.1 (20241206.2353)
 -->
<!-- Title: CState Pages: 1 -->
<svg width="74pt" height="178pt"
 viewBox="0.00 0.00 74.25 178.00" xmlns="http://www.w3.org/2000/svg" xmlns:xlink="http://www.w3.org/1999/xlink">
<g id="graph0" class="graph" transform="scale(1 1) rotate(0) translate(4 174)">
<title>CState</title>
<!-- Node1 -->
<g id="node1" class="node">
<title>Node1</title>
<g id="a_node1"><a xlink:title=" ">
<polygon fill="#999999" stroke="#666666" points="2.25,-0.5 2.25,-72.5 64,-72.5 64,-0.5 2.25,-0.5"/>
<text text-anchor="middle" x="33.12" y="-59" font-family="Helvetica,sans-Serif" font-size="10.00">CState</text>
<polyline fill="none" stroke="#666666" points="2.25,-52.5 64,-52.5"/>
<text text-anchor="start" x="10.25" y="-39" font-family="Helvetica,sans-Serif" font-size="10.00">+ state</text>
<polyline fill="none" stroke="#666666" points="2.25,-32.5 64,-32.5"/>
<text text-anchor="start" x="10.25" y="-19" font-family="Helvetica,sans-Serif" font-size="10.00">+ CState()</text>
<text text-anchor="start" x="10.25" y="-7" font-family="Helvetica,sans-Serif" font-size="10.00">+ CState()</text>
</a>
</g>
</g>
<!-- Node2 -->
<g id="node2" class="node">
<title>Node2</title>
<g id="a_node2"><a xlink:href="structComponent.html" target="_top" xlink:title=" ">
<polygon fill="white" stroke="#666666" points="0,-109.5 0,-169.5 66.25,-169.5 66.25,-109.5 0,-109.5"/>
<text text-anchor="middle" x="33.12" y="-156" font-family="Helvetica,sans-Serif" font-size="10.00">Component</text>
<polyline fill="none" stroke="#666666" points="0,-149.5 66.25,-149.5"/>
<text text-anchor="start" x="8" y="-136" font-family="Helvetica,sans-Serif" font-size="10.00">+ has</text>
<polyline fill="none" stroke="#666666" points="0,-129.5 66.25,-129.5"/>
<text text-anchor="middle" x="33.12" y="-116" font-family="Helvetica,sans-Serif" font-size="10.00"> </text>
</a>
</g>
</g>
<!-- Node2&#45;&gt;Node1 -->
<g id="edge1" class="edge">
<title>Node2&#45;&gt;Node1</title>
<path fill="none" stroke="#63b8ff" d="M33.12,-97.73C33.12,-89.51 33.12,-80.94 33.12,-72.92"/>
<polygon fill="none" stroke="#63b8ff" points="29.63,-97.5 33.13,-107.5 36.63,-97.5 29.63,-97.5"/>
</g>
</g>
</svg>
