<?xml version="1.0" encoding="UTF-8" standalone="no"?>
<!DOCTYPE svg PUBLIC "-//W3C//DTD SVG 1.1//EN"
 "http://www.w3.org/Graphics/SVG/1.1/DTD/svg11.dtd">
<!-- Generated by graphviz version 12.2.1 (20241206.2353)
 -->
<!-- Title: CSkills Pages: 1 -->
<svg width="74pt" height="214pt"
 viewBox="0.00 0.00 74.25 214.00" xmlns="http://www.w3.org/2000/svg" xmlns:xlink="http://www.w3.org/1999/xlink">
<g id="graph0" class="graph" transform="scale(1 1) rotate(0) translate(4 210)">
<title>CSkills</title>
<!-- Node1 -->
<g id="node1" class="node">
<title>Node1</title>
<g id="a_node1"><a xlink:title=" ">
<polygon fill="#999999" stroke="#666666" points="1.88,-0.5 1.88,-108.5 64.38,-108.5 64.38,-0.5 1.88,-0.5"/>
<text text-anchor="middle" x="33.12" y="-95" font-family="Helvetica,sans-Serif" font-size="10.00">CSkills</text>
<polyline fill="none" stroke="#666666" points="1.88,-88.5 64.38,-88.5"/>
<text text-anchor="start" x="9.88" y="-75" font-family="Helvetica,sans-Serif" font-size="10.00">+ insight</text>
<text text-anchor="start" x="9.88" y="-63" font-family="Helvetica,sans-Serif" font-size="10.00">+ fluency</text>
<text text-anchor="start" x="9.88" y="-51" font-family="Helvetica,sans-Serif" font-size="10.00">+ literacy</text>
<text text-anchor="start" x="9.88" y="-39" font-family="Helvetica,sans-Serif" font-size="10.00">+ prestige</text>
<polyline fill="none" stroke="#666666" points="1.88,-32.5 64.38,-32.5"/>
<text text-anchor="start" x="9.88" y="-19" font-family="Helvetica,sans-Serif" font-size="10.00">+ CSkills()</text>
<text text-anchor="start" x="9.88" y="-7" font-family="Helvetica,sans-Serif" font-size="10.00">+ CSkills()</text>
</a>
</g>
</g>
<!-- Node2 -->
<g id="node2" class="node">
<title>Node2</title>
<g id="a_node2"><a xlink:href="structComponent.html" target="_top" xlink:title=" ">
<polygon fill="white" stroke="#666666" points="0,-145.5 0,-205.5 66.25,-205.5 66.25,-145.5 0,-145.5"/>
<text text-anchor="middle" x="33.12" y="-192" font-family="Helvetica,sans-Serif" font-size="10.00">Component</text>
<polyline fill="none" stroke="#666666" points="0,-185.5 66.25,-185.5"/>
<text text-anchor="start" x="8" y="-172" font-family="Helvetica,sans-Serif" font-size="10.00">+ has</text>
<polyline fill="none" stroke="#666666" points="0,-165.5 66.25,-165.5"/>
<text text-anchor="middle" x="33.12" y="-152" font-family="Helvetica,sans-Serif" font-size="10.00"> </text>
</a>
</g>
</g>
<!-- Node2&#45;&gt;Node1 -->
<g id="edge1" class="edge">
<title>Node2&#45;&gt;Node1</title>
<path fill="none" stroke="#63b8ff" d="M33.12,-133.72C33.12,-125.66 33.12,-117.09 33.12,-108.69"/>
<polygon fill="none" stroke="#63b8ff" points="29.63,-133.57 33.13,-143.57 36.63,-133.57 29.63,-133.57"/>
</g>
</g>
</svg>
