<?xml version="1.0" encoding="UTF-8" standalone="no"?>
<!DOCTYPE svg PUBLIC "-//W3C//DTD SVG 1.1//EN"
 "http://www.w3.org/Graphics/SVG/1.1/DTD/svg11.dtd">
<!-- Generated by graphviz version 12.2.1 (20241206.2353)
 -->
<!-- Title: detail::is_compatible_array_type_impl&lt; BasicJsonType, CompatibleArrayType, typename &gt; Pages: 1 -->
<svg width="153pt" height="202pt"
 viewBox="0.00 0.00 153.00 202.00" xmlns="http://www.w3.org/2000/svg" xmlns:xlink="http://www.w3.org/1999/xlink">
<g id="graph0" class="graph" transform="scale(1 1) rotate(0) translate(4 198)">
<title>detail::is_compatible_array_type_impl&lt; BasicJsonType, CompatibleArrayType, typename &gt;</title>
<!-- Node1 -->
<g id="node1" class="node">
<title>Node1</title>
<g id="a_node1"><a xlink:title=" ">
<polygon fill="#999999" stroke="#666666" points="0,-0.5 0,-96.5 145,-96.5 145,-0.5 0,-0.5"/>
<text text-anchor="start" x="8" y="-83" font-family="Helvetica,sans-Serif" font-size="10.00">detail::is_compatible</text>
<text text-anchor="start" x="8" y="-71" font-family="Helvetica,sans-Serif" font-size="10.00">_array_type_impl&lt; BasicJson</text>
<text text-anchor="start" x="8" y="-59" font-family="Helvetica,sans-Serif" font-size="10.00">Type, CompatibleArrayType,</text>
<text text-anchor="middle" x="72.5" y="-47" font-family="Helvetica,sans-Serif" font-size="10.00"> typename &gt;</text>
<polyline fill="none" stroke="#666666" points="0,-40.5 145,-40.5"/>
<text text-anchor="middle" x="72.5" y="-27" font-family="Helvetica,sans-Serif" font-size="10.00"> </text>
<polyline fill="none" stroke="#666666" points="0,-20.5 145,-20.5"/>
<text text-anchor="middle" x="72.5" y="-7" font-family="Helvetica,sans-Serif" font-size="10.00"> </text>
</a>
</g>
</g>
<!-- Node2 -->
<g id="node2" class="node">
<title>Node2</title>
<g id="a_node2"><a xlink:title=" ">
<polygon fill="white" stroke="#666666" points="32.25,-133.5 32.25,-193.5 112.75,-193.5 112.75,-133.5 32.25,-133.5"/>
<text text-anchor="middle" x="72.5" y="-180" font-family="Helvetica,sans-Serif" font-size="10.00">std::false_type</text>
<polyline fill="none" stroke="#666666" points="32.25,-173.5 112.75,-173.5"/>
<text text-anchor="middle" x="72.5" y="-160" font-family="Helvetica,sans-Serif" font-size="10.00"> </text>
<polyline fill="none" stroke="#666666" points="32.25,-153.5 112.75,-153.5"/>
<text text-anchor="middle" x="72.5" y="-140" font-family="Helvetica,sans-Serif" font-size="10.00"> </text>
</a>
</g>
</g>
<!-- Node2&#45;&gt;Node1 -->
<g id="edge1" class="edge">
<title>Node2&#45;&gt;Node1</title>
<path fill="none" stroke="#63b8ff" d="M72.5,-121.66C72.5,-113.55 72.5,-104.99 72.5,-96.69"/>
<polygon fill="none" stroke="#63b8ff" points="69,-121.59 72.5,-131.59 76,-121.59 69,-121.59"/>
</g>
</g>
</svg>
